<svg xmlns="http://www.w3.org/2000/svg" width="570" height="235" viewBox="0 0 570 235"><g><g><path fill="#f7f9f9" d="M570 235H0V.346h570z"/></g><g><path fill="#00af3f" d="M166.517 119c0 36.354-29.471 65.824-65.824 65.824-36.354 0-65.824-29.47-65.824-65.824s29.47-65.824 65.824-65.824c36.353 0 65.824 29.47 65.824 65.824z"/></g><g><path fill="#f04e98" d="M535.132 119c0 36.354-29.471 65.824-65.824 65.824-36.354 0-65.824-29.47-65.824-65.824s29.47-65.824 65.824-65.824c36.353 0 65.824 29.47 65.824 65.824z"/></g><g><path fill="#f9e300" d="M350.824 119c0 36.354-29.47 65.824-65.824 65.824s-65.824-29.47-65.824-65.824S248.646 53.176 285 53.176c36.353 0 65.824 29.47 65.824 65.824z"/></g></g></svg>