<svg xmlns="http://www.w3.org/2000/svg" width="570" height="236" viewBox="0 0 570 236"><g><g><path fill="#f7f9f9" d="M570 235.329H0V.675h570z"/></g><g><path d="M360.876 136.294c-.621-.657-1.596-1.279-1.771-3.854-1.152-16.9 2.592-44.02 2.63-44.292a6.258 6.258 0 0 0-5.326-7.052 6.257 6.257 0 0 0-7.052 5.326c-.406 2.915-3.939 29.002-2.721 46.868.427 6.262 3.025 11.11 7.317 13.65a6.24 6.24 0 0 0 3.177.873 6.28 6.28 0 0 0 5.383-3.066 6.207 6.207 0 0 0 .676-4.735c-.414-1.617-1.158-2.494-2.313-3.718z"/></g><g><path d="M326.651 102.892c4.852.849 9.071 3.64 11.881 7.859 3.254 4.885 4.29 11.234 2.843 17.42-1.28 5.472-4.352 10.31-8.648 13.627-3.656 2.82-7.859 4.299-12.096 4.299-1.047 0-2.095-.09-3.138-.272-4.852-.85-9.072-3.64-11.88-7.86-3.255-4.884-4.29-11.233-2.844-17.42 1.281-5.471 4.352-10.31 8.648-13.626 4.558-3.518 9.967-4.948 15.234-4.027zm3.045 22.369c.691-2.955.288-5.853-1.109-7.95-.659-.99-1.857-2.241-3.822-2.584a6.098 6.098 0 0 0-1.06-.092c-3.997 0-8.078 3.783-9.258 8.82-.69 2.956-.287 5.854 1.11 7.95.66.99 1.857 2.242 3.822 2.585 4.31.753 9.033-3.244 10.317-8.73z"/></g><g><path d="M298.094 136.472a6.06 6.06 0 0 1-3.29 11.152 6.033 6.033 0 0 1-3.281-.969 14.27 14.27 0 0 1-5.42-6.4c-.032.027-.062.056-.093.083-3.605 3.086-7.879 4.725-12.227 4.725-.717 0-1.435-.045-2.153-.135-4.655-.582-8.789-3.047-11.639-6.94-3.284-4.486-4.538-10.465-3.443-16.406.974-5.275 3.678-10.037 7.615-13.408 4.2-3.595 9.305-5.225 14.381-4.59a16.686 16.686 0 0 1 7.05 2.58c.75-8.2 1.654-14.159 1.73-14.645a6.06 6.06 0 0 1 11.978 1.842c-.043.28-3.483 23.007-2.38 40.677.096 1.536.62 2.078 1.172 2.434zm-16.387-11.74c.493-2.675.018-5.244-1.304-7.049-.607-.83-1.684-1.864-3.364-2.074a5.27 5.27 0 0 0-.638-.04c-3.54 0-7.081 3.592-7.934 8.212-.493 2.674-.018 5.243 1.304 7.048.606.83 1.684 1.864 3.364 2.074 3.744.47 7.668-3.274 8.572-8.172z"/></g><g><path d="M441.303 129.795c-.687-8.55-8.888-10.408-13.303-11.408a88.95 88.95 0 0 0-2.525-.478c-2.507-.417-4.86-1.145-4.66-2.642.121-.901 1.893-1.637 4.251-1.431 2.798.244 4.112.73 7.084 1.812 2.972 1.083 5.911.2 7.373-2.37 1.588-2.793.526-6.336-2.344-7.816-.864-.446-1.656-.832-2.2-1.05-2.43-.978-6.21-1.906-11.21-1.364-2.415.259-8.447 1.346-12.299 5.824-2.204 2.562-3.207 5.708-2.9 9.099.726 8.002 8.697 9.84 12.978 10.76 0 0 1.584.312 3.437.84.933.266 3.088.692 3.8 1.809.656 1.03.034 2.578-2.044 3.092-1.058.262-2.83.3-4.059.06-1.977-.39-3.943-.844-6.823-2.267-2.879-1.424-6.08-.542-7.663 2.072-1.629 2.69-.752 6.18 1.96 7.799 0 0 1.41.849 2.236 1.229 2.713 1.246 6.681 2.423 11.14 2.463 6.118.055 10.94-1.97 14.331-5.661 2.571-2.798 3.761-6.385 3.44-10.372z"/></g><g><path d="M396.57 105.306c4.007 2.226 6.66 5.77 7.673 10.247.962 4.254.508 7.55-1.35 9.798-3.345 4.043-11.737 4.74-15.19 4.852-2.404.075-8.29-.212-11.14-1.52.164.347.381.78.561 1.08 1.103 1.847 3.324 4.157 7.633 4.673 3.524.42 7.168-.42 9.173-1.565a5.204 5.204 0 0 1 4.113-.478c1.383.415 2.522 1.366 3.207 2.677 1.413 2.702.437 6.114-2.177 7.606-3.196 1.824-7.266 2.87-11.57 3.04a28.45 28.45 0 0 1-1.09.02c-1.023 0-2.023-.056-2.983-.172-7.167-.858-11.455-4.48-13.789-7.366-2.593-3.206-4.15-7.454-4.27-11.654-.274-9.4 3.812-16.691 11.814-21.085 5.914-3.248 13.705-3.31 19.385-.153zm-4.304 13.5c1.241-.485 1.354-1.073 1.131-2.128-.42-1.993-2.82-2.778-4.748-2.846-2.445-.086-4.873.424-6.517 1.362-1.735.99-2.815 2.064-3.444 2.847 2.064.969 5.104 1.49 8.39 1.419 1.711-.035 4.097-.226 5.188-.654z"/></g><g><path d="M148.042 105.752c.136-.008.273-.018.41-.03a5.444 5.444 0 0 0 4.963-5.899 5.409 5.409 0 0 0-1.921-3.704 5.404 5.404 0 0 0-3.977-1.26 2.82 2.82 0 0 1-3.05-2.565 2.823 2.823 0 0 1 2.566-3.049c2.994-.267 5.22-2.913 4.963-5.9-.259-2.994-2.9-5.227-5.899-4.964a13.634 13.634 0 0 0-9.323 4.837 13.633 13.633 0 0 0-3.17 10.013c.637 7.4 7.07 12.936 14.437 12.52z"/></g><g><path d="M245.213 105.306c4.007 2.226 6.66 5.77 7.673 10.247.962 4.254.508 7.55-1.352 9.798-3.344 4.043-11.735 4.74-15.188 4.852-2.404.075-8.291-.212-11.141-1.52.164.347.382.78.56 1.08 1.105 1.847 3.326 4.157 7.635 4.673 3.523.42 7.167-.42 9.173-1.565a5.204 5.204 0 0 1 4.113-.478c1.383.415 2.52 1.366 3.207 2.677 1.413 2.702.436 6.114-2.178 7.606-3.195 1.824-7.265 2.87-11.57 3.04a28.45 28.45 0 0 1-1.09.02c-1.022 0-2.022-.056-2.982-.172-7.168-.858-11.455-4.48-13.79-7.366-2.592-3.206-4.15-7.454-4.27-11.654-.273-9.4 3.813-16.691 11.815-21.085 5.913-3.248 13.705-3.31 19.385-.153zm-4.304 13.5c1.24-.485 1.353-1.073 1.13-2.128-.42-1.993-2.82-2.778-4.747-2.846-2.445-.086-4.873.424-6.517 1.362-1.735.99-2.815 2.064-3.444 2.847 2.063.969 5.104 1.49 8.389 1.419 1.71-.035 4.098-.226 5.189-.654z"/></g><g><path d="M184.006 77.12c19.318 7.348 29.259 25.562 24.737 45.322-2.374 10.376-8.144 18.6-16.684 23.781-6.73 4.086-15.254 6.263-24.353 6.277-.107.125-.215.247-.32.38-4.64 5.937-9.85 12.6-19.428 12.6a22.53 22.53 0 0 1-2.79-.179c-6.588-.824-12.283-5.67-14.51-12.346-1.787-5.36-1.033-11.089 1.963-16.173a25.297 25.297 0 0 1 1.734-2.484c-4.007-2.895-6.32-7.863-5.57-13.086a13.64 13.64 0 0 1 5.362-9.032 13.638 13.638 0 0 1 10.177-2.595c2.98.424 5.047 3.198 4.619 6.173-.427 2.967-3.196 5.04-6.173 4.62a2.815 2.815 0 0 0-2.09.533 2.817 2.817 0 0 0 1.286 5.044c1.194.17 3.025-.418 4.672-1.125a27.888 27.888 0 0 1 10.035-2.266c3.455-11.946 3.606-24.356.548-38.212a6.451 6.451 0 0 1 4.902-7.68 6.428 6.428 0 0 1 4.857.86 6.402 6.402 0 0 1 2.825 4.041c3.449 15.63 3.374 29.7-.324 43.25 6.487 2.482 11.9 6.61 15.644 10.528.084-.049.167-.095.25-.146 5.569-3.379 9.205-8.64 10.806-15.637 3.026-13.222-3.708-25.44-16.758-30.407a6.392 6.392 0 0 1-3.584-3.384 6.393 6.393 0 0 1-.146-4.928 6.395 6.395 0 0 1 3.384-3.584 6.395 6.395 0 0 1 4.929-.146zm-24.43 69.655c2.73-3.49 6.016-5.659 9.34-6.974-4.685-.54-11.135.314-16.4 6.918a3.464 3.464 0 0 1-2.715 1.307 3.47 3.47 0 0 1-2.711-5.632c4.885-6.129 10.56-8.569 15.479-9.348a22.461 22.461 0 0 0-2.022-.386 19.85 19.85 0 0 0-2.803-.202c-5.086 0-9.782 2.048-13.99 6.113-3.631 3.506-4.941 7.501-3.692 11.25 1.01 3.028 3.556 5.297 6.336 5.644 5.317.664 7.837-1.856 13.179-8.69z"/></g></g></svg>