<svg xmlns="http://www.w3.org/2000/svg" width="571" height="236" viewBox="0 0 571 236"><g><g><path fill="#f7f9f9" d="M570.89 235.329H.89V.675h570z"/></g><g><path fill="#f9e300" d="M159.993 49.304a16.902 16.902 0 0 0-10.086 8.228l-1.224 2.274c-3.62-4.35-9.328-6.81-15.34-6.009a17.01 17.01 0 0 0-14.608 19.122l.739 5.511c.022.167.05.331.078.496-.664.23-1.31.493-1.934.791a18.25 18.25 0 0 0-8.917-3.216c-7.381-.633-14.566 1.648-20.23 6.421a27.584 27.584 0 0 0-8.81 13.621 27.98 27.98 0 0 0-.95 5.222 27.559 27.559 0 0 0 2.4 13.836 27.5 27.5 0 0 0-12.1 11.934 27.606 27.606 0 0 0-1.859 21.141c2.226 7.063 7.067 12.838 13.633 16.26a18.275 18.275 0 0 0 5.53 1.837c2.015 4.728 8.104 17.082 19.372 24.658a18.747 18.747 0 0 0 11.57 3.136c5.49-.345 10.432-3.012 13.712-7.363 9.743-.392 19.03-2.77 27.25-7.024 10.169-5.259 18.138-13.386 23.044-23.504a56.76 56.76 0 0 0 3.532-9.309c2.844-10.05 2.932-20.756.248-30.143a53.549 53.549 0 0 0-1.1-3.392 17.184 17.184 0 0 0 1.559-.866l6.88-4.356a16.984 16.984 0 0 0 7.272-9.74 17.036 17.036 0 0 0-1.994-13.733c-4.366-6.897-12.914-9.582-20.284-6.853l2.49-4.626a17.175 17.175 0 0 0 1.39-3.434 17.082 17.082 0 0 0-.67-11.173 17.056 17.056 0 0 0-7.641-8.436 16.893 16.893 0 0 0-12.952-1.31z"/></g><g><path fill="#00af3f" d="M116.087 183.102a7.127 7.127 0 0 1-3.983-1.216c-10.078-6.776-15.101-19.277-15.641-20.68a7.105 7.105 0 0 1 .14-5.47 7.099 7.099 0 0 1 3.968-3.769 6.992 6.992 0 0 1 2.513-.467c1.144 0 2.29.283 3.327.821 5.95-8.75 9.033-14.2 11.51-23.155 2.374-8.584 3.23-14.419.849-30.776-.358-2.458.13-4.716 1.373-6.358 1.095-1.445 2.742-2.348 4.764-2.61.464-.062.92-.092 1.358-.092 3.94 0 6.806 2.528 7.864 6.937 5.149 21.47 1.209 41.74-12.043 61.956 2.939.546 5.799.823 8.503.823 20.432 0 26.954-15.29 27.22-15.943 2.142-5.212 4.055-12.419-.201-21.97-3.524-7.907-10.31-12.898-12.863-14.777-.296-.218-.543-.399-.73-.544-3.95-3.06-5.198-7.685-3.035-11.246 1.355-2.23 3.373-3.409 5.836-3.409 1.425 0 2.96.408 4.44 1.18 10.66 5.556 19.37 16.304 22.728 28.05 2.81 9.823 1.662 21.514-3.07 31.27-3.815 7.867-10.032 14.197-17.98 18.308-7.437 3.847-15.776 5.798-24.784 5.798-1.63 0-3.293-.066-4.95-.196.092 1.585-.312 3.093-1.174 4.375a7.103 7.103 0 0 1-5.94 3.16z"/></g><g><path fill="#00af3f" d="M133.94 96.314c5.414 22.577.357 43.034-12.178 62.048 3.185.609 6.122.88 8.827.88 18.076 0 25.772-12.1 27.401-16.063 1.73-4.21 4.367-11.865-.204-22.124-3.937-8.834-11.78-13.948-13.65-15.396-3.877-3.003-5.113-7.496-2.99-10.991 1.426-2.347 3.487-3.315 5.67-3.315 1.447 0 2.947.425 4.351 1.158 10.7 5.576 19.301 16.29 22.63 27.93 2.89 10.105 1.498 21.737-3.059 31.132-3.826 7.889-10.102 14.19-17.893 18.219-7.728 3.998-16.184 5.777-24.696 5.777-1.718 0-3.44-.072-5.159-.214.133 1.528-.204 3.107-1.126 4.479a6.939 6.939 0 0 1-5.777 3.074 6.927 6.927 0 0 1-3.874-1.183c-10.03-6.744-15.03-19.192-15.568-20.59a6.953 6.953 0 0 1 3.996-8.985 6.806 6.806 0 0 1 2.443-.454c1.194 0 2.36.314 3.39.88 5.957-8.751 9.095-14.173 11.635-23.357 2.438-8.816 3.223-14.591.854-30.856-.615-4.218 1.298-8.14 5.97-8.748.464-.06.907-.09 1.332-.09 4.504 0 6.827 3.256 7.675 6.789zm-9.057-7.086c-2.076.27-3.768 1.2-4.895 2.688-1.276 1.683-1.777 3.993-1.41 6.503 2.376 16.32 1.521 22.139-.845 30.696-2.456 8.88-5.512 14.307-11.387 22.956a7.437 7.437 0 0 0-3.262-.765 7.302 7.302 0 0 0-6.659 4.351 7.295 7.295 0 0 0-.144 5.619c.542 1.41 5.587 13.964 15.714 20.773a7.318 7.318 0 0 0 4.554 1.234 7.292 7.292 0 0 0 5.64-3.232 7.194 7.194 0 0 0 1.216-4.272c1.59.119 3.182.18 4.744.18 9.04 0 17.41-1.958 24.875-5.82 7.985-4.13 14.232-10.491 18.065-18.396 4.753-9.798 5.905-21.54 3.082-31.41-3.372-11.795-12.118-22.588-22.824-28.168-1.508-.787-3.075-1.202-4.53-1.202-2.536 0-4.612 1.21-6.004 3.503-2.216 3.648-.948 8.378 3.083 11.5.188.147.436.33.734.549 2.543 1.87 9.297 6.839 12.8 14.698 4.225 9.483 2.326 16.64.2 21.818-.266.646-6.738 15.822-27.04 15.822-2.605 0-5.354-.26-8.18-.768 13.154-20.182 17.05-40.424 11.91-61.862-1.08-4.504-4.017-7.087-8.055-7.087-.445 0-.91.03-1.382.092z"/></g><g><path fill="#00af3f" d="M105.29 120.31a9.044 9.044 0 0 1-.33-.02c-8.918-.761-15.55-8.632-14.79-17.545a16.12 16.12 0 0 1 5.713-11.028 16.203 16.203 0 0 1 11.836-3.756 6.82 6.82 0 0 1 4.665 2.418 6.83 6.83 0 0 1 1.591 5.008c-.302 3.522-3.309 6.28-6.846 6.28-.192 0-.384-.007-.578-.023a2.496 2.496 0 0 0-1.82.576 2.478 2.478 0 0 0-.878 1.694 2.472 2.472 0 0 0 .578 1.816c.43.51 1.031.82 1.692.877a6.829 6.829 0 0 1 4.666 2.418 6.82 6.82 0 0 1 1.591 5.008c-.292 3.417-2.982 6.054-6.397 6.269a7.018 7.018 0 0 1-.693.009z"/></g><g><path fill="#00af3f" d="M107.703 88.155a6.627 6.627 0 0 1 4.532 2.35 6.63 6.63 0 0 1 1.546 4.865c-.297 3.467-3.226 6.103-6.652 6.103-.185 0-.373-.008-.562-.024a2.697 2.697 0 0 0-1.961.622 2.687 2.687 0 0 0 1.501 4.73 6.635 6.635 0 0 1 4.534 2.35 6.632 6.632 0 0 1 1.546 4.865 6.665 6.665 0 0 1-7.213 6.08h-.002c-8.806-.753-15.358-8.529-14.607-17.335a15.922 15.922 0 0 1 5.644-10.895 15.902 15.902 0 0 1 10.298-3.77c.463 0 .93.02 1.396.06zm-11.946 3.413a16.316 16.316 0 0 0-5.78 11.16c-.77 9.02 5.942 16.985 14.961 17.757l.033.003h.004a7.781 7.781 0 0 0 .571.023c.152 0 .302-.006.451-.015 3.511-.22 6.278-2.933 6.578-6.447a7.017 7.017 0 0 0-1.636-5.15 7.017 7.017 0 0 0-4.799-2.486 2.28 2.28 0 0 1-1.559-.809 2.276 2.276 0 0 1-.533-1.674 2.297 2.297 0 0 1 2.487-2.093c.2.017.397.025.594.025 3.638 0 6.731-2.837 7.04-6.459a7.017 7.017 0 0 0-1.636-5.15 7.01 7.01 0 0 0-4.797-2.487 16.4 16.4 0 0 0-11.979 3.802z"/></g><g><path fill="#00af3f" d="M89.016 155.508a6.79 6.79 0 0 1-2.915-.772 16.123 16.123 0 0 1-7.979-9.515 16.107 16.107 0 0 1 1.088-12.37c2-3.837 5.38-6.667 9.52-7.97a16.257 16.257 0 0 1 4.9-.76c2.573 0 5.155.636 7.465 1.84a6.875 6.875 0 0 1 2.917 9.26 6.83 6.83 0 0 1-4.026 3.379 6.899 6.899 0 0 1-2.07.319 6.894 6.894 0 0 1-3.167-.78 2.455 2.455 0 0 0-1.144-.28 2.49 2.49 0 0 0-1.159 4.7 6.82 6.82 0 0 1 3.377 4.025 6.826 6.826 0 0 1-.46 5.235 6.917 6.917 0 0 1-6.098 3.695z"/></g><g><path fill="#00af3f" d="M101.005 126.133a6.68 6.68 0 0 1 2.833 8.998 6.63 6.63 0 0 1-3.91 3.283 6.643 6.643 0 0 1-5.088-.449 2.69 2.69 0 0 0-3.624 1.143 2.668 2.668 0 0 0-.18 2.048 2.666 2.666 0 0 0 1.32 1.575 6.62 6.62 0 0 1 3.28 3.912 6.63 6.63 0 0 1-.446 5.086 6.715 6.715 0 0 1-6.167 3.585 6.596 6.596 0 0 1-2.832-.75 15.929 15.929 0 0 1-7.883-9.402 15.925 15.925 0 0 1 1.074-12.221 15.925 15.925 0 0 1 9.405-7.875 16.094 16.094 0 0 1 4.843-.751c2.542 0 5.06.612 7.375 1.818zm-12.335-1.439a16.314 16.314 0 0 0-9.633 8.067 16.3 16.3 0 0 0-1.1 12.518 16.32 16.32 0 0 0 8.073 9.631 6.994 6.994 0 0 0 3.694.784 7.11 7.11 0 0 0 5.831-3.785 7.009 7.009 0 0 0 .473-5.383 7.01 7.01 0 0 0-3.472-4.141 2.276 2.276 0 0 1-1.129-1.346 2.295 2.295 0 0 1 2.198-2.986c.37 0 .725.087 1.054.258a7.082 7.082 0 0 0 3.257.803c.718 0 1.434-.111 2.128-.328a7.021 7.021 0 0 0 4.141-3.475c1.798-3.451.452-7.724-3-9.524a16.427 16.427 0 0 0-7.555-1.862c-1.673 0-3.342.259-4.96.769z"/></g><g><path fill="#00af3f" d="M176.41 104.103a5.486 5.486 0 0 1-4.662-2.564 5.517 5.517 0 0 1 1.709-7.604l6.88-4.354a5.5 5.5 0 0 1 2.945-.856c1.9 0 3.643.959 4.659 2.565a5.472 5.472 0 0 1 .72 4.154 5.476 5.476 0 0 1-2.43 3.448l-6.88 4.356a5.52 5.52 0 0 1-2.941.854z"/></g><g><path fill="#00af3f" d="M187.777 91.393a5.317 5.317 0 0 1-1.65 7.334l-6.881 4.355a5.294 5.294 0 0 1-2.836.825 5.316 5.316 0 0 1-2.849-9.807l6.882-4.355a5.31 5.31 0 0 1 7.334 1.648zm-7.542-1.978l-6.882 4.356a5.712 5.712 0 0 0-1.77 7.871 5.68 5.68 0 0 0 5.184 2.644 5.718 5.718 0 0 0 2.688-.874l6.88-4.356a5.711 5.711 0 0 0 1.77-7.87 5.68 5.68 0 0 0-4.823-2.656 5.695 5.695 0 0 0-3.047.885z"/></g><g><path fill="#00af3f" d="M157.569 84.696a5.517 5.517 0 0 1-2.607-.66 5.47 5.47 0 0 1-2.666-3.266 5.478 5.478 0 0 1 .425-4.196l7.312-13.588a5.51 5.51 0 1 1 9.704 5.222l-7.312 13.589a5.481 5.481 0 0 1-4.856 2.899z"/></g><g><path fill="#00af3f" d="M167.404 60.917a5.314 5.314 0 0 1 2.161 7.2l-7.312 13.587a5.311 5.311 0 0 1-7.198 2.161 5.315 5.315 0 0 1-2.162-7.199l7.312-13.588a5.315 5.315 0 0 1 7.2-2.16zm-7.542 1.976l-7.312 13.588a5.667 5.667 0 0 0-.44 4.345 5.67 5.67 0 0 0 2.76 3.382 5.702 5.702 0 0 0 3.057.672 5.677 5.677 0 0 0 4.67-2.99l7.312-13.59a5.669 5.669 0 0 0 .44-4.344 5.657 5.657 0 0 0-2.76-3.382 5.701 5.701 0 0 0-7.727 2.32z"/></g><g><path fill="#00af3f" d="M136.327 81.683a5.523 5.523 0 0 1-5.454-4.78l-.738-5.512a5.47 5.47 0 0 1 1.082-4.075 5.471 5.471 0 0 1 3.648-2.117c.249-.034.496-.05.74-.05 2.743 0 5.087 2.055 5.45 4.78l.74 5.512a5.477 5.477 0 0 1-1.082 4.076 5.476 5.476 0 0 1-4.037 2.155 5.89 5.89 0 0 1-.35.01z"/></g><g><path fill="#00af3f" d="M140.863 69.954l.738 5.512a5.314 5.314 0 1 1-10.535 1.412l-.738-5.513a5.314 5.314 0 0 1 5.277-6.021c2.629 0 4.9 1.94 5.258 4.61zm-6.024-4.95a5.67 5.67 0 0 0-3.777 2.193 5.669 5.669 0 0 0-1.121 4.22l.739 5.512c.377 2.82 2.805 4.949 5.647 4.949a5.456 5.456 0 0 0 .765-.052 5.666 5.666 0 0 0 3.775-2.191 5.669 5.669 0 0 0 1.121-4.22l-.738-5.513c-.378-2.821-2.805-4.948-5.645-4.948-.254 0-.512.017-.766.05z"/></g><g><path fill="#f9e300" d="M352.55 98.765a17.827 17.827 0 0 0-3.35-5.099c2.034-4.604 2.142-9.924.026-15.178a19.397 19.397 0 0 0-3.107-5.219 18.254 18.254 0 0 0 .88-9.415c-1.245-7.309-5.255-13.689-11.292-17.97-5.086-3.612-11.06-5.373-17.273-5.09a28.06 28.06 0 0 0-3.415.367 27.543 27.543 0 0 0-12.791 5.795 27.495 27.495 0 0 0-14.588-8.72 27.827 27.827 0 0 0-7.525-.688 27.739 27.739 0 0 0-13.406 4.192c-6.281 3.925-10.656 10.062-12.32 17.278a18.182 18.182 0 0 0-.392 5.812c-4.071 3.136-14.5 12.124-19.01 24.94a18.745 18.745 0 0 0-.135 11.981c1.716 5.234 5.537 9.347 10.57 11.431 2.823 9.333 7.456 17.727 13.634 24.617 7.644 8.524 17.51 14.2 28.534 16.41 4.5.903 9.166 1.252 13.868 1.037 9.157-.417 17.896-2.933 25.27-7.275 6.477-3.812 12.369-9.16 17.04-15.469 4.714-6.364 8.097-13.588 9.784-20.89 1.042-4.51.696-8.954-1.002-12.847z"/></g><g><path fill="#f04e98" d="M337.553 99.82c-3.917-1.178-7.956 1.145-9.89 5.65-.933 2.174-3.915 11.05-11.48 17.077-8.784 6.999-16.857 6.366-21.364 5.748-2.874-.394-10.04-2.581-15.784-9.353 14.414 3.103 25.465 1.525 26.054 1.435a5.308 5.308 0 0 0 4.449-6.04 5.315 5.315 0 0 0-6.036-4.47c-.15.022-14.553 2.023-31.012-3.801-.72-2.694-1.241-5.675-1.458-9.032 21.552 7.364 42.623 7.128 63.119-3.776 3.51-1.868 6.255-5.362 4.225-10.4-1.761-4.37-6.037-5.238-9.966-3.584-15.15 6.373-20.938 7.06-30.084 6.913-9.526-.155-15.562-1.832-25.527-5.404.486-1.915.188-4.016-1.052-5.753a6.952 6.952 0 0 0-9.701-1.613c-1.218.87-12.013 8.832-16.024 20.235a6.949 6.949 0 0 0 4.251 8.868c1.56.549 3.173.478 4.618-.034 1.75 10.11 5.892 19.718 12.874 27.505 5.856 6.53 13.529 11.026 22.126 12.75 10.238 2.055 21.847.484 30.905-4.85 10.432-6.141 18.644-17.156 21.359-28.912.895-3.87-.23-7.843-4.602-9.16z"/></g><g><path fill="#f04e98" d="M303.862 71.185a6.805 6.805 0 0 0 .241.967 6.662 6.662 0 0 0 7.454 4.489 6.625 6.625 0 0 0 4.323-2.717 6.624 6.624 0 0 0 1.137-4.978 2.688 2.688 0 0 1 2.198-3.098 2.655 2.655 0 0 1 2.003.458 2.7 2.7 0 0 1 1.096 1.742c.632 3.618 4.076 6.072 7.693 5.459 3.626-.617 6.076-4.07 5.46-7.695a15.93 15.93 0 0 0-6.527-10.388 15.919 15.919 0 0 0-11.961-2.731c-8.713 1.482-14.597 9.775-13.117 18.489z"/></g><g><path fill="#f04e98" d="M265.942 65.211a6.712 6.712 0 0 0 4.845 4.436 6.677 6.677 0 0 0 8-5c.161-.7.584-1.294 1.193-1.673a2.666 2.666 0 0 1 2.027-.34 2.692 2.692 0 0 1 2.014 3.222 6.63 6.63 0 0 0 .843 5.037 6.626 6.626 0 0 0 4.16 2.963 6.624 6.624 0 0 0 5.035-.844 6.633 6.633 0 0 0 2.963-4.156c.963-4.166.24-8.46-2.03-12.095a15.925 15.925 0 0 0-9.983-7.128 15.914 15.914 0 0 0-12.1 2.026 15.92 15.92 0 0 0-7.123 9.987 6.596 6.596 0 0 0 .156 3.565z"/></g><g><path fill="#f04e98" d="M480.69 103.497a17.847 17.847 0 0 0-6.092-.27c-2.542-4.344-6.793-7.546-12.293-8.907a19.288 19.288 0 0 0-6.04-.524 18.247 18.247 0 0 0-7.121-6.237c-6.657-3.273-14.178-3.758-21.187-1.368A27.776 27.776 0 0 0 423.8 88a17.188 17.188 0 0 0-11.315-6.161 17.407 17.407 0 0 0-14.637 5.314 17.206 17.206 0 0 0-4.607 9.854c-.034.285-3.777 30.483-14.633 59.924-3.306 8.967 1.299 18.952 10.266 22.258l.029.01a17.287 17.287 0 0 0 9.254.728c1.354 4.484 3.379 9.242 6.409 13.608a18.753 18.753 0 0 0 9.647 7.129c5.232 1.672 10.806.983 15.444-1.88 9.22 3.177 18.738 4.335 27.94 3.36 11.385-1.205 21.762-5.882 30.01-13.524a55.845 55.845 0 0 0 2.622-2.6c8.582-9.086 14.135-21.035 15.235-32.782.7-7.482-.186-15.39-2.564-22.87-2.4-7.548-6.275-14.52-11.21-20.163-3.044-3.486-6.85-5.806-11-6.71z"/></g><g><path d="M472.766 116.273c-3.248 2.484-3.729 7.12-1.21 11.325 1.216 2.03 6.666 9.644 7.124 19.304.531 11.22-4.709 17.394-7.849 20.686-3.402 3.565-18.179 14.235-39.269.98 4.285-3.034 8.21-6.294 11.78-9.78l5.546 3.906a7.39 7.39 0 0 0 2.013 1.003c3 .958 6.4-.082 8.308-2.795a7.406 7.406 0 0 0-1.79-10.32l-4.433-3.122c6.472-9.276 10.774-19.936 12.468-32.273.541-3.938-.685-8.208-5.957-9.513-4.574-1.13-7.78 1.827-8.74 5.98-3.704 16.014-6.534 21.11-12.009 28.437-5.704 7.633-10.597 11.543-19.327 17.532-1.268-1.516-3.146-2.505-5.28-2.516a6.952 6.952 0 0 0-6.987 6.92c-.008 1.496.128 14.91 7.021 24.838a6.92 6.92 0 0 0 3.593 2.655 6.936 6.936 0 0 0 6.086-.91c1.358-.944 2.246-2.292 2.676-3.764 9.221 4.5 19.436 6.77 29.836 5.667 8.723-.924 16.86-4.512 23.291-10.472 7.66-7.098 13.182-17.429 14.163-27.893 1.128-12.054-2.993-25.16-10.934-34.244-2.614-2.992-6.494-4.405-10.12-1.63z"/></g><g><path d="M429.824 126.818l.003.001a6.598 6.598 0 0 0 .925.372 6.664 6.664 0 0 0 8.004-3.416c1.623-3.3.258-7.305-3.043-8.93a2.69 2.69 0 0 1-1.224-3.596 2.657 2.657 0 0 1 1.544-1.356 2.711 2.711 0 0 1 2.054.133c3.3 1.608 7.309.25 8.929-3.042a6.682 6.682 0 0 0-3.041-8.932 15.915 15.915 0 0 0-12.242-.79 15.919 15.919 0 0 0-9.218 8.097c-3.9 7.931-.621 17.557 7.309 21.46z"/></g><g><path d="M400.158 164.878a262.889 262.889 0 0 0 4.407-13.027c8.27 2.047 17.11-2.047 20.412-9.82 1.735-4.082 1.7-8.553-.096-12.59-1.796-4.037-5.16-7.109-9.411-8.783-.885-.349-1.855-.532-2.841-.569 2.376-11.757 3.344-19.723 3.422-20.376.364-3.09-1.844-5.899-4.934-6.257a5.634 5.634 0 0 0-6.26 4.93c-.037.313-3.846 31.602-15.274 62.592a5.636 5.636 0 0 0 10.575 3.9z"/></g></g></svg>