<svg xmlns="http://www.w3.org/2000/svg" width="360" height="104" viewBox="0 0 360 104"><g><g><path fill="#00af3f" d="M267.353 69.607c-.714-.757-1.837-1.473-2.04-4.437-1.325-19.456 2.985-50.677 3.029-50.99.548-3.928-2.203-7.57-6.131-8.118-3.928-.548-7.57 2.202-8.12 6.13-.467 3.357-4.533 33.388-3.132 53.957.492 7.208 3.483 12.79 8.423 15.714a7.182 7.182 0 0 0 3.659 1.005 7.23 7.23 0 0 0 6.196-3.53 7.142 7.142 0 0 0 .779-5.45c-.477-1.862-1.333-2.872-2.663-4.28z"/></g><g><path fill="#00af3f" d="M227.952 31.154c5.586.977 10.443 4.189 13.678 9.046 3.746 5.624 4.939 12.934 3.273 20.056-1.475 6.299-5.01 11.87-9.956 15.687-4.208 3.248-9.048 4.95-13.926 4.95-1.204 0-2.411-.104-3.611-.314-5.586-.977-10.444-4.19-13.68-9.047-3.745-5.624-4.937-12.934-3.271-20.055 1.475-6.3 5.01-11.87 9.956-15.687 5.247-4.05 11.475-5.697 17.537-4.636zm3.506 25.75c.796-3.401.33-6.736-1.277-9.15-.76-1.14-2.138-2.581-4.4-2.976a7.048 7.048 0 0 0-1.221-.105c-4.601 0-9.3 4.355-10.657 10.154-.796 3.402-.33 6.738 1.278 9.152.757 1.139 2.137 2.58 4.398 2.976 4.961.867 10.4-3.735 11.878-10.05z"/></g><g><path fill="#00af3f" d="M195.076 69.812a6.975 6.975 0 0 1-3.789 12.838 6.934 6.934 0 0 1-3.776-1.116 16.415 16.415 0 0 1-6.239-7.367c-.037.031-.07.065-.107.096-4.15 3.553-9.07 5.438-14.076 5.438-.826 0-1.652-.05-2.479-.154-5.359-.67-10.118-3.508-13.399-7.99-3.78-5.164-5.225-12.048-3.963-18.887 1.12-6.073 4.234-11.555 8.766-15.436 4.834-4.138 10.712-6.015 16.555-5.284a19.211 19.211 0 0 1 8.117 2.97c.863-9.44 1.904-16.3 1.99-16.86a6.974 6.974 0 0 1 7.955-5.834 6.975 6.975 0 0 1 5.834 7.955c-.049.322-4.008 26.487-2.739 46.83.111 1.767.714 2.39 1.35 2.801zm-18.865-13.517c.568-3.078.021-6.036-1.5-8.114-.7-.955-1.94-2.145-3.875-2.387a5.837 5.837 0 0 0-.735-.046c-4.076 0-8.152 4.135-9.133 9.454-.568 3.078-.02 6.035 1.501 8.114.7.955 1.94 2.145 3.873 2.387 4.311.54 8.828-3.769 9.87-9.408z"/></g><g><path fill="#00af3f" d="M359.943 62.125c-.792-9.841-10.232-11.981-15.314-13.133-.093-.019-1.916-.388-2.907-.551-2.887-.48-5.597-1.317-5.366-3.041.14-1.037 2.179-1.885 4.894-1.648 3.222.281 4.735.841 8.156 2.087 3.42 1.245 6.805.23 8.488-2.729 1.827-3.214.605-7.294-2.698-8.997-.996-.514-1.908-.958-2.534-1.21-2.798-1.126-7.148-2.194-12.905-1.57-2.78.298-9.725 1.549-14.16 6.705-2.536 2.949-3.691 6.57-3.337 10.474.835 9.214 10.012 11.329 14.94 12.389 0 0 1.824.358 3.957.966 1.075.306 3.555.797 4.374 2.083.756 1.187.04 2.967-2.352 3.559-1.218.302-3.258.347-4.673.069-2.275-.447-4.54-.972-7.855-2.61-3.314-1.638-7.001-.623-8.822 2.386-1.875 3.097-.865 7.114 2.257 8.978 0 0 1.622.978 2.574 1.415 3.122 1.435 7.69 2.79 12.825 2.836 7.042.063 12.593-2.269 16.498-6.518 2.96-3.221 4.329-7.35 3.96-11.94z"/></g><g><path fill="#00af3f" d="M308.445 33.932c4.613 2.563 7.667 6.642 8.834 11.796 1.107 4.898.584 8.693-1.556 11.28-3.85 4.655-13.511 5.457-17.486 5.586-2.768.087-9.544-.244-12.825-1.749.189.4.439.9.646 1.244 1.27 2.126 3.827 4.784 8.787 5.38 4.057.483 8.252-.485 10.56-1.803a5.988 5.988 0 0 1 4.736-.55c1.592.478 2.903 1.572 3.692 3.081 1.627 3.11.503 7.04-2.507 8.756-3.68 2.1-8.365 3.306-13.32 3.5-.421.017-.84.025-1.254.025-1.18 0-2.33-.067-3.434-.199-8.252-.989-13.188-5.158-15.875-8.48-2.985-3.692-4.777-8.582-4.917-13.417-.313-10.82 4.39-19.215 13.602-24.274 6.808-3.739 15.778-3.81 22.317-.176zm-4.955 15.542c1.428-.559 1.558-1.235 1.302-2.45-.483-2.295-3.246-3.199-5.466-3.276-2.815-.1-5.61.488-7.502 1.567-1.998 1.14-3.241 2.376-3.965 3.28 2.376 1.114 5.876 1.713 9.657 1.631 1.97-.039 4.718-.26 5.974-.752z"/></g><g><path fill="#00af3f" d="M22.33 34.446c.158-.01.316-.021.474-.034a6.267 6.267 0 0 0 5.713-6.792 6.233 6.233 0 0 0-2.211-4.264 6.231 6.231 0 0 0-4.58-1.451 3.245 3.245 0 0 1-3.51-2.953 3.245 3.245 0 0 1 2.954-3.509c3.447-.308 6.01-3.354 5.714-6.792-.297-3.448-3.34-6.018-6.791-5.715A15.696 15.696 0 0 0 9.36 8.504 15.694 15.694 0 0 0 5.709 20.03c.736 8.519 8.14 14.893 16.622 14.415z"/></g><g><path fill="#00af3f" d="M134.197 33.932c4.613 2.563 7.667 6.642 8.834 11.796 1.107 4.898.584 8.693-1.556 11.28-3.85 4.655-13.51 5.457-17.486 5.586-2.768.087-9.544-.244-12.825-1.749.19.4.44.9.646 1.244 1.27 2.126 3.827 4.784 8.787 5.38 4.057.483 8.252-.485 10.561-1.803a5.988 5.988 0 0 1 4.735-.55c1.592.478 2.903 1.572 3.692 3.081 1.627 3.11.503 7.04-2.507 8.756-3.679 2.1-8.365 3.306-13.32 3.5-.42.017-.839.025-1.254.025-1.179 0-2.329-.067-3.434-.199-8.252-.989-13.187-5.158-15.875-8.48-2.985-3.692-4.777-8.582-4.917-13.417-.313-10.82 4.39-19.215 13.602-24.274 6.808-3.739 15.778-3.81 22.317-.176zm-4.955 15.542c1.428-.559 1.558-1.235 1.302-2.45-.483-2.295-3.246-3.199-5.466-3.276-2.815-.1-5.61.488-7.502 1.567-1.998 1.14-3.24 2.376-3.965 3.28 2.376 1.114 5.876 1.713 9.657 1.631 1.971-.039 4.718-.26 5.974-.752z"/></g><g><path fill="#00af3f" d="M63.733 1.482a7.367 7.367 0 0 0-5.674.168 7.361 7.361 0 0 0-3.895 4.127 7.364 7.364 0 0 0 .168 5.673 7.363 7.363 0 0 0 4.126 3.897C73.482 21.063 81.234 35.13 77.75 50.352c-1.844 8.055-6.03 14.111-12.441 18.002-.095.058-.192.111-.287.168C60.712 64.01 54.48 59.258 47.012 56.4c4.257-15.599 4.344-31.796.373-49.789a7.372 7.372 0 0 0-3.252-4.654 7.404 7.404 0 0 0-5.591-.99c-3.994.883-6.526 4.85-5.644 8.843 3.52 15.952 3.347 30.238-.631 43.991a32.081 32.081 0 0 0-11.553 2.608c-1.895.814-4.002 1.49-5.377 1.295a3.242 3.242 0 0 1-1.48-5.807 3.246 3.246 0 0 1 2.405-.613c3.428.483 6.615-1.903 7.106-5.318.493-3.425-1.886-6.619-5.317-7.107a15.695 15.695 0 0 0-11.715 2.987A15.694 15.694 0 0 0 .164 52.244c-.865 6.013 1.797 11.732 6.41 15.065a28.74 28.74 0 0 0-1.995 2.86C1.129 76.022.26 82.616 2.319 88.79 4.88 96.473 11.438 102.051 19.023 103a25.98 25.98 0 0 0 3.21.206c11.029 0 17.025-7.67 22.369-14.506.119-.153.244-.293.367-.438 10.474-.015 20.288-2.52 28.036-7.225 9.832-5.966 16.474-15.433 19.207-27.378 5.206-22.748-6.24-43.717-28.48-52.178z"/></g><g><path fill="#fff" d="M35.61 81.673c-6.15 7.868-9.05 10.77-15.172 10.004-3.2-.4-6.131-3.01-7.293-6.498-1.44-4.316.07-8.915 4.25-12.95 4.845-4.68 10.25-7.038 16.106-7.038 1.06 0 2.136.077 3.226.232.785.112 1.562.263 2.329.444-5.663.898-12.196 3.707-17.82 10.762a3.994 3.994 0 1 0 6.246 4.98c6.06-7.603 13.486-8.586 18.88-7.965-3.827 1.514-7.61 4.01-10.751 8.03z"/></g></g></svg>