<svg xmlns="http://www.w3.org/2000/svg" width="372" height="116" viewBox="0 0 372 116"><g><g><path fill="#fff" d="M371.92 67.644c-.442-5.519-2.77-9.364-5.751-12.072a12.53 12.53 0 0 0 2.939-3.496 12.381 12.381 0 0 0 1.115-9.725 12.603 12.603 0 0 0-6.28-7.571c-1.318-.679-2.285-1.138-3.044-1.444-3.607-1.451-7.574-2.188-11.788-2.188a37.19 37.19 0 0 0-4.002.22c-3.484.374-12.231 1.977-18.062 8.757a20.846 20.846 0 0 0-1.484 1.97c-2.055-3.018-4.812-5.522-8.206-7.408-4.041-2.246-8.805-3.433-13.775-3.433-5.102 0-10.062 1.243-14.345 3.595-4.82 2.647-8.66 6.124-11.442 10.266.944-12.866 2.462-23.926 2.487-24.11 1.004-7.201-4.04-13.88-11.245-14.885a13.169 13.169 0 0 0-1.827-.127c-6.542 0-12.158 4.888-13.062 11.37-.262 1.873-1.622 11.904-2.562 24.068-4.126-5.429-9.957-9.026-16.602-10.188a27.042 27.042 0 0 0-4.648-.404c-6.251 0-12.334 2.144-17.59 6.201a32.732 32.732 0 0 0-6.24 6.368c.834-9.313 1.869-16.187 1.89-16.319 1.086-7.068-3.783-13.705-10.854-14.793a13.046 13.046 0 0 0-1.981-.152c-6.446 0-11.836 4.628-12.817 11.004-.081.525-.604 3.99-1.208 9.226a25.96 25.96 0 0 0-5.447-.579c-6.503 0-12.72 2.38-17.98 6.882a31.653 31.653 0 0 0-5.328 5.893c-2.118-4.142-5.39-7.504-9.672-9.883-4.041-2.246-8.804-3.433-13.775-3.433-5.101 0-10.062 1.243-14.344 3.595-3.97 2.181-7.266 4.931-9.865 8.146a48.29 48.29 0 0 0-5.596-17.656C93.698 14.656 84.132 6.542 71.864 1.874a13.375 13.375 0 0 0-10.264.303 13.379 13.379 0 0 0-4.901 3.744 13.447 13.447 0 0 0-3.34-3.021A13.383 13.383 0 0 0 46.15.793c-.963 0-1.934.104-2.883.311-3.394.75-6.19 2.732-8.053 5.36-2.23-2.192-5.267-3.552-8.57-3.552-.358 0-.72.015-1.077.047a21.65 21.65 0 0 0-14.798 7.681 21.662 21.662 0 0 0-5.04 15.905c.483 5.58 3.1 10.555 6.998 14.138a21.973 21.973 0 0 0-3.988 2.359A21.661 21.661 0 0 0 .223 57.389 21.728 21.728 0 0 0 4.82 74.16C.94 81.33.157 89.284 2.625 96.686c3.289 9.865 11.787 17.036 21.65 18.269 1.34.167 2.67.252 3.957.252 12.803-.001 20.252-8.179 25.677-15.007 10.544-.444 20.244-3.199 28.208-8.033 7.715-4.681 13.706-11.222 17.71-19.244 1.073 3.153 2.658 6.122 4.7 8.647 3.388 4.189 9.577 9.438 19.827 10.666 1.335.16 2.73.242 4.148.242.492 0 .989-.01 1.489-.029 6.009-.236 11.563-1.718 16.06-4.285 3.003-1.714 5.022-4.57 5.844-7.749.157.229.309.462.473.687 4.266 5.828 10.48 9.521 17.495 10.399 1.066.133 2.15.201 3.224.201 4.362 0 8.595-1.071 12.497-3.134a22.61 22.61 0 0 0 4.672 4.008 12.934 12.934 0 0 0 7.028 2.074 12.93 12.93 0 0 0 12.14-8.402 26.268 26.268 0 0 0 12.949 6.241c1.529.268 3.092.404 4.646.404 6.253 0 12.336-2.145 17.59-6.201a32.947 32.947 0 0 0 7.366-7.974c1.673 6.304 5.228 11.277 10.348 14.308a13.189 13.189 0 0 0 6.715 1.842c4.644 0 8.996-2.48 11.36-6.473a13.232 13.232 0 0 0 1.462-3.564c3.65 3.301 9.053 6.484 16.742 7.405 1.335.16 2.73.242 4.147.242.493 0 .989-.01 1.489-.029 6.01-.236 11.563-1.718 16.06-4.285a12.165 12.165 0 0 0 3.669-3.226 12.605 12.605 0 0 0 3.04 2.545c.3.181 1.95 1.167 3.146 1.716 2.69 1.236 8.252 3.32 15.276 3.383l.332.001c8.416 0 15.552-2.924 20.638-8.458 4.12-4.483 6.029-10.182 5.522-16.481z"/></g><g><path fill="#f04e98" d="M273.35 75.607c-.714-.757-1.836-1.473-2.038-4.437-1.326-19.456 2.984-50.677 3.027-50.99.548-3.928-2.202-7.57-6.131-8.118-3.927-.548-7.57 2.202-8.118 6.13-.468 3.357-4.534 33.388-3.133 53.957.492 7.208 3.483 12.79 8.423 15.714a7.182 7.182 0 0 0 3.659 1.005 7.23 7.23 0 0 0 6.196-3.53 7.147 7.147 0 0 0 .779-5.45c-.477-1.862-1.334-2.872-2.663-4.28z"/></g><g><path fill="#f04e98" d="M233.95 37.154c5.585.977 10.442 4.189 13.678 9.046 3.746 5.624 4.938 12.934 3.272 20.056-1.474 6.299-5.01 11.87-9.956 15.687-4.208 3.248-9.048 4.95-13.926 4.95-1.204 0-2.41-.104-3.61-.314-5.587-.977-10.445-4.19-13.68-9.047-3.746-5.624-4.938-12.934-3.272-20.055 1.475-6.3 5.011-11.87 9.956-15.687 5.247-4.05 11.475-5.697 17.537-4.636zm3.505 25.75c.796-3.401.331-6.736-1.276-9.15-.759-1.14-2.139-2.581-4.4-2.976a7.045 7.045 0 0 0-1.22-.105c-4.602 0-9.3 4.355-10.659 10.154-.796 3.402-.33 6.738 1.278 9.152.758 1.139 2.138 2.58 4.4 2.976 4.961.867 10.4-3.735 11.877-10.05z"/></g><g><path fill="#f04e98" d="M201.074 75.812a6.975 6.975 0 0 1-3.789 12.838 6.934 6.934 0 0 1-3.776-1.116 16.415 16.415 0 0 1-6.239-7.367c-.037.031-.071.065-.107.096-4.15 3.553-9.07 5.438-14.076 5.438-.825 0-1.652-.05-2.479-.154-5.359-.67-10.118-3.508-13.399-7.99-3.78-5.164-5.225-12.048-3.963-18.887 1.12-6.073 4.234-11.555 8.766-15.436 4.834-4.138 10.713-6.015 16.555-5.284a19.202 19.202 0 0 1 8.117 2.97c.863-9.44 1.904-16.3 1.99-16.86a6.975 6.975 0 0 1 7.955-5.834 6.975 6.975 0 0 1 5.835 7.955c-.05.322-4.009 26.487-2.739 46.83.11 1.767.713 2.39 1.349 2.801zm-18.865-13.517c.568-3.078.021-6.036-1.501-8.114-.699-.955-1.938-2.145-3.873-2.387a5.849 5.849 0 0 0-.735-.046c-4.077 0-8.153 4.135-9.134 9.454-.568 3.078-.021 6.035 1.501 8.114.699.955 1.939 2.145 3.874 2.387 4.31.54 8.828-3.769 9.868-9.408z"/></g><g><path fill="#f04e98" d="M365.94 68.125c-.79-9.841-10.23-11.981-15.314-13.133-.092-.019-1.916-.388-2.907-.551-2.887-.48-5.597-1.317-5.366-3.041.14-1.037 2.18-1.885 4.894-1.648 3.222.281 4.735.841 8.156 2.087 3.422 1.245 6.806.23 8.488-2.729 1.827-3.214.605-7.294-2.698-8.997-.996-.514-1.907-.958-2.534-1.21-2.797-1.126-7.148-2.194-12.905-1.57-2.78.298-9.725 1.549-14.159 6.705-2.537 2.949-3.69 6.57-3.338 10.474.835 9.214 10.012 11.329 14.94 12.389 0 0 1.824.358 3.958.966 1.074.306 3.555.797 4.373 2.083.756 1.187.04 2.967-2.352 3.559-1.218.302-3.258.347-4.673.069-2.275-.447-4.54-.972-7.854-2.61-3.315-1.638-7.002-.623-8.823 2.386-1.874 3.097-.865 7.114 2.257 8.978 0 0 1.623.978 2.574 1.415 3.123 1.435 7.691 2.79 12.825 2.836 7.043.063 12.593-2.269 16.498-6.518 2.96-3.221 4.33-7.35 3.96-11.94z"/></g><g><path fill="#f04e98" d="M314.442 39.932c4.613 2.563 7.667 6.642 8.834 11.796 1.107 4.898.584 8.693-1.556 11.28-3.85 4.655-13.51 5.457-17.486 5.586-2.768.087-9.544-.244-12.825-1.749.19.4.44.9.646 1.244 1.271 2.126 3.828 4.784 8.787 5.38 4.057.483 8.252-.485 10.561-1.803a5.988 5.988 0 0 1 4.735-.55c1.592.478 2.903 1.572 3.693 3.081 1.627 3.11.502 7.04-2.508 8.756-3.679 2.1-8.364 3.306-13.319 3.5-.422.017-.84.025-1.255.025a29.02 29.02 0 0 1-3.434-.199c-8.252-.989-13.187-5.158-15.875-8.48-2.984-3.692-4.776-8.582-4.917-13.417-.313-10.82 4.39-19.215 13.603-24.274 6.807-3.739 15.777-3.81 22.316-.176zm-4.955 15.542c1.43-.559 1.56-1.235 1.303-2.45-.484-2.295-3.247-3.199-5.466-3.276-2.816-.1-5.61.488-7.503 1.567-1.998 1.14-3.24 2.376-3.965 3.28 2.376 1.114 5.876 1.713 9.657 1.631 1.971-.039 4.718-.26 5.974-.752z"/></g><g><path fill="#f04e98" d="M28.328 40.446c.157-.01.315-.021.473-.034h.001a6.267 6.267 0 0 0 5.713-6.792 6.229 6.229 0 0 0-2.212-4.264 6.23 6.23 0 0 0-4.579-1.451 3.246 3.246 0 0 1-3.51-2.953 3.221 3.221 0 0 1 .75-2.366 3.242 3.242 0 0 1 2.204-1.143c3.446-.308 6.01-3.354 5.714-6.792-.298-3.448-3.34-6.018-6.792-5.715a15.698 15.698 0 0 0-10.732 5.568 15.694 15.694 0 0 0-3.65 11.527c.734 8.519 8.14 14.893 16.62 14.415z"/></g><g><path fill="#f04e98" d="M140.195 39.932c4.613 2.563 7.667 6.642 8.833 11.796 1.108 4.898.585 8.693-1.556 11.28-3.849 4.655-13.51 5.457-17.486 5.586-2.767.087-9.544-.244-12.824-1.749.188.4.44.9.645 1.244 1.271 2.126 3.828 4.784 8.787 5.38 4.057.483 8.252-.485 10.561-1.803a5.989 5.989 0 0 1 4.735-.55c1.592.478 2.904 1.572 3.693 3.081 1.627 3.11.503 7.04-2.507 8.756-3.679 2.1-8.365 3.306-13.32 3.5-.42.017-.839.025-1.254.025-1.179 0-2.329-.067-3.435-.199-8.25-.989-13.186-5.158-15.875-8.48-2.984-3.692-4.776-8.582-4.916-13.417-.313-10.82 4.39-19.215 13.602-24.274 6.807-3.739 15.777-3.81 22.317-.176zm-4.955 15.542c1.428-.559 1.558-1.235 1.302-2.45-.484-2.295-3.246-3.199-5.466-3.276-2.815-.1-5.61.488-7.502 1.567-1.998 1.14-3.24 2.376-3.965 3.28 2.375 1.114 5.875 1.713 9.656 1.631 1.972-.039 4.718-.26 5.975-.752z"/></g><g><path fill="#f04e98" d="M69.73 7.482a7.367 7.367 0 0 0-5.673.168 7.364 7.364 0 0 0-3.896 4.127 7.369 7.369 0 0 0 .168 5.673 7.363 7.363 0 0 0 4.126 3.897C79.48 27.063 87.233 41.13 83.75 56.352c-1.844 8.055-6.03 14.111-12.441 18.002-.096.058-.192.111-.288.168C66.71 70.01 60.48 65.258 53.01 62.4c4.257-15.599 4.344-31.796.373-49.789a7.372 7.372 0 0 0-3.253-4.654 7.403 7.403 0 0 0-5.59-.99c-3.995.883-6.527 4.85-5.645 8.843 3.522 15.952 3.348 30.238-.63 43.991A32.081 32.081 0 0 0 26.71 62.41c-1.895.814-4.002 1.49-5.377 1.295a3.242 3.242 0 0 1-1.48-5.807 3.247 3.247 0 0 1 2.405-.613c3.428.483 6.616-1.903 7.107-5.318.492-3.425-1.887-6.619-5.318-7.107a15.695 15.695 0 0 0-11.715 2.987 15.698 15.698 0 0 0-6.172 10.398c-.865 6.013 1.798 11.732 6.41 15.065a29.078 29.078 0 0 0-1.995 2.86c-3.45 5.853-4.318 12.447-2.26 18.62 2.562 7.685 9.12 13.263 16.704 14.212a25.98 25.98 0 0 0 3.211.206c11.028 0 17.024-7.67 22.368-14.506.12-.153.244-.293.367-.438 10.475-.015 20.288-2.52 28.036-7.225 9.833-5.966 16.475-15.433 19.208-27.378 5.206-22.748-6.24-43.717-28.48-52.178z"/></g><g><path fill="#fff" d="M41.608 87.673c-6.15 7.868-9.05 10.77-15.173 10.004-3.199-.4-6.13-3.01-7.293-6.498-1.438-4.316.07-8.915 4.25-12.95 4.845-4.68 10.25-7.038 16.106-7.038 1.061 0 2.136.077 3.226.232.785.112 1.562.263 2.33.444-5.664.898-12.197 3.707-17.82 10.762a3.994 3.994 0 1 0 6.245 4.98c6.061-7.603 13.486-8.586 18.88-7.965-3.826 1.514-7.609 4.01-10.75 8.03z"/></g></g></svg>