<svg xmlns="http://www.w3.org/2000/svg" width="648" height="168" viewBox="0 0 648 168"><g><g><path d="M483.29 122.302c-1.27-1.345-3.266-2.62-3.625-7.887-2.356-34.59 5.306-90.092 5.384-90.65.972-6.984-3.917-13.458-10.901-14.432-6.983-.974-13.458 3.915-14.432 10.899-.833 5.967-8.062 59.356-5.57 95.922.873 12.815 6.192 22.737 14.974 27.937a12.774 12.774 0 0 0 6.504 1.786c4.504 0 8.726-2.405 11.017-6.275a12.707 12.707 0 0 0 1.384-9.69c-.848-3.31-2.371-5.105-4.735-7.61z"/></g><g><path d="M413.245 53.94c9.93 1.736 18.566 7.447 24.317 16.082 6.659 10 8.779 22.994 5.817 35.654-2.621 11.2-8.907 21.103-17.7 27.888-7.48 5.774-16.083 8.801-24.756 8.801-2.141 0-4.287-.185-6.421-.558-9.93-1.737-18.566-7.449-24.317-16.084-6.66-9.998-8.78-22.993-5.816-35.653 2.62-11.199 8.906-21.103 17.698-27.889 9.328-7.2 20.4-10.128 31.178-8.242zm6.233 45.78c1.415-6.048.588-11.978-2.271-16.269-1.348-2.025-3.8-4.588-7.822-5.29a12.563 12.563 0 0 0-2.171-.188c-8.178 0-16.531 7.742-18.945 18.053-1.415 6.048-.587 11.978 2.27 16.27 1.349 2.025 3.802 4.587 7.823 5.29 8.82 1.54 18.488-6.64 21.116-17.866z"/></g><g><path d="M354.8 122.666c5.755 3.715 7.409 11.39 3.695 17.145a12.39 12.39 0 0 1-10.431 5.678 12.335 12.335 0 0 1-6.713-1.983c-5.014-3.236-8.776-7.726-11.093-13.098-.063.056-.125.115-.19.17-7.377 6.317-16.124 9.67-25.023 9.67-1.468 0-2.938-.09-4.408-.276-9.527-1.19-17.986-6.236-23.82-14.203-6.72-9.18-9.288-21.419-7.045-33.577 1.992-10.797 7.526-20.543 15.584-27.442 8.594-7.357 19.045-10.694 29.43-9.394a34.142 34.142 0 0 1 14.43 5.278c1.535-16.782 3.387-28.976 3.539-29.97 1.04-6.77 7.369-11.414 14.143-10.373 6.769 1.041 11.413 7.373 10.372 14.142-.087.573-7.127 47.087-4.87 83.252.197 3.143 1.27 4.251 2.4 4.981zm-33.538-24.03c1.01-5.472.037-10.73-2.668-14.425-1.244-1.699-3.447-3.814-6.887-4.244a10.4 10.4 0 0 0-1.307-.08c-7.245 0-14.492 7.35-16.238 16.805-1.008 5.473-.037 10.73 2.669 14.425 1.244 1.7 3.448 3.814 6.886 4.245 7.664.96 15.695-6.7 17.545-16.726z"/></g><g><path d="M647.895 109c-1.407-17.496-18.189-21.3-27.227-23.349-.163-.033-3.405-.689-5.167-.977-5.13-.853-9.95-2.343-9.538-5.407.248-1.844 3.873-3.351 8.7-2.93 5.727.5 8.418 1.496 14.5 3.71 6.082 2.215 12.097.409 15.088-4.852 3.25-5.715 1.077-12.967-4.795-15.995-1.77-.912-3.392-1.702-4.506-2.151-4.973-2.001-12.706-3.9-22.94-2.79-4.942.531-17.29 2.754-25.172 11.919-4.51 5.243-6.562 11.682-5.934 18.622 1.484 16.379 17.799 20.14 26.56 22.024 0 0 3.241.637 7.034 1.718 1.91.544 6.32 1.416 7.776 3.702 1.344 2.11.071 5.277-4.18 6.328-2.168.535-5.795.617-8.31.122-4.045-.795-8.07-1.727-13.963-4.639-5.893-2.913-12.447-1.109-15.685 4.241-3.333 5.506-1.538 12.647 4.012 15.961 0 0 2.886 1.738 4.577 2.515 5.551 2.552 13.673 4.959 22.8 5.041 12.52.113 22.387-4.032 29.33-11.586 5.262-5.726 7.696-13.066 7.04-21.227z"/></g><g><path d="M556.344 58.88c8.2 4.555 13.63 11.808 15.703 20.971 1.97 8.706 1.04 15.452-2.766 20.052-6.845 8.276-24.019 9.702-31.087 9.931-4.919.154-16.967-.433-22.799-3.109.336.708.782 1.596 1.15 2.21 2.258 3.78 6.802 8.506 15.621 9.563 7.211.86 14.67-.86 18.773-3.203 2.598-1.482 5.588-1.83 8.42-.979 2.83.851 5.16 2.796 6.563 5.48 2.892 5.528.893 12.512-4.457 15.565-6.54 3.733-14.87 5.877-23.68 6.223-.749.03-1.492.043-2.23.043-2.094 0-4.14-.118-6.105-.354-14.669-1.757-23.444-9.169-28.222-15.077-5.305-6.562-8.492-15.254-8.74-23.85-.558-19.238 7.804-34.16 24.181-43.154 12.102-6.648 28.05-6.774 39.675-.313zm-8.81 27.63c2.54-.995 2.771-2.197 2.315-4.357-.859-4.079-5.772-5.686-9.716-5.824-5.006-.177-9.975.868-13.338 2.787-3.552 2.026-5.763 4.224-7.049 5.828 4.223 1.982 10.445 3.048 17.168 2.902 3.504-.069 8.387-.462 10.62-1.337z"/></g><g><path d="M246.57 58.88c8.2 4.555 13.63 11.808 15.704 20.971 1.969 8.706 1.039 15.452-2.766 20.052-6.844 8.276-24.02 9.702-31.086 9.931-4.92.154-16.968-.433-22.8-3.109.336.708.782 1.596 1.149 2.21 2.259 3.78 6.804 8.506 15.622 9.563 7.21.86 14.669-.86 18.773-3.203 2.598-1.482 5.588-1.83 8.419-.979 2.83.851 5.16 2.796 6.565 5.48 2.89 5.528.892 12.512-4.458 15.565-6.54 3.733-14.871 5.877-23.68 6.223-.75.03-1.492.043-2.23.043-2.094 0-4.14-.118-6.105-.354-14.67-1.757-23.444-9.169-28.222-15.077-5.305-6.562-8.492-15.254-8.741-23.85-.557-19.238 7.805-34.16 24.182-43.154 12.102-6.648 28.049-6.774 39.674-.313zm-8.808 27.63c2.539-.995 2.77-2.197 2.314-4.357-.86-4.079-5.772-5.686-9.716-5.824-5.006-.177-9.975.868-13.338 2.787-3.552 2.026-5.763 4.224-7.05 5.828 4.224 1.982 10.446 3.048 17.169 2.902 3.504-.069 8.387-.462 10.62-1.337z"/></g><g><path d="M121.3 1.191a13.478 13.478 0 0 0-10.377.308 13.47 13.47 0 0 0-7.125 7.547 13.48 13.48 0 0 0 .308 10.377 13.473 13.473 0 0 0 7.548 7.127c26.488 10.077 40.158 34.875 34.016 61.707-3.25 14.198-10.623 24.87-21.913 31.72-14.867 9.025-33.011 9.337-42.872 8.652C98.417 91.6 102.11 54.073 92.514 10.582a13.492 13.492 0 0 0-5.947-8.512C83.525.13 79.892-.512 76.339.26c-7.304 1.615-11.934 8.87-10.322 16.173 8.228 37.276 5.086 69.37-9.892 100.963a13.49 13.49 0 0 0-8.757-.197c-7.122 2.285-11.058 9.94-8.774 17.063.689 2.145 7.126 21.231 20.83 30.79a13.497 13.497 0 0 0 8.814 2.398 13.528 13.528 0 0 0 10.076-5.764 13.443 13.443 0 0 0 2.27-5.828c21.354 1.272 41.67-3.226 57.247-12.68 17.553-10.653 29.409-27.55 34.287-48.87C181.41 53.71 160.988 16.29 121.3 1.19z"/></g><g><path d="M43.513 62.172c.283-.007.567-.019.856-.034a11.525 11.525 0 0 0 10.879-12.162 11.464 11.464 0 0 0-3.827-7.96c-2.298-2.055-5.26-3.076-8.337-2.923a5.276 5.276 0 0 1-3.852-1.334 5.349 5.349 0 0 1-1.801-3.726 5.325 5.325 0 0 1 1.36-3.876 5.37 5.37 0 0 1 3.704-1.778c6.352-.373 11.233-5.828 10.88-12.162-.35-6.339-5.822-11.248-12.16-10.884-7.586.422-14.556 3.772-19.622 9.432-5.067 5.661-7.627 12.96-7.206 20.547.846 15.204 13.912 27.253 29.126 26.86z"/></g><g><path d="M31.912 97.798a11.465 11.465 0 0 0 8.743 1.266 11.468 11.468 0 0 0 7.073-5.288c3.25-5.47 1.446-12.565-4.022-15.816-6.519-3.877-14.168-4.98-21.54-3.107-7.373 1.875-13.569 6.5-17.447 13.02-3.884 6.53-4.993 14.183-3.12 21.547 1.874 7.365 6.501 13.56 13.032 17.441a11.46 11.46 0 0 0 4.82 1.572c4.414.411 8.731-1.784 10.996-5.594 3.251-5.469 1.446-12.564-4.022-15.816a5.331 5.331 0 0 1-2.458-3.288 5.34 5.34 0 0 1 .588-4.066 5.376 5.376 0 0 1 7.357-1.87z"/></g></g></svg>