<svg xmlns="http://www.w3.org/2000/svg" width="640" height="182" viewBox="0 0 640 182"><g><g><path d="M475.29 122.302c-1.27-1.345-3.266-2.62-3.625-7.887-2.356-34.59 5.306-90.092 5.384-90.65.972-6.984-3.917-13.458-10.901-14.432-6.983-.974-13.458 3.915-14.432 10.899-.833 5.967-8.062 59.356-5.57 95.922.873 12.815 6.192 22.737 14.974 27.937a12.774 12.774 0 0 0 6.504 1.786c4.504 0 8.726-2.405 11.017-6.275a12.707 12.707 0 0 0 1.384-9.69c-.848-3.31-2.371-5.105-4.735-7.61z"/></g><g><path d="M405.245 53.94c9.93 1.736 18.566 7.447 24.317 16.082 6.659 10 8.779 22.994 5.817 35.654-2.621 11.2-8.907 21.103-17.7 27.888-7.48 5.774-16.083 8.801-24.756 8.801-2.141 0-4.287-.185-6.421-.558-9.93-1.737-18.566-7.449-24.317-16.084-6.66-9.998-8.78-22.993-5.816-35.653 2.62-11.199 8.906-21.103 17.698-27.889 9.328-7.2 20.4-10.128 31.178-8.242zm6.233 45.78c1.415-6.048.588-11.978-2.271-16.269-1.348-2.025-3.8-4.588-7.822-5.29a12.563 12.563 0 0 0-2.171-.188c-8.178 0-16.531 7.742-18.945 18.053-1.415 6.048-.587 11.978 2.27 16.27 1.349 2.025 3.802 4.587 7.823 5.29 8.82 1.54 18.488-6.64 21.116-17.866z"/></g><g><path d="M346.8 122.666c5.755 3.715 7.409 11.39 3.695 17.145a12.39 12.39 0 0 1-10.431 5.678 12.335 12.335 0 0 1-6.713-1.983c-5.014-3.236-8.776-7.726-11.093-13.098-.063.056-.125.115-.19.17-7.377 6.317-16.124 9.67-25.023 9.67-1.468 0-2.938-.09-4.408-.276-9.527-1.19-17.986-6.236-23.82-14.203-6.72-9.18-9.288-21.419-7.045-33.577 1.992-10.797 7.526-20.543 15.584-27.442 8.594-7.357 19.045-10.694 29.43-9.394a34.142 34.142 0 0 1 14.43 5.278c1.535-16.782 3.387-28.976 3.539-29.97 1.04-6.77 7.369-11.414 14.143-10.373 6.769 1.041 11.413 7.373 10.372 14.142-.087.573-7.127 47.087-4.87 83.252.197 3.143 1.27 4.251 2.4 4.981zm-33.538-24.03c1.01-5.472.037-10.73-2.668-14.425-1.244-1.699-3.447-3.814-6.887-4.244a10.4 10.4 0 0 0-1.307-.08c-7.245 0-14.492 7.35-16.238 16.805-1.008 5.473-.037 10.73 2.669 14.425 1.244 1.7 3.448 3.814 6.886 4.245 7.664.96 15.695-6.7 17.545-16.726z"/></g><g><path d="M639.895 109c-1.407-17.496-18.189-21.3-27.227-23.349-.163-.033-3.405-.689-5.167-.977-5.13-.853-9.95-2.343-9.538-5.407.248-1.844 3.873-3.351 8.7-2.93 5.727.5 8.418 1.496 14.5 3.71 6.082 2.215 12.097.409 15.088-4.852 3.25-5.715 1.077-12.967-4.795-15.995-1.77-.912-3.392-1.702-4.506-2.151-4.973-2.001-12.706-3.9-22.94-2.79-4.942.531-17.29 2.754-25.172 11.919-4.51 5.243-6.562 11.682-5.934 18.622 1.484 16.379 17.799 20.14 26.56 22.024 0 0 3.241.637 7.034 1.718 1.91.544 6.32 1.416 7.776 3.702 1.344 2.11.071 5.277-4.18 6.328-2.168.535-5.795.617-8.31.122-4.045-.795-8.07-1.727-13.963-4.639-5.893-2.913-12.447-1.109-15.685 4.241-3.333 5.506-1.538 12.647 4.012 15.961 0 0 2.886 1.738 4.577 2.515 5.551 2.552 13.673 4.959 22.8 5.041 12.52.113 22.387-4.032 29.33-11.586 5.262-5.726 7.696-13.066 7.04-21.227z"/></g><g><path d="M548.344 58.88c8.2 4.555 13.63 11.808 15.703 20.971 1.97 8.706 1.04 15.452-2.766 20.052-6.845 8.276-24.019 9.702-31.087 9.931-4.919.154-16.967-.433-22.799-3.109.336.708.782 1.596 1.15 2.21 2.258 3.78 6.802 8.506 15.621 9.563 7.211.86 14.67-.86 18.773-3.203 2.598-1.482 5.588-1.83 8.42-.979 2.83.851 5.16 2.796 6.563 5.48 2.892 5.528.893 12.512-4.457 15.565-6.54 3.733-14.87 5.877-23.68 6.223-.749.03-1.492.043-2.23.043-2.094 0-4.14-.118-6.105-.354-14.669-1.757-23.444-9.169-28.222-15.077-5.305-6.562-8.492-15.254-8.74-23.85-.558-19.238 7.804-34.16 24.181-43.154 12.102-6.648 28.05-6.774 39.675-.313zm-8.81 27.63c2.54-.995 2.771-2.197 2.315-4.357-.859-4.079-5.772-5.686-9.716-5.824-5.006-.177-9.975.868-13.338 2.787-3.552 2.026-5.763 4.224-7.049 5.828 4.223 1.982 10.445 3.048 17.168 2.902 3.504-.069 8.387-.462 10.62-1.337z"/></g><g><path d="M39.696 59.792c.28-.016.56-.036.84-.06h.001a11.143 11.143 0 0 0 10.158-12.075 11.082 11.082 0 0 0-3.934-7.58 11.06 11.06 0 0 0-8.14-2.578 5.77 5.77 0 0 1-6.24-5.25 5.72 5.72 0 0 1 1.333-4.208 5.773 5.773 0 0 1 3.918-2.032c6.127-.546 10.685-5.962 10.158-12.074-.529-6.129-5.937-10.699-12.073-10.16-7.475.644-14.25 4.16-19.08 9.898-4.83 5.74-7.135 13.018-6.492 20.493 1.308 15.146 14.473 26.477 29.551 25.626z"/></g><g><path d="M238.57 58.88c8.2 4.555 13.63 11.808 15.704 20.971 1.969 8.706 1.039 15.452-2.766 20.052-6.844 8.276-24.02 9.702-31.086 9.931-4.92.154-16.968-.433-22.8-3.109.336.708.782 1.596 1.149 2.21 2.259 3.78 6.804 8.506 15.622 9.563 7.21.86 14.669-.86 18.773-3.203 2.598-1.482 5.588-1.83 8.419-.979 2.83.851 5.16 2.796 6.565 5.48 2.89 5.528.892 12.512-4.458 15.565-6.54 3.733-14.871 5.877-23.68 6.223-.75.03-1.492.043-2.23.043-2.094 0-4.14-.118-6.105-.354-14.67-1.757-23.444-9.169-28.222-15.077-5.305-6.562-8.492-15.254-8.741-23.85-.557-19.238 7.805-34.16 24.182-43.154 12.102-6.648 28.049-6.774 39.674-.313zm-8.808 27.63c2.539-.995 2.77-2.197 2.314-4.357-.86-4.079-5.772-5.686-9.716-5.824-5.006-.177-9.975.868-13.338 2.787-3.552 2.026-5.763 4.224-7.05 5.828 4.224 1.982 10.446 3.048 17.169 2.902 3.504-.069 8.387-.462 10.62-1.337z"/></g><g><path d="M113.3 1.191c39.538 15.042 59.886 52.32 50.629 92.76-4.858 21.236-16.666 38.067-34.145 48.673-13.774 8.361-31.221 12.816-49.842 12.844-.22.258-.441.508-.653.78-9.5 12.15-20.16 25.785-39.764 25.786-1.825 0-3.724-.117-5.71-.366-13.484-1.686-25.14-11.603-29.696-25.267-3.658-10.97-2.115-22.696 4.018-33.1a51.592 51.592 0 0 1 3.547-5.084C3.484 112.292-1.25 102.124.288 91.435c1.07-7.427 4.966-13.99 10.972-18.486 6.005-4.492 13.4-6.379 20.827-5.31 6.1.867 10.33 6.545 9.453 12.634-.873 6.072-6.54 10.313-12.631 9.454a5.775 5.775 0 0 0-4.278 1.09 5.727 5.727 0 0 0-2.254 3.795c-.452 3.147 1.73 6.082 4.887 6.53 2.442.345 6.189-.856 9.559-2.304 6.548-2.812 13.429-4.376 20.538-4.637 7.072-24.449 7.38-49.846 1.12-78.205C56.915 8.897 61.417 1.844 68.516.274c3.456-.75 6.985-.125 9.94 1.761a13.108 13.108 0 0 1 5.783 8.273c7.058 31.987 6.904 60.782-.663 88.515 13.276 5.081 24.354 13.527 32.018 21.55.17-.1.342-.196.51-.3 11.398-6.915 18.84-17.683 22.116-32.003 6.194-27.06-7.588-52.069-34.297-62.23a13.093 13.093 0 0 1-7.335-6.928 13.09 13.09 0 0 1-.3-10.086 13.091 13.091 0 0 1 6.926-7.336 13.095 13.095 0 0 1 10.088-.299zM63.306 143.752c5.585-7.144 12.31-11.58 19.113-14.273-9.59-1.106-22.79.642-33.564 14.16a7.09 7.09 0 0 1-5.558 2.673 7.101 7.101 0 0 1-5.547-11.527c9.998-12.542 21.614-17.536 31.68-19.132a46.939 46.939 0 0 0-4.14-.79 40.62 40.62 0 0 0-5.735-.413c-10.41 0-20.02 4.193-28.634 12.511-7.43 7.176-10.112 15.352-7.554 23.023 2.066 6.2 7.277 10.842 12.965 11.554 10.883 1.36 16.04-3.798 26.974-17.786z"/></g></g></svg>