<svg xmlns="http://www.w3.org/2000/svg" width="360" height="104" viewBox="0 0 360 104"><g><g><path fill="#7c878e" d="M267.35 69.607c-.713-.757-1.836-1.473-2.038-4.437-1.326-19.456 2.984-50.677 3.028-50.99.548-3.928-2.203-7.57-6.131-8.118-3.928-.548-7.57 2.202-8.12 6.13-.467 3.357-4.533 33.388-3.131 53.957.49 7.208 3.482 12.79 8.423 15.714a7.179 7.179 0 0 0 3.658 1.005 7.232 7.232 0 0 0 6.197-3.53 7.151 7.151 0 0 0 .779-5.45c-.477-1.862-1.334-2.872-2.664-4.28z"/></g><g><path fill="#7c878e" d="M227.95 31.154c5.586.977 10.443 4.189 13.678 9.046 3.746 5.624 4.94 12.934 3.272 20.056-1.474 6.299-5.009 11.87-9.955 15.687-4.208 3.248-9.048 4.95-13.926 4.95-1.205 0-2.41-.104-3.612-.314-5.586-.977-10.444-4.19-13.678-9.047-3.746-5.624-4.939-12.934-3.272-20.055 1.474-6.3 5.01-11.87 9.956-15.687 5.247-4.05 11.475-5.697 17.537-4.636zm3.506 25.75c.796-3.401.331-6.736-1.277-9.15-.759-1.14-2.138-2.581-4.4-2.976a7.056 7.056 0 0 0-1.22-.105c-4.602 0-9.3 4.355-10.658 10.154-.796 3.402-.33 6.738 1.277 9.152.76 1.139 2.138 2.58 4.4 2.976 4.961.867 10.4-3.735 11.878-10.05z"/></g><g><path fill="#7c878e" d="M195.075 69.812a6.975 6.975 0 0 1-3.789 12.838 6.934 6.934 0 0 1-3.776-1.116 16.424 16.424 0 0 1-6.24-7.367c-.036.031-.07.065-.106.096-4.15 3.553-9.071 5.438-14.077 5.438-.825 0-1.652-.05-2.479-.154-5.359-.67-10.117-3.508-13.398-7.99-3.781-5.164-5.225-12.048-3.964-18.887 1.121-6.073 4.234-11.555 8.767-15.436 4.834-4.138 10.712-6.015 16.555-5.284a19.211 19.211 0 0 1 8.117 2.97c.862-9.44 1.904-16.3 1.99-16.86a6.974 6.974 0 0 1 7.955-5.834 6.975 6.975 0 0 1 5.834 7.955c-.049.322-4.009 26.487-2.739 46.83.11 1.767.714 2.39 1.35 2.801zM176.21 56.295c.567-3.078.021-6.036-1.501-8.114-.7-.955-1.939-2.145-3.874-2.387a5.837 5.837 0 0 0-.735-.046c-4.076 0-8.152 4.135-9.134 9.454-.567 3.078-.021 6.035 1.501 8.114.7.955 1.94 2.145 3.874 2.387 4.311.54 8.828-3.769 9.869-9.408z"/></g><g><path fill="#7c878e" d="M359.94 62.125c-.79-9.841-10.23-11.981-15.313-13.133-.092-.019-1.916-.388-2.907-.551-2.887-.48-5.597-1.317-5.365-3.041.139-1.037 2.179-1.885 4.893-1.648 3.222.281 4.735.841 8.156 2.087 3.422 1.245 6.806.23 8.488-2.729 1.827-3.214.605-7.294-2.698-8.997-.996-.514-1.907-.958-2.534-1.21-2.798-1.126-7.148-2.194-12.905-1.57-2.78.298-9.725 1.549-14.158 6.705-2.538 2.949-3.692 6.57-3.34 10.474.836 9.214 10.013 11.329 14.94 12.389 0 0 1.825.358 3.958.966 1.075.306 3.556.797 4.374 2.083.756 1.187.04 2.967-2.351 3.559-1.22.302-3.26.347-4.674.069-2.275-.447-4.54-.972-7.855-2.61-3.314-1.638-7.001-.623-8.822 2.386-1.875 3.097-.865 7.114 2.257 8.978 0 0 1.623.978 2.574 1.415 3.123 1.435 7.69 2.79 12.825 2.836 7.042.063 12.593-2.269 16.498-6.518 2.96-3.221 4.329-7.35 3.96-11.94z"/></g><g><path fill="#7c878e" d="M308.443 33.932c4.613 2.563 7.667 6.642 8.833 11.796 1.108 4.898.585 8.693-1.556 11.28-3.85 4.655-13.51 5.457-17.486 5.586-2.767.087-9.544-.244-12.825-1.749.19.4.44.9.646 1.244 1.271 2.126 3.828 4.784 8.788 5.38 4.057.483 8.251-.485 10.561-1.803a5.988 5.988 0 0 1 4.735-.55c1.592.478 2.903 1.572 3.692 3.081 1.627 3.11.502 7.04-2.508 8.756-3.678 2.1-8.364 3.306-13.319 3.5-.42.017-.839.025-1.254.025-1.179 0-2.329-.067-3.435-.199-8.25-.989-13.187-5.158-15.874-8.48-2.985-3.692-4.777-8.582-4.917-13.417-.314-10.82 4.39-19.215 13.602-24.274 6.808-3.739 15.778-3.81 22.317-.176zm-4.955 15.542c1.428-.559 1.558-1.235 1.302-2.45-.484-2.295-3.247-3.199-5.466-3.276-2.815-.1-5.61.488-7.503 1.567-1.997 1.14-3.24 2.376-3.964 3.28 2.375 1.114 5.875 1.713 9.657 1.631 1.971-.039 4.718-.26 5.974-.752z"/></g><g><path fill="#7c878e" d="M22.33 34.446c.156-.01.314-.021.472-.034a6.267 6.267 0 0 0 5.714-6.792 6.233 6.233 0 0 0-2.212-4.264 6.231 6.231 0 0 0-4.58-1.451 3.245 3.245 0 0 1-3.51-2.953 3.245 3.245 0 0 1 2.954-3.509c3.447-.308 6.01-3.354 5.714-6.792-.298-3.448-3.34-6.018-6.79-5.715A15.7 15.7 0 0 0 9.357 8.504a15.698 15.698 0 0 0-3.65 11.527c.734 8.519 8.14 14.893 16.621 14.415z"/></g><g><path fill="#7c878e" d="M134.196 33.932c4.613 2.563 7.667 6.642 8.833 11.796 1.108 4.898.585 8.693-1.556 11.28-3.85 4.655-13.51 5.457-17.485 5.586-2.768.087-9.545-.244-12.826-1.749.19.4.44.9.646 1.244 1.27 2.126 3.828 4.784 8.788 5.38 4.057.483 8.25-.485 10.56-1.803a5.988 5.988 0 0 1 4.736-.55c1.592.478 2.902 1.572 3.692 3.081 1.627 3.11.502 7.04-2.508 8.756-3.678 2.1-8.364 3.306-13.32 3.5-.42.017-.84.025-1.253.025-1.18 0-2.33-.067-3.435-.199-8.251-.989-13.187-5.158-15.874-8.48-2.985-3.692-4.777-8.582-4.917-13.417-.314-10.82 4.39-19.215 13.602-24.274 6.808-3.739 15.778-3.81 22.317-.176zm-4.955 15.542c1.428-.559 1.558-1.235 1.302-2.45-.484-2.295-3.247-3.199-5.466-3.276-2.815-.1-5.61.488-7.502 1.567-1.998 1.14-3.242 2.376-3.965 3.28 2.375 1.114 5.875 1.713 9.657 1.631 1.97-.039 4.718-.26 5.974-.752z"/></g><g><path fill="#7c878e" d="M63.731 1.482a7.367 7.367 0 0 0-5.674.168 7.366 7.366 0 0 0-3.896 4.127 7.369 7.369 0 0 0 .17 5.673 7.363 7.363 0 0 0 4.125 3.897C73.48 21.063 81.232 35.13 77.748 50.352c-1.843 8.055-6.029 14.111-12.44 18.002-.096.058-.192.111-.288.168-4.31-4.513-10.542-9.264-18.01-12.122 4.257-15.599 4.344-31.796.373-49.789a7.372 7.372 0 0 0-3.252-4.654 7.406 7.406 0 0 0-5.592-.99c-3.993.883-6.525 4.85-5.643 8.843 3.521 15.952 3.347 30.238-.63 43.991a32.081 32.081 0 0 0-11.554 2.608c-1.895.814-4.003 1.49-5.377 1.295a3.242 3.242 0 1 1 .925-6.42c3.427.483 6.615-1.903 7.106-5.318.493-3.425-1.886-6.619-5.318-7.107a15.698 15.698 0 0 0-11.715 2.987 15.697 15.697 0 0 0-6.17 10.398c-.866 6.013 1.796 11.732 6.41 15.065a28.74 28.74 0 0 0-1.996 2.86C1.127 76.022.26 82.616 2.317 88.79c2.562 7.685 9.12 13.263 16.704 14.212a25.98 25.98 0 0 0 3.211.206c11.027 0 17.024-7.67 22.367-14.506.12-.153.245-.293.368-.438 10.474-.015 20.288-2.52 28.036-7.225 9.832-5.966 16.474-15.433 19.207-27.378 5.206-22.748-6.239-43.717-28.479-52.178z"/></g><g><path fill="#fff" d="M35.61 81.673c-6.152 7.868-9.053 10.77-15.174 10.004-3.2-.4-6.13-3.01-7.293-6.498-1.439-4.316.07-8.915 4.25-12.95 4.844-4.68 10.25-7.038 16.105-7.038 1.061 0 2.137.077 3.227.232.785.112 1.561.263 2.328.444-5.662.898-12.195 3.707-17.819 10.762a3.993 3.993 0 1 0 6.246 4.98c6.061-7.603 13.486-8.586 18.88-7.965-3.827 1.514-7.61 4.01-10.75 8.03z"/></g></g></svg>