<svg xmlns="http://www.w3.org/2000/svg" width="372" height="116" viewBox="0 0 372 116"><g><g><path fill="#fff" d="M371.923 67.644c-.443-5.519-2.77-9.364-5.753-12.072a12.496 12.496 0 0 0 2.939-3.496 12.377 12.377 0 0 0 1.115-9.725 12.601 12.601 0 0 0-6.28-7.571c-1.317-.679-2.285-1.138-3.043-1.444-3.608-1.451-7.574-2.188-11.79-2.188-1.311 0-2.658.074-4 .22-3.485.374-12.231 1.977-18.062 8.757a21.03 21.03 0 0 0-1.485 1.97c-2.054-3.018-4.812-5.522-8.205-7.408-4.041-2.246-8.805-3.433-13.776-3.433-5.101 0-10.062 1.243-14.345 3.595-4.82 2.647-8.66 6.124-11.441 10.266.943-12.866 2.46-23.926 2.486-24.11 1.005-7.201-4.04-13.88-11.244-14.885a13.183 13.183 0 0 0-1.828-.127c-6.542 0-12.157 4.888-13.062 11.37-.261 1.873-1.621 11.904-2.561 24.068-4.126-5.429-9.957-9.026-16.603-10.188a27.022 27.022 0 0 0-4.647-.404c-6.252 0-12.335 2.144-17.59 6.201a32.737 32.737 0 0 0-6.24 6.368c.833-9.313 1.869-16.187 1.889-16.319 1.087-7.068-3.783-13.705-10.854-14.793a13.036 13.036 0 0 0-1.981-.152c-6.446 0-11.835 4.628-12.817 11.004-.08.525-.604 3.99-1.208 9.226a25.973 25.973 0 0 0-5.446-.579c-6.503 0-12.721 2.38-17.98 6.882a31.693 31.693 0 0 0-5.33 5.893c-2.116-4.142-5.387-7.504-9.67-9.883-4.041-2.246-8.804-3.433-13.775-3.433-5.102 0-10.062 1.243-14.345 3.595-3.97 2.181-7.265 4.931-9.864 8.146a48.292 48.292 0 0 0-5.597-17.656C93.699 14.656 84.133 6.542 71.866 1.874a13.376 13.376 0 0 0-10.265.303 13.367 13.367 0 0 0-4.9 3.744A13.447 13.447 0 0 0 53.36 2.9a13.383 13.383 0 0 0-7.21-2.107c-.963 0-1.934.104-2.884.311-3.394.75-6.19 2.732-8.053 5.36-2.23-2.192-5.266-3.552-8.57-3.552-.358 0-.72.015-1.077.047a21.652 21.652 0 0 0-14.798 7.681A21.657 21.657 0 0 0 5.73 26.545c.48 5.58 3.1 10.555 6.997 14.138a21.939 21.939 0 0 0-3.988 2.359A21.653 21.653 0 0 0 .225 57.389 21.731 21.731 0 0 0 4.822 74.16C.944 81.33.158 89.284 2.626 96.686c3.289 9.865 11.788 17.036 21.652 18.269 1.338.167 2.669.252 3.956.252 12.802-.001 20.252-8.179 25.676-15.007 10.545-.444 20.245-3.199 28.208-8.033 7.715-4.681 13.706-11.222 17.712-19.244 1.072 3.153 2.656 6.122 4.698 8.647 3.388 4.189 9.578 9.438 19.828 10.666 1.335.16 2.73.242 4.148.242.492 0 .988-.01 1.488-.029 6.01-.236 11.563-1.718 16.06-4.285 3.004-1.714 5.022-4.57 5.844-7.749.157.229.309.462.473.687 4.267 5.828 10.48 9.521 17.495 10.399 1.066.133 2.15.201 3.225.201 4.362 0 8.595-1.071 12.496-3.134a22.637 22.637 0 0 0 4.672 4.008 12.937 12.937 0 0 0 7.029 2.074 12.93 12.93 0 0 0 10.91-5.941c.509-.789.912-1.616 1.23-2.461a26.27 26.27 0 0 0 12.949 6.241c1.528.268 3.092.404 4.646.404 6.253 0 12.336-2.145 17.59-6.201a32.928 32.928 0 0 0 7.365-7.974c1.673 6.304 5.229 11.277 10.349 14.308a13.186 13.186 0 0 0 6.715 1.842c4.643 0 8.995-2.48 11.36-6.473a13.168 13.168 0 0 0 1.46-3.564c3.652 3.301 9.055 6.484 16.743 7.405 1.335.16 2.73.242 4.148.242.492 0 .989-.01 1.489-.029 6.009-.236 11.563-1.718 16.06-4.285a12.19 12.19 0 0 0 3.669-3.226 12.586 12.586 0 0 0 3.04 2.545c.3.181 1.95 1.167 3.145 1.716 2.69 1.236 8.252 3.32 15.277 3.383l.332.001c8.415 0 15.55-2.924 20.637-8.458 4.12-4.483 6.03-10.182 5.523-16.481z"/></g><g><path fill="#00af3f" d="M273.352 75.607c-.714-.757-1.837-1.473-2.038-4.437-1.326-19.456 2.983-50.677 3.027-50.99.548-3.928-2.203-7.57-6.131-8.118-3.928-.548-7.57 2.202-8.12 6.13-.467 3.357-4.533 33.388-3.131 53.957.492 7.208 3.483 12.79 8.423 15.714a7.179 7.179 0 0 0 3.658 1.005 7.23 7.23 0 0 0 6.197-3.53 7.147 7.147 0 0 0 .779-5.45c-.477-1.862-1.334-2.872-2.664-4.28z"/></g><g><path fill="#00af3f" d="M233.951 37.154c5.586.977 10.443 4.189 13.679 9.046 3.746 5.624 4.938 12.934 3.271 20.056-1.473 6.299-5.009 11.87-9.955 15.687-4.208 3.248-9.048 4.95-13.926 4.95-1.205 0-2.411-.104-3.612-.314-5.586-.977-10.443-4.19-13.678-9.047-3.746-5.624-4.938-12.934-3.272-20.055 1.475-6.3 5.01-11.87 9.956-15.687 5.247-4.05 11.475-5.697 17.537-4.636zm3.506 25.75c.796-3.401.331-6.736-1.276-9.15-.759-1.14-2.139-2.581-4.401-2.976a7.048 7.048 0 0 0-1.221-.105c-4.601 0-9.299 4.355-10.657 10.154-.796 3.402-.33 6.738 1.278 9.152.758 1.139 2.137 2.58 4.399 2.976 4.962.867 10.399-3.735 11.878-10.05z"/></g><g><path fill="#00af3f" d="M201.076 75.812a6.974 6.974 0 0 1 2.078 9.644 6.967 6.967 0 0 1-9.643 2.078 16.415 16.415 0 0 1-6.24-7.367c-.036.031-.07.065-.106.096-4.15 3.553-9.071 5.438-14.076 5.438-.825 0-1.652-.05-2.48-.154-5.36-.67-10.117-3.508-13.398-7.99-3.78-5.164-5.225-12.048-3.964-18.887 1.12-6.073 4.235-11.555 8.767-15.436 4.834-4.138 10.713-6.015 16.555-5.284a19.202 19.202 0 0 1 8.117 2.97c.863-9.44 1.904-16.3 1.99-16.86a6.976 6.976 0 1 1 13.79 2.121c-.05.322-4.01 26.487-2.74 46.83.11 1.767.714 2.39 1.35 2.801zM182.21 62.295c.567-3.078.02-6.036-1.501-8.114-.7-.955-1.94-2.145-3.873-2.387a5.849 5.849 0 0 0-.735-.046c-4.077 0-8.153 4.135-9.134 9.454-.57 3.078-.022 6.035 1.5 8.114.7.955 1.94 2.145 3.874 2.387 4.31.54 8.829-3.769 9.869-9.408z"/></g><g><path fill="#00af3f" d="M365.942 68.125c-.79-9.841-10.23-11.981-15.314-13.133a106.06 106.06 0 0 0-2.908-.551c-2.886-.48-5.596-1.317-5.365-3.041.14-1.037 2.18-1.885 4.894-1.648 3.221.281 4.735.841 8.156 2.087 3.422 1.245 6.806.23 8.487-2.729 1.828-3.214.606-7.294-2.697-8.997-.996-.514-1.907-.958-2.534-1.21-2.798-1.126-7.148-2.194-12.905-1.57-2.78.298-9.725 1.549-14.159 6.705-2.537 2.949-3.69 6.57-3.339 10.474.836 9.214 10.012 11.329 14.941 12.389 0 0 1.823.358 3.957.966 1.075.306 3.556.797 4.374 2.083.756 1.187.04 2.967-2.352 3.559-1.218.302-3.258.347-4.673.069-2.276-.447-4.54-.972-7.855-2.61-3.314-1.638-7-.623-8.822 2.386-1.875 3.097-.865 7.114 2.257 8.978 0 0 1.623.978 2.574 1.415 3.123 1.435 7.691 2.79 12.825 2.836 7.042.063 12.593-2.269 16.498-6.518 2.96-3.221 4.33-7.35 3.96-11.94z"/></g><g><path fill="#00af3f" d="M314.444 39.932c4.613 2.563 7.667 6.642 8.833 11.796 1.108 4.898.585 8.693-1.556 11.28-3.849 4.655-13.51 5.457-17.486 5.586-2.767.087-9.544-.244-12.824-1.749.19.4.44.9.645 1.244 1.272 2.126 3.83 4.784 8.788 5.38 4.057.483 8.251-.485 10.561-1.803a5.988 5.988 0 0 1 4.735-.55c1.592.478 2.903 1.572 3.693 3.081 1.626 3.11.502 7.04-2.508 8.756-3.679 2.1-8.365 3.306-13.32 3.5-.42.017-.839.025-1.254.025-1.178 0-2.329-.067-3.435-.199-8.25-.989-13.186-5.158-15.874-8.48-2.984-3.692-4.777-8.582-4.917-13.417-.313-10.82 4.39-19.215 13.603-24.274 6.807-3.739 15.777-3.81 22.316-.176zm-4.955 15.542c1.43-.559 1.558-1.235 1.302-2.45-.484-2.295-3.246-3.199-5.465-3.276-2.816-.1-5.61.488-7.503 1.567-1.998 1.14-3.24 2.376-3.965 3.28 2.375 1.114 5.875 1.713 9.657 1.631 1.971-.039 4.718-.26 5.974-.752z"/></g><g><path fill="#00af3f" d="M28.33 40.446c.157-.01.315-.021.473-.034h.001a6.267 6.267 0 0 0 5.713-6.792 6.229 6.229 0 0 0-2.212-4.264 6.23 6.23 0 0 0-4.579-1.451 3.246 3.246 0 0 1-3.51-2.953 3.247 3.247 0 0 1 2.954-3.509c3.446-.308 6.01-3.354 5.713-6.792-.297-3.448-3.339-6.018-6.79-5.715a15.703 15.703 0 0 0-10.734 5.568 15.702 15.702 0 0 0-3.65 11.527c.734 8.519 8.14 14.893 16.621 14.415z"/></g><g><path fill="#00af3f" d="M140.196 39.932c4.613 2.563 7.668 6.642 8.834 11.796 1.108 4.898.584 8.693-1.556 11.28-3.85 4.655-13.51 5.457-17.486 5.586-2.767.087-9.544-.244-12.825-1.749.19.4.44.9.646 1.244 1.271 2.126 3.828 4.784 8.787 5.38 4.057.483 8.252-.485 10.561-1.803a5.989 5.989 0 0 1 4.735-.55c1.592.478 2.903 1.572 3.693 3.081 1.627 3.11.502 7.04-2.508 8.756-3.678 2.1-8.364 3.306-13.319 3.5-.42.017-.84.025-1.254.025-1.179 0-2.329-.067-3.435-.199-8.25-.989-13.187-5.158-15.875-8.48-2.984-3.692-4.776-8.582-4.916-13.417-.314-10.82 4.39-19.215 13.602-24.274 6.807-3.739 15.777-3.81 22.316-.176zm-4.954 15.542c1.428-.559 1.558-1.235 1.302-2.45-.484-2.295-3.247-3.199-5.466-3.276-2.815-.1-5.61.488-7.502 1.567-1.998 1.14-3.242 2.376-3.966 3.28 2.376 1.114 5.876 1.713 9.657 1.631 1.971-.039 4.718-.26 5.975-.752z"/></g><g><path fill="#00af3f" d="M69.732 7.482a7.367 7.367 0 0 0-5.674.168 7.364 7.364 0 0 0-3.895 4.127 7.364 7.364 0 0 0 .168 5.673 7.363 7.363 0 0 0 4.126 3.897C79.481 27.063 87.234 41.13 83.75 56.352c-1.844 8.055-6.03 14.111-12.44 18.002-.097.058-.192.111-.289.168-4.31-4.513-10.542-9.264-18.01-12.122 4.257-15.599 4.344-31.796.373-49.789a7.372 7.372 0 0 0-3.252-4.654 7.404 7.404 0 0 0-5.59-.99c-3.995.883-6.527 4.85-5.645 8.843 3.522 15.952 3.348 30.238-.63 43.991a32.081 32.081 0 0 0-11.554 2.608c-1.895.814-4.002 1.49-5.377 1.295a3.243 3.243 0 1 1 .925-6.42c3.427.483 6.615-1.903 7.107-5.318.492-3.425-1.887-6.619-5.319-7.107a15.694 15.694 0 0 0-11.714 2.987 15.698 15.698 0 0 0-6.172 10.398c-.865 6.013 1.797 11.732 6.41 15.065a29.078 29.078 0 0 0-1.995 2.86c-3.45 5.853-4.318 12.447-2.26 18.62 2.562 7.685 9.12 13.263 16.704 14.212a25.98 25.98 0 0 0 3.211.206c11.027 0 17.024-7.67 22.367-14.506.12-.153.245-.293.368-.438 10.474-.015 20.288-2.52 28.036-7.225 9.832-5.966 16.474-15.433 19.207-27.378 5.207-22.748-6.239-43.717-28.479-52.178z"/></g><g><path fill="#fff" d="M41.61 87.673c-6.15 7.868-9.052 10.77-15.173 10.004-3.2-.4-6.13-3.01-7.293-6.498-1.439-4.316.07-8.915 4.25-12.95 4.845-4.68 10.25-7.038 16.106-7.038a22.9 22.9 0 0 1 3.226.232c.785.112 1.562.263 2.328.444-5.662.898-12.195 3.707-17.819 10.762a3.993 3.993 0 1 0 6.246 4.98c6.061-7.603 13.486-8.586 18.88-7.965-3.827 1.514-7.609 4.01-10.75 8.03z"/></g></g></svg>