<svg xmlns="http://www.w3.org/2000/svg" width="160" height="155" viewBox="0 0 160 155"><g><g><path d="M154.151 42.32c6.61 15.795 6.59 34.88 1.018 50.952-4.677 13.495-13.624 24.891-25.458 32.902-14.104 9.554-30.525 14.123-47.232 14.72.513 2.446.27 5.065-.961 7.461a11.316 11.316 0 0 1-8.052 5.974 11.276 11.276 0 0 1-7.197-1.065c-17.522-8.989-27.997-28.168-29.13-30.324-2.919-5.536-.795-12.388 4.738-15.304 3.08-1.617 6.535-1.636 9.52-.428 7.962-15.299 12-24.67 14.347-40.015 2.254-14.729 2.42-24.222-4.532-50.08-1.799-6.706.54-13.418 7.983-15.297C77.774-.349 82.81 4.85 85.05 10.927c1.905 5.166 3.398 10.3 4.585 15.407 7.882 2.924 23.088 10.661 29.681 28.384 4.342 11.675 4.038 30.56-1.28 48.3 9.596-7.492 13.766-16.81 14.901-20.883 1.99-7.14 4.793-20.03-4.57-35.753-8.062-13.536-21.732-20.306-25.035-22.29-6.844-4.116-9.706-11.147-6.94-17.208 3.086-6.767 9.748-7.709 15.797-5.41 18.378 6.971 34.348 22.654 41.962 40.846zm-58.924 70.515c10.065-17.529 11.694-41.775 7.86-52.08-2.325-6.25-6.454-10.556-10.525-13.485 1.096 22.604-4.445 44.68-15.324 66.368 6.738.481 12.697.13 17.99-.803z"/></g><g><path d="M21.941 52.588l12.887 3.232c2.615.699 5.151.858 7.494.507 3.12-.468 5.898-1.845 8.065-4.065 6.033-6.185 5.953-16.46-.174-22.44-2.482-2.42-5.67-3.926-9.21-4.355l-13.673-1.69c-5.825-.626-10.799.839-14.013 4.132a14.196 14.196 0 0 0-4.063 9.883c-.02 3.836 1.512 7.452 4.31 10.183 2.17 2.117 5.048 3.707 8.377 4.613z"/></g><g><path d="M45.64 81.686c-.102-4.375-1.871-8.347-4.983-11.186-2.56-2.335-5.795-3.734-9.35-4.044l-13.714-1.229c-5.838-.436-10.762 1.202-13.86 4.597a14.2 14.2 0 0 0-3.728 10.01c.11 3.832 1.76 7.394 4.649 10.027 2.237 2.043 5.167 3.534 8.523 4.329l12.982 2.798c2.513.58 4.896.698 7.086.369 3.243-.486 6.059-1.952 8.238-4.34 2.739-3.002 4.255-7.132 4.158-11.331z"/></g></g></svg>