<svg xmlns="http://www.w3.org/2000/svg" width="157" height="156" viewBox="0 0 157 156"><g><g><path d="M151.005 42.99c-7.65-18.177-23.65-33.83-42.04-40.767C102.914-.063 96.256.89 93.18 7.663c-2.754 6.067.12 13.093 6.97 17.196 3.308 1.978 16.992 8.722 25.079 22.243 9.39 15.703 6.613 28.6 4.637 35.743-2.143 7.736-15.16 34.423-55.64 31.608 3.26-6.531 6.023-13.1 8.289-19.702 11.445-1.442 21.57-9.391 25.149-21.122 4.795-15.71-3.92-32.356-19.448-37.462-1.246-8.077-3.323-16.218-6.371-24.44-2.253-6.071-7.298-11.26-15.873-9.08-7.44 1.894-9.766 8.609-7.952 15.312 2.348 8.673 3.878 15.48 4.807 21.286-5.975 3.725-10.698 9.514-12.91 16.762-3.45 11.305.112 23.084 8.154 30.716-2.344 6.63-5.446 13.142-9.698 21.35-2.985-1.203-6.444-1.178-9.515.446-5.531 2.926-7.642 9.782-4.714 15.312 1.14 2.155 11.649 21.314 29.186 30.269a11.285 11.285 0 0 0 7.202 1.052 11.308 11.308 0 0 0 8.04-5.99c1.224-2.4 1.462-5.017.949-7.462 16.703-.628 33.115-5.23 47.204-14.81 11.817-8.033 20.74-19.446 25.393-32.95 5.542-16.083 5.528-35.166-1.113-50.95z"/></g><g><path d="M39.218 52.282h.005a10.533 10.533 0 0 0 1.603-.255 10.853 10.853 0 0 0 8.318-11.479 10.802 10.802 0 0 0-3.812-7.394 10.8 10.8 0 0 0-7.922-2.533 4.378 4.378 0 0 1-4.724-3.996 4.341 4.341 0 0 1 1.02-3.19 4.374 4.374 0 0 1 2.982-1.535c5.962-.51 10.42-5.779 9.923-11.734A10.805 10.805 0 0 0 42.8 2.774 10.79 10.79 0 0 0 34.878.24c-6.95.583-13.261 3.832-17.766 9.154-4.506 5.327-6.668 12.088-6.09 19.04 1.2 14.347 13.848 25.045 28.196 23.85z"/></g><g><path d="M25.14 92.08a4.345 4.345 0 0 1-2.551-2.168 4.347 4.347 0 0 1-.271-3.34 4.389 4.389 0 0 1 5.508-2.825c2.765.893 5.71.653 8.293-.67a10.783 10.783 0 0 0 5.385-6.338c1.838-5.702-1.306-11.838-7.01-13.677-6.625-2.14-13.697-1.566-19.91 1.623C8.369 67.869 3.769 73.27 1.63 79.9-.51 86.538.063 93.613 3.243 99.82c3.18 6.208 8.588 10.804 15.228 12.946a10.77 10.77 0 0 0 5.806.237c3.674-.865 6.7-3.618 7.87-7.25a10.79 10.79 0 0 0-.671-8.29 10.786 10.786 0 0 0-6.336-5.384z"/></g><g><path fill="#e5352b" d="M61.49 59.538C58.576 69.08 63.97 79.21 73.51 82.12c9.54 2.912 19.67-2.48 22.582-12.022 2.912-9.54-2.482-19.67-12.022-22.582-9.54-2.912-19.67 2.481-22.582 12.022z"/></g></g></svg>