<svg xmlns="http://www.w3.org/2000/svg" width="198" height="214" viewBox="0 0 198 214"><g><g><path fill="#f9e300" d="M186.734 47.693c-11.023-20.196-28.972-35.482-51.907-44.208a35.761 35.761 0 0 0-12.764-2.352 35.685 35.685 0 0 0-14.706 3.158c-.61.274-1.21.563-1.799.867A35.817 35.817 0 0 0 88.446.81c-2.574 0-5.159.28-7.684.827l-.042.01-.043.01a35.757 35.757 0 0 0-11.51 4.756A33.962 33.962 0 0 0 54.148 4.34c-13.098 1.13-25.004 7.307-33.49 17.392-8.49 10.09-12.54 22.88-11.41 36.014a49.273 49.273 0 0 0 5.27 18.295C6.96 83.545 2.05 93.245.505 103.972c-1.524 10.6.43 21.134 5.272 30.218-4.807 12.825-5.143 26.501-.826 39.45 7.018 21.05 25.311 36.372 46.602 39.034 2.738.342 5.474.516 8.131.516 23.586-.002 38.486-13.092 48.362-24.545 16.84-1.588 32.418-6.53 45.583-14.52 21.456-13.02 35.901-33.46 41.77-59.108 5.427-23.714 2.431-46.995-8.665-67.324z"/></g><g><path fill="#fff" d="M81.155 154.627c-9.872 12.63-14.528 17.285-24.353 16.058-5.136-.642-9.841-4.834-11.707-10.43-2.31-6.927.113-14.309 6.82-20.788 7.778-7.51 16.454-11.296 25.853-11.296 1.702 0 3.429.125 5.178.373 1.26.18 2.507.423 3.738.714-9.088 1.441-19.575 5.95-28.602 17.273a6.411 6.411 0 1 0 10.025 7.992c9.728-12.203 21.647-13.78 30.304-12.783-6.142 2.431-12.214 6.437-17.256 12.887z"/></g><g><path fill="#00af3f" d="M59.84 78.824c.251-.015.505-.032.758-.055h.001a10.063 10.063 0 0 0 9.171-10.902 10.007 10.007 0 0 0-3.55-6.843 9.996 9.996 0 0 0-7.352-2.328 5.208 5.208 0 0 1-5.634-4.74 5.172 5.172 0 0 1 1.204-3.799 5.213 5.213 0 0 1 3.537-1.834c5.533-.493 9.647-5.383 9.172-10.9-.477-5.535-5.36-9.66-10.9-9.174-6.749.582-12.867 3.756-17.226 8.936-4.36 5.183-6.442 11.753-5.86 18.502 1.18 13.675 13.065 23.905 26.678 23.137z"/></g><g><path fill="#00af3f" d="M126.293 25.916c35.697 13.581 54.067 47.237 45.71 83.748-4.387 19.173-15.047 34.37-30.828 43.944-12.436 7.55-28.188 11.572-45 11.597-.197.232-.398.458-.59.703-8.576 10.97-18.201 23.281-35.901 23.282-1.647 0-3.361-.106-5.154-.33-12.174-1.523-22.698-10.477-26.811-22.813-3.303-9.905-1.91-20.49 3.627-29.884a46.533 46.533 0 0 1 3.203-4.59c-7.404-5.35-11.676-14.53-10.29-24.18.967-6.705 4.485-12.632 9.907-16.69 5.42-4.056 12.099-5.76 18.804-4.795 5.507.783 9.326 5.91 8.535 11.407-.79 5.482-5.905 9.311-11.405 8.536a5.208 5.208 0 0 0-3.862.984 5.167 5.167 0 0 0-2.035 3.426c-.408 2.842 1.562 5.491 4.412 5.895 2.205.312 5.588-.773 8.63-2.079 5.912-2.539 12.125-3.95 18.543-4.187 6.385-22.074 6.664-45.004 1.012-70.607-1.415-6.41 2.65-12.777 9.059-14.194 3.12-.678 6.306-.113 8.975 1.59a11.833 11.833 0 0 1 5.219 7.47c6.373 28.878 6.234 54.875-.598 79.915 11.986 4.586 21.988 12.212 28.907 19.455.155-.09.309-.177.462-.27 10.29-6.244 17.008-15.965 19.967-28.894 5.592-24.432-6.852-47.01-30.966-56.186a11.818 11.818 0 0 1-6.622-6.253 11.825 11.825 0 0 1-.27-9.107 11.821 11.821 0 0 1 6.252-6.623 11.828 11.828 0 0 1 9.108-.27zM81.155 154.627c5.042-6.45 11.114-10.456 17.256-12.887-8.657-.998-20.576.58-30.304 12.783a6.4 6.4 0 0 1-5.017 2.416 6.411 6.411 0 0 1-5.008-10.408c9.027-11.323 19.514-15.832 28.602-17.273a42.125 42.125 0 0 0-3.738-.714 36.863 36.863 0 0 0-5.178-.373c-9.4 0-18.075 3.786-25.852 11.296-6.708 6.48-9.13 13.861-6.821 20.787 1.866 5.597 6.57 9.79 11.707 10.431 9.825 1.227 14.48-3.429 24.353-16.058z"/></g></g></svg>