<svg xmlns="http://www.w3.org/2000/svg" width="150" height="166" viewBox="0 0 150 166"><g><g><path fill="#f04e98" d="M35.84 54.824c.252-.015.505-.032.758-.055h.002a10.063 10.063 0 0 0 9.171-10.902 10.013 10.013 0 0 0-3.552-6.843 9.995 9.995 0 0 0-7.351-2.328 5.208 5.208 0 0 1-4.43-8.539 5.211 5.211 0 0 1 3.538-1.834c5.533-.493 9.647-5.383 9.172-10.9-.478-5.535-5.361-9.66-10.902-9.174-6.748.582-12.865 3.756-17.225 8.936-4.36 5.183-6.442 11.753-5.861 18.502 1.18 13.675 13.067 23.905 26.68 23.137z"/></g><g><path fill="#f04e98" d="M102.293 1.916c35.696 13.581 54.066 47.237 45.71 83.748-4.387 19.173-15.047 34.37-30.828 43.944-12.437 7.55-28.188 11.572-45 11.597-.198.232-.399.458-.59.703-8.576 10.97-18.202 23.281-35.9 23.282-1.648 0-3.363-.106-5.155-.33-12.175-1.523-22.698-10.477-26.812-22.813-3.302-9.905-1.909-20.49 3.628-29.884a46.364 46.364 0 0 1 3.203-4.59c-7.405-5.35-11.677-14.53-10.29-24.18.966-6.705 4.484-12.632 9.907-16.69 5.421-4.056 12.1-5.76 18.803-4.795 5.507.783 9.327 5.91 8.536 11.407-.789 5.482-5.906 9.311-11.406 8.536a5.21 5.21 0 0 0-3.862.984 5.17 5.17 0 0 0-2.034 3.426c-.408 2.842 1.561 5.491 4.412 5.895 2.205.312 5.588-.773 8.63-2.079 5.912-2.539 12.124-3.95 18.542-4.187 6.386-22.074 6.665-45.004 1.013-70.607-1.416-6.41 2.65-12.777 9.058-14.194 3.12-.678 6.307-.113 8.976 1.59a11.832 11.832 0 0 1 5.218 7.47c6.373 28.878 6.235 54.875-.597 79.915 11.986 4.586 21.988 12.212 28.907 19.455.154-.09.31-.177.461-.27 10.29-6.244 17.01-15.965 19.968-28.894 5.592-24.432-6.852-47.01-30.966-56.186a11.815 11.815 0 0 1-6.622-6.253 11.826 11.826 0 0 1-.27-9.107 11.823 11.823 0 0 1 6.252-6.623 11.828 11.828 0 0 1 9.108-.27zM57.154 130.627c5.043-6.45 11.114-10.456 17.257-12.887-8.657-.998-20.576.58-30.304 12.783a6.402 6.402 0 0 1-5.017 2.416 6.412 6.412 0 0 1-5.009-10.408c9.027-11.323 19.514-15.832 28.602-17.273a42.103 42.103 0 0 0-3.737-.714 36.888 36.888 0 0 0-5.179-.373c-9.398 0-18.074 3.786-25.85 11.296-6.709 6.48-9.13 13.861-6.823 20.787 1.867 5.597 6.571 9.79 11.707 10.431 9.826 1.227 14.482-3.429 24.353-16.058z"/></g></g></svg>