<svg xmlns="http://www.w3.org/2000/svg" width="160" height="154" viewBox="0 0 160 154"><g><g><path d="M155.048 43.447C147.86 25.082 132.264 9.03 114.055 1.63 108.06-.808 101.38-.022 98.135 6.67c-2.906 5.995-.211 13.091 6.535 17.366 3.256 2.06 16.767 9.15 24.508 22.87 8.99 15.935 5.889 28.757 3.73 35.85-1.375 4.52-6.741 15.48-19.113 22.973 8.708-22.386 9.02-40.566 9.028-41.537.039-4.772-3.792-8.665-8.565-8.716-4.78-.053-8.69 3.783-8.747 8.557-.006.247-.502 23.928-14.117 48.901-4.517.463-9.45.531-14.905.013 17.408-32.764 22.462-66.717 10.21-102.5C84.603 4.32 79.69-.996 71.065.97c-7.486 1.704-9.982 8.358-8.338 15.105 6.343 26.013 5.959 35.501 3.358 50.173-2.706 15.284-6.962 24.56-15.277 39.668-2.954-1.277-6.412-1.34-9.525.206-5.603 2.785-7.884 9.586-5.1 15.188 1.088 2.183 11.108 21.601 28.412 30.996a11.284 11.284 0 0 0 7.177 1.234 11.314 11.314 0 0 0 8.187-5.784c1.284-2.368 1.589-4.979 1.137-7.436 16.712-.207 33.238-4.39 47.563-13.612 12.013-7.734 21.224-18.917 26.218-32.298 5.943-15.939 6.413-35.017.172-50.962z"/></g><g><path d="M22.408 47.42l12.887 3.231c2.615.7 5.15.858 7.494.507 3.12-.469 5.898-1.845 8.064-4.065 6.034-6.185 5.954-16.46-.174-22.439-2.482-2.42-5.669-3.927-9.21-4.356l-13.673-1.69c-5.824-.626-10.799.84-14.012 4.132a14.195 14.195 0 0 0-4.064 9.883c-.019 3.836 1.512 7.452 4.311 10.183 2.17 2.117 5.047 3.707 8.377 4.613z"/></g><g><path d="M46.106 76.518c-.102-4.375-1.87-8.348-4.983-11.186-2.56-2.335-5.795-3.734-9.35-4.044l-13.715-1.23c-5.837-.435-10.76 1.203-13.859 4.598a14.199 14.199 0 0 0-3.728 10.01c.11 3.832 1.76 7.394 4.65 10.027 2.236 2.043 5.166 3.534 8.521 4.329l12.983 2.798c2.512.58 4.896.698 7.086.369 3.242-.486 6.06-1.952 8.237-4.34 2.74-3.002 4.255-7.132 4.158-11.331z"/></g></g></svg>