<svg xmlns="http://www.w3.org/2000/svg" width="158" height="154" viewBox="0 0 158 154"><g><g><path d="M153.605 44.032c6.108 15.996 5.482 35.07-.591 50.96-5.101 13.34-14.404 24.447-26.484 32.082-14.401 9.103-30.956 13.151-47.671 13.221.429 2.461.105 5.07-1.2 7.426a11.304 11.304 0 0 1-8.234 5.717 11.283 11.283 0 0 1-7.163-1.29c-17.23-9.539-27.09-29.038-28.16-31.23-2.737-5.625-.402-12.407 5.226-15.145 3.122-1.52 6.58-1.43 9.526-.129 8.437-15.04 12.768-24.28 15.6-39.542 2.72-14.65 3.184-24.133-2.947-50.198-1.59-6.76.965-13.393 8.463-15.036 8.643-1.894 13.51 3.461 15.56 9.606 11.955 35.881 6.62 69.793-11.052 102.412 13.032 1.346 23.275-.5 31.29-3.847-4.118-7.767-10.24-23.303-6.71-42.682 3.06-16.794 11.949-26.242 19.063-31.295-6.292-6.009-12.642-9.505-14.735-10.853-6.713-4.33-9.347-11.448-6.393-17.418 3.299-6.666 9.986-7.398 15.96-4.91 18.148 7.55 33.614 23.728 40.652 42.151zm-22.462 39.125c2.14-6.836 5.175-19.029-2.621-34.29-4.274 2.938-10.315 9.001-12.43 20.593-2.446 13.435 1.383 24.297 4.244 30.11 6.563-6.305 9.769-13.098 10.807-16.413z"/></g><g><path d="M27.92 83.568a10.8 10.8 0 0 0 8.318.01 10.797 10.797 0 0 0 5.889-5.875 10.8 10.8 0 0 0 .008-8.318 10.788 10.788 0 0 0-5.873-5.887c-6.43-2.678-13.525-2.681-19.977-.018-6.456 2.663-11.482 7.672-14.157 14.102-2.68 6.44-2.69 13.537-.028 19.988 2.662 6.447 7.674 11.47 14.11 14.147a10.74 10.74 0 0 0 5.77.717c3.73-.562 6.975-3.056 8.44-6.58 2.302-5.533-.33-11.906-5.862-14.205a4.346 4.346 0 0 1-2.366-2.371 4.368 4.368 0 0 1 .004-3.35 4.387 4.387 0 0 1 5.724-2.36z"/></g><g><path d="M20.839 45.948l12.887 3.232c2.615.7 5.15.858 7.494.506 3.119-.468 5.898-1.844 8.064-4.064 6.034-6.186 5.954-16.46-.173-22.439-2.482-2.42-5.67-3.927-9.212-4.356l-13.671-1.69c-5.825-.626-10.8.84-14.013 4.132a14.193 14.193 0 0 0-4.063 9.883c-.02 3.836 1.51 7.452 4.31 10.182 2.169 2.117 5.048 3.708 8.377 4.614z"/></g></g></svg>