<svg xmlns="http://www.w3.org/2000/svg" width="159" height="154" viewBox="0 0 159 154"><g><g><path d="M42.31 52.448h.006a10.91 10.91 0 0 0 1.62-.116 10.854 10.854 0 0 0 9.276-10.718 10.805 10.805 0 0 0-3.16-7.696 10.793 10.793 0 0 0-7.675-3.206 4.381 4.381 0 0 1-4.362-4.389 4.377 4.377 0 0 1 4.394-4.362c5.985.006 10.88-4.859 10.898-10.835a10.795 10.795 0 0 0-3.158-7.693A10.79 10.79 0 0 0 42.475.225C35.5.206 28.933 2.898 23.986 7.813 19.038 12.731 16.3 19.28 16.28 26.256c-.044 14.397 11.635 26.147 26.031 26.192z"/></g><g><path d="M28.248 82.813a10.792 10.792 0 0 0 8.32.047 10.795 10.795 0 0 0 5.913-5.849c2.323-5.523-.282-11.907-5.803-14.231-6.419-2.703-13.512-2.741-19.98-.101-6.466 2.636-11.513 7.623-14.216 14.043C-.223 83.15-.264 90.248 2.37 96.708c2.635 6.458 7.626 11.504 14.056 14.21a10.75 10.75 0 0 0 5.763.737c3.735-.545 6.988-3.027 8.467-6.543a10.798 10.798 0 0 0 .047-8.317 10.795 10.795 0 0 0-5.85-5.912 4.339 4.339 0 0 1-2.354-2.381 4.352 4.352 0 0 1 .017-3.35 4.39 4.39 0 0 1 5.732-2.339z"/></g><g><path d="M148.907 103.828c2.282 3.19 4.003 6.744 4.926 10.695 2.81 12.019-1.84 25.587-11.309 32.995-4.774 3.734-9.518 5.636-14.15 6.314-10.36 1.512-20.173-3.096-28.568-7.035-1.85-.87-3.725-1.751-5.632-2.586-5.507-2.412-10.635-3.67-15.208-4.263.372 2.406.034 4.938-1.246 7.229a11.308 11.308 0 0 1-8.26 5.683 11.281 11.281 0 0 1-7.157-1.322c-17.187-9.61-26.968-29.15-28.026-31.346-2.717-5.637-.352-12.41 5.286-15.124 3.132-1.507 6.588-1.402 9.526-.088 8.504-15.005 12.872-24.227 15.77-39.476 2.78-14.64 3.283-24.121-2.738-50.211-1.56-6.766 1.02-13.39 8.524-15 8.65-1.858 13.495 3.518 15.518 9.67 9.805 29.84 7.66 58.267-3.54 85.689 11.92-6.27 26.191-9.638 42.29-6.296 1.053.219 2.028.533 3.037.808 1.853-2.997 2.983-5.623 3.523-7.326 2.244-7.064 5.505-19.848-3.288-35.893-7.57-13.815-20.99-21.07-24.222-23.171-6.694-4.36-9.3-11.487-6.32-17.445 3.328-6.652 10.017-7.356 15.983-4.843 18.115 7.625 33.513 23.869 40.472 42.322 6.042 16.02 5.338 35.092-.805 50.955a63.527 63.527 0 0 1-4.386 9.065zm-17.052 30.052c4.203-3.29 6.404-9.916 5.117-15.417-1.433-6.131-6.82-10.335-15.58-12.153a43.629 43.629 0 0 0-4.217-.647c-.21-.023-.42-.04-.63-.06a45.594 45.594 0 0 0-4.086-.208h.001c-5.792-.016-11.503 1.108-17.101 3.379a48.105 48.105 0 0 1 8.962.513 49.765 49.765 0 0 1 8.255 1.99c.333.11.664.232 1 .35 1.045.37 2.097.785 3.157 1.238.377.16.751.313 1.127.484a56.478 56.478 0 0 1 4.154 2.08 6.06 6.06 0 1 1-5.9 10.587c-12.95-7.22-24.235-5.72-31.939-2.79 5.268.908 10.972 2.507 16.946 5.123 2.046.896 4.058 1.84 6.045 2.77.997.469 1.942.907 2.85 1.32l.127.057c.897.407 1.76.79 2.583 1.146 8.973 3.87 13.705 4.48 19.13.238z"/></g></g></svg>