<svg xmlns="http://www.w3.org/2000/svg" width="174" height="206" viewBox="0 0 174 206"><g><g><path d="M112.486 54.456c-5.955-2.455-12.61-1.704-15.87 4.945-2.922 5.954-.274 13.031 6.424 17.318 3.235 2.068 16.651 9.186 24.294 22.882 8.88 15.906 5.732 28.658 3.552 35.708-2.363 7.633-16.109 33.803-56.31 29.798 17.48-32.538 22.67-66.318 10.638-101.999-2.06-6.11-6.926-11.424-15.524-9.508-7.46 1.662-9.976 8.275-8.37 15 6.193 25.927 5.766 35.37 3.111 49.965-2.765 15.204-7.045 24.42-15.39 39.423-2.94-1.285-6.38-1.364-9.487.161-5.589 2.747-7.894 9.507-5.144 15.098 1.071 2.178 10.956 21.556 28.142 30.99a11.242 11.242 0 0 0 7.137 1.261 11.262 11.262 0 0 0 8.178-5.722c1.29-2.35 1.603-4.949 1.165-7.398 16.643-.128 33.114-4.217 47.416-13.33 11.998-7.645 21.22-18.737 26.251-32.036 5.994-15.84 6.546-34.832.407-50.735-7.068-18.317-22.524-34.37-40.62-41.82z"/></g><g><path d="M41.883 105.742h.007a11.458 11.458 0 0 0 1.61-.128 10.805 10.805 0 0 0 9.153-10.743 10.743 10.743 0 0 0-3.207-7.636 10.746 10.746 0 0 0-7.664-3.133 4.362 4.362 0 0 1-4.377-4.336 4.348 4.348 0 0 1 1.263-3.086 4.388 4.388 0 0 1 3.078-1.29c5.958-.038 10.794-4.92 10.766-10.87a10.737 10.737 0 0 0-3.203-7.635 10.74 10.74 0 0 0-7.664-3.135c-6.947.03-13.46 2.764-18.348 7.698-4.89 4.934-7.563 11.475-7.531 18.42.069 14.333 11.784 25.94 26.117 25.874z"/></g><g><path d="M28.12 136.081a10.747 10.747 0 0 0 8.281-.017 10.759 10.759 0 0 0 5.843-5.87c2.27-5.516-.374-11.85-5.889-14.122-6.412-2.64-13.474-2.626-19.89.054-6.416 2.675-11.405 7.677-14.046 14.09-2.643 6.421-2.626 13.487.044 19.898 2.675 6.41 7.678 11.393 14.102 14.038a10.703 10.703 0 0 0 5.744.69c3.713-.572 6.933-3.068 8.38-6.58a10.749 10.749 0 0 0-.018-8.28 10.756 10.756 0 0 0-5.868-5.84 4.32 4.32 0 0 1-2.365-2.353 4.337 4.337 0 0 1-.008-3.335 4.37 4.37 0 0 1 5.69-2.373z"/></g><g><path d="M171.46 47.323a8.62 8.62 0 0 0-12.087-1.595l-10.482 8.037a8.62 8.62 0 0 0-1.594 12.086 8.613 8.613 0 0 0 12.084 1.595l10.482-8.038a8.616 8.616 0 0 0 1.597-12.085z"/></g><g><path d="M117.507 39.926a8.58 8.58 0 0 0 4.692.595 8.607 8.607 0 0 0 6.622-5.134l9.833-23.014a8.616 8.616 0 0 0-4.538-11.313 8.62 8.62 0 0 0-11.314 4.54l-9.833 23.013a8.618 8.618 0 0 0 4.538 11.313z"/></g><g><path d="M77.742 32.132c1.005 4.441 5.278 7.296 9.71 6.614.2-.03.4-.069.603-.114 4.642-1.053 7.554-5.67 6.497-10.314l-1.993-8.796a8.608 8.608 0 0 0-10.31-6.5 8.619 8.619 0 0 0-6.502 10.313z"/></g></g></svg>