<svg xmlns="http://www.w3.org/2000/svg" width="176" height="155" viewBox="0 0 176 155"><g><g><path d="M170.236 41.402C162.43 23.29 146.296 7.777 127.847.997c-6.075-2.234-12.724-1.22-15.74 5.577-2.7 6.091.231 13.09 7.121 17.135 3.322 1.948 17.064 8.574 25.267 22.026 9.527 15.621 6.861 28.542 4.947 35.702-2.077 7.754-14.863 34.551-55.366 32.087 3.755-7.684 6.817-15.412 9.192-23.184l10.982 1.25c1.256.142 2.484.086 3.663-.142 5.036-.975 9.082-5.118 9.691-10.487.754-6.62-4.005-12.6-10.627-13.353l-8.774-.998c2.003-18.317-.179-36.916-7.396-55.874C98.502 4.683 93.415-.462 84.86 1.794c-7.422 1.957-9.696 8.691-7.82 15.38 7.218 25.781 7.155 35.277 5.054 50.028-2.186 15.367-6.124 24.782-13.925 40.163-2.997-1.176-6.453-1.12-9.512.53-5.505 2.973-7.555 9.847-4.58 15.351 1.158 2.145 11.831 21.212 29.445 30.016a11.27 11.27 0 0 0 7.21.99 11.307 11.307 0 0 0 7.99-6.059c1.202-2.409 1.417-5.029.883-7.47 16.697-.772 33.071-5.514 47.073-15.215 11.748-8.136 20.575-19.626 25.11-33.168 5.402-16.13 5.224-35.214-1.55-50.938z"/></g><g><path d="M58.967 55.205h.004a10.67 10.67 0 0 0 1.613-.192 10.853 10.853 0 0 0 8.77-11.137c-.257-5.985-5.34-10.646-11.325-10.388a4.38 4.38 0 0 1-4.561-4.183 4.328 4.328 0 0 1 1.148-3.145 4.423 4.423 0 0 1 3.038-1.416c5.978-.28 10.644-5.354 10.386-11.325-.258-5.987-5.34-10.648-11.325-10.39-6.968.301-13.404 3.295-18.118 8.436-4.716 5.14-7.15 11.81-6.846 18.78.622 14.382 12.83 25.58 27.216 24.96z"/></g><g><path d="M42.425 110.726c13.42-3.538 22.858-16.298 21.5-29.988-.71-7.19-4.254-13.553-9.974-17.92-5.723-4.367-12.93-6.131-20.317-5.201-1.535.194-3.067.689-4.503 1.407-5.794-18.662-10.636-30.805-11.034-31.8-1.892-4.701-7.242-6.99-11.942-5.088-4.701 1.89-6.984 7.235-5.093 11.939.19.477 19.196 48.177 27.078 101.404a9.182 9.182 0 0 0 10.835 7.667c4.793-.928 8.052-5.478 7.329-10.356a430.562 430.562 0 0 0-3.88-22.064z"/></g></g></svg>