<svg xmlns="http://www.w3.org/2000/svg" width="169" height="155" viewBox="0 0 169 155"><g><g><path d="M41.553 54.791h.005a11.034 11.034 0 0 0 1.616-.169A10.856 10.856 0 0 0 52.1 43.608c-.175-5.989-5.191-10.72-11.181-10.547a4.382 4.382 0 0 1-4.502-4.245 4.342 4.342 0 0 1 1.193-3.13 4.418 4.418 0 0 1 3.058-1.372c5.98-.197 10.718-5.205 10.544-11.179-.175-5.99-5.188-10.72-11.18-10.548-6.97.203-13.448 3.107-18.233 8.182-4.788 5.072-7.312 11.707-7.108 18.68.42 14.392 12.47 25.758 26.862 25.341z"/></g><g><path d="M28.479 85.596a10.804 10.804 0 0 0 8.316-.222 10.81 10.81 0 0 0 5.72-6.04 10.793 10.793 0 0 0-.223-8.315 10.796 10.796 0 0 0-6.036-5.72c-6.502-2.494-13.594-2.3-19.97.543-6.378 2.843-11.263 7.99-13.757 14.494-2.497 6.513-2.31 13.607.532 19.98 2.843 6.37 7.994 11.252 14.504 13.747a10.738 10.738 0 0 0 5.787.554c3.714-.666 6.886-3.251 8.252-6.813 2.144-5.597-.665-11.893-6.26-14.036a4.337 4.337 0 0 1-2.43-2.303 4.353 4.353 0 0 1-.09-3.348 4.386 4.386 0 0 1 5.655-2.521z"/></g><g><path d="M168.38 38.602c2.34 13.055-3.481 21.534-10.432 28.524.194 9.024-1.205 18.103-4.106 26.38-4.725 13.477-13.711 24.841-25.571 32.812-14.14 9.503-30.577 14.015-47.284 14.553.5 2.448.249 5.065-.99 7.457a11.307 11.307 0 0 1-8.07 5.947c-2.37.424-4.893.1-7.196-1.092-17.49-9.05-27.894-28.264-29.022-30.425-2.897-5.546-.752-12.39 4.795-15.287 3.08-1.608 6.538-1.613 9.519-.396 8.013-15.27 12.084-24.628 14.488-39.963 2.306-14.72 2.503-24.214-4.355-50.096-1.78-6.713.587-13.415 8.036-15.268 8.585-2.136 13.603 3.082 15.822 9.166 12.959 35.532 8.578 69.58-8.173 102.682 17.658 1.324 30.116-3 38.732-8.935-6.827-8.477-12.836-20.014-15.257-32.468-3.196-16.425.452-31.41 10.445-43.477-3.43-2.31-6.241-3.804-7.512-4.573-6.83-4.14-9.665-11.18-6.88-17.232 3.113-6.756 9.776-7.675 15.818-5.356 7.775 2.981 15.104 7.537 21.554 13.17 4.377-.674 8.868-.473 13.345.763 11.424 3.156 20.383 12.444 22.295 23.114zm-27.75 21.052c8.875-8.063 11.876-11.466 10.706-17.998-.737-4.116-4.886-8.102-9.86-9.476a14.35 14.35 0 0 0-6.406-.304c-4.021.721-7.943 3.15-11.434 7.16-5.36 6.157-8.076 13.37-8.131 21.518 2.72-5.73 6.917-11.432 13.266-16.642a6.052 6.052 0 0 1 8.529.841 6.056 6.056 0 0 1-.84 8.528c-13.46 11.046-13.887 23.84-12.49 31.581 1.7-6.93 5.092-14.189 11.487-20.397 1.76-1.708 3.495-3.286 5.173-4.81z"/></g></g></svg>