<?xml version="1.0" standalone="no"?>
<!DOCTYPE svg PUBLIC "-//W3C//DTD SVG 1.1//EN" "http://www.w3.org/Graphics/SVG/1.1/DTD/svg11.dtd" >
<svg xmlns="http://www.w3.org/2000/svg" xmlns:xlink="http://www.w3.org/1999/xlink" version="1.1">
<metadata>
Created by FontForge 20170731 at Thu Aug 11 23:46:41 2016
 By Aleksey,,,
Copyright (C) 2011, 2014 Hoefler &#38; Co. http://www.typography.com
</metadata>
<defs>
<font id="GothamRndSSm-Bold" horiz-adv-x="528" >
  <font-face 
    font-family="Gotham Rnd SSm Bold"
    font-weight="400"
    font-stretch="normal"
    units-per-em="1000"
    panose-1="0 0 0 0 0 0 0 0 0 0"
    ascent="800"
    descent="-200"
    x-height="556"
    cap-height="734"
    bbox="-56 -304 1244 1126"
    underline-thickness="50"
    underline-position="-200"
    unicode-range="U+0020-FB04"
  />
<missing-glyph horiz-adv-x="500" 
d="M0 -200v1000h500v-1000h-500zM71 750l179 -390l179 390h-358zM450 676l-172 -376l172 -376v752zM50 -76l172 376l-172 376v-752zM250 240l-179 -390h358z" />
    <glyph glyph-name="f_f" unicode="ff" horiz-adv-x="800" 
d="M500 70v356h-10q-26 0 -44.5 18t-18.5 44t18.5 44.5t44.5 18.5h10v36q0 90 44 136q43 43 127 43q41 0 65 -4q21 -3 36.5 -20t15.5 -41q0 -26 -18.5 -44.5t-44.5 -18.5h-16q-60 0 -60 -64v-24h75q26 0 44.5 -18t18.5 -44t-18.5 -44t-44.5 -18h-73v-356q0 -32 -22.5 -54
t-53.5 -22t-53 22t-22 54zM104 70v356h-10q-26 0 -44.5 18t-18.5 44t18.5 44.5t44.5 18.5h10v36q0 90 44 136q43 43 127 43q41 0 65 -4q21 -3 36.5 -20t15.5 -41q0 -26 -18.5 -44.5t-44.5 -18.5h-16q-60 0 -60 -64v-24h75q26 0 44.5 -18t18.5 -44t-18.5 -44t-44.5 -18h-73
v-356q0 -32 -22.5 -54t-53.5 -22t-53 22t-22 54z" />
    <glyph glyph-name="fi" unicode="fi" horiz-adv-x="715" 
d="M104 70v356h-10q-26 0 -44.5 18t-18.5 44t18.5 44.5t44.5 18.5h10v36q0 90 44 136q43 43 127 43q41 0 65 -4q21 -3 36.5 -20t15.5 -41q0 -26 -18.5 -44.5t-44.5 -18.5h-16q-60 0 -60 -64v-24h75q26 0 44.5 -18t18.5 -44t-18.5 -44t-44.5 -18h-73v-356q0 -32 -22.5 -54
t-53.5 -22t-53 22t-22 54zM470 689v3q0 32 24 51.5t61 19.5t61 -19.5t24 -51.5v-3q0 -32 -24 -52t-61 -20t-61 20t-24 52zM480 70v416q0 32 22 54t53 22t53.5 -22t22.5 -54v-416q0 -32 -22.5 -54t-53.5 -22t-53 22t-22 54z" />
    <glyph glyph-name="fl" unicode="fl" horiz-adv-x="715" 
d="M104 70v356h-10q-26 0 -44.5 18t-18.5 44t18.5 44.5t44.5 18.5h10v36q0 90 44 136q43 43 127 43q41 0 65 -4q21 -3 36.5 -20t15.5 -41q0 -26 -18.5 -44.5t-44.5 -18.5h-16q-60 0 -60 -64v-24h75q26 0 44.5 -18t18.5 -44t-18.5 -44t-44.5 -18h-73v-356q0 -32 -22.5 -54
t-53.5 -22t-53 22t-22 54zM480 70v619q0 32 22 54t53 22t53.5 -22.5t22.5 -53.5v-619q0 -32 -22.5 -54t-53.5 -22t-53 22t-22 54z" />
    <glyph glyph-name="f_f_i" unicode="ffi" horiz-adv-x="1111" 
d="M500 70v356h-10q-26 0 -44.5 18t-18.5 44t18.5 44.5t44.5 18.5h10v36q0 90 44 136q43 43 127 43q41 0 65 -4q21 -3 36.5 -20t15.5 -41q0 -26 -18.5 -44.5t-44.5 -18.5h-16q-60 0 -60 -64v-24h75q26 0 44.5 -18t18.5 -44t-18.5 -44t-44.5 -18h-73v-356q0 -32 -22.5 -54
t-53.5 -22t-53 22t-22 54zM104 70v356h-10q-26 0 -44.5 18t-18.5 44t18.5 44.5t44.5 18.5h10v36q0 90 44 136q43 43 127 43q41 0 65 -4q21 -3 36.5 -20t15.5 -41q0 -26 -18.5 -44.5t-44.5 -18.5h-16q-60 0 -60 -64v-24h75q26 0 44.5 -18t18.5 -44t-18.5 -44t-44.5 -18h-73
v-356q0 -32 -22.5 -54t-53.5 -22t-53 22t-22 54zM866 689v3q0 32 24 51.5t61 19.5t61 -19.5t24 -51.5v-3q0 -32 -24 -52t-61 -20t-61 20t-24 52zM876 70v416q0 32 22 54t53 22t53.5 -22t22.5 -54v-416q0 -32 -22.5 -54t-53.5 -22t-53 22t-22 54z" />
    <glyph glyph-name="f_f_l" unicode="ffl" horiz-adv-x="1111" 
d="M500 70v356h-10q-26 0 -44.5 18t-18.5 44t18.5 44.5t44.5 18.5h10v36q0 90 44 136q43 43 127 43q41 0 65 -4q21 -3 36.5 -20t15.5 -41q0 -26 -18.5 -44.5t-44.5 -18.5h-16q-60 0 -60 -64v-24h75q26 0 44.5 -18t18.5 -44t-18.5 -44t-44.5 -18h-73v-356q0 -32 -22.5 -54
t-53.5 -22t-53 22t-22 54zM104 70v356h-10q-26 0 -44.5 18t-18.5 44t18.5 44.5t44.5 18.5h10v36q0 90 44 136q43 43 127 43q41 0 65 -4q21 -3 36.5 -20t15.5 -41q0 -26 -18.5 -44.5t-44.5 -18.5h-16q-60 0 -60 -64v-24h75q26 0 44.5 -18t18.5 -44t-18.5 -44t-44.5 -18h-73
v-356q0 -32 -22.5 -54t-53.5 -22t-53 22t-22 54zM876 70v619q0 32 22 54t53 22t53.5 -22.5t22.5 -53.5v-619q0 -32 -22.5 -54t-53.5 -22t-53 22t-22 54z" />
    <glyph glyph-name=".notdef" horiz-adv-x="500" 
d="M0 -200v1000h500v-1000h-500zM71 750l179 -390l179 390h-358zM450 676l-172 -376l172 -376v752zM50 -76l172 376l-172 376v-752zM250 240l-179 -390h358z" />
    <glyph glyph-name=".null" horiz-adv-x="0" 
 />
    <glyph glyph-name="nonmarkingreturn" horiz-adv-x="333" 
 />
    <glyph glyph-name="space" unicode=" " horiz-adv-x="320" 
 />
    <glyph glyph-name="exclam" unicode="!" horiz-adv-x="340" 
d="M124 282l-43 398q-2 22 9.5 36.5t31.5 14.5h97q20 0 31 -14.5t9 -36.5l-43 -398q-2 -20 -14.5 -32t-31.5 -12t-31.5 12t-14.5 32zM83 83q0 36 25 60.5t62 24.5t62 -24.5t25 -60.5v-4q0 -36 -25 -60.5t-62 -24.5t-62 24.5t-25 60.5v4z" />
    <glyph glyph-name="quotedbl" unicode="&#x22;" horiz-adv-x="542" 
d="M66 440l14 223q2 29 21 49t49 20h48q17 0 28 -11t11 -29q0 -12 -3 -22l-82 -239q-13 -37 -44 -37q-18 0 -30.5 13t-11.5 33zM308 440l14 223q2 29 21 49t49 20h48q17 0 28 -11t11 -29q0 -12 -3 -22l-82 -239q-13 -37 -44 -37q-18 0 -30.5 13t-11.5 33z" />
    <glyph glyph-name="numbersign" unicode="#" horiz-adv-x="736" 
d="M113 69l15 89h-29q-26 0 -45 19t-19 45t19 45t45 19h51l27 160h-41q-26 0 -45 19t-19 45t19 45t45 19h63l18 107q4 24 22 38.5t43 14.5q29 0 48.5 -23t14.5 -52l-14 -85h145l18 107q4 24 22 38.5t42 14.5q30 0 49.5 -23t14.5 -52l-14 -85h29q26 0 45 -19t19 -45t-19 -45
t-45 -19h-51l-27 -160h41q26 0 45 -19t19 -45t-19 -45t-45 -19h-63l-19 -111q-4 -23 -22 -38t-43 -15q-29 0 -48.5 23t-14.5 52l15 89h-145l-19 -111q-4 -22 -21 -37.5t-43 -15.5q-30 0 -49.5 22t-14.5 53zM282 286h145l27 160h-145z" />
    <glyph glyph-name="dollar" unicode="$" horiz-adv-x="679" 
d="M224 533q0 -27 16.5 -45t60.5 -34v149q-77 -10 -77 -70zM476 198q0 29 -18 48t-62 34v-154q80 12 80 72zM349 -108q-22 0 -37.5 15t-15.5 37v59q-111 14 -206 74q-34 21 -34 59q0 29 20 49t49 20q18 0 39 -14q73 -47 137 -60v174q-116 30 -169.5 80t-53.5 139
q0 85 59.5 139.5t158.5 64.5v14q0 22 15.5 37t37.5 15t37 -15t15 -37v-16q85 -12 153 -51q36 -23 36 -60q0 -29 -20 -48.5t-48 -19.5q-19 0 -36 10q-47 26 -90 38v-166q119 -32 172.5 -84t53.5 -139q0 -85 -60.5 -139.5t-160.5 -65.5v-57q0 -22 -15 -37t-37 -15z" />
    <glyph glyph-name="percent" unicode="%" horiz-adv-x="900" 
d="M226 364q-77 0 -126 53t-49 131v2q0 79 49.5 132.5t127.5 53.5q77 0 126 -53t49 -131v-2q0 -78 -49.5 -132t-127.5 -54zM167 41q0 15 11 32l467 640q15 21 41 21q20 0 34 -14t14 -33q0 -18 -11 -32l-468 -640q-15 -21 -41 -21q-20 0 -33.5 14t-13.5 33zM228 456
q32 0 50.5 26.5t18.5 65.5v2q0 39 -20 67t-51 28q-32 0 -50.5 -27t-18.5 -66v-2q0 -39 20 -66.5t51 -27.5zM672 -8q-77 0 -126 53t-49 131v2q0 78 49.5 132t127.5 54q77 0 126 -53.5t49 -130.5v-2q0 -78 -50 -132t-127 -54zM674 83q32 0 50.5 27t18.5 66v2q0 39 -20 66.5
t-51 27.5q-32 0 -50.5 -26.5t-18.5 -65.5v-2q0 -39 20 -67t51 -28z" />
    <glyph glyph-name="ampersand" unicode="&#x26;" horiz-adv-x="732" 
d="M617 -10q-29 0 -51 22l-64 64q-99 -86 -219 -86q-105 0 -174 57.5t-69 151.5v2q0 136 145 201q-53 70 -53 147v2q0 78 59.5 133.5t158.5 55.5q90 0 146.5 -52t56.5 -129v-2q0 -131 -154 -190l102 -101q28 43 50 84q7 13 22 24t35 11q26 0 45 -19t19 -45q0 -17 -9 -32
q-29 -53 -71 -113l69 -69q23 -23 23 -50q0 -29 -19 -48t-48 -19zM318 448q51 19 75.5 42t24.5 58v2q0 32 -19.5 51t-51.5 19q-34 0 -54 -21t-20 -55v-2q0 -43 45 -94zM301 116q58 0 112 48l-143 145q-75 -38 -75 -102v-2q0 -40 29.5 -64.5t76.5 -24.5z" />
    <glyph glyph-name="quotesingle" unicode="'" horiz-adv-x="302" 
d="M66 440l14 223q2 29 21 49t49 20h48q17 0 29 -11t12 -29q0 -12 -3 -22l-82 -239q-13 -37 -46 -37q-19 0 -31 13t-11 33z" />
    <glyph glyph-name="parenleft" unicode="(" horiz-adv-x="470" 
d="M362 -139q-23 0 -36 8q-260 157 -260 429q0 273 260 430q13 8 36 8q22 0 40 -19.5t18 -42.5q0 -32 -25 -50q-93 -69 -135.5 -145.5t-42.5 -180.5t42.5 -180t135.5 -145q25 -18 25 -50q0 -23 -18 -42.5t-40 -19.5z" />
    <glyph glyph-name="parenright" unicode=")" horiz-adv-x="470" 
d="M108 -139q-22 0 -40 19.5t-18 42.5q0 32 25 50q93 69 135.5 145.5t42.5 179.5q0 104 -42.5 180.5t-135.5 145.5q-25 18 -25 50q0 23 18 42.5t40 19.5q23 0 36 -8q260 -158 260 -430q0 -271 -260 -429q-13 -8 -36 -8z" />
    <glyph glyph-name="asterisk" unicode="*" horiz-adv-x="455" 
d="M191 427l11 87l-72 -54q-14 -13 -29 -13q-16 0 -27 12t-11 28q0 26 27 36l85 37l-85 36q-27 11 -27 37q0 16 11.5 27.5t27.5 11.5q13 0 28 -12l72 -55l-11 86q-2 19 8.5 32t28.5 13t28 -12.5t8 -31.5l-11 -87l72 55q15 12 29 12q16 0 27.5 -12t11.5 -28q0 -25 -28 -36
l-85 -36l85 -37q28 -11 28 -37q0 -16 -12 -27.5t-28 -11.5q-14 0 -28 13l-72 54l11 -86q2 -19 -8 -32t-28 -13q-19 0 -29 12.5t-8 31.5z" />
    <glyph glyph-name="plus" unicode="+" horiz-adv-x="672" 
d="M265 173v124h-127q-28 0 -48.5 20.5t-20.5 48.5t20.5 48.5t48.5 20.5h127v125q0 29 21 50t50 21t50 -21t21 -50v-125h128q29 0 49 -20.5t20 -48.5t-20 -48.5t-49 -20.5h-128v-124q0 -29 -21 -50t-50 -21t-50 21t-21 50z" />
    <glyph glyph-name="comma" unicode="," horiz-adv-x="302" 
d="M26 -131q0 26 30 33q39 10 59.5 35.5t18.5 62.5q-29 7 -49.5 29.5t-20.5 52.5v4q0 36 23 59t60 23q42 0 65.5 -30t23.5 -82v-5q0 -108 -59 -167q-51 -49 -113 -49q-38 0 -38 34z" />
    <glyph glyph-name="hyphen" unicode="-" horiz-adv-x="432" 
d="M124 248q-30 0 -51.5 22t-21.5 52t21.5 51.5t51.5 21.5h184q30 0 51.5 -21.5t21.5 -51.5t-21.5 -52t-51.5 -22h-184z" />
    <glyph glyph-name="period" unicode="." horiz-adv-x="302" 
d="M64 83q0 36 25 60.5t62 24.5t62 -24.5t25 -60.5v-4q0 -36 -25 -60.5t-62 -24.5t-62 24.5t-25 60.5v4z" />
    <glyph glyph-name="slash" unicode="/" horiz-adv-x="557" 
d="M7 -82q0 13 7 29l410 854q17 35 53 35q24 0 41.5 -17t17.5 -40q0 -13 -7 -29l-410 -854q-17 -35 -53 -35q-24 0 -41.5 17t-17.5 40z" />
    <glyph glyph-name="zero" unicode="0" horiz-adv-x="766" 
d="M382 -12q-143 0 -232 106.5t-89 267.5v2q0 160 90 268t233 108q142 0 231.5 -106.5t89.5 -267.5v-2q0 -160 -90 -268t-233 -108zM384 126q74 0 118.5 67t44.5 169v2q0 102 -46 170t-119 68t-118 -66.5t-45 -169.5v-2q0 -103 45.5 -170.5t119.5 -67.5z" />
    <glyph glyph-name="one" unicode="1" horiz-adv-x="441" 
d="M189 70v512l-60 -16q-16 -4 -27 -4q-27 0 -47 19.5t-20 46.5q0 23 14 41t37 25l105 31q47 13 72 13h2q31 0 53.5 -22t22.5 -54v-592q0 -32 -22.5 -54t-53.5 -22t-53.5 22t-22.5 54z" />
    <glyph glyph-name="two" unicode="2" horiz-adv-x="654" 
d="M49 73q0 45 40 77l210 173q72 60 100 97.5t28 81.5q0 47 -28 73t-74 26q-35 0 -63 -16t-61 -51q-19 -23 -52 -23q-29 0 -49.5 20.5t-20.5 49.5q0 27 18 48q47 55 102.5 82t135.5 27q112 0 180.5 -61t68.5 -162v-2q0 -44 -10.5 -79.5t-37.5 -69.5t-58 -62.5t-85 -70.5
l-125 -98h262q28 0 47.5 -19.5t19.5 -47.5t-19.5 -47t-47.5 -19h-399q-36 0 -59 19.5t-23 53.5z" />
    <glyph glyph-name="three" unicode="3" horiz-adv-x="653" 
d="M327 -12q-146 0 -242 85q-26 22 -26 55q0 30 22 52t52 22q26 0 49 -19q66 -58 147 -58q48 0 78 25.5t30 67.5v2q0 46 -39 71.5t-108 25.5h-26q-27 0 -46.5 19.5t-19.5 46.5q0 30 33 62l148 151h-232q-27 0 -46.5 19.5t-19.5 46.5t19.5 46.5t46.5 19.5h358q34 0 56 -18.5
t22 -49.5q0 -26 -11 -44t-35 -41l-148 -145q87 -14 143 -62.5t56 -141.5v-2q0 -104 -71 -170t-190 -66z" />
    <glyph glyph-name="four" unicode="4" horiz-adv-x="723" 
d="M421 67v91h-305q-31 0 -53 20.5t-22 50.5q0 42 36 84l321 375q24 27 44 39t52 12q31 0 52.5 -21t21.5 -52v-383h42q26 0 44.5 -18.5t18.5 -44.5t-18.5 -44t-44.5 -18h-42v-91q0 -31 -21.5 -52t-52.5 -21t-52 21t-21 52zM218 283h203v239z" />
    <glyph glyph-name="five" unicode="5" horiz-adv-x="662" 
d="M326 -12q-132 0 -230 70q-31 22 -31 59q0 30 21.5 52t51.5 22q24 0 43 -14q66 -50 142 -50q54 0 88 28.5t34 77.5v2q0 48 -36.5 75.5t-96.5 27.5q-37 0 -72.5 -10t-40.5 -10q-28 0 -70 31q-32 22 -29 63l15 250q2 28 21 47t47 19h319q28 0 48 -20t20 -48t-20 -47.5
t-48 -19.5h-251l-9 -135q52 14 100 14q114 0 184 -58t70 -174v-2q0 -114 -75 -182t-195 -68z" />
    <glyph glyph-name="six" unicode="6" horiz-adv-x="695" 
d="M356 -12q-130 0 -209 77q-86 88 -86 276v2q0 177 81.5 287t236.5 110q102 0 177 -45q39 -24 39 -66q0 -30 -21.5 -50.5t-51.5 -20.5q-18 0 -38 11q-52 32 -110 32q-68 0 -106.5 -49.5t-46.5 -131.5q74 52 156 52q112 0 183.5 -61t71.5 -170v-3q0 -110 -78.5 -180
t-197.5 -70zM350 119q60 0 94.5 31.5t34.5 80.5v3q0 48 -35.5 79t-95.5 31t-94.5 -31t-34.5 -79v-2q0 -49 35.5 -81t95.5 -32z" />
    <glyph glyph-name="seven" unicode="7" horiz-adv-x="650" 
d="M135 63q0 23 14 48l273 484h-286q-28 0 -47.5 19t-19.5 47t19.5 47.5t47.5 19.5h397q33 0 51.5 -18t18.5 -51q0 -34 -21 -74l-294 -539q-28 -52 -74 -52q-32 0 -55.5 18.5t-23.5 50.5z" />
    <glyph glyph-name="eight" unicode="8" horiz-adv-x="663" 
d="M332 -10q-122 0 -201.5 58t-79.5 151v2q0 122 121 176q-96 56 -96 160v2q0 85 71.5 142t184.5 57t184 -56.5t71 -142.5v-2q0 -103 -95 -160q60 -30 90 -70t30 -102v-2q0 -98 -78.5 -155.5t-201.5 -57.5zM332 429q49 0 79 25.5t30 66.5v2q0 37 -30 62.5t-79 25.5
q-50 0 -80 -25.5t-30 -61.5v-2q0 -41 30.5 -67t79.5 -26zM332 117q60 0 95.5 26.5t35.5 67.5v2q0 43 -37 68t-94 25q-58 0 -95 -25t-37 -68v-2q0 -40 35.5 -67t96.5 -27z" />
    <glyph glyph-name="nine" unicode="9" horiz-adv-x="695" 
d="M347 378q60 0 94.5 32t34.5 81v2q0 51 -36 83.5t-96 32.5t-94 -32t-34 -84v-2q0 -51 35.5 -82t95.5 -31zM318 -12q-110 0 -194 53q-36 22 -36 63q0 30 21.5 50t51.5 20q19 0 41 -12q58 -35 119 -35q68 0 107.5 48.5t46.5 129.5q-60 -55 -153 -55q-119 0 -189 62.5
t-70 171.5v2q0 110 77.5 182t198.5 72q71 0 119 -18.5t90 -59.5q86 -86 86 -275v-2q0 -181 -83 -289t-233 -108z" />
    <glyph glyph-name="colon" unicode=":" horiz-adv-x="312" 
d="M69 477q0 36 25 60.5t62 24.5t62 -24.5t25 -60.5v-4q0 -36 -25 -60.5t-62 -24.5t-62 24.5t-25 60.5v4zM69 83q0 36 25 60.5t62 24.5t62 -24.5t25 -60.5v-4q0 -36 -25 -60.5t-62 -24.5t-62 24.5t-25 60.5v4z" />
    <glyph glyph-name="semicolon" unicode=";" horiz-adv-x="312" 
d="M69 477q0 36 25 60.5t62 24.5t62 -24.5t25 -60.5v-4q0 -36 -25 -60.5t-62 -24.5t-62 24.5t-25 60.5v4zM31 -131q0 26 30 33q39 10 59.5 35.5t18.5 62.5q-29 7 -49.5 29.5t-20.5 52.5v4q0 36 23 59t60 23q42 0 65.5 -30t23.5 -82v-5q0 -108 -59 -167q-49 -49 -113 -49
q-38 0 -38 34z" />
    <glyph glyph-name="less" unicode="&#x3c;" horiz-adv-x="672" 
d="M517 97q-14 0 -32 9l-356 170q-61 29 -61 85v10q0 56 61 85l356 170q20 10 37 10q24 1 42.5 -17.5t18.5 -45.5q0 -42 -42 -61l-320 -145l320 -144q42 -21 42 -63q0 -28 -19 -46t-47 -17z" />
    <glyph glyph-name="equal" unicode="=" horiz-adv-x="672" 
d="M144 431q-29 0 -49.5 20t-20.5 49t20.5 49t49.5 20h385q29 0 49 -20.5t20 -48.5t-20 -48.5t-49 -20.5h-385zM144 163q-29 0 -49.5 20t-20.5 49t20.5 49t49.5 20h385q29 0 49 -20.5t20 -48.5t-20 -48.5t-49 -20.5h-385z" />
    <glyph glyph-name="greater" unicode="&#x3e;" horiz-adv-x="672" 
d="M156 635q14 0 32 -9l355 -170q61 -29 61 -85v-10q0 -56 -61 -85l-355 -170q-20 -10 -37 -10q-24 -1 -42.5 18t-18.5 46q0 42 42 61l319 144l-319 145q-42 19 -42 63q0 28 19 45.5t47 16.5z" />
    <glyph glyph-name="question" unicode="?" horiz-adv-x="573" 
d="M267 238h-8q-21 0 -36 14t-18 35l-11 75q-3 25 10 41t37 19q136 16 136 95v2q0 37 -26.5 58t-73.5 21q-68 0 -125 -45q-21 -16 -46 -16q-28 0 -48.5 20.5t-20.5 48.5q0 32 25 54q92 77 218 77q114 0 182 -56.5t68 -157.5v-2q0 -169 -206 -209l-4 -25q-3 -20 -17.5 -34.5
t-35.5 -14.5zM172 83q0 36 25 60.5t62 24.5t62 -24.5t25 -60.5v-4q0 -36 -25 -60.5t-62 -24.5t-62 24.5t-25 60.5v4z" />
    <glyph glyph-name="at" unicode="@" horiz-adv-x="1027" 
d="M523 -168q-130 0 -237 61t-167 165t-60 227q0 188 133 321.5t323 133.5q93 0 177.5 -34.5t144.5 -91t95.5 -131.5t35.5 -154q0 -125 -58.5 -193t-147.5 -68q-105 0 -158 65q-69 -65 -155 -65q-81 0 -135.5 55t-54.5 145q0 108 70 184.5t163 76.5t145 -72v4q9 61 63 61
q28 0 46.5 -21t12.5 -53l-41 -230q-3 -18 -3 -35q0 -29 20.5 -48t56.5 -19q58 0 95.5 56t37.5 157q0 147 -119 258.5t-291 111.5q-116 0 -211 -55.5t-148.5 -150.5t-53.5 -208q0 -174 119.5 -293t301.5 -119q132 0 246 64q5 3 11 3q7 0 13 -6t6 -14q0 -10 -11 -17
q-124 -71 -265 -71zM483 172q52 0 90 44.5t38 108.5q0 45 -28 72.5t-71 27.5q-52 0 -90.5 -43.5t-38.5 -106.5q0 -48 27.5 -75.5t72.5 -27.5z" />
    <glyph glyph-name="A" unicode="A" horiz-adv-x="806" 
d="M43 66q0 13 9 33l257 579q27 61 90 61h9q62 0 89 -61l257 -579q8 -18 8 -31q0 -31 -21 -52.5t-52 -21.5q-50 0 -73 53l-52 119h-326l-53 -124q-21 -48 -71 -48q-30 0 -50.5 21t-20.5 51zM295 302h212l-106 251z" />
    <glyph glyph-name="B" unicode="B" horiz-adv-x="759" 
d="M93 77v574q0 32 22.5 54.5t54.5 22.5h258q125 0 191 -64q49 -50 49 -124v-2q0 -104 -97 -158q68 -25 103 -66.5t35 -111.5v-2q0 -98 -73 -149t-199 -51h-267q-32 0 -54.5 22.5t-22.5 54.5zM242 431h154q119 0 119 82v2q0 37 -28.5 57.5t-80.5 20.5h-164v-162zM242 135
h195q119 0 119 83v2q0 83 -125 83h-189v-168z" />
    <glyph glyph-name="C" unicode="C" horiz-adv-x="776" 
d="M433 -12q-160 0 -266.5 108t-106.5 266v2q0 158 107 267t272 109q146 0 245 -75q30 -23 30 -61q0 -31 -22 -53t-54 -22q-22 0 -46 15q-72 55 -154 55q-93 0 -155 -68t-62 -165v-2q0 -98 61.5 -166.5t155.5 -68.5q89 0 163 60q20 17 46 17q29 0 50.5 -21t21.5 -50
q0 -33 -26 -55q-105 -92 -260 -92z" />
    <glyph glyph-name="D" unicode="D" horiz-adv-x="821" 
d="M93 77v574q0 32 22.5 54.5t54.5 22.5h204q170 0 278.5 -103.5t108.5 -258.5v-2q0 -156 -108.5 -260t-278.5 -104h-204q-32 0 -54.5 22.5t-22.5 54.5zM246 139h128q101 0 163.5 62t62.5 161v2q0 99 -62.5 162t-163.5 63h-128v-450z" />
    <glyph glyph-name="E" unicode="E" horiz-adv-x="705" 
d="M170 0q-32 0 -54.5 22.5t-22.5 54.5v574q0 32 22.5 54.5t54.5 22.5h407q29 0 49 -20t20 -49q0 -28 -20 -48t-49 -20h-332v-156h285q28 0 48.5 -20.5t20.5 -48.5t-20 -48t-49 -20h-285v-161h337q28 0 48.5 -20.5t20.5 -48.5t-20 -48t-49 -20h-412z" />
    <glyph glyph-name="F" unicode="F" horiz-adv-x="690" 
d="M93 71v580q0 32 22.5 54.5t54.5 22.5h411q29 0 49.5 -20.5t20.5 -49.5t-20.5 -49.5t-49.5 -20.5h-335v-163h288q29 0 49.5 -20.5t20.5 -49.5t-20.5 -49.5t-49.5 -20.5h-288v-214q0 -32 -22 -54.5t-54 -22.5t-54.5 22.5t-22.5 54.5z" />
    <glyph glyph-name="G" unicode="G" horiz-adv-x="823" 
d="M442 -12q-169 0 -275.5 105.5t-106.5 268.5v2q0 157 108.5 266.5t272.5 109.5q148 0 248 -71q32 -23 32 -62q0 -31 -22.5 -53.5t-53.5 -22.5q-25 0 -47 16q-71 52 -162 52q-90 0 -152.5 -68.5t-62.5 -164.5v-2q0 -103 63.5 -170t162.5 -67q92 0 156 46v111h-116
q-27 0 -47 19.5t-20 46.5q0 28 20 47.5t47 19.5h188q32 0 54.5 -22.5t22.5 -54.5v-181q0 -64 -54 -97q-117 -74 -256 -74z" />
    <glyph glyph-name="H" unicode="H" horiz-adv-x="798" 
d="M93 71v586q0 32 22.5 54.5t54.5 22.5t54 -22.5t22 -54.5v-220h306v220q0 32 22.5 54.5t54.5 22.5t54.5 -22.5t22.5 -54.5v-586q0 -32 -22.5 -54.5t-54.5 -22.5t-54.5 22.5t-22.5 54.5v224h-306v-224q0 -32 -22 -54.5t-54 -22.5t-54.5 22.5t-22.5 54.5z" />
    <glyph glyph-name="I" unicode="I" horiz-adv-x="354" 
d="M100 71v586q0 32 22.5 54.5t54.5 22.5t54.5 -22.5t22.5 -54.5v-586q0 -32 -22.5 -54.5t-54.5 -22.5t-54.5 22.5t-22.5 54.5z" />
    <glyph glyph-name="J" unicode="J" horiz-adv-x="594" 
d="M257 -10q-113 0 -193 66q-29 22 -29 59q0 31 21 52.5t52 21.5q24 0 46 -16q50 -41 101 -41q104 0 104 125v400q0 32 22.5 54.5t54.5 22.5t54 -22.5t22 -54.5v-406q0 -126 -68 -194q-66 -67 -187 -67z" />
    <glyph glyph-name="K" unicode="K" horiz-adv-x="749" 
d="M93 71v586q0 32 22.5 54.5t54.5 22.5t54 -22.5t22 -54.5v-257l306 304q28 30 64 30q31 0 51 -21t20 -50q0 -32 -28 -58l-209 -196l228 -286q21 -26 21 -54q0 -32 -22 -53.5t-56 -21.5q-36 0 -65 37l-213 278l-97 -92v-146q0 -32 -22 -54.5t-54 -22.5t-54.5 22.5
t-22.5 54.5z" />
    <glyph glyph-name="L" unicode="L" horiz-adv-x="652" 
d="M93 77v580q0 32 22.5 54.5t54.5 22.5t54 -22.5t22 -54.5v-517h303q29 0 49.5 -20.5t20.5 -49.5t-20.5 -49.5t-49.5 -20.5h-379q-32 0 -54.5 22.5t-22.5 54.5z" />
    <glyph glyph-name="M" unicode="M" horiz-adv-x="911" 
d="M93 69v586q0 32 22.5 54.5t54.5 22.5h16q46 0 70 -40l199 -321l200 322q24 39 69 39h17q32 0 54.5 -22.5t22.5 -54.5v-584q0 -32 -22.5 -54.5t-54.5 -22.5q-31 0 -53.5 22.5t-22.5 54.5v378l-148 -227q-26 -39 -64 -39t-64 39l-146 224v-377q0 -31 -22 -53t-54 -22
q-31 0 -52.5 22t-21.5 53z" />
    <glyph glyph-name="N" unicode="N" horiz-adv-x="830" 
d="M93 70v585q0 32 22.5 54.5t54.5 22.5h16q46 0 79 -45l320 -418v389q0 32 22.5 54t53.5 22t53.5 -22t22.5 -54v-585q0 -32 -22.5 -54.5t-54.5 -22.5h-5q-45 0 -80 45l-331 433v-404q0 -32 -22 -54t-54 -22q-31 0 -53 22.5t-22 53.5z" />
    <glyph glyph-name="O" unicode="O" horiz-adv-x="892" 
d="M445 -12q-166 0 -275.5 108.5t-109.5 265.5v2q0 157 110.5 266.5t276.5 109.5t275.5 -108.5t109.5 -265.5v-2q0 -157 -110.5 -266.5t-276.5 -109.5zM447 129q97 0 160.5 67.5t63.5 165.5v2q0 98 -64.5 166.5t-161.5 68.5t-160.5 -67.5t-63.5 -165.5v-2q0 -98 64.5 -166.5
t161.5 -68.5z" />
    <glyph glyph-name="P" unicode="P" horiz-adv-x="703" 
d="M93 71v580q0 32 22.5 54.5t54.5 22.5h218q128 0 203 -69t75 -181v-2q0 -121 -83 -187.5t-210 -66.5h-127v-151q0 -32 -22 -54.5t-54 -22.5t-54.5 22.5t-22.5 54.5zM246 359h132q61 0 97 32t36 82v2q0 55 -36.5 84.5t-99.5 29.5h-129v-230z" />
    <glyph glyph-name="Q" unicode="Q" horiz-adv-x="892" 
d="M447 129q58 0 102 23l-79 67q-28 24 -28 58q0 30 21 51.5t51 21.5q27 0 51 -21l84 -75q22 50 22 108v2q0 98 -64.5 166.5t-161.5 68.5t-160.5 -67.5t-63.5 -165.5v-2q0 -98 64.5 -166.5t161.5 -68.5zM704 13l-42 39q-98 -64 -217 -64q-166 0 -275.5 108.5t-109.5 265.5v2
q0 157 110.5 266.5t276.5 109.5t275.5 -108.5t109.5 -265.5v-2q0 -116 -66 -212l34 -29q28 -25 28 -58q0 -30 -21 -51.5t-51 -21.5q-29 0 -52 21z" />
    <glyph glyph-name="R" unicode="R" horiz-adv-x="760" 
d="M617 -6q-45 0 -76 40l-160 203h-135v-166q0 -32 -22 -54.5t-54 -22.5t-54.5 22.5t-22.5 54.5v580q0 32 22.5 54.5t54.5 22.5h254q138 0 212 -74q61 -61 61 -164v-2q0 -163 -149 -221l117 -143q25 -32 25 -59q0 -31 -22 -51t-51 -20zM246 373h168q59 0 93.5 29t34.5 78v2
q0 52 -34.5 79.5t-96.5 27.5h-165v-216z" />
    <glyph glyph-name="S" unicode="S" horiz-adv-x="674" 
d="M351 -10q-153 0 -274 88q-29 20 -29 58q0 30 21 50.5t51 20.5q24 0 44 -14q91 -68 190 -68q51 0 80.5 20t29.5 54v2q0 33 -30 53t-120 43q-126 31 -184 77t-58 145v2q0 97 71 157t183 60q129 0 230 -65q34 -20 34 -61q0 -30 -21 -50.5t-51 -20.5q-20 0 -39 11
q-82 51 -156 51q-46 0 -72 -19.5t-26 -48.5v-2q0 -37 31 -56t129 -44q119 -30 175.5 -79t56.5 -138v-2q0 -105 -73 -164.5t-193 -59.5z" />
    <glyph glyph-name="T" unicode="T" horiz-adv-x="682" 
d="M264 71v515h-159q-29 0 -50 21t-21 50t21 50t50 21h472q29 0 49.5 -21t20.5 -50t-20.5 -50t-49.5 -21h-159v-515q0 -32 -22.5 -54.5t-54.5 -22.5t-54.5 22.5t-22.5 54.5z" />
    <glyph glyph-name="U" unicode="U" horiz-adv-x="794" 
d="M395 -11q-148 0 -231 82.5t-83 239.5v346q0 32 22.5 54.5t54.5 22.5t54.5 -22.5t22.5 -54.5v-341q0 -90 42.5 -138t119.5 -48t120 46t43 134v347q0 32 22 54.5t54 22.5t54.5 -22.5t22.5 -54.5v-340q0 -162 -84 -245t-234 -83z" />
    <glyph glyph-name="V" unicode="V" horiz-adv-x="765" 
d="M377 -11q-61 0 -87 61l-239 571q-9 22 -9 37q0 32 22.5 54t54.5 22q57 0 78 -54l187 -482l190 487q8 20 28 34.5t46 14.5q32 0 54 -21.5t22 -52.5q0 -16 -8 -34l-242 -576q-26 -61 -87 -61h-10z" />
    <glyph glyph-name="W" unicode="W" horiz-adv-x="1150" 
d="M253 52l-206 578q-6 18 -6 29q0 32 23 53.5t56 21.5q27 0 47 -15.5t28 -39.5l149 -457l149 453q20 61 78 61h12q58 0 78 -61l149 -453l149 457q20 55 74 55q32 0 54 -21.5t22 -52.5q0 -12 -6 -30l-206 -578q-23 -63 -80 -63h-16q-57 0 -79 63l-147 428l-147 -428
q-22 -63 -79 -63h-16q-57 0 -80 63z" />
    <glyph glyph-name="X" unicode="X" horiz-adv-x="747" 
d="M54 65q0 29 22 59l201 246l-189 231q-23 29 -23 57q0 32 21.5 54t54.5 22q42 0 71 -38l164 -218l162 214q33 42 75 42q27 0 48.5 -20t21.5 -51q0 -30 -23 -59l-189 -232l200 -245q23 -29 23 -57q0 -32 -21.5 -54t-54.5 -22q-42 0 -71 38l-175 230l-174 -226
q-33 -42 -75 -42q-27 0 -48 19.5t-21 51.5z" />
    <glyph glyph-name="Y" unicode="Y" horiz-adv-x="725" 
d="M286 71v210l-238 324q-19 26 -19 55q0 31 22.5 52.5t54.5 21.5q44 0 76 -47l182 -262l185 264q31 46 73 46q34 0 54.5 -21.5t20.5 -53.5q0 -26 -20 -54l-237 -322v-213q0 -32 -22.5 -54.5t-54.5 -22.5t-54.5 22.5t-22.5 54.5z" />
    <glyph glyph-name="Z" unicode="Z" horiz-adv-x="743" 
d="M132 0q-28 0 -48 20t-20 48v3q0 39 28 72l384 450h-332q-27 0 -47 19.5t-20 47.5t20 48t47 20h468q28 0 48 -20t20 -48v-3q0 -38 -28 -72l-384 -450h344q28 0 48 -20t20 -48t-20 -47.5t-48 -19.5h-480z" />
    <glyph glyph-name="bracketleft" unicode="[" horiz-adv-x="489" 
d="M91 -61v715q0 31 21.5 52.5t52.5 21.5h205q25 0 42.5 -17.5t17.5 -42.5t-17.5 -42t-42.5 -17h-133v-625h133q25 0 42.5 -17t17.5 -42t-17.5 -42.5t-42.5 -17.5h-205q-31 0 -52.5 21.5t-21.5 52.5z" />
    <glyph glyph-name="backslash" unicode="\" horiz-adv-x="557" 
d="M551 -82q0 -23 -17.5 -40t-41.5 -17q-36 0 -53 35l-411 854q-7 16 -7 29q0 23 17.5 40t41.5 17q36 0 53 -35l411 -854q7 -16 7 -29z" />
    <glyph glyph-name="bracketright" unicode="]" horiz-adv-x="489" 
d="M398 654v-715q0 -31 -21.5 -52.5t-52.5 -21.5h-205q-25 0 -42.5 17.5t-17.5 42.5t17.5 42t42.5 17h134v625h-134q-25 0 -42.5 17t-17.5 42t17.5 42.5t42.5 17.5h205q31 0 52.5 -21.5t21.5 -52.5z" />
    <glyph glyph-name="asciicircum" unicode="^" 
d="M263 638l-57 -75q-26 -33 -44 -44t-45 -11q-15 0 -24.5 6.5t-9.5 17.5q0 16 14 36l86 119q31 43 76 43h9q45 0 76 -43l86 -119q14 -20 14 -36q0 -11 -9.5 -17.5t-24.5 -6.5q-28 0 -46 11t-44 44z" />
    <glyph glyph-name="underscore" unicode="_" horiz-adv-x="632" 
d="M2 -166q-24 0 -41 17t-17 41t17 41t41 17h628q24 0 41 -17t17 -41t-17 -41t-41 -17h-628z" />
    <glyph glyph-name="grave" unicode="`" 
d="M311 613q-52 0 -87 33l-65 61q-21 18 -21 37q0 17 28.5 31.5t57.5 14.5q35 0 58 -34l57 -90q10 -16 10 -27q0 -12 -10.5 -19t-27.5 -7z" />
    <glyph glyph-name="a" unicode="a" horiz-adv-x="623" 
d="M280 95q57 0 92.5 28.5t35.5 73.5v30q-49 21 -106 21q-53 0 -83 -21t-30 -59v-2q0 -33 25 -52t66 -19zM235 -11q-82 0 -137.5 45.5t-55.5 125.5v2q0 88 61 132.5t164 44.5q71 0 139 -22v10q0 105 -123 105q-59 0 -112 -17q-12 -4 -22 -4q-26 0 -44.5 18t-18.5 44
q0 45 41 59q79 30 178 30q123 0 187 -62q60 -60 60 -176v-257q0 -31 -21.5 -52t-52.5 -21q-32 0 -52.5 19t-20.5 44v5q-65 -73 -170 -73z" />
    <glyph glyph-name="b" unicode="b" horiz-adv-x="709" 
d="M76 70v619q0 31 22 53.5t54 22.5t54 -22.5t22 -53.5v-216q68 93 176 93q104 0 179 -77.5t75 -209.5v-2q0 -133 -74.5 -210.5t-179.5 -77.5t-176 86v-6q0 -31 -22.5 -53t-53.5 -22q-32 0 -54 22t-22 54zM366 119q59 0 99.5 43.5t40.5 114.5v2q0 70 -41 114t-99 44t-99 -44
t-41 -114v-2q0 -70 41 -114t99 -44z" />
    <glyph glyph-name="c" unicode="c" horiz-adv-x="602" 
d="M338 -12q-124 0 -206.5 83.5t-82.5 203.5v2q0 120 82.5 204.5t208.5 84.5q116 0 190 -63q24 -17 24 -52q0 -28 -20 -48t-49 -20q-25 0 -44 15q-47 37 -102 37q-61 0 -100.5 -45.5t-39.5 -110.5v-2q0 -68 40.5 -113.5t105.5 -45.5q58 0 107 41q19 14 42 14q26 0 45 -19
t19 -46q0 -28 -22 -48q-79 -72 -198 -72z" />
    <glyph glyph-name="d" unicode="d" horiz-adv-x="709" 
d="M343 437q-59 0 -99.5 -43.5t-40.5 -114.5v-2q0 -70 41 -114t99 -44t99 44t41 114v2q0 70 -41 114t-99 44zM633 689v-619q0 -32 -22.5 -54t-53.5 -22t-53.5 22t-22.5 54v12q-68 -93 -176 -93q-104 0 -179 77.5t-75 210.5v2q0 133 74.5 210t179.5 77q106 0 176 -85v208
q0 31 22.5 53.5t53.5 22.5t53.5 -22.5t22.5 -53.5z" />
    <glyph glyph-name="e" unicode="e" horiz-adv-x="644" 
d="M532 56q-79 -68 -194 -68q-125 0 -207 80t-82 207v2q0 121 77.5 205t196.5 84q66 0 119 -25t84 -65.5t47.5 -86t16.5 -91.5q0 -32 -20 -52.5t-51 -20.5h-319q11 -56 47.5 -85.5t92.5 -29.5q65 0 116 39q16 12 37 12q25 0 42 -17t17 -43q0 -27 -20 -45zM198 320h247
q-8 57 -39.5 90.5t-82.5 33.5q-50 0 -83 -33.5t-42 -90.5z" />
    <glyph glyph-name="f" unicode="f" horiz-adv-x="404" 
d="M104 70v356h-10q-26 0 -44.5 18t-18.5 44t18.5 44.5t44.5 18.5h10v36q0 90 44 136q43 43 127 43q41 0 65 -4q21 -3 36.5 -20t15.5 -41q0 -26 -18.5 -44.5t-44.5 -18.5h-16q-60 0 -60 -64v-24h75q26 0 44.5 -18t18.5 -44t-18.5 -44t-44.5 -18h-73v-356q0 -32 -22.5 -54
t-53.5 -22t-53 22t-22 54z" />
    <glyph glyph-name="g" unicode="g" horiz-adv-x="709" 
d="M342 171q60 0 100.5 37.5t40.5 96.5v2q0 58 -40.5 95.5t-100.5 37.5t-99.5 -37t-39.5 -96v-2q0 -59 39.5 -96.5t99.5 -37.5zM325 -168q-108 0 -206 40q-42 17 -42 59q0 25 18.5 43.5t43.5 18.5q13 0 25 -5q75 -35 157 -35q162 0 162 155v30q-38 -46 -81 -69.5t-103 -23.5
q-103 0 -175.5 70.5t-72.5 189.5v2q0 118 73 188.5t175 70.5q106 0 182 -85v6q0 31 22.5 53t53.5 22t53.5 -22t22.5 -54v-363q0 -146 -71 -217q-74 -74 -237 -74z" />
    <glyph glyph-name="h" unicode="h" horiz-adv-x="655" 
d="M76 70v619q0 31 22 53.5t54 22.5t54 -22.5t22 -53.5v-213q69 90 165 90q90 0 140.5 -55.5t50.5 -151.5v-289q0 -32 -22 -54t-54 -22t-54 22t-22 54v241q0 57 -26 87.5t-74 30.5t-76 -30.5t-28 -87.5v-241q0 -32 -22 -54t-54 -22t-54 22t-22 54z" />
    <glyph glyph-name="i" unicode="i" horiz-adv-x="319" 
d="M74 689v3q0 32 24 51.5t61 19.5t61 -19.5t24 -51.5v-3q0 -32 -24 -52t-61 -20t-61 20t-24 52zM84 70v416q0 32 22 54t53 22t53.5 -22t22.5 -54v-416q0 -32 -22.5 -54t-53.5 -22t-53 22t-22 54z" />
    <glyph glyph-name="j" unicode="j" horiz-adv-x="319" 
d="M74 689v3q0 32 24 51.5t61 19.5t61 -19.5t24 -51.5v-3q0 -32 -24 -52t-61 -20t-61 20t-24 52zM70 -170q-3 0 -3 1q-38 0 -61.5 16t-23.5 46q0 27 17 44t42 17h1l2 -1q40 0 40 54v479q0 32 22 54t53 22t53.5 -22t22.5 -54v-480q0 -88 -43.5 -132t-121.5 -44z" />
    <glyph glyph-name="k" unicode="k" horiz-adv-x="618" 
d="M76 70v619q0 31 22 53.5t54 22.5t54 -22.5t22 -53.5v-357l205 196q36 34 67 34q30 0 48.5 -20.5t18.5 -47.5q0 -33 -35 -66l-129 -112l152 -204q19 -26 19 -49q0 -30 -21 -49.5t-50 -19.5q-40 0 -65 35l-143 194l-67 -62v-91q0 -32 -22 -54t-54 -22t-54 22t-22 54z" />
    <glyph glyph-name="l" unicode="l" horiz-adv-x="319" 
d="M84 70v619q0 32 22 54t53 22t53.5 -22.5t22.5 -53.5v-619q0 -32 -22.5 -54t-53.5 -22t-53 22t-22 54z" />
    <glyph glyph-name="m" unicode="m" horiz-adv-x="996" 
d="M76 70v416q0 32 22 54t54 22t54 -22t22 -54v-10q69 90 165 90q112 0 158 -90q74 90 184 90q90 0 139.5 -53t49.5 -153v-290q0 -32 -22 -54t-54 -22t-54 22t-22 54v241q0 118 -96 118q-47 0 -73.5 -30.5t-26.5 -87.5v-241q0 -32 -22 -54t-54 -22t-54 22t-22 54v241
q0 57 -25 87.5t-71 30.5t-73 -31t-27 -87v-241q0 -32 -22 -54t-54 -22t-54 22t-22 54z" />
    <glyph glyph-name="n" unicode="n" horiz-adv-x="655" 
d="M76 70v416q0 32 22 54t54 22t54 -22t22 -54v-10q69 90 165 90q90 0 140.5 -55.5t50.5 -151.5v-289q0 -32 -22 -54t-54 -22t-54 22t-22 54v241q0 57 -26 87.5t-74 30.5t-76 -30.5t-28 -87.5v-241q0 -32 -22 -54t-54 -22t-54 22t-22 54z" />
    <glyph glyph-name="o" unicode="o" horiz-adv-x="697" 
d="M347 -12q-127 0 -212.5 83t-85.5 204v2q0 120 86.5 204.5t214.5 84.5q127 0 212.5 -83.5t85.5 -203.5v-2q0 -121 -86 -205t-215 -84zM350 118q67 0 107.5 45.5t40.5 111.5v2q0 65 -42.5 111.5t-108.5 46.5q-67 0 -107.5 -45t-40.5 -111v-2q0 -65 42.5 -112t108.5 -47z
" />
    <glyph glyph-name="p" unicode="p" horiz-adv-x="709" 
d="M366 119q59 0 99.5 43.5t40.5 114.5v2q0 70 -41 114t-99 44t-99 -44t-41 -114v-2q0 -70 41 -114t99 -44zM76 -97v583q0 32 22 54t54 22t54 -22t22 -54v-13q68 93 176 93q104 0 179 -77.5t75 -209.5v-2q0 -133 -74.5 -210.5t-179.5 -77.5t-176 86v-172q0 -31 -22 -53.5
t-54 -22.5t-54 22.5t-22 53.5z" />
    <glyph glyph-name="q" unicode="q" horiz-adv-x="709" 
d="M633 486v-583q0 -31 -22.5 -53.5t-53.5 -22.5t-53.5 22.5t-22.5 53.5v179q-68 -93 -176 -93q-104 0 -179 77.5t-75 210.5v2q0 133 74.5 210t179.5 77q106 0 176 -85v6q0 31 22.5 53t53.5 22t53.5 -22t22.5 -54zM343 437q-59 0 -99.5 -43.5t-40.5 -114.5v-2q0 -70 41 -114
t99 -44t99 44t41 114v2q0 70 -41 114t-99 44z" />
    <glyph glyph-name="r" unicode="r" horiz-adv-x="442" 
d="M76 70v416q0 32 22 54t54 22t54 -22t22 -54v-31q20 46 49.5 76.5t63.5 30.5q35 0 54.5 -20.5t19.5 -53.5q0 -29 -16 -47t-41 -24q-130 -29 -130 -197v-150q0 -32 -22 -54t-54 -22t-54 22t-22 54z" />
    <glyph glyph-name="s" unicode="s" horiz-adv-x="530" 
d="M270 -10q-112 0 -209 63q-29 18 -29 52q0 26 17.5 43.5t42.5 17.5q16 0 30 -9q80 -50 152 -50q71 0 71 45v2q0 6 -1.5 11t-6 9.5l-8.5 8.5t-12.5 7.5t-14 6.5t-17 6.5t-17.5 5.5t-19.5 6t-20.5 6q-35 10 -60.5 21t-52.5 30t-41 48t-14 67v2q0 81 58 128t145 47
q86 0 172 -43q36 -18 36 -57q0 -25 -17.5 -42.5t-43.5 -17.5q-14 0 -28 7q-74 36 -123 36q-29 0 -45.5 -11.5t-16.5 -30.5v-2q0 -20 24 -33t74 -30l18 -6q36 -11 60.5 -22.5t52 -30t42 -47t14.5 -64.5v-2q0 -88 -58.5 -133t-153.5 -45z" />
    <glyph glyph-name="t" unicode="t" horiz-adv-x="439" 
d="M264 -9q-78 0 -120 37.5t-42 128.5v269h-8q-27 0 -46 19t-19 46t19 46t46 19h8v74q0 32 22 54t54 22t54 -22t22 -54v-74h76q26 0 45.5 -19t19.5 -46t-19.5 -46t-45.5 -19h-76v-244q0 -57 54 -57q4 0 12 0.5t10 0.5q25 0 44 -18.5t19 -44.5q0 -20 -11.5 -35.5t-28.5 -21.5
q-38 -15 -89 -15z" />
    <glyph glyph-name="u" unicode="u" horiz-adv-x="655" 
d="M579 486v-416q0 -32 -22.5 -54t-53.5 -22t-53.5 22t-22.5 54v10q-68 -91 -165 -91q-89 0 -139.5 55.5t-50.5 152.5v289q0 32 22 54t54 22q31 0 53 -22.5t22 -53.5v-241q0 -57 26 -87.5t74 -30.5t76 30.5t28 87.5v241q0 32 22.5 54t53.5 22t53.5 -22t22.5 -54z" />
    <glyph glyph-name="v" unicode="v" horiz-adv-x="619" 
d="M399 55q-29 -66 -85 -66h-8q-58 0 -86 66l-173 399q-8 20 -8 37q0 28 22 49.5t52 21.5q53 0 74 -54l124 -332l126 334q20 52 71 52q30 0 51.5 -21t21.5 -51q0 -17 -8 -36z" />
    <glyph glyph-name="w" unicode="w" horiz-adv-x="892" 
d="M265 -10q-60 0 -83 68l-139 398q-7 21 -7 37q0 28 20.5 48.5t52.5 20.5q55 0 74 -59l89 -293l92 292q19 61 77 61h9q59 0 78 -61l92 -293l92 295q18 58 73 58q31 0 51 -20.5t20 -49.5q0 -14 -5 -31l-143 -403q-23 -68 -84 -68h-5q-60 0 -81 65l-93 290l-93 -290
q-21 -65 -82 -65h-5z" />
    <glyph glyph-name="x" unicode="x" horiz-adv-x="605" 
d="M47 58q0 28 21 52l145 172l-133 154q-24 30 -24 58q0 31 20.5 50.5t49.5 19.5q39 0 70 -39l107 -142l109 142q32 39 66 39q30 0 50.5 -19t20.5 -47q0 -26 -21 -52l-138 -162l143 -164q24 -30 24 -58q0 -31 -20.5 -50.5t-49.5 -19.5q-39 0 -70 39l-117 152l-116 -152
q-32 -39 -66 -39q-30 0 -50.5 19t-20.5 47z" />
    <glyph glyph-name="y" unicode="y" horiz-adv-x="618" 
d="M189 -170q-44 0 -87 15q-48 17 -48 63q0 27 18 44.5t42 17.5q14 0 26 -4q24 -7 35 -7q23 0 36 8t25 31l5 12l-193 444q-8 20 -8 35q0 32 21 52.5t53 20.5q52 0 73 -57l127 -333l120 332q22 58 73 58q30 0 51 -20t21 -50q0 -20 -7 -36l-196 -470q-36 -86 -77 -121
t-110 -35z" />
    <glyph glyph-name="z" unicode="z" horiz-adv-x="593" 
d="M125 0q-32 0 -53 17t-21 44v3q0 37 34 74l265 295h-228q-26 0 -44 18t-18 43q0 26 18 44t44 18h349q32 0 53 -17t21 -44v-3q0 -37 -34 -74l-266 -295h239q26 0 44 -18.5t18 -43.5t-18 -43t-44 -18h-359z" />
    <glyph glyph-name="braceleft" unicode="{" horiz-adv-x="517" 
d="M397 -139q-113 26 -157.5 73t-44.5 126q0 7 1.5 35t1.5 37q0 54 -21 79t-66 28q-29 2 -46 18t-17 41q0 26 17 42t46 18q45 3 66 28t21 79q0 9 -1.5 37t-1.5 35q0 79 44.5 126t157.5 73q29 7 49.5 -8.5t20.5 -43.5q0 -39 -36 -51q-60 -21 -78.5 -46t-18.5 -72
q0 -10 1.5 -38t1.5 -39q0 -104 -109 -140q109 -34 109 -140q0 -10 -1.5 -38.5t-1.5 -38.5q0 -47 18.5 -71.5t78.5 -45.5q36 -12 36 -51q0 -28 -20.5 -43.5t-49.5 -8.5z" />
    <glyph glyph-name="bar" unicode="|" horiz-adv-x="368" 
d="M124 -79v855q0 25 17.5 42.5t42.5 17.5t42.5 -17.5t17.5 -42.5v-855q0 -25 -17.5 -42.5t-42.5 -17.5t-42.5 17.5t-17.5 42.5z" />
    <glyph glyph-name="braceright" unicode="}" horiz-adv-x="517" 
d="M120 736q113 -26 157.5 -73t44.5 -126q0 -7 -1.5 -35t-1.5 -37q0 -54 21 -79t66 -28q29 -2 45.5 -18t16.5 -42q0 -25 -16.5 -41t-45.5 -18q-45 -3 -66 -28t-21 -79q0 -9 1.5 -37t1.5 -35q0 -79 -44.5 -126t-157.5 -73q-29 -7 -49.5 8.5t-20.5 43.5q0 39 36 51
q60 21 78.5 45.5t18.5 71.5q0 10 -1.5 38.5t-1.5 38.5q0 106 109 140q-109 36 -109 140q0 11 1.5 39t1.5 38q0 47 -18.5 72t-78.5 46q-36 12 -36 51q0 28 20.5 43.5t49.5 8.5z" />
    <glyph glyph-name="asciitilde" unicode="~" horiz-adv-x="535" 
d="M148 254q-14 -23 -39 -23q-18 0 -31.5 12.5t-13.5 28.5q0 14 5 27q19 50 45 75.5t69 25.5q35 0 87.5 -20.5t67.5 -20.5q30 0 49 31q14 23 39 23q18 0 31.5 -12.5t13.5 -28.5q0 -14 -5 -27q-18 -49 -44 -75t-70 -26q-35 0 -87.5 20.5t-67.5 20.5q-31 0 -49 -31z" />
    <glyph glyph-name="uni00A0" unicode="&#xa0;" horiz-adv-x="320" 
 />
    <glyph glyph-name="exclamdown" unicode="&#xa1;" horiz-adv-x="340" 
d="M257 645q0 -36 -25 -60.5t-62 -24.5t-62 24.5t-25 60.5v4q0 36 25 60.5t62 24.5t62 -24.5t25 -60.5v-4zM216 446l43 -398q2 -22 -9 -36.5t-31 -14.5h-97q-20 0 -31.5 14.5t-9.5 36.5l43 398q2 20 14.5 32t31.5 12t31.5 -12t14.5 -32z" />
    <glyph glyph-name="cent" unicode="&#xa2;" horiz-adv-x="612" 
d="M201 369q0 -45 19 -82.5t52 -56.5l58 298q-56 -4 -92.5 -49t-36.5 -108v-2zM333 30q-9 -42 -52 -42q-24 0 -39 18.5t-10 43.5l9 47q-83 29 -135 103.5t-52 166.5v2q0 121 82.5 205.5t207.5 84.5h7l7 39q9 42 52 42q24 0 39 -18.5t10 -43.5l-7 -36q48 -16 87 -49
q22 -20 22 -50q0 -28 -19.5 -47.5t-47.5 -19.5q-24 0 -42 14q-17 14 -31 20l-59 -298q48 4 95 39q16 14 40 14q25 0 43 -18.5t18 -44.5q0 -28 -20 -46q-81 -76 -195 -76z" />
    <glyph glyph-name="sterling" unicode="&#xa3;" horiz-adv-x="678" 
d="M61 56q0 42 42 56l44 14v154h-22q-26 0 -45 18.5t-19 44.5t19 45t45 19h22v87q0 114 62 178q66 66 183 66q123 0 200 -80q24 -24 24 -55t-22 -52.5t-54 -21.5q-34 0 -55 23q-42 44 -91 44q-39 0 -63 -25q-29 -27 -29 -81v-83h184q26 0 45 -19t19 -45t-19 -44.5t-45 -18.5
h-184v-147h260q28 0 47.5 -19.5t19.5 -47.5t-19.5 -47t-47.5 -19h-440q-27 0 -44 16t-17 40z" />
    <glyph glyph-name="yen" unicode="&#xa5;" horiz-adv-x="721" 
d="M435 273v-67h145q22 0 38 -16t16 -38t-16 -38t-38 -16h-145v-30q0 -31 -21.5 -52.5t-52.5 -21.5t-52.5 21.5t-21.5 52.5v30h-145q-22 0 -38 16t-16 38t16 38t38 16h145v67h-145q-22 0 -38 15.5t-16 38.5t16 38.5t38 15.5h103l-171 228q-19 26 -19 52q0 29 21.5 51
t54.5 22q44 0 72 -43l159 -236l160 234q31 45 71 45q30 0 51.5 -19.5t21.5 -52.5q0 -27 -19 -53l-172 -228h105q22 0 38 -15.5t16 -38.5t-16 -38.5t-38 -15.5h-145z" />
    <glyph glyph-name="section" unicode="&#xa7;" horiz-adv-x="665" 
d="M408 298q28 0 45 13t17 35v2q0 21 -25 35t-83 28q-73 19 -105 19q-27 0 -44.5 -13t-17.5 -35v-2q0 -21 25.5 -35t83.5 -28q72 -19 104 -19zM342 -10q-126 0 -214 71q-22 16 -22 46q0 25 17.5 42.5t42.5 17.5q23 0 36 -13q67 -53 137 -53q34 0 52.5 11t18.5 29v2
q0 19 -25 32.5t-94 28.5q-124 27 -176.5 62t-52.5 92v2q0 88 96 121q-46 35 -46 96v2q0 74 56 116.5t155 42.5q127 0 215 -71q21 -17 21 -46q0 -25 -17.5 -42.5t-42.5 -17.5q-23 0 -36 13q-67 53 -136 53q-34 0 -53 -11t-19 -29v-2q0 -19 23.5 -32t95.5 -29
q125 -27 177 -61.5t52 -92.5v-2q0 -88 -96 -121q47 -34 47 -96v-2q0 -73 -56.5 -116t-155.5 -43z" />
    <glyph glyph-name="dieresis" unicode="&#xa8;" 
d="M154 763q34 0 57 -21t23 -53v-3q0 -32 -23 -52.5t-57 -20.5q-33 0 -56 20.5t-23 52.5v3q0 32 23 53t56 21zM374 763q33 0 56 -21t23 -53v-3q0 -32 -23 -52.5t-56 -20.5q-34 0 -57 20.5t-23 52.5v3q0 32 23 53t57 21z" />
    <glyph glyph-name="copyright" unicode="&#xa9;" horiz-adv-x="871" 
d="M435 -12q-158 0 -267 109.5t-109 264.5v2q0 155 110.5 265.5t267.5 110.5t266 -109.5t109 -264.5v-2q0 -155 -110 -265.5t-267 -110.5zM435 28q141 0 237.5 98.5t96.5 237.5v2q0 140 -95.5 237t-236.5 97q-142 0 -238.5 -98.5t-96.5 -237.5v-2q0 -140 95.5 -237
t237.5 -97zM440 163q-87 0 -145.5 59t-58.5 145v2q0 86 58.5 146.5t148.5 60.5q80 0 135 -43q19 -14 19 -36q0 -18 -12.5 -30.5t-29.5 -12.5q-15 0 -29 11q-39 30 -83 30q-50 0 -83 -36t-33 -89v-2q0 -51 32.5 -87.5t83.5 -36.5q49 0 89 35q14 10 27 10q17 0 29 -12.5
t12 -29.5q0 -18 -13 -29q-63 -55 -147 -55z" />
    <glyph glyph-name="ordfeminine" unicode="&#xaa;" horiz-adv-x="414" 
d="M189 475q31 0 51 15.5t20 39.5v17q-31 11 -59 11q-60 0 -60 -43v-2q0 -17 13 -27.5t35 -10.5zM164 416q-45 0 -75 24.5t-30 68.5v2q0 49 33.5 73.5t90.5 24.5q38 0 76 -12v5q0 57 -68 57q-31 0 -55 -8q-9 -3 -17 -3q-14 0 -24 10.5t-10 24.5q0 24 22 32q39 16 96 16
q69 0 103 -34q33 -33 33 -97v-143q0 -16 -12 -28t-29 -12q-16 0 -28 10.5t-12 25.5v3q-34 -40 -94 -40zM83 289q-14 0 -23.5 10t-9.5 24q0 13 10 23t23 10h233q14 0 23.5 -10t9.5 -23q0 -14 -9.5 -24t-23.5 -10h-233z" />
    <glyph glyph-name="guillemotleft" unicode="&#xab;" horiz-adv-x="671" 
d="M256 43q-32 0 -52 26l-130 167q-18 23 -18 42q0 20 18 41l126 163q23 30 57 30q25 0 42.5 -18.5t17.5 -44.5q0 -20 -17 -41l-102 -129l105 -133q15 -19 15 -40q0 -26 -18 -44.5t-44 -18.5zM535 43q-32 0 -52 26l-131 167q-17 24 -17 42q0 19 17 41l127 163q23 30 57 30
q25 0 42.5 -18.5t17.5 -44.5q0 -20 -17 -41l-103 -129l106 -133q15 -19 15 -40q0 -26 -18 -44.5t-44 -18.5z" />
    <glyph glyph-name="registered" unicode="&#xae;" horiz-adv-x="394" 
d="M197 374q-76 0 -128.5 53.5t-52.5 127.5v1q0 75 53 128.5t128 53.5q76 0 128.5 -53t52.5 -128v-1q0 -74 -53 -128t-128 -54zM197 394q67 0 113.5 47.5t46.5 114.5v1q0 67 -46 114.5t-114 47.5t-114 -48t-46 -115v-1q0 -67 46 -114t114 -47zM119 486v143q0 11 7.5 18.5
t18.5 7.5h64q37 0 58.5 -16.5t21.5 -48.5q0 -41 -36 -57l25 -29q7 -10 7 -19q0 -10 -7.5 -17.5t-18.5 -7.5q-13 0 -21 10l-41 52h-26v-36q0 -10 -7.5 -18t-18.5 -8t-18.5 8t-7.5 18zM171 563h35q30 0 30 24q0 23 -30 23h-35v-47z" />
    <glyph glyph-name="macron" unicode="&#xaf;" 
d="M402 625h-276q-22 0 -38 15.5t-16 37.5t16 37.5t38 15.5h276q22 0 38 -15.5t16 -37.5t-16 -37.5t-38 -15.5z" />
    <glyph glyph-name="degree" unicode="&#xb0;" horiz-adv-x="505" 
d="M253 385q-71 0 -125 52t-54 122v2q0 70 54 121.5t125 51.5t124.5 -51.5t53.5 -121.5v-2q0 -70 -53.5 -122t-124.5 -52zM253 462q41 0 68.5 28.5t27.5 68.5v2q0 40 -27.5 68.5t-68.5 28.5t-69 -28.5t-28 -68.5v-2q0 -40 28 -68.5t69 -28.5z" />
    <glyph glyph-name="plusminus" unicode="&#xb1;" horiz-adv-x="672" 
d="M268 270l1 124l-129 -1q-27 0 -46.5 19.5t-19.5 46.5t19.5 46.5t46.5 19.5l129 -1l-1 124q0 28 20 48t48 20t48 -20t20 -48l-1 -124l129 1q27 0 46.5 -19.5t19.5 -46.5t-19.5 -46.5t-46.5 -19.5l-129 1l1 -124q0 -28 -20 -48t-48 -20t-48 20t-20 48zM137 0
q-26 0 -44.5 18.5t-18.5 44.5t18.5 44.5t44.5 18.5h398q26 0 44.5 -18.5t18.5 -44.5t-18.5 -44.5t-44.5 -18.5h-398z" />
    <glyph glyph-name="acute" unicode="&#xb4;" 
d="M217 613q-17 0 -27.5 7t-10.5 19q0 11 10 27l57 90q23 34 58 34q29 0 57.5 -14.5t28.5 -31.5q0 -19 -21 -37l-65 -61q-35 -33 -87 -33z" />
    <glyph glyph-name="paragraph" unicode="&#xb6;" horiz-adv-x="615" 
d="M369 71v171h-24q-136 0 -219.5 62.5t-83.5 178.5v2q0 113 78.5 178t207.5 65h118q32 0 54.5 -22.5t22.5 -54.5v-580q0 -32 -22.5 -54.5t-54.5 -22.5t-54.5 22.5t-22.5 54.5z" />
    <glyph glyph-name="periodcentered" unicode="&#xb7;" horiz-adv-x="302" 
d="M64 323q0 36 25.5 61t61.5 25t61.5 -25t25.5 -61v-3q0 -36 -25.5 -60.5t-61.5 -24.5t-61.5 24.5t-25.5 60.5v3z" />
    <glyph glyph-name="cedilla" unicode="&#xb8;" 
d="M334 10l-61 -150q-15 -32 -45 -32q-23 0 -54.5 17t-31.5 35q0 13 9 27l71 103h112z" />
    <glyph glyph-name="ordmasculine" unicode="&#xba;" horiz-adv-x="414" 
d="M206 415q-68 0 -113.5 45.5t-45.5 111.5v2q0 66 46.5 112.5t114.5 46.5t113 -45.5t45 -111.5v-3q0 -66 -46 -112t-114 -46zM208 488q34 0 54.5 24.5t20.5 59.5v2q0 35 -21.5 60.5t-55.5 25.5t-55 -24.5t-21 -59.5v-3q0 -35 22 -60t56 -25zM84 289q-14 0 -23.5 10t-9.5 24
q0 13 9.5 23t23.5 10h245q14 0 24 -10t10 -23q0 -14 -10 -24t-24 -10h-245z" />
    <glyph glyph-name="guillemotright" unicode="&#xbb;" horiz-adv-x="671" 
d="M136 512q32 0 52 -26l130 -168q18 -21 18 -41q0 -19 -18 -42l-126 -162q-23 -30 -57 -30q-25 0 -42.5 18.5t-17.5 44.5q0 20 17 41l102 129l-105 133q-15 19 -15 40q0 26 18 44.5t44 18.5zM414 512q32 0 52 -26l131 -168q17 -22 17 -41q0 -18 -17 -42l-127 -162
q-23 -30 -57 -30q-25 0 -42.5 18.5t-17.5 44.5q0 20 17 41l103 129l-106 133q-15 19 -15 40q0 26 18 44.5t44 18.5z" />
    <glyph glyph-name="questiondown" unicode="&#xbf;" horiz-adv-x="573" 
d="M401 645q0 -36 -25 -60.5t-62 -24.5t-62 24.5t-25 60.5v4q0 36 25 60.5t62 24.5t62 -24.5t25 -60.5v-4zM306 490h8q21 0 36 -14t18 -35l11 -75q4 -24 -9.5 -40.5t-37.5 -19.5q-136 -16 -136 -95v-2q0 -37 27 -58t74 -21q67 0 124 45q21 16 46 16q29 0 49.5 -20.5
t20.5 -48.5q0 -32 -26 -54q-90 -77 -217 -77q-114 0 -182.5 56.5t-68.5 157.5v2q0 169 206 209l4 25q3 20 18 34.5t35 14.5z" />
    <glyph glyph-name="Agrave" unicode="&#xc0;" horiz-adv-x="806" 
d="M406 790q-52 0 -87 33l-65 61q-21 18 -21 37q0 17 28.5 31.5t57.5 14.5q35 0 58 -34l57 -90q10 -16 10 -27q0 -12 -10.5 -19t-27.5 -7zM43 66q0 13 9 33l257 579q27 61 90 61h9q62 0 89 -61l257 -579q8 -18 8 -31q0 -31 -21 -52.5t-52 -21.5q-50 0 -73 53l-52 119h-326
l-53 -124q-21 -48 -71 -48q-30 0 -50.5 21t-20.5 51zM295 302h212l-106 251z" />
    <glyph glyph-name="Aacute" unicode="&#xc1;" horiz-adv-x="806" 
d="M398 790q-17 0 -27.5 7t-10.5 19q0 11 10 27l57 90q23 34 58 34q29 0 57.5 -14.5t28.5 -31.5q0 -19 -21 -37l-65 -61q-35 -33 -87 -33zM43 66q0 13 9 33l257 579q27 61 90 61h9q62 0 89 -61l257 -579q8 -18 8 -31q0 -31 -21 -52.5t-52 -21.5q-50 0 -73 53l-52 119h-326
l-53 -124q-21 -48 -71 -48q-30 0 -50.5 21t-20.5 51zM295 302h212l-106 251z" />
    <glyph glyph-name="Acircumflex" unicode="&#xc2;" horiz-adv-x="806" 
d="M401 865l-50 -42q-40 -33 -92 -33q-33 0 -33 24q0 10 15 29l66 85q28 34 71 34h48q43 0 71 -34l66 -85q15 -19 15 -29q0 -24 -35 -24q-52 0 -92 33zM43 66q0 13 9 33l257 579q27 61 90 61h9q62 0 89 -61l257 -579q8 -18 8 -31q0 -31 -21 -52.5t-52 -21.5q-50 0 -73 53
l-52 119h-326l-53 -124q-21 -48 -71 -48q-30 0 -50.5 21t-20.5 51zM295 302h212l-106 251z" />
    <glyph glyph-name="Atilde" unicode="&#xc3;" horiz-adv-x="806" 
d="M288 806q-15 -24 -39 -24q-19 0 -32.5 12.5t-13.5 29.5q0 14 5 27q19 49 45 74.5t70 25.5q35 0 87 -20.5t67 -20.5q31 0 49 31q15 24 39 24q19 0 32.5 -12.5t13.5 -29.5q0 -14 -5 -27q-19 -49 -45 -74.5t-70 -25.5q-35 0 -87 20t-67 20q-32 0 -49 -30zM43 66q0 13 9 33
l257 579q27 61 90 61h9q62 0 89 -61l257 -579q8 -18 8 -31q0 -31 -21 -52.5t-52 -21.5q-50 0 -73 53l-52 119h-326l-53 -124q-21 -48 -71 -48q-30 0 -50.5 21t-20.5 51zM295 302h212l-106 251z" />
    <glyph glyph-name="Adieresis" unicode="&#xc4;" horiz-adv-x="806" 
d="M292 940q34 0 57 -21t23 -53v-3q0 -32 -23 -52.5t-57 -20.5q-33 0 -56 20.5t-23 52.5v3q0 32 23 53t56 21zM512 940q33 0 56 -21t23 -53v-3q0 -32 -23 -52.5t-56 -20.5q-34 0 -57 20.5t-23 52.5v3q0 32 23 53t57 21zM43 66q0 13 9 33l257 579q27 61 90 61h9q62 0 89 -61
l257 -579q8 -18 8 -31q0 -31 -21 -52.5t-52 -21.5q-50 0 -73 53l-52 119h-326l-53 -124q-21 -48 -71 -48q-30 0 -50.5 21t-20.5 51zM295 302h212l-106 251z" />
    <glyph glyph-name="Aring" unicode="&#xc5;" horiz-adv-x="830" 
d="M493 713l273 -614q8 -18 8 -31q0 -31 -21 -52.5t-52 -21.5q-51 0 -74 53l-51 119h-327l-53 -124q-21 -48 -71 -48q-30 0 -50.5 21t-20.5 51q0 13 9 33l273 614q-46 37 -46 91v2q0 48 37.5 84t87.5 36t87 -35.5t37 -84.5v-2q0 -55 -46 -91zM415 741q26 0 45 18.5t19 44.5
v2q0 26 -19 45t-45 19q-27 0 -46 -19t-19 -45v-2q0 -25 19.5 -44t45.5 -19zM306 302h213l-106 251z" />
    <glyph glyph-name="AE" unicode="&#xc6;" horiz-adv-x="1095" 
d="M324 302h184v293h-18zM38 56q0 22 12 44l331 574q31 54 92 54h494q29 0 49 -20t20 -49q0 -28 -20 -48t-49 -20h-306v-156h259q28 0 48.5 -20.5t20.5 -48.5t-20 -48t-49 -20h-259v-161h311q28 0 48.5 -20.5t20.5 -48.5t-20 -48t-49 -20h-387q-32 0 -54.5 22.5t-22.5 54.5
v89h-261l-74 -130q-24 -42 -67 -42q-29 0 -48.5 17.5t-19.5 44.5z" />
    <glyph glyph-name="Ccedilla" unicode="&#xc7;" horiz-adv-x="776" 
d="M407 -140q-15 -32 -45 -32q-23 0 -54.5 17t-31.5 35q0 13 9 27l62 90q-127 29 -207 130t-80 235v2q0 158 107 267t272 109q146 0 245 -75q30 -23 30 -61q0 -31 -22 -53t-54 -22q-22 0 -46 15q-72 55 -154 55q-93 0 -155 -68t-62 -165v-2q0 -98 61.5 -166.5t155.5 -68.5
q89 0 163 60q20 17 46 17q29 0 50.5 -21t21.5 -50q0 -33 -26 -55q-97 -86 -234 -91z" />
    <glyph glyph-name="Egrave" unicode="&#xc8;" horiz-adv-x="705" 
d="M372 780q-52 0 -87 33l-65 61q-21 18 -21 37q0 17 28.5 31.5t57.5 14.5q35 0 58 -34l57 -90q10 -16 10 -27q0 -12 -10.5 -19t-27.5 -7zM170 0q-32 0 -54.5 22.5t-22.5 54.5v574q0 32 22.5 54.5t54.5 22.5h407q29 0 49 -20t20 -49q0 -28 -20 -48t-49 -20h-332v-156h285
q28 0 48.5 -20.5t20.5 -48.5t-20 -48t-49 -20h-285v-161h337q28 0 48.5 -20.5t20.5 -48.5t-20 -48t-49 -20h-412z" />
    <glyph glyph-name="Eacute" unicode="&#xc9;" horiz-adv-x="705" 
d="M365 780q-17 0 -27.5 7t-10.5 19q0 11 10 27l57 90q23 34 58 34q29 0 57.5 -14.5t28.5 -31.5q0 -19 -21 -37l-65 -61q-35 -33 -87 -33zM170 0q-32 0 -54.5 22.5t-22.5 54.5v574q0 32 22.5 54.5t54.5 22.5h407q29 0 49 -20t20 -49q0 -28 -20 -48t-49 -20h-332v-156h285
q28 0 48.5 -20.5t20.5 -48.5t-20 -48t-49 -20h-285v-161h337q28 0 48.5 -20.5t20.5 -48.5t-20 -48t-49 -20h-412z" />
    <glyph glyph-name="Ecircumflex" unicode="&#xca;" horiz-adv-x="705" 
d="M367 855l-50 -42q-40 -33 -92 -33q-33 0 -33 24q0 10 15 29l66 85q28 34 71 34h48q43 0 71 -34l66 -85q15 -19 15 -29q0 -24 -35 -24q-52 0 -92 33zM170 0q-32 0 -54.5 22.5t-22.5 54.5v574q0 32 22.5 54.5t54.5 22.5h407q29 0 49 -20t20 -49q0 -28 -20 -48t-49 -20h-332
v-156h285q28 0 48.5 -20.5t20.5 -48.5t-20 -48t-49 -20h-285v-161h337q28 0 48.5 -20.5t20.5 -48.5t-20 -48t-49 -20h-412z" />
    <glyph glyph-name="Edieresis" unicode="&#xcb;" horiz-adv-x="705" 
d="M258 930q34 0 57 -21t23 -53v-3q0 -32 -23 -52.5t-57 -20.5q-33 0 -56 20.5t-23 52.5v3q0 32 23 53t56 21zM478 930q33 0 56 -21t23 -53v-3q0 -32 -23 -52.5t-56 -20.5q-34 0 -57 20.5t-23 52.5v3q0 32 23 53t57 21zM170 0q-32 0 -54.5 22.5t-22.5 54.5v574
q0 32 22.5 54.5t54.5 22.5h407q29 0 49 -20t20 -49q0 -28 -20 -48t-49 -20h-332v-156h285q28 0 48.5 -20.5t20.5 -48.5t-20 -48t-49 -20h-285v-161h337q28 0 48.5 -20.5t20.5 -48.5t-20 -48t-49 -20h-412z" />
    <glyph glyph-name="Igrave" unicode="&#xcc;" horiz-adv-x="354" 
d="M181 780q-52 0 -87 33l-65 61q-21 18 -21 37q0 17 28.5 31.5t57.5 14.5q35 0 58 -34l57 -90q10 -16 10 -27q0 -12 -10.5 -19t-27.5 -7zM100 71v586q0 32 22.5 54.5t54.5 22.5t54.5 -22.5t22.5 -54.5v-586q0 -32 -22.5 -54.5t-54.5 -22.5t-54.5 22.5t-22.5 54.5z" />
    <glyph glyph-name="Iacute" unicode="&#xcd;" horiz-adv-x="354" 
d="M173 780q-17 0 -27.5 7t-10.5 19q0 11 10 27l57 90q23 34 58 34q29 0 57.5 -14.5t28.5 -31.5q0 -19 -21 -37l-65 -61q-35 -33 -87 -33zM100 71v586q0 32 22.5 54.5t54.5 22.5t54.5 -22.5t22.5 -54.5v-586q0 -32 -22.5 -54.5t-54.5 -22.5t-54.5 22.5t-22.5 54.5z" />
    <glyph glyph-name="Icircumflex" unicode="&#xce;" horiz-adv-x="354" 
d="M176 855l-50 -42q-40 -33 -92 -33q-33 0 -33 24q0 10 15 29l66 85q28 34 71 34h48q43 0 71 -34l66 -85q15 -19 15 -29q0 -24 -35 -24q-52 0 -92 33zM100 71v586q0 32 22.5 54.5t54.5 22.5t54.5 -22.5t22.5 -54.5v-586q0 -32 -22.5 -54.5t-54.5 -22.5t-54.5 22.5
t-22.5 54.5z" />
    <glyph glyph-name="Idieresis" unicode="&#xcf;" horiz-adv-x="354" 
d="M67 930q34 0 57 -21t23 -53v-3q0 -32 -23 -52.5t-57 -20.5q-33 0 -56 20.5t-23 52.5v3q0 32 23 53t56 21zM287 930q33 0 56 -21t23 -53v-3q0 -32 -23 -52.5t-56 -20.5q-34 0 -57 20.5t-23 52.5v3q0 32 23 53t57 21zM100 71v586q0 32 22.5 54.5t54.5 22.5t54.5 -22.5
t22.5 -54.5v-586q0 -32 -22.5 -54.5t-54.5 -22.5t-54.5 22.5t-22.5 54.5z" />
    <glyph glyph-name="Eth" unicode="&#xd0;" horiz-adv-x="852" 
d="M405 0h-204q-32 0 -54.5 22.5t-22.5 54.5v221h-16q-28 0 -48 20t-20 48t20 48t48 20h16v217q0 32 22.5 54.5t54.5 22.5h204q170 0 278.5 -103.5t108.5 -258.5v-2q0 -156 -108.5 -260t-278.5 -104zM276 139h129q102 0 164 62t62 161v2q0 100 -62.5 162.5t-163.5 62.5h-129
v-155h101q29 0 48.5 -20t19.5 -48t-19.5 -48t-48.5 -20h-101v-159z" />
    <glyph glyph-name="Ntilde" unicode="&#xd1;" horiz-adv-x="830" 
d="M301 796q-15 -24 -39 -24q-19 0 -32.5 12.5t-13.5 29.5q0 14 5 27q19 49 45 74.5t70 25.5q35 0 87 -20.5t67 -20.5q31 0 49 31q15 24 39 24q19 0 32.5 -12.5t13.5 -29.5q0 -14 -5 -27q-19 -49 -45 -74.5t-70 -25.5q-35 0 -87 20t-67 20q-32 0 -49 -30zM93 70v585
q0 32 22.5 54.5t54.5 22.5h16q46 0 79 -45l320 -418v389q0 32 22.5 54t53.5 22t53.5 -22t22.5 -54v-585q0 -32 -22.5 -54.5t-54.5 -22.5h-5q-45 0 -80 45l-331 433v-404q0 -32 -22 -54t-54 -22q-31 0 -53 22.5t-22 53.5z" />
    <glyph glyph-name="Ograve" unicode="&#xd2;" horiz-adv-x="892" 
d="M450 790q-52 0 -87 33l-65 61q-21 18 -21 37q0 17 28.5 31.5t57.5 14.5q35 0 58 -34l57 -90q10 -16 10 -27q0 -12 -10.5 -19t-27.5 -7zM445 -12q-166 0 -275.5 108.5t-109.5 265.5v2q0 157 110.5 266.5t276.5 109.5t275.5 -108.5t109.5 -265.5v-2q0 -157 -110.5 -266.5
t-276.5 -109.5zM447 129q97 0 160.5 67.5t63.5 165.5v2q0 98 -64.5 166.5t-161.5 68.5t-160.5 -67.5t-63.5 -165.5v-2q0 -98 64.5 -166.5t161.5 -68.5z" />
    <glyph glyph-name="Oacute" unicode="&#xd3;" horiz-adv-x="892" 
d="M442 790q-17 0 -27.5 7t-10.5 19q0 11 10 27l57 90q23 34 58 34q29 0 57.5 -14.5t28.5 -31.5q0 -19 -21 -37l-65 -61q-35 -33 -87 -33zM445 -12q-166 0 -275.5 108.5t-109.5 265.5v2q0 157 110.5 266.5t276.5 109.5t275.5 -108.5t109.5 -265.5v-2q0 -157 -110.5 -266.5
t-276.5 -109.5zM447 129q97 0 160.5 67.5t63.5 165.5v2q0 98 -64.5 166.5t-161.5 68.5t-160.5 -67.5t-63.5 -165.5v-2q0 -98 64.5 -166.5t161.5 -68.5z" />
    <glyph glyph-name="Ocircumflex" unicode="&#xd4;" horiz-adv-x="892" 
d="M445 865l-50 -42q-40 -33 -92 -33q-33 0 -33 24q0 10 15 29l66 85q28 34 71 34h48q43 0 71 -34l66 -85q15 -19 15 -29q0 -24 -35 -24q-52 0 -92 33zM445 -12q-166 0 -275.5 108.5t-109.5 265.5v2q0 157 110.5 266.5t276.5 109.5t275.5 -108.5t109.5 -265.5v-2
q0 -157 -110.5 -266.5t-276.5 -109.5zM447 129q97 0 160.5 67.5t63.5 165.5v2q0 98 -64.5 166.5t-161.5 68.5t-160.5 -67.5t-63.5 -165.5v-2q0 -98 64.5 -166.5t161.5 -68.5z" />
    <glyph glyph-name="Otilde" unicode="&#xd5;" horiz-adv-x="892" 
d="M332 806q-15 -24 -39 -24q-19 0 -32.5 12.5t-13.5 29.5q0 14 5 27q19 49 45 74.5t70 25.5q35 0 87 -20.5t67 -20.5q31 0 49 31q15 24 39 24q19 0 32.5 -12.5t13.5 -29.5q0 -14 -5 -27q-19 -49 -45 -74.5t-70 -25.5q-35 0 -87 20t-67 20q-32 0 -49 -30zM445 -12
q-166 0 -275.5 108.5t-109.5 265.5v2q0 157 110.5 266.5t276.5 109.5t275.5 -108.5t109.5 -265.5v-2q0 -157 -110.5 -266.5t-276.5 -109.5zM447 129q97 0 160.5 67.5t63.5 165.5v2q0 98 -64.5 166.5t-161.5 68.5t-160.5 -67.5t-63.5 -165.5v-2q0 -98 64.5 -166.5
t161.5 -68.5z" />
    <glyph glyph-name="Odieresis" unicode="&#xd6;" horiz-adv-x="892" 
d="M336 940q34 0 57 -21t23 -53v-3q0 -32 -23 -52.5t-57 -20.5q-33 0 -56 20.5t-23 52.5v3q0 32 23 53t56 21zM556 940q33 0 56 -21t23 -53v-3q0 -32 -23 -52.5t-56 -20.5q-34 0 -57 20.5t-23 52.5v3q0 32 23 53t57 21zM445 -12q-166 0 -275.5 108.5t-109.5 265.5v2
q0 157 110.5 266.5t276.5 109.5t275.5 -108.5t109.5 -265.5v-2q0 -157 -110.5 -266.5t-276.5 -109.5zM447 129q97 0 160.5 67.5t63.5 165.5v2q0 98 -64.5 166.5t-161.5 68.5t-160.5 -67.5t-63.5 -165.5v-2q0 -98 64.5 -166.5t161.5 -68.5z" />
    <glyph glyph-name="multiply" unicode="&#xd7;" horiz-adv-x="672" 
d="M548 486l-122 -119l124 -120q20 -20 20 -48t-19.5 -47.5t-47.5 -19.5t-48 20l-120 124l-120 -123q-21 -21 -48 -21t-46 19t-19 46t22 49l122 119l-124 120q-20 20 -20 48t19.5 47.5t47.5 19.5t48 -20l120 -124l120 123q21 21 48 21t46 -19t19 -46t-22 -49z" />
    <glyph glyph-name="Oslash" unicode="&#xd8;" horiz-adv-x="892" 
d="M445 -12q-126 0 -223 66l-44 -44q-21 -21 -46 -21q-23 0 -38 14.5t-15 33.5q0 25 22 47l41 43q-82 101 -82 235v2q0 157 110.5 266.5t276.5 109.5q126 0 223 -66l44 44q21 21 46 21q23 0 38 -14.5t15 -33.5q0 -25 -22 -47l-41 -43q82 -101 82 -235v-2
q0 -157 -110.5 -266.5t-276.5 -109.5zM218 364q0 -67 33 -125l316 327q-53 36 -122 36q-98 0 -162.5 -69t-64.5 -167v-2zM447 126q98 0 162.5 69t64.5 167v2q0 67 -33 125l-316 -327q53 -36 122 -36z" />
    <glyph glyph-name="Ugrave" unicode="&#xd9;" horiz-adv-x="794" 
d="M401 780q-52 0 -87 33l-65 61q-21 18 -21 37q0 17 28.5 31.5t57.5 14.5q35 0 58 -34l57 -90q10 -16 10 -27q0 -12 -10.5 -19t-27.5 -7zM395 -11q-148 0 -231 82.5t-83 239.5v346q0 32 22.5 54.5t54.5 22.5t54.5 -22.5t22.5 -54.5v-341q0 -90 42.5 -138t119.5 -48t120 46
t43 134v347q0 32 22 54.5t54 22.5t54.5 -22.5t22.5 -54.5v-340q0 -162 -84 -245t-234 -83z" />
    <glyph glyph-name="Uacute" unicode="&#xda;" horiz-adv-x="794" 
d="M393 780q-17 0 -27.5 7t-10.5 19q0 11 10 27l57 90q23 34 58 34q29 0 57.5 -14.5t28.5 -31.5q0 -19 -21 -37l-65 -61q-35 -33 -87 -33zM395 -11q-148 0 -231 82.5t-83 239.5v346q0 32 22.5 54.5t54.5 22.5t54.5 -22.5t22.5 -54.5v-341q0 -90 42.5 -138t119.5 -48t120 46
t43 134v347q0 32 22 54.5t54 22.5t54.5 -22.5t22.5 -54.5v-340q0 -162 -84 -245t-234 -83z" />
    <glyph glyph-name="Ucircumflex" unicode="&#xdb;" horiz-adv-x="794" 
d="M396 855l-50 -42q-40 -33 -92 -33q-33 0 -33 24q0 10 15 29l66 85q28 34 71 34h48q43 0 71 -34l66 -85q15 -19 15 -29q0 -24 -35 -24q-52 0 -92 33zM395 -11q-148 0 -231 82.5t-83 239.5v346q0 32 22.5 54.5t54.5 22.5t54.5 -22.5t22.5 -54.5v-341q0 -90 42.5 -138
t119.5 -48t120 46t43 134v347q0 32 22 54.5t54 22.5t54.5 -22.5t22.5 -54.5v-340q0 -162 -84 -245t-234 -83z" />
    <glyph glyph-name="Udieresis" unicode="&#xdc;" horiz-adv-x="794" 
d="M287 930q34 0 57 -21t23 -53v-3q0 -32 -23 -52.5t-57 -20.5q-33 0 -56 20.5t-23 52.5v3q0 32 23 53t56 21zM507 930q33 0 56 -21t23 -53v-3q0 -32 -23 -52.5t-56 -20.5q-34 0 -57 20.5t-23 52.5v3q0 32 23 53t57 21zM395 -11q-148 0 -231 82.5t-83 239.5v346
q0 32 22.5 54.5t54.5 22.5t54.5 -22.5t22.5 -54.5v-341q0 -90 42.5 -138t119.5 -48t120 46t43 134v347q0 32 22 54.5t54 22.5t54.5 -22.5t22.5 -54.5v-340q0 -162 -84 -245t-234 -83z" />
    <glyph glyph-name="Yacute" unicode="&#xdd;" horiz-adv-x="725" 
d="M359 780q-17 0 -27.5 7t-10.5 19q0 11 10 27l57 90q23 34 58 34q29 0 57.5 -14.5t28.5 -31.5q0 -19 -21 -37l-65 -61q-35 -33 -87 -33zM286 71v210l-238 324q-19 26 -19 55q0 31 22.5 52.5t54.5 21.5q44 0 76 -47l182 -262l185 264q31 46 73 46q34 0 54.5 -21.5
t20.5 -53.5q0 -26 -20 -54l-237 -322v-213q0 -32 -22.5 -54.5t-54.5 -22.5t-54.5 22.5t-22.5 54.5z" />
    <glyph glyph-name="Thorn" unicode="&#xde;" horiz-adv-x="708" 
d="M93 71v586q0 32 22.5 54.5t54.5 22.5t54 -22.5t22 -54.5v-37h142q128 0 203 -68.5t75 -181.5v-2q0 -121 -83 -187.5t-210 -66.5h-127v-43q0 -32 -22 -54.5t-54 -22.5t-54.5 22.5t-22.5 54.5zM246 251h132q61 0 97 32t36 82v2q0 55 -36.5 84.5t-99.5 29.5h-129v-230z" />
    <glyph glyph-name="germandbls" unicode="&#xdf;" horiz-adv-x="653" 
d="M308 58q0 22 14.5 38t38.5 22q92 21 92 93v2q0 63 -92 95q-53 18 -53 66q0 39 30 60q73 52 73 116v2q0 40 -23.5 63t-64.5 23q-43 0 -69.5 -29.5t-26.5 -79.5v-460q0 -31 -22 -53t-54 -22q-31 0 -53 22t-22 53v454q0 114 68.5 178.5t185.5 64.5q108 0 169.5 -56
t61.5 -144v-2q0 -62 -26 -101.5t-73 -69.5q141 -59 141 -185v-2q0 -97 -68.5 -153t-156.5 -56q-33 0 -51.5 17t-18.5 44z" />
    <glyph glyph-name="agrave" unicode="&#xe0;" horiz-adv-x="623" 
d="M317 613q-52 0 -87 33l-65 61q-21 18 -21 37q0 17 28.5 31.5t57.5 14.5q35 0 58 -34l57 -90q10 -16 10 -27q0 -12 -10.5 -19t-27.5 -7zM280 95q57 0 92.5 28.5t35.5 73.5v30q-49 21 -106 21q-53 0 -83 -21t-30 -59v-2q0 -33 25 -52t66 -19zM235 -11q-82 0 -137.5 45.5
t-55.5 125.5v2q0 88 61 132.5t164 44.5q71 0 139 -22v10q0 105 -123 105q-59 0 -112 -17q-12 -4 -22 -4q-26 0 -44.5 18t-18.5 44q0 45 41 59q79 30 178 30q123 0 187 -62q60 -60 60 -176v-257q0 -31 -21.5 -52t-52.5 -21q-32 0 -52.5 19t-20.5 44v5q-65 -73 -170 -73z" />
    <glyph glyph-name="aacute" unicode="&#xe1;" horiz-adv-x="623" 
d="M309 613q-17 0 -27.5 7t-10.5 19q0 11 10 27l57 90q23 34 58 34q29 0 57.5 -14.5t28.5 -31.5q0 -19 -21 -37l-65 -61q-35 -33 -87 -33zM280 95q57 0 92.5 28.5t35.5 73.5v30q-49 21 -106 21q-53 0 -83 -21t-30 -59v-2q0 -33 25 -52t66 -19zM235 -11q-82 0 -137.5 45.5
t-55.5 125.5v2q0 88 61 132.5t164 44.5q71 0 139 -22v10q0 105 -123 105q-59 0 -112 -17q-12 -4 -22 -4q-26 0 -44.5 18t-18.5 44q0 45 41 59q79 30 178 30q123 0 187 -62q60 -60 60 -176v-257q0 -31 -21.5 -52t-52.5 -21q-32 0 -52.5 19t-20.5 44v5q-65 -73 -170 -73z" />
    <glyph glyph-name="acircumflex" unicode="&#xe2;" horiz-adv-x="623" 
d="M312 688l-50 -42q-40 -33 -92 -33q-33 0 -33 24q0 10 15 29l66 85q28 34 71 34h48q43 0 71 -34l66 -85q15 -19 15 -29q0 -24 -35 -24q-52 0 -92 33zM280 95q57 0 92.5 28.5t35.5 73.5v30q-49 21 -106 21q-53 0 -83 -21t-30 -59v-2q0 -33 25 -52t66 -19zM235 -11
q-82 0 -137.5 45.5t-55.5 125.5v2q0 88 61 132.5t164 44.5q71 0 139 -22v10q0 105 -123 105q-59 0 -112 -17q-12 -4 -22 -4q-26 0 -44.5 18t-18.5 44q0 45 41 59q79 30 178 30q123 0 187 -62q60 -60 60 -176v-257q0 -31 -21.5 -52t-52.5 -21q-32 0 -52.5 19t-20.5 44v5
q-65 -73 -170 -73z" />
    <glyph glyph-name="atilde" unicode="&#xe3;" horiz-adv-x="623" 
d="M199 629q-15 -24 -39 -24q-19 0 -32.5 12.5t-13.5 29.5q0 14 5 27q19 49 45 74.5t70 25.5q35 0 87 -20.5t67 -20.5q31 0 49 31q15 24 39 24q19 0 32.5 -12.5t13.5 -29.5q0 -14 -5 -27q-19 -49 -45 -74.5t-70 -25.5q-35 0 -87 20t-67 20q-32 0 -49 -30zM280 95
q57 0 92.5 28.5t35.5 73.5v30q-49 21 -106 21q-53 0 -83 -21t-30 -59v-2q0 -33 25 -52t66 -19zM235 -11q-82 0 -137.5 45.5t-55.5 125.5v2q0 88 61 132.5t164 44.5q71 0 139 -22v10q0 105 -123 105q-59 0 -112 -17q-12 -4 -22 -4q-26 0 -44.5 18t-18.5 44q0 45 41 59
q79 30 178 30q123 0 187 -62q60 -60 60 -176v-257q0 -31 -21.5 -52t-52.5 -21q-32 0 -52.5 19t-20.5 44v5q-65 -73 -170 -73z" />
    <glyph glyph-name="adieresis" unicode="&#xe4;" horiz-adv-x="623" 
d="M203 763q34 0 57 -21t23 -53v-3q0 -32 -23 -52.5t-57 -20.5q-33 0 -56 20.5t-23 52.5v3q0 32 23 53t56 21zM423 763q33 0 56 -21t23 -53v-3q0 -32 -23 -52.5t-56 -20.5q-34 0 -57 20.5t-23 52.5v3q0 32 23 53t57 21zM280 95q57 0 92.5 28.5t35.5 73.5v30q-49 21 -106 21
q-53 0 -83 -21t-30 -59v-2q0 -33 25 -52t66 -19zM235 -11q-82 0 -137.5 45.5t-55.5 125.5v2q0 88 61 132.5t164 44.5q71 0 139 -22v10q0 105 -123 105q-59 0 -112 -17q-12 -4 -22 -4q-26 0 -44.5 18t-18.5 44q0 45 41 59q79 30 178 30q123 0 187 -62q60 -60 60 -176v-257
q0 -31 -21.5 -52t-52.5 -21q-32 0 -52.5 19t-20.5 44v5q-65 -73 -170 -73z" />
    <glyph glyph-name="aring" unicode="&#xe5;" horiz-adv-x="623" 
d="M313 617q-50 0 -87 35.5t-37 83.5v2q0 48 37 83.5t87 35.5t87 -35.5t37 -83.5v-2q0 -48 -37 -83.5t-87 -35.5zM313 672q26 0 45 19t19 45v2q0 26 -19 44.5t-45 18.5t-45 -18.5t-19 -44.5v-2q0 -26 19 -45t45 -19zM280 95q57 0 92.5 28.5t35.5 73.5v30q-49 21 -106 21
q-53 0 -83 -21t-30 -59v-2q0 -33 25 -52t66 -19zM235 -11q-82 0 -137.5 45.5t-55.5 125.5v2q0 88 61 132.5t164 44.5q71 0 139 -22v10q0 105 -123 105q-59 0 -112 -17q-12 -4 -22 -4q-26 0 -44.5 18t-18.5 44q0 45 41 59q79 30 178 30q123 0 187 -62q60 -60 60 -176v-257
q0 -31 -21.5 -52t-52.5 -21q-32 0 -52.5 19t-20.5 44v5q-65 -73 -170 -73z" />
    <glyph glyph-name="ae" unicode="&#xe6;" horiz-adv-x="997" 
d="M551 320h247q-7 56 -39 90t-83 34q-50 0 -83 -33.5t-42 -90.5zM886 56q-79 -68 -194 -68q-132 0 -213 86q-112 -85 -227 -85q-92 0 -151 46t-59 125v2q0 88 61 132.5t164 44.5q70 0 138 -22v10q0 105 -122 105q-63 0 -112 -17q-12 -4 -22 -4q-26 0 -44.5 18t-18.5 44
q0 45 41 59q75 30 177 30q134 0 190 -74q73 78 186 78q64 0 116 -25t83 -65.5t47.5 -86t16.5 -91.5q0 -32 -20.5 -52.5t-50.5 -20.5h-319q11 -56 48 -85.5t93 -29.5q65 0 115 39q17 12 38 12q25 0 42 -17t17 -43q0 -27 -20 -45zM279 97q78 0 147 56q-16 36 -20 75
q-51 20 -104 20t-83 -21t-30 -59v-2q0 -31 26 -50t64 -19z" />
    <glyph glyph-name="ccedilla" unicode="&#xe7;" horiz-adv-x="602" 
d="M311 -140q-15 -32 -45 -32q-23 0 -54.5 17t-31.5 35q0 13 9 27l64 93q-92 26 -148 102t-56 173v2q0 120 82.5 204.5t208.5 84.5q116 0 190 -63q24 -17 24 -52q0 -28 -20 -48t-49 -20q-25 0 -44 15q-47 37 -102 37q-61 0 -100.5 -45.5t-39.5 -110.5v-2q0 -68 40.5 -113.5
t105.5 -45.5q58 0 107 41q19 14 42 14q26 0 45 -19t19 -46q0 -28 -22 -48q-69 -64 -173 -71z" />
    <glyph glyph-name="egrave" unicode="&#xe8;" horiz-adv-x="644" 
d="M323 613q-52 0 -87 33l-65 61q-21 18 -21 37q0 17 28.5 31.5t57.5 14.5q35 0 58 -34l57 -90q10 -16 10 -27q0 -12 -10.5 -19t-27.5 -7zM532 56q-79 -68 -194 -68q-125 0 -207 80t-82 207v2q0 121 77.5 205t196.5 84q66 0 119 -25t84 -65.5t47.5 -86t16.5 -91.5
q0 -32 -20 -52.5t-51 -20.5h-319q11 -56 47.5 -85.5t92.5 -29.5q65 0 116 39q16 12 37 12q25 0 42 -17t17 -43q0 -27 -20 -45zM198 320h247q-8 57 -39.5 90.5t-82.5 33.5q-50 0 -83 -33.5t-42 -90.5z" />
    <glyph glyph-name="eacute" unicode="&#xe9;" horiz-adv-x="644" 
d="M315 613q-17 0 -27.5 7t-10.5 19q0 11 10 27l57 90q23 34 58 34q29 0 57.5 -14.5t28.5 -31.5q0 -19 -21 -37l-65 -61q-35 -33 -87 -33zM532 56q-79 -68 -194 -68q-125 0 -207 80t-82 207v2q0 121 77.5 205t196.5 84q66 0 119 -25t84 -65.5t47.5 -86t16.5 -91.5
q0 -32 -20 -52.5t-51 -20.5h-319q11 -56 47.5 -85.5t92.5 -29.5q65 0 116 39q16 12 37 12q25 0 42 -17t17 -43q0 -27 -20 -45zM198 320h247q-8 57 -39.5 90.5t-82.5 33.5q-50 0 -83 -33.5t-42 -90.5z" />
    <glyph glyph-name="ecircumflex" unicode="&#xea;" horiz-adv-x="644" 
d="M318 688l-50 -42q-40 -33 -92 -33q-33 0 -33 24q0 10 15 29l66 85q28 34 71 34h48q43 0 71 -34l66 -85q15 -19 15 -29q0 -24 -35 -24q-52 0 -92 33zM532 56q-79 -68 -194 -68q-125 0 -207 80t-82 207v2q0 121 77.5 205t196.5 84q66 0 119 -25t84 -65.5t47.5 -86
t16.5 -91.5q0 -32 -20 -52.5t-51 -20.5h-319q11 -56 47.5 -85.5t92.5 -29.5q65 0 116 39q16 12 37 12q25 0 42 -17t17 -43q0 -27 -20 -45zM198 320h247q-8 57 -39.5 90.5t-82.5 33.5q-50 0 -83 -33.5t-42 -90.5z" />
    <glyph glyph-name="edieresis" unicode="&#xeb;" horiz-adv-x="644" 
d="M209 763q34 0 57 -21t23 -53v-3q0 -32 -23 -52.5t-57 -20.5q-33 0 -56 20.5t-23 52.5v3q0 32 23 53t56 21zM429 763q33 0 56 -21t23 -53v-3q0 -32 -23 -52.5t-56 -20.5q-34 0 -57 20.5t-23 52.5v3q0 32 23 53t57 21zM532 56q-79 -68 -194 -68q-125 0 -207 80t-82 207v2
q0 121 77.5 205t196.5 84q66 0 119 -25t84 -65.5t47.5 -86t16.5 -91.5q0 -32 -20 -52.5t-51 -20.5h-319q11 -56 47.5 -85.5t92.5 -29.5q65 0 116 39q16 12 37 12q25 0 42 -17t17 -43q0 -27 -20 -45zM198 320h247q-8 57 -39.5 90.5t-82.5 33.5q-50 0 -83 -33.5t-42 -90.5z
" />
    <glyph glyph-name="igrave" unicode="&#xec;" horiz-adv-x="319" 
d="M163 613q-52 0 -87 33l-65 61q-21 18 -21 37q0 17 28.5 31.5t57.5 14.5q35 0 58 -34l57 -90q10 -16 10 -27q0 -12 -10.5 -19t-27.5 -7zM84 70v416q0 32 22 54t53 22t53.5 -22t22.5 -54v-416q0 -32 -22.5 -54t-53.5 -22t-53 22t-22 54z" />
    <glyph glyph-name="iacute" unicode="&#xed;" horiz-adv-x="319" 
d="M156 613q-17 0 -27.5 7t-10.5 19q0 11 10 27l57 90q23 34 58 34q29 0 57.5 -14.5t28.5 -31.5q0 -19 -21 -37l-65 -61q-35 -33 -87 -33zM84 70v416q0 32 22 54t53 22t53.5 -22t22.5 -54v-416q0 -32 -22.5 -54t-53.5 -22t-53 22t-22 54z" />
    <glyph glyph-name="icircumflex" unicode="&#xee;" horiz-adv-x="319" 
d="M158 688l-50 -42q-40 -33 -92 -33q-33 0 -33 24q0 10 15 29l66 85q28 34 71 34h48q43 0 71 -34l66 -85q15 -19 15 -29q0 -24 -35 -24q-52 0 -92 33zM84 70v416q0 32 22 54t53 22t53.5 -22t22.5 -54v-416q0 -32 -22.5 -54t-53.5 -22t-53 22t-22 54z" />
    <glyph glyph-name="idieresis" unicode="&#xef;" horiz-adv-x="319" 
d="M49 763q34 0 57 -21t23 -53v-3q0 -32 -23 -52.5t-57 -20.5q-33 0 -56 20.5t-23 52.5v3q0 32 23 53t56 21zM269 763q33 0 56 -21t23 -53v-3q0 -32 -23 -52.5t-56 -20.5q-34 0 -57 20.5t-23 52.5v3q0 32 23 53t57 21zM84 70v416q0 32 22 54t53 22t53.5 -22t22.5 -54v-416
q0 -32 -22.5 -54t-53.5 -22t-53 22t-22 54z" />
    <glyph glyph-name="eth" unicode="&#xf0;" horiz-adv-x="681" 
d="M335 -12q-123 0 -204.5 78.5t-81.5 194.5q0 108 67 176t172 68q68 0 131 -35l-94 127l-108 -45q-12 -4 -19 -4q-19 0 -32 13t-13 32q0 31 32 43l86 35q-6 15 -6 29q0 28 19.5 48t48.5 20q36 0 59 -33l8 -11l91 38q12 4 19 4q19 0 32 -13t13 -32q0 -31 -32 -43l-71 -29
l86 -123q49 -71 70.5 -128.5t21.5 -124.5q0 -121 -80 -203t-215 -82zM482 258q0 59 -40 99t-103 40q-64 0 -103 -39.5t-39 -100.5q0 -60 40 -100.5t103 -40.5q65 0 103.5 40.5t38.5 101.5z" />
    <glyph glyph-name="ntilde" unicode="&#xf1;" horiz-adv-x="655" 
d="M215 629q-15 -24 -39 -24q-19 0 -32.5 12.5t-13.5 29.5q0 14 5 27q19 49 45 74.5t70 25.5q35 0 87 -20.5t67 -20.5q31 0 49 31q15 24 39 24q19 0 32.5 -12.5t13.5 -29.5q0 -14 -5 -27q-19 -49 -45 -74.5t-70 -25.5q-35 0 -87 20t-67 20q-32 0 -49 -30zM76 70v416
q0 32 22 54t54 22t54 -22t22 -54v-10q69 90 165 90q90 0 140.5 -55.5t50.5 -151.5v-289q0 -32 -22 -54t-54 -22t-54 22t-22 54v241q0 57 -26 87.5t-74 30.5t-76 -30.5t-28 -87.5v-241q0 -32 -22 -54t-54 -22t-54 22t-22 54z" />
    <glyph glyph-name="ograve" unicode="&#xf2;" horiz-adv-x="697" 
d="M352 613q-52 0 -87 33l-65 61q-21 18 -21 37q0 17 28.5 31.5t57.5 14.5q35 0 58 -34l57 -90q10 -16 10 -27q0 -12 -10.5 -19t-27.5 -7zM347 -12q-127 0 -212.5 83t-85.5 204v2q0 120 86.5 204.5t214.5 84.5q127 0 212.5 -83.5t85.5 -203.5v-2q0 -121 -86 -205t-215 -84z
M350 118q67 0 107.5 45.5t40.5 111.5v2q0 65 -42.5 111.5t-108.5 46.5q-67 0 -107.5 -45t-40.5 -111v-2q0 -65 42.5 -112t108.5 -47z" />
    <glyph glyph-name="oacute" unicode="&#xf3;" horiz-adv-x="697" 
d="M345 613q-17 0 -27.5 7t-10.5 19q0 11 10 27l57 90q23 34 58 34q29 0 57.5 -14.5t28.5 -31.5q0 -19 -21 -37l-65 -61q-35 -33 -87 -33zM347 -12q-127 0 -212.5 83t-85.5 204v2q0 120 86.5 204.5t214.5 84.5q127 0 212.5 -83.5t85.5 -203.5v-2q0 -121 -86 -205t-215 -84z
M350 118q67 0 107.5 45.5t40.5 111.5v2q0 65 -42.5 111.5t-108.5 46.5q-67 0 -107.5 -45t-40.5 -111v-2q0 -65 42.5 -112t108.5 -47z" />
    <glyph glyph-name="ocircumflex" unicode="&#xf4;" horiz-adv-x="697" 
d="M348 688l-50 -42q-40 -33 -92 -33q-33 0 -33 24q0 10 15 29l66 85q28 34 71 34h48q43 0 71 -34l66 -85q15 -19 15 -29q0 -24 -35 -24q-52 0 -92 33zM347 -12q-127 0 -212.5 83t-85.5 204v2q0 120 86.5 204.5t214.5 84.5q127 0 212.5 -83.5t85.5 -203.5v-2
q0 -121 -86 -205t-215 -84zM350 118q67 0 107.5 45.5t40.5 111.5v2q0 65 -42.5 111.5t-108.5 46.5q-67 0 -107.5 -45t-40.5 -111v-2q0 -65 42.5 -112t108.5 -47z" />
    <glyph glyph-name="otilde" unicode="&#xf5;" horiz-adv-x="697" 
d="M235 629q-15 -24 -39 -24q-19 0 -32.5 12.5t-13.5 29.5q0 14 5 27q19 49 45 74.5t70 25.5q35 0 87 -20.5t67 -20.5q31 0 49 31q15 24 39 24q19 0 32.5 -12.5t13.5 -29.5q0 -14 -5 -27q-19 -49 -45 -74.5t-70 -25.5q-35 0 -87 20t-67 20q-32 0 -49 -30zM347 -12
q-127 0 -212.5 83t-85.5 204v2q0 120 86.5 204.5t214.5 84.5q127 0 212.5 -83.5t85.5 -203.5v-2q0 -121 -86 -205t-215 -84zM350 118q67 0 107.5 45.5t40.5 111.5v2q0 65 -42.5 111.5t-108.5 46.5q-67 0 -107.5 -45t-40.5 -111v-2q0 -65 42.5 -112t108.5 -47z" />
    <glyph glyph-name="odieresis" unicode="&#xf6;" horiz-adv-x="697" 
d="M239 763q34 0 57 -21t23 -53v-3q0 -32 -23 -52.5t-57 -20.5q-33 0 -56 20.5t-23 52.5v3q0 32 23 53t56 21zM459 763q33 0 56 -21t23 -53v-3q0 -32 -23 -52.5t-56 -20.5q-34 0 -57 20.5t-23 52.5v3q0 32 23 53t57 21zM347 -12q-127 0 -212.5 83t-85.5 204v2
q0 120 86.5 204.5t214.5 84.5q127 0 212.5 -83.5t85.5 -203.5v-2q0 -121 -86 -205t-215 -84zM350 118q67 0 107.5 45.5t40.5 111.5v2q0 65 -42.5 111.5t-108.5 46.5q-67 0 -107.5 -45t-40.5 -111v-2q0 -65 42.5 -112t108.5 -47z" />
    <glyph glyph-name="divide" unicode="&#xf7;" horiz-adv-x="672" 
d="M336 668q34 0 58.5 -23.5t24.5 -55.5v-1q0 -33 -24 -56t-59 -23q-34 0 -58 23t-24 56v1q0 32 24 55.5t58 23.5zM540 302h-407q-26 0 -45 19t-19 45t19 45t45 19h407q26 0 45 -19t19 -45t-19 -45t-45 -19zM336 223q35 0 59 -23t24 -56v-1q0 -32 -24.5 -55t-58.5 -23
t-58 23t-24 55v1q0 33 24 56t58 23z" />
    <glyph glyph-name="oslash" unicode="&#xf8;" horiz-adv-x="697" 
d="M195 277q0 -39 15 -72l212 215q-35 19 -75 19q-69 0 -110.5 -46t-41.5 -114v-2zM350 115q69 0 110.5 46t41.5 114v2q0 39 -15 71l-211 -214q33 -19 74 -19zM156 9q-22 -22 -46 -22q-19 0 -33 13t-14 31q0 25 22 47l23 23q-59 75 -59 174v2q0 120 86.5 204.5t214.5 84.5
q91 0 166 -46l25 25q22 22 46 22q19 0 33 -13t14 -31q0 -25 -22 -47l-23 -23q59 -77 59 -174v-2q0 -121 -86 -205t-215 -84q-91 0 -166 46z" />
    <glyph glyph-name="ugrave" unicode="&#xf9;" horiz-adv-x="655" 
d="M329 613q-52 0 -87 33l-65 61q-21 18 -21 37q0 17 28.5 31.5t57.5 14.5q35 0 58 -34l57 -90q10 -16 10 -27q0 -12 -10.5 -19t-27.5 -7zM579 486v-416q0 -32 -22.5 -54t-53.5 -22t-53.5 22t-22.5 54v10q-68 -91 -165 -91q-89 0 -139.5 55.5t-50.5 152.5v289q0 32 22 54
t54 22q31 0 53 -22.5t22 -53.5v-241q0 -57 26 -87.5t74 -30.5t76 30.5t28 87.5v241q0 32 22.5 54t53.5 22t53.5 -22t22.5 -54z" />
    <glyph glyph-name="uacute" unicode="&#xfa;" horiz-adv-x="655" 
d="M321 613q-17 0 -27.5 7t-10.5 19q0 11 10 27l57 90q23 34 58 34q29 0 57.5 -14.5t28.5 -31.5q0 -19 -21 -37l-65 -61q-35 -33 -87 -33zM579 486v-416q0 -32 -22.5 -54t-53.5 -22t-53.5 22t-22.5 54v10q-68 -91 -165 -91q-89 0 -139.5 55.5t-50.5 152.5v289q0 32 22 54
t54 22q31 0 53 -22.5t22 -53.5v-241q0 -57 26 -87.5t74 -30.5t76 30.5t28 87.5v241q0 32 22.5 54t53.5 22t53.5 -22t22.5 -54z" />
    <glyph glyph-name="ucircumflex" unicode="&#xfb;" horiz-adv-x="655" 
d="M324 688l-50 -42q-40 -33 -92 -33q-33 0 -33 24q0 10 15 29l66 85q28 34 71 34h48q43 0 71 -34l66 -85q15 -19 15 -29q0 -24 -35 -24q-52 0 -92 33zM579 486v-416q0 -32 -22.5 -54t-53.5 -22t-53.5 22t-22.5 54v10q-68 -91 -165 -91q-89 0 -139.5 55.5t-50.5 152.5v289
q0 32 22 54t54 22q31 0 53 -22.5t22 -53.5v-241q0 -57 26 -87.5t74 -30.5t76 30.5t28 87.5v241q0 32 22.5 54t53.5 22t53.5 -22t22.5 -54z" />
    <glyph glyph-name="udieresis" unicode="&#xfc;" horiz-adv-x="655" 
d="M215 763q34 0 57 -21t23 -53v-3q0 -32 -23 -52.5t-57 -20.5q-33 0 -56 20.5t-23 52.5v3q0 32 23 53t56 21zM435 763q33 0 56 -21t23 -53v-3q0 -32 -23 -52.5t-56 -20.5q-34 0 -57 20.5t-23 52.5v3q0 32 23 53t57 21zM579 486v-416q0 -32 -22.5 -54t-53.5 -22t-53.5 22
t-22.5 54v10q-68 -91 -165 -91q-89 0 -139.5 55.5t-50.5 152.5v289q0 32 22 54t54 22q31 0 53 -22.5t22 -53.5v-241q0 -57 26 -87.5t74 -30.5t76 30.5t28 87.5v241q0 32 22.5 54t53.5 22t53.5 -22t22.5 -54z" />
    <glyph glyph-name="yacute" unicode="&#xfd;" horiz-adv-x="618" 
d="M305 613q-17 0 -27.5 7t-10.5 19q0 11 10 27l57 90q23 34 58 34q29 0 57.5 -14.5t28.5 -31.5q0 -19 -21 -37l-65 -61q-35 -33 -87 -33zM189 -170q-44 0 -87 15q-48 17 -48 63q0 27 18 44.5t42 17.5q14 0 26 -4q24 -7 35 -7q23 0 36 8t25 31l5 12l-193 444q-8 20 -8 35
q0 32 21 52.5t53 20.5q52 0 73 -57l127 -333l120 332q22 58 73 58q30 0 51 -20t21 -50q0 -20 -7 -36l-196 -470q-36 -86 -77 -121t-110 -35z" />
    <glyph glyph-name="thorn" unicode="&#xfe;" horiz-adv-x="709" 
d="M366 119q59 0 99.5 43.5t40.5 114.5v2q0 70 -41 114t-99 44t-99 -44t-41 -114v-2q0 -70 41 -114t99 -44zM76 -97v786q0 31 22 53.5t54 22.5t54 -22.5t22 -53.5v-216q68 93 176 93q104 0 179 -77.5t75 -209.5v-2q0 -133 -74.5 -210.5t-179.5 -77.5t-176 86v-172
q0 -31 -22 -53.5t-54 -22.5t-54 22.5t-22 53.5z" />
    <glyph glyph-name="ydieresis" unicode="&#xff;" horiz-adv-x="618" 
d="M199 763q34 0 57 -21t23 -53v-3q0 -32 -23 -52.5t-57 -20.5q-33 0 -56 20.5t-23 52.5v3q0 32 23 53t56 21zM419 763q33 0 56 -21t23 -53v-3q0 -32 -23 -52.5t-56 -20.5q-34 0 -57 20.5t-23 52.5v3q0 32 23 53t57 21zM189 -170q-44 0 -87 15q-48 17 -48 63q0 27 18 44.5
t42 17.5q14 0 26 -4q24 -7 35 -7q23 0 36 8t25 31l5 12l-193 444q-8 20 -8 35q0 32 21 52.5t53 20.5q52 0 73 -57l127 -333l120 332q22 58 73 58q30 0 51 -20t21 -50q0 -20 -7 -36l-196 -470q-36 -86 -77 -121t-110 -35z" />
    <glyph glyph-name="Amacron" unicode="&#x100;" horiz-adv-x="806" 
d="M540 802h-276q-22 0 -38 15.5t-16 37.5t16 37.5t38 15.5h276q22 0 38 -15.5t16 -37.5t-16 -37.5t-38 -15.5zM43 66q0 13 9 33l257 579q27 61 90 61h9q62 0 89 -61l257 -579q8 -18 8 -31q0 -31 -21 -52.5t-52 -21.5q-50 0 -73 53l-52 119h-326l-53 -124q-21 -48 -71 -48
q-30 0 -50.5 21t-20.5 51zM295 302h212l-106 251z" />
    <glyph glyph-name="amacron" unicode="&#x101;" horiz-adv-x="623" 
d="M451 625h-276q-22 0 -38 15.5t-16 37.5t16 37.5t38 15.5h276q22 0 38 -15.5t16 -37.5t-16 -37.5t-38 -15.5zM280 95q57 0 92.5 28.5t35.5 73.5v30q-49 21 -106 21q-53 0 -83 -21t-30 -59v-2q0 -33 25 -52t66 -19zM235 -11q-82 0 -137.5 45.5t-55.5 125.5v2q0 88 61 132.5
t164 44.5q71 0 139 -22v10q0 105 -123 105q-59 0 -112 -17q-12 -4 -22 -4q-26 0 -44.5 18t-18.5 44q0 45 41 59q79 30 178 30q123 0 187 -62q60 -60 60 -176v-257q0 -31 -21.5 -52t-52.5 -21q-32 0 -52.5 19t-20.5 44v5q-65 -73 -170 -73z" />
    <glyph glyph-name="Abreve" unicode="&#x102;" horiz-adv-x="806" 
d="M402 794q-122 0 -171 87q-7 14 -7 30q0 22 15 37t37 15q29 0 45 -26q26 -43 81 -43t81 43q16 26 45 26q22 0 37 -15t15 -37q0 -16 -7 -30q-49 -87 -171 -87zM43 66q0 13 9 33l257 579q27 61 90 61h9q62 0 89 -61l257 -579q8 -18 8 -31q0 -31 -21 -52.5t-52 -21.5
q-50 0 -73 53l-52 119h-326l-53 -124q-21 -48 -71 -48q-30 0 -50.5 21t-20.5 51zM295 302h212l-106 251z" />
    <glyph glyph-name="abreve" unicode="&#x103;" horiz-adv-x="623" 
d="M313 617q-122 0 -171 87q-7 14 -7 30q0 22 15 37t37 15q29 0 45 -26q26 -43 81 -43t81 43q16 26 45 26q22 0 37 -15t15 -37q0 -16 -7 -30q-49 -87 -171 -87zM280 95q57 0 92.5 28.5t35.5 73.5v30q-49 21 -106 21q-53 0 -83 -21t-30 -59v-2q0 -33 25 -52t66 -19zM235 -11
q-82 0 -137.5 45.5t-55.5 125.5v2q0 88 61 132.5t164 44.5q71 0 139 -22v10q0 105 -123 105q-59 0 -112 -17q-12 -4 -22 -4q-26 0 -44.5 18t-18.5 44q0 45 41 59q79 30 178 30q123 0 187 -62q60 -60 60 -176v-257q0 -31 -21.5 -52t-52.5 -21q-32 0 -52.5 19t-20.5 44v5
q-65 -73 -170 -73z" />
    <glyph glyph-name="Aogonek" unicode="&#x104;" horiz-adv-x="830" 
d="M54 66q0 13 9 33l258 579q27 61 90 61h9q62 0 89 -61l257 -579q8 -18 8 -32q0 -29 -27 -59q-36 -39 -36 -68t42 -41q37 -9 37 -36q0 -36 -48 -36q-65 0 -103 22.5t-38 66.5q0 42 43 92l-68 158h-327l-53 -124q-21 -48 -71 -48q-30 0 -50.5 21t-20.5 51zM306 302h213
l-106 251z" />
    <glyph glyph-name="aogonek" unicode="&#x105;" horiz-adv-x="623" 
d="M374 -88q0 47 52 100q-21 18 -21 49v1q-65 -73 -170 -73q-82 0 -137.5 45.5t-55.5 125.5v2q0 88 61 132.5t164 44.5q71 0 139 -22v10q0 105 -123 105q-59 0 -112 -17q-12 -4 -22 -4q-26 0 -44.5 18t-18.5 44q0 45 41 59q79 30 178 30q123 0 187 -62q60 -60 60 -176v-257
q0 -31 -28 -59q-39 -38 -39 -70q0 -27 40 -39q37 -9 37 -36q0 -36 -48 -36q-65 0 -102.5 22t-37.5 63zM280 95q57 0 92.5 28.5t35.5 73.5v30q-49 21 -106 21q-53 0 -83 -21t-30 -59v-2q0 -33 25 -52t66 -19z" />
    <glyph glyph-name="Cacute" unicode="&#x106;" horiz-adv-x="776" 
d="M422 790q-17 0 -27.5 7t-10.5 19q0 11 10 27l57 90q23 34 58 34q29 0 57.5 -14.5t28.5 -31.5q0 -19 -21 -37l-65 -61q-35 -33 -87 -33zM433 -12q-160 0 -266.5 108t-106.5 266v2q0 158 107 267t272 109q146 0 245 -75q30 -23 30 -61q0 -31 -22 -53t-54 -22q-22 0 -46 15
q-72 55 -154 55q-93 0 -155 -68t-62 -165v-2q0 -98 61.5 -166.5t155.5 -68.5q89 0 163 60q20 17 46 17q29 0 50.5 -21t21.5 -50q0 -33 -26 -55q-105 -92 -260 -92z" />
    <glyph glyph-name="cacute" unicode="&#x107;" horiz-adv-x="602" 
d="M330 613q-17 0 -27.5 7t-10.5 19q0 11 10 27l57 90q23 34 58 34q29 0 57.5 -14.5t28.5 -31.5q0 -19 -21 -37l-65 -61q-35 -33 -87 -33zM338 -12q-124 0 -206.5 83.5t-82.5 203.5v2q0 120 82.5 204.5t208.5 84.5q116 0 190 -63q24 -17 24 -52q0 -28 -20 -48t-49 -20
q-25 0 -44 15q-47 37 -102 37q-61 0 -100.5 -45.5t-39.5 -110.5v-2q0 -68 40.5 -113.5t105.5 -45.5q58 0 107 41q19 14 42 14q26 0 45 -19t19 -46q0 -28 -22 -48q-79 -72 -198 -72z" />
    <glyph glyph-name="Cdotaccent" unicode="&#x10a;" horiz-adv-x="776" 
d="M507 866v-3q0 -32 -23.5 -52.5t-57.5 -20.5t-57.5 20.5t-23.5 52.5v3q0 33 23.5 53.5t57.5 20.5t57.5 -20.5t23.5 -53.5zM433 -12q-160 0 -266.5 108t-106.5 266v2q0 158 107 267t272 109q146 0 245 -75q30 -23 30 -61q0 -31 -22 -53t-54 -22q-22 0 -46 15
q-72 55 -154 55q-93 0 -155 -68t-62 -165v-2q0 -98 61.5 -166.5t155.5 -68.5q89 0 163 60q20 17 46 17q29 0 50.5 -21t21.5 -50q0 -33 -26 -55q-105 -92 -260 -92z" />
    <glyph glyph-name="cdotaccent" unicode="&#x10b;" horiz-adv-x="602" 
d="M414 689v-3q0 -32 -23.5 -52.5t-57.5 -20.5t-57.5 20.5t-23.5 52.5v3q0 33 23.5 53.5t57.5 20.5t57.5 -20.5t23.5 -53.5zM338 -12q-124 0 -206.5 83.5t-82.5 203.5v2q0 120 82.5 204.5t208.5 84.5q116 0 190 -63q24 -17 24 -52q0 -28 -20 -48t-49 -20q-25 0 -44 15
q-47 37 -102 37q-61 0 -100.5 -45.5t-39.5 -110.5v-2q0 -68 40.5 -113.5t105.5 -45.5q58 0 107 41q19 14 42 14q26 0 45 -19t19 -46q0 -28 -22 -48q-79 -72 -198 -72z" />
    <glyph glyph-name="Ccaron" unicode="&#x10c;" horiz-adv-x="776" 
d="M427 888l50 42q40 33 92 33q33 0 33 -24q0 -10 -15 -29l-66 -85q-28 -34 -71 -34h-48q-43 0 -71 34l-66 85q-15 19 -15 29q0 24 35 24q52 0 92 -33zM433 -12q-160 0 -266.5 108t-106.5 266v2q0 158 107 267t272 109q146 0 245 -75q30 -23 30 -61q0 -31 -22 -53t-54 -22
q-22 0 -46 15q-72 55 -154 55q-93 0 -155 -68t-62 -165v-2q0 -98 61.5 -166.5t155.5 -68.5q89 0 163 60q20 17 46 17q29 0 50.5 -21t21.5 -50q0 -33 -26 -55q-105 -92 -260 -92z" />
    <glyph glyph-name="ccaron" unicode="&#x10d;" horiz-adv-x="602" 
d="M334 711l50 42q40 33 92 33q33 0 33 -24q0 -10 -15 -29l-66 -85q-28 -34 -71 -34h-48q-43 0 -71 34l-66 85q-15 19 -15 29q0 24 35 24q52 0 92 -33zM338 -12q-124 0 -206.5 83.5t-82.5 203.5v2q0 120 82.5 204.5t208.5 84.5q116 0 190 -63q24 -17 24 -52q0 -28 -20 -48
t-49 -20q-25 0 -44 15q-47 37 -102 37q-61 0 -100.5 -45.5t-39.5 -110.5v-2q0 -68 40.5 -113.5t105.5 -45.5q58 0 107 41q19 14 42 14q26 0 45 -19t19 -46q0 -28 -22 -48q-79 -72 -198 -72z" />
    <glyph glyph-name="Dcaron" unicode="&#x10e;" horiz-adv-x="821" 
d="M398 878l50 42q40 33 92 33q33 0 33 -24q0 -10 -15 -29l-66 -85q-28 -34 -71 -34h-48q-43 0 -71 34l-66 85q-15 19 -15 29q0 24 35 24q52 0 92 -33zM93 77v574q0 32 22.5 54.5t54.5 22.5h204q170 0 278.5 -103.5t108.5 -258.5v-2q0 -156 -108.5 -260t-278.5 -104h-204
q-32 0 -54.5 22.5t-22.5 54.5zM246 139h128q101 0 163.5 62t62.5 161v2q0 99 -62.5 162t-163.5 63h-128v-450z" />
    <glyph glyph-name="dcaron" unicode="&#x10f;" horiz-adv-x="709" 
d="M686 580l1 134q0 22 14 36.5t37 14.5h21q37 0 37 -33q0 -13 -5 -24l-39 -135q-8 -28 -35 -28q-14 0 -22.5 9.5t-8.5 25.5zM343 437q-59 0 -99.5 -43.5t-40.5 -114.5v-2q0 -70 41 -114t99 -44t99 44t41 114v2q0 70 -41 114t-99 44zM633 689v-619q0 -32 -22.5 -54
t-53.5 -22t-53.5 22t-22.5 54v12q-68 -93 -176 -93q-104 0 -179 77.5t-75 210.5v2q0 133 74.5 210t179.5 77q106 0 176 -85v208q0 31 22.5 53.5t53.5 22.5t53.5 -22.5t22.5 -53.5z" />
    <glyph glyph-name="Dcroat" unicode="&#x110;" horiz-adv-x="852" 
d="M405 0h-204q-32 0 -54.5 22.5t-22.5 54.5v221h-16q-28 0 -48 20t-20 48t20 48t48 20h16v217q0 32 22.5 54.5t54.5 22.5h204q170 0 278.5 -103.5t108.5 -258.5v-2q0 -156 -108.5 -260t-278.5 -104zM276 139h129q102 0 164 62t62 161v2q0 100 -62.5 162.5t-163.5 62.5h-129
v-155h101q29 0 48.5 -20t19.5 -48t-19.5 -48t-48.5 -20h-101v-159z" />
    <glyph glyph-name="dcroat" unicode="&#x111;" horiz-adv-x="709" 
d="M343 437q-59 0 -99.5 -43.5t-40.5 -114.5v-2q0 -70 41 -114t99 -44t99 44t41 114v2q0 70 -41 114t-99 44zM481 82q-68 -93 -176 -93q-104 0 -179 77.5t-75 210.5v2q0 133 74.5 210t179.5 77q106 0 176 -85v138h-127q-17 0 -29.5 13t-12.5 30t12.5 29.5t29.5 12.5h129
q5 27 26 44t48 17t48 -17t26 -44h36q18 0 30.5 -12.5t12.5 -29.5t-12.5 -30t-30.5 -13h-34v-549q0 -32 -22.5 -54t-53.5 -22t-53.5 22t-22.5 54v12z" />
    <glyph glyph-name="Emacron" unicode="&#x112;" horiz-adv-x="705" 
d="M506 792h-276q-22 0 -38 15.5t-16 37.5t16 37.5t38 15.5h276q22 0 38 -15.5t16 -37.5t-16 -37.5t-38 -15.5zM170 0q-32 0 -54.5 22.5t-22.5 54.5v574q0 32 22.5 54.5t54.5 22.5h407q29 0 49 -20t20 -49q0 -28 -20 -48t-49 -20h-332v-156h285q28 0 48.5 -20.5t20.5 -48.5
t-20 -48t-49 -20h-285v-161h337q28 0 48.5 -20.5t20.5 -48.5t-20 -48t-49 -20h-412z" />
    <glyph glyph-name="emacron" unicode="&#x113;" horiz-adv-x="644" 
d="M457 625h-276q-22 0 -38 15.5t-16 37.5t16 37.5t38 15.5h276q22 0 38 -15.5t16 -37.5t-16 -37.5t-38 -15.5zM532 56q-79 -68 -194 -68q-125 0 -207 80t-82 207v2q0 121 77.5 205t196.5 84q66 0 119 -25t84 -65.5t47.5 -86t16.5 -91.5q0 -32 -20 -52.5t-51 -20.5h-319
q11 -56 47.5 -85.5t92.5 -29.5q65 0 116 39q16 12 37 12q25 0 42 -17t17 -43q0 -27 -20 -45zM198 320h247q-8 57 -39.5 90.5t-82.5 33.5q-50 0 -83 -33.5t-42 -90.5z" />
    <glyph glyph-name="Ebreve" unicode="&#x114;" horiz-adv-x="705" 
d="M368 784q-122 0 -171 87q-7 14 -7 30q0 22 15 37t37 15q29 0 45 -26q26 -43 81 -43t81 43q16 26 45 26q22 0 37 -15t15 -37q0 -16 -7 -30q-49 -87 -171 -87zM170 0q-32 0 -54.5 22.5t-22.5 54.5v574q0 32 22.5 54.5t54.5 22.5h407q29 0 49 -20t20 -49q0 -28 -20 -48
t-49 -20h-332v-156h285q28 0 48.5 -20.5t20.5 -48.5t-20 -48t-49 -20h-285v-161h337q28 0 48.5 -20.5t20.5 -48.5t-20 -48t-49 -20h-412z" />
    <glyph glyph-name="ebreve" unicode="&#x115;" horiz-adv-x="644" 
d="M319 617q-122 0 -171 87q-7 14 -7 30q0 22 15 37t37 15q29 0 45 -26q26 -43 81 -43t81 43q16 26 45 26q22 0 37 -15t15 -37q0 -16 -7 -30q-49 -87 -171 -87zM532 56q-79 -68 -194 -68q-125 0 -207 80t-82 207v2q0 121 77.5 205t196.5 84q66 0 119 -25t84 -65.5t47.5 -86
t16.5 -91.5q0 -32 -20 -52.5t-51 -20.5h-319q11 -56 47.5 -85.5t92.5 -29.5q65 0 116 39q16 12 37 12q25 0 42 -17t17 -43q0 -27 -20 -45zM198 320h247q-8 57 -39.5 90.5t-82.5 33.5q-50 0 -83 -33.5t-42 -90.5z" />
    <glyph glyph-name="Edotaccent" unicode="&#x116;" horiz-adv-x="705" 
d="M449 856v-3q0 -32 -23.5 -52.5t-57.5 -20.5t-57.5 20.5t-23.5 52.5v3q0 33 23.5 53.5t57.5 20.5t57.5 -20.5t23.5 -53.5zM170 0q-32 0 -54.5 22.5t-22.5 54.5v574q0 32 22.5 54.5t54.5 22.5h407q29 0 49 -20t20 -49q0 -28 -20 -48t-49 -20h-332v-156h285q28 0 48.5 -20.5
t20.5 -48.5t-20 -48t-49 -20h-285v-161h337q28 0 48.5 -20.5t20.5 -48.5t-20 -48t-49 -20h-412z" />
    <glyph glyph-name="edotaccent" unicode="&#x117;" horiz-adv-x="644" 
d="M400 689v-3q0 -32 -23.5 -52.5t-57.5 -20.5t-57.5 20.5t-23.5 52.5v3q0 33 23.5 53.5t57.5 20.5t57.5 -20.5t23.5 -53.5zM532 56q-79 -68 -194 -68q-125 0 -207 80t-82 207v2q0 121 77.5 205t196.5 84q66 0 119 -25t84 -65.5t47.5 -86t16.5 -91.5q0 -32 -20 -52.5
t-51 -20.5h-319q11 -56 47.5 -85.5t92.5 -29.5q65 0 116 39q16 12 37 12q25 0 42 -17t17 -43q0 -27 -20 -45zM198 320h247q-8 57 -39.5 90.5t-82.5 33.5q-50 0 -83 -33.5t-42 -90.5z" />
    <glyph glyph-name="Eogonek" unicode="&#x118;" horiz-adv-x="705" 
d="M170 0q-32 0 -54.5 22.5t-22.5 54.5v574q0 32 22.5 54.5t54.5 22.5h407q29 0 49 -20t20 -49q0 -28 -20 -48t-49 -20h-332v-156h285q28 0 48.5 -20.5t20.5 -48.5t-20 -48t-49 -20h-285v-161h337q28 0 48.5 -19.5t20.5 -45.5q0 -21 -8 -34t-30 -34q-36 -35 -36 -64t42 -41
q37 -9 37 -36q0 -36 -48 -36q-65 0 -103 22.5t-38 66.5q0 41 37 84h-334z" />
    <glyph glyph-name="eogonek" unicode="&#x119;" horiz-adv-x="644" 
d="M590 298q0 -32 -20 -52.5t-51 -20.5h-319q11 -56 47.5 -85.5t92.5 -29.5q65 0 116 39q16 12 37 12q25 0 42 -17t17 -43q0 -25 -20 -45q-8 -8 -21.5 -20.5t-23.5 -23.5q-34 -34 -34 -66q0 -20 10 -30t32 -17q37 -9 37 -36q0 -36 -48 -36q-65 0 -103 23t-38 67q0 33 34 73
q-26 -2 -39 -2q-125 0 -207 80t-82 207v2q0 121 77.5 205t196.5 84q66 0 119 -25t84 -65.5t47.5 -86t16.5 -91.5zM198 320h247q-8 57 -39.5 90.5t-82.5 33.5q-50 0 -83 -33.5t-42 -90.5z" />
    <glyph glyph-name="Ecaron" unicode="&#x11a;" horiz-adv-x="705" 
d="M369 878l50 42q40 33 92 33q33 0 33 -24q0 -10 -15 -29l-66 -85q-28 -34 -71 -34h-48q-43 0 -71 34l-66 85q-15 19 -15 29q0 24 35 24q52 0 92 -33zM170 0q-32 0 -54.5 22.5t-22.5 54.5v574q0 32 22.5 54.5t54.5 22.5h407q29 0 49 -20t20 -49q0 -28 -20 -48t-49 -20h-332
v-156h285q28 0 48.5 -20.5t20.5 -48.5t-20 -48t-49 -20h-285v-161h337q28 0 48.5 -20.5t20.5 -48.5t-20 -48t-49 -20h-412z" />
    <glyph glyph-name="ecaron" unicode="&#x11b;" horiz-adv-x="644" 
d="M320 711l50 42q40 33 92 33q33 0 33 -24q0 -10 -15 -29l-66 -85q-28 -34 -71 -34h-48q-43 0 -71 34l-66 85q-15 19 -15 29q0 24 35 24q52 0 92 -33zM532 56q-79 -68 -194 -68q-125 0 -207 80t-82 207v2q0 121 77.5 205t196.5 84q66 0 119 -25t84 -65.5t47.5 -86
t16.5 -91.5q0 -32 -20 -52.5t-51 -20.5h-319q11 -56 47.5 -85.5t92.5 -29.5q65 0 116 39q16 12 37 12q25 0 42 -17t17 -43q0 -27 -20 -45zM198 320h247q-8 57 -39.5 90.5t-82.5 33.5q-50 0 -83 -33.5t-42 -90.5z" />
    <glyph glyph-name="Gbreve" unicode="&#x11e;" horiz-adv-x="823" 
d="M432 794q-122 0 -171 87q-7 14 -7 30q0 22 15 37t37 15q29 0 45 -26q26 -43 81 -43t81 43q16 26 45 26q22 0 37 -15t15 -37q0 -16 -7 -30q-49 -87 -171 -87zM442 -12q-169 0 -275.5 105.5t-106.5 268.5v2q0 157 108.5 266.5t272.5 109.5q148 0 248 -71q32 -23 32 -62
q0 -31 -22.5 -53.5t-53.5 -22.5q-25 0 -47 16q-71 52 -162 52q-90 0 -152.5 -68.5t-62.5 -164.5v-2q0 -103 63.5 -170t162.5 -67q92 0 156 46v111h-116q-27 0 -47 19.5t-20 46.5q0 28 20 47.5t47 19.5h188q32 0 54.5 -22.5t22.5 -54.5v-181q0 -64 -54 -97q-117 -74 -256 -74
z" />
    <glyph glyph-name="gbreve" unicode="&#x11f;" horiz-adv-x="709" 
d="M342 617q-122 0 -171 87q-7 14 -7 30q0 22 15 37t37 15q29 0 45 -26q26 -43 81 -43t81 43q16 26 45 26q22 0 37 -15t15 -37q0 -16 -7 -30q-49 -87 -171 -87zM342 171q60 0 100.5 37.5t40.5 96.5v2q0 58 -40.5 95.5t-100.5 37.5t-99.5 -37t-39.5 -96v-2q0 -59 39.5 -96.5
t99.5 -37.5zM325 -168q-108 0 -206 40q-42 17 -42 59q0 25 18.5 43.5t43.5 18.5q13 0 25 -5q75 -35 157 -35q162 0 162 155v30q-38 -46 -81 -69.5t-103 -23.5q-103 0 -175.5 70.5t-72.5 189.5v2q0 118 73 188.5t175 70.5q106 0 182 -85v6q0 31 22.5 53t53.5 22t53.5 -22
t22.5 -54v-363q0 -146 -71 -217q-74 -74 -237 -74z" />
    <glyph glyph-name="Gdotaccent" unicode="&#x120;" horiz-adv-x="823" 
d="M513 866v-3q0 -32 -23.5 -52.5t-57.5 -20.5t-57.5 20.5t-23.5 52.5v3q0 33 23.5 53.5t57.5 20.5t57.5 -20.5t23.5 -53.5zM442 -12q-169 0 -275.5 105.5t-106.5 268.5v2q0 157 108.5 266.5t272.5 109.5q148 0 248 -71q32 -23 32 -62q0 -31 -22.5 -53.5t-53.5 -22.5
q-25 0 -47 16q-71 52 -162 52q-90 0 -152.5 -68.5t-62.5 -164.5v-2q0 -103 63.5 -170t162.5 -67q92 0 156 46v111h-116q-27 0 -47 19.5t-20 46.5q0 28 20 47.5t47 19.5h188q32 0 54.5 -22.5t22.5 -54.5v-181q0 -64 -54 -97q-117 -74 -256 -74z" />
    <glyph glyph-name="gdotaccent" unicode="&#x121;" horiz-adv-x="709" 
d="M423 689v-3q0 -32 -23.5 -52.5t-57.5 -20.5t-57.5 20.5t-23.5 52.5v3q0 33 23.5 53.5t57.5 20.5t57.5 -20.5t23.5 -53.5zM342 171q60 0 100.5 37.5t40.5 96.5v2q0 58 -40.5 95.5t-100.5 37.5t-99.5 -37t-39.5 -96v-2q0 -59 39.5 -96.5t99.5 -37.5zM325 -168
q-108 0 -206 40q-42 17 -42 59q0 25 18.5 43.5t43.5 18.5q13 0 25 -5q75 -35 157 -35q162 0 162 155v30q-38 -46 -81 -69.5t-103 -23.5q-103 0 -175.5 70.5t-72.5 189.5v2q0 118 73 188.5t175 70.5q106 0 182 -85v6q0 31 22.5 53t53.5 22t53.5 -22t22.5 -54v-363
q0 -146 -71 -217q-74 -74 -237 -74z" />
    <glyph glyph-name="Gcommaaccent" unicode="&#x122;" horiz-adv-x="823" 
d="M442 -12q-169 0 -275.5 105.5t-106.5 268.5v2q0 157 108.5 266.5t272.5 109.5q148 0 248 -71q32 -23 32 -62q0 -31 -22.5 -53.5t-53.5 -22.5q-25 0 -47 16q-71 52 -162 52q-90 0 -152.5 -68.5t-62.5 -164.5v-2q0 -103 63.5 -170t162.5 -67q92 0 156 46v111h-116
q-27 0 -47 19.5t-20 46.5q0 28 20 47.5t47 19.5h188q32 0 54.5 -22.5t22.5 -54.5v-181q0 -64 -54 -97q-117 -74 -256 -74zM437 -184q-64 11 -64 61v1q0 27 20 44t53 17q35 0 56 -22.5t21 -60.5v-3q0 -80 -52 -121q-39 -36 -98 -36q-32 0 -32 25q0 19 26 24q72 15 70 71z" />
    <glyph glyph-name="gcommaaccent" unicode="&#x123;" horiz-adv-x="709" 
d="M351 736q64 -11 64 -61v-1q0 -27 -20 -44t-53 -17q-35 0 -55.5 22.5t-20.5 59.5v4q0 78 51 121q41 36 98 36q32 0 32 -25q0 -19 -25 -25q-36 -7 -54 -25t-17 -45zM342 171q60 0 100.5 37.5t40.5 96.5v2q0 58 -40.5 95.5t-100.5 37.5t-99.5 -37t-39.5 -96v-2
q0 -59 39.5 -96.5t99.5 -37.5zM325 -168q-108 0 -206 40q-42 17 -42 59q0 25 18.5 43.5t43.5 18.5q13 0 25 -5q75 -35 157 -35q162 0 162 155v30q-38 -46 -81 -69.5t-103 -23.5q-103 0 -175.5 70.5t-72.5 189.5v2q0 118 73 188.5t175 70.5q106 0 182 -85v6q0 31 22.5 53
t53.5 22t53.5 -22t22.5 -54v-363q0 -146 -71 -217q-74 -74 -237 -74z" />
    <glyph glyph-name="Hbar" unicode="&#x126;" horiz-adv-x="802" 
d="M248 437h306v95h-306v-95zM708 71q0 -32 -22.5 -54.5t-54.5 -22.5t-54.5 22.5t-22.5 54.5v224h-306v-224q0 -32 -22 -54.5t-54 -22.5t-54.5 22.5t-22.5 54.5v461h-27q-22 0 -37.5 15.5t-15.5 37.5t15.5 37.5t37.5 15.5h27v19q0 32 22.5 54.5t54.5 22.5t54 -22.5t22 -54.5
v-19h306v19q0 32 22.5 54.5t54.5 22.5t54.5 -22.5t22.5 -54.5v-19h24q22 0 37.5 -15.5t15.5 -37.5t-15.5 -37.5t-37.5 -15.5h-24v-461z" />
    <glyph glyph-name="hbar" unicode="&#x127;" horiz-adv-x="655" 
d="M584 70q0 -32 -22 -54t-54 -22t-54 22t-22 54v241q0 57 -26 87.5t-74 30.5t-76 -30.5t-28 -87.5v-241q0 -32 -22 -54t-54 -22t-54 22t-22 54v549h-34q-17 0 -30 13t-13 30t13 29.5t30 12.5h36q5 27 26 44t48 17t48 -17t26 -44h129q17 0 29.5 -12.5t12.5 -29.5t-12.5 -30
t-29.5 -13h-127v-143q69 90 165 90q90 0 140.5 -55.5t50.5 -151.5v-289z" />
    <glyph glyph-name="Imacron" unicode="&#x12a;" horiz-adv-x="354" 
d="M315 792h-276q-22 0 -38 15.5t-16 37.5t16 37.5t38 15.5h276q22 0 38 -15.5t16 -37.5t-16 -37.5t-38 -15.5zM100 71v586q0 32 22.5 54.5t54.5 22.5t54.5 -22.5t22.5 -54.5v-586q0 -32 -22.5 -54.5t-54.5 -22.5t-54.5 22.5t-22.5 54.5z" />
    <glyph glyph-name="imacron" unicode="&#x12b;" horiz-adv-x="319" 
d="M297 625h-276q-22 0 -38 15.5t-16 37.5t16 37.5t38 15.5h276q22 0 38 -15.5t16 -37.5t-16 -37.5t-38 -15.5zM84 70v416q0 32 22 54t53 22t53.5 -22t22.5 -54v-416q0 -32 -22.5 -54t-53.5 -22t-53 22t-22 54z" />
    <glyph glyph-name="Ibreve" unicode="&#x12c;" horiz-adv-x="354" 
d="M177 784q-122 0 -171 87q-7 14 -7 30q0 22 15 37t37 15q29 0 45 -26q26 -43 81 -43t81 43q16 26 45 26q22 0 37 -15t15 -37q0 -16 -7 -30q-49 -87 -171 -87zM100 71v586q0 32 22.5 54.5t54.5 22.5t54.5 -22.5t22.5 -54.5v-586q0 -32 -22.5 -54.5t-54.5 -22.5t-54.5 22.5
t-22.5 54.5z" />
    <glyph glyph-name="ibreve" unicode="&#x12d;" horiz-adv-x="319" 
d="M159 617q-122 0 -171 87q-7 14 -7 30q0 22 15 37t37 15q29 0 45 -26q26 -43 81 -43t81 43q16 26 45 26q22 0 37 -15t15 -37q0 -16 -7 -30q-49 -87 -171 -87zM84 70v416q0 32 22 54t53 22t53.5 -22t22.5 -54v-416q0 -32 -22.5 -54t-53.5 -22t-53 22t-22 54z" />
    <glyph glyph-name="Iogonek" unicode="&#x12e;" horiz-adv-x="354" 
d="M79 -84q0 44 46 97q-25 23 -25 57v587q0 32 22.5 54.5t54.5 22.5t54.5 -22.5t22.5 -54.5v-587q0 -31 -29 -61q-37 -41 -37 -69q0 -29 43 -41q37 -9 37 -36q0 -36 -49 -36q-64 0 -102 22.5t-38 66.5z" />
    <glyph glyph-name="iogonek" unicode="&#x12f;" horiz-adv-x="319" 
d="M74 689v3q0 32 24 51.5t61 19.5t61 -19.5t24 -51.5v-3q0 -32 -24 -52t-61 -20t-61 20t-24 52zM235 486v-419q0 -31 -28 -59q-39 -39 -39 -70q0 -27 40 -39q37 -9 37 -36q0 -36 -48 -36q-64 0 -102 22t-38 63q0 51 53 100q-26 21 -26 57v417q0 32 22 54t53 22t53.5 -22
t22.5 -54z" />
    <glyph glyph-name="Idotaccent" unicode="&#x130;" horiz-adv-x="354" 
d="M258 856v-3q0 -32 -23.5 -52.5t-57.5 -20.5t-57.5 20.5t-23.5 52.5v3q0 33 23.5 53.5t57.5 20.5t57.5 -20.5t23.5 -53.5zM100 71v586q0 32 22.5 54.5t54.5 22.5t54.5 -22.5t22.5 -54.5v-586q0 -32 -22.5 -54.5t-54.5 -22.5t-54.5 22.5t-22.5 54.5z" />
    <glyph glyph-name="dotlessi" unicode="&#x131;" horiz-adv-x="319" 
d="M84 70v416q0 32 22 54t53 22t53.5 -22t22.5 -54v-416q0 -32 -22.5 -54t-53.5 -22t-53 22t-22 54z" />
    <glyph glyph-name="Kcommaaccent" unicode="&#x136;" horiz-adv-x="749" 
d="M93 71v586q0 32 22.5 54.5t54.5 22.5t54 -22.5t22 -54.5v-257l306 304q28 30 64 30q31 0 51 -21t20 -50q0 -32 -28 -58l-209 -196l228 -286q21 -26 21 -54q0 -32 -22 -53.5t-56 -21.5q-36 0 -65 37l-213 278l-97 -92v-146q0 -32 -22 -54.5t-54 -22.5t-54.5 22.5
t-22.5 54.5zM389 -174q-64 11 -64 61v1q0 27 20 44t53 17q35 0 56 -22.5t21 -60.5v-3q0 -80 -52 -121q-39 -36 -98 -36q-32 0 -32 25q0 19 26 24q72 15 70 71z" />
    <glyph glyph-name="kcommaaccent" unicode="&#x137;" horiz-adv-x="618" 
d="M76 70v619q0 31 22 53.5t54 22.5t54 -22.5t22 -53.5v-357l205 196q36 34 67 34q30 0 48.5 -20.5t18.5 -47.5q0 -33 -35 -66l-129 -112l152 -204q19 -26 19 -49q0 -30 -21 -49.5t-50 -19.5q-40 0 -65 35l-143 194l-67 -62v-91q0 -32 -22 -54t-54 -22t-54 22t-22 54z
M327 -179q-64 11 -64 61v1q0 27 20 44t53 17q35 0 56 -22.5t21 -60.5v-3q0 -80 -52 -121q-39 -36 -98 -36q-32 0 -32 25q0 19 26 24q72 15 70 71z" />
    <glyph glyph-name="Lacute" unicode="&#x139;" horiz-adv-x="652" 
d="M190 780q-17 0 -27.5 7t-10.5 19q0 11 10 27l57 90q23 34 58 34q29 0 57.5 -14.5t28.5 -31.5q0 -19 -21 -37l-65 -61q-35 -33 -87 -33zM93 77v580q0 32 22.5 54.5t54.5 22.5t54 -22.5t22 -54.5v-517h303q29 0 49.5 -20.5t20.5 -49.5t-20.5 -49.5t-49.5 -20.5h-379
q-32 0 -54.5 22.5t-22.5 54.5z" />
    <glyph glyph-name="lacute" unicode="&#x13a;" horiz-adv-x="319" 
d="M156 796q-17 0 -27.5 7t-10.5 19q0 11 10 27l57 90q23 34 58 34q29 0 57.5 -14.5t28.5 -31.5q0 -19 -21 -37l-65 -61q-35 -33 -87 -33zM84 70v619q0 32 22 54t53 22t53.5 -22.5t22.5 -53.5v-619q0 -32 -22.5 -54t-53.5 -22t-53 22t-22 54z" />
    <glyph glyph-name="Lcommaaccent" unicode="&#x13b;" horiz-adv-x="652" 
d="M93 77v580q0 32 22.5 54.5t54.5 22.5t54 -22.5t22 -54.5v-517h303q29 0 49.5 -20.5t20.5 -49.5t-20.5 -49.5t-49.5 -20.5h-379q-32 0 -54.5 22.5t-22.5 54.5zM357 -179q-64 11 -64 61v1q0 27 20 44t53 17q35 0 56 -22.5t21 -60.5v-3q0 -80 -52 -121q-39 -36 -98 -36
q-32 0 -32 25q0 19 26 24q72 15 70 71z" />
    <glyph glyph-name="lcommaaccent" unicode="&#x13c;" horiz-adv-x="319" 
d="M84 70v619q0 32 22 54t53 22t53.5 -22.5t22.5 -53.5v-619q0 -32 -22.5 -54t-53.5 -22t-53 22t-22 54zM164 -179q-64 11 -64 61v1q0 27 20 44t53 17q35 0 56 -22.5t21 -60.5v-3q0 -80 -52 -121q-39 -36 -98 -36q-32 0 -32 25q0 19 26 24q72 15 70 71z" />
    <glyph glyph-name="Lcaron" unicode="&#x13d;" horiz-adv-x="652" 
d="M93 77v580q0 32 22.5 54.5t54.5 22.5t54 -22.5t22 -54.5v-517h303q29 0 49.5 -20.5t20.5 -49.5t-20.5 -49.5t-49.5 -20.5h-379q-32 0 -54.5 22.5t-22.5 54.5zM329 544l1 134q0 22 14 36.5t37 14.5h21q37 0 37 -33q0 -13 -5 -24l-39 -135q-8 -28 -35 -28q-14 0 -22.5 9.5
t-8.5 25.5z" />
    <glyph glyph-name="lcaron" unicode="&#x13e;" horiz-adv-x="319" 
d="M84 70v619q0 32 22 54t53 22t53.5 -22.5t22.5 -53.5v-619q0 -32 -22.5 -54t-53.5 -22t-53 22t-22 54zM289 580l1 134q0 22 14 36.5t37 14.5h21q37 0 37 -33q0 -13 -5 -24l-39 -135q-8 -28 -35 -28q-14 0 -22.5 9.5t-8.5 25.5z" />
    <glyph glyph-name="Ldot" unicode="&#x13f;" horiz-adv-x="652" 
d="M93 77v580q0 32 22.5 54.5t54.5 22.5t54 -22.5t22 -54.5v-517h303q29 0 49.5 -20.5t20.5 -49.5t-20.5 -49.5t-49.5 -20.5h-379q-32 0 -54.5 22.5t-22.5 54.5zM586 398v-3q0 -32 -23.5 -52.5t-57.5 -20.5t-57.5 20.5t-23.5 52.5v3q0 33 23.5 53.5t57.5 20.5t57.5 -20.5
t23.5 -53.5z" />
    <glyph glyph-name="ldot" unicode="&#x140;" horiz-adv-x="411" 
d="M84 70v619q0 32 22 54t53 22t53.5 -22.5t22.5 -53.5v-619q0 -32 -22.5 -54t-53.5 -22t-53 22t-22 54zM425 398v-10q0 -27 -18 -45.5t-46 -18.5t-46 18.5t-18 45.5v10q0 27 18 45.5t46 18.5q27 0 45.5 -18.5t18.5 -45.5z" />
    <glyph glyph-name="Lslash" unicode="&#x141;" horiz-adv-x="683" 
d="M581 0h-380q-32 0 -54.5 22.5t-22.5 54.5v200q-12 -2 -16 -2q-28 0 -48 20t-20 49q0 24 13.5 41.5t35.5 23.5l35 10v238q0 32 22 54.5t54 22.5t54 -22.5t22 -54.5v-192l117 35q12 3 23 3q28 0 47.5 -20t19.5 -49q0 -24 -13.5 -41.5t-35.5 -23.5l-158 -47v-182h305
q29 0 49.5 -20.5t20.5 -49.5t-20.5 -49.5t-49.5 -20.5z" />
    <glyph glyph-name="lslash" unicode="&#x142;" horiz-adv-x="381" 
d="M191 -6q-31 0 -53 22t-22 54v225q-12 -3 -21 -3q-28 0 -47.5 20t-19.5 49q0 24 13.5 41.5t35.5 23.5q16 5 39 12v251q0 32 22 54t53 22t52.5 -22t21.5 -54v-208q12 3 21 3q28 0 48 -20t20 -48q0 -24 -13.5 -41.5t-35.5 -23.5l-40 -12v-269q0 -32 -21.5 -54t-52.5 -22z
" />
    <glyph glyph-name="Nacute" unicode="&#x143;" horiz-adv-x="830" 
d="M411 780q-17 0 -27.5 7t-10.5 19q0 11 10 27l57 90q23 34 58 34q29 0 57.5 -14.5t28.5 -31.5q0 -19 -21 -37l-65 -61q-35 -33 -87 -33zM93 70v585q0 32 22.5 54.5t54.5 22.5h16q46 0 79 -45l320 -418v389q0 32 22.5 54t53.5 22t53.5 -22t22.5 -54v-585q0 -32 -22.5 -54.5
t-54.5 -22.5h-5q-45 0 -80 45l-331 433v-404q0 -32 -22 -54t-54 -22q-31 0 -53 22.5t-22 53.5z" />
    <glyph glyph-name="nacute" unicode="&#x144;" horiz-adv-x="655" 
d="M326 613q-17 0 -27.5 7t-10.5 19q0 11 10 27l57 90q23 34 58 34q29 0 57.5 -14.5t28.5 -31.5q0 -19 -21 -37l-65 -61q-35 -33 -87 -33zM76 70v416q0 32 22 54t54 22t54 -22t22 -54v-10q69 90 165 90q90 0 140.5 -55.5t50.5 -151.5v-289q0 -32 -22 -54t-54 -22t-54 22
t-22 54v241q0 57 -26 87.5t-74 30.5t-76 -30.5t-28 -87.5v-241q0 -32 -22 -54t-54 -22t-54 22t-22 54z" />
    <glyph glyph-name="Ncommaaccent" unicode="&#x145;" horiz-adv-x="830" 
d="M93 70v585q0 32 22.5 54.5t54.5 22.5h16q46 0 79 -45l320 -418v389q0 32 22.5 54t53.5 22t53.5 -22t22.5 -54v-585q0 -32 -22.5 -54.5t-54.5 -22.5h-5q-45 0 -80 45l-331 433v-404q0 -32 -22 -54t-54 -22q-31 0 -53 22.5t-22 53.5zM419 -174q-64 11 -64 61v1q0 27 20 44
t53 17q35 0 56 -22.5t21 -60.5v-3q0 -80 -52 -121q-39 -36 -98 -36q-32 0 -32 25q0 19 26 24q72 15 70 71z" />
    <glyph glyph-name="ncommaaccent" unicode="&#x146;" horiz-adv-x="655" 
d="M76 70v416q0 32 22 54t54 22t54 -22t22 -54v-10q69 90 165 90q90 0 140.5 -55.5t50.5 -151.5v-289q0 -32 -22 -54t-54 -22t-54 22t-22 54v241q0 57 -26 87.5t-74 30.5t-76 -30.5t-28 -87.5v-241q0 -32 -22 -54t-54 -22t-54 22t-22 54zM334 -179q-64 11 -64 61v1
q0 27 20 44t53 17q35 0 56 -22.5t21 -60.5v-3q0 -80 -52 -121q-39 -36 -98 -36q-32 0 -32 25q0 19 26 24q72 15 70 71z" />
    <glyph glyph-name="Ncaron" unicode="&#x147;" horiz-adv-x="830" 
d="M416 878l50 42q40 33 92 33q33 0 33 -24q0 -10 -15 -29l-66 -85q-28 -34 -71 -34h-48q-43 0 -71 34l-66 85q-15 19 -15 29q0 24 35 24q52 0 92 -33zM93 70v585q0 32 22.5 54.5t54.5 22.5h16q46 0 79 -45l320 -418v389q0 32 22.5 54t53.5 22t53.5 -22t22.5 -54v-585
q0 -32 -22.5 -54.5t-54.5 -22.5h-5q-45 0 -80 45l-331 433v-404q0 -32 -22 -54t-54 -22q-31 0 -53 22.5t-22 53.5z" />
    <glyph glyph-name="ncaron" unicode="&#x148;" horiz-adv-x="655" 
d="M330 711l50 42q40 33 92 33q33 0 33 -24q0 -10 -15 -29l-66 -85q-28 -34 -71 -34h-48q-43 0 -71 34l-66 85q-15 19 -15 29q0 24 35 24q52 0 92 -33zM76 70v416q0 32 22 54t54 22t54 -22t22 -54v-10q69 90 165 90q90 0 140.5 -55.5t50.5 -151.5v-289q0 -32 -22 -54
t-54 -22t-54 22t-22 54v241q0 57 -26 87.5t-74 30.5t-76 -30.5t-28 -87.5v-241q0 -32 -22 -54t-54 -22t-54 22t-22 54z" />
    <glyph glyph-name="Omacron" unicode="&#x14c;" horiz-adv-x="892" 
d="M584 802h-276q-22 0 -38 15.5t-16 37.5t16 37.5t38 15.5h276q22 0 38 -15.5t16 -37.5t-16 -37.5t-38 -15.5zM445 -12q-166 0 -275.5 108.5t-109.5 265.5v2q0 157 110.5 266.5t276.5 109.5t275.5 -108.5t109.5 -265.5v-2q0 -157 -110.5 -266.5t-276.5 -109.5zM447 129
q97 0 160.5 67.5t63.5 165.5v2q0 98 -64.5 166.5t-161.5 68.5t-160.5 -67.5t-63.5 -165.5v-2q0 -98 64.5 -166.5t161.5 -68.5z" />
    <glyph glyph-name="omacron" unicode="&#x14d;" horiz-adv-x="697" 
d="M487 625h-276q-22 0 -38 15.5t-16 37.5t16 37.5t38 15.5h276q22 0 38 -15.5t16 -37.5t-16 -37.5t-38 -15.5zM347 -12q-127 0 -212.5 83t-85.5 204v2q0 120 86.5 204.5t214.5 84.5q127 0 212.5 -83.5t85.5 -203.5v-2q0 -121 -86 -205t-215 -84zM350 118q67 0 107.5 45.5
t40.5 111.5v2q0 65 -42.5 111.5t-108.5 46.5q-67 0 -107.5 -45t-40.5 -111v-2q0 -65 42.5 -112t108.5 -47z" />
    <glyph glyph-name="Obreve" unicode="&#x14e;" horiz-adv-x="892" 
d="M446 794q-122 0 -171 87q-7 14 -7 30q0 22 15 37t37 15q29 0 45 -26q26 -43 81 -43t81 43q16 26 45 26q22 0 37 -15t15 -37q0 -16 -7 -30q-49 -87 -171 -87zM445 -12q-166 0 -275.5 108.5t-109.5 265.5v2q0 157 110.5 266.5t276.5 109.5t275.5 -108.5t109.5 -265.5v-2
q0 -157 -110.5 -266.5t-276.5 -109.5zM447 129q97 0 160.5 67.5t63.5 165.5v2q0 98 -64.5 166.5t-161.5 68.5t-160.5 -67.5t-63.5 -165.5v-2q0 -98 64.5 -166.5t161.5 -68.5z" />
    <glyph glyph-name="obreve" unicode="&#x14f;" horiz-adv-x="697" 
d="M349 617q-122 0 -171 87q-7 14 -7 30q0 22 15 37t37 15q29 0 45 -26q26 -43 81 -43t81 43q16 26 45 26q22 0 37 -15t15 -37q0 -16 -7 -30q-49 -87 -171 -87zM347 -12q-127 0 -212.5 83t-85.5 204v2q0 120 86.5 204.5t214.5 84.5q127 0 212.5 -83.5t85.5 -203.5v-2
q0 -121 -86 -205t-215 -84zM350 118q67 0 107.5 45.5t40.5 111.5v2q0 65 -42.5 111.5t-108.5 46.5q-67 0 -107.5 -45t-40.5 -111v-2q0 -65 42.5 -112t108.5 -47z" />
    <glyph glyph-name="Ohungarumlaut" unicode="&#x150;" horiz-adv-x="892" 
d="M333 790q-36 0 -36 26q0 11 10 27l57 90q23 34 55 34q29 0 56.5 -14.5t27.5 -31.5t-20 -37l-65 -61q-35 -33 -85 -33zM534 790q-36 0 -36 26q0 11 10 27l57 90q23 34 55 34q29 0 56.5 -14.5t27.5 -31.5t-20 -37l-65 -61q-35 -33 -85 -33zM445 -12q-166 0 -275.5 108.5
t-109.5 265.5v2q0 157 110.5 266.5t276.5 109.5t275.5 -108.5t109.5 -265.5v-2q0 -157 -110.5 -266.5t-276.5 -109.5zM447 129q97 0 160.5 67.5t63.5 165.5v2q0 98 -64.5 166.5t-161.5 68.5t-160.5 -67.5t-63.5 -165.5v-2q0 -98 64.5 -166.5t161.5 -68.5z" />
    <glyph glyph-name="ohungarumlaut" unicode="&#x151;" horiz-adv-x="697" 
d="M236 613q-36 0 -36 26q0 11 10 27l57 90q23 34 55 34q29 0 56.5 -14.5t27.5 -31.5t-20 -37l-65 -61q-35 -33 -85 -33zM437 613q-36 0 -36 26q0 11 10 27l57 90q23 34 55 34q29 0 56.5 -14.5t27.5 -31.5t-20 -37l-65 -61q-35 -33 -85 -33zM347 -12q-127 0 -212.5 83
t-85.5 204v2q0 120 86.5 204.5t214.5 84.5q127 0 212.5 -83.5t85.5 -203.5v-2q0 -121 -86 -205t-215 -84zM350 118q67 0 107.5 45.5t40.5 111.5v2q0 65 -42.5 111.5t-108.5 46.5q-67 0 -107.5 -45t-40.5 -111v-2q0 -65 42.5 -112t108.5 -47z" />
    <glyph glyph-name="OE" unicode="&#x152;" horiz-adv-x="1131" 
d="M447 0q-170 0 -278.5 103.5t-108.5 258.5v2q0 156 108.5 260t278.5 104h556q29 0 49 -20t20 -49q0 -28 -20 -48t-49 -20h-306v-156h259q28 0 48.5 -20.5t20.5 -48.5t-20 -48t-49 -20h-259v-161h311q28 0 48.5 -20.5t20.5 -48.5t-20 -48t-49 -20h-561zM447 139h97v450h-97
q-101 0 -163.5 -62t-62.5 -161v-2q0 -99 62.5 -162t163.5 -63z" />
    <glyph glyph-name="oe" unicode="&#x153;" horiz-adv-x="1084" 
d="M972 56q-79 -68 -194 -68q-139 0 -223 98q-83 -98 -216 -98q-120 0 -205 83.5t-85 203.5v2q0 120 86.5 204.5t209.5 84.5q131 0 212 -96q78 96 206 96q66 0 119 -25t84 -65.5t47.5 -86t16.5 -91.5q0 -32 -20 -52.5t-51 -20.5h-319q11 -56 47.5 -85.5t92.5 -29.5
q65 0 116 39q16 12 37 12q25 0 42 -17t17 -43q0 -27 -20 -45zM638 320h247q-8 57 -39.5 90.5t-82.5 33.5q-50 0 -83 -33.5t-42 -90.5zM345 118q65 0 104.5 45.5t39.5 111.5v2q0 65 -41.5 111.5t-104.5 46.5q-65 0 -104.5 -45.5t-39.5 -110.5v-2q0 -65 41 -112t105 -47z" />
    <glyph glyph-name="Racute" unicode="&#x154;" horiz-adv-x="760" 
d="M390 780q-17 0 -27.5 7t-10.5 19q0 11 10 27l57 90q23 34 58 34q29 0 57.5 -14.5t28.5 -31.5q0 -19 -21 -37l-65 -61q-35 -33 -87 -33zM617 -6q-45 0 -76 40l-160 203h-135v-166q0 -32 -22 -54.5t-54 -22.5t-54.5 22.5t-22.5 54.5v580q0 32 22.5 54.5t54.5 22.5h254
q138 0 212 -74q61 -61 61 -164v-2q0 -163 -149 -221l117 -143q25 -32 25 -59q0 -31 -22 -51t-51 -20zM246 373h168q59 0 93.5 29t34.5 78v2q0 52 -34.5 79.5t-96.5 27.5h-165v-216z" />
    <glyph glyph-name="racute" unicode="&#x155;" horiz-adv-x="442" 
d="M237 613q-17 0 -27.5 7t-10.5 19q0 11 10 27l57 90q23 34 58 34q29 0 57.5 -14.5t28.5 -31.5q0 -19 -21 -37l-65 -61q-35 -33 -87 -33zM76 70v416q0 32 22 54t54 22t54 -22t22 -54v-31q20 46 49.5 76.5t63.5 30.5q35 0 54.5 -20.5t19.5 -53.5q0 -29 -16 -47t-41 -24
q-130 -29 -130 -197v-150q0 -32 -22 -54t-54 -22t-54 22t-22 54z" />
    <glyph glyph-name="Rcommaaccent" unicode="&#x156;" horiz-adv-x="760" 
d="M617 -6q-45 0 -76 40l-160 203h-135v-166q0 -32 -22 -54.5t-54 -22.5t-54.5 22.5t-22.5 54.5v580q0 32 22.5 54.5t54.5 22.5h254q138 0 212 -74q61 -61 61 -164v-2q0 -163 -149 -221l117 -143q25 -32 25 -59q0 -31 -22 -51t-51 -20zM246 373h168q59 0 93.5 29t34.5 78v2
q0 52 -34.5 79.5t-96.5 27.5h-165v-216zM398 -174q-64 11 -64 61v1q0 27 20 44t53 17q35 0 56 -22.5t21 -60.5v-3q0 -80 -52 -121q-39 -36 -98 -36q-32 0 -32 25q0 19 26 24q72 15 70 71z" />
    <glyph glyph-name="rcommaaccent" unicode="&#x157;" horiz-adv-x="442" 
d="M76 70v416q0 32 22 54t54 22t54 -22t22 -54v-31q20 46 49.5 76.5t63.5 30.5q35 0 54.5 -20.5t19.5 -53.5q0 -29 -16 -47t-41 -24q-130 -29 -130 -197v-150q0 -32 -22 -54t-54 -22t-54 22t-22 54zM148 -179q-64 11 -64 61v1q0 27 20 44t53 17q35 0 56 -22.5t21 -60.5v-3
q0 -80 -52 -121q-39 -36 -98 -36q-32 0 -32 25q0 19 26 24q72 15 70 71z" />
    <glyph glyph-name="Rcaron" unicode="&#x158;" horiz-adv-x="760" 
d="M394 878l50 42q40 33 92 33q33 0 33 -24q0 -10 -15 -29l-66 -85q-28 -34 -71 -34h-48q-43 0 -71 34l-66 85q-15 19 -15 29q0 24 35 24q52 0 92 -33zM617 -6q-45 0 -76 40l-160 203h-135v-166q0 -32 -22 -54.5t-54 -22.5t-54.5 22.5t-22.5 54.5v580q0 32 22.5 54.5
t54.5 22.5h254q138 0 212 -74q61 -61 61 -164v-2q0 -163 -149 -221l117 -143q25 -32 25 -59q0 -31 -22 -51t-51 -20zM246 373h168q59 0 93.5 29t34.5 78v2q0 52 -34.5 79.5t-96.5 27.5h-165v-216z" />
    <glyph glyph-name="rcaron" unicode="&#x159;" horiz-adv-x="442" 
d="M242 711l50 42q40 33 92 33q33 0 33 -24q0 -10 -15 -29l-66 -85q-28 -34 -71 -34h-48q-43 0 -71 34l-66 85q-15 19 -15 29q0 24 35 24q52 0 92 -33zM76 70v416q0 32 22 54t54 22t54 -22t22 -54v-31q20 46 49.5 76.5t63.5 30.5q35 0 54.5 -20.5t19.5 -53.5q0 -29 -16 -47
t-41 -24q-130 -29 -130 -197v-150q0 -32 -22 -54t-54 -22t-54 22t-22 54z" />
    <glyph glyph-name="Sacute" unicode="&#x15a;" horiz-adv-x="674" 
d="M337 790q-17 0 -27.5 7t-10.5 19q0 11 10 27l57 90q23 34 58 34q29 0 57.5 -14.5t28.5 -31.5q0 -19 -21 -37l-65 -61q-35 -33 -87 -33zM351 -10q-153 0 -274 88q-29 20 -29 58q0 30 21 50.5t51 20.5q24 0 44 -14q91 -68 190 -68q51 0 80.5 20t29.5 54v2q0 33 -30 53
t-120 43q-126 31 -184 77t-58 145v2q0 97 71 157t183 60q129 0 230 -65q34 -20 34 -61q0 -30 -21 -50.5t-51 -20.5q-20 0 -39 11q-82 51 -156 51q-46 0 -72 -19.5t-26 -48.5v-2q0 -37 31 -56t129 -44q119 -30 175.5 -79t56.5 -138v-2q0 -105 -73 -164.5t-193 -59.5z" />
    <glyph glyph-name="sacute" unicode="&#x15b;" horiz-adv-x="530" 
d="M264 613q-17 0 -27.5 7t-10.5 19q0 11 10 27l57 90q23 34 58 34q29 0 57.5 -14.5t28.5 -31.5q0 -19 -21 -37l-65 -61q-35 -33 -87 -33zM270 -10q-112 0 -209 63q-29 18 -29 52q0 26 17.5 43.5t42.5 17.5q16 0 30 -9q80 -50 152 -50q71 0 71 45v2q0 6 -1.5 11t-6 9.5
l-8.5 8.5t-12.5 7.5t-14 6.5t-17 6.5t-17.5 5.5t-19.5 6t-20.5 6q-35 10 -60.5 21t-52.5 30t-41 48t-14 67v2q0 81 58 128t145 47q86 0 172 -43q36 -18 36 -57q0 -25 -17.5 -42.5t-43.5 -17.5q-14 0 -28 7q-74 36 -123 36q-29 0 -45.5 -11.5t-16.5 -30.5v-2q0 -20 24 -33
t74 -30l18 -6q36 -11 60.5 -22.5t52 -30t42 -47t14.5 -64.5v-2q0 -88 -58.5 -133t-153.5 -45z" />
    <glyph glyph-name="Scedilla" unicode="&#x15e;" horiz-adv-x="674" 
d="M301 -172q-23 0 -54.5 17t-31.5 35q0 13 9 27l60 88q-114 16 -207 83q-29 20 -29 58q0 30 21 50.5t51 20.5q24 0 44 -14q91 -68 190 -68q51 0 80.5 20t29.5 54v2q0 33 -30 53t-120 43q-126 31 -184 77t-58 145v2q0 97 71 157t183 60q129 0 230 -65q34 -20 34 -61
q0 -30 -21 -50.5t-51 -20.5q-20 0 -39 11q-82 51 -156 51q-46 0 -72 -19.5t-26 -48.5v-2q0 -37 31 -56t129 -44q119 -30 175.5 -79t56.5 -138v-2q0 -94 -58.5 -151.5t-158.5 -69.5l-54 -133q-15 -32 -45 -32z" />
    <glyph glyph-name="scedilla" unicode="&#x15f;" horiz-adv-x="530" 
d="M218 -172q-23 0 -54.5 17t-31.5 35q0 13 9 27l62 89q-76 14 -142 57q-29 18 -29 52q0 26 17.5 43.5t42.5 17.5q16 0 30 -9q80 -50 152 -50q71 0 71 45v2q0 6 -1.5 11t-6 9.5l-8.5 8.5t-12.5 7.5t-14 6.5t-17 6.5t-17.5 5.5t-19.5 6t-20.5 6q-35 10 -60.5 21t-52.5 30
t-41 48t-14 67v2q0 81 58 128t145 47q86 0 172 -43q36 -18 36 -57q0 -25 -17.5 -42.5t-43.5 -17.5q-14 0 -28 7q-74 36 -123 36q-29 0 -45.5 -11.5t-16.5 -30.5v-2q0 -20 24 -33t74 -30l18 -6q36 -11 60.5 -22.5t52 -30t42 -47t14.5 -64.5v-2q0 -76 -45 -120.5t-120 -54.5
l-54 -133q-15 -32 -45 -32z" />
    <glyph glyph-name="Scaron" unicode="&#x160;" horiz-adv-x="674" 
d="M342 888l50 42q40 33 92 33q33 0 33 -24q0 -10 -15 -29l-66 -85q-28 -34 -71 -34h-48q-43 0 -71 34l-66 85q-15 19 -15 29q0 24 35 24q52 0 92 -33zM351 -10q-153 0 -274 88q-29 20 -29 58q0 30 21 50.5t51 20.5q24 0 44 -14q91 -68 190 -68q51 0 80.5 20t29.5 54v2
q0 33 -30 53t-120 43q-126 31 -184 77t-58 145v2q0 97 71 157t183 60q129 0 230 -65q34 -20 34 -61q0 -30 -21 -50.5t-51 -20.5q-20 0 -39 11q-82 51 -156 51q-46 0 -72 -19.5t-26 -48.5v-2q0 -37 31 -56t129 -44q119 -30 175.5 -79t56.5 -138v-2q0 -105 -73 -164.5
t-193 -59.5z" />
    <glyph glyph-name="scaron" unicode="&#x161;" horiz-adv-x="530" 
d="M269 711l50 42q40 33 92 33q33 0 33 -24q0 -10 -15 -29l-66 -85q-28 -34 -71 -34h-48q-43 0 -71 34l-66 85q-15 19 -15 29q0 24 35 24q52 0 92 -33zM270 -10q-112 0 -209 63q-29 18 -29 52q0 26 17.5 43.5t42.5 17.5q16 0 30 -9q80 -50 152 -50q71 0 71 45v2q0 6 -1.5 11
t-6 9.5l-8.5 8.5t-12.5 7.5t-14 6.5t-17 6.5t-17.5 5.5t-19.5 6t-20.5 6q-35 10 -60.5 21t-52.5 30t-41 48t-14 67v2q0 81 58 128t145 47q86 0 172 -43q36 -18 36 -57q0 -25 -17.5 -42.5t-43.5 -17.5q-14 0 -28 7q-74 36 -123 36q-29 0 -45.5 -11.5t-16.5 -30.5v-2
q0 -20 24 -33t74 -30l18 -6q36 -11 60.5 -22.5t52 -30t42 -47t14.5 -64.5v-2q0 -88 -58.5 -133t-153.5 -45z" />
    <glyph glyph-name="Tcommaaccent" unicode="&#x162;" horiz-adv-x="682" 
d="M264 71v515h-159q-29 0 -50 21t-21 50t21 50t50 21h472q29 0 49.5 -21t20.5 -50t-20.5 -50t-49.5 -21h-159v-515q0 -32 -22.5 -54.5t-54.5 -22.5t-54.5 22.5t-22.5 54.5zM346 -179q-64 11 -64 61v1q0 27 20 44t53 17q35 0 56 -22.5t21 -60.5v-3q0 -80 -52 -121
q-39 -36 -98 -36q-32 0 -32 25q0 19 26 24q72 15 70 71z" />
    <glyph glyph-name="Tcommaaccent" unicode="&#x21a;" horiz-adv-x="682" 
d="M264 71v515h-159q-29 0 -50 21t-21 50t21 50t50 21h472q29 0 49.5 -21t20.5 -50t-20.5 -50t-49.5 -21h-159v-515q0 -32 -22.5 -54.5t-54.5 -22.5t-54.5 22.5t-22.5 54.5zM346 -179q-64 11 -64 61v1q0 27 20 44t53 17q35 0 56 -22.5t21 -60.5v-3q0 -80 -52 -121
q-39 -36 -98 -36q-32 0 -32 25q0 19 26 24q72 15 70 71z" />
    <glyph glyph-name="tcommaaccent" unicode="&#x163;" horiz-adv-x="439" 
d="M264 -9q-78 0 -120 37.5t-42 128.5v269h-8q-27 0 -46 19t-19 46t19 46t46 19h8v74q0 32 22 54t54 22t54 -22t22 -54v-74h76q26 0 45.5 -19t19.5 -46t-19.5 -46t-45.5 -19h-76v-244q0 -57 54 -57q4 0 12 0.5t10 0.5q25 0 44 -18.5t19 -44.5q0 -20 -11.5 -35.5t-28.5 -21.5
q-38 -15 -89 -15zM240 -179q-64 11 -64 61v1q0 27 20 44t53 17q35 0 56 -22.5t21 -60.5v-3q0 -80 -52 -121q-39 -36 -98 -36q-32 0 -32 25q0 19 26 24q72 15 70 71z" />
    <glyph glyph-name="tcommaaccent" unicode="&#x21b;" horiz-adv-x="439" 
d="M264 -9q-78 0 -120 37.5t-42 128.5v269h-8q-27 0 -46 19t-19 46t19 46t46 19h8v74q0 32 22 54t54 22t54 -22t22 -54v-74h76q26 0 45.5 -19t19.5 -46t-19.5 -46t-45.5 -19h-76v-244q0 -57 54 -57q4 0 12 0.5t10 0.5q25 0 44 -18.5t19 -44.5q0 -20 -11.5 -35.5t-28.5 -21.5
q-38 -15 -89 -15zM240 -179q-64 11 -64 61v1q0 27 20 44t53 17q35 0 56 -22.5t21 -60.5v-3q0 -80 -52 -121q-39 -36 -98 -36q-32 0 -32 25q0 19 26 24q72 15 70 71z" />
    <glyph glyph-name="Tcaron" unicode="&#x164;" horiz-adv-x="682" 
d="M342 878l50 42q40 33 92 33q33 0 33 -24q0 -10 -15 -29l-66 -85q-28 -34 -71 -34h-48q-43 0 -71 34l-66 85q-15 19 -15 29q0 24 35 24q52 0 92 -33zM264 71v515h-159q-29 0 -50 21t-21 50t21 50t50 21h472q29 0 49.5 -21t20.5 -50t-20.5 -50t-49.5 -21h-159v-515
q0 -32 -22.5 -54.5t-54.5 -22.5t-54.5 22.5t-22.5 54.5z" />
    <glyph glyph-name="tcaron" unicode="&#x165;" horiz-adv-x="439" 
d="M326 643l1 134q0 22 14 36.5t37 14.5h21q37 0 37 -33q0 -13 -5 -24l-39 -135q-8 -28 -35 -28q-14 0 -22.5 9.5t-8.5 25.5zM264 -9q-78 0 -120 37.5t-42 128.5v269h-8q-27 0 -46 19t-19 46t19 46t46 19h8v74q0 32 22 54t54 22t54 -22t22 -54v-74h76q26 0 45.5 -19
t19.5 -46t-19.5 -46t-45.5 -19h-76v-244q0 -57 54 -57q4 0 12 0.5t10 0.5q25 0 44 -18.5t19 -44.5q0 -20 -11.5 -35.5t-28.5 -21.5q-38 -15 -89 -15z" />
    <glyph glyph-name="Umacron" unicode="&#x16a;" horiz-adv-x="794" 
d="M535 792h-276q-22 0 -38 15.5t-16 37.5t16 37.5t38 15.5h276q22 0 38 -15.5t16 -37.5t-16 -37.5t-38 -15.5zM395 -11q-148 0 -231 82.5t-83 239.5v346q0 32 22.5 54.5t54.5 22.5t54.5 -22.5t22.5 -54.5v-341q0 -90 42.5 -138t119.5 -48t120 46t43 134v347q0 32 22 54.5
t54 22.5t54.5 -22.5t22.5 -54.5v-340q0 -162 -84 -245t-234 -83z" />
    <glyph glyph-name="umacron" unicode="&#x16b;" horiz-adv-x="655" 
d="M463 625h-276q-22 0 -38 15.5t-16 37.5t16 37.5t38 15.5h276q22 0 38 -15.5t16 -37.5t-16 -37.5t-38 -15.5zM579 486v-416q0 -32 -22.5 -54t-53.5 -22t-53.5 22t-22.5 54v10q-68 -91 -165 -91q-89 0 -139.5 55.5t-50.5 152.5v289q0 32 22 54t54 22q31 0 53 -22.5
t22 -53.5v-241q0 -57 26 -87.5t74 -30.5t76 30.5t28 87.5v241q0 32 22.5 54t53.5 22t53.5 -22t22.5 -54z" />
    <glyph glyph-name="Ubreve" unicode="&#x16c;" horiz-adv-x="794" 
d="M397 779q-122 0 -171 87q-7 14 -7 30q0 22 15 37t37 15q29 0 45 -26q26 -43 81 -43t81 43q16 26 45 26q22 0 37 -15t15 -37q0 -16 -7 -30q-49 -87 -171 -87zM395 -11q-148 0 -231 82.5t-83 239.5v346q0 32 22.5 54.5t54.5 22.5t54.5 -22.5t22.5 -54.5v-341
q0 -90 42.5 -138t119.5 -48t120 46t43 134v347q0 32 22 54.5t54 22.5t54.5 -22.5t22.5 -54.5v-340q0 -162 -84 -245t-234 -83z" />
    <glyph glyph-name="ubreve" unicode="&#x16d;" horiz-adv-x="655" 
d="M325 617q-122 0 -171 87q-7 14 -7 30q0 22 15 37t37 15q29 0 45 -26q26 -43 81 -43t81 43q16 26 45 26q22 0 37 -15t15 -37q0 -16 -7 -30q-49 -87 -171 -87zM579 486v-416q0 -32 -22.5 -54t-53.5 -22t-53.5 22t-22.5 54v10q-68 -91 -165 -91q-89 0 -139.5 55.5
t-50.5 152.5v289q0 32 22 54t54 22q31 0 53 -22.5t22 -53.5v-241q0 -57 26 -87.5t74 -30.5t76 30.5t28 87.5v241q0 32 22.5 54t53.5 22t53.5 -22t22.5 -54z" />
    <glyph glyph-name="Uring" unicode="&#x16e;" horiz-adv-x="794" 
d="M397 769q-50 0 -87 35.5t-37 83.5v2q0 48 37 83.5t87 35.5t87 -35.5t37 -83.5v-2q0 -48 -37 -83.5t-87 -35.5zM397 824q26 0 45 19t19 45v2q0 26 -19 44.5t-45 18.5t-45 -18.5t-19 -44.5v-2q0 -26 19 -45t45 -19zM395 -11q-148 0 -231 82.5t-83 239.5v346q0 32 22.5 54.5
t54.5 22.5t54.5 -22.5t22.5 -54.5v-341q0 -90 42.5 -138t119.5 -48t120 46t43 134v347q0 32 22 54.5t54 22.5t54.5 -22.5t22.5 -54.5v-340q0 -162 -84 -245t-234 -83z" />
    <glyph glyph-name="uring" unicode="&#x16f;" horiz-adv-x="655" 
d="M325 617q-50 0 -87 35.5t-37 83.5v2q0 48 37 83.5t87 35.5t87 -35.5t37 -83.5v-2q0 -48 -37 -83.5t-87 -35.5zM325 672q26 0 45 19t19 45v2q0 26 -19 44.5t-45 18.5t-45 -18.5t-19 -44.5v-2q0 -26 19 -45t45 -19zM579 486v-416q0 -32 -22.5 -54t-53.5 -22t-53.5 22
t-22.5 54v10q-68 -91 -165 -91q-89 0 -139.5 55.5t-50.5 152.5v289q0 32 22 54t54 22q31 0 53 -22.5t22 -53.5v-241q0 -57 26 -87.5t74 -30.5t76 30.5t28 87.5v241q0 32 22.5 54t53.5 22t53.5 -22t22.5 -54z" />
    <glyph glyph-name="Uhungarumlaut" unicode="&#x170;" horiz-adv-x="794" 
d="M285 780q-36 0 -36 26q0 11 10 27l57 90q23 34 55 34q29 0 56.5 -14.5t27.5 -31.5t-20 -37l-65 -61q-35 -33 -85 -33zM486 780q-36 0 -36 26q0 11 10 27l57 90q23 34 55 34q29 0 56.5 -14.5t27.5 -31.5t-20 -37l-65 -61q-35 -33 -85 -33zM395 -11q-148 0 -231 82.5
t-83 239.5v346q0 32 22.5 54.5t54.5 22.5t54.5 -22.5t22.5 -54.5v-341q0 -90 42.5 -138t119.5 -48t120 46t43 134v347q0 32 22 54.5t54 22.5t54.5 -22.5t22.5 -54.5v-340q0 -162 -84 -245t-234 -83z" />
    <glyph glyph-name="uhungarumlaut" unicode="&#x171;" horiz-adv-x="655" 
d="M212 613q-36 0 -36 26q0 11 10 27l57 90q23 34 55 34q29 0 56.5 -14.5t27.5 -31.5t-20 -37l-65 -61q-35 -33 -85 -33zM413 613q-36 0 -36 26q0 11 10 27l57 90q23 34 55 34q29 0 56.5 -14.5t27.5 -31.5t-20 -37l-65 -61q-35 -33 -85 -33zM579 486v-416q0 -32 -22.5 -54
t-53.5 -22t-53.5 22t-22.5 54v10q-68 -91 -165 -91q-89 0 -139.5 55.5t-50.5 152.5v289q0 32 22 54t54 22q31 0 53 -22.5t22 -53.5v-241q0 -57 26 -87.5t74 -30.5t76 30.5t28 87.5v241q0 32 22.5 54t53.5 22t53.5 -22t22.5 -54z" />
    <glyph glyph-name="Uogonek" unicode="&#x172;" horiz-adv-x="794" 
d="M446 -173q-65 0 -103 22.5t-38 66.5q0 36 31 77q-121 15 -188 96.5t-67 221.5v346q0 32 22.5 54.5t54.5 22.5t54.5 -22.5t22.5 -54.5v-341q0 -90 42.5 -138t119.5 -48t120 46t43 134v347q0 32 22 54.5t54 22.5t54.5 -22.5t22.5 -54.5v-340q0 -150 -73 -232.5t-205 -93.5
q-20 -29 -20 -51q0 -29 42 -41q37 -9 37 -36q0 -36 -48 -36z" />
    <glyph glyph-name="uogonek" unicode="&#x173;" horiz-adv-x="655" 
d="M579 486v-419q0 -31 -28 -59q-39 -38 -39 -70q0 -27 40 -39q37 -9 37 -36q0 -36 -48 -36q-64 0 -102 22t-38 63q0 51 53 100q-27 22 -27 62v6q-68 -91 -165 -91q-89 0 -139.5 55.5t-50.5 152.5v289q0 32 22 54t54 22q31 0 53 -22.5t22 -53.5v-241q0 -57 26 -87.5
t74 -30.5t76 30.5t28 87.5v241q0 32 22.5 54t53.5 22t53.5 -22t22.5 -54z" />
    <glyph glyph-name="Wcircumflex" unicode="&#x174;" horiz-adv-x="1150" 
d="M574 855l-50 -42q-40 -33 -92 -33q-33 0 -33 24q0 10 15 29l66 85q28 34 71 34h48q43 0 71 -34l66 -85q15 -19 15 -29q0 -24 -35 -24q-52 0 -92 33zM253 52l-206 578q-6 18 -6 29q0 32 23 53.5t56 21.5q27 0 47 -15.5t28 -39.5l149 -457l149 453q20 61 78 61h12
q58 0 78 -61l149 -453l149 457q20 55 74 55q32 0 54 -21.5t22 -52.5q0 -12 -6 -30l-206 -578q-23 -63 -80 -63h-16q-57 0 -79 63l-147 428l-147 -428q-22 -63 -79 -63h-16q-57 0 -80 63z" />
    <glyph glyph-name="wcircumflex" unicode="&#x175;" horiz-adv-x="892" 
d="M444 688l-50 -42q-40 -33 -92 -33q-33 0 -33 24q0 10 15 29l66 85q28 34 71 34h48q43 0 71 -34l66 -85q15 -19 15 -29q0 -24 -35 -24q-52 0 -92 33zM265 -10q-60 0 -83 68l-139 398q-7 21 -7 37q0 28 20.5 48.5t52.5 20.5q55 0 74 -59l89 -293l92 292q19 61 77 61h9
q59 0 78 -61l92 -293l92 295q18 58 73 58q31 0 51 -20.5t20 -49.5q0 -14 -5 -31l-143 -403q-23 -68 -84 -68h-5q-60 0 -81 65l-93 290l-93 -290q-21 -65 -82 -65h-5z" />
    <glyph glyph-name="Ycircumflex" unicode="&#x176;" horiz-adv-x="725" 
d="M362 855l-50 -42q-40 -33 -92 -33q-33 0 -33 24q0 10 15 29l66 85q28 34 71 34h48q43 0 71 -34l66 -85q15 -19 15 -29q0 -24 -35 -24q-52 0 -92 33zM286 71v210l-238 324q-19 26 -19 55q0 31 22.5 52.5t54.5 21.5q44 0 76 -47l182 -262l185 264q31 46 73 46
q34 0 54.5 -21.5t20.5 -53.5q0 -26 -20 -54l-237 -322v-213q0 -32 -22.5 -54.5t-54.5 -22.5t-54.5 22.5t-22.5 54.5z" />
    <glyph glyph-name="ycircumflex" unicode="&#x177;" horiz-adv-x="618" 
d="M308 688l-50 -42q-40 -33 -92 -33q-33 0 -33 24q0 10 15 29l66 85q28 34 71 34h48q43 0 71 -34l66 -85q15 -19 15 -29q0 -24 -35 -24q-52 0 -92 33zM189 -170q-44 0 -87 15q-48 17 -48 63q0 27 18 44.5t42 17.5q14 0 26 -4q24 -7 35 -7q23 0 36 8t25 31l5 12l-193 444
q-8 20 -8 35q0 32 21 52.5t53 20.5q52 0 73 -57l127 -333l120 332q22 58 73 58q30 0 51 -20t21 -50q0 -20 -7 -36l-196 -470q-36 -86 -77 -121t-110 -35z" />
    <glyph glyph-name="Ydieresis" unicode="&#x178;" horiz-adv-x="725" 
d="M253 930q34 0 57 -21t23 -53v-3q0 -32 -23 -52.5t-57 -20.5q-33 0 -56 20.5t-23 52.5v3q0 32 23 53t56 21zM473 930q33 0 56 -21t23 -53v-3q0 -32 -23 -52.5t-56 -20.5q-34 0 -57 20.5t-23 52.5v3q0 32 23 53t57 21zM286 71v210l-238 324q-19 26 -19 55q0 31 22.5 52.5
t54.5 21.5q44 0 76 -47l182 -262l185 264q31 46 73 46q34 0 54.5 -21.5t20.5 -53.5q0 -26 -20 -54l-237 -322v-213q0 -32 -22.5 -54.5t-54.5 -22.5t-54.5 22.5t-22.5 54.5z" />
    <glyph glyph-name="Zacute" unicode="&#x179;" horiz-adv-x="743" 
d="M374 780q-17 0 -27.5 7t-10.5 19q0 11 10 27l57 90q23 34 58 34q29 0 57.5 -14.5t28.5 -31.5q0 -19 -21 -37l-65 -61q-35 -33 -87 -33zM132 0q-28 0 -48 20t-20 48v3q0 39 28 72l384 450h-332q-27 0 -47 19.5t-20 47.5t20 48t47 20h468q28 0 48 -20t20 -48v-3
q0 -38 -28 -72l-384 -450h344q28 0 48 -20t20 -48t-20 -47.5t-48 -19.5h-480z" />
    <glyph glyph-name="zacute" unicode="&#x17a;" horiz-adv-x="593" 
d="M295 613q-17 0 -27.5 7t-10.5 19q0 11 10 27l57 90q23 34 58 34q29 0 57.5 -14.5t28.5 -31.5q0 -19 -21 -37l-65 -61q-35 -33 -87 -33zM125 0q-32 0 -53 17t-21 44v3q0 37 34 74l265 295h-228q-26 0 -44 18t-18 43q0 26 18 44t44 18h349q32 0 53 -17t21 -44v-3
q0 -37 -34 -74l-266 -295h239q26 0 44 -18.5t18 -43.5t-18 -43t-44 -18h-359z" />
    <glyph glyph-name="Zdotaccent" unicode="&#x17b;" horiz-adv-x="743" 
d="M459 856v-3q0 -32 -23.5 -52.5t-57.5 -20.5t-57.5 20.5t-23.5 52.5v3q0 33 23.5 53.5t57.5 20.5t57.5 -20.5t23.5 -53.5zM132 0q-28 0 -48 20t-20 48v3q0 39 28 72l384 450h-332q-27 0 -47 19.5t-20 47.5t20 48t47 20h468q28 0 48 -20t20 -48v-3q0 -38 -28 -72l-384 -450
h344q28 0 48 -20t20 -48t-20 -47.5t-48 -19.5h-480z" />
    <glyph glyph-name="zdotaccent" unicode="&#x17c;" horiz-adv-x="593" 
d="M379 689v-3q0 -32 -23.5 -52.5t-57.5 -20.5t-57.5 20.5t-23.5 52.5v3q0 33 23.5 53.5t57.5 20.5t57.5 -20.5t23.5 -53.5zM125 0q-32 0 -53 17t-21 44v3q0 37 34 74l265 295h-228q-26 0 -44 18t-18 43q0 26 18 44t44 18h349q32 0 53 -17t21 -44v-3q0 -37 -34 -74
l-266 -295h239q26 0 44 -18.5t18 -43.5t-18 -43t-44 -18h-359z" />
    <glyph glyph-name="Zcaron" unicode="&#x17d;" horiz-adv-x="743" 
d="M379 878l50 42q40 33 92 33q33 0 33 -24q0 -10 -15 -29l-66 -85q-28 -34 -71 -34h-48q-43 0 -71 34l-66 85q-15 19 -15 29q0 24 35 24q52 0 92 -33zM132 0q-28 0 -48 20t-20 48v3q0 39 28 72l384 450h-332q-27 0 -47 19.5t-20 47.5t20 48t47 20h468q28 0 48 -20t20 -48
v-3q0 -38 -28 -72l-384 -450h344q28 0 48 -20t20 -48t-20 -47.5t-48 -19.5h-480z" />
    <glyph glyph-name="zcaron" unicode="&#x17e;" horiz-adv-x="593" 
d="M299 711l50 42q40 33 92 33q33 0 33 -24q0 -10 -15 -29l-66 -85q-28 -34 -71 -34h-48q-43 0 -71 34l-66 85q-15 19 -15 29q0 24 35 24q52 0 92 -33zM125 0q-32 0 -53 17t-21 44v3q0 37 34 74l265 295h-228q-26 0 -44 18t-18 43q0 26 18 44t44 18h349q32 0 53 -17t21 -44
v-3q0 -37 -34 -74l-266 -295h239q26 0 44 -18.5t18 -43.5t-18 -43t-44 -18h-359z" />
    <glyph glyph-name="florin" unicode="&#x192;" horiz-adv-x="564" 
d="M118 -8q-36 0 -56 17t-20 46q0 24 16 42t42 21t40 18t19 46l31 178h-16q-26 0 -44.5 18t-18.5 44t18.5 44.5t44.5 18.5h38l15 83q16 84 60.5 125.5t133.5 41.5q18 0 50 -2q23 -2 40 -20t17 -43q0 -26 -18.5 -44.5t-44.5 -18.5h-14q-66 0 -79 -72l-8 -50h65
q26 0 44.5 -18.5t18.5 -44.5t-18.5 -44t-44.5 -18h-87l-36 -202q-15 -88 -61.5 -127t-126.5 -39z" />
    <glyph glyph-name="Aringacute" unicode="&#x1fa;" horiz-adv-x="830" 
d="M411 949q-17 0 -27.5 7t-10.5 19q0 11 10 27l57 90q23 34 58 34q29 0 57.5 -14.5t28.5 -31.5q0 -19 -21 -37l-65 -61q-35 -33 -87 -33zM493 713l273 -614q8 -18 8 -31q0 -31 -21 -52.5t-52 -21.5q-51 0 -74 53l-51 119h-327l-53 -124q-21 -48 -71 -48q-30 0 -50.5 21
t-20.5 51q0 13 9 33l273 614q-46 37 -46 91v2q0 48 37.5 84t87.5 36t87 -35.5t37 -84.5v-2q0 -55 -46 -91zM415 741q26 0 45 18.5t19 44.5v2q0 26 -19 45t-45 19q-27 0 -46 -19t-19 -45v-2q0 -25 19.5 -44t45.5 -19zM306 302h213l-106 251z" />
    <glyph glyph-name="aringacute" unicode="&#x1fb;" horiz-adv-x="623" 
d="M309 887q-17 0 -27.5 7t-10.5 19q0 11 10 27l57 90q23 34 58 34q29 0 57.5 -14.5t28.5 -31.5q0 -19 -21 -37l-65 -61q-35 -33 -87 -33zM313 617q-50 0 -87 35.5t-37 83.5v2q0 48 37 83.5t87 35.5t87 -35.5t37 -83.5v-2q0 -48 -37 -83.5t-87 -35.5zM313 672q26 0 45 19
t19 45v2q0 26 -19 44.5t-45 18.5t-45 -18.5t-19 -44.5v-2q0 -26 19 -45t45 -19zM280 95q57 0 92.5 28.5t35.5 73.5v30q-49 21 -106 21q-53 0 -83 -21t-30 -59v-2q0 -33 25 -52t66 -19zM235 -11q-82 0 -137.5 45.5t-55.5 125.5v2q0 88 61 132.5t164 44.5q71 0 139 -22v10
q0 105 -123 105q-59 0 -112 -17q-12 -4 -22 -4q-26 0 -44.5 18t-18.5 44q0 45 41 59q79 30 178 30q123 0 187 -62q60 -60 60 -176v-257q0 -31 -21.5 -52t-52.5 -21q-32 0 -52.5 19t-20.5 44v5q-65 -73 -170 -73z" />
    <glyph glyph-name="AEacute" unicode="&#x1fc;" horiz-adv-x="1095" 
d="M634 780q-17 0 -27.5 7t-10.5 19q0 11 10 27l57 90q23 34 58 34q29 0 57.5 -14.5t28.5 -31.5q0 -19 -21 -37l-65 -61q-35 -33 -87 -33zM324 302h184v293h-18zM38 56q0 22 12 44l331 574q31 54 92 54h494q29 0 49 -20t20 -49q0 -28 -20 -48t-49 -20h-306v-156h259
q28 0 48.5 -20.5t20.5 -48.5t-20 -48t-49 -20h-259v-161h311q28 0 48.5 -20.5t20.5 -48.5t-20 -48t-49 -20h-387q-32 0 -54.5 22.5t-22.5 54.5v89h-261l-74 -130q-24 -42 -67 -42q-29 0 -48.5 17.5t-19.5 44.5z" />
    <glyph glyph-name="aeacute" unicode="&#x1fd;" horiz-adv-x="997" 
d="M489 613q-17 0 -27.5 7t-10.5 19q0 11 10 27l57 90q23 34 58 34q29 0 57.5 -14.5t28.5 -31.5q0 -19 -21 -37l-65 -61q-35 -33 -87 -33zM551 320h247q-7 56 -39 90t-83 34q-50 0 -83 -33.5t-42 -90.5zM886 56q-79 -68 -194 -68q-132 0 -213 86q-112 -85 -227 -85
q-92 0 -151 46t-59 125v2q0 88 61 132.5t164 44.5q70 0 138 -22v10q0 105 -122 105q-63 0 -112 -17q-12 -4 -22 -4q-26 0 -44.5 18t-18.5 44q0 45 41 59q75 30 177 30q134 0 190 -74q73 78 186 78q64 0 116 -25t83 -65.5t47.5 -86t16.5 -91.5q0 -32 -20.5 -52.5t-50.5 -20.5
h-319q11 -56 48 -85.5t93 -29.5q65 0 115 39q17 12 38 12q25 0 42 -17t17 -43q0 -27 -20 -45zM279 97q78 0 147 56q-16 36 -20 75q-51 20 -104 20t-83 -21t-30 -59v-2q0 -31 26 -50t64 -19z" />
    <glyph glyph-name="Oslashacute" unicode="&#x1fe;" horiz-adv-x="892" 
d="M442 790q-17 0 -27.5 7t-10.5 19q0 11 10 27l57 90q23 34 58 34q29 0 57.5 -14.5t28.5 -31.5q0 -19 -21 -37l-65 -61q-35 -33 -87 -33zM445 -12q-126 0 -223 66l-44 -44q-21 -21 -46 -21q-23 0 -38 14.5t-15 33.5q0 25 22 47l41 43q-82 101 -82 235v2q0 157 110.5 266.5
t276.5 109.5q126 0 223 -66l44 44q21 21 46 21q23 0 38 -14.5t15 -33.5q0 -25 -22 -47l-41 -43q82 -101 82 -235v-2q0 -157 -110.5 -266.5t-276.5 -109.5zM218 364q0 -67 33 -125l316 327q-53 36 -122 36q-98 0 -162.5 -69t-64.5 -167v-2zM447 126q98 0 162.5 69t64.5 167v2
q0 67 -33 125l-316 -327q53 -36 122 -36z" />
    <glyph glyph-name="oslashacute" unicode="&#x1ff;" horiz-adv-x="697" 
d="M345 613q-17 0 -27.5 7t-10.5 19q0 11 10 27l57 90q23 34 58 34q29 0 57.5 -14.5t28.5 -31.5q0 -19 -21 -37l-65 -61q-35 -33 -87 -33zM195 277q0 -39 15 -72l212 215q-35 19 -75 19q-69 0 -110.5 -46t-41.5 -114v-2zM350 115q69 0 110.5 46t41.5 114v2q0 39 -15 71
l-211 -214q33 -19 74 -19zM156 9q-22 -22 -46 -22q-19 0 -33 13t-14 31q0 25 22 47l23 23q-59 75 -59 174v2q0 120 86.5 204.5t214.5 84.5q91 0 166 -46l25 25q22 22 46 22q19 0 33 -13t14 -31q0 -25 -22 -47l-23 -23q59 -77 59 -174v-2q0 -121 -86 -205t-215 -84
q-91 0 -166 46z" />
    <glyph glyph-name="Scommaaccent" unicode="&#x218;" horiz-adv-x="674" 
d="M351 -10q-153 0 -274 88q-29 20 -29 58q0 30 21 50.5t51 20.5q24 0 44 -14q91 -68 190 -68q51 0 80.5 20t29.5 54v2q0 33 -30 53t-120 43q-126 31 -184 77t-58 145v2q0 97 71 157t183 60q129 0 230 -65q34 -20 34 -61q0 -30 -21 -50.5t-51 -20.5q-20 0 -39 11
q-82 51 -156 51q-46 0 -72 -19.5t-26 -48.5v-2q0 -37 31 -56t129 -44q119 -30 175.5 -79t56.5 -138v-2q0 -105 -73 -164.5t-193 -59.5zM346 -184q-64 11 -64 61v1q0 27 20 44t53 17q35 0 56 -22.5t21 -60.5v-3q0 -80 -52 -121q-39 -36 -98 -36q-32 0 -32 25q0 19 26 24
q72 15 70 71z" />
    <glyph glyph-name="scommaaccent" unicode="&#x219;" horiz-adv-x="530" 
d="M270 -10q-112 0 -209 63q-29 18 -29 52q0 26 17.5 43.5t42.5 17.5q16 0 30 -9q80 -50 152 -50q71 0 71 45v2q0 6 -1.5 11t-6 9.5l-8.5 8.5t-12.5 7.5t-14 6.5t-17 6.5t-17.5 5.5t-19.5 6t-20.5 6q-35 10 -60.5 21t-52.5 30t-41 48t-14 67v2q0 81 58 128t145 47
q86 0 172 -43q36 -18 36 -57q0 -25 -17.5 -42.5t-43.5 -17.5q-14 0 -28 7q-74 36 -123 36q-29 0 -45.5 -11.5t-16.5 -30.5v-2q0 -20 24 -33t74 -30l18 -6q36 -11 60.5 -22.5t52 -30t42 -47t14.5 -64.5v-2q0 -88 -58.5 -133t-153.5 -45zM273 -179q-64 11 -64 61v1q0 27 20 44
t53 17q35 0 56 -22.5t21 -60.5v-3q0 -80 -52 -121q-39 -36 -98 -36q-32 0 -32 25q0 19 26 24q72 15 70 71z" />
    <glyph glyph-name="schwa" unicode="&#x259;" horiz-adv-x="644" 
d="M111 500q81 68 195 68q125 0 207 -80.5t82 -206.5v-2q0 -121 -77.5 -205.5t-196.5 -84.5q-66 0 -119 25.5t-84 65.5t-47.5 86t-16.5 92q0 32 20 52.5t51 20.5h319q-11 55 -48 85t-92 30q-65 0 -116 -39q-18 -13 -37 -13q-26 0 -43 17.5t-17 43.5q0 25 20 45zM446 235
h-247q7 -56 39 -89.5t83 -33.5q50 0 83 33t42 90z" />
    <glyph glyph-name="circumflex" unicode="&#x2c6;" 
d="M263 688l-50 -42q-40 -33 -92 -33q-33 0 -33 24q0 10 15 29l66 85q28 34 71 34h48q43 0 71 -34l66 -85q15 -19 15 -29q0 -24 -35 -24q-52 0 -92 33z" />
    <glyph glyph-name="caron" unicode="&#x2c7;" 
d="M265 711l50 42q40 33 92 33q33 0 33 -24q0 -10 -15 -29l-66 -85q-28 -34 -71 -34h-48q-43 0 -71 34l-66 85q-15 19 -15 29q0 24 35 24q52 0 92 -33z" />
    <glyph glyph-name="breve" unicode="&#x2d8;" 
d="M264 617q-122 0 -171 87q-7 14 -7 30q0 22 15 37t37 15q29 0 45 -26q26 -43 81 -43t81 43q16 26 45 26q22 0 37 -15t15 -37q0 -16 -7 -30q-49 -87 -171 -87z" />
    <glyph glyph-name="dotaccent" unicode="&#x2d9;" 
d="M345 689v-3q0 -32 -23.5 -52.5t-57.5 -20.5t-57.5 20.5t-23.5 52.5v3q0 33 23.5 53.5t57.5 20.5t57.5 -20.5t23.5 -53.5z" />
    <glyph glyph-name="ring" unicode="&#x2da;" 
d="M264 617q-50 0 -87 35.5t-37 83.5v2q0 48 37 83.5t87 35.5t87 -35.5t37 -83.5v-2q0 -48 -37 -83.5t-87 -35.5zM264 672q26 0 45 19t19 45v2q0 26 -19 44.5t-45 18.5t-45 -18.5t-19 -44.5v-2q0 -26 19 -45t45 -19z" />
    <glyph glyph-name="ogonek" unicode="&#x2db;" 
d="M189 -84q0 42 46 95l101 -1q-37 -38 -37 -70q0 -29 42 -41q37 -9 37 -36q0 -36 -48 -36q-65 0 -103 22.5t-38 66.5z" />
    <glyph glyph-name="tilde" unicode="&#x2dc;" 
d="M145 629q-15 -24 -39 -24q-19 0 -32.5 12.5t-13.5 29.5q0 14 5 27q19 49 45 74.5t70 25.5q35 0 87 -20.5t67 -20.5q31 0 49 31q15 24 39 24q19 0 32.5 -12.5t13.5 -29.5q0 -14 -5 -27q-19 -49 -45 -74.5t-70 -25.5q-35 0 -87 20t-67 20q-32 0 -49 -30z" />
    <glyph glyph-name="hungarumlaut" unicode="&#x2dd;" 
d="M101 613q-36 0 -36 26q0 11 10 27l57 90q23 34 55 34q29 0 56.5 -14.5t27.5 -31.5t-20 -37l-65 -61q-35 -33 -85 -33zM302 613q-36 0 -36 26q0 11 10 27l57 90q23 34 55 34q29 0 56.5 -14.5t27.5 -31.5t-20 -37l-65 -61q-35 -33 -85 -33z" />
    <glyph glyph-name="commaaccent" unicode="&#x326;" 
d="M254 -179q-64 11 -64 61v1q0 27 20 44t53 17q35 0 56 -22.5t21 -60.5v-3q0 -80 -52 -121q-39 -36 -98 -36q-32 0 -32 25q0 19 26 24q72 15 70 71z" />
    <glyph glyph-name="Wgrave" unicode="&#x1e80;" horiz-adv-x="1150" 
d="M579 780q-52 0 -87 33l-65 61q-21 18 -21 37q0 17 28.5 31.5t57.5 14.5q35 0 58 -34l57 -90q10 -16 10 -27q0 -12 -10.5 -19t-27.5 -7zM253 52l-206 578q-6 18 -6 29q0 32 23 53.5t56 21.5q27 0 47 -15.5t28 -39.5l149 -457l149 453q20 61 78 61h12q58 0 78 -61l149 -453
l149 457q20 55 74 55q32 0 54 -21.5t22 -52.5q0 -12 -6 -30l-206 -578q-23 -63 -80 -63h-16q-57 0 -79 63l-147 428l-147 -428q-22 -63 -79 -63h-16q-57 0 -80 63z" />
    <glyph glyph-name="wgrave" unicode="&#x1e81;" horiz-adv-x="892" 
d="M449 613q-52 0 -87 33l-65 61q-21 18 -21 37q0 17 28.5 31.5t57.5 14.5q35 0 58 -34l57 -90q10 -16 10 -27q0 -12 -10.5 -19t-27.5 -7zM265 -10q-60 0 -83 68l-139 398q-7 21 -7 37q0 28 20.5 48.5t52.5 20.5q55 0 74 -59l89 -293l92 292q19 61 77 61h9q59 0 78 -61
l92 -293l92 295q18 58 73 58q31 0 51 -20.5t20 -49.5q0 -14 -5 -31l-143 -403q-23 -68 -84 -68h-5q-60 0 -81 65l-93 290l-93 -290q-21 -65 -82 -65h-5z" />
    <glyph glyph-name="Wacute" unicode="&#x1e82;" horiz-adv-x="1150" 
d="M571 780q-17 0 -27.5 7t-10.5 19q0 11 10 27l57 90q23 34 58 34q29 0 57.5 -14.5t28.5 -31.5q0 -19 -21 -37l-65 -61q-35 -33 -87 -33zM253 52l-206 578q-6 18 -6 29q0 32 23 53.5t56 21.5q27 0 47 -15.5t28 -39.5l149 -457l149 453q20 61 78 61h12q58 0 78 -61l149 -453
l149 457q20 55 74 55q32 0 54 -21.5t22 -52.5q0 -12 -6 -30l-206 -578q-23 -63 -80 -63h-16q-57 0 -79 63l-147 428l-147 -428q-22 -63 -79 -63h-16q-57 0 -80 63z" />
    <glyph glyph-name="wacute" unicode="&#x1e83;" horiz-adv-x="892" 
d="M442 613q-17 0 -27.5 7t-10.5 19q0 11 10 27l57 90q23 34 58 34q29 0 57.5 -14.5t28.5 -31.5q0 -19 -21 -37l-65 -61q-35 -33 -87 -33zM265 -10q-60 0 -83 68l-139 398q-7 21 -7 37q0 28 20.5 48.5t52.5 20.5q55 0 74 -59l89 -293l92 292q19 61 77 61h9q59 0 78 -61
l92 -293l92 295q18 58 73 58q31 0 51 -20.5t20 -49.5q0 -14 -5 -31l-143 -403q-23 -68 -84 -68h-5q-60 0 -81 65l-93 290l-93 -290q-21 -65 -82 -65h-5z" />
    <glyph glyph-name="Wdieresis" unicode="&#x1e84;" horiz-adv-x="1150" 
d="M465 930q34 0 57 -21t23 -53v-3q0 -32 -23 -52.5t-57 -20.5q-33 0 -56 20.5t-23 52.5v3q0 32 23 53t56 21zM685 930q33 0 56 -21t23 -53v-3q0 -32 -23 -52.5t-56 -20.5q-34 0 -57 20.5t-23 52.5v3q0 32 23 53t57 21zM253 52l-206 578q-6 18 -6 29q0 32 23 53.5t56 21.5
q27 0 47 -15.5t28 -39.5l149 -457l149 453q20 61 78 61h12q58 0 78 -61l149 -453l149 457q20 55 74 55q32 0 54 -21.5t22 -52.5q0 -12 -6 -30l-206 -578q-23 -63 -80 -63h-16q-57 0 -79 63l-147 428l-147 -428q-22 -63 -79 -63h-16q-57 0 -80 63z" />
    <glyph glyph-name="wdieresis" unicode="&#x1e85;" horiz-adv-x="892" 
d="M335 763q34 0 57 -21t23 -53v-3q0 -32 -23 -52.5t-57 -20.5q-33 0 -56 20.5t-23 52.5v3q0 32 23 53t56 21zM555 763q33 0 56 -21t23 -53v-3q0 -32 -23 -52.5t-56 -20.5q-34 0 -57 20.5t-23 52.5v3q0 32 23 53t57 21zM265 -10q-60 0 -83 68l-139 398q-7 21 -7 37
q0 28 20.5 48.5t52.5 20.5q55 0 74 -59l89 -293l92 292q19 61 77 61h9q59 0 78 -61l92 -293l92 295q18 58 73 58q31 0 51 -20.5t20 -49.5q0 -14 -5 -31l-143 -403q-23 -68 -84 -68h-5q-60 0 -81 65l-93 290l-93 -290q-21 -65 -82 -65h-5z" />
    <glyph glyph-name="Ygrave" unicode="&#x1ef2;" horiz-adv-x="725" 
d="M366 780q-52 0 -87 33l-65 61q-21 18 -21 37q0 17 28.5 31.5t57.5 14.5q35 0 58 -34l57 -90q10 -16 10 -27q0 -12 -10.5 -19t-27.5 -7zM286 71v210l-238 324q-19 26 -19 55q0 31 22.5 52.5t54.5 21.5q44 0 76 -47l182 -262l185 264q31 46 73 46q34 0 54.5 -21.5
t20.5 -53.5q0 -26 -20 -54l-237 -322v-213q0 -32 -22.5 -54.5t-54.5 -22.5t-54.5 22.5t-22.5 54.5z" />
    <glyph glyph-name="ygrave" unicode="&#x1ef3;" horiz-adv-x="618" 
d="M313 613q-52 0 -87 33l-65 61q-21 18 -21 37q0 17 28.5 31.5t57.5 14.5q35 0 58 -34l57 -90q10 -16 10 -27q0 -12 -10.5 -19t-27.5 -7zM189 -170q-44 0 -87 15q-48 17 -48 63q0 27 18 44.5t42 17.5q14 0 26 -4q24 -7 35 -7q23 0 36 8t25 31l5 12l-193 444q-8 20 -8 35
q0 32 21 52.5t53 20.5q52 0 73 -57l127 -333l120 332q22 58 73 58q30 0 51 -20t21 -50q0 -20 -7 -36l-196 -470q-36 -86 -77 -121t-110 -35z" />
    <glyph glyph-name="enspace" unicode="&#x2002;" horiz-adv-x="500" 
 />
    <glyph glyph-name="emspace" unicode="&#x2003;" horiz-adv-x="1000" 
 />
    <glyph glyph-name="threeperemspace" unicode="&#x2004;" horiz-adv-x="333" 
 />
    <glyph glyph-name="fourperemspace" unicode="&#x2005;" horiz-adv-x="250" 
 />
    <glyph glyph-name="thinspace" unicode="&#x2009;" horiz-adv-x="133" 
 />
    <glyph glyph-name="hairspace" unicode="&#x200a;" horiz-adv-x="75" 
 />
    <glyph glyph-name="endash" unicode="&#x2013;" horiz-adv-x="557" 
d="M122 251q-29 0 -50 21t-21 50t21 50t50 21h313q29 0 50 -21t21 -50t-21 -50t-50 -21h-313z" />
    <glyph glyph-name="emdash" unicode="&#x2014;" horiz-adv-x="942" 
d="M122 251q-29 0 -50 21t-21 50t21 50t50 21h698q29 0 50 -21t21 -50t-21 -50t-50 -21h-698z" />
    <glyph glyph-name="quoteleft" unicode="&#x2018;" horiz-adv-x="302" 
d="M271 699q0 -26 -30 -33q-39 -10 -59.5 -35.5t-18.5 -62.5q29 -7 49.5 -29.5t20.5 -52.5v-3q0 -36 -23 -59.5t-60 -23.5q-42 0 -65.5 30t-23.5 82v5q0 108 59 167q22 23 53 36t60 13q38 0 38 -34z" />
    <glyph glyph-name="quoteright" unicode="&#x2019;" horiz-adv-x="302" 
d="M31 436q0 26 30 33q81 20 78 97q-29 7 -49.5 29.5t-20.5 53.5v3q0 36 23 59t60 23q42 0 65.5 -30t23.5 -81v-6q0 -106 -59 -167q-49 -49 -113 -49q-38 0 -38 35z" />
    <glyph glyph-name="quotesinglbase" unicode="&#x201a;" horiz-adv-x="302" 
d="M26 -131q0 26 30 33q39 10 59.5 35.5t18.5 62.5q-29 7 -49.5 29.5t-20.5 52.5v4q0 36 23 59t60 23q42 0 65.5 -30t23.5 -82v-5q0 -108 -59 -167q-51 -49 -113 -49q-38 0 -38 34z" />
    <glyph glyph-name="quotedblleft" unicode="&#x201c;" horiz-adv-x="561" 
d="M271 699q0 -26 -30 -33q-39 -10 -59.5 -35.5t-18.5 -62.5q29 -7 49.5 -29.5t20.5 -52.5v-3q0 -36 -23 -59.5t-60 -23.5q-42 0 -65.5 30t-23.5 82v5q0 108 59 167q22 23 53 36t60 13q38 0 38 -34zM530 699q0 -26 -29 -33q-40 -10 -60.5 -35.5t-18.5 -62.5
q29 -7 49.5 -29.5t20.5 -52.5v-3q0 -36 -23 -59.5t-60 -23.5q-42 0 -65.5 30t-23.5 82v5q0 109 60 167q22 23 53 36t59 13q38 0 38 -34z" />
    <glyph glyph-name="quotedblright" unicode="&#x201d;" horiz-adv-x="561" 
d="M291 436q0 26 30 33q81 20 78 97q-29 7 -49.5 29.5t-20.5 53.5v3q0 36 23 59t60 23q42 0 65.5 -30t23.5 -81v-6q0 -106 -59 -167q-51 -49 -113 -49q-38 0 -38 35zM31 436q0 26 30 33q81 20 78 97q-29 7 -49.5 29.5t-20.5 53.5v3q0 36 23 59t60 23q42 0 65.5 -30t23.5 -81
v-6q0 -106 -59 -167q-49 -49 -113 -49q-38 0 -38 35z" />
    <glyph glyph-name="quotedblbase" unicode="&#x201e;" horiz-adv-x="561" 
d="M285 -131q0 26 30 33q82 21 79 98q-29 7 -50 29t-21 53v4q0 36 23.5 59t60.5 23q41 0 65 -30t24 -82v-5q0 -109 -60 -167q-22 -22 -53.5 -35.5t-58.5 -13.5q-19 0 -29 9.5t-10 24.5zM26 -131q0 26 30 33q39 10 59.5 35.5t18.5 62.5q-29 7 -49.5 29.5t-20.5 52.5v4
q0 36 23 59t60 23q42 0 65.5 -30t23.5 -82v-5q0 -108 -59 -167q-51 -49 -113 -49q-38 0 -38 34z" />
    <glyph glyph-name="dagger" unicode="&#x2020;" horiz-adv-x="434" 
d="M176 286l9 243l-88 -7q-18 -1 -30.5 10.5t-12.5 29.5q0 17 12 28t30 10l88 -7l-9 93q-2 20 10.5 34t31.5 14t32 -14t11 -34l-9 -93l87 7q18 1 30.5 -10t12.5 -28q0 -18 -12.5 -29.5t-31.5 -10.5l-87 7l9 -242q1 -19 -11.5 -32.5t-30.5 -13.5t-30 13t-11 32z" />
    <glyph glyph-name="daggerdbl" unicode="&#x2021;" horiz-adv-x="455" 
d="M185 42l9 93l-87 -7q-18 -1 -30.5 10t-12.5 28q0 18 12.5 29.5t31.5 10.5l86 -7l-9 165l9 165l-86 -7q-19 -1 -31.5 10.5t-12.5 29.5q0 17 12.5 28t30.5 10l87 -7l-9 93q-2 20 11 34t32 14t31.5 -14t10.5 -34l-9 -93l88 7q18 1 30 -10t12 -28q0 -18 -12.5 -29.5
t-30.5 -10.5l-87 7l9 -165l-9 -165l87 7q18 1 30.5 -10.5t12.5 -29.5q0 -17 -12 -28t-30 -10l-88 7l9 -93q2 -20 -10.5 -34t-31.5 -14t-32 14t-11 34z" />
    <glyph glyph-name="bullet" unicode="&#x2022;" horiz-adv-x="526" 
d="M263 213q-63 0 -108 44.5t-45 107.5v2q0 63 45 107.5t108 44.5t108 -44.5t45 -107.5v-2q0 -63 -45 -107.5t-108 -44.5z" />
    <glyph glyph-name="ellipsis" unicode="&#x2026;" horiz-adv-x="872" 
d="M64 83q0 36 24 60.5t61 24.5t61 -24.5t24 -60.5v-4q0 -36 -24 -60.5t-61 -24.5t-61 24.5t-24 60.5v4zM351 83q0 36 24 60.5t61 24.5t61 -24.5t24 -60.5v-4q0 -36 -24 -60.5t-61 -24.5t-61 24.5t-24 60.5v4zM638 83q0 36 24 60.5t61 24.5t61 -24.5t24 -60.5v-4
q0 -36 -24 -60.5t-61 -24.5t-61 24.5t-24 60.5v4z" />
    <glyph glyph-name="perthousand" unicode="&#x2030;" horiz-adv-x="1295" 
d="M226 364q-77 0 -126 53t-49 131v2q0 79 49.5 132.5t127.5 53.5q77 0 126 -53t49 -131v-2q0 -78 -49.5 -132t-127.5 -54zM167 41q0 15 11 32l467 640q15 21 41 21q20 0 34 -14t14 -33q0 -18 -11 -32l-468 -640q-15 -21 -41 -21q-20 0 -33.5 14t-13.5 33zM228 456
q32 0 50.5 26.5t18.5 65.5v2q0 39 -20 67t-51 28q-32 0 -50.5 -27t-18.5 -66v-2q0 -39 20 -66.5t51 -27.5zM672 -8q-77 0 -126 53t-49 131v2q0 78 49.5 132t127.5 54q77 0 126 -53.5t49 -130.5v-2q0 -78 -50 -132t-127 -54zM1067 -8q-77 0 -126 53t-49 131v2q0 78 49.5 132
t127.5 54q77 0 126 -53.5t49 -130.5v-2q0 -78 -50 -132t-127 -54zM674 83q32 0 50.5 27t18.5 66v2q0 39 -20 66.5t-51 27.5q-32 0 -50.5 -26.5t-18.5 -65.5v-2q0 -39 20 -67t51 -28zM1069 83q32 0 50.5 27t18.5 66v2q0 39 -20 66.5t-51 27.5q-32 0 -50.5 -26.5t-18.5 -65.5
v-2q0 -39 20 -67t51 -28z" />
    <glyph glyph-name="guilsinglleft" unicode="&#x2039;" horiz-adv-x="392" 
d="M256 43q-32 0 -52 26l-130 167q-18 23 -18 42q0 20 18 41l126 163q23 30 57 30q25 0 42.5 -18.5t17.5 -44.5q0 -20 -17 -41l-102 -129l105 -133q15 -19 15 -40q0 -26 -18 -44.5t-44 -18.5z" />
    <glyph glyph-name="guilsinglright" unicode="&#x203a;" horiz-adv-x="392" 
d="M136 512q32 0 52 -26l130 -168q18 -21 18 -41q0 -19 -18 -42l-126 -162q-23 -30 -57 -30q-25 0 -42.5 18.5t-17.5 44.5q0 20 17 41l102 129l-105 133q-15 19 -15 40q0 26 18 44.5t44 18.5z" />
    <glyph glyph-name="fraction" unicode="&#x2044;" horiz-adv-x="503" 
d="M-34 -51q0 14 10 32l426 783q16 30 52 30q24 0 41.5 -16.5t17.5 -40.5q0 -16 -9 -32l-426 -783q-16 -30 -52 -30q-24 0 -42 16.5t-18 40.5z" />
    <glyph glyph-name="Euro" unicode="&#x20ac;" horiz-adv-x="757" 
d="M458 -12q-116 0 -195.5 64.5t-111.5 174.5h-50q-21 0 -36.5 15t-15.5 36t15.5 36t36.5 15h33q-1 11 -1 34q0 14 2 40h-34q-21 0 -36.5 15t-15.5 36t15.5 36t36.5 15h53q33 107 111.5 171t189.5 64q137 0 227 -97q21 -21 21 -52q0 -30 -22 -51t-52 -21q-32 0 -53 23
q-54 62 -125 62q-95 0 -137 -99h152q21 0 36.5 -15t15.5 -36t-15.5 -36t-36.5 -15h-176q-1 -12 -1 -38q0 -24 1 -36h176q21 0 36.5 -15t15.5 -36t-15.5 -36t-36.5 -15h-154q42 -103 146 -103q39 0 67.5 16.5t58.5 50.5q21 24 52 24q28 0 48.5 -20.5t20.5 -48.5
q0 -25 -15 -44q-93 -114 -232 -114z" />
    <glyph glyph-name="published" unicode="&#x2117;" horiz-adv-x="871" 
d="M435 -12q-158 0 -267 109.5t-109 264.5v2q0 155 110.5 265.5t267.5 110.5t266 -109.5t109 -264.5v-2q0 -155 -110 -265.5t-267 -110.5zM435 28q141 0 237.5 98.5t96.5 237.5v2q0 140 -95.5 237t-236.5 97q-142 0 -238.5 -98.5t-96.5 -237.5v-2q0 -140 95.5 -237
t237.5 -97zM298 209v318q0 18 12.5 30.5t31.5 12.5h119q71 0 112.5 -37.5t41.5 -99.5v-2q0 -66 -46 -102t-116 -36h-68v-84q0 -19 -12.5 -31.5t-30.5 -12.5q-19 0 -31.5 12.5t-12.5 31.5zM385 369h70q33 0 52.5 17t19.5 44v2q0 30 -20 46t-54 16h-68v-125z" />
    <glyph glyph-name="servicemark" unicode="&#x2120;" horiz-adv-x="739" 
d="M376 435v263q0 14 10 24t24 10h8q21 0 32 -18l86 -142l89 142q11 18 30 18h8q14 0 24 -10t10 -24v-263q0 -13 -10 -23t-24 -10q-13 0 -23 10t-10 23v171l-65 -100q-12 -19 -29 -19q-16 0 -29 19l-64 98v-169q0 -13 -10 -23t-24 -10q-13 0 -23 10t-10 23zM180 402
q-70 0 -127 38q-16 11 -16 27q0 13 8.5 21.5t21.5 8.5q9 0 20 -7q48 -33 97 -33q58 0 58 36q0 16 -15 25.5t-58 19.5q-60 14 -89.5 34t-29.5 62q0 45 32.5 72.5t88.5 27.5q63 0 109 -29q17 -11 17 -28q0 -13 -8.5 -22t-21.5 -9q-11 0 -19 5q-42 25 -79 25q-25 0 -38.5 -9.5
t-13.5 -24.5q0 -16 15.5 -25.5t58.5 -19.5q57 -12 87 -34t30 -62q0 -46 -35 -72.5t-93 -26.5z" />
    <glyph glyph-name="trademark" unicode="&#x2122;" horiz-adv-x="726" 
d="M362 435v263q0 14 10 24t24 10h8q21 0 32 -18l86 -142l89 142q11 18 30 18h8q14 0 24 -10t10 -24v-263q0 -14 -10 -23.5t-24 -9.5q-13 0 -23 10t-10 23v171l-65 -100q-12 -19 -29 -19q-16 0 -29 19l-64 98v-169q0 -14 -10 -23.5t-24 -9.5q-13 0 -23 10t-10 23zM127 437
v228h-71q-13 0 -22 9.5t-9 22.5t9 22t22 9h213q13 0 22 -9t9 -22t-9 -22.5t-22 -9.5h-71v-228q0 -14 -10.5 -24.5t-24.5 -10.5q-15 0 -25.5 10.5t-10.5 24.5z" />
    <glyph glyph-name="minus" unicode="&#x2212;" horiz-adv-x="672" 
d="M533 295h-394q-29 0 -49.5 20.5t-20.5 49.5t20.5 50t49.5 21h394q29 0 50 -21t21 -50t-21 -49.5t-50 -20.5z" />
    <glyph glyph-name="Q.alt" horiz-adv-x="892" 
d="M735 -112q-43 0 -81 41l-73 82q-64 -23 -136 -23q-166 0 -275.5 108.5t-109.5 265.5v2q0 157 110.5 266.5t276.5 109.5t275.5 -108.5t109.5 -265.5v-2q0 -155 -106 -261l61 -65q33 -33 33 -67q0 -36 -25.5 -59.5t-59.5 -23.5zM671 362v2q0 98 -64.5 166.5t-161.5 68.5
t-160.5 -67.5t-63.5 -165.5v-2q0 -98 64.5 -166.5t161.5 -68.5t160.5 67.5t63.5 165.5z" />
    <glyph glyph-name="registered.alt" horiz-adv-x="871" 
d="M435 -12q-158 0 -267 109.5t-109 264.5v2q0 155 110.5 265.5t267.5 110.5t266 -109.5t109 -264.5v-2q0 -155 -110 -265.5t-267 -110.5zM435 28q141 0 237.5 98.5t96.5 237.5v2q0 140 -95.5 237t-236.5 97q-142 0 -238.5 -98.5t-96.5 -237.5v-2q0 -140 95.5 -237
t237.5 -97zM571 169q-21 0 -36 19l-94 118h-74v-94q0 -18 -13 -30.5t-30 -12.5q-18 0 -30.5 12.5t-12.5 30.5v320q0 17 12.5 29.5t30.5 12.5h135q80 0 123 -43q33 -33 33 -86v-2q0 -88 -83 -121l68 -82q11 -14 11 -29q0 -18 -12 -30t-28 -12zM367 380h90q34 0 52.5 16
t18.5 42v2q0 28 -19.5 43.5t-52.5 15.5h-89v-119z" />
    <glyph glyph-name="i.dot" horiz-adv-x="319" 
d="M74 689v3q0 32 24 51.5t61 19.5t61 -19.5t24 -51.5v-3q0 -32 -24 -52t-61 -20t-61 20t-24 52zM84 70v416q0 32 22 54t53 22t53.5 -22t22.5 -54v-416q0 -32 -22.5 -54t-53.5 -22t-53 22t-22 54z" />
    <glyph glyph-name="caron.alt" 
d="M214 575l1 134q0 22 14 36.5t37 14.5h21q37 0 37 -33q0 -13 -5 -24l-39 -135q-8 -28 -35 -28q-14 0 -22.5 9.5t-8.5 25.5z" />
    <glyph glyph-name="acute.cap" 
d="M217 613q-17 0 -27.5 7t-10.5 19q0 11 10 27l57 90q23 34 58 34q29 0 57.5 -14.5t28.5 -31.5q0 -19 -21 -37l-65 -61q-35 -33 -87 -33z" />
    <glyph glyph-name="hungarumlaut.cap" 
d="M101 613q-36 0 -36 26q0 11 10 27l57 90q23 34 55 34q29 0 56.5 -14.5t27.5 -31.5t-20 -37l-65 -61q-35 -33 -85 -33zM302 613q-36 0 -36 26q0 11 10 27l57 90q23 34 55 34q29 0 56.5 -14.5t27.5 -31.5t-20 -37l-65 -61q-35 -33 -85 -33z" />
    <glyph glyph-name="caron.alt.cap" 
d="M214 575l1 134q0 22 14 36.5t37 14.5h21q37 0 37 -33q0 -13 -5 -24l-39 -135q-8 -28 -35 -28q-14 0 -22.5 9.5t-8.5 25.5z" />
    <glyph glyph-name="grave.cap" 
d="M311 613q-52 0 -87 33l-65 61q-21 18 -21 37q0 17 28.5 31.5t57.5 14.5q35 0 58 -34l57 -90q10 -16 10 -27q0 -12 -10.5 -19t-27.5 -7z" />
    <glyph glyph-name="circumflex.cap" 
d="M263 688l-50 -42q-40 -33 -92 -33q-33 0 -33 24q0 10 15 29l66 85q28 34 71 34h48q43 0 71 -34l66 -85q15 -19 15 -29q0 -24 -35 -24q-52 0 -92 33z" />
    <glyph glyph-name="caron.cap" 
d="M265 711l50 42q40 33 92 33q33 0 33 -24q0 -10 -15 -29l-66 -85q-28 -34 -71 -34h-48q-43 0 -71 34l-66 85q-15 19 -15 29q0 24 35 24q52 0 92 -33z" />
    <glyph glyph-name="breve.cap" 
d="M264 617q-122 0 -171 87q-7 14 -7 30q0 22 15 37t37 15q29 0 45 -26q26 -43 81 -43t81 43q16 26 45 26q22 0 37 -15t15 -37q0 -16 -7 -30q-49 -87 -171 -87z" />
    <glyph glyph-name="tilde.cap" 
d="M145 629q-15 -24 -39 -24q-19 0 -32.5 12.5t-13.5 29.5q0 14 5 27q19 49 45 74.5t70 25.5q35 0 87 -20.5t67 -20.5q31 0 49 31q15 24 39 24q19 0 32.5 -12.5t13.5 -29.5q0 -14 -5 -27q-19 -49 -45 -74.5t-70 -25.5q-35 0 -87 20t-67 20q-32 0 -49 -30z" />
    <glyph glyph-name="macron.cap" 
d="M402 625h-276q-22 0 -38 15.5t-16 37.5t16 37.5t38 15.5h276q22 0 38 -15.5t16 -37.5t-16 -37.5t-38 -15.5z" />
    <glyph glyph-name="dieresis.cap" 
d="M154 763q34 0 57 -21t23 -53v-3q0 -32 -23 -52.5t-57 -20.5q-33 0 -56 20.5t-23 52.5v3q0 32 23 53t56 21zM374 763q33 0 56 -21t23 -53v-3q0 -32 -23 -52.5t-56 -20.5q-34 0 -57 20.5t-23 52.5v3q0 32 23 53t57 21z" />
    <glyph glyph-name="dotaccent.cap" 
d="M345 689v-3q0 -32 -23.5 -52.5t-57.5 -20.5t-57.5 20.5t-23.5 52.5v3q0 33 23.5 53.5t57.5 20.5t57.5 -20.5t23.5 -53.5z" />
    <glyph glyph-name="ring.cap" 
d="M264 617q-50 0 -87 35.5t-37 83.5v2q0 48 37 83.5t87 35.5t87 -35.5t37 -83.5v-2q0 -48 -37 -83.5t-87 -35.5zM264 672q26 0 45 19t19 45v2q0 26 -19 44.5t-45 18.5t-45 -18.5t-19 -44.5v-2q0 -26 19 -45t45 -19z" />
    <glyph glyph-name="commaaccent.cap" 
d="M254 -179q-64 11 -64 61v1q0 27 20 44t53 17q35 0 56 -22.5t21 -60.5v-3q0 -80 -52 -121q-39 -36 -98 -36q-32 0 -32 25q0 19 26 24q72 15 70 71z" />
    <glyph glyph-name="cedilla.cap" 
d="M334 10l-61 -150q-15 -32 -45 -32q-23 0 -54.5 17t-31.5 35q0 13 9 27l71 103h112z" />
    <glyph glyph-name="ogonek.cap" 
d="M189 -84q0 42 46 95l101 -1q-37 -38 -37 -70q0 -29 42 -41q37 -9 37 -36q0 -36 -48 -36q-65 0 -103 22.5t-38 66.5z" />
    <glyph glyph-name="NUL" horiz-adv-x="0" 
 />
    <glyph glyph-name="aacute.alt" horiz-adv-x="709" 
d="M358 613q-17 0 -27.5 7t-10.5 19q0 11 10 27l57 90q23 34 58 34q29 0 57.5 -14.5t28.5 -31.5q0 -19 -21 -37l-65 -61q-35 -33 -87 -33zM343 437q-59 0 -99.5 -43.5t-40.5 -114.5v-2q0 -70 41 -114t99 -44t99 44t41 114v2q0 70 -41 114t-99 44zM481 481v6q0 31 22.5 53
t53.5 22t53.5 -22t22.5 -54v-416q0 -32 -22.5 -54t-53.5 -22t-53.5 22t-22.5 54v12q-68 -93 -176 -93q-104 0 -179 77.5t-75 210.5v2q0 133 74.5 210t179.5 77q106 0 176 -85z" />
    <glyph glyph-name="aringacute.alt2" horiz-adv-x="623" 
d="M309 778q-17 0 -27.5 7t-10.5 19q0 11 10 27l57 90q23 34 58 34q29 0 57.5 -14.5t28.5 -31.5q0 -19 -21 -37l-65 -61q-35 -33 -87 -33zM313 563q27 0 46 19t19 45v2q0 26 -19 44.5t-46 18.5q-26 0 -45 -18.5t-19 -44.5v-2q0 -26 19 -45t45 -19zM280 95q57 0 92.5 28.5
t35.5 73.5v30q-49 21 -106 21q-53 0 -83 -21t-30 -59v-2q0 -33 25 -52t66 -19zM235 -11q-82 0 -137.5 45.5t-55.5 125.5v2q0 88 61 132.5t164 44.5q71 0 139 -22v10q0 105 -123 105q-59 0 -112 -17q-12 -4 -22 -4q-26 0 -44.5 18t-18.5 44q0 45 41 59q51 18 88 24
q-26 29 -26 71v2q0 48 37 83.5t87 35.5t87.5 -35.5t37.5 -83.5v-2q0 -44 -34 -78q53 -14 88 -49q60 -60 60 -176v-257q0 -31 -21.5 -52t-52.5 -21q-32 0 -52.5 19t-20.5 44v5q-65 -73 -170 -73z" />
    <glyph glyph-name="aogonek.alt" horiz-adv-x="709" 
d="M481 481v6q0 31 22.5 53t53.5 22t53.5 -22t22.5 -54v-419q0 -31 -28 -59q-40 -39 -40 -70q0 -27 41 -39q37 -9 37 -36q0 -36 -48 -36q-65 0 -102.5 22t-37.5 63q0 51 53 100q-27 22 -27 64v6q-68 -93 -176 -93q-104 0 -179 77.5t-75 210.5v2q0 133 74.5 210t179.5 77
q106 0 176 -85zM343 437q-59 0 -99.5 -43.5t-40.5 -114.5v-2q0 -70 41 -114t99 -44t99 44t41 114v2q0 70 -41 114t-99 44z" />
    <glyph glyph-name="acircumflex.alt" horiz-adv-x="709" 
d="M361 688l-50 -42q-40 -33 -92 -33q-33 0 -33 24q0 10 15 29l66 85q28 34 71 34h48q43 0 71 -34l66 -85q15 -19 15 -29q0 -24 -35 -24q-52 0 -92 33zM343 437q-59 0 -99.5 -43.5t-40.5 -114.5v-2q0 -70 41 -114t99 -44t99 44t41 114v2q0 70 -41 114t-99 44zM481 481v6
q0 31 22.5 53t53.5 22t53.5 -22t22.5 -54v-416q0 -32 -22.5 -54t-53.5 -22t-53.5 22t-22.5 54v12q-68 -93 -176 -93q-104 0 -179 77.5t-75 210.5v2q0 133 74.5 210t179.5 77q106 0 176 -85z" />
    <glyph glyph-name="hcoslug" horiz-adv-x="694" 
d="M644 700v-800h-594v800h594zM247 428q0 13 7.5 21t19.5 8q13 0 21 -10.5t8 -27.5q0 -22 -18 -50q-15 14 -21 20.5t-11.5 17t-5.5 21.5zM312 342q30 20 42 34q29 -29 -1 -80q-33 38 -41 46zM261 219q-22 0 -37 15.5t-15 38.5q0 24 16 40q34 -32 74 -82q-15 -12 -38 -12z
M382 264q20 26 46 42q15 -25 43 -25q21 0 35.5 15.5t14.5 38.5t-14.5 37.5t-35.5 14.5q-35 0 -60 -38q-3 39 -49 37q9 15 9 34q0 29 -25.5 51.5t-69.5 22.5q-48 0 -78.5 -25.5t-30.5 -59.5q0 -37 31 -69q-82 -28 -82 -91q0 -39 32 -66t77 -27q63 0 104 45q44 -45 85 -45
q33 0 56 25.5t24 68.5l-7 2q-17 -29 -43 -29q-27 0 -62 41zM286 124l-12 -2v-9h-7v-7h7v-20q0 -13 12 -13q11 0 14 13l-5 2q-1 -7 -5 -7t-4 5v20h13v7h-13v11zM174 94q0 -21 21 -21q9 0 15 6t6 15q0 20 -21 20t-21 -20zM203 94q0 -16 -8 -16t-8 16q0 15 8 15t8 -15zM219 81
v-7h22v7h-4v15q0 10 7 10q6 0 6 -7v-18h-4v-7h22v7h-6v19q0 14 -12 14q-9 0 -14 -11v10h-17v-7h6v-25h-6zM379 93q0 -13 -7 -13q-8 0 -8 13t8 13q7 0 7 -13zM125 81v-7h30v7h-10v16h4q5 0 6 -8h7v23h-7q-1 -8 -6 -8h-4v18h12q9 0 11 -13h8v20h-51v-7h7v-41h-7zM302 88v-14h7
l1 4q7 -5 13 -5q14 0 14 13q0 9 -12 12t-12 6q0 4 5 4t10 -7h7v13h-6l-2 -5q-3 5 -11 5q-14 0 -14 -12q0 -9 12 -12.5t12 -6.5q0 -4 -5 -4q-6 0 -12 9h-7zM352 125v-52h6l4 8q5 -8 14 -8q16 0 16 21q0 20 -15 20q-10 0 -13 -9v27h-18v-7h6zM405 65q3 2 1.5 6t-6.5 4
q-7 0 -7 -7q0 -9 11 -9q12 0 18 16l13 31h5v7h-17v-7h5l-8 -20l-9 20h6v7h-25v-7h5q12 -23 16 -33q-2 -8 -8 -8zM294 39v3q0 12 6 12l3 -1q-1 -1 -1 -3q0 -6 6 -6v-5h-14zM464 33h-18v-7h6q-2 -5 -6 -9q-2 2 -5.5 6t-6.5 7q11 5 11 12q0 12 -14 12q-17 0 -17 -14q0 -6 6 -12
q-13 -4 -13 -15q0 -14 18 -14q9 0 15 6q5 -6 12 -6q10 0 13 12l-5 1q-1 -5 -4 -5t-6 5q6 8 9 14h5v7zM469 27q0 -28 29 -28q22 0 24 23h-8q-2 -16 -14 -16q-16 0 -16 22t14 22q10 0 15 -16h8v22h-8l-1 -6q-7 7 -16 7q-11 0 -19 -8.5t-8 -21.5zM431 33q-6 6 -6 10q0 5 5 5
q6 0 6 -6t-5 -9zM340 18h26q2 22 -19 22q-8 0 -14 -6t-6 -15q0 -20 21 -20q14 0 18 14h-7q-1 -7 -9 -7q-10 0 -10 12zM525 20q0 -21 21 -21q9 0 15 6t6 15q0 20 -21 20t-21 -20zM189 20q0 -21 21 -21q9 0 15 6t6 15q0 20 -21 20t-21 -20zM247 18h26q2 22 -19 22q-8 0 -14 -6
t-6 -15q0 -20 21 -20q15 0 18 14h-7q-1 -7 -9 -7q-10 0 -10 12zM340 23q0 12 7 12t7 -12h-14zM554 20q0 -16 -8 -16t-8 16q0 15 8 15t8 -15zM218 20q0 -16 -8 -16t-8 16q0 15 8 15t8 -15zM247 23q0 12 7 12t7 -12h-14zM368 7v-7h26v7h-8v16q4 9 7 9v-1q0 -6 6 -6q7 0 7 7
q0 8 -8 8t-12 -11v10h-18v-7h6v-25h-6zM276 7v-7h23v7h-5v25h14v-25h-5v-7h23v7h-6v52l-10 -2q-4 2 -9 2q-19 0 -19 -19v-1h-7v-7h7v-25h-6zM124 7v-7h29v7h-8v18h22v-18h-8v-7h29v7h-8v41h8v7h-29v-7h8v-16h-22v16h8v7h-29v-7h8v-41h-8zM437 9q-5 -3 -8 -3q-10 0 -10 10
q0 5 4 9q4 -4 14 -16zM583 6q0 7 -7 7t-7 -7t7 -7t7 7z" />
    <glyph glyph-name="atilde.alt" horiz-adv-x="709" 
d="M248 629q-15 -24 -39 -24q-19 0 -32.5 12.5t-13.5 29.5q0 14 5 27q19 49 45 74.5t70 25.5q35 0 87 -20.5t67 -20.5q31 0 49 31q15 24 39 24q19 0 32.5 -12.5t13.5 -29.5q0 -14 -5 -27q-19 -49 -45 -74.5t-70 -25.5q-35 0 -87 20t-67 20q-32 0 -49 -30zM343 437
q-59 0 -99.5 -43.5t-40.5 -114.5v-2q0 -70 41 -114t99 -44t99 44t41 114v2q0 70 -41 114t-99 44zM481 481v6q0 31 22.5 53t53.5 22t53.5 -22t22.5 -54v-416q0 -32 -22.5 -54t-53.5 -22t-53.5 22t-22.5 54v12q-68 -93 -176 -93q-104 0 -179 77.5t-75 210.5v2q0 133 74.5 210
t179.5 77q106 0 176 -85z" />
    <glyph glyph-name="agrave.alt" horiz-adv-x="709" 
d="M366 613q-52 0 -87 33l-65 61q-21 18 -21 37q0 17 28.5 31.5t57.5 14.5q35 0 58 -34l57 -90q10 -16 10 -27q0 -12 -10.5 -19t-27.5 -7zM343 437q-59 0 -99.5 -43.5t-40.5 -114.5v-2q0 -70 41 -114t99 -44t99 44t41 114v2q0 70 -41 114t-99 44zM481 481v6q0 31 22.5 53
t53.5 22t53.5 -22t22.5 -54v-416q0 -32 -22.5 -54t-53.5 -22t-53.5 22t-22.5 54v12q-68 -93 -176 -93q-104 0 -179 77.5t-75 210.5v2q0 133 74.5 210t179.5 77q106 0 176 -85z" />
    <glyph glyph-name="three.alt" horiz-adv-x="646" 
d="M330 -12q-138 0 -240 81q-29 22 -29 57q0 30 21 51t51 21q26 0 44 -16q70 -57 155 -57q53 0 82.5 24t29.5 66v2q0 42 -37.5 64t-104.5 22h-22q-26 0 -45 19t-19 45t19 45t45 19h26q56 0 87 24.5t31 63.5v2q0 37 -29 59.5t-80 22.5q-64 0 -123 -56q-21 -19 -49 -19
q-29 0 -49.5 20t-20.5 49q0 30 21 51q90 92 223 92q116 0 187 -54.5t71 -140.5v-2q0 -116 -98 -169q118 -50 118 -159v-2q0 -99 -70.5 -162t-194.5 -63z" />
    <glyph glyph-name="aringacute.alt" horiz-adv-x="709" 
d="M358 887q-17 0 -27.5 7t-10.5 19q0 11 10 27l57 90q23 34 58 34q29 0 57.5 -14.5t28.5 -31.5q0 -19 -21 -37l-65 -61q-35 -33 -87 -33zM362 617q-50 0 -87 35.5t-37 83.5v2q0 48 37 83.5t87 35.5t87 -35.5t37 -83.5v-2q0 -48 -37 -83.5t-87 -35.5zM362 672q26 0 45 19
t19 45v2q0 26 -19 44.5t-45 18.5t-45 -18.5t-19 -44.5v-2q0 -26 19 -45t45 -19zM343 437q-59 0 -99.5 -43.5t-40.5 -114.5v-2q0 -70 41 -114t99 -44t99 44t41 114v2q0 70 -41 114t-99 44zM481 481v6q0 31 22.5 53t53.5 22t53.5 -22t22.5 -54v-416q0 -32 -22.5 -54t-53.5 -22
t-53.5 22t-22.5 54v12q-68 -93 -176 -93q-104 0 -179 77.5t-75 210.5v2q0 133 74.5 210t179.5 77q106 0 176 -85z" />
    <glyph glyph-name="adieresis.alt" horiz-adv-x="709" 
d="M252 763q34 0 57 -21t23 -53v-3q0 -32 -23 -52.5t-57 -20.5q-33 0 -56 20.5t-23 52.5v3q0 32 23 53t56 21zM472 763q33 0 56 -21t23 -53v-3q0 -32 -23 -52.5t-56 -20.5q-34 0 -57 20.5t-23 52.5v3q0 32 23 53t57 21zM343 437q-59 0 -99.5 -43.5t-40.5 -114.5v-2
q0 -70 41 -114t99 -44t99 44t41 114v2q0 70 -41 114t-99 44zM481 481v6q0 31 22.5 53t53.5 22t53.5 -22t22.5 -54v-416q0 -32 -22.5 -54t-53.5 -22t-53.5 22t-22.5 54v12q-68 -93 -176 -93q-104 0 -179 77.5t-75 210.5v2q0 133 74.5 210t179.5 77q106 0 176 -85z" />
    <glyph glyph-name="a.alt" horiz-adv-x="709" 
d="M343 437q-59 0 -99.5 -43.5t-40.5 -114.5v-2q0 -70 41 -114t99 -44t99 44t41 114v2q0 70 -41 114t-99 44zM481 481v6q0 31 22.5 53t53.5 22t53.5 -22t22.5 -54v-416q0 -32 -22.5 -54t-53.5 -22t-53.5 22t-22.5 54v12q-68 -93 -176 -93q-104 0 -179 77.5t-75 210.5v2
q0 133 74.5 210t179.5 77q106 0 176 -85z" />
    <glyph glyph-name="aring.alt2" horiz-adv-x="623" 
d="M313 563q27 0 46 19t19 45v2q0 26 -19 44.5t-46 18.5q-26 0 -45 -18.5t-19 -44.5v-2q0 -26 19 -45t45 -19zM280 95q57 0 92.5 28.5t35.5 73.5v30q-49 21 -106 21q-53 0 -83 -21t-30 -59v-2q0 -33 25 -52t66 -19zM235 -11q-82 0 -137.5 45.5t-55.5 125.5v2q0 88 61 132.5
t164 44.5q71 0 139 -22v10q0 105 -123 105q-59 0 -112 -17q-12 -4 -22 -4q-26 0 -44.5 18t-18.5 44q0 45 41 59q51 18 88 24q-26 29 -26 71v2q0 48 37 83.5t87 35.5t87.5 -35.5t37.5 -83.5v-2q0 -44 -34 -78q53 -14 88 -49q60 -60 60 -176v-257q0 -31 -21.5 -52t-52.5 -21
q-32 0 -52.5 19t-20.5 44v5q-65 -73 -170 -73z" />
    <glyph glyph-name="aring.alt" horiz-adv-x="709" 
d="M362 617q-50 0 -87 35.5t-37 83.5v2q0 48 37 83.5t87 35.5t87 -35.5t37 -83.5v-2q0 -48 -37 -83.5t-87 -35.5zM362 672q26 0 45 19t19 45v2q0 26 -19 44.5t-45 18.5t-45 -18.5t-19 -44.5v-2q0 -26 19 -45t45 -19zM343 437q-59 0 -99.5 -43.5t-40.5 -114.5v-2
q0 -70 41 -114t99 -44t99 44t41 114v2q0 70 -41 114t-99 44zM481 481v6q0 31 22.5 53t53.5 22t53.5 -22t22.5 -54v-416q0 -32 -22.5 -54t-53.5 -22t-53.5 22t-22.5 54v12q-68 -93 -176 -93q-104 0 -179 77.5t-75 210.5v2q0 133 74.5 210t179.5 77q106 0 176 -85z" />
    <glyph glyph-name="amacron.alt" horiz-adv-x="709" 
d="M500 625h-276q-22 0 -38 15.5t-16 37.5t16 37.5t38 15.5h276q22 0 38 -15.5t16 -37.5t-16 -37.5t-38 -15.5zM343 437q-59 0 -99.5 -43.5t-40.5 -114.5v-2q0 -70 41 -114t99 -44t99 44t41 114v2q0 70 -41 114t-99 44zM481 481v6q0 31 22.5 53t53.5 22t53.5 -22t22.5 -54
v-416q0 -32 -22.5 -54t-53.5 -22t-53.5 22t-22.5 54v12q-68 -93 -176 -93q-104 0 -179 77.5t-75 210.5v2q0 133 74.5 210t179.5 77q106 0 176 -85z" />
    <glyph glyph-name="abreve.alt" horiz-adv-x="709" 
d="M362 617q-122 0 -171 87q-7 14 -7 30q0 22 15 37t37 15q29 0 45 -26q26 -43 81 -43t81 43q16 26 45 26q22 0 37 -15t15 -37q0 -16 -7 -30q-49 -87 -171 -87zM343 437q-59 0 -99.5 -43.5t-40.5 -114.5v-2q0 -70 41 -114t99 -44t99 44t41 114v2q0 70 -41 114t-99 44z
M481 481v6q0 31 22.5 53t53.5 22t53.5 -22t22.5 -54v-416q0 -32 -22.5 -54t-53.5 -22t-53.5 22t-22.5 54v12q-68 -93 -176 -93q-104 0 -179 77.5t-75 210.5v2q0 133 74.5 210t179.5 77q106 0 176 -85z" />
    </font>
</defs>
</svg>
