<?xml version="1.0" standalone="no"?>
<!DOCTYPE svg PUBLIC "-//W3C//DTD SVG 1.1//EN" "http://www.w3.org/Graphics/SVG/1.1/DTD/svg11.dtd" >
<svg xmlns="http://www.w3.org/2000/svg" xmlns:xlink="http://www.w3.org/1999/xlink" version="1.1">
<metadata>
Created by FontForge 20170731 at Thu Aug 11 23:46:41 2016
 By Aleksey,,,
Copyright (C) 2011, 2014 Hoefler &#38; Co. http://www.typography.com
</metadata>
<defs>
<font id="GothamRndSSm-BoldItalic" horiz-adv-x="530" >
  <font-face 
    font-family="Gotham Rnd SSm Bold"
    font-weight="400"
    font-style="italic"
    font-stretch="normal"
    units-per-em="1000"
    panose-1="0 0 0 0 0 0 0 0 0 0"
    ascent="800"
    descent="-200"
    x-height="556"
    cap-height="734"
    bbox="-157 -304 1297 1126"
    underline-thickness="50"
    underline-position="-200"
    slope="-15"
    unicode-range="U+0020-FB04"
  />
<missing-glyph horiz-adv-x="500" 
d="M0 -200v1000h500v-1000h-500zM71 750l179 -390l179 390h-358zM450 676l-172 -376l172 -376v752zM50 -76l172 376l-172 376v-752zM250 240l-179 -390h358z" />
    <glyph glyph-name="f_f" unicode="ff" horiz-adv-x="859" 
d="M722 426l-97 -355q-10 -37 -32 -57t-52 -20q-39 0 -56.5 26.5t-4.5 72.5l90 333h-3q-22 3 -39 20t-17 45t18.5 46.5t44.5 18.5h30l8 33q46 177 223 177q33 0 50 -4q50 -9 50 -58q0 -35 -20.5 -54.5t-47.5 -14.5q-14 3 -28 3q-62 0 -80 -64l-5 -18h63q26 0 44.5 -18.5
t18.5 -46.5t-18.5 -46.5t-44.5 -18.5h-95zM298 426l-97 -355q-10 -37 -32 -57t-52 -20q-39 0 -56.5 26.5t-4.5 72.5l90 333h-3q-22 3 -39 20t-17 45t18.5 46.5t44.5 18.5h30l8 33q46 177 223 177q33 0 50 -4q50 -9 50 -58q0 -35 -20.5 -54.5t-47.5 -14.5q-13 3 -28 3
q-62 0 -80 -64l-5 -18h63q26 0 44.5 -18.5t18.5 -46.5t-18.5 -46.5t-44.5 -18.5h-95z" />
    <glyph glyph-name="fi" unicode="fi" horiz-adv-x="745" 
d="M780 686q-7 -32 -34 -50.5t-64 -18.5q-36 0 -57.5 20t-15.5 50l1 6q7 32 34 51t64 19q36 0 57.5 -20t15.5 -50zM298 426l-97 -355q-10 -37 -32 -57t-52 -20q-39 0 -56.5 26.5t-4.5 72.5l90 333h-3q-22 3 -39 20t-17 45t18.5 46.5t44.5 18.5h30l8 33q46 177 223 177
q33 0 50 -4q50 -9 50 -58q0 -35 -20.5 -54.5t-47.5 -14.5q-13 3 -28 3q-62 0 -80 -64l-5 -18h63q26 0 44.5 -18.5t18.5 -46.5t-18.5 -46.5t-44.5 -18.5h-95zM710 462l-106 -391q-9 -36 -31.5 -56.5t-52.5 -20.5q-39 0 -56.5 26.5t-4.5 72.5l105 392q10 37 32.5 57t52.5 20
q39 0 56.5 -27t4.5 -73z" />
    <glyph glyph-name="fl" unicode="fl" horiz-adv-x="745" 
d="M765 666l-161 -595q-9 -36 -31.5 -56.5t-52.5 -20.5q-39 0 -56.5 26.5t-4.5 72.5l160 596q10 36 32.5 56t52.5 20q38 0 55.5 -26.5t5.5 -72.5zM298 426l-97 -355q-10 -37 -32 -57t-52 -20q-39 0 -56.5 26.5t-4.5 72.5l90 333h-3q-22 3 -39 20t-17 45t18.5 46.5t44.5 18.5
h30l8 33q46 177 223 177q33 0 50 -4q50 -9 50 -58q0 -35 -20.5 -54.5t-47.5 -14.5q-13 3 -28 3q-62 0 -80 -64l-5 -18h63q26 0 44.5 -18.5t18.5 -46.5t-18.5 -46.5t-44.5 -18.5h-95z" />
    <glyph glyph-name="f_f_i" unicode="ffi" horiz-adv-x="1170" 
d="M1205 686q-7 -32 -34 -50.5t-64 -18.5q-36 0 -57.5 20t-15.5 50l1 6q7 32 34 51t64 19q36 0 57.5 -20t15.5 -50zM722 426l-97 -355q-10 -37 -32 -57t-52 -20q-39 0 -56.5 26.5t-4.5 72.5l90 333h-3q-22 3 -39 20t-17 45t18.5 46.5t44.5 18.5h30l8 33q46 177 223 177
q33 0 50 -4q50 -9 50 -58q0 -35 -20.5 -54.5t-47.5 -14.5q-14 3 -28 3q-62 0 -80 -64l-5 -18h63q26 0 44.5 -18.5t18.5 -46.5t-18.5 -46.5t-44.5 -18.5h-95zM298 426l-97 -355q-10 -37 -32 -57t-52 -20q-39 0 -56.5 26.5t-4.5 72.5l90 333h-3q-22 3 -39 20t-17 45t18.5 46.5
t44.5 18.5h30l8 33q46 177 223 177q33 0 50 -4q50 -9 50 -58q0 -35 -20.5 -54.5t-47.5 -14.5q-13 3 -28 3q-62 0 -80 -64l-5 -18h63q26 0 44.5 -18.5t18.5 -46.5t-18.5 -46.5t-44.5 -18.5h-95zM1135 462l-106 -391q-9 -36 -31.5 -56.5t-52.5 -20.5q-39 0 -56.5 26.5
t-4.5 72.5l105 392q10 37 32.5 57t52.5 20q39 0 56.5 -27t4.5 -73z" />
    <glyph glyph-name="f_f_l" unicode="ffl" horiz-adv-x="1170" 
d="M1190 666l-161 -595q-9 -36 -31.5 -56.5t-52.5 -20.5q-39 0 -56.5 26.5t-4.5 72.5l160 596q10 36 32.5 56t52.5 20q38 0 55.5 -26.5t5.5 -72.5zM722 426l-97 -355q-10 -37 -32 -57t-52 -20q-39 0 -56.5 26.5t-4.5 72.5l90 333h-3q-22 3 -39 20t-17 45t18.5 46.5
t44.5 18.5h30l8 33q46 177 223 177q33 0 50 -4q50 -9 50 -58q0 -35 -20.5 -54.5t-47.5 -14.5q-14 3 -28 3q-62 0 -80 -64l-5 -18h63q26 0 44.5 -18.5t18.5 -46.5t-18.5 -46.5t-44.5 -18.5h-95zM298 426l-97 -355q-10 -37 -32 -57t-52 -20q-39 0 -56.5 26.5t-4.5 72.5l90 333
h-3q-22 3 -39 20t-17 45t18.5 46.5t44.5 18.5h30l8 33q46 177 223 177q33 0 50 -4q50 -9 50 -58q0 -35 -20.5 -54.5t-47.5 -14.5q-13 3 -28 3q-62 0 -80 -64l-5 -18h63q26 0 44.5 -18.5t18.5 -46.5t-18.5 -46.5t-44.5 -18.5h-95z" />
    <glyph glyph-name=".notdef" horiz-adv-x="500" 
d="M0 -200v1000h500v-1000h-500zM71 750l179 -390l179 390h-358zM450 676l-172 -376l172 -376v752zM50 -76l172 376l-172 376v-752zM250 240l-179 -390h358z" />
    <glyph glyph-name=".null" horiz-adv-x="0" 
 />
    <glyph glyph-name="nonmarkingreturn" horiz-adv-x="333" 
 />
    <glyph glyph-name="space" unicode=" " horiz-adv-x="322" 
 />
    <glyph glyph-name="exclam" unicode="!" horiz-adv-x="343" 
d="M365 680l-149 -404q-15 -38 -50 -38q-21 0 -32 13t-7 36l66 393q4 22 18.5 36.5t34.5 14.5h89q21 0 29.5 -15t0.5 -36zM205 85l-1 -8q-7 -36 -34 -59.5t-65 -23.5q-39 0 -60 23.5t-15 59.5l2 8q7 37 33.5 60t64.5 23q39 0 60 -23.5t15 -59.5z" />
    <glyph glyph-name="quotedbl" unicode="&#x22;" horiz-adv-x="552" 
d="M452 432q-21 -38 -54 -38q-19 0 -27.5 13t-3.5 33l60 223q8 30 28 49.5t49 19.5h44q33 0 39 -24.5t-10 -48.5zM204 432q-21 -38 -54 -38q-19 0 -27.5 13t-3.5 33l60 223q8 30 28 49.5t49 19.5h45q32 0 38 -24.5t-10 -48.5z" />
    <glyph glyph-name="numbersign" unicode="#" horiz-adv-x="728" 
d="M418 665l-31 -91h145l37 107q8 23 29 38t45 15q30 0 46 -21t6 -48l-31 -91h17q26 0 45 -19t19 -45t-19 -45t-45 -19h-62l-55 -160h29q26 0 45 -19t19 -45t-19 -45t-45 -19h-74l-39 -111q-8 -23 -28 -38t-44 -15q-30 0 -47 21t-7 48l32 95h-144l-39 -111q-7 -21 -27 -37
t-45 -16q-31 0 -47.5 20t-6.5 49l33 95h-17q-26 0 -45 19t-19 45t19 45t45 19h62l55 160h-30q-26 0 -45 19t-19 45t19 45t45 19h75l37 107q8 23 28 38t44 15q30 0 47 -21t7 -48zM287 286h144l56 160h-145z" />
    <glyph glyph-name="dollar" unicode="$" horiz-adv-x="670" 
d="M347 453l42 143q-50 -2 -76.5 -24.5t-26.5 -54.5q0 -20 13.5 -34.5t47.5 -29.5zM345 132q47 4 73.5 24.5t26.5 54.5q0 39 -56 65zM193 -40l15 50q-99 22 -158 72q-32 24 -32 62q0 31 21.5 52t53.5 21q25 0 50 -20q48 -42 108 -57l51 170q-86 32 -129.5 73.5t-43.5 117.5
q0 97 82 162t202 65h11l4 14q18 52 58 52q28 0 40 -17.5t3 -49.5l-4 -12q60 -14 111 -52q37 -25 37 -61q0 -31 -22 -51.5t-54 -20.5q-23 0 -51 19q-26 20 -63 34l-48 -163q83 -31 125.5 -74.5t42.5 -118.5q0 -100 -83.5 -163.5t-207.5 -63.5h-2l-17 -56q-18 -52 -58 -52
q-27 0 -39 18t-3 50z" />
    <glyph glyph-name="percent" unicode="%" horiz-adv-x="922" 
d="M252 360q-72 0 -115.5 44t-43.5 115q0 85 57 151t144 66q72 0 116 -44t44 -115q0 -85 -57.5 -151t-144.5 -66zM825 651l-613 -638q-19 -19 -42 -19q-20 0 -33 12.5t-13 31.5q0 20 17 39l614 638q19 19 42 19q20 0 33 -12.5t13 -31.5q0 -21 -18 -39zM258 448
q42 0 69.5 39.5t27.5 85.5q0 35 -18 55.5t-49 20.5q-41 0 -68.5 -40t-27.5 -85q0 -35 17.5 -55.5t48.5 -20.5zM672 -8q-72 0 -115.5 44t-43.5 115q0 85 57.5 151t144.5 66q72 0 115.5 -44t43.5 -115q0 -85 -57.5 -151t-144.5 -66zM678 79q42 0 69.5 40t27.5 86
q0 34 -18 54.5t-48 20.5q-42 0 -69.5 -39.5t-27.5 -85.5q0 -35 18 -55.5t48 -20.5z" />
    <glyph glyph-name="ampersand" unicode="&#x26;" horiz-adv-x="733" 
d="M529 16l-41 55q-112 -81 -229 -81q-102 0 -166 52t-64 142q0 72 51.5 133t157.5 95q-39 68 -39 127q0 83 64 142t166 59q88 0 143.5 -49t55.5 -124q0 -135 -198 -201l85 -115q37 41 62 75q25 33 54 33q24 0 40 -13.5t16 -35.5t-12 -40q-41 -62 -88 -111l38 -52
q23 -33 23 -52q0 -28 -19 -46.5t-47 -18.5q-34 0 -53 26zM366 452q71 25 97.5 49t26.5 57q0 25 -18 43.5t-50 18.5q-39 0 -63.5 -24.5t-24.5 -58.5q0 -39 32 -85zM276 116q63 0 140 50l-116 159q-63 -24 -94.5 -59t-31.5 -73q0 -34 27 -55.5t75 -21.5z" />
    <glyph glyph-name="quotesingle" unicode="'" horiz-adv-x="304" 
d="M204 432q-21 -38 -54 -38q-19 0 -27.5 13t-3.5 33l60 223q8 30 28 49.5t49 19.5h45q32 0 38 -24.5t-10 -48.5z" />
    <glyph glyph-name="parenleft" unicode="(" horiz-adv-x="472" 
d="M325 -22q19 -22 19 -52q0 -28 -19 -46.5t-48 -18.5q-32 0 -54 20q-155 148 -155 337q0 162 95 292.5t276 216.5q20 9 38 9q26 0 43.5 -18t17.5 -46q0 -39 -41 -62q-137 -74 -206 -173.5t-69 -213.5q0 -120 103 -245z" />
    <glyph glyph-name="parenright" unicode=")" horiz-adv-x="472" 
d="M158 619q-20 22 -20 52q0 28 19 46.5t49 18.5q32 0 54 -20q155 -148 155 -337q0 -161 -95.5 -291.5t-276.5 -217.5q-18 -9 -37 -9q-27 0 -44.5 18t-17.5 46q0 39 42 62q137 74 206 174t69 213q0 120 -103 245z" />
    <glyph glyph-name="asterisk" unicode="*" horiz-adv-x="457" 
d="M311 509l-12 -85q-5 -38 -40 -38q-20 0 -30 16.5t-1 37.5l33 82l-78 -31q-18 -7 -28 -7q-14 0 -24.5 10t-11.5 26q-1 15 8.5 26.5t26.5 13.5l93 13l-71 56q-21 15 -21 34q0 16 11.5 27.5t28.5 11.5q20 0 33 -18l57 -74l12 85q5 38 38 38q23 0 32 -16t-1 -39l-32 -81
l79 31q15 6 30 6q14 0 23 -9.5t10 -24.5q2 -36 -35 -41l-93 -13l72 -56q20 -15 20 -34q0 -16 -11 -27.5t-28 -11.5q-22 0 -34 19z" />
    <glyph glyph-name="plus" unicode="+" horiz-adv-x="674" 
d="M413 297l-31 -119q-10 -35 -32 -55.5t-49 -20.5q-36 0 -52 25t-4 70l26 100h-108q-29 0 -49 20.5t-20 48.5t20 48.5t49 20.5h145l32 119q10 36 32 56.5t49 20.5q36 0 52 -25.5t4 -70.5l-27 -100h109q29 0 49 -20.5t20 -48.5t-20 -48.5t-49 -20.5h-146z" />
    <glyph glyph-name="comma" unicode="," horiz-adv-x="336" 
d="M-28 -97q98 22 106 97q-60 16 -48 80l1 7q8 36 33 58.5t61 22.5q44 0 62.5 -30t8.5 -82l-2 -7q-20 -99 -95 -163q-61 -49 -126 -51q-36 0 -36 33q0 27 35 35z" />
    <glyph glyph-name="hyphen" unicode="-" horiz-adv-x="438" 
d="M324 248h-184q-30 0 -51.5 22t-21.5 52t21.5 51.5t51.5 21.5h184q30 0 51.5 -21.5t21.5 -51.5t-21.5 -52t-51.5 -22z" />
    <glyph glyph-name="period" unicode="." horiz-adv-x="336" 
d="M203 85l-2 -8q-6 -36 -33 -59.5t-65 -23.5q-39 0 -60 23.5t-15 59.5l1 8q8 37 34 60t64 23q39 0 60.5 -24t15.5 -59z" />
    <glyph glyph-name="slash" unicode="/" horiz-adv-x="559" 
d="M-62 -35l613 831q29 40 67 40q24 0 37.5 -13.5t13.5 -36.5t-22 -54l-613 -831q-29 -40 -67 -40q-24 0 -38 13.5t-14 36.5q0 25 23 54z" />
    <glyph glyph-name="zero" unicode="0" horiz-adv-x="768" 
d="M352 -12q-127 0 -204 82t-77 218q0 110 45 212t136 171t208 69q127 0 204 -82t77 -218q0 -110 -45 -212t-136 -171t-208 -69zM364 126q63 0 115 50t78.5 121.5t26.5 143.5q0 77 -36.5 119t-99.5 42t-115 -50t-78 -121.5t-26 -143.5q0 -77 36 -119t99 -42z" />
    <glyph glyph-name="one" unicode="1" horiz-adv-x="455" 
d="M431 655l-157 -584q-10 -37 -32 -57t-52 -20q-39 0 -56.5 27t-4.5 73l129 481l-65 -16q-10 -2 -18 -2q-26 0 -43.5 16.5t-17.5 46.5q0 24 15 43t39 26l128 36q47 13 75 13h1q34 0 51 -24t8 -59z" />
    <glyph glyph-name="two" unicode="2" horiz-adv-x="647" 
d="M475 0h-403q-38 0 -60.5 17.5t-22.5 50.5q0 44 40 72l351 244q56 39 82 71.5t26 67.5q0 37 -26 57.5t-70 20.5q-71 0 -139 -60q-24 -22 -53 -22q-28 0 -47.5 20.5t-19.5 49.5q0 31 25 53q101 96 241 96q112 0 179.5 -55.5t67.5 -143.5q0 -67 -38 -122t-133 -122
l-233 -162h233q28 0 47.5 -19.5t19.5 -47.5t-19.5 -47t-47.5 -19z" />
    <glyph glyph-name="three" unicode="3" horiz-adv-x="638" 
d="M30 72q-26 26 -26 55q0 30 22 52t52 22q27 0 49 -20q33 -30 61.5 -43t75.5 -13q60 0 101.5 32t41.5 75q0 44 -38.5 67t-107.5 23h-4q-27 0 -42 15t-15 42q0 30 34 57l197 160h-204q-28 0 -47.5 19.5t-19.5 46.5t19.5 46.5t47.5 19.5h356q34 0 55.5 -16.5t21.5 -46.5
q0 -25 -12.5 -41.5t-39.5 -37.5l-205 -159q159 -36 159 -181q0 -110 -87.5 -184t-217.5 -74q-148 0 -227 84z" />
    <glyph glyph-name="four" unicode="4" horiz-adv-x="694" 
d="M523 158l-23 -87q-10 -36 -31.5 -56.5t-50.5 -20.5q-37 0 -53.5 27t-3.5 73l17 64h-283q-32 0 -53.5 17.5t-21.5 47.5q0 47 41 85l416 380q58 51 114 51q36 0 55.5 -22t10.5 -57l-100 -377h25q26 0 44.5 -18.5t18.5 -44.5t-18.5 -44t-44.5 -18h-59zM217 283h195l65 245z
" />
    <glyph glyph-name="five" unicode="5" horiz-adv-x="644" 
d="M48 65q-31 26 -31 60q0 30 20.5 51.5t50.5 21.5q25 0 52 -21q60 -50 138 -50q66 0 109.5 35t43.5 84q0 43 -34.5 70t-97.5 27q-23 0 -52.5 -7.5t-37.5 -8.5q-31 0 -63 26q-34 26 -21 68l83 248q20 59 73 59h303q28 0 48 -20t20 -48t-20 -47.5t-48 -19.5h-256l-44 -132
q43 9 78 9q101 0 164 -56.5t63 -150.5q0 -112 -90.5 -193.5t-233.5 -81.5q-57 0 -115.5 21t-101.5 56z" />
    <glyph glyph-name="six" unicode="6" horiz-adv-x="679" 
d="M648 693q35 -20 35 -63q0 -30 -21 -50.5t-50 -20.5q-18 0 -47 16q-50 28 -105 28q-85 0 -144 -59q-55 -55 -78 -137q26 27 73 46t98 19q95 0 158.5 -55t63.5 -148q0 -111 -88 -196t-212 -85q-121 0 -189 66q-74 76 -74 205q0 106 37 205t106 168q108 108 262 108
q97 0 175 -47zM331 117q63 0 104 40t41 91q0 45 -31 72.5t-82 27.5q-66 0 -107.5 -38t-41.5 -91q0 -42 29 -69q31 -33 88 -33z" />
    <glyph glyph-name="seven" unicode="7" horiz-adv-x="641" 
d="M641 589l-415 -547q-38 -48 -83 -48q-31 0 -48 15.5t-17 43.5q0 31 24 63l371 479h-260q-29 0 -48.5 19t-19.5 47t20 47.5t48 19.5h393q70 0 70 -57q0 -39 -35 -82z" />
    <glyph glyph-name="eight" unicode="8" horiz-adv-x="697" 
d="M317 -10q-116 0 -197 57t-81 148q0 79 51 128.5t137 70.5q-42 21 -66 58.5t-24 82.5q0 79 73 141t200 62q113 0 185 -54.5t72 -140.5q0 -68 -43 -116t-118 -66q51 -20 81.5 -60t30.5 -96q0 -87 -83 -151t-218 -64zM398 430q53 0 88.5 27.5t36.5 67.5q1 37 -31 62t-89 25
q-52 0 -87 -26.5t-36 -66.5q-1 -38 31.5 -63.5t86.5 -25.5zM325 114q62 0 102 27.5t41 71.5q1 41 -36.5 67t-99.5 26t-102 -28t-41 -70q-1 -41 37 -67.5t99 -26.5z" />
    <glyph glyph-name="nine" unicode="9" horiz-adv-x="679" 
d="M364 373q64 0 105 39t41 94q0 45 -27 72q-32 32 -88 32q-64 0 -105 -39.5t-41 -95.5q0 -48 31.5 -75t83.5 -27zM258 -13q-100 0 -182 52q-40 28 -40 66q0 30 21 50.5t50 20.5q18 0 47 -16q63 -35 112 -35q83 0 145 61q52 52 74 127q-26 -27 -72 -45.5t-97 -18.5
q-96 0 -159 54t-63 152q0 119 87 202t213 83q55 0 106.5 -17t82.5 -48q75 -75 75 -219q0 -100 -38.5 -196t-107.5 -165q-110 -108 -254 -108z" />
    <glyph glyph-name="colon" unicode=":" horiz-adv-x="337" 
d="M309 479l-2 -8q-6 -36 -33 -59.5t-65 -23.5q-39 0 -60 23.5t-15 59.5l2 8q7 37 33.5 60t64.5 23q39 0 60 -23.5t15 -59.5zM203 85l-2 -8q-6 -36 -33 -59.5t-65 -23.5q-39 0 -60 23.5t-15 59.5l2 8q7 37 33.5 60t64.5 23q39 0 60 -23.5t15 -59.5z" />
    <glyph glyph-name="semicolon" unicode=";" horiz-adv-x="337" 
d="M309 479l-2 -8q-6 -36 -33 -59.5t-65 -23.5q-39 0 -60 23.5t-15 59.5l2 8q7 37 33.5 60t64.5 23q39 0 60 -23.5t15 -59.5zM-28 -97q98 22 106 97q-60 16 -48 80l2 7q8 36 33 58.5t60 22.5q44 0 63 -29.5t8 -82.5l-2 -7q-20 -99 -95 -163q-59 -49 -125 -51q-37 0 -37 33
q0 27 35 35z" />
    <glyph glyph-name="less" unicode="&#x3c;" horiz-adv-x="674" 
d="M161 451l402 167q23 9 40 9q25 0 41 -14.5t16 -39.5q0 -45 -42 -63l-375 -150l269 -136q41 -20 41 -61q0 -28 -18.5 -48t-47.5 -20q-19 0 -37 9l-291 154q-67 36 -67 92v6q0 66 69 95z" />
    <glyph glyph-name="equal" unicode="=" horiz-adv-x="674" 
d="M216 431q-28 0 -48.5 20.5t-20.5 48.5t20.5 48.5t48.5 20.5h365q29 0 49 -20.5t20 -48.5t-20 -48.5t-49 -20.5h-365zM144 163q-28 0 -48.5 20.5t-20.5 48.5t20.5 48.5t48.5 20.5h365q29 0 49 -20.5t20 -48.5t-20 -48.5t-49 -20.5h-365z" />
    <glyph glyph-name="greater" unicode="&#x3e;" horiz-adv-x="674" 
d="M558 281l-402 -166q-22 -10 -40 -10q-25 0 -41 15t-16 40q0 46 41 62l376 150l-269 136q-42 21 -42 61q0 28 19 48t47 20q20 0 38 -9l291 -154q66 -36 66 -92v-6q0 -66 -68 -95z" />
    <glyph glyph-name="question" unicode="?" horiz-adv-x="575" 
d="M226 563q-32 -17 -52 -17q-26 0 -43.5 18.5t-17.5 41.5q0 39 34 64q91 67 212 67q105 0 168 -55t63 -133q0 -92 -68.5 -150.5t-198.5 -78.5l-13 -33q-9 -22 -26 -35.5t-38 -13.5h-8q-22 0 -33.5 14t-8.5 38l10 82q4 24 19 35.5t47 16.5q70 10 113.5 36.5t43.5 68.5
q0 32 -23 50.5t-68 18.5q-54 0 -112 -35zM287 85l-2 -8q-6 -36 -33 -59.5t-65 -23.5q-39 0 -60 23.5t-15 59.5l2 8q7 37 33.5 60t64.5 23q39 0 60 -23.5t15 -59.5z" />
    <glyph glyph-name="at" unicode="@" horiz-adv-x="1029" 
d="M716 -115q-105 -47 -220 -47q-191 0 -312 113t-121 291q0 133 67 248t184 184t256 69q189 0 304.5 -105t115.5 -253q0 -153 -72.5 -235t-172.5 -82q-52 0 -89.5 22t-53.5 60q-77 -83 -168 -83q-72 0 -119.5 47t-47.5 129q0 120 80 203t180 83q92 0 138 -75l3 8
q19 60 68 60q27 0 42.5 -21t5.5 -53l-69 -217q-17 -54 0.5 -84.5t60.5 -30.5q63 0 117 73.5t54 195.5q0 132 -103.5 224.5t-273.5 92.5q-193 0 -329 -137t-136 -323q0 -161 109 -262t282 -101q106 0 199 40q9 3 12 3q9 0 14.5 -5.5t5.5 -13.5q0 -13 -11 -18zM483 169
q56 0 102 50t46 118q0 40 -25.5 64.5t-67.5 24.5q-56 0 -100 -49t-44 -117q0 -42 24 -66.5t65 -24.5z" />
    <glyph glyph-name="A" unicode="A" horiz-adv-x="804" 
d="M615 666l100 -558q5 -35 5 -40q0 -31 -22.5 -52.5t-56.5 -21.5q-31 0 -51 17t-24 44l-17 111h-329l-87 -124q-34 -48 -78 -48q-29 0 -46 16.5t-17 43.5t18 51l410 574q42 60 108 60h3q71 0 84 -73zM314 302h212l-40 251z" />
    <glyph glyph-name="B" unicode="B" horiz-adv-x="756" 
d="M375 0h-267q-39 0 -56.5 26.5t-5.5 72.5l148 552q9 36 32 56.5t53 20.5h218q121 0 182.5 -50t61.5 -128q0 -71 -42.5 -118t-115.5 -63q104 -48 104 -148t-82 -160.5t-230 -60.5zM285 431h165q66 0 101.5 23.5t35.5 69.5q0 31 -26 50t-78 19h-156zM205 135h193
q63 0 99.5 26t36.5 70q0 34 -27 53t-78 19h-179z" />
    <glyph glyph-name="C" unicode="C" horiz-adv-x="766" 
d="M656 67q-43 -36 -106.5 -58t-132.5 -22q-150 0 -245.5 86.5t-95.5 229.5q0 176 130.5 306.5t312.5 130.5q145 0 241 -91q31 -29 31 -65q0 -33 -22.5 -56.5t-55.5 -23.5q-36 0 -55 22q-32 36 -67.5 54.5t-90.5 18.5q-105 0 -184.5 -86.5t-79.5 -203.5q0 -80 51 -130
t131 -50q44 0 72.5 11t70.5 39q28 18 52 18q30 0 50 -21.5t20 -51.5q0 -34 -27 -57z" />
    <glyph glyph-name="D" unicode="D" horiz-adv-x="818" 
d="M279 728h145q191 0 285 -94q79 -80 79 -213q0 -168 -120 -286q-133 -135 -381 -135h-179q-39 0 -56.5 26.5t-5.5 72.5l148 552q9 36 32 56.5t53 20.5zM210 139h95q157 0 249 90q74 76 74 186q0 75 -44 119q-55 55 -172 55h-81z" />
    <glyph glyph-name="E" unicode="E" horiz-adv-x="701" 
d="M521 0h-413q-39 0 -56.5 26.5t-5.5 72.5l148 552q9 36 32 56.5t53 20.5h396q29 0 49 -20t20 -49q0 -28 -20 -48t-49 -20h-345l-41 -157h260q29 0 49 -20t20 -48t-20 -47.5t-49 -19.5h-297l-44 -162h313q29 0 49 -20.5t20 -48.5t-20 -48t-49 -20z" />
    <glyph glyph-name="F" unicode="F" horiz-adv-x="699" 
d="M279 728h404q29 0 49.5 -20.5t20.5 -49.5t-20.5 -49.5t-49.5 -20.5h-353l-44 -163h269q29 0 49.5 -20.5t20.5 -49.5t-20.5 -49.5t-49.5 -20.5h-306l-57 -214q-10 -36 -33 -56.5t-53 -20.5q-39 0 -56.5 26.5t-5.5 72.5l150 558q9 36 32 56.5t53 20.5z" />
    <glyph glyph-name="G" unicode="G" horiz-adv-x="822" 
d="M754 318l-58 -204q-15 -54 -63 -81q-86 -46 -217 -46q-64 0 -124 19.5t-109 57t-78.5 99.5t-29.5 140q0 84 34.5 163.5t94 140t145 97t180.5 36.5q85 0 151 -23.5t103 -58.5q31 -27 31 -62q0 -32 -22 -54t-54 -22q-26 0 -48 16q-41 33 -79 48.5t-94 15.5q-118 0 -200 -87
t-82 -205q0 -84 54 -132t137 -48q71 0 135 30l36 126h-97q-28 0 -47.5 19t-19.5 47t19.5 47.5t47.5 19.5h192q39 0 57 -27t5 -72z" />
    <glyph glyph-name="H" unicode="H" horiz-adv-x="796" 
d="M799 634l-152 -563q-10 -36 -33 -56.5t-53 -20.5q-39 0 -56.5 27t-5.5 73l55 201h-301l-61 -224q-10 -36 -33 -56.5t-53 -20.5q-39 0 -56.5 27t-5.5 73l152 563q10 37 32.5 57t52.5 20q39 0 56.5 -27t5.5 -73l-52 -197h301l59 220q10 36 33 56.5t53 20.5q39 0 56.5 -27
t5.5 -73z" />
    <glyph glyph-name="I" unicode="I" horiz-adv-x="356" 
d="M351 634l-152 -563q-10 -36 -33 -56.5t-53 -20.5q-39 0 -56.5 27t-5.5 73l152 563q10 36 33 56.5t53 20.5q39 0 56.5 -27t5.5 -73z" />
    <glyph glyph-name="J" unicode="J" horiz-adv-x="606" 
d="M614 634l-93 -348q-23 -87 -45.5 -134t-60.5 -85q-77 -77 -214 -77q-114 0 -187 70q-28 26 -28 58q0 31 21 52.5t51 21.5q28 0 54 -22q41 -38 98 -38q62 0 102 42q19 18 32.5 48.5t32.5 100.5l89 334q10 36 33 56.5t53 20.5q39 0 56.5 -27t5.5 -73z" />
    <glyph glyph-name="K" unicode="K" horiz-adv-x="757" 
d="M226 198l-34 -127q-10 -36 -33 -56.5t-53 -20.5q-39 0 -56.5 27t-5.5 73l152 563q10 37 32.5 57t52.5 20q39 0 56.5 -27t5.5 -73l-63 -237l367 307q36 30 64 30q31 0 50.5 -20t19.5 -49q0 -35 -27 -57l-241 -197l133 -298q12 -29 12 -50q0 -31 -23.5 -50t-53.5 -19
q-55 0 -78 54l-116 277z" />
    <glyph glyph-name="L" unicode="L" horiz-adv-x="659" 
d="M496 0h-388q-39 0 -56.5 26.5t-5.5 72.5l150 558q10 37 32.5 57t52.5 20q39 0 56.5 -27t5.5 -73l-132 -494h285q29 0 49 -20.5t20 -49.5q0 -30 -20 -50t-49 -20z" />
    <glyph glyph-name="M" unicode="M" horiz-adv-x="913" 
d="M839 732h14q39 0 56.5 -27t4.5 -73l-151 -561q-10 -36 -33 -56.5t-53 -20.5q-39 0 -57 27t-6 73l93 352l-190 -206q-41 -46 -84 -46q-46 0 -65 55l-76 196l-100 -374q-10 -36 -33 -56.5t-53 -20.5q-39 0 -56.5 27t-5.5 73l151 560q21 78 87 78h9q54 0 78 -63l114 -298
l265 313q42 48 91 48z" />
    <glyph glyph-name="N" unicode="N" horiz-adv-x="827" 
d="M575 255l109 402q10 37 32.5 57t52.5 20q39 0 56.5 -27t4.5 -73l-153 -566q-19 -72 -83 -72h-3q-34 0 -53.5 14t-33.5 44l-203 434l-111 -417q-10 -37 -32.5 -57t-52.5 -20q-39 0 -56.5 27t-4.5 73l151 561q20 77 90 77h7q63 0 90 -61z" />
    <glyph glyph-name="O" unicode="O" horiz-adv-x="876" 
d="M408 -13q-148 0 -240 91.5t-92 230.5q0 82 32.5 159.5t88.5 138t139 97t177 36.5q148 0 240 -91t92 -230q0 -110 -54 -208t-156 -161t-227 -63zM426 129q111 0 185 88t74 192q0 85 -50 137.5t-139 52.5q-111 0 -185.5 -88t-74.5 -192q0 -85 50 -137.5t140 -52.5z" />
    <glyph glyph-name="P" unicode="P" horiz-adv-x="715" 
d="M233 224l-41 -153q-10 -36 -33 -56.5t-53 -20.5q-39 0 -56.5 27t-5.5 73l150 557q9 36 32 56.5t53 20.5h166q154 0 227 -73q56 -56 56 -149q0 -131 -99.5 -206.5t-254.5 -75.5h-141zM269 359h113q84 0 134.5 35.5t50.5 98.5q0 39 -24 63q-35 33 -104 33h-109z" />
    <glyph glyph-name="Q" unicode="Q" horiz-adv-x="876" 
d="M626 0l-23 33q-90 -46 -195 -46q-148 0 -240 91.5t-92 230.5q0 82 32.5 159.5t88.5 138t139 97t177 36.5q148 0 240 -91t92 -230q0 -174 -126 -302l17 -19q24 -28 24 -60q0 -30 -21 -50.5t-52 -20.5q-41 0 -61 33zM581 321l50 -78q54 77 54 166q0 85 -50 137.5t-139 52.5
q-111 0 -185.5 -88t-74.5 -192q0 -85 50 -137.5t140 -52.5q49 0 98 22l-49 63q-26 37 -26 62q0 31 22 53.5t53 22.5q38 0 57 -31z" />
    <glyph glyph-name="R" unicode="R" horiz-adv-x="765" 
d="M236 237l-44 -166q-10 -36 -33 -56.5t-53 -20.5q-39 0 -56.5 27t-5.5 73l150 557q9 36 32 56.5t53 20.5h200q157 0 229 -72q56 -56 56 -145q0 -105 -67 -172q-58 -58 -162 -85l92 -141q17 -25 17 -49q0 -33 -23 -51.5t-52 -18.5q-58 0 -89 51l-118 192h-126zM273 373h147
q104 0 152 48q31 33 31 77q0 37 -23 60q-33 31 -109 31h-140z" />
    <glyph glyph-name="S" unicode="S" horiz-adv-x="672" 
d="M319 125q51 0 84 22t33 58q0 28 -26 48.5t-99 50.5q-87 35 -134 79.5t-47 117.5q0 107 83 172t204 65q129 0 223 -66q35 -26 35 -64q0 -31 -21.5 -52.5t-53.5 -21.5q-27 0 -43 13q-71 56 -152 56q-51 0 -81 -23.5t-30 -54.5q0 -29 26 -48t104 -51q86 -35 131 -79t45 -117
q0 -109 -84 -174.5t-204 -65.5q-172 0 -270 85q-30 26 -30 64q0 33 21.5 55.5t53.5 22.5q26 0 50 -20q46 -40 86.5 -56t95.5 -16z" />
    <glyph glyph-name="T" unicode="T" horiz-adv-x="654" 
d="M485 586l-139 -515q-10 -36 -33 -56.5t-53 -20.5q-39 0 -56.5 27t-5.5 73l133 492h-139q-29 0 -50 21t-21 50t21 50t50 21h470q29 0 50 -21t21 -50t-21 -50t-50 -21h-177z" />
    <glyph glyph-name="U" unicode="U" horiz-adv-x="804" 
d="M812 634l-92 -340q-38 -142 -112 -216q-89 -89 -246 -89q-127 0 -199.5 65t-72.5 179q0 51 18 116l82 308q10 36 33 56.5t53 20.5q39 0 56.5 -27t5.5 -73l-81 -300q-11 -46 -11 -79q0 -57 34.5 -91t97.5 -34q74 0 122 48q50 50 73 139l91 340q10 36 33 56.5t53 20.5
q39 0 56.5 -27t5.5 -73z" />
    <glyph glyph-name="V" unicode="V" horiz-adv-x="762" 
d="M803 633l-398 -582q-42 -62 -102 -62h-7q-62 0 -72 68l-85 571q-3 16 -3 36q0 30 22.5 50t58.5 20q73 0 81 -71l56 -452l313 474q33 49 80 49q31 0 50.5 -14.5t19.5 -42.5q0 -24 -14 -44z" />
    <glyph glyph-name="W" unicode="W" horiz-adv-x="1160" 
d="M1201 630l-363 -579q-38 -62 -103 -62h-7q-67 0 -71 68l-31 415l-257 -421q-38 -62 -100 -62h-7q-66 0 -72 68l-50 570q-2 22 -2 36q0 30 22.5 50.5t57.5 20.5q34 0 54.5 -17t21.5 -47l28 -444l267 449q36 61 89 61h9q65 0 70 -61l29 -449l274 457q31 51 82 51
q32 0 52 -17t20 -46q0 -19 -13 -41z" />
    <glyph glyph-name="X" unicode="X" horiz-adv-x="738" 
d="M489 360l126 -233q19 -34 19 -57q0 -32 -22.5 -54t-55.5 -22q-54 0 -81 56l-98 202l-218 -216q-15 -15 -24 -22.5t-23.5 -13.5t-31.5 -6q-27 0 -46.5 18.5t-19.5 49.5q0 34 30 62l257 253l-121 224q-19 34 -19 57q0 32 22.5 54t55.5 22q54 0 81 -56l97 -197l204 211
q40 42 79 42q27 0 46.5 -18.5t19.5 -48.5q0 -33 -27 -60z" />
    <glyph glyph-name="Y" unicode="Y" horiz-adv-x="687" 
d="M411 267l-54 -196q-9 -36 -32 -56.5t-53 -20.5q-39 0 -56.5 27t-5.5 73l50 188l-134 321q-15 36 -15 58q0 31 23.5 52t59.5 21q53 0 75 -60l97 -257l251 274q41 44 82 44q30 0 47 -17t17 -46q0 -33 -26 -61z" />
    <glyph glyph-name="Z" unicode="Z" horiz-adv-x="725" 
d="M40 138l497 455h-301q-28 0 -48 19.5t-20 47.5t20 48t48 20h466q31 0 49 -16t18 -44v-2q0 -36 -42 -76l-497 -455h317q28 0 48 -20t20 -48t-20 -47.5t-48 -19.5h-483q-31 0 -48.5 16t-17.5 44v2q0 37 42 76z" />
    <glyph glyph-name="bracketleft" unicode="[" horiz-adv-x="491" 
d="M491 609h-149l-168 -625h117q25 0 42.5 -17t17.5 -42t-17.5 -42.5t-42.5 -17.5h-212q-33 0 -51.5 23t-10.5 54l190 709q9 33 33.5 55t58.5 22h192q25 0 42.5 -17.5t17.5 -42.5t-17.5 -42t-42.5 -17z" />
    <glyph glyph-name="backslash" unicode="\" horiz-adv-x="559" 
d="M267 776l184 -812q7 -33 7 -47q0 -24 -16.5 -40t-41.5 -16q-53 0 -65 60l-184 812q-6 28 -6 47q0 24 16.5 40t41.5 16q52 0 64 -60z" />
    <glyph glyph-name="bracketright" unicode="]" horiz-adv-x="491" 
d="M202 -135h-192q-25 0 -42.5 17.5t-17.5 42.5t17.5 42t42.5 17h149l168 625h-117q-25 0 -42.5 17t-17.5 42t17.5 42.5t42.5 17.5h212q33 0 51.5 -23t10.5 -54l-190 -709q-9 -33 -33.5 -55t-58.5 -22z" />
    <glyph glyph-name="asciicircum" unicode="^" 
d="M153 572l115 115q43 43 84 43h9q49 0 70 -46l53 -115q11 -24 11 -37q0 -24 -34 -24q-30 0 -44.5 9t-32.5 44l-39 77l-81 -79q-32 -30 -51 -40.5t-42 -10.5q-16 0 -25.5 8.5t-9.5 20.5q0 18 17 35z" />
    <glyph glyph-name="underscore" unicode="_" horiz-adv-x="634" 
d="M-98 -166q-24 0 -41.5 17t-17.5 41t17.5 41t41.5 17h628q24 0 41 -17t17 -41t-17 -41t-41 -17h-628z" />
    <glyph glyph-name="grave" unicode="`" 
d="M345 646l-49 61q-14 21 -14 33q0 18 28 34t57 16q40 0 53 -37l32 -86q4 -12 4 -21q0 -33 -48 -33q-22 0 -34.5 6.5t-28.5 26.5z" />
    <glyph glyph-name="a" unicode="a" horiz-adv-x="620" 
d="M240 94q50 0 91 33.5t56 82.5l4 17q-56 20 -110 20q-52 0 -84.5 -25t-32.5 -66q0 -27 21 -44.5t55 -17.5zM409 -6q-70 0 -65 68l1 4q-72 -77 -169 -77q-72 0 -117.5 42t-45.5 108q0 93 67.5 146.5t172.5 53.5q82 0 160 -25l3 8q6 26 6 42q0 69 -109 69q-53 0 -99 -13
q-18 -4 -25 -4q-26 0 -43 17.5t-17 43.5q0 45 46 59q80 26 170 26q111 0 167.5 -44t56.5 -127q0 -37 -12 -83l-63 -237q-10 -37 -32.5 -57t-52.5 -20z" />
    <glyph glyph-name="b" unicode="b" horiz-adv-x="710" 
d="M354 -11q-116 0 -177 95l-4 -13q-9 -34 -30 -55.5t-54 -21.5q-38 0 -55.5 26.5t-4.5 72.5l158 596q21 76 84 76q39 0 56.5 -26.5t4.5 -72.5l-46 -173q76 73 161 73q94 0 154 -64t60 -174q0 -144 -92.5 -241.5t-214.5 -97.5zM334 117q68 0 119 58.5t51 142.5
q0 56 -32.5 88t-86.5 32q-68 0 -121 -59t-53 -139q0 -55 34.5 -89t88.5 -34z" />
    <glyph glyph-name="c" unicode="c" horiz-adv-x="593" 
d="M495 54q-81 -66 -188 -66q-113 0 -185.5 68.5t-72.5 181.5q0 135 97.5 231.5t230.5 96.5q117 0 188 -71q28 -28 28 -59q0 -29 -21 -50t-51 -21q-32 0 -51 22q-38 49 -105 49q-65 0 -115.5 -59.5t-50.5 -138.5q0 -55 32.5 -88t81.5 -33q52 0 99 33q25 17 45 17
q26 0 43.5 -18.5t17.5 -44.5q0 -30 -23 -50z" />
    <glyph glyph-name="d" unicode="d" horiz-adv-x="710" 
d="M324 117q68 0 121 59.5t53 139.5q0 54 -34.5 88t-89.5 34q-68 0 -119 -58t-51 -142q0 -56 32.5 -88.5t87.5 -32.5zM488 -6q-32 0 -49.5 17.5t-17.5 46.5l1 5q-77 -74 -160 -74q-94 0 -154.5 64.5t-60.5 174.5q0 144 93 241t215 97q117 0 177 -95l57 218q10 36 32.5 56
t52.5 20q39 0 56.5 -26.5t4.5 -72.5l-159 -595q-10 -37 -33 -57t-55 -20z" />
    <glyph glyph-name="e" unicode="e" horiz-adv-x="640" 
d="M321 110q50 0 91 24q26 14 46 14q24 0 40.5 -16.5t16.5 -41.5q0 -33 -28 -51q-77 -51 -183 -51q-119 0 -187.5 65.5t-68.5 180.5q0 82 40 157t117 125t172 50q105 0 166 -60.5t61 -155.5q0 -26 -7 -58q-15 -67 -73 -67h-333v-2q4 -53 36.5 -83t93.5 -30zM205 321h251
q5 17 5 36q0 39 -24 63t-71 24q-55 0 -98 -33.5t-63 -89.5z" />
    <glyph glyph-name="f" unicode="f" horiz-adv-x="434" 
d="M298 426l-97 -355q-10 -37 -32 -57t-52 -20q-39 0 -56.5 26.5t-4.5 72.5l90 333h-3q-22 3 -39 20t-17 45t18.5 46.5t44.5 18.5h30l8 33q46 177 223 177q33 0 50 -4q50 -9 50 -58q0 -35 -20.5 -54.5t-47.5 -14.5q-13 3 -28 3q-62 0 -80 -64l-5 -18h63q26 0 44.5 -18.5
t18.5 -46.5t-18.5 -46.5t-44.5 -18.5h-95z" />
    <glyph glyph-name="g" unicode="g" horiz-adv-x="707" 
d="M318 167q68 0 119 49.5t51 116.5q0 49 -31.5 77.5t-83.5 28.5q-68 0 -116.5 -51t-48.5 -119q0 -49 30 -75.5t80 -26.5zM527 467l6 18q9 34 30 55.5t53 21.5q39 0 56.5 -27t4.5 -73l-95 -355q-21 -81 -41.5 -123t-54.5 -76q-78 -76 -222 -76q-133 0 -240 50q-43 20 -43 58
q0 27 18 46.5t45 19.5q21 0 45 -12q78 -42 165 -42q78 0 124 45q32 33 52 103l6 21q-45 -40 -85.5 -58t-91.5 -18q-86 0 -147 52.5t-61 143.5q0 135 93 230t211 95q117 0 172 -99z" />
    <glyph glyph-name="h" unicode="h" horiz-adv-x="656" 
d="M589 300l-61 -229q-10 -37 -32.5 -57t-52.5 -20q-39 0 -56.5 26.5t-4.5 72.5l57 213q7 26 7 50q0 35 -21 54t-59 19q-47 0 -79.5 -31.5t-47.5 -85.5l-65 -241q-10 -37 -32.5 -57t-52.5 -20q-38 0 -55.5 26.5t-4.5 72.5l158 596q21 76 84 76q39 0 56.5 -26.5t4.5 -72.5
l-45 -171q79 71 155 71t120.5 -43.5t44.5 -118.5q0 -36 -18 -104z" />
    <glyph glyph-name="i" unicode="i" horiz-adv-x="321" 
d="M356 686q-7 -32 -34 -50.5t-64 -18.5q-36 0 -57.5 20t-15.5 50l1 6q7 32 34 51t64 19q36 0 57.5 -20t15.5 -50zM286 462l-106 -391q-9 -36 -31.5 -56.5t-52.5 -20.5q-39 0 -56.5 26.5t-4.5 72.5l105 392q10 37 32.5 57t52.5 20q39 0 56.5 -27t4.5 -73z" />
    <glyph glyph-name="j" unicode="j" horiz-adv-x="320" 
d="M356 686q-7 -32 -34 -50.5t-64 -18.5q-36 0 -57.5 20t-15.5 50l1 6q7 32 34 51t64 19q36 0 57.5 -20t15.5 -50zM286 462l-121 -453q-49 -179 -208 -179q-82 0 -82 62q0 27 17 45.5t41 16.5q2 0 12.5 -1t14.5 -1q21 0 33.5 16t22.5 53l124 464q10 37 32.5 57t52.5 20
q39 0 56.5 -27t4.5 -73z" />
    <glyph glyph-name="k" unicode="k" horiz-adv-x="623" 
d="M334 666l-87 -322l250 191q35 27 58 27q28 0 45.5 -17.5t17.5 -43.5q0 -32 -28 -52l-170 -124l89 -212q14 -30 14 -52q0 -31 -23.5 -49t-54.5 -18q-57 0 -79 55l-77 181l-91 -67l-24 -92q-10 -37 -32.5 -57t-52.5 -20q-38 0 -55.5 26.5t-4.5 72.5l160 596q21 76 84 76
q39 0 56.5 -26.5t4.5 -72.5z" />
    <glyph glyph-name="l" unicode="l" horiz-adv-x="321" 
d="M341 666l-161 -595q-9 -36 -31.5 -56.5t-52.5 -20.5q-39 0 -56.5 26.5t-4.5 72.5l160 596q10 36 32.5 56t52.5 20q38 0 55.5 -26.5t5.5 -72.5z" />
    <glyph glyph-name="m" unicode="m" horiz-adv-x="997" 
d="M376 93l57 213q7 26 7 50q0 73 -77 73q-46 0 -77.5 -31.5t-46.5 -85.5l-65 -241q-10 -37 -32.5 -57t-52.5 -20q-38 0 -55.5 26.5t-4.5 72.5l104 392q10 37 33 57t55 20t50 -17.5t17 -44.5l-1 -5q79 71 151 71q111 0 148 -102q83 102 201 102q74 0 117.5 -43.5
t43.5 -118.5q0 -36 -18 -104l-61 -229q-10 -37 -32.5 -57t-52.5 -20q-39 0 -56.5 26.5t-4.5 72.5l57 213q8 30 8 50q0 73 -77 73q-93 0 -125 -117l-65 -241q-10 -37 -32 -57t-52 -20q-39 0 -56.5 26.5t-4.5 72.5z" />
    <glyph glyph-name="n" unicode="n" horiz-adv-x="653" 
d="M221 562q32 0 50 -17.5t17 -44.5l-1 -5q79 71 155 71t120.5 -43.5t44.5 -118.5q0 -36 -18 -104l-61 -229q-10 -37 -32.5 -57t-52.5 -20q-39 0 -56.5 26.5t-4.5 72.5l57 213q7 26 7 50q0 35 -21 54t-59 19q-47 0 -79.5 -31.5t-47.5 -85.5l-65 -241q-10 -37 -32.5 -57
t-52.5 -20q-38 0 -55.5 26.5t-4.5 72.5l104 392q10 37 33 57t55 20z" />
    <glyph glyph-name="o" unicode="o" horiz-adv-x="687" 
d="M316 -12q-121 0 -194 71.5t-73 184.5q0 127 95 224.5t227 97.5q121 0 194 -71.5t73 -184.5q0 -127 -95 -224.5t-227 -97.5zM323 117q69 0 117.5 61t48.5 128q0 61 -34 95.5t-91 34.5q-70 0 -118 -60.5t-48 -127.5q0 -61 34.5 -96t90.5 -35z" />
    <glyph glyph-name="p" unicode="p" horiz-adv-x="710" 
d="M385 438q-68 0 -121 -59t-53 -139q0 -55 34.5 -89t88.5 -34q68 0 119 58.5t51 142.5q0 56 -32.5 88t-86.5 32zM221 562q32 0 49.5 -17.5t16.5 -46.5l-1 -5q76 73 161 73q94 0 154 -64t60 -174q0 -144 -92.5 -241.5t-214.5 -97.5q-116 0 -177 95l-48 -180q-10 -37 -32 -57
t-52 -20q-39 0 -56.5 27t-4.5 73l149 558q10 37 33 57t55 20z" />
    <glyph glyph-name="q" unicode="q" horiz-adv-x="710" 
d="M355 566q117 0 177 -95l4 14q9 34 30 55.5t53 21.5q39 0 56.5 -27t4.5 -73l-148 -558q-10 -37 -32.5 -57t-52.5 -20q-39 0 -56.5 27t-4.5 73l36 136q-77 -74 -160 -74q-94 0 -154.5 64.5t-60.5 174.5q0 144 93 241t215 97zM374 438q-68 0 -119 -58t-51 -142
q0 -56 32.5 -88.5t87.5 -32.5q68 0 121 59.5t53 139.5q0 54 -34.5 88t-89.5 34z" />
    <glyph glyph-name="r" unicode="r" horiz-adv-x="444" 
d="M280 471l-5 -19q59 110 135 110q30 0 47.5 -18t17.5 -50q0 -59 -67 -78q-77 -21 -125.5 -72.5t-73.5 -144.5l-36 -128q-10 -37 -32.5 -57t-52.5 -20q-38 0 -55.5 26.5t-4.5 72.5l105 392q10 37 32.5 57t52.5 20q37 0 54.5 -25t7.5 -66z" />
    <glyph glyph-name="s" unicode="s" 
d="M242 104q33 0 52 14t19 38q0 27 -68 55q-40 17 -63.5 29.5t-49 32t-37 44t-11.5 56.5q0 84 60.5 138.5t161.5 54.5q94 0 177 -50q35 -20 35 -56q0 -27 -18.5 -46t-44.5 -19q-17 0 -40 15q-62 40 -120 40q-31 0 -48.5 -13.5t-17.5 -36.5q0 -16 18 -29.5t58 -31.5
q35 -16 56.5 -27.5t47 -30.5t37.5 -43.5t12 -55.5q0 -89 -63.5 -141.5t-163.5 -52.5q-121 0 -214 70q-27 20 -27 52q0 26 18 45t43 19q22 0 40 -14q71 -56 151 -56z" />
    <glyph glyph-name="t" unicode="t" horiz-adv-x="440" 
d="M178 556l20 73q10 37 32.5 57t52.5 20q39 0 56.5 -26.5t4.5 -72.5l-14 -51h59q26 0 44.5 -18.5t18.5 -46.5t-18.5 -46.5t-44.5 -18.5h-94l-64 -240q-5 -23 -5 -26q0 -36 43 -36q3 0 8 0.5t6 0.5q24 0 39.5 -15t15.5 -42q0 -45 -40 -62q-35 -15 -90 -15q-70 0 -107 30
t-37 79q0 28 10 68l69 258h-3q-22 3 -39 20t-17 45t18.5 46.5t44.5 18.5h31z" />
    <glyph glyph-name="u" unicode="u" horiz-adv-x="656" 
d="M435 -6q-32 0 -50 17.5t-17 44.5l1 5q-80 -72 -155 -72t-120 44t-45 119q0 36 18 104l61 229q10 37 32.5 57t52.5 20q39 0 56.5 -27t4.5 -73l-57 -212q-7 -28 -7 -51q0 -34 21 -53t59 -19q47 0 79.5 31.5t47.5 85.5l65 241q10 37 32.5 57t52.5 20q38 0 55.5 -27t5.5 -73
l-105 -391q-10 -37 -33 -57t-55 -20z" />
    <glyph glyph-name="v" unicode="v" horiz-adv-x="623" 
d="M621 464l-285 -412q-23 -33 -45.5 -47.5t-54.5 -14.5h-4q-66 0 -76 68l-63 398q-3 16 -3 36q0 30 23.5 50t53.5 20q33 0 54 -17t23 -47l33 -320l214 336q30 48 79 48q30 0 47 -15.5t17 -42.5q0 -24 -13 -40z" />
    <glyph glyph-name="w" unicode="w" horiz-adv-x="901" 
d="M117 58l-24 397q-3 33 -3 36q0 29 24 50t54 21q33 0 54 -17t22 -47l9 -288l169 292q35 61 89 61h8q30 0 48.5 -16t19.5 -45l13 -293l177 308q26 45 71 45q29 0 45 -15t16 -42q0 -21 -12 -41l-248 -412q-37 -62 -98 -62h-5q-66 0 -69 68l-15 287l-173 -293
q-36 -62 -98 -62h-5q-66 0 -69 68z" />
    <glyph glyph-name="x" unicode="x" horiz-adv-x="610" 
d="M262 507l66 -122l142 140q16 15 23.5 21t20.5 12t29 6q26 0 43.5 -16.5t17.5 -43.5q0 -37 -35 -68l-177 -160l95 -155q19 -31 19 -57q0 -33 -20.5 -53t-52.5 -20q-47 0 -76 57l-70 131l-152 -148q-2 -2 -8.5 -8t-9 -8t-8 -6t-8.5 -6t-8 -4.5t-9.5 -3.5t-10 -2t-11.5 -1
q-26 0 -43 17t-17 43q0 37 34 68l187 167l-92 147q-19 28 -19 58q0 31 19.5 51.5t51.5 20.5q28 0 45.5 -13.5t33.5 -43.5z" />
    <glyph glyph-name="y" unicode="y" horiz-adv-x="624" 
d="M63 -33q36 -9 48 -9q33 0 61 39l-68 458q-3 17 -3 36q0 30 21.5 50.5t53.5 20.5q31 0 52 -17.5t22 -47.5l36 -329l202 346q26 48 77 48q30 0 48 -16t18 -43q0 -20 -20 -52l-293 -465q-54 -85 -105.5 -120.5t-119.5 -35.5q-49 0 -76 13q-46 20 -46 66q0 27 18 46.5
t42 19.5q10 0 32 -8z" />
    <glyph glyph-name="z" unicode="z" horiz-adv-x="589" 
d="M175 556h351q31 0 49 -15t18 -41v-1q0 -36 -36 -68l-353 -308h217q25 0 43.5 -18.5t18.5 -43.5t-18 -43t-44 -18h-362q-32 0 -50 15t-18 41v1q0 36 37 68l351 308h-204q-26 0 -44 18t-18 43q0 26 18.5 44t43.5 18z" />
    <glyph glyph-name="braceleft" unicode="{" horiz-adv-x="519" 
d="M364 -87q0 -28 -20.5 -44t-49.5 -9q-83 20 -121.5 56.5t-38.5 96.5q0 36 21 92q16 43 16 73q0 28 -10 41t-39 20q-65 12 -65 59q0 25 17.5 41.5t44.5 16.5h4q70 0 100 34t42 127q14 111 74.5 163.5t171.5 61.5q67 4 67 -52q0 -45 -47 -53q-72 -12 -99 -46t-36 -109
q-12 -104 -50 -145.5t-119 -49.5q42 -7 65 -31.5t23 -61.5q0 -32 -18 -78t-18 -76q0 -50 49 -74q36 -17 36 -53z" />
    <glyph glyph-name="bar" unicode="|" horiz-adv-x="370" 
d="M143 -79v855q0 25 17.5 42.5t42.5 17.5t42.5 -17.5t17.5 -42.5v-855q0 -25 -17.5 -42.5t-42.5 -17.5t-42.5 17.5t-17.5 42.5z" />
    <glyph glyph-name="braceright" unicode="}" horiz-adv-x="519" 
d="M19 -145q-67 -4 -67 52q0 45 47 53q71 12 98 45.5t36 109.5q12 104 50.5 145.5t118.5 49.5q-41 7 -64 31.5t-23 61.5q0 32 18 78t18 76q0 50 -50 74q-35 17 -35 53q0 28 20.5 44t49.5 9q83 -21 121.5 -57t38.5 -96q0 -36 -21 -92q-16 -43 -16 -73q0 -28 10 -41t39 -20
q65 -12 65 -60q0 -25 -17.5 -41t-44.5 -16h-4q-70 0 -100 -34t-42 -127q-15 -111 -75 -163.5t-171 -61.5z" />
    <glyph glyph-name="asciitilde" unicode="~" horiz-adv-x="537" 
d="M116 234q-18 0 -30.5 11.5t-12.5 28.5q0 16 9 30q25 46 61 74t77 28q42 0 82 -30q35 -27 54 -27q30 0 57 34q18 23 45 23q18 0 30 -11.5t12 -28.5q0 -14 -8 -30q-58 -102 -139 -102q-37 0 -81 30q-38 28 -55 28q-28 0 -56 -34q-19 -24 -45 -24z" />
    <glyph glyph-name="uni00A0" unicode="&#xa0;" horiz-adv-x="322" 
 />
    <glyph glyph-name="exclamdown" unicode="&#xa1;" horiz-adv-x="343" 
d="M358 651l-1 -8q-8 -37 -34 -60t-64 -23q-39 0 -60.5 24t-15.5 59l2 8q6 36 33 59.5t65 23.5q39 0 60 -23.5t15 -59.5zM24 48l149 404q15 38 49 38q21 0 32 -13t7 -36l-65 -393q-5 -22 -19 -36.5t-34 -14.5h-90q-20 0 -28.5 15t-0.5 36z" />
    <glyph glyph-name="cent" unicode="&#xa2;" horiz-adv-x="618" 
d="M223 340q0 -66 47 -103l114 291h-1q-69 -7 -114.5 -62.5t-45.5 -125.5zM532 129q-79 -49 -174 -49q-24 0 -48 3l-18 -45q-19 -50 -57 -50q-26 0 -39 19t-1 48l20 53q-67 31 -104 90.5t-37 139.5q0 136 95 228.5t234 92.5q18 0 27 -1l13 32q21 50 58 50q26 0 38.5 -18.5
t0.5 -48.5l-14 -37q51 -22 81 -53q29 -29 29 -59t-21 -50.5t-51 -20.5t-49 21q-19 22 -43 36l-117 -300h2q49 1 99 27q28 14 49 14q26 0 42.5 -18t16.5 -45q0 -39 -32 -59z" />
    <glyph glyph-name="sterling" unicode="&#xa3;" horiz-adv-x="679" 
d="M473 596q-44 0 -74 -30q-28 -30 -44 -85l-21 -74h170q26 0 45 -19t19 -45t-19 -44.5t-45 -18.5h-203l-39 -147h241q28 0 47.5 -19.5t19.5 -47.5t-19.5 -47t-47.5 -19h-440q-27 0 -44 16t-17 40q0 43 51 59l55 17l39 148h-4q-26 0 -45 18.5t-19 44.5t19 45t45 19h38
l27 100q27 100 83 158q75 73 193 73q109 0 172 -61q32 -30 32 -62q0 -33 -21.5 -55.5t-54.5 -22.5q-30 0 -51 23q-36 36 -88 36z" />
    <glyph glyph-name="yen" unicode="&#xa5;" horiz-adv-x="749" 
d="M411 451l223 240q40 44 74 44q30 0 46.5 -17t16.5 -46q0 -31 -28 -61l-228 -230h91q22 0 38 -15.5t16 -38.5t-16 -38.5t-38 -15.5h-160l-17 -67h131q22 0 38 -16t16 -38t-16 -38t-38 -16h-161l-7 -27q-10 -36 -32.5 -56.5t-50.5 -20.5q-38 0 -55 24.5t-5 69.5l2 10h-130
q-23 0 -39 16t-16 38t16 38t39 16h160l17 67h-131q-23 0 -38.5 15.5t-15.5 38.5t15.5 38.5t38.5 15.5h119l-100 222q-16 39 -16 57q0 32 22 53t55 21q54 0 73 -49z" />
    <glyph glyph-name="section" unicode="&#xa7;" horiz-adv-x="667" 
d="M420 297q29 0 50.5 15.5t21.5 37.5q0 21 -21.5 34.5t-70.5 27.5q-70 22 -105 22q-30 0 -51.5 -15.5t-21.5 -37.5q0 -21 21.5 -34.5t70.5 -27.5q70 -22 106 -22zM308 105q35 0 55.5 11.5t20.5 30.5q0 17 -22.5 29t-85.5 30q-98 27 -147 58.5t-49 90.5q0 52 37 87.5
t108 49.5q-40 37 -40 87q0 70 66 115.5t169 45.5q109 0 188 -53q31 -21 31 -54q0 -27 -18.5 -45t-45.5 -18q-19 0 -36 11q-68 45 -130 45q-37 0 -58 -11t-21 -31q0 -17 22.5 -29t86.5 -30q97 -27 146 -58.5t49 -90.5q0 -52 -37 -87.5t-108 -49.5q40 -37 40 -87
q0 -70 -65 -115.5t-164 -45.5q-132 0 -217 68q-24 22 -24 52q0 26 18 44.5t43 18.5q23 0 43 -14q68 -55 145 -55z" />
    <glyph glyph-name="dieresis" unicode="&#xa8;" 
d="M561 685q-7 -33 -32 -52.5t-59 -19.5q-36 0 -55 20.5t-12 51.5l2 6q7 32 32 51.5t59 19.5q33 0 53 -21t14 -50zM342 685q-7 -33 -32 -52.5t-60 -19.5t-54 20.5t-12 51.5l2 6q7 32 32 51.5t59 19.5q33 0 52.5 -21t13.5 -50z" />
    <glyph glyph-name="copyright" unicode="&#xa9;" horiz-adv-x="873" 
d="M458 -12q-157 0 -266.5 109.5t-109.5 264.5v2q0 155 110.5 265.5t267.5 110.5t266 -109.5t109 -264.5v-2q0 -155 -110 -265.5t-267 -110.5zM458 28q141 0 237.5 98.5t96.5 237.5v2q0 140 -95.5 237t-236.5 97q-142 0 -238.5 -98.5t-96.5 -237.5v-2q0 -140 95.5 -237
t237.5 -97zM463 163q-87 0 -145.5 59t-58.5 145v2q0 86 58.5 146.5t148.5 60.5q80 0 135 -43q19 -14 19 -36q0 -18 -12.5 -30.5t-29.5 -12.5q-15 0 -29 11q-39 30 -83 30q-50 0 -83 -36t-33 -89v-2q0 -51 32.5 -87.5t83.5 -36.5q49 0 89 35q14 10 27 10q17 0 29 -12.5
t12 -29.5q0 -18 -13 -29q-61 -55 -147 -55z" />
    <glyph glyph-name="ordfeminine" unicode="&#xaa;" horiz-adv-x="416" 
d="M237 474q27 0 50 19t29 46l3 8q-29 11 -60 11q-29 0 -46.5 -13.5t-17.5 -35.5q0 -15 11.5 -25t30.5 -10zM277 660q-23 0 -53 -7q-15 -3 -19 -3q-30 0 -30 32q0 27 27 37q41 13 93 13q60 0 91.5 -24.5t31.5 -69.5q0 -24 -6 -46l-36 -131q-11 -42 -47 -42q-20 0 -29 11
t-7 27l1 2q-40 -42 -93 -42q-40 0 -65 23t-25 59q0 52 37.5 81.5t95.5 29.5q41 0 88 -15l2 7q3 12 3 19q0 39 -60 39zM89 289q-14 0 -23.5 10t-9.5 24q0 13 10 23t23 10h232q14 0 24 -9.5t10 -23.5t-10 -24t-24 -10h-232z" />
    <glyph glyph-name="guillemotleft" unicode="&#xab;" horiz-adv-x="671" 
d="M356 298l178 175q32 30 58 30t41.5 -15t15.5 -40q0 -28 -21 -47l-154 -146l63 -122q10 -20 10 -39q0 -26 -18.5 -43.5t-45.5 -17.5q-41 0 -59 37l-72 143q-16 32 -16 44q0 23 20 41zM80 298l177 175q32 30 58 30t41.5 -15t15.5 -40q0 -28 -21 -47l-154 -146l64 -122
q10 -20 10 -39q0 -26 -18.5 -43.5t-45.5 -17.5q-41 0 -59 37l-72 143q-16 32 -16 44q0 23 20 41z" />
    <glyph glyph-name="registered" unicode="&#xae;" horiz-adv-x="396" 
d="M276 374q-76 0 -128.5 53.5t-52.5 127.5v1q0 75 53 128.5t128 53.5q76 0 128.5 -53t52.5 -128v-1q0 -74 -53 -128t-128 -54zM276 394q67 0 113.5 47.5t46.5 114.5v1q0 67 -46 114.5t-114 47.5t-114 -48t-46 -115v-1q0 -67 46 -114t114 -47zM198 486v143q0 11 8 18.5
t18 7.5h64q37 0 58.5 -16.5t21.5 -48.5q0 -41 -36 -57l25 -29q7 -10 7 -19q0 -10 -7.5 -17.5t-18.5 -7.5q-13 0 -21 10l-41 52h-26v-36q0 -10 -8 -18t-18 -8t-18 8t-8 18zM250 563h35q30 0 30 24q0 23 -30 23h-35v-47z" />
    <glyph glyph-name="macron" unicode="&#xaf;" 
d="M511 625h-277q-22 0 -37.5 15.5t-15.5 37.5t15.5 37.5t37.5 15.5h277q22 0 37.5 -15.5t15.5 -37.5t-15.5 -37.5t-37.5 -15.5z" />
    <glyph glyph-name="degree" unicode="&#xb0;" horiz-adv-x="468" 
d="M262 381q-75 0 -120 44t-45 114q0 79 57.5 138.5t139.5 59.5q75 0 120 -44.5t45 -113.5q0 -79 -58 -138.5t-139 -59.5zM265 459q44 0 74 36.5t30 79.5q0 37 -22 60t-57 23q-44 0 -74 -36t-30 -80q0 -37 22 -60t57 -23z" />
    <glyph glyph-name="plusminus" unicode="&#xb1;" horiz-adv-x="674" 
d="M435 394l-29 -114q-10 -34 -31 -53.5t-46 -19.5q-34 0 -49.5 23.5t-3.5 67.5l24 96h-107q-27 0 -46 19t-19 46t19 46t46 19h143l30 112q10 35 30.5 54t46.5 19q34 0 49.5 -23.5t3.5 -67.5l-25 -94h107q27 0 46 -19t19 -46t-19 -46t-46 -19h-143zM474 0h-388
q-27 0 -45.5 18.5t-18.5 44.5t18.5 44.5t45.5 18.5h388q26 0 44.5 -18.5t18.5 -44.5t-18.5 -44.5t-44.5 -18.5z" />
    <glyph glyph-name="acute" unicode="&#xb4;" 
d="M471 707l-83 -61q-44 -33 -89 -33q-42 0 -42 28q0 14 13 28l80 88q31 33 57 33q30 0 58 -15t28 -34q0 -17 -22 -34z" />
    <glyph glyph-name="paragraph" unicode="&#xb6;" horiz-adv-x="626" 
d="M632 651l-155 -580q-9 -36 -32 -56.5t-53 -20.5q-39 0 -56.5 27t-5.5 73l34 130q-128 2 -198 57t-70 161q0 127 94 206.5t272 79.5h108q35 0 52.5 -23t9.5 -54z" />
    <glyph glyph-name="periodcentered" unicode="&#xb7;" horiz-adv-x="336" 
d="M263 326l-2 -9q-6 -36 -33 -59t-65 -23q-39 0 -60 23.5t-15 59.5l1 8q7 37 33.5 60t64.5 23q39 0 60.5 -24t15.5 -59z" />
    <glyph glyph-name="cedilla" unicode="&#xb8;" 
d="M294 10l-102 -150q-21 -32 -52 -32q-22 0 -45 16t-23 35q0 17 15 33l94 98h113z" />
    <glyph glyph-name="ordmasculine" unicode="&#xba;" horiz-adv-x="427" 
d="M261 415q-67 0 -107 39.5t-40 101.5q0 71 51.5 124t124.5 53q67 0 107 -39.5t40 -101.5q0 -70 -51.5 -123.5t-124.5 -53.5zM264 487q39 0 65 32t26 70q0 32 -18.5 52t-49.5 20q-39 0 -64.5 -31.5t-25.5 -69.5q0 -33 18.5 -53t48.5 -20zM90 289q-14 0 -23.5 10t-9.5 24
q0 13 9.5 23t23.5 10h244q14 0 23.5 -10t9.5 -23q0 -14 -9.5 -24t-23.5 -10h-244z" />
    <glyph glyph-name="guillemotright" unicode="&#xbb;" horiz-adv-x="671" 
d="M311 248l-177 -175q-32 -30 -58 -30t-41.5 15t-15.5 40q0 28 21 47l154 146l-64 122q-10 20 -10 39q0 26 18.5 43.5t45.5 17.5q40 0 59 -37l72 -143q16 -32 16 -44q0 -23 -20 -41zM588 248l-177 -175q-32 -30 -59 -30q-26 0 -41.5 15t-15.5 40q0 29 22 47l153 146
l-63 122q-10 20 -10 39q0 26 18.5 43.5t45.5 17.5q41 0 59 -37l72 -143q16 -32 16 -44q0 -23 -20 -41z" />
    <glyph glyph-name="questiondown" unicode="&#xbf;" horiz-adv-x="575" 
d="M508 643q-8 -37 -34.5 -60t-63.5 -23q-39 0 -60.5 23.5t-15.5 59.5l2 8q6 36 33 59.5t65 23.5q39 0 60 -23.5t15 -59.5zM395 165q32 17 52 17q26 0 43.5 -18.5t17.5 -41.5q0 -40 -33 -64q-91 -67 -213 -67q-105 0 -167.5 55t-62.5 133q0 92 68 150.5t198 78.5l14 33
q19 49 63 49h8q22 0 33.5 -14t8.5 -38l-10 -82q-3 -24 -18 -35.5t-47 -16.5q-71 -10 -114.5 -36.5t-43.5 -68.5q0 -32 23 -50.5t68 -18.5q54 0 112 35z" />
    <glyph glyph-name="Agrave" unicode="&#xc0;" horiz-adv-x="804" 
d="M467 823l-49 61q-14 21 -14 33q0 18 28 34t57 16q40 0 53 -37l32 -86q4 -12 4 -21q0 -33 -48 -33q-22 0 -34.5 6.5t-28.5 26.5zM615 666l100 -558q5 -35 5 -40q0 -31 -22.5 -52.5t-56.5 -21.5q-31 0 -51 17t-24 44l-17 111h-329l-87 -124q-34 -48 -78 -48q-29 0 -46 16.5
t-17 43.5t18 51l410 574q42 60 108 60h3q71 0 84 -73zM314 302h212l-40 251z" />
    <glyph glyph-name="Aacute" unicode="&#xc1;" horiz-adv-x="804" 
d="M733 884l-83 -61q-44 -33 -89 -33q-42 0 -42 28q0 14 13 28l80 88q31 33 57 33q30 0 58 -15t28 -34q0 -18 -22 -34zM615 666l100 -558q5 -35 5 -40q0 -31 -22.5 -52.5t-56.5 -21.5q-31 0 -51 17t-24 44l-17 111h-329l-87 -124q-34 -48 -78 -48q-29 0 -46 16.5t-17 43.5
t18 51l410 574q42 60 108 60h3q71 0 84 -73zM314 302h212l-40 251z" />
    <glyph glyph-name="Acircumflex" unicode="&#xc2;" horiz-adv-x="804" 
d="M675 924l40 -78q13 -23 13 -32q0 -24 -34 -24q-31 0 -49.5 5.5t-38.5 27.5l-38 42l-61 -42q-48 -33 -95 -33q-32 0 -32 23q0 15 17 32l86 83q34 34 78 34h44q49 0 70 -38zM615 666l100 -558q5 -35 5 -40q0 -31 -22.5 -52.5t-56.5 -21.5q-31 0 -51 17t-24 44l-17 111h-329
l-87 -124q-34 -48 -78 -48q-29 0 -46 16.5t-17 43.5t18 51l410 574q42 60 108 60h3q71 0 84 -73zM314 302h212l-40 251z" />
    <glyph glyph-name="Atilde" unicode="&#xc3;" horiz-adv-x="804" 
d="M396 793q-18 0 -30 11.5t-12 28.5q0 15 8 29q58 103 139 103q41 0 82 -31q35 -27 54 -27q29 0 56 34q21 24 46 24q18 0 30 -11.5t12 -28.5q0 -16 -8 -30q-59 -103 -139 -103q-40 0 -81 31q-36 27 -55 27q-29 0 -56 -34q-20 -23 -46 -23zM615 666l100 -558q5 -35 5 -40
q0 -31 -22.5 -52.5t-56.5 -21.5q-31 0 -51 17t-24 44l-17 111h-329l-87 -124q-34 -48 -78 -48q-29 0 -46 16.5t-17 43.5t18 51l410 574q42 60 108 60h3q71 0 84 -73zM314 302h212l-40 251z" />
    <glyph glyph-name="Adieresis" unicode="&#xc4;" horiz-adv-x="804" 
d="M755 862q-7 -33 -32 -52.5t-59 -19.5q-36 0 -55 20.5t-12 51.5l2 6q7 32 32 51.5t59 19.5q33 0 53 -21t14 -50zM536 862q-7 -33 -32 -52.5t-60 -19.5t-54 20.5t-12 51.5l2 6q7 32 32 51.5t59 19.5q33 0 52.5 -21t13.5 -50zM615 666l100 -558q5 -35 5 -40
q0 -31 -22.5 -52.5t-56.5 -21.5q-31 0 -51 17t-24 44l-17 111h-329l-87 -124q-34 -48 -78 -48q-29 0 -46 16.5t-17 43.5t18 51l410 574q42 60 108 60h3q71 0 84 -73zM314 302h212l-40 251z" />
    <glyph glyph-name="Aring" unicode="&#xc5;" horiz-adv-x="804" 
d="M55 -6q-29 0 -46 16.5t-17 43.5t18 51l438 613q-29 27 -29 75q0 56 40.5 96.5t97.5 40.5q51 0 82 -30.5t31 -76.5q0 -75 -63 -114l108 -601q5 -35 5 -40q0 -31 -22.5 -52.5t-56.5 -21.5q-31 0 -51 17t-24 44l-17 111h-329l-87 -124q-34 -48 -78 -48zM535 742
q30 0 50.5 24.5t20.5 55.5q0 23 -13.5 37.5t-37.5 14.5q-31 0 -51 -24t-20 -56q0 -22 14 -37t37 -15zM314 302h212l-40 251z" />
    <glyph glyph-name="AE" unicode="&#xc6;" horiz-adv-x="1111" 
d="M352 302h178l78 293h-20zM591 728h493q28 0 48.5 -20t20.5 -49q0 -28 -20 -48t-49 -20h-324l-42 -157h240q29 0 49 -20t20 -48t-20 -47.5t-49 -19.5h-277l-44 -162h294q29 0 49 -20.5t20 -48.5t-20 -48t-49 -20h-395q-39 0 -56.5 27t-5.5 72l19 67h-250l-102 -128
q-36 -44 -75 -44q-27 0 -43 15.5t-16 39.5q0 30 23 59l458 564q47 56 103 56z" />
    <glyph glyph-name="Ccedilla" unicode="&#xc7;" horiz-adv-x="766" 
d="M322 -140q-21 -32 -52 -32q-22 0 -45 16t-23 35q0 17 15 33l86 90q-104 29 -165.5 108.5t-61.5 192.5q0 176 130.5 306.5t312.5 130.5q145 0 241 -91q31 -29 31 -65q0 -33 -22.5 -56.5t-55.5 -23.5q-36 0 -55 22q-32 36 -67.5 54.5t-90.5 18.5q-105 0 -184.5 -86.5
t-79.5 -203.5q0 -80 51 -130t131 -50q44 0 72.5 11t70.5 39q28 18 52 18q30 0 50 -21.5t20 -51.5q0 -34 -27 -57q-43 -36 -106.5 -58t-132.5 -22h-9z" />
    <glyph glyph-name="Egrave" unicode="&#xc8;" horiz-adv-x="701" 
d="M419 813l-49 61q-14 21 -14 33q0 18 28 34t57 16q40 0 53 -37l32 -86q4 -12 4 -21q0 -33 -48 -33q-22 0 -34.5 6.5t-28.5 26.5zM521 0h-413q-39 0 -56.5 26.5t-5.5 72.5l148 552q9 36 32 56.5t53 20.5h396q29 0 49 -20t20 -49q0 -28 -20 -48t-49 -20h-345l-41 -157h260
q29 0 49 -20t20 -48t-20 -47.5t-49 -19.5h-297l-44 -162h313q29 0 49 -20.5t20 -48.5t-20 -48t-49 -20z" />
    <glyph glyph-name="Eacute" unicode="&#xc9;" horiz-adv-x="701" 
d="M684 874l-83 -61q-44 -33 -89 -33q-42 0 -42 28q0 14 13 28l80 88q31 33 57 33q30 0 58 -15t28 -34q0 -18 -22 -34zM521 0h-413q-39 0 -56.5 26.5t-5.5 72.5l148 552q9 36 32 56.5t53 20.5h396q29 0 49 -20t20 -49q0 -28 -20 -48t-49 -20h-345l-41 -157h260q29 0 49 -20
t20 -48t-20 -47.5t-49 -19.5h-297l-44 -162h313q29 0 49 -20.5t20 -48.5t-20 -48t-49 -20z" />
    <glyph glyph-name="Ecircumflex" unicode="&#xca;" horiz-adv-x="701" 
d="M626 914l40 -78q13 -23 13 -32q0 -24 -34 -24q-31 0 -49.5 5.5t-38.5 27.5l-38 42l-61 -42q-48 -33 -95 -33q-32 0 -32 23q0 15 17 32l86 83q34 34 78 34h44q49 0 70 -38zM521 0h-413q-39 0 -56.5 26.5t-5.5 72.5l148 552q9 36 32 56.5t53 20.5h396q29 0 49 -20t20 -49
q0 -28 -20 -48t-49 -20h-345l-41 -157h260q29 0 49 -20t20 -48t-20 -47.5t-49 -19.5h-297l-44 -162h313q29 0 49 -20.5t20 -48.5t-20 -48t-49 -20z" />
    <glyph glyph-name="Edieresis" unicode="&#xcb;" horiz-adv-x="701" 
d="M705 852q-7 -33 -32 -52.5t-59 -19.5q-36 0 -55 20.5t-12 51.5l2 6q7 32 32 51.5t59 19.5q33 0 53 -21t14 -50zM486 852q-7 -33 -32 -52.5t-60 -19.5t-54 20.5t-12 51.5l2 6q7 32 32 51.5t59 19.5q33 0 52.5 -21t13.5 -50zM521 0h-413q-39 0 -56.5 26.5t-5.5 72.5
l148 552q9 36 32 56.5t53 20.5h396q29 0 49 -20t20 -49q0 -28 -20 -48t-49 -20h-345l-41 -157h260q29 0 49 -20t20 -48t-20 -47.5t-49 -19.5h-297l-44 -162h313q29 0 49 -20.5t20 -48.5t-20 -48t-49 -20z" />
    <glyph glyph-name="Igrave" unicode="&#xcc;" horiz-adv-x="356" 
d="M233 813l-49 61q-14 21 -14 33q0 18 28 34t57 16q40 0 53 -37l32 -86q4 -12 4 -21q0 -33 -48 -33q-22 0 -34.5 6.5t-28.5 26.5zM351 634l-152 -563q-10 -36 -33 -56.5t-53 -20.5q-39 0 -56.5 27t-5.5 73l152 563q10 36 33 56.5t53 20.5q39 0 56.5 -27t5.5 -73z" />
    <glyph glyph-name="Iacute" unicode="&#xcd;" horiz-adv-x="356" 
d="M498 874l-83 -61q-44 -33 -89 -33q-42 0 -42 28q0 14 13 28l80 88q31 33 57 33q30 0 58 -15t28 -34q0 -18 -22 -34zM351 634l-152 -563q-10 -36 -33 -56.5t-53 -20.5q-39 0 -56.5 27t-5.5 73l152 563q10 36 33 56.5t53 20.5q39 0 56.5 -27t5.5 -73z" />
    <glyph glyph-name="Icircumflex" unicode="&#xce;" horiz-adv-x="356" 
d="M440 914l40 -78q13 -23 13 -32q0 -24 -34 -24q-31 0 -49.5 5.5t-38.5 27.5l-38 42l-61 -42q-48 -33 -95 -33q-32 0 -32 23q0 15 17 32l86 83q34 34 78 34h44q49 0 70 -38zM351 634l-152 -563q-10 -36 -33 -56.5t-53 -20.5q-39 0 -56.5 27t-5.5 73l152 563q10 36 33 56.5
t53 20.5q39 0 56.5 -27t5.5 -73z" />
    <glyph glyph-name="Idieresis" unicode="&#xcf;" horiz-adv-x="356" 
d="M520 852q-7 -33 -32 -52.5t-59 -19.5q-36 0 -55 20.5t-12 51.5l2 6q7 32 32 51.5t59 19.5q33 0 53 -21t14 -50zM301 852q-7 -33 -32 -52.5t-60 -19.5t-54 20.5t-12 51.5l2 6q7 32 32 51.5t59 19.5q33 0 52.5 -21t13.5 -50zM351 634l-152 -563q-10 -36 -33 -56.5
t-53 -20.5q-39 0 -56.5 27t-5.5 73l152 563q10 36 33 56.5t53 20.5q39 0 56.5 -27t5.5 -73z" />
    <glyph glyph-name="Eth" unicode="&#xd0;" horiz-adv-x="839" 
d="M309 0h-180q-39 0 -56.5 26.5t-5.5 72.5l53 199h-6q-28 0 -48 20t-20 48t20 48t48 20h43l58 217q10 36 33 56.5t53 20.5h144q191 0 285 -94q79 -79 79 -213q0 -169 -119 -286q-133 -135 -381 -135zM231 139h96q156 0 248 90q74 74 74 186q0 75 -44 119q-53 55 -172 55
h-80l-42 -155h72q29 0 48.5 -20t19.5 -48t-19.5 -48t-48.5 -20h-109z" />
    <glyph glyph-name="Ntilde" unicode="&#xd1;" horiz-adv-x="827" 
d="M397 783q-18 0 -30 11.5t-12 28.5q0 15 8 29q58 103 139 103q41 0 82 -31q35 -27 54 -27q29 0 56 34q21 24 46 24q18 0 30 -11.5t12 -28.5q0 -16 -8 -30q-59 -103 -139 -103q-40 0 -81 31q-36 27 -55 27q-29 0 -56 -34q-20 -23 -46 -23zM575 255l109 402q10 37 32.5 57
t52.5 20q39 0 56.5 -27t4.5 -73l-153 -566q-19 -72 -83 -72h-3q-34 0 -53.5 14t-33.5 44l-203 434l-111 -417q-10 -37 -32.5 -57t-52.5 -20q-39 0 -56.5 27t-4.5 73l151 561q20 77 90 77h7q63 0 90 -61z" />
    <glyph glyph-name="Ograve" unicode="&#xd2;" horiz-adv-x="876" 
d="M488 823l-49 61q-14 21 -14 33q0 18 28 34t57 16q40 0 53 -37l32 -86q4 -12 4 -21q0 -33 -48 -33q-22 0 -34.5 6.5t-28.5 26.5zM408 -13q-148 0 -240 91.5t-92 230.5q0 82 32.5 159.5t88.5 138t139 97t177 36.5q148 0 240 -91t92 -230q0 -110 -54 -208t-156 -161
t-227 -63zM426 129q111 0 185 88t74 192q0 85 -50 137.5t-139 52.5q-111 0 -185.5 -88t-74.5 -192q0 -85 50 -137.5t140 -52.5z" />
    <glyph glyph-name="Oacute" unicode="&#xd3;" horiz-adv-x="876" 
d="M753 884l-83 -61q-44 -33 -89 -33q-42 0 -42 28q0 14 13 28l80 88q31 33 57 33q30 0 58 -15t28 -34q0 -18 -22 -34zM408 -13q-148 0 -240 91.5t-92 230.5q0 82 32.5 159.5t88.5 138t139 97t177 36.5q148 0 240 -91t92 -230q0 -110 -54 -208t-156 -161t-227 -63zM426 129
q111 0 185 88t74 192q0 85 -50 137.5t-139 52.5q-111 0 -185.5 -88t-74.5 -192q0 -85 50 -137.5t140 -52.5z" />
    <glyph glyph-name="Ocircumflex" unicode="&#xd4;" horiz-adv-x="876" 
d="M694 924l40 -78q13 -23 13 -32q0 -24 -34 -24q-31 0 -49.5 5.5t-38.5 27.5l-38 42l-61 -42q-48 -33 -95 -33q-32 0 -32 23q0 15 17 32l86 83q34 34 78 34h44q49 0 70 -38zM408 -13q-148 0 -240 91.5t-92 230.5q0 82 32.5 159.5t88.5 138t139 97t177 36.5q148 0 240 -91
t92 -230q0 -110 -54 -208t-156 -161t-227 -63zM426 129q111 0 185 88t74 192q0 85 -50 137.5t-139 52.5q-111 0 -185.5 -88t-74.5 -192q0 -85 50 -137.5t140 -52.5z" />
    <glyph glyph-name="Otilde" unicode="&#xd5;" horiz-adv-x="876" 
d="M416 793q-18 0 -30 11.5t-12 28.5q0 15 8 29q58 103 139 103q41 0 82 -31q35 -27 54 -27q29 0 56 34q21 24 46 24q18 0 30 -11.5t12 -28.5q0 -16 -8 -30q-59 -103 -139 -103q-40 0 -81 31q-36 27 -55 27q-29 0 -56 -34q-20 -23 -46 -23zM408 -13q-148 0 -240 91.5
t-92 230.5q0 82 32.5 159.5t88.5 138t139 97t177 36.5q148 0 240 -91t92 -230q0 -110 -54 -208t-156 -161t-227 -63zM426 129q111 0 185 88t74 192q0 85 -50 137.5t-139 52.5q-111 0 -185.5 -88t-74.5 -192q0 -85 50 -137.5t140 -52.5z" />
    <glyph glyph-name="Odieresis" unicode="&#xd6;" horiz-adv-x="876" 
d="M774 862q-7 -33 -32 -52.5t-59 -19.5q-36 0 -55 20.5t-12 51.5l2 6q7 32 32 51.5t59 19.5q33 0 53 -21t14 -50zM555 862q-7 -33 -32 -52.5t-60 -19.5t-54 20.5t-12 51.5l2 6q7 32 32 51.5t59 19.5q33 0 52.5 -21t13.5 -50zM408 -13q-148 0 -240 91.5t-92 230.5
q0 82 32.5 159.5t88.5 138t139 97t177 36.5q148 0 240 -91t92 -230q0 -110 -54 -208t-156 -161t-227 -63zM426 129q111 0 185 88t74 192q0 85 -50 137.5t-139 52.5q-111 0 -185.5 -88t-74.5 -192q0 -85 50 -137.5t140 -52.5z" />
    <glyph glyph-name="multiply" unicode="&#xd7;" horiz-adv-x="674" 
d="M456 357l83 -111q16 -21 16 -45q0 -29 -20.5 -49.5t-49.5 -20.5q-37 0 -58 31l-78 112l-158 -127q-18 -15 -42 -15q-27 0 -46 19t-19 46q0 31 27 53l161 125l-83 111q-16 21 -16 45q0 29 20.5 49.5t49.5 20.5q37 0 58 -31l78 -112l158 127q18 15 42 15q27 0 46 -19
t19 -46q0 -31 -27 -53z" />
    <glyph glyph-name="Oslash" unicode="&#xd8;" horiz-adv-x="876" 
d="M184 64l-64 -54q-25 -21 -47 -21q-21 0 -33.5 12t-12.5 31q0 23 31 50l64 55q-46 75 -46 172q0 82 32.5 159.5t88.5 138t139 97t177 36.5q139 0 230 -83l73 61q25 21 48 21q21 0 33 -12t12 -31q0 -23 -31 -50l-74 -64q41 -74 41 -163q0 -110 -54 -208t-156 -161t-227 -63
q-131 0 -224 77zM230 319q0 -45 15 -83l384 323q-52 47 -133 47q-111 0 -188.5 -91.5t-77.5 -195.5zM426 122q111 0 188 91.5t77 195.5q0 39 -12 72l-380 -320q48 -39 127 -39z" />
    <glyph glyph-name="Ugrave" unicode="&#xd9;" horiz-adv-x="804" 
d="M450 813l-49 61q-14 21 -14 33q0 18 28 34t57 16q40 0 53 -37l32 -86q4 -12 4 -21q0 -33 -48 -33q-22 0 -34.5 6.5t-28.5 26.5zM812 634l-92 -340q-38 -142 -112 -216q-89 -89 -246 -89q-127 0 -199.5 65t-72.5 179q0 51 18 116l82 308q10 36 33 56.5t53 20.5
q39 0 56.5 -27t5.5 -73l-81 -300q-11 -46 -11 -79q0 -57 34.5 -91t97.5 -34q74 0 122 48q50 50 73 139l91 340q10 36 33 56.5t53 20.5q39 0 56.5 -27t5.5 -73z" />
    <glyph glyph-name="Uacute" unicode="&#xda;" horiz-adv-x="804" 
d="M716 874l-83 -61q-44 -33 -89 -33q-42 0 -42 28q0 14 13 28l80 88q31 33 57 33q30 0 58 -15t28 -34q0 -18 -22 -34zM812 634l-92 -340q-38 -142 -112 -216q-89 -89 -246 -89q-127 0 -199.5 65t-72.5 179q0 51 18 116l82 308q10 36 33 56.5t53 20.5q39 0 56.5 -27t5.5 -73
l-81 -300q-11 -46 -11 -79q0 -57 34.5 -91t97.5 -34q74 0 122 48q50 50 73 139l91 340q10 36 33 56.5t53 20.5q39 0 56.5 -27t5.5 -73z" />
    <glyph glyph-name="Ucircumflex" unicode="&#xdb;" horiz-adv-x="804" 
d="M657 914l40 -78q13 -23 13 -32q0 -24 -34 -24q-31 0 -49.5 5.5t-38.5 27.5l-38 42l-61 -42q-48 -33 -95 -33q-32 0 -32 23q0 15 17 32l86 83q34 34 78 34h44q49 0 70 -38zM812 634l-92 -340q-38 -142 -112 -216q-89 -89 -246 -89q-127 0 -199.5 65t-72.5 179q0 51 18 116
l82 308q10 36 33 56.5t53 20.5q39 0 56.5 -27t5.5 -73l-81 -300q-11 -46 -11 -79q0 -57 34.5 -91t97.5 -34q74 0 122 48q50 50 73 139l91 340q10 36 33 56.5t53 20.5q39 0 56.5 -27t5.5 -73z" />
    <glyph glyph-name="Udieresis" unicode="&#xdc;" horiz-adv-x="804" 
d="M737 852q-7 -33 -32 -52.5t-59 -19.5q-36 0 -55 20.5t-12 51.5l2 6q7 32 32 51.5t59 19.5q33 0 53 -21t14 -50zM518 852q-7 -33 -32 -52.5t-60 -19.5t-54 20.5t-12 51.5l2 6q7 32 32 51.5t59 19.5q33 0 52.5 -21t13.5 -50zM812 634l-92 -340q-38 -142 -112 -216
q-89 -89 -246 -89q-127 0 -199.5 65t-72.5 179q0 51 18 116l82 308q10 36 33 56.5t53 20.5q39 0 56.5 -27t5.5 -73l-81 -300q-11 -46 -11 -79q0 -57 34.5 -91t97.5 -34q74 0 122 48q50 50 73 139l91 340q10 36 33 56.5t53 20.5q39 0 56.5 -27t5.5 -73z" />
    <glyph glyph-name="Yacute" unicode="&#xdd;" horiz-adv-x="687" 
d="M649 874l-83 -61q-44 -33 -89 -33q-42 0 -42 28q0 14 13 28l80 88q31 33 57 33q30 0 58 -15t28 -34q0 -18 -22 -34zM411 267l-54 -196q-9 -36 -32 -56.5t-53 -20.5q-39 0 -56.5 27t-5.5 73l50 188l-134 321q-15 36 -15 58q0 31 23.5 52t59.5 21q53 0 75 -60l97 -257
l251 274q41 44 82 44q30 0 47 -17t17 -46q0 -33 -26 -61z" />
    <glyph glyph-name="Thorn" unicode="&#xde;" horiz-adv-x="725" 
d="M417 620q153 0 227 -73q56 -56 56 -149q0 -131 -100 -206.5t-254 -75.5h-142l-12 -45q-10 -36 -33 -56.5t-53 -20.5q-39 0 -56.5 27t-5.5 73l152 563q10 37 32.5 57t52.5 20q39 0 56.5 -27t5.5 -73l-3 -14h77zM240 251h113q85 0 135.5 35.5t50.5 99.5q0 37 -25 62
q-32 33 -103 33h-109z" />
    <glyph glyph-name="germandbls" unicode="&#xdf;" horiz-adv-x="667" 
d="M387 430q115 38 115 127q0 38 -24 59.5t-61 21.5q-93 0 -126 -124l-117 -443q-10 -37 -32.5 -57t-52.5 -20q-38 0 -55.5 26.5t-4.5 72.5l115 430q30 111 90 172q71 71 188 71q103 0 163.5 -54.5t60.5 -139.5q0 -75 -43.5 -125.5t-120.5 -74.5q111 -46 111 -146
q0 -98 -77 -163.5t-199 -65.5q-66 0 -66 61q0 23 14.5 39t38.5 18q146 12 146 115q0 53 -65 78q-25 10 -37.5 23t-12.5 36q0 46 52 63z" />
    <glyph glyph-name="agrave" unicode="&#xe0;" horiz-adv-x="620" 
d="M312 646l-49 61q-14 21 -14 33q0 18 28 34t57 16q40 0 53 -37l32 -86q4 -12 4 -21q0 -33 -48 -33q-22 0 -34.5 6.5t-28.5 26.5zM240 94q50 0 91 33.5t56 82.5l4 17q-56 20 -110 20q-52 0 -84.5 -25t-32.5 -66q0 -27 21 -44.5t55 -17.5zM409 -6q-70 0 -65 68l1 4
q-72 -77 -169 -77q-72 0 -117.5 42t-45.5 108q0 93 67.5 146.5t172.5 53.5q82 0 160 -25l3 8q6 26 6 42q0 69 -109 69q-53 0 -99 -13q-18 -4 -25 -4q-26 0 -43 17.5t-17 43.5q0 45 46 59q80 26 170 26q111 0 167.5 -44t56.5 -127q0 -37 -12 -83l-63 -237q-10 -37 -32.5 -57
t-52.5 -20z" />
    <glyph glyph-name="aacute" unicode="&#xe1;" horiz-adv-x="620" 
d="M577 707l-83 -61q-44 -33 -89 -33q-42 0 -42 28q0 14 13 28l80 88q31 33 57 33q30 0 58 -15t28 -34q0 -17 -22 -34zM240 94q50 0 91 33.5t56 82.5l4 17q-56 20 -110 20q-52 0 -84.5 -25t-32.5 -66q0 -27 21 -44.5t55 -17.5zM409 -6q-70 0 -65 68l1 4q-72 -77 -169 -77
q-72 0 -117.5 42t-45.5 108q0 93 67.5 146.5t172.5 53.5q82 0 160 -25l3 8q6 26 6 42q0 69 -109 69q-53 0 -99 -13q-18 -4 -25 -4q-26 0 -43 17.5t-17 43.5q0 45 46 59q80 26 170 26q111 0 167.5 -44t56.5 -127q0 -37 -12 -83l-63 -237q-10 -37 -32.5 -57t-52.5 -20z" />
    <glyph glyph-name="acircumflex" unicode="&#xe2;" horiz-adv-x="620" 
d="M519 747l40 -78q13 -23 13 -32q0 -24 -34 -24q-31 0 -49.5 5.5t-38.5 27.5l-38 42l-61 -42q-48 -33 -95 -33q-32 0 -32 23q0 15 17 32l86 83q34 34 78 34h44q49 0 70 -38zM240 94q50 0 91 33.5t56 82.5l4 17q-56 20 -110 20q-52 0 -84.5 -25t-32.5 -66q0 -27 21 -44.5
t55 -17.5zM409 -6q-70 0 -65 68l1 4q-72 -77 -169 -77q-72 0 -117.5 42t-45.5 108q0 93 67.5 146.5t172.5 53.5q82 0 160 -25l3 8q6 26 6 42q0 69 -109 69q-53 0 -99 -13q-18 -4 -25 -4q-26 0 -43 17.5t-17 43.5q0 45 46 59q80 26 170 26q111 0 167.5 -44t56.5 -127
q0 -37 -12 -83l-63 -237q-10 -37 -32.5 -57t-52.5 -20z" />
    <glyph glyph-name="atilde" unicode="&#xe3;" horiz-adv-x="620" 
d="M240 616q-18 0 -30 11.5t-12 28.5q0 15 8 29q58 103 139 103q41 0 82 -31q35 -27 54 -27q29 0 56 34q21 24 46 24q18 0 30 -11.5t12 -28.5q0 -16 -8 -30q-59 -103 -139 -103q-40 0 -81 31q-36 27 -55 27q-29 0 -56 -34q-20 -23 -46 -23zM240 94q50 0 91 33.5t56 82.5
l4 17q-56 20 -110 20q-52 0 -84.5 -25t-32.5 -66q0 -27 21 -44.5t55 -17.5zM409 -6q-70 0 -65 68l1 4q-72 -77 -169 -77q-72 0 -117.5 42t-45.5 108q0 93 67.5 146.5t172.5 53.5q82 0 160 -25l3 8q6 26 6 42q0 69 -109 69q-53 0 -99 -13q-18 -4 -25 -4q-26 0 -43 17.5
t-17 43.5q0 45 46 59q80 26 170 26q111 0 167.5 -44t56.5 -127q0 -37 -12 -83l-63 -237q-10 -37 -32.5 -57t-52.5 -20z" />
    <glyph glyph-name="adieresis" unicode="&#xe4;" horiz-adv-x="620" 
d="M599 685q-7 -33 -32 -52.5t-59 -19.5q-36 0 -55 20.5t-12 51.5l2 6q7 32 32 51.5t59 19.5q33 0 53 -21t14 -50zM380 685q-7 -33 -32 -52.5t-60 -19.5t-54 20.5t-12 51.5l2 6q7 32 32 51.5t59 19.5q33 0 52.5 -21t13.5 -50zM240 94q50 0 91 33.5t56 82.5l4 17
q-56 20 -110 20q-52 0 -84.5 -25t-32.5 -66q0 -27 21 -44.5t55 -17.5zM409 -6q-70 0 -65 68l1 4q-72 -77 -169 -77q-72 0 -117.5 42t-45.5 108q0 93 67.5 146.5t172.5 53.5q82 0 160 -25l3 8q6 26 6 42q0 69 -109 69q-53 0 -99 -13q-18 -4 -25 -4q-26 0 -43 17.5t-17 43.5
q0 45 46 59q80 26 170 26q111 0 167.5 -44t56.5 -127q0 -37 -12 -83l-63 -237q-10 -37 -32.5 -57t-52.5 -20z" />
    <glyph glyph-name="aring" unicode="&#xe5;" horiz-adv-x="620" 
d="M413 617q-51 0 -82 30.5t-31 76.5q0 56 40.5 96.5t97.5 40.5q51 0 82 -30.5t31 -76.5q0 -56 -40.5 -96.5t-97.5 -40.5zM415 673q31 0 51 24t20 56q0 22 -13.5 37t-36.5 15q-31 0 -51 -24t-20 -56q0 -23 13.5 -37.5t36.5 -14.5zM240 94q50 0 91 33.5t56 82.5l4 17
q-56 20 -110 20q-52 0 -84.5 -25t-32.5 -66q0 -27 21 -44.5t55 -17.5zM409 -6q-70 0 -65 68l1 4q-72 -77 -169 -77q-72 0 -117.5 42t-45.5 108q0 93 67.5 146.5t172.5 53.5q82 0 160 -25l3 8q6 26 6 42q0 69 -109 69q-53 0 -99 -13q-18 -4 -25 -4q-26 0 -43 17.5t-17 43.5
q0 45 46 59q80 26 170 26q111 0 167.5 -44t56.5 -127q0 -37 -12 -83l-63 -237q-10 -37 -32.5 -57t-52.5 -20z" />
    <glyph glyph-name="ae" unicode="&#xe6;" horiz-adv-x="989" 
d="M554 321h251q5 17 5 36q0 39 -23.5 63t-71.5 24q-55 0 -98 -33.5t-63 -89.5zM953 350q0 -31 -6 -58q-15 -67 -73 -67h-333v-2q4 -53 36 -83t94 -30q49 0 91 24q26 14 46 14q24 0 40.5 -16.5t16.5 -41.5q0 -32 -29 -51q-76 -51 -182 -51q-150 0 -212 108
q-104 -107 -251 -107q-84 0 -131 41t-47 109q0 94 67.5 147t173.5 53q81 0 159 -25l3 8q6 26 6 42q0 69 -109 69q-53 0 -99 -13q-18 -4 -25 -4q-26 0 -43 17.5t-17 43.5q0 45 46 59q80 26 170 26q139 0 184 -85q86 89 203 89q102 0 161.5 -60.5t59.5 -155.5zM282 247
q-52 0 -85 -25t-33 -66q0 -28 22 -45t64 -17q40 0 85.5 19.5t80.5 54.5q-4 22 -6 48v3q-66 28 -128 28z" />
    <glyph glyph-name="ccedilla" unicode="&#xe7;" horiz-adv-x="593" 
d="M225 -140q-21 -32 -52 -32q-22 0 -45 16t-23 35q0 17 15 33l88 92q-73 26 -116 87.5t-43 146.5q0 135 97.5 231.5t230.5 96.5q117 0 188 -71q28 -28 28 -59q0 -29 -21 -50t-51 -21q-32 0 -51 22q-38 49 -105 49q-65 0 -115.5 -59.5t-50.5 -138.5q0 -55 32.5 -88t81.5 -33
q52 0 99 33q25 17 45 17q26 0 43.5 -18.5t17.5 -44.5q0 -30 -23 -50q-81 -66 -183 -66z" />
    <glyph glyph-name="egrave" unicode="&#xe8;" horiz-adv-x="640" 
d="M326 646l-49 61q-14 21 -14 33q0 18 28 34t57 16q40 0 53 -37l32 -86q4 -12 4 -21q0 -33 -48 -33q-22 0 -34.5 6.5t-28.5 26.5zM321 110q50 0 91 24q26 14 46 14q24 0 40.5 -16.5t16.5 -41.5q0 -33 -28 -51q-77 -51 -183 -51q-119 0 -187.5 65.5t-68.5 180.5q0 82 40 157
t117 125t172 50q105 0 166 -60.5t61 -155.5q0 -26 -7 -58q-15 -67 -73 -67h-333v-2q4 -53 36.5 -83t93.5 -30zM205 321h251q5 17 5 36q0 39 -24 63t-71 24q-55 0 -98 -33.5t-63 -89.5z" />
    <glyph glyph-name="eacute" unicode="&#xe9;" horiz-adv-x="640" 
d="M591 707l-83 -61q-44 -33 -89 -33q-42 0 -42 28q0 14 13 28l80 88q31 33 57 33q30 0 58 -15t28 -34q0 -17 -22 -34zM321 110q50 0 91 24q26 14 46 14q24 0 40.5 -16.5t16.5 -41.5q0 -33 -28 -51q-77 -51 -183 -51q-119 0 -187.5 65.5t-68.5 180.5q0 82 40 157t117 125
t172 50q105 0 166 -60.5t61 -155.5q0 -26 -7 -58q-15 -67 -73 -67h-333v-2q4 -53 36.5 -83t93.5 -30zM205 321h251q5 17 5 36q0 39 -24 63t-71 24q-55 0 -98 -33.5t-63 -89.5z" />
    <glyph glyph-name="ecircumflex" unicode="&#xea;" horiz-adv-x="640" 
d="M534 747l40 -78q13 -23 13 -32q0 -24 -34 -24q-31 0 -49.5 5.5t-38.5 27.5l-38 42l-61 -42q-48 -33 -95 -33q-32 0 -32 23q0 15 17 32l86 83q34 34 78 34h44q49 0 70 -38zM321 110q50 0 91 24q26 14 46 14q24 0 40.5 -16.5t16.5 -41.5q0 -33 -28 -51q-77 -51 -183 -51
q-119 0 -187.5 65.5t-68.5 180.5q0 82 40 157t117 125t172 50q105 0 166 -60.5t61 -155.5q0 -26 -7 -58q-15 -67 -73 -67h-333v-2q4 -53 36.5 -83t93.5 -30zM205 321h251q5 17 5 36q0 39 -24 63t-71 24q-55 0 -98 -33.5t-63 -89.5z" />
    <glyph glyph-name="edieresis" unicode="&#xeb;" horiz-adv-x="640" 
d="M614 685q-7 -33 -32 -52.5t-59 -19.5q-36 0 -55 20.5t-12 51.5l2 6q7 32 32 51.5t59 19.5q33 0 53 -21t14 -50zM395 685q-7 -33 -32 -52.5t-60 -19.5t-54 20.5t-12 51.5l2 6q7 32 32 51.5t59 19.5q33 0 52.5 -21t13.5 -50zM321 110q50 0 91 24q26 14 46 14
q24 0 40.5 -16.5t16.5 -41.5q0 -33 -28 -51q-77 -51 -183 -51q-119 0 -187.5 65.5t-68.5 180.5q0 82 40 157t117 125t172 50q105 0 166 -60.5t61 -155.5q0 -26 -7 -58q-15 -67 -73 -67h-333v-2q4 -53 36.5 -83t93.5 -30zM205 321h251q5 17 5 36q0 39 -24 63t-71 24
q-55 0 -98 -33.5t-63 -89.5z" />
    <glyph glyph-name="igrave" unicode="&#xec;" horiz-adv-x="321" 
d="M171 646l-49 61q-14 21 -14 33q0 18 28 34t57 16q40 0 53 -37l32 -86q4 -12 4 -21q0 -33 -48 -33q-22 0 -34.5 6.5t-28.5 26.5zM286 462l-106 -391q-9 -36 -31.5 -56.5t-52.5 -20.5q-39 0 -56.5 26.5t-4.5 72.5l105 392q10 37 32.5 57t52.5 20q39 0 56.5 -27t4.5 -73z
" />
    <glyph glyph-name="iacute" unicode="&#xed;" horiz-adv-x="321" 
d="M436 707l-83 -61q-44 -33 -89 -33q-42 0 -42 28q0 14 13 28l80 88q31 33 57 33q30 0 58 -15t28 -34q0 -17 -22 -34zM286 462l-106 -391q-9 -36 -31.5 -56.5t-52.5 -20.5q-39 0 -56.5 26.5t-4.5 72.5l105 392q10 37 32.5 57t52.5 20q39 0 56.5 -27t4.5 -73z" />
    <glyph glyph-name="icircumflex" unicode="&#xee;" horiz-adv-x="321" 
d="M378 747l40 -78q13 -23 13 -32q0 -24 -34 -24q-31 0 -49.5 5.5t-38.5 27.5l-38 42l-61 -42q-48 -33 -95 -33q-32 0 -32 23q0 15 17 32l86 83q34 34 78 34h44q49 0 70 -38zM286 462l-106 -391q-9 -36 -31.5 -56.5t-52.5 -20.5q-39 0 -56.5 26.5t-4.5 72.5l105 392
q10 37 32.5 57t52.5 20q39 0 56.5 -27t4.5 -73z" />
    <glyph glyph-name="idieresis" unicode="&#xef;" horiz-adv-x="321" 
d="M459 685q-7 -33 -32 -52.5t-59 -19.5q-36 0 -55 20.5t-12 51.5l2 6q7 32 32 51.5t59 19.5q33 0 53 -21t14 -50zM240 685q-7 -33 -32 -52.5t-60 -19.5t-54 20.5t-12 51.5l2 6q7 32 32 51.5t59 19.5q33 0 52.5 -21t13.5 -50zM286 462l-106 -391q-9 -36 -31.5 -56.5
t-52.5 -20.5q-39 0 -56.5 26.5t-4.5 72.5l105 392q10 37 32.5 57t52.5 20q39 0 56.5 -27t4.5 -73z" />
    <glyph glyph-name="eth" unicode="&#xf0;" horiz-adv-x="672" 
d="M302 -12q-114 0 -185.5 67t-71.5 176q0 113 81 193.5t193 80.5q91 0 157 -61l-70 154l-110 -40q-10 -4 -24 -4q-17 0 -28 11t-11 29q0 30 35 43l103 38q-5 13 -5 28q0 28 18.5 46.5t47.5 18.5q47 0 63 -35l5 -11l102 38q10 4 23 4q18 0 29 -10.5t11 -28.5q0 -31 -36 -44
l-96 -36l41 -95q46 -104 46 -212q0 -150 -86 -250t-232 -100zM311 116q67 0 111 48t44 111q0 54 -33.5 88t-88.5 34q-65 0 -109.5 -46.5t-44.5 -110.5q0 -57 34 -90.5t87 -33.5z" />
    <glyph glyph-name="ntilde" unicode="&#xf1;" horiz-adv-x="653" 
d="M257 616q-18 0 -30 11.5t-12 28.5q0 15 8 29q58 103 139 103q41 0 82 -31q35 -27 54 -27q29 0 56 34q21 24 46 24q18 0 30 -11.5t12 -28.5q0 -16 -8 -30q-59 -103 -139 -103q-40 0 -81 31q-36 27 -55 27q-29 0 -56 -34q-20 -23 -46 -23zM221 562q32 0 50 -17.5t17 -44.5
l-1 -5q79 71 155 71t120.5 -43.5t44.5 -118.5q0 -36 -18 -104l-61 -229q-10 -37 -32.5 -57t-52.5 -20q-39 0 -56.5 26.5t-4.5 72.5l57 213q7 26 7 50q0 35 -21 54t-59 19q-47 0 -79.5 -31.5t-47.5 -85.5l-65 -241q-10 -37 -32.5 -57t-52.5 -20q-38 0 -55.5 26.5t-4.5 72.5
l104 392q10 37 33 57t55 20z" />
    <glyph glyph-name="ograve" unicode="&#xf2;" horiz-adv-x="687" 
d="M349 646l-49 61q-14 21 -14 33q0 18 28 34t57 16q40 0 53 -37l32 -86q4 -12 4 -21q0 -33 -48 -33q-22 0 -34.5 6.5t-28.5 26.5zM316 -12q-121 0 -194 71.5t-73 184.5q0 127 95 224.5t227 97.5q121 0 194 -71.5t73 -184.5q0 -127 -95 -224.5t-227 -97.5zM323 117
q69 0 117.5 61t48.5 128q0 61 -34 95.5t-91 34.5q-70 0 -118 -60.5t-48 -127.5q0 -61 34.5 -96t90.5 -35z" />
    <glyph glyph-name="oacute" unicode="&#xf3;" horiz-adv-x="687" 
d="M614 707l-83 -61q-44 -33 -89 -33q-42 0 -42 28q0 14 13 28l80 88q31 33 57 33q30 0 58 -15t28 -34q0 -17 -22 -34zM316 -12q-121 0 -194 71.5t-73 184.5q0 127 95 224.5t227 97.5q121 0 194 -71.5t73 -184.5q0 -127 -95 -224.5t-227 -97.5zM323 117q69 0 117.5 61
t48.5 128q0 61 -34 95.5t-91 34.5q-70 0 -118 -60.5t-48 -127.5q0 -61 34.5 -96t90.5 -35z" />
    <glyph glyph-name="ocircumflex" unicode="&#xf4;" horiz-adv-x="687" 
d="M557 747l40 -78q13 -23 13 -32q0 -24 -34 -24q-31 0 -49.5 5.5t-38.5 27.5l-38 42l-61 -42q-48 -33 -95 -33q-32 0 -32 23q0 15 17 32l86 83q34 34 78 34h44q49 0 70 -38zM316 -12q-121 0 -194 71.5t-73 184.5q0 127 95 224.5t227 97.5q121 0 194 -71.5t73 -184.5
q0 -127 -95 -224.5t-227 -97.5zM323 117q69 0 117.5 61t48.5 128q0 61 -34 95.5t-91 34.5q-70 0 -118 -60.5t-48 -127.5q0 -61 34.5 -96t90.5 -35z" />
    <glyph glyph-name="otilde" unicode="&#xf5;" horiz-adv-x="687" 
d="M278 616q-18 0 -30 11.5t-12 28.5q0 15 8 29q58 103 139 103q41 0 82 -31q35 -27 54 -27q29 0 56 34q21 24 46 24q18 0 30 -11.5t12 -28.5q0 -16 -8 -30q-59 -103 -139 -103q-40 0 -81 31q-36 27 -55 27q-29 0 -56 -34q-20 -23 -46 -23zM316 -12q-121 0 -194 71.5
t-73 184.5q0 127 95 224.5t227 97.5q121 0 194 -71.5t73 -184.5q0 -127 -95 -224.5t-227 -97.5zM323 117q69 0 117.5 61t48.5 128q0 61 -34 95.5t-91 34.5q-70 0 -118 -60.5t-48 -127.5q0 -61 34.5 -96t90.5 -35z" />
    <glyph glyph-name="odieresis" unicode="&#xf6;" horiz-adv-x="687" 
d="M637 685q-7 -33 -32 -52.5t-59 -19.5q-36 0 -55 20.5t-12 51.5l2 6q7 32 32 51.5t59 19.5q33 0 53 -21t14 -50zM418 685q-7 -33 -32 -52.5t-60 -19.5t-54 20.5t-12 51.5l2 6q7 32 32 51.5t59 19.5q33 0 52.5 -21t13.5 -50zM316 -12q-121 0 -194 71.5t-73 184.5
q0 127 95 224.5t227 97.5q121 0 194 -71.5t73 -184.5q0 -127 -95 -224.5t-227 -97.5zM323 117q69 0 117.5 61t48.5 128q0 61 -34 95.5t-91 34.5q-70 0 -118 -60.5t-48 -127.5q0 -61 34.5 -96t90.5 -35z" />
    <glyph glyph-name="divide" unicode="&#xf7;" horiz-adv-x="674" 
d="M503 598q-1 -36 -29 -62.5t-66 -26.5q-32 0 -52.5 19t-20.5 49l1 2q0 36 28.5 62.5t66.5 26.5q31 0 51.5 -19.5t20.5 -48.5v-2zM563 302h-407q-26 0 -45 19t-19 45t19 45t45 19h407q26 0 45 -19t19 -45t-19 -45t-45 -19zM385 154q-1 -37 -29 -63t-66 -26q-31 0 -52 19
t-20 48v2q0 36 28.5 62.5t66.5 26.5q31 0 52 -19t20 -49v-1z" />
    <glyph glyph-name="oslash" unicode="&#xf8;" horiz-adv-x="687" 
d="M151 35l-27 -25q-23 -21 -48 -21q-20 0 -32.5 11.5t-12.5 29.5q0 23 24 45l31 28q-37 62 -37 141q0 127 95 224.5t227 97.5q94 0 158 -44l26 24q25 21 48 21q20 0 32.5 -11.5t12.5 -29.5q0 -23 -24 -45l-28 -25q42 -64 42 -146q0 -127 -95 -224.5t-227 -97.5
q-98 0 -165 47zM193 248q0 -15 4 -43l234 221q-26 15 -67 15q-71 0 -121 -61.5t-50 -131.5zM323 113q70 0 120.5 61t50.5 132q0 21 -7 49l-237 -225q29 -17 73 -17z" />
    <glyph glyph-name="ugrave" unicode="&#xf9;" horiz-adv-x="656" 
d="M334 646l-49 61q-14 21 -14 33q0 18 28 34t57 16q40 0 53 -37l32 -86q4 -12 4 -21q0 -33 -48 -33q-22 0 -34.5 6.5t-28.5 26.5zM435 -6q-32 0 -50 17.5t-17 44.5l1 5q-80 -72 -155 -72t-120 44t-45 119q0 36 18 104l61 229q10 37 32.5 57t52.5 20q39 0 56.5 -27t4.5 -73
l-57 -212q-7 -28 -7 -51q0 -34 21 -53t59 -19q47 0 79.5 31.5t47.5 85.5l65 241q10 37 32.5 57t52.5 20q38 0 55.5 -27t5.5 -73l-105 -391q-10 -37 -33 -57t-55 -20z" />
    <glyph glyph-name="uacute" unicode="&#xfa;" horiz-adv-x="656" 
d="M600 707l-83 -61q-44 -33 -89 -33q-42 0 -42 28q0 14 13 28l80 88q31 33 57 33q30 0 58 -15t28 -34q0 -17 -22 -34zM435 -6q-32 0 -50 17.5t-17 44.5l1 5q-80 -72 -155 -72t-120 44t-45 119q0 36 18 104l61 229q10 37 32.5 57t52.5 20q39 0 56.5 -27t4.5 -73l-57 -212
q-7 -28 -7 -51q0 -34 21 -53t59 -19q47 0 79.5 31.5t47.5 85.5l65 241q10 37 32.5 57t52.5 20q38 0 55.5 -27t5.5 -73l-105 -391q-10 -37 -33 -57t-55 -20z" />
    <glyph glyph-name="ucircumflex" unicode="&#xfb;" horiz-adv-x="656" 
d="M541 747l40 -78q13 -23 13 -32q0 -24 -34 -24q-31 0 -49.5 5.5t-38.5 27.5l-38 42l-61 -42q-48 -33 -95 -33q-32 0 -32 23q0 15 17 32l86 83q34 34 78 34h44q49 0 70 -38zM435 -6q-32 0 -50 17.5t-17 44.5l1 5q-80 -72 -155 -72t-120 44t-45 119q0 36 18 104l61 229
q10 37 32.5 57t52.5 20q39 0 56.5 -27t4.5 -73l-57 -212q-7 -28 -7 -51q0 -34 21 -53t59 -19q47 0 79.5 31.5t47.5 85.5l65 241q10 37 32.5 57t52.5 20q38 0 55.5 -27t5.5 -73l-105 -391q-10 -37 -33 -57t-55 -20z" />
    <glyph glyph-name="udieresis" unicode="&#xfc;" horiz-adv-x="656" 
d="M621 685q-7 -33 -32 -52.5t-59 -19.5q-36 0 -55 20.5t-12 51.5l2 6q7 32 32 51.5t59 19.5q33 0 53 -21t14 -50zM402 685q-7 -33 -32 -52.5t-60 -19.5t-54 20.5t-12 51.5l2 6q7 32 32 51.5t59 19.5q33 0 52.5 -21t13.5 -50zM435 -6q-32 0 -50 17.5t-17 44.5l1 5
q-80 -72 -155 -72t-120 44t-45 119q0 36 18 104l61 229q10 37 32.5 57t52.5 20q39 0 56.5 -27t4.5 -73l-57 -212q-7 -28 -7 -51q0 -34 21 -53t59 -19q47 0 79.5 31.5t47.5 85.5l65 241q10 37 32.5 57t52.5 20q38 0 55.5 -27t5.5 -73l-105 -391q-10 -37 -33 -57t-55 -20z" />
    <glyph glyph-name="yacute" unicode="&#xfd;" horiz-adv-x="624" 
d="M574 707l-83 -61q-44 -33 -89 -33q-42 0 -42 28q0 14 13 28l80 88q31 33 57 33q30 0 58 -15t28 -34q0 -17 -22 -34zM63 -33q36 -9 48 -9q33 0 61 39l-68 458q-3 17 -3 36q0 30 21.5 50.5t53.5 20.5q31 0 52 -17.5t22 -47.5l36 -329l202 346q26 48 77 48q30 0 48 -16
t18 -43q0 -20 -20 -52l-293 -465q-54 -85 -105.5 -120.5t-119.5 -35.5q-49 0 -76 13q-46 20 -46 66q0 27 18 46.5t42 19.5q10 0 32 -8z" />
    <glyph glyph-name="thorn" unicode="&#xfe;" horiz-adv-x="710" 
d="M334 117q68 0 119 58.5t51 142.5q0 56 -32.5 88t-86.5 32q-68 0 -121 -59t-53 -139q0 -55 34.5 -89t88.5 -34zM-16 -73l204 762q21 76 84 76q39 0 56.5 -26.5t4.5 -72.5l-47 -173q76 73 161 73q94 0 154 -64t60 -174q0 -144 -92.5 -241.5t-214.5 -97.5q-116 0 -177 95
l-48 -180q-10 -37 -32 -57t-52 -20q-39 0 -56.5 27t-4.5 73z" />
    <glyph glyph-name="ydieresis" unicode="&#xff;" horiz-adv-x="624" 
d="M596 685q-7 -33 -32 -52.5t-59 -19.5q-36 0 -55 20.5t-12 51.5l2 6q7 32 32 51.5t59 19.5q33 0 53 -21t14 -50zM377 685q-7 -33 -32 -52.5t-60 -19.5t-54 20.5t-12 51.5l2 6q7 32 32 51.5t59 19.5q33 0 52.5 -21t13.5 -50zM63 -33q36 -9 48 -9q33 0 61 39l-68 458
q-3 17 -3 36q0 30 21.5 50.5t53.5 20.5q31 0 52 -17.5t22 -47.5l36 -329l202 346q26 48 77 48q30 0 48 -16t18 -43q0 -20 -20 -52l-293 -465q-54 -85 -105.5 -120.5t-119.5 -35.5q-49 0 -76 13q-46 20 -46 66q0 27 18 46.5t42 19.5q10 0 32 -8z" />
    <glyph glyph-name="Amacron" unicode="&#x100;" horiz-adv-x="804" 
d="M703 802h-277q-22 0 -37.5 15.5t-15.5 37.5t15.5 37.5t37.5 15.5h277q22 0 37.5 -15.5t15.5 -37.5t-15.5 -37.5t-37.5 -15.5zM615 666l100 -558q5 -35 5 -40q0 -31 -22.5 -52.5t-56.5 -21.5q-31 0 -51 17t-24 44l-17 111h-329l-87 -124q-34 -48 -78 -48q-29 0 -46 16.5
t-17 43.5t18 51l410 574q42 60 108 60h3q71 0 84 -73zM314 302h212l-40 251z" />
    <glyph glyph-name="amacron" unicode="&#x101;" horiz-adv-x="620" 
d="M547 625h-277q-22 0 -37.5 15.5t-15.5 37.5t15.5 37.5t37.5 15.5h277q22 0 37.5 -15.5t15.5 -37.5t-15.5 -37.5t-37.5 -15.5zM240 94q50 0 91 33.5t56 82.5l4 17q-56 20 -110 20q-52 0 -84.5 -25t-32.5 -66q0 -27 21 -44.5t55 -17.5zM409 -6q-70 0 -65 68l1 4
q-72 -77 -169 -77q-72 0 -117.5 42t-45.5 108q0 93 67.5 146.5t172.5 53.5q82 0 160 -25l3 8q6 26 6 42q0 69 -109 69q-53 0 -99 -13q-18 -4 -25 -4q-26 0 -43 17.5t-17 43.5q0 45 46 59q80 26 170 26q111 0 167.5 -44t56.5 -127q0 -37 -12 -83l-63 -237q-10 -37 -32.5 -57
t-52.5 -20z" />
    <glyph glyph-name="Abreve" unicode="&#x102;" horiz-adv-x="804" 
d="M566 794q-72 0 -118.5 38t-46.5 84q0 21 15 34t38 13q34 0 48 -27q23 -42 76 -42q43 0 81 42q24 27 53 27q21 0 33 -11.5t12 -31.5q0 -19 -14 -36q-70 -90 -177 -90zM615 666l100 -558q5 -35 5 -40q0 -31 -22.5 -52.5t-56.5 -21.5q-31 0 -51 17t-24 44l-17 111h-329
l-87 -124q-34 -48 -78 -48q-29 0 -46 16.5t-17 43.5t18 51l410 574q42 60 108 60h3q71 0 84 -73zM314 302h212l-40 251z" />
    <glyph glyph-name="abreve" unicode="&#x103;" horiz-adv-x="620" 
d="M411 617q-72 0 -118.5 38t-46.5 84q0 21 15 34t38 13q35 0 48 -27q23 -42 76 -42q43 0 81 42q24 27 53 27q21 0 33 -11.5t12 -31.5q0 -19 -14 -36q-70 -90 -177 -90zM240 94q50 0 91 33.5t56 82.5l4 17q-56 20 -110 20q-52 0 -84.5 -25t-32.5 -66q0 -27 21 -44.5
t55 -17.5zM409 -6q-70 0 -65 68l1 4q-72 -77 -169 -77q-72 0 -117.5 42t-45.5 108q0 93 67.5 146.5t172.5 53.5q82 0 160 -25l3 8q6 26 6 42q0 69 -109 69q-53 0 -99 -13q-18 -4 -25 -4q-26 0 -43 17.5t-17 43.5q0 45 46 59q80 26 170 26q111 0 167.5 -44t56.5 -127
q0 -37 -12 -83l-63 -237q-10 -37 -32.5 -57t-52.5 -20z" />
    <glyph glyph-name="Aogonek" unicode="&#x104;" horiz-adv-x="804" 
d="M625 -174q-51 0 -80.5 18t-29.5 51q0 50 78 114q-24 16 -27 45l-17 112h-329l-87 -124q-34 -48 -78 -48q-29 0 -46 16.5t-17 43.5t18 51l410 574q42 60 108 60h3q71 0 84 -73l100 -558q5 -35 5 -40q0 -30 -28 -58q-58 -58 -58 -83q0 -11 7.5 -16.5t25.5 -11.5t25.5 -13.5
t6.5 -21.5q-2 -38 -74 -38zM314 302h212l-40 251z" />
    <glyph glyph-name="aogonek" unicode="&#x105;" horiz-adv-x="620" 
d="M391 -174q-51 0 -80 18t-29 51q0 51 78 115q-17 16 -15 56q-72 -77 -169 -77q-72 0 -117.5 42t-45.5 108q0 93 67.5 146.5t172.5 53.5q82 0 160 -25l3 8q6 26 6 42q0 69 -109 69q-53 0 -99 -13q-18 -4 -25 -4q-26 0 -43 17.5t-17 43.5q0 45 46 59q80 26 170 26
q111 0 167.5 -44t56.5 -127q0 -37 -12 -83l-63 -237q-9 -34 -36 -61q-58 -57 -58 -83q0 -11 7.5 -16.5t25.5 -11.5t25.5 -13.5t6.5 -21.5q-2 -38 -74 -38zM240 94q50 0 91 33.5t56 82.5l4 17q-56 20 -110 20q-52 0 -84.5 -25t-32.5 -66q0 -27 21 -44.5t55 -17.5z" />
    <glyph glyph-name="Cacute" unicode="&#x106;" horiz-adv-x="766" 
d="M737 884l-83 -61q-44 -33 -89 -33q-42 0 -42 28q0 14 13 28l80 88q31 33 57 33q30 0 58 -15t28 -34q0 -18 -22 -34zM656 67q-43 -36 -106.5 -58t-132.5 -22q-150 0 -245.5 86.5t-95.5 229.5q0 176 130.5 306.5t312.5 130.5q145 0 241 -91q31 -29 31 -65
q0 -33 -22.5 -56.5t-55.5 -23.5q-36 0 -55 22q-32 36 -67.5 54.5t-90.5 18.5q-105 0 -184.5 -86.5t-79.5 -203.5q0 -80 51 -130t131 -50q44 0 72.5 11t70.5 39q28 18 52 18q30 0 50 -21.5t20 -51.5q0 -34 -27 -57z" />
    <glyph glyph-name="cacute" unicode="&#x107;" horiz-adv-x="593" 
d="M585 707l-83 -61q-44 -33 -89 -33q-42 0 -42 28q0 14 13 28l80 88q31 33 57 33q30 0 58 -15t28 -34q0 -17 -22 -34zM495 54q-81 -66 -188 -66q-113 0 -185.5 68.5t-72.5 181.5q0 135 97.5 231.5t230.5 96.5q117 0 188 -71q28 -28 28 -59q0 -29 -21 -50t-51 -21
q-32 0 -51 22q-38 49 -105 49q-65 0 -115.5 -59.5t-50.5 -138.5q0 -55 32.5 -88t81.5 -33q52 0 99 33q25 17 45 17q26 0 43.5 -18.5t17.5 -44.5q0 -30 -23 -50z" />
    <glyph glyph-name="Cdotaccent" unicode="&#x10a;" horiz-adv-x="766" 
d="M650 862q-7 -33 -32.5 -52.5t-60.5 -19.5q-36 0 -56 20.5t-13 51.5l2 6q7 32 33 51.5t60 19.5q33 0 54 -21t14 -50zM656 67q-43 -36 -106.5 -58t-132.5 -22q-150 0 -245.5 86.5t-95.5 229.5q0 176 130.5 306.5t312.5 130.5q145 0 241 -91q31 -29 31 -65
q0 -33 -22.5 -56.5t-55.5 -23.5q-36 0 -55 22q-32 36 -67.5 54.5t-90.5 18.5q-105 0 -184.5 -86.5t-79.5 -203.5q0 -80 51 -130t131 -50q44 0 72.5 11t70.5 39q28 18 52 18q30 0 50 -21.5t20 -51.5q0 -34 -27 -57z" />
    <glyph glyph-name="cdotaccent" unicode="&#x10b;" horiz-adv-x="593" 
d="M500 685q-7 -33 -32.5 -52.5t-60.5 -19.5q-36 0 -56 20.5t-13 51.5l2 6q7 32 33 51.5t60 19.5q33 0 54 -21t14 -50zM495 54q-81 -66 -188 -66q-113 0 -185.5 68.5t-72.5 181.5q0 135 97.5 231.5t230.5 96.5q117 0 188 -71q28 -28 28 -59q0 -29 -21 -50t-51 -21
q-32 0 -51 22q-38 49 -105 49q-65 0 -115.5 -59.5t-50.5 -138.5q0 -55 32.5 -88t81.5 -33q52 0 99 33q25 17 45 17q26 0 43.5 -18.5t17.5 -44.5q0 -30 -23 -50z" />
    <glyph glyph-name="Ccaron" unicode="&#x10c;" horiz-adv-x="766" 
d="M468 829l-40 78q-13 23 -13 32q0 24 34 24q31 0 49.5 -5.5t38.5 -27.5l38 -42l61 42q48 33 95 33q32 0 32 -23q0 -15 -17 -32l-86 -83q-34 -34 -79 -34h-43q-51 0 -70 38zM656 67q-43 -36 -106.5 -58t-132.5 -22q-150 0 -245.5 86.5t-95.5 229.5q0 176 130.5 306.5
t312.5 130.5q145 0 241 -91q31 -29 31 -65q0 -33 -22.5 -56.5t-55.5 -23.5q-36 0 -55 22q-32 36 -67.5 54.5t-90.5 18.5q-105 0 -184.5 -86.5t-79.5 -203.5q0 -80 51 -130t131 -50q44 0 72.5 11t70.5 39q28 18 52 18q30 0 50 -21.5t20 -51.5q0 -34 -27 -57z" />
    <glyph glyph-name="ccaron" unicode="&#x10d;" horiz-adv-x="593" 
d="M318 652l-40 78q-13 23 -13 32q0 24 34 24q31 0 49.5 -5.5t38.5 -27.5l38 -42l61 42q48 33 95 33q32 0 32 -23q0 -15 -17 -32l-86 -83q-34 -34 -79 -34h-43q-51 0 -70 38zM495 54q-81 -66 -188 -66q-113 0 -185.5 68.5t-72.5 181.5q0 135 97.5 231.5t230.5 96.5
q117 0 188 -71q28 -28 28 -59q0 -29 -21 -50t-51 -21q-32 0 -51 22q-38 49 -105 49q-65 0 -115.5 -59.5t-50.5 -138.5q0 -55 32.5 -88t81.5 -33q52 0 99 33q25 17 45 17q26 0 43.5 -18.5t17.5 -44.5q0 -30 -23 -50z" />
    <glyph glyph-name="Dcaron" unicode="&#x10e;" horiz-adv-x="818" 
d="M424 819l-40 78q-13 23 -13 32q0 24 34 24q31 0 49.5 -5.5t38.5 -27.5l38 -42l61 42q48 33 95 33q32 0 32 -23q0 -15 -17 -32l-86 -83q-34 -34 -79 -34h-43q-51 0 -70 38zM279 728h145q191 0 285 -94q79 -80 79 -213q0 -168 -120 -286q-133 -135 -381 -135h-179
q-39 0 -56.5 26.5t-5.5 72.5l148 552q9 36 32 56.5t53 20.5zM210 139h95q157 0 249 90q74 76 74 186q0 75 -44 119q-55 55 -172 55h-81z" />
    <glyph glyph-name="dcaron" unicode="&#x10f;" horiz-adv-x="710" 
d="M770 578l37 135q12 47 61 47h24q29 0 29 -23q0 -13 -12 -35l-75 -134q-15 -28 -40 -28q-26 0 -26 23q0 7 2 15zM324 117q68 0 121 59.5t53 139.5q0 54 -34.5 88t-89.5 34q-68 0 -119 -58t-51 -142q0 -56 32.5 -88.5t87.5 -32.5zM488 -6q-32 0 -49.5 17.5t-17.5 46.5l1 5
q-77 -74 -160 -74q-94 0 -154.5 64.5t-60.5 174.5q0 144 93 241t215 97q117 0 177 -95l57 218q10 36 32.5 56t52.5 20q39 0 56.5 -26.5t4.5 -72.5l-159 -595q-10 -37 -33 -57t-55 -20z" />
    <glyph glyph-name="Dcroat" unicode="&#x110;" horiz-adv-x="839" 
d="M309 0h-180q-39 0 -56.5 26.5t-5.5 72.5l53 199h-6q-28 0 -48 20t-20 48t20 48t48 20h43l58 217q10 36 33 56.5t53 20.5h144q191 0 285 -94q79 -79 79 -213q0 -169 -119 -286q-133 -135 -381 -135zM231 139h96q156 0 248 90q74 74 74 186q0 75 -44 119q-53 55 -172 55
h-80l-42 -155h72q29 0 48.5 -20t19.5 -48t-19.5 -48t-48.5 -20h-109z" />
    <glyph glyph-name="dcroat" unicode="&#x111;" horiz-adv-x="710" 
d="M324 117q68 0 121 59.5t53 139.5q0 54 -34.5 88t-89.5 34q-68 0 -119 -58t-51 -142q0 -56 32.5 -88.5t87.5 -32.5zM422 63q-77 -74 -160 -74q-94 0 -154.5 64.5t-60.5 174.5q0 144 93 241t215 97q117 0 177 -95l39 148h-116q-17 0 -29.5 13t-12.5 30t12.5 29.5t29.5 12.5
h139q23 61 80 61q29 0 47 -16t19 -45h28q17 0 30 -12.5t13 -29.5t-13 -30t-30 -13h-46l-146 -548q-10 -37 -33 -57t-55 -20t-49.5 17.5t-17.5 46.5z" />
    <glyph glyph-name="Emacron" unicode="&#x112;" horiz-adv-x="701" 
d="M655 792h-277q-22 0 -37.5 15.5t-15.5 37.5t15.5 37.5t37.5 15.5h277q22 0 37.5 -15.5t15.5 -37.5t-15.5 -37.5t-37.5 -15.5zM521 0h-413q-39 0 -56.5 26.5t-5.5 72.5l148 552q9 36 32 56.5t53 20.5h396q29 0 49 -20t20 -49q0 -28 -20 -48t-49 -20h-345l-41 -157h260
q29 0 49 -20t20 -48t-20 -47.5t-49 -19.5h-297l-44 -162h313q29 0 49 -20.5t20 -48.5t-20 -48t-49 -20z" />
    <glyph glyph-name="emacron" unicode="&#x113;" horiz-adv-x="640" 
d="M562 625h-277q-22 0 -37.5 15.5t-15.5 37.5t15.5 37.5t37.5 15.5h277q22 0 37.5 -15.5t15.5 -37.5t-15.5 -37.5t-37.5 -15.5zM321 110q50 0 91 24q26 14 46 14q24 0 40.5 -16.5t16.5 -41.5q0 -33 -28 -51q-77 -51 -183 -51q-119 0 -187.5 65.5t-68.5 180.5q0 82 40 157
t117 125t172 50q105 0 166 -60.5t61 -155.5q0 -26 -7 -58q-15 -67 -73 -67h-333v-2q4 -53 36.5 -83t93.5 -30zM205 321h251q5 17 5 36q0 39 -24 63t-71 24q-55 0 -98 -33.5t-63 -89.5z" />
    <glyph glyph-name="Ebreve" unicode="&#x114;" horiz-adv-x="701" 
d="M517 784q-72 0 -118.5 38t-46.5 84q0 21 15 34t38 13q35 0 48 -27q23 -42 76 -42q43 0 81 42q24 27 53 27q21 0 33 -11.5t12 -31.5q0 -19 -14 -36q-70 -90 -177 -90zM521 0h-413q-39 0 -56.5 26.5t-5.5 72.5l148 552q9 36 32 56.5t53 20.5h396q29 0 49 -20t20 -49
q0 -28 -20 -48t-49 -20h-345l-41 -157h260q29 0 49 -20t20 -48t-20 -47.5t-49 -19.5h-297l-44 -162h313q29 0 49 -20.5t20 -48.5t-20 -48t-49 -20z" />
    <glyph glyph-name="ebreve" unicode="&#x115;" horiz-adv-x="640" 
d="M426 617q-72 0 -118.5 38t-46.5 84q0 21 15 34t38 13q34 0 48 -27q23 -42 76 -42q43 0 81 42q24 27 53 27q21 0 33 -11.5t12 -31.5q0 -19 -14 -36q-70 -90 -177 -90zM321 110q50 0 91 24q26 14 46 14q24 0 40.5 -16.5t16.5 -41.5q0 -33 -28 -51q-77 -51 -183 -51
q-119 0 -187.5 65.5t-68.5 180.5q0 82 40 157t117 125t172 50q105 0 166 -60.5t61 -155.5q0 -26 -7 -58q-15 -67 -73 -67h-333v-2q4 -53 36.5 -83t93.5 -30zM205 321h251q5 17 5 36q0 39 -24 63t-71 24q-55 0 -98 -33.5t-63 -89.5z" />
    <glyph glyph-name="Edotaccent" unicode="&#x116;" horiz-adv-x="701" 
d="M598 852q-7 -33 -32.5 -52.5t-60.5 -19.5q-36 0 -56 20.5t-13 51.5l2 6q7 32 33 51.5t60 19.5q33 0 54 -21t14 -50zM521 0h-413q-39 0 -56.5 26.5t-5.5 72.5l148 552q9 36 32 56.5t53 20.5h396q29 0 49 -20t20 -49q0 -28 -20 -48t-49 -20h-345l-41 -157h260q29 0 49 -20
t20 -48t-20 -47.5t-49 -19.5h-297l-44 -162h313q29 0 49 -20.5t20 -48.5t-20 -48t-49 -20z" />
    <glyph glyph-name="edotaccent" unicode="&#x117;" horiz-adv-x="640" 
d="M506 685q-7 -33 -32.5 -52.5t-60.5 -19.5q-36 0 -56 20.5t-13 51.5l2 6q7 32 33 51.5t60 19.5q33 0 54 -21t14 -50zM321 110q50 0 91 24q26 14 46 14q24 0 40.5 -16.5t16.5 -41.5q0 -33 -28 -51q-77 -51 -183 -51q-119 0 -187.5 65.5t-68.5 180.5q0 82 40 157t117 125
t172 50q105 0 166 -60.5t61 -155.5q0 -26 -7 -58q-15 -67 -73 -67h-333v-2q4 -53 36.5 -83t93.5 -30zM205 321h251q5 17 5 36q0 39 -24 63t-71 24q-55 0 -98 -33.5t-63 -89.5z" />
    <glyph glyph-name="Eogonek" unicode="&#x118;" horiz-adv-x="701" 
d="M552 3q-34 -30 -45.5 -45.5t-11.5 -30.5q0 -11 7.5 -16.5t25.5 -11.5t25.5 -13.5t6.5 -21.5q-2 -38 -74 -38q-51 0 -80 18t-29 51q0 47 70 105h-339q-39 0 -56.5 26.5t-5.5 72.5l148 552q9 36 32 56.5t53 20.5h396q29 0 49 -20t20 -49q0 -28 -20 -48t-49 -20h-345
l-41 -157h260q29 0 49 -20t20 -48t-20 -47.5t-49 -19.5h-297l-44 -162h313q29 0 49 -20.5t20 -48.5q0 -31 -38 -65z" />
    <glyph glyph-name="eogonek" unicode="&#x119;" horiz-adv-x="640" 
d="M437 -2q-45 -42 -45 -71q0 -11 7.5 -16.5t25.5 -11.5t25.5 -13.5t6.5 -21.5q-2 -38 -74 -38q-51 0 -80.5 18t-29.5 51q0 43 53 94q-7 -1 -22 -1q-119 0 -187.5 65.5t-68.5 180.5q0 82 40 157t117 125t172 50q105 0 166 -60.5t61 -155.5q0 -26 -7 -58q-15 -67 -73 -67
h-333v-2q4 -53 36.5 -83t93.5 -30q50 0 91 24q26 14 46 14q24 0 40.5 -16.5t16.5 -41.5q0 -30 -28 -51q-28 -20 -50 -41zM205 321h251q5 17 5 36q0 39 -24 63t-71 24q-55 0 -98 -33.5t-63 -89.5z" />
    <glyph glyph-name="Ecaron" unicode="&#x11a;" horiz-adv-x="701" 
d="M416 819l-40 78q-13 23 -13 32q0 24 34 24q31 0 49.5 -5.5t38.5 -27.5l38 -42l61 42q48 33 95 33q32 0 32 -23q0 -15 -17 -32l-86 -83q-34 -34 -79 -34h-43q-51 0 -70 38zM521 0h-413q-39 0 -56.5 26.5t-5.5 72.5l148 552q9 36 32 56.5t53 20.5h396q29 0 49 -20t20 -49
q0 -28 -20 -48t-49 -20h-345l-41 -157h260q29 0 49 -20t20 -48t-20 -47.5t-49 -19.5h-297l-44 -162h313q29 0 49 -20.5t20 -48.5t-20 -48t-49 -20z" />
    <glyph glyph-name="ecaron" unicode="&#x11b;" horiz-adv-x="640" 
d="M324 652l-40 78q-13 23 -13 32q0 24 34 24q31 0 49.5 -5.5t38.5 -27.5l38 -42l61 42q48 33 95 33q32 0 32 -23q0 -15 -17 -32l-86 -83q-34 -34 -79 -34h-43q-51 0 -70 38zM321 110q50 0 91 24q26 14 46 14q24 0 40.5 -16.5t16.5 -41.5q0 -33 -28 -51q-77 -51 -183 -51
q-119 0 -187.5 65.5t-68.5 180.5q0 82 40 157t117 125t172 50q105 0 166 -60.5t61 -155.5q0 -26 -7 -58q-15 -67 -73 -67h-333v-2q4 -53 36.5 -83t93.5 -30zM205 321h251q5 17 5 36q0 39 -24 63t-71 24q-55 0 -98 -33.5t-63 -89.5z" />
    <glyph glyph-name="Gbreve" unicode="&#x11e;" horiz-adv-x="822" 
d="M579 794q-72 0 -118.5 38t-46.5 84q0 21 15 34t38 13q35 0 48 -27q23 -42 76 -42q43 0 81 42q24 27 53 27q21 0 33 -11.5t12 -31.5q0 -19 -14 -36q-70 -90 -177 -90zM754 318l-58 -204q-15 -54 -63 -81q-86 -46 -217 -46q-64 0 -124 19.5t-109 57t-78.5 99.5t-29.5 140
q0 84 34.5 163.5t94 140t145 97t180.5 36.5q85 0 151 -23.5t103 -58.5q31 -27 31 -62q0 -32 -22 -54t-54 -22q-26 0 -48 16q-41 33 -79 48.5t-94 15.5q-118 0 -200 -87t-82 -205q0 -84 54 -132t137 -48q71 0 135 30l36 126h-97q-28 0 -47.5 19t-19.5 47t19.5 47.5t47.5 19.5
h192q39 0 57 -27t5 -72z" />
    <glyph glyph-name="gbreve" unicode="&#x11f;" horiz-adv-x="707" 
d="M461 617q-72 0 -118.5 38t-46.5 84q0 21 15 34t38 13q35 0 48 -27q23 -42 76 -42q43 0 81 42q24 27 53 27q21 0 33 -11.5t12 -31.5q0 -19 -14 -36q-70 -90 -177 -90zM318 167q68 0 119 49.5t51 116.5q0 49 -31.5 77.5t-83.5 28.5q-68 0 -116.5 -51t-48.5 -119
q0 -49 30 -75.5t80 -26.5zM527 467l6 18q9 34 30 55.5t53 21.5q39 0 56.5 -27t4.5 -73l-95 -355q-21 -81 -41.5 -123t-54.5 -76q-78 -76 -222 -76q-133 0 -240 50q-43 20 -43 58q0 27 18 46.5t45 19.5q21 0 45 -12q78 -42 165 -42q78 0 124 45q32 33 52 103l6 21
q-45 -40 -85.5 -58t-91.5 -18q-86 0 -147 52.5t-61 143.5q0 135 93 230t211 95q117 0 172 -99z" />
    <glyph glyph-name="Gdotaccent" unicode="&#x120;" horiz-adv-x="822" 
d="M660 862q-7 -33 -32.5 -52.5t-60.5 -19.5q-36 0 -56 20.5t-13 51.5l2 6q7 32 33 51.5t60 19.5q33 0 54 -21t14 -50zM754 318l-58 -204q-15 -54 -63 -81q-86 -46 -217 -46q-64 0 -124 19.5t-109 57t-78.5 99.5t-29.5 140q0 84 34.5 163.5t94 140t145 97t180.5 36.5
q85 0 151 -23.5t103 -58.5q31 -27 31 -62q0 -32 -22 -54t-54 -22q-26 0 -48 16q-41 33 -79 48.5t-94 15.5q-118 0 -200 -87t-82 -205q0 -84 54 -132t137 -48q71 0 135 30l36 126h-97q-28 0 -47.5 19t-19.5 47t19.5 47.5t47.5 19.5h192q39 0 57 -27t5 -72z" />
    <glyph glyph-name="gdotaccent" unicode="&#x121;" horiz-adv-x="707" 
d="M542 685q-7 -33 -32.5 -52.5t-60.5 -19.5q-36 0 -56 20.5t-13 51.5l2 6q7 32 33 51.5t60 19.5q33 0 54 -21t14 -50zM318 167q68 0 119 49.5t51 116.5q0 49 -31.5 77.5t-83.5 28.5q-68 0 -116.5 -51t-48.5 -119q0 -49 30 -75.5t80 -26.5zM527 467l6 18q9 34 30 55.5
t53 21.5q39 0 56.5 -27t4.5 -73l-95 -355q-21 -81 -41.5 -123t-54.5 -76q-78 -76 -222 -76q-133 0 -240 50q-43 20 -43 58q0 27 18 46.5t45 19.5q21 0 45 -12q78 -42 165 -42q78 0 124 45q32 33 52 103l6 21q-45 -40 -85.5 -58t-91.5 -18q-86 0 -147 52.5t-61 143.5
q0 135 93 230t211 95q117 0 172 -99z" />
    <glyph glyph-name="Gcommaaccent" unicode="&#x122;" horiz-adv-x="822" 
d="M754 318l-58 -204q-15 -54 -63 -81q-86 -46 -217 -46q-64 0 -124 19.5t-109 57t-78.5 99.5t-29.5 140q0 84 34.5 163.5t94 140t145 97t180.5 36.5q85 0 151 -23.5t103 -58.5q31 -27 31 -62q0 -32 -22 -54t-54 -22q-26 0 -48 16q-41 33 -79 48.5t-94 15.5q-118 0 -200 -87
t-82 -205q0 -84 54 -132t137 -48q71 0 135 30l36 126h-97q-28 0 -47.5 19t-19.5 47t19.5 47.5t47.5 19.5h192q39 0 57 -27t5 -72zM326 -184q-56 12 -56 52q0 30 22.5 50.5t55.5 20.5t51.5 -18.5t18.5 -52.5q0 -61 -50 -113q-61 -59 -133 -59q-28 0 -28 22q0 21 32 27
q76 14 87 71z" />
    <glyph glyph-name="gcommaaccent" unicode="&#x123;" horiz-adv-x="707" 
d="M474 736q56 -12 56 -53q0 -29 -22.5 -49.5t-56.5 -20.5q-32 0 -50.5 18.5t-18.5 51.5q0 63 50 113q60 60 132 60q28 0 28 -22t-31 -28q-78 -14 -87 -70zM318 167q68 0 119 49.5t51 116.5q0 49 -31.5 77.5t-83.5 28.5q-68 0 -116.5 -51t-48.5 -119q0 -49 30 -75.5
t80 -26.5zM527 467l6 18q9 34 30 55.5t53 21.5q39 0 56.5 -27t4.5 -73l-95 -355q-21 -81 -41.5 -123t-54.5 -76q-78 -76 -222 -76q-133 0 -240 50q-43 20 -43 58q0 27 18 46.5t45 19.5q21 0 45 -12q78 -42 165 -42q78 0 124 45q32 33 52 103l6 21q-45 -40 -85.5 -58
t-91.5 -18q-86 0 -147 52.5t-61 143.5q0 135 93 230t211 95q117 0 172 -99z" />
    <glyph glyph-name="Hbar" unicode="&#x126;" horiz-adv-x="796" 
d="M291 437h301l25 95h-301zM647 71q-10 -36 -33 -56.5t-53 -20.5q-39 0 -56.5 27t-5.5 73l55 201h-301l-61 -224q-10 -36 -33 -56.5t-53 -20.5q-39 0 -56.5 27t-5.5 73l118 438h-12q-22 0 -38 15.5t-16 37.5t16 37.5t38 15.5h41l5 19q10 37 32.5 57t52.5 20q39 0 57 -26
t6 -70h302l5 19q10 36 33 56.5t53 20.5q38 0 56.5 -26.5t6.5 -69.5h12q22 0 38 -15.5t16 -37.5t-16 -37.5t-38 -15.5h-41z" />
    <glyph glyph-name="hbar" unicode="&#x127;" horiz-adv-x="656" 
d="M528 71q-10 -37 -32.5 -57t-52.5 -20q-39 0 -56.5 26.5t-4.5 72.5l57 213q7 26 7 50q0 35 -21 54t-59 19q-47 0 -79.5 -31.5t-47.5 -85.5l-65 -241q-10 -37 -32.5 -57t-52.5 -20q-38 0 -55.5 26.5t-4.5 72.5l139 526h-23q-17 0 -29.5 13t-12.5 30t12.5 29.5t29.5 12.5h47
q23 61 79 61q29 0 47 -16t19 -45h121q17 0 29.5 -12.5t12.5 -29.5t-12.5 -30t-29.5 -13h-138l-33 -124q79 71 155 71t120.5 -43.5t44.5 -118.5q0 -36 -18 -104z" />
    <glyph glyph-name="Imacron" unicode="&#x12a;" horiz-adv-x="356" 
d="M469 792h-277q-22 0 -37.5 15.5t-15.5 37.5t15.5 37.5t37.5 15.5h277q22 0 37.5 -15.5t15.5 -37.5t-15.5 -37.5t-37.5 -15.5zM351 634l-152 -563q-10 -36 -33 -56.5t-53 -20.5q-39 0 -56.5 27t-5.5 73l152 563q10 36 33 56.5t53 20.5q39 0 56.5 -27t5.5 -73z" />
    <glyph glyph-name="imacron" unicode="&#x12b;" horiz-adv-x="321" 
d="M406 625h-277q-22 0 -37.5 15.5t-15.5 37.5t15.5 37.5t37.5 15.5h277q22 0 37.5 -15.5t15.5 -37.5t-15.5 -37.5t-37.5 -15.5zM286 462l-106 -391q-9 -36 -31.5 -56.5t-52.5 -20.5q-39 0 -56.5 26.5t-4.5 72.5l105 392q10 37 32.5 57t52.5 20q39 0 56.5 -27t4.5 -73z" />
    <glyph glyph-name="Ibreve" unicode="&#x12c;" horiz-adv-x="356" 
d="M331 784q-72 0 -118.5 38t-46.5 84q0 21 15 34t38 13q35 0 48 -27q23 -42 76 -42q43 0 81 42q24 27 53 27q21 0 33 -11.5t12 -31.5q0 -19 -14 -36q-70 -90 -177 -90zM351 634l-152 -563q-10 -36 -33 -56.5t-53 -20.5q-39 0 -56.5 27t-5.5 73l152 563q10 36 33 56.5
t53 20.5q39 0 56.5 -27t5.5 -73z" />
    <glyph glyph-name="ibreve" unicode="&#x12d;" horiz-adv-x="321" 
d="M269 617q-72 0 -118.5 38t-46.5 84q0 21 15 34t38 13q35 0 48 -27q23 -42 76 -42q43 0 81 42q24 27 53 27q21 0 33 -11.5t12 -31.5q0 -19 -14 -36q-70 -90 -177 -90zM286 462l-106 -391q-9 -36 -31.5 -56.5t-52.5 -20.5q-39 0 -56.5 26.5t-4.5 72.5l105 392
q10 37 32.5 57t52.5 20q39 0 56.5 -27t4.5 -73z" />
    <glyph glyph-name="Iogonek" unicode="&#x12e;" horiz-adv-x="356" 
d="M95 -174q-51 0 -80 18t-29 51q0 51 79 116q-30 25 -14 83l152 563q10 36 33 56.5t53 20.5q39 0 56.5 -27t5.5 -73l-152 -563q-10 -35 -36 -61q-59 -56 -59 -83q0 -11 7.5 -16.5t25.5 -11.5t25.5 -13.5t6.5 -21.5q-2 -38 -74 -38z" />
    <glyph glyph-name="iogonek" unicode="&#x12f;" horiz-adv-x="321" 
d="M356 686q-7 -32 -34 -50.5t-64 -18.5q-36 0 -57.5 20t-15.5 50l1 6q7 32 34 51t64 19q36 0 57.5 -20t15.5 -50zM286 462l-106 -391q-9 -34 -36 -61q-57 -57 -57 -83q0 -11 7 -16.5t25 -11.5q34 -10 33 -35q-2 -38 -74 -38q-51 0 -80.5 18t-29.5 51q0 49 79 116
q-17 18 -17 48q0 16 5 34l105 392q10 37 32.5 57t52.5 20q39 0 56.5 -27t4.5 -73z" />
    <glyph glyph-name="Idotaccent" unicode="&#x130;" horiz-adv-x="356" 
d="M413 852q-7 -33 -33 -52.5t-60 -19.5q-36 0 -56 20.5t-13 51.5l2 6q7 32 33 51.5t60 19.5q33 0 54 -21t14 -50zM351 634l-152 -563q-10 -36 -33 -56.5t-53 -20.5q-39 0 -56.5 27t-5.5 73l152 563q10 36 33 56.5t53 20.5q39 0 56.5 -27t5.5 -73z" />
    <glyph glyph-name="dotlessi" unicode="&#x131;" horiz-adv-x="321" 
d="M286 462l-106 -391q-9 -36 -31.5 -56.5t-52.5 -20.5q-39 0 -56.5 26.5t-4.5 72.5l105 392q10 37 32.5 57t52.5 20q39 0 56.5 -27t4.5 -73z" />
    <glyph glyph-name="Kcommaaccent" unicode="&#x136;" horiz-adv-x="757" 
d="M226 198l-34 -127q-10 -36 -33 -56.5t-53 -20.5q-39 0 -56.5 27t-5.5 73l152 563q10 37 32.5 57t52.5 20q39 0 56.5 -27t5.5 -73l-63 -237l367 307q36 30 64 30q31 0 50.5 -20t19.5 -49q0 -35 -27 -57l-241 -197l133 -298q12 -29 12 -50q0 -31 -23.5 -50t-53.5 -19
q-55 0 -78 54l-116 277zM298 -174q-56 12 -56 52q0 30 22.5 50.5t55.5 20.5t51.5 -18.5t18.5 -52.5q0 -61 -50 -113q-61 -59 -133 -59q-28 0 -28 22q0 21 32 27q76 14 87 71z" />
    <glyph glyph-name="kcommaaccent" unicode="&#x137;" horiz-adv-x="623" 
d="M334 666l-87 -322l250 191q35 27 58 27q28 0 45.5 -17.5t17.5 -43.5q0 -32 -28 -52l-170 -124l89 -212q14 -30 14 -52q0 -31 -23.5 -49t-54.5 -18q-57 0 -79 55l-77 181l-91 -67l-24 -92q-10 -37 -32.5 -57t-52.5 -20q-38 0 -55.5 26.5t-4.5 72.5l160 596q21 76 84 76
q39 0 56.5 -26.5t4.5 -72.5zM208 -179q-56 12 -56 52q0 30 22.5 50.5t55.5 20.5t51.5 -18.5t18.5 -52.5q0 -61 -50 -113q-61 -59 -133 -59q-28 0 -28 22q0 21 32 27q76 14 87 71z" />
    <glyph glyph-name="Lacute" unicode="&#x139;" horiz-adv-x="659" 
d="M510 874l-83 -61q-44 -33 -89 -33q-42 0 -42 28q0 14 13 28l80 88q31 33 57 33q30 0 58 -15t28 -34q0 -18 -22 -34zM496 0h-388q-39 0 -56.5 26.5t-5.5 72.5l150 558q10 37 32.5 57t52.5 20q39 0 56.5 -27t5.5 -73l-132 -494h285q29 0 49 -20.5t20 -49.5q0 -30 -20 -50
t-49 -20z" />
    <glyph glyph-name="lacute" unicode="&#x13a;" horiz-adv-x="321" 
d="M488 890l-83 -61q-44 -33 -89 -33q-42 0 -42 28q0 14 13 28l80 88q31 33 57 33q30 0 58 -15t28 -34q0 -18 -22 -34zM341 666l-161 -595q-9 -36 -31.5 -56.5t-52.5 -20.5q-39 0 -56.5 26.5t-4.5 72.5l160 596q10 36 32.5 56t52.5 20q38 0 55.5 -26.5t5.5 -72.5z" />
    <glyph glyph-name="Lcommaaccent" unicode="&#x13b;" horiz-adv-x="659" 
d="M496 0h-388q-39 0 -56.5 26.5t-5.5 72.5l150 558q10 37 32.5 57t52.5 20q39 0 56.5 -27t5.5 -73l-132 -494h285q29 0 49 -20.5t20 -49.5q0 -30 -20 -50t-49 -20zM236 -179q-56 12 -56 52q0 30 22.5 50.5t55.5 20.5t51.5 -18.5t18.5 -52.5q0 -61 -50 -113
q-61 -59 -133 -59q-28 0 -28 22q0 21 32 27q76 14 87 71z" />
    <glyph glyph-name="lcommaaccent" unicode="&#x13c;" horiz-adv-x="321" 
d="M341 666l-161 -595q-9 -36 -31.5 -56.5t-52.5 -20.5q-39 0 -56.5 26.5t-4.5 72.5l160 596q10 36 32.5 56t52.5 20q38 0 55.5 -26.5t5.5 -72.5zM52 -179q-56 12 -56 52q0 30 22.5 50.5t55.5 20.5t51.5 -18.5t18.5 -52.5q0 -61 -50 -113q-61 -59 -133 -59q-28 0 -28 22
q0 21 32 27q76 14 87 71z" />
    <glyph glyph-name="Lcaron" unicode="&#x13d;" horiz-adv-x="659" 
d="M496 0h-388q-39 0 -56.5 26.5t-5.5 72.5l150 558q10 37 32.5 57t52.5 20q39 0 56.5 -27t5.5 -73l-132 -494h285q29 0 49 -20.5t20 -49.5q0 -30 -20 -50t-49 -20zM379 547l37 135q12 47 61 47h24q29 0 29 -23q0 -13 -12 -35l-75 -134q-15 -28 -40 -28q-26 0 -26 23
q0 7 2 15z" />
    <glyph glyph-name="lcaron" unicode="&#x13e;" horiz-adv-x="321" 
d="M341 666l-161 -595q-9 -36 -31.5 -56.5t-52.5 -20.5q-39 0 -56.5 26.5t-4.5 72.5l160 596q10 36 32.5 56t52.5 20q38 0 55.5 -26.5t5.5 -72.5zM375 578l37 135q12 47 61 47h24q29 0 29 -23q0 -13 -12 -35l-75 -134q-15 -28 -40 -28q-26 0 -26 23q0 7 2 15z" />
    <glyph glyph-name="Ldot" unicode="&#x13f;" horiz-adv-x="659" 
d="M496 0h-388q-39 0 -56.5 26.5t-5.5 72.5l150 558q10 37 32.5 57t52.5 20q39 0 56.5 -27t5.5 -73l-132 -494h285q29 0 49 -20.5t20 -49.5q0 -30 -20 -50t-49 -20zM618 394q-7 -33 -32.5 -52.5t-60.5 -19.5q-36 0 -56 20.5t-13 51.5l2 6q7 32 33 51.5t60 19.5q33 0 54 -21
t14 -50z" />
    <glyph glyph-name="ldot" unicode="&#x140;" horiz-adv-x="413" 
d="M341 666l-161 -595q-9 -36 -31.5 -56.5t-52.5 -20.5q-39 0 -56.5 26.5t-4.5 72.5l160 596q10 36 32.5 56t52.5 20q38 0 55.5 -26.5t5.5 -72.5zM456 388q-6 -31 -24.5 -47.5t-46.5 -16.5q-30 0 -46 20t-11 48l1 6q13 65 72 65q30 0 46 -20t11 -48z" />
    <glyph glyph-name="Lslash" unicode="&#x141;" horiz-adv-x="693" 
d="M529 0h-388q-39 0 -56.5 26.5t-5.5 72.5l48 178q-4 -1 -10 -1q-29 0 -47 17t-18 45q0 49 49 63l64 18l64 238q10 36 32 56.5t52 20.5q38 0 54.5 -27t4.5 -73l-46 -170l111 31q18 4 26 4q29 0 47 -17t18 -45q0 -49 -50 -63l-190 -53l-49 -181h290q29 0 49 -20.5t20 -49.5
q0 -30 -20 -50t-49 -20z" />
    <glyph glyph-name="lslash" unicode="&#x142;" horiz-adv-x="380" 
d="M127 -6q-39 0 -56.5 26.5t-4.5 72.5l54 202q-10 -2 -18 -2q-25 0 -40.5 17t-15.5 44q0 54 57 68l55 15l68 252q10 36 32.5 56t52.5 20q39 0 56.5 -26.5t4.5 -72.5l-50 -185q12 2 19 2q25 0 40.5 -17t15.5 -44q0 -53 -57 -67l-56 -15l-72 -269q-10 -37 -32.5 -57
t-52.5 -20z" />
    <glyph glyph-name="Nacute" unicode="&#x143;" horiz-adv-x="827" 
d="M734 874l-83 -61q-44 -33 -89 -33q-42 0 -42 28q0 14 13 28l80 88q31 33 57 33q30 0 58 -15t28 -34q0 -18 -22 -34zM575 255l109 402q10 37 32.5 57t52.5 20q39 0 56.5 -27t4.5 -73l-153 -566q-19 -72 -83 -72h-3q-34 0 -53.5 14t-33.5 44l-203 434l-111 -417
q-10 -37 -32.5 -57t-52.5 -20q-39 0 -56.5 27t-4.5 73l151 561q20 77 90 77h7q63 0 90 -61z" />
    <glyph glyph-name="nacute" unicode="&#x144;" horiz-adv-x="653" 
d="M595 707l-83 -61q-44 -33 -89 -33q-42 0 -42 28q0 14 13 28l80 88q31 33 57 33q30 0 58 -15t28 -34q0 -17 -22 -34zM221 562q32 0 50 -17.5t17 -44.5l-1 -5q79 71 155 71t120.5 -43.5t44.5 -118.5q0 -36 -18 -104l-61 -229q-10 -37 -32.5 -57t-52.5 -20q-39 0 -56.5 26.5
t-4.5 72.5l57 213q7 26 7 50q0 35 -21 54t-59 19q-47 0 -79.5 -31.5t-47.5 -85.5l-65 -241q-10 -37 -32.5 -57t-52.5 -20q-38 0 -55.5 26.5t-4.5 72.5l104 392q10 37 33 57t55 20z" />
    <glyph glyph-name="Ncommaaccent" unicode="&#x145;" horiz-adv-x="827" 
d="M575 255l109 402q10 37 32.5 57t52.5 20q39 0 56.5 -27t4.5 -73l-153 -566q-19 -72 -83 -72h-3q-34 0 -53.5 14t-33.5 44l-203 434l-111 -417q-10 -37 -32.5 -57t-52.5 -20q-39 0 -56.5 27t-4.5 73l151 561q20 77 90 77h7q63 0 90 -61zM306 -174q-56 12 -56 52
q0 30 22.5 50.5t55.5 20.5t51.5 -18.5t18.5 -52.5q0 -61 -50 -113q-61 -59 -133 -59q-28 0 -28 22q0 21 32 27q76 14 87 71z" />
    <glyph glyph-name="ncommaaccent" unicode="&#x146;" horiz-adv-x="653" 
d="M221 562q32 0 50 -17.5t17 -44.5l-1 -5q79 71 155 71t120.5 -43.5t44.5 -118.5q0 -36 -18 -104l-61 -229q-10 -37 -32.5 -57t-52.5 -20q-39 0 -56.5 26.5t-4.5 72.5l57 213q7 26 7 50q0 35 -21 54t-59 19q-47 0 -79.5 -31.5t-47.5 -85.5l-65 -241q-10 -37 -32.5 -57
t-52.5 -20q-38 0 -55.5 26.5t-4.5 72.5l104 392q10 37 33 57t55 20zM209 -179q-56 12 -56 52q0 30 22.5 50.5t55.5 20.5t51.5 -18.5t18.5 -52.5q0 -61 -50 -113q-61 -59 -133 -59q-28 0 -28 22q0 21 32 27q76 14 87 71z" />
    <glyph glyph-name="Ncaron" unicode="&#x147;" horiz-adv-x="827" 
d="M466 819l-40 78q-13 23 -13 32q0 24 34 24q31 0 49.5 -5.5t38.5 -27.5l38 -42l61 42q48 33 95 33q32 0 32 -23q0 -15 -17 -32l-86 -83q-34 -34 -79 -34h-43q-51 0 -70 38zM575 255l109 402q10 37 32.5 57t52.5 20q39 0 56.5 -27t4.5 -73l-153 -566q-19 -72 -83 -72h-3
q-34 0 -53.5 14t-33.5 44l-203 434l-111 -417q-10 -37 -32.5 -57t-52.5 -20q-39 0 -56.5 27t-4.5 73l151 561q20 77 90 77h7q63 0 90 -61z" />
    <glyph glyph-name="ncaron" unicode="&#x148;" horiz-adv-x="653" 
d="M326 652l-40 78q-13 23 -13 32q0 24 34 24q31 0 49.5 -5.5t38.5 -27.5l38 -42l61 42q48 33 95 33q32 0 32 -23q0 -15 -17 -32l-86 -83q-34 -34 -79 -34h-43q-51 0 -70 38zM221 562q32 0 50 -17.5t17 -44.5l-1 -5q79 71 155 71t120.5 -43.5t44.5 -118.5q0 -36 -18 -104
l-61 -229q-10 -37 -32.5 -57t-52.5 -20q-39 0 -56.5 26.5t-4.5 72.5l57 213q7 26 7 50q0 35 -21 54t-59 19q-47 0 -79.5 -31.5t-47.5 -85.5l-65 -241q-10 -37 -32.5 -57t-52.5 -20q-38 0 -55.5 26.5t-4.5 72.5l104 392q10 37 33 57t55 20z" />
    <glyph glyph-name="Omacron" unicode="&#x14c;" horiz-adv-x="876" 
d="M722 802h-277q-22 0 -37.5 15.5t-15.5 37.5t15.5 37.5t37.5 15.5h277q22 0 37.5 -15.5t15.5 -37.5t-15.5 -37.5t-37.5 -15.5zM408 -13q-148 0 -240 91.5t-92 230.5q0 82 32.5 159.5t88.5 138t139 97t177 36.5q148 0 240 -91t92 -230q0 -110 -54 -208t-156 -161t-227 -63z
M426 129q111 0 185 88t74 192q0 85 -50 137.5t-139 52.5q-111 0 -185.5 -88t-74.5 -192q0 -85 50 -137.5t140 -52.5z" />
    <glyph glyph-name="omacron" unicode="&#x14d;" horiz-adv-x="687" 
d="M585 625h-277q-22 0 -37.5 15.5t-15.5 37.5t15.5 37.5t37.5 15.5h277q22 0 37.5 -15.5t15.5 -37.5t-15.5 -37.5t-37.5 -15.5zM316 -12q-121 0 -194 71.5t-73 184.5q0 127 95 224.5t227 97.5q121 0 194 -71.5t73 -184.5q0 -127 -95 -224.5t-227 -97.5zM323 117
q69 0 117.5 61t48.5 128q0 61 -34 95.5t-91 34.5q-70 0 -118 -60.5t-48 -127.5q0 -61 34.5 -96t90.5 -35z" />
    <glyph glyph-name="Obreve" unicode="&#x14e;" horiz-adv-x="876" 
d="M586 794q-72 0 -118.5 38t-46.5 84q0 21 15 34t38 13q34 0 48 -27q23 -42 76 -42q43 0 81 42q24 27 53 27q21 0 33 -11.5t12 -31.5q0 -19 -14 -36q-70 -90 -177 -90zM408 -13q-148 0 -240 91.5t-92 230.5q0 82 32.5 159.5t88.5 138t139 97t177 36.5q148 0 240 -91
t92 -230q0 -110 -54 -208t-156 -161t-227 -63zM426 129q111 0 185 88t74 192q0 85 -50 137.5t-139 52.5q-111 0 -185.5 -88t-74.5 -192q0 -85 50 -137.5t140 -52.5z" />
    <glyph glyph-name="obreve" unicode="&#x14f;" horiz-adv-x="687" 
d="M448 617q-72 0 -118.5 38t-46.5 84q0 21 15 34t38 13q34 0 48 -27q23 -42 76 -42q43 0 81 42q24 27 53 27q21 0 33 -11.5t12 -31.5q0 -19 -14 -36q-70 -90 -177 -90zM316 -12q-121 0 -194 71.5t-73 184.5q0 127 95 224.5t227 97.5q121 0 194 -71.5t73 -184.5
q0 -127 -95 -224.5t-227 -97.5zM323 117q69 0 117.5 61t48.5 128q0 61 -34 95.5t-91 34.5q-70 0 -118 -60.5t-48 -127.5q0 -61 34.5 -96t90.5 -35z" />
    <glyph glyph-name="Ohungarumlaut" unicode="&#x150;" horiz-adv-x="876" 
d="M771 967q28 0 49.5 -15t21.5 -34q0 -18 -22 -34l-83 -61q-44 -33 -81 -33q-36 0 -36 28q0 14 13 28l80 88q31 33 58 33zM570 967q28 0 49.5 -15t21.5 -34q0 -18 -22 -34l-83 -61q-44 -33 -81 -33q-36 0 -36 28q0 14 13 28l80 88q31 33 58 33zM408 -13q-148 0 -240 91.5
t-92 230.5q0 82 32.5 159.5t88.5 138t139 97t177 36.5q148 0 240 -91t92 -230q0 -110 -54 -208t-156 -161t-227 -63zM426 129q111 0 185 88t74 192q0 85 -50 137.5t-139 52.5q-111 0 -185.5 -88t-74.5 -192q0 -85 50 -137.5t140 -52.5z" />
    <glyph glyph-name="ohungarumlaut" unicode="&#x151;" horiz-adv-x="687" 
d="M633 790q28 0 49.5 -15t21.5 -34q0 -17 -22 -34l-83 -61q-44 -33 -81 -33q-36 0 -36 28q0 14 13 28l80 88q31 33 58 33zM432 790q28 0 49.5 -15t21.5 -34q0 -17 -22 -34l-83 -61q-44 -33 -81 -33q-36 0 -36 28q0 14 13 28l80 88q31 33 58 33zM316 -12q-121 0 -194 71.5
t-73 184.5q0 127 95 224.5t227 97.5q121 0 194 -71.5t73 -184.5q0 -127 -95 -224.5t-227 -97.5zM323 117q69 0 117.5 61t48.5 128q0 61 -34 95.5t-91 34.5q-70 0 -118 -60.5t-48 -127.5q0 -61 34.5 -96t90.5 -35z" />
    <glyph glyph-name="OE" unicode="&#x152;" horiz-adv-x="1129" 
d="M949 0h-509q-191 0 -290 99q-74 74 -74 208q0 167 119 286q135 135 381 135h526q28 0 48.5 -20t20.5 -49q0 -28 -20 -48t-49 -20h-324l-42 -157h241q29 0 49 -20t20 -48t-20 -47.5t-49 -19.5h-278l-44 -162h294q29 0 49 -20.5t20 -48.5t-20 -48t-49 -20zM452 139h51
l121 450h-66q-156 0 -248 -90q-74 -76 -74 -186q0 -75 44 -119q55 -55 172 -55z" />
    <glyph glyph-name="oe" unicode="&#x153;" horiz-adv-x="1080" 
d="M762 110q49 0 91 24q26 14 46 14q24 0 40.5 -16.5t16.5 -41.5q0 -32 -29 -51q-76 -51 -182 -51q-151 0 -207 105q-87 -105 -222 -105q-121 0 -194 72t-73 184q0 128 94 225t227 97q155 0 216 -113q89 113 232 113q105 0 165.5 -60.5t60.5 -155.5q0 -31 -6 -58
q-15 -67 -73 -67h-333v-2q4 -53 36 -83t94 -30zM645 321h251q5 17 5 36q0 39 -23.5 63t-71.5 24q-55 0 -97.5 -33.5t-63.5 -89.5zM322 117q72 0 119.5 58t47.5 129q0 59 -34 95.5t-90 36.5q-72 0 -119.5 -57.5t-47.5 -129.5q0 -59 34.5 -95.5t89.5 -36.5z" />
    <glyph glyph-name="Racute" unicode="&#x154;" horiz-adv-x="765" 
d="M672 874l-83 -61q-44 -33 -89 -33q-42 0 -42 28q0 14 13 28l80 88q31 33 57 33q30 0 58 -15t28 -34q0 -18 -22 -34zM236 237l-44 -166q-10 -36 -33 -56.5t-53 -20.5q-39 0 -56.5 27t-5.5 73l150 557q9 36 32 56.5t53 20.5h200q157 0 229 -72q56 -56 56 -145
q0 -105 -67 -172q-58 -58 -162 -85l92 -141q17 -25 17 -49q0 -33 -23 -51.5t-52 -18.5q-58 0 -89 51l-118 192h-126zM273 373h147q104 0 152 48q31 33 31 77q0 37 -23 60q-33 31 -109 31h-140z" />
    <glyph glyph-name="racute" unicode="&#x155;" horiz-adv-x="444" 
d="M500 707l-83 -61q-44 -33 -89 -33q-42 0 -42 28q0 14 13 28l80 88q31 33 57 33q30 0 58 -15t28 -34q0 -17 -22 -34zM280 471l-5 -19q59 110 135 110q30 0 47.5 -18t17.5 -50q0 -59 -67 -78q-77 -21 -125.5 -72.5t-73.5 -144.5l-36 -128q-10 -37 -32.5 -57t-52.5 -20
q-38 0 -55.5 26.5t-4.5 72.5l105 392q10 37 32.5 57t52.5 20q37 0 54.5 -25t7.5 -66z" />
    <glyph glyph-name="Rcommaaccent" unicode="&#x156;" horiz-adv-x="765" 
d="M236 237l-44 -166q-10 -36 -33 -56.5t-53 -20.5q-39 0 -56.5 27t-5.5 73l150 557q9 36 32 56.5t53 20.5h200q157 0 229 -72q56 -56 56 -145q0 -105 -67 -172q-58 -58 -162 -85l92 -141q17 -25 17 -49q0 -33 -23 -51.5t-52 -18.5q-58 0 -89 51l-118 192h-126zM273 373h147
q104 0 152 48q31 33 31 77q0 37 -23 60q-33 31 -109 31h-140zM262 -174q-56 12 -56 52q0 30 22.5 50.5t55.5 20.5t51.5 -18.5t18.5 -52.5q0 -61 -50 -113q-61 -59 -133 -59q-28 0 -28 22q0 21 32 27q76 14 87 71z" />
    <glyph glyph-name="rcommaaccent" unicode="&#x157;" horiz-adv-x="444" 
d="M280 471l-5 -19q59 110 135 110q30 0 47.5 -18t17.5 -50q0 -59 -67 -78q-77 -21 -125.5 -72.5t-73.5 -144.5l-36 -128q-10 -37 -32.5 -57t-52.5 -20q-38 0 -55.5 26.5t-4.5 72.5l105 392q10 37 32.5 57t52.5 20q37 0 54.5 -25t7.5 -66zM38 -179q-56 12 -56 52
q0 30 22.5 50.5t55.5 20.5t51.5 -18.5t18.5 -52.5q0 -61 -50 -113q-61 -59 -133 -59q-28 0 -28 22q0 21 32 27q76 14 87 71z" />
    <glyph glyph-name="Rcaron" unicode="&#x158;" horiz-adv-x="765" 
d="M403 819l-40 78q-13 23 -13 32q0 24 34 24q31 0 49.5 -5.5t38.5 -27.5l38 -42l61 42q48 33 95 33q32 0 32 -23q0 -15 -17 -32l-86 -83q-34 -34 -79 -34h-43q-51 0 -70 38zM236 237l-44 -166q-10 -36 -33 -56.5t-53 -20.5q-39 0 -56.5 27t-5.5 73l150 557q9 36 32 56.5
t53 20.5h200q157 0 229 -72q56 -56 56 -145q0 -105 -67 -172q-58 -58 -162 -85l92 -141q17 -25 17 -49q0 -33 -23 -51.5t-52 -18.5q-58 0 -89 51l-118 192h-126zM273 373h147q104 0 152 48q31 33 31 77q0 37 -23 60q-33 31 -109 31h-140z" />
    <glyph glyph-name="rcaron" unicode="&#x159;" horiz-adv-x="444" 
d="M231 652l-40 78q-13 23 -13 32q0 24 34 24q31 0 49.5 -5.5t38.5 -27.5l38 -42l61 42q48 33 95 33q32 0 32 -23q0 -15 -17 -32l-86 -83q-34 -34 -79 -34h-43q-51 0 -70 38zM280 471l-5 -19q59 110 135 110q30 0 47.5 -18t17.5 -50q0 -59 -67 -78q-77 -21 -125.5 -72.5
t-73.5 -144.5l-36 -128q-10 -37 -32.5 -57t-52.5 -20q-38 0 -55.5 26.5t-4.5 72.5l105 392q10 37 32.5 57t52.5 20q37 0 54.5 -25t7.5 -66z" />
    <glyph glyph-name="Sacute" unicode="&#x15a;" horiz-adv-x="672" 
d="M641 884l-83 -61q-44 -33 -89 -33q-42 0 -42 28q0 14 13 28l80 88q31 33 57 33q30 0 58 -15t28 -34q0 -18 -22 -34zM319 125q51 0 84 22t33 58q0 28 -26 48.5t-99 50.5q-87 35 -134 79.5t-47 117.5q0 107 83 172t204 65q129 0 223 -66q35 -26 35 -64q0 -31 -21.5 -52.5
t-53.5 -21.5q-27 0 -43 13q-71 56 -152 56q-51 0 -81 -23.5t-30 -54.5q0 -29 26 -48t104 -51q86 -35 131 -79t45 -117q0 -109 -84 -174.5t-204 -65.5q-172 0 -270 85q-30 26 -30 64q0 33 21.5 55.5t53.5 22.5q26 0 50 -20q46 -40 86.5 -56t95.5 -16z" />
    <glyph glyph-name="sacute" unicode="&#x15b;" 
d="M527 707l-83 -61q-44 -33 -89 -33q-42 0 -42 28q0 14 13 28l80 88q31 33 57 33q30 0 58 -15t28 -34q0 -17 -22 -34zM242 104q33 0 52 14t19 38q0 27 -68 55q-40 17 -63.5 29.5t-49 32t-37 44t-11.5 56.5q0 84 60.5 138.5t161.5 54.5q94 0 177 -50q35 -20 35 -56
q0 -27 -18.5 -46t-44.5 -19q-17 0 -40 15q-62 40 -120 40q-31 0 -48.5 -13.5t-17.5 -36.5q0 -16 18 -29.5t58 -31.5q35 -16 56.5 -27.5t47 -30.5t37.5 -43.5t12 -55.5q0 -89 -63.5 -141.5t-163.5 -52.5q-121 0 -214 70q-27 20 -27 52q0 26 18 45t43 19q22 0 40 -14
q71 -56 151 -56z" />
    <glyph glyph-name="Scedilla" unicode="&#x15e;" horiz-adv-x="672" 
d="M175 -172q-22 0 -45 16t-23 35q0 17 15 33l84 88q-100 20 -164 75q-30 26 -30 64q0 33 21.5 55.5t53.5 22.5q26 0 50 -20q46 -40 86.5 -56t95.5 -16q51 0 84 22t33 58q0 28 -26 48.5t-99 50.5q-87 35 -134 79.5t-47 117.5q0 107 83 172t204 65q129 0 223 -66
q35 -26 35 -64q0 -31 -21.5 -52.5t-53.5 -21.5q-27 0 -43 13q-71 56 -152 56q-51 0 -81 -23.5t-30 -54.5q0 -29 26 -48t104 -51q86 -35 131 -79t45 -117q0 -109 -83.5 -174.5t-201.5 -65.5l-88 -130q-21 -32 -52 -32z" />
    <glyph glyph-name="scedilla" unicode="&#x15f;" 
d="M106 -172q-22 0 -45 16t-23 35q0 17 15 33l85 88q-65 17 -121 58q-27 20 -27 52q0 26 18 45t43 19q22 0 40 -14q71 -56 151 -56q33 0 52 14t19 38q0 27 -68 55q-40 17 -63.5 29.5t-49 32t-37 44t-11.5 56.5q0 84 60.5 138.5t161.5 54.5q94 0 177 -50q35 -20 35 -56
q0 -27 -18.5 -46t-44.5 -19q-17 0 -40 15q-62 40 -120 40q-31 0 -48.5 -13.5t-17.5 -36.5q0 -16 18 -29.5t58 -31.5q35 -16 56.5 -27.5t47 -30.5t37.5 -43.5t12 -55.5q0 -86 -59 -138t-154 -56l-87 -128q-21 -32 -52 -32z" />
    <glyph glyph-name="Scaron" unicode="&#x160;" horiz-adv-x="672" 
d="M372 829l-40 78q-13 23 -13 32q0 24 34 24q31 0 49.5 -5.5t38.5 -27.5l38 -42l61 42q48 33 95 33q32 0 32 -23q0 -15 -17 -32l-86 -83q-34 -34 -79 -34h-43q-51 0 -70 38zM319 125q51 0 84 22t33 58q0 28 -26 48.5t-99 50.5q-87 35 -134 79.5t-47 117.5q0 107 83 172
t204 65q129 0 223 -66q35 -26 35 -64q0 -31 -21.5 -52.5t-53.5 -21.5q-27 0 -43 13q-71 56 -152 56q-51 0 -81 -23.5t-30 -54.5q0 -29 26 -48t104 -51q86 -35 131 -79t45 -117q0 -109 -84 -174.5t-204 -65.5q-172 0 -270 85q-30 26 -30 64q0 33 21.5 55.5t53.5 22.5
q26 0 50 -20q46 -40 86.5 -56t95.5 -16z" />
    <glyph glyph-name="scaron" unicode="&#x161;" 
d="M259 652l-40 78q-13 23 -13 32q0 24 34 24q31 0 49.5 -5.5t38.5 -27.5l38 -42l61 42q48 33 95 33q32 0 32 -23q0 -15 -17 -32l-86 -83q-34 -34 -79 -34h-43q-51 0 -70 38zM242 104q33 0 52 14t19 38q0 27 -68 55q-40 17 -63.5 29.5t-49 32t-37 44t-11.5 56.5
q0 84 60.5 138.5t161.5 54.5q94 0 177 -50q35 -20 35 -56q0 -27 -18.5 -46t-44.5 -19q-17 0 -40 15q-62 40 -120 40q-31 0 -48.5 -13.5t-17.5 -36.5q0 -16 18 -29.5t58 -31.5q35 -16 56.5 -27.5t47 -30.5t37.5 -43.5t12 -55.5q0 -89 -63.5 -141.5t-163.5 -52.5
q-121 0 -214 70q-27 20 -27 52q0 26 18 45t43 19q22 0 40 -14q71 -56 151 -56z" />
    <glyph glyph-name="Tcommaaccent" unicode="&#x162;" horiz-adv-x="654" 
d="M485 586l-139 -515q-10 -36 -33 -56.5t-53 -20.5q-39 0 -56.5 27t-5.5 73l133 492h-139q-29 0 -50 21t-21 50t21 50t50 21h470q29 0 50 -21t21 -50t-21 -50t-50 -21h-177zM216 -179q-56 12 -56 52q0 30 22.5 50.5t55.5 20.5t51.5 -18.5t18.5 -52.5q0 -61 -50 -113
q-61 -59 -133 -59q-28 0 -28 22q0 21 32 27q76 14 87 71z" />
    <glyph glyph-name="Tcommaaccent" unicode="&#x21a;" horiz-adv-x="654" 
d="M485 586l-139 -515q-10 -36 -33 -56.5t-53 -20.5q-39 0 -56.5 27t-5.5 73l133 492h-139q-29 0 -50 21t-21 50t21 50t50 21h470q29 0 50 -21t21 -50t-21 -50t-50 -21h-177zM216 -179q-56 12 -56 52q0 30 22.5 50.5t55.5 20.5t51.5 -18.5t18.5 -52.5q0 -61 -50 -113
q-61 -59 -133 -59q-28 0 -28 22q0 21 32 27q76 14 87 71z" />
    <glyph glyph-name="tcommaaccent" unicode="&#x163;" horiz-adv-x="440" 
d="M178 556l20 73q10 37 32.5 57t52.5 20q39 0 56.5 -26.5t4.5 -72.5l-14 -51h59q26 0 44.5 -18.5t18.5 -46.5t-18.5 -46.5t-44.5 -18.5h-94l-64 -240q-5 -23 -5 -26q0 -36 43 -36q3 0 8 0.5t6 0.5q24 0 39.5 -15t15.5 -42q0 -45 -40 -62q-35 -15 -90 -15q-70 0 -107 30
t-37 79q0 28 10 68l69 258h-3q-22 3 -39 20t-17 45t18.5 46.5t44.5 18.5h31zM137 -179q-56 12 -56 52q0 30 22.5 50.5t55.5 20.5t51.5 -18.5t18.5 -52.5q0 -61 -50 -113q-61 -59 -133 -59q-28 0 -28 22q0 21 32 27q76 14 87 71z" />
    <glyph glyph-name="tcommaaccent" unicode="&#x21b;" horiz-adv-x="440" 
d="M178 556l20 73q10 37 32.5 57t52.5 20q39 0 56.5 -26.5t4.5 -72.5l-14 -51h59q26 0 44.5 -18.5t18.5 -46.5t-18.5 -46.5t-44.5 -18.5h-94l-64 -240q-5 -23 -5 -26q0 -36 43 -36q3 0 8 0.5t6 0.5q24 0 39.5 -15t15.5 -42q0 -45 -40 -62q-35 -15 -90 -15q-70 0 -107 30
t-37 79q0 28 10 68l69 258h-3q-22 3 -39 20t-17 45t18.5 46.5t44.5 18.5h31zM137 -179q-56 12 -56 52q0 30 22.5 50.5t55.5 20.5t51.5 -18.5t18.5 -52.5q0 -61 -50 -113q-61 -59 -133 -59q-28 0 -28 22q0 21 32 27q76 14 87 71z" />
    <glyph glyph-name="Tcaron" unicode="&#x164;" horiz-adv-x="654" 
d="M377 819l-40 78q-13 23 -13 32q0 24 34 24q31 0 49.5 -5.5t38.5 -27.5l38 -42l61 42q48 33 95 33q32 0 32 -23q0 -15 -17 -32l-86 -83q-34 -34 -79 -34h-43q-51 0 -70 38zM485 586l-139 -515q-10 -36 -33 -56.5t-53 -20.5q-39 0 -56.5 27t-5.5 73l133 492h-139
q-29 0 -50 21t-21 50t21 50t50 21h470q29 0 50 -21t21 -50t-21 -50t-50 -21h-177z" />
    <glyph glyph-name="tcaron" unicode="&#x165;" horiz-adv-x="440" 
d="M413 647l37 135q12 47 61 47h24q29 0 29 -23q0 -13 -12 -35l-75 -134q-15 -28 -40 -28q-26 0 -26 23q0 7 2 15zM178 556l20 73q10 37 32.5 57t52.5 20q39 0 56.5 -26.5t4.5 -72.5l-14 -51h59q26 0 44.5 -18.5t18.5 -46.5t-18.5 -46.5t-44.5 -18.5h-94l-64 -240
q-5 -23 -5 -26q0 -36 43 -36q3 0 8 0.5t6 0.5q24 0 39.5 -15t15.5 -42q0 -45 -40 -62q-35 -15 -90 -15q-70 0 -107 30t-37 79q0 28 10 68l69 258h-3q-22 3 -39 20t-17 45t18.5 46.5t44.5 18.5h31z" />
    <glyph glyph-name="Umacron" unicode="&#x16a;" horiz-adv-x="804" 
d="M685 792h-277q-22 0 -37.5 15.5t-15.5 37.5t15.5 37.5t37.5 15.5h277q22 0 37.5 -15.5t15.5 -37.5t-15.5 -37.5t-37.5 -15.5zM812 634l-92 -340q-38 -142 -112 -216q-89 -89 -246 -89q-127 0 -199.5 65t-72.5 179q0 51 18 116l82 308q10 36 33 56.5t53 20.5
q39 0 56.5 -27t5.5 -73l-81 -300q-11 -46 -11 -79q0 -57 34.5 -91t97.5 -34q74 0 122 48q50 50 73 139l91 340q10 36 33 56.5t53 20.5q39 0 56.5 -27t5.5 -73z" />
    <glyph glyph-name="umacron" unicode="&#x16b;" horiz-adv-x="656" 
d="M569 625h-277q-22 0 -37.5 15.5t-15.5 37.5t15.5 37.5t37.5 15.5h277q22 0 37.5 -15.5t15.5 -37.5t-15.5 -37.5t-37.5 -15.5zM435 -6q-32 0 -50 17.5t-17 44.5l1 5q-80 -72 -155 -72t-120 44t-45 119q0 36 18 104l61 229q10 37 32.5 57t52.5 20q39 0 56.5 -27t4.5 -73
l-57 -212q-7 -28 -7 -51q0 -34 21 -53t59 -19q47 0 79.5 31.5t47.5 85.5l65 241q10 37 32.5 57t52.5 20q38 0 55.5 -27t5.5 -73l-105 -391q-10 -37 -33 -57t-55 -20z" />
    <glyph glyph-name="Ubreve" unicode="&#x16c;" horiz-adv-x="804" 
d="M549 784q-72 0 -118.5 38t-46.5 84q0 21 15 34t38 13q35 0 48 -27q23 -42 76 -42q43 0 81 42q24 27 53 27q21 0 33 -11.5t12 -31.5q0 -19 -14 -36q-70 -90 -177 -90zM812 634l-92 -340q-38 -142 -112 -216q-89 -89 -246 -89q-127 0 -199.5 65t-72.5 179q0 51 18 116
l82 308q10 36 33 56.5t53 20.5q39 0 56.5 -27t5.5 -73l-81 -300q-11 -46 -11 -79q0 -57 34.5 -91t97.5 -34q74 0 122 48q50 50 73 139l91 340q10 36 33 56.5t53 20.5q39 0 56.5 -27t5.5 -73z" />
    <glyph glyph-name="ubreve" unicode="&#x16d;" horiz-adv-x="656" 
d="M433 617q-72 0 -118.5 38t-46.5 84q0 21 15 34t38 13q35 0 48 -27q23 -42 76 -42q43 0 81 42q24 27 53 27q21 0 33 -11.5t12 -31.5q0 -19 -14 -36q-70 -90 -177 -90zM435 -6q-32 0 -50 17.5t-17 44.5l1 5q-80 -72 -155 -72t-120 44t-45 119q0 36 18 104l61 229
q10 37 32.5 57t52.5 20q39 0 56.5 -27t4.5 -73l-57 -212q-7 -28 -7 -51q0 -34 21 -53t59 -19q47 0 79.5 31.5t47.5 85.5l65 241q10 37 32.5 57t52.5 20q38 0 55.5 -27t5.5 -73l-105 -391q-10 -37 -33 -57t-55 -20z" />
    <glyph glyph-name="Uring" unicode="&#x16e;" horiz-adv-x="804" 
d="M548 779q-51 0 -82 30.5t-31 76.5q0 56 40.5 96.5t97.5 40.5q51 0 82 -30.5t31 -76.5q0 -56 -40.5 -96.5t-97.5 -40.5zM550 835q31 0 51 24t20 56q0 22 -13.5 37t-36.5 15q-31 0 -51 -24t-20 -56q0 -23 13.5 -37.5t36.5 -14.5zM812 634l-92 -340q-38 -142 -112 -216
q-89 -89 -246 -89q-127 0 -199.5 65t-72.5 179q0 51 18 116l82 308q10 36 33 56.5t53 20.5q39 0 56.5 -27t5.5 -73l-81 -300q-11 -46 -11 -79q0 -57 34.5 -91t97.5 -34q74 0 122 48q50 50 73 139l91 340q10 36 33 56.5t53 20.5q39 0 56.5 -27t5.5 -73z" />
    <glyph glyph-name="uring" unicode="&#x16f;" horiz-adv-x="656" 
d="M434 617q-51 0 -82 30.5t-31 76.5q0 56 40.5 96.5t97.5 40.5q51 0 82 -30.5t31 -76.5q0 -56 -40.5 -96.5t-97.5 -40.5zM436 673q31 0 51 24t20 56q0 22 -13.5 37t-36.5 15q-31 0 -51 -24t-20 -56q0 -23 13.5 -37.5t36.5 -14.5zM435 -6q-32 0 -50 17.5t-17 44.5l1 5
q-80 -72 -155 -72t-120 44t-45 119q0 36 18 104l61 229q10 37 32.5 57t52.5 20q39 0 56.5 -27t4.5 -73l-57 -212q-7 -28 -7 -51q0 -34 21 -53t59 -19q47 0 79.5 31.5t47.5 85.5l65 241q10 37 32.5 57t52.5 20q38 0 55.5 -27t5.5 -73l-105 -391q-10 -37 -33 -57t-55 -20z" />
    <glyph glyph-name="Uhungarumlaut" unicode="&#x170;" horiz-adv-x="804" 
d="M734 957q28 0 49.5 -15t21.5 -34q0 -18 -22 -34l-83 -61q-44 -33 -81 -33q-36 0 -36 28q0 14 13 28l80 88q31 33 58 33zM533 957q28 0 49.5 -15t21.5 -34q0 -18 -22 -34l-83 -61q-44 -33 -81 -33q-36 0 -36 28q0 14 13 28l80 88q31 33 58 33zM812 634l-92 -340
q-38 -142 -112 -216q-89 -89 -246 -89q-127 0 -199.5 65t-72.5 179q0 51 18 116l82 308q10 36 33 56.5t53 20.5q39 0 56.5 -27t5.5 -73l-81 -300q-11 -46 -11 -79q0 -57 34.5 -91t97.5 -34q74 0 122 48q50 50 73 139l91 340q10 36 33 56.5t53 20.5q39 0 56.5 -27t5.5 -73z
" />
    <glyph glyph-name="uhungarumlaut" unicode="&#x171;" horiz-adv-x="656" 
d="M618 790q28 0 49.5 -15t21.5 -34q0 -17 -22 -34l-83 -61q-44 -33 -81 -33q-36 0 -36 28q0 14 13 28l80 88q31 33 58 33zM417 790q28 0 49.5 -15t21.5 -34q0 -17 -22 -34l-83 -61q-44 -33 -81 -33q-36 0 -36 28q0 14 13 28l80 88q31 33 58 33zM435 -6q-32 0 -50 17.5
t-17 44.5l1 5q-80 -72 -155 -72t-120 44t-45 119q0 36 18 104l61 229q10 37 32.5 57t52.5 20q39 0 56.5 -27t4.5 -73l-57 -212q-7 -28 -7 -51q0 -34 21 -53t59 -19q47 0 79.5 31.5t47.5 85.5l65 241q10 37 32.5 57t52.5 20q38 0 55.5 -27t5.5 -73l-105 -391q-10 -37 -33 -57
t-55 -20z" />
    <glyph glyph-name="Uogonek" unicode="&#x172;" horiz-adv-x="804" 
d="M332 -174q-51 0 -80.5 18t-29.5 51q0 45 63 101q-93 18 -144 79.5t-51 157.5q0 51 18 116l82 308q10 36 33 56.5t53 20.5q39 0 56.5 -27t5.5 -73l-81 -300q-11 -46 -11 -79q0 -57 34.5 -91t97.5 -34q74 0 122 48q50 50 73 139l91 340q10 36 33 56.5t53 20.5
q39 0 56.5 -27t5.5 -73l-92 -340q-38 -142 -112 -216q-85 -85 -230 -89q-37 -38 -37 -62q0 -11 7.5 -16.5t25.5 -11.5t25.5 -13.5t6.5 -21.5q-2 -38 -74 -38z" />
    <glyph glyph-name="uogonek" unicode="&#x173;" horiz-adv-x="656" 
d="M628 462l-105 -391q-9 -34 -36 -61q-58 -57 -58 -83q0 -11 7.5 -16.5t25.5 -11.5t25.5 -13.5t6.5 -21.5q-2 -38 -73 -38q-51 0 -80.5 18t-29.5 51q0 51 78 115q-21 16 -21 46l1 5q-80 -72 -155 -72t-120 44t-45 119q0 36 18 104l61 229q10 37 32.5 57t52.5 20
q39 0 56.5 -27t4.5 -73l-57 -212q-7 -28 -7 -51q0 -34 21 -53t59 -19q47 0 79.5 31.5t47.5 85.5l65 241q10 37 32.5 57t52.5 20q38 0 55.5 -27t5.5 -73z" />
    <glyph glyph-name="Wcircumflex" unicode="&#x174;" horiz-adv-x="1160" 
d="M829 914l40 -78q13 -23 13 -32q0 -24 -34 -24q-31 0 -49.5 5.5t-38.5 27.5l-38 42l-61 -42q-48 -33 -95 -33q-32 0 -32 23q0 15 17 32l86 83q34 34 78 34h44q49 0 70 -38zM1201 630l-363 -579q-38 -62 -103 -62h-7q-67 0 -71 68l-31 415l-257 -421q-38 -62 -100 -62h-7
q-66 0 -72 68l-50 570q-2 22 -2 36q0 30 22.5 50.5t57.5 20.5q34 0 54.5 -17t21.5 -47l28 -444l267 449q36 61 89 61h9q65 0 70 -61l29 -449l274 457q31 51 82 51q32 0 52 -17t20 -46q0 -19 -13 -41z" />
    <glyph glyph-name="wcircumflex" unicode="&#x175;" horiz-adv-x="901" 
d="M661 747l40 -78q13 -23 13 -32q0 -24 -34 -24q-31 0 -49.5 5.5t-38.5 27.5l-38 42l-61 -42q-48 -33 -95 -33q-32 0 -32 23q0 15 17 32l86 83q34 34 78 34h44q49 0 70 -38zM117 58l-24 397q-3 33 -3 36q0 29 24 50t54 21q33 0 54 -17t22 -47l9 -288l169 292q35 61 89 61h8
q30 0 48.5 -16t19.5 -45l13 -293l177 308q26 45 71 45q29 0 45 -15t16 -42q0 -21 -12 -41l-248 -412q-37 -62 -98 -62h-5q-66 0 -69 68l-15 287l-173 -293q-36 -62 -98 -62h-5q-66 0 -69 68z" />
    <glyph glyph-name="Ycircumflex" unicode="&#x176;" horiz-adv-x="687" 
d="M591 914l40 -78q13 -23 13 -32q0 -24 -34 -24q-31 0 -49.5 5.5t-38.5 27.5l-38 42l-61 -42q-48 -33 -95 -33q-32 0 -32 23q0 15 17 32l86 83q34 34 78 34h44q49 0 70 -38zM411 267l-54 -196q-9 -36 -32 -56.5t-53 -20.5q-39 0 -56.5 27t-5.5 73l50 188l-134 321
q-15 36 -15 58q0 31 23.5 52t59.5 21q53 0 75 -60l97 -257l251 274q41 44 82 44q30 0 47 -17t17 -46q0 -33 -26 -61z" />
    <glyph glyph-name="ycircumflex" unicode="&#x177;" horiz-adv-x="624" 
d="M515 747l40 -78q13 -23 13 -32q0 -24 -34 -24q-31 0 -49.5 5.5t-38.5 27.5l-38 42l-61 -42q-48 -33 -95 -33q-32 0 -32 23q0 15 17 32l86 83q34 34 78 34h44q49 0 70 -38zM63 -33q36 -9 48 -9q33 0 61 39l-68 458q-3 17 -3 36q0 30 21.5 50.5t53.5 20.5q31 0 52 -17.5
t22 -47.5l36 -329l202 346q26 48 77 48q30 0 48 -16t18 -43q0 -20 -20 -52l-293 -465q-54 -85 -105.5 -120.5t-119.5 -35.5q-49 0 -76 13q-46 20 -46 66q0 27 18 46.5t42 19.5q10 0 32 -8z" />
    <glyph glyph-name="Ydieresis" unicode="&#x178;" horiz-adv-x="687" 
d="M671 852q-7 -33 -32 -52.5t-59 -19.5q-36 0 -55 20.5t-12 51.5l2 6q7 32 32 51.5t59 19.5q33 0 53 -21t14 -50zM452 852q-7 -33 -32 -52.5t-60 -19.5t-54 20.5t-12 51.5l2 6q7 32 32 51.5t59 19.5q33 0 52.5 -21t13.5 -50zM411 267l-54 -196q-9 -36 -32 -56.5t-53 -20.5
q-39 0 -56.5 27t-5.5 73l50 188l-134 321q-15 36 -15 58q0 31 23.5 52t59.5 21q53 0 75 -60l97 -257l251 274q41 44 82 44q30 0 47 -17t17 -46q0 -33 -26 -61z" />
    <glyph glyph-name="Zacute" unicode="&#x179;" horiz-adv-x="725" 
d="M670 874l-83 -61q-44 -33 -89 -33q-42 0 -42 28q0 14 13 28l80 88q31 33 57 33q30 0 58 -15t28 -34q0 -18 -22 -34zM40 138l497 455h-301q-28 0 -48 19.5t-20 47.5t20 48t48 20h466q31 0 49 -16t18 -44v-2q0 -36 -42 -76l-497 -455h317q28 0 48 -20t20 -48t-20 -47.5
t-48 -19.5h-483q-31 0 -48.5 16t-17.5 44v2q0 37 42 76z" />
    <glyph glyph-name="zacute" unicode="&#x17a;" horiz-adv-x="589" 
d="M553 707l-83 -61q-44 -33 -89 -33q-42 0 -42 28q0 14 13 28l80 88q31 33 57 33q30 0 58 -15t28 -34q0 -17 -22 -34zM175 556h351q31 0 49 -15t18 -41v-1q0 -36 -36 -68l-353 -308h217q25 0 43.5 -18.5t18.5 -43.5t-18 -43t-44 -18h-362q-32 0 -50 15t-18 41v1q0 36 37 68
l351 308h-204q-26 0 -44 18t-18 43q0 26 18.5 44t43.5 18z" />
    <glyph glyph-name="Zdotaccent" unicode="&#x17b;" horiz-adv-x="725" 
d="M584 852q-7 -33 -32.5 -52.5t-60.5 -19.5q-36 0 -56 20.5t-13 51.5l2 6q7 32 33 51.5t60 19.5q33 0 54 -21t14 -50zM40 138l497 455h-301q-28 0 -48 19.5t-20 47.5t20 48t48 20h466q31 0 49 -16t18 -44v-2q0 -36 -42 -76l-497 -455h317q28 0 48 -20t20 -48t-20 -47.5
t-48 -19.5h-483q-31 0 -48.5 16t-17.5 44v2q0 37 42 76z" />
    <glyph glyph-name="zdotaccent" unicode="&#x17c;" horiz-adv-x="589" 
d="M468 685q-7 -33 -32.5 -52.5t-60.5 -19.5q-36 0 -56 20.5t-13 51.5l2 6q7 32 33 51.5t60 19.5q33 0 54 -21t14 -50zM175 556h351q31 0 49 -15t18 -41v-1q0 -36 -36 -68l-353 -308h217q25 0 43.5 -18.5t18.5 -43.5t-18 -43t-44 -18h-362q-32 0 -50 15t-18 41v1q0 36 37 68
l351 308h-204q-26 0 -44 18t-18 43q0 26 18.5 44t43.5 18z" />
    <glyph glyph-name="Zcaron" unicode="&#x17d;" horiz-adv-x="725" 
d="M402 819l-40 78q-13 23 -13 32q0 24 34 24q31 0 49.5 -5.5t38.5 -27.5l38 -42l61 42q48 33 95 33q32 0 32 -23q0 -15 -17 -32l-86 -83q-34 -34 -79 -34h-43q-51 0 -70 38zM40 138l497 455h-301q-28 0 -48 19.5t-20 47.5t20 48t48 20h466q31 0 49 -16t18 -44v-2
q0 -36 -42 -76l-497 -455h317q28 0 48 -20t20 -48t-20 -47.5t-48 -19.5h-483q-31 0 -48.5 16t-17.5 44v2q0 37 42 76z" />
    <glyph glyph-name="zcaron" unicode="&#x17e;" horiz-adv-x="589" 
d="M286 652l-40 78q-13 23 -13 32q0 24 34 24q31 0 49.5 -5.5t38.5 -27.5l38 -42l61 42q48 33 95 33q32 0 32 -23q0 -15 -17 -32l-86 -83q-34 -34 -79 -34h-43q-51 0 -70 38zM175 556h351q31 0 49 -15t18 -41v-1q0 -36 -36 -68l-353 -308h217q25 0 43.5 -18.5t18.5 -43.5
t-18 -43t-44 -18h-362q-32 0 -50 15t-18 41v1q0 36 37 68l351 308h-204q-26 0 -44 18t-18 43q0 26 18.5 44t43.5 18z" />
    <glyph glyph-name="florin" unicode="&#x192;" horiz-adv-x="574" 
d="M67 -12q-35 0 -58.5 16.5t-23.5 48.5q0 30 21 45t48 16q53 2 83 69l79 177h-7q-24 0 -41.5 18t-17.5 44t18.5 44.5t44.5 18.5h59l40 93q35 78 93.5 119.5t131.5 41.5q31 0 53 -5q51 -12 51 -60q0 -31 -20.5 -48.5t-45.5 -15.5q-9 1 -34 1q-65 0 -100 -77l-22 -49h52
q26 0 44.5 -18.5t18.5 -44.5t-18.5 -44t-44.5 -18h-108l-98 -223q-66 -149 -198 -149z" />
    <glyph glyph-name="Aringacute" unicode="&#x1fa;" horiz-adv-x="804" 
d="M765 1043l-83 -61q-44 -33 -89 -33q-42 0 -42 28q0 14 13 28l80 88q31 33 57 33q30 0 58 -15t28 -34q0 -17 -22 -34zM55 -6q-29 0 -46 16.5t-17 43.5t18 51l438 613q-29 27 -29 75q0 56 40.5 96.5t97.5 40.5q51 0 82 -30.5t31 -76.5q0 -75 -63 -114l108 -601q5 -35 5 -40
q0 -31 -22.5 -52.5t-56.5 -21.5q-31 0 -51 17t-24 44l-17 111h-329l-87 -124q-34 -48 -78 -48zM535 742q30 0 50.5 24.5t20.5 55.5q0 23 -13.5 37.5t-37.5 14.5q-31 0 -51 -24t-20 -56q0 -22 14 -37t37 -15zM314 302h212l-40 251z" />
    <glyph glyph-name="aringacute" unicode="&#x1fb;" horiz-adv-x="620" 
d="M633 981l-83 -61q-44 -33 -89 -33q-42 0 -42 28q0 14 13 28l80 88q31 33 57 33q30 0 58 -15t28 -34q0 -17 -22 -34zM413 617q-51 0 -82 30.5t-31 76.5q0 56 40.5 96.5t97.5 40.5q51 0 82 -30.5t31 -76.5q0 -56 -40.5 -96.5t-97.5 -40.5zM415 673q31 0 51 24t20 56
q0 22 -13.5 37t-36.5 15q-31 0 -51 -24t-20 -56q0 -23 13.5 -37.5t36.5 -14.5zM240 94q50 0 91 33.5t56 82.5l4 17q-56 20 -110 20q-52 0 -84.5 -25t-32.5 -66q0 -27 21 -44.5t55 -17.5zM409 -6q-70 0 -65 68l1 4q-72 -77 -169 -77q-72 0 -117.5 42t-45.5 108
q0 93 67.5 146.5t172.5 53.5q82 0 160 -25l3 8q6 26 6 42q0 69 -109 69q-53 0 -99 -13q-18 -4 -25 -4q-26 0 -43 17.5t-17 43.5q0 45 46 59q80 26 170 26q111 0 167.5 -44t56.5 -127q0 -37 -12 -83l-63 -237q-10 -37 -32.5 -57t-52.5 -20z" />
    <glyph glyph-name="AEacute" unicode="&#x1fc;" horiz-adv-x="1111" 
d="M945 874l-83 -61q-44 -33 -89 -33q-42 0 -42 28q0 14 13 28l80 88q31 33 57 33q30 0 58 -15t28 -34q0 -18 -22 -34zM352 302h178l78 293h-20zM591 728h493q28 0 48.5 -20t20.5 -49q0 -28 -20 -48t-49 -20h-324l-42 -157h240q29 0 49 -20t20 -48t-20 -47.5t-49 -19.5h-277
l-44 -162h294q29 0 49 -20.5t20 -48.5t-20 -48t-49 -20h-395q-39 0 -56.5 27t-5.5 72l19 67h-250l-102 -128q-36 -44 -75 -44q-27 0 -43 15.5t-16 39.5q0 30 23 59l458 564q47 56 103 56z" />
    <glyph glyph-name="aeacute" unicode="&#x1fd;" horiz-adv-x="989" 
d="M758 707l-83 -61q-44 -33 -89 -33q-42 0 -42 28q0 14 13 28l80 88q31 33 57 33q30 0 58 -15t28 -34q0 -17 -22 -34zM554 321h251q5 17 5 36q0 39 -23.5 63t-71.5 24q-55 0 -98 -33.5t-63 -89.5zM953 350q0 -31 -6 -58q-15 -67 -73 -67h-333v-2q4 -53 36 -83t94 -30
q49 0 91 24q26 14 46 14q24 0 40.5 -16.5t16.5 -41.5q0 -32 -29 -51q-76 -51 -182 -51q-150 0 -212 108q-104 -107 -251 -107q-84 0 -131 41t-47 109q0 94 67.5 147t173.5 53q81 0 159 -25l3 8q6 26 6 42q0 69 -109 69q-53 0 -99 -13q-18 -4 -25 -4q-26 0 -43 17.5t-17 43.5
q0 45 46 59q80 26 170 26q139 0 184 -85q86 89 203 89q102 0 161.5 -60.5t59.5 -155.5zM282 247q-52 0 -85 -25t-33 -66q0 -28 22 -45t64 -17q40 0 85.5 19.5t80.5 54.5q-4 22 -6 48v3q-66 28 -128 28z" />
    <glyph glyph-name="Oslashacute" unicode="&#x1fe;" horiz-adv-x="876" 
d="M767 884l-83 -61q-44 -33 -89 -33q-42 0 -42 28q0 14 13 28l80 88q31 33 57 33q30 0 58 -15t28 -34q0 -18 -22 -34zM184 64l-64 -54q-25 -21 -47 -21q-21 0 -33.5 12t-12.5 31q0 23 31 50l64 55q-46 75 -46 172q0 82 32.5 159.5t88.5 138t139 97t177 36.5q139 0 230 -83
l73 61q25 21 48 21q21 0 33 -12t12 -31q0 -23 -31 -50l-74 -64q41 -74 41 -163q0 -110 -54 -208t-156 -161t-227 -63q-131 0 -224 77zM230 319q0 -45 15 -83l384 323q-52 47 -133 47q-111 0 -188.5 -91.5t-77.5 -195.5zM426 122q111 0 188 91.5t77 195.5q0 39 -12 72
l-380 -320q48 -39 127 -39z" />
    <glyph glyph-name="oslashacute" unicode="&#x1ff;" horiz-adv-x="687" 
d="M615 707l-83 -61q-44 -33 -89 -33q-42 0 -42 28q0 14 13 28l80 88q31 33 57 33q30 0 58 -15t28 -34q0 -17 -22 -34zM151 35l-27 -25q-23 -21 -48 -21q-20 0 -32.5 11.5t-12.5 29.5q0 23 24 45l31 28q-37 62 -37 141q0 127 95 224.5t227 97.5q94 0 158 -44l26 24
q25 21 48 21q20 0 32.5 -11.5t12.5 -29.5q0 -23 -24 -45l-28 -25q42 -64 42 -146q0 -127 -95 -224.5t-227 -97.5q-98 0 -165 47zM193 248q0 -15 4 -43l234 221q-26 15 -67 15q-71 0 -121 -61.5t-50 -131.5zM323 113q70 0 120.5 61t50.5 132q0 21 -7 49l-237 -225
q29 -17 73 -17z" />
    <glyph glyph-name="Scommaaccent" unicode="&#x218;" horiz-adv-x="672" 
d="M319 125q51 0 84 22t33 58q0 28 -26 48.5t-99 50.5q-87 35 -134 79.5t-47 117.5q0 107 83 172t204 65q129 0 223 -66q35 -26 35 -64q0 -31 -21.5 -52.5t-53.5 -21.5q-27 0 -43 13q-71 56 -152 56q-51 0 -81 -23.5t-30 -54.5q0 -29 26 -48t104 -51q86 -35 131 -79t45 -117
q0 -109 -84 -174.5t-204 -65.5q-172 0 -270 85q-30 26 -30 64q0 33 21.5 55.5t53.5 22.5q26 0 50 -20q46 -40 86.5 -56t95.5 -16zM213 -184q-56 12 -56 52q0 30 22.5 50.5t55.5 20.5t51.5 -18.5t18.5 -52.5q0 -61 -50 -113q-61 -59 -133 -59q-28 0 -28 22q0 21 32 27
q76 14 87 71z" />
    <glyph glyph-name="scommaaccent" unicode="&#x219;" 
d="M242 104q33 0 52 14t19 38q0 27 -68 55q-40 17 -63.5 29.5t-49 32t-37 44t-11.5 56.5q0 84 60.5 138.5t161.5 54.5q94 0 177 -50q35 -20 35 -56q0 -27 -18.5 -46t-44.5 -19q-17 0 -40 15q-62 40 -120 40q-31 0 -48.5 -13.5t-17.5 -36.5q0 -16 18 -29.5t58 -31.5
q35 -16 56.5 -27.5t47 -30.5t37.5 -43.5t12 -55.5q0 -89 -63.5 -141.5t-163.5 -52.5q-121 0 -214 70q-27 20 -27 52q0 26 18 45t43 19q22 0 40 -14q71 -56 151 -56zM139 -179q-56 12 -56 52q0 30 22.5 50.5t55.5 20.5t51.5 -18.5t18.5 -52.5q0 -61 -50 -113
q-61 -59 -133 -59q-28 0 -28 22q0 21 32 27q76 14 87 71z" />
    <glyph glyph-name="schwa" unicode="&#x259;" horiz-adv-x="640" 
d="M319 446q-50 0 -92 -24q-26 -14 -46 -14q-24 0 -40.5 16.5t-16.5 41.5q0 32 29 51q76 51 182 51q119 0 188 -65.5t69 -180.5q0 -61 -24 -120t-66 -106.5t-105 -77t-135 -29.5q-105 0 -165.5 61t-60.5 156q0 30 6 58q15 67 74 67h332v2q-3 53 -35.5 83t-93.5 30zM435 235
h-251q-5 -17 -5 -37q0 -38 23.5 -62t71.5 -24q55 0 98 33.5t63 89.5z" />
    <glyph glyph-name="circumflex" unicode="&#x2c6;" 
d="M489 747l40 -78q13 -23 13 -32q0 -24 -34 -24q-31 0 -49.5 5.5t-38.5 27.5l-38 42l-61 -42q-48 -33 -95 -33q-32 0 -32 23q0 15 17 32l86 83q34 34 78 34h44q49 0 70 -38z" />
    <glyph glyph-name="caron" unicode="&#x2c7;" 
d="M264 652l-40 78q-13 23 -13 32q0 24 34 24q31 0 49.5 -5.5t38.5 -27.5l38 -42l61 42q48 33 95 33q32 0 32 -23q0 -15 -17 -32l-86 -83q-34 -34 -79 -34h-43q-51 0 -70 38z" />
    <glyph glyph-name="breve" unicode="&#x2d8;" 
d="M377 617q-72 0 -118.5 38t-46.5 84q0 21 15 34t38 13q35 0 48 -27q23 -42 76 -42q43 0 81 42q24 27 53 27q21 0 33 -11.5t12 -31.5q0 -19 -14 -36q-70 -90 -177 -90z" />
    <glyph glyph-name="dotaccent" unicode="&#x2d9;" 
d="M456 685q-7 -33 -32.5 -52.5t-60.5 -19.5q-36 0 -56 20.5t-13 51.5l2 6q7 32 33 51.5t60 19.5q33 0 54 -21t14 -50z" />
    <glyph glyph-name="ring" unicode="&#x2da;" 
d="M376 617q-51 0 -82 30.5t-31 76.5q0 56 40.5 96.5t97.5 40.5q51 0 82 -30.5t31 -76.5q0 -56 -40.5 -96.5t-97.5 -40.5zM378 673q31 0 51 24t20 56q0 22 -13.5 37t-36.5 15q-31 0 -51 -24t-20 -56q0 -23 13.5 -37.5t36.5 -14.5z" />
    <glyph glyph-name="ogonek" unicode="&#x2db;" 
d="M203 -174q-51 0 -80.5 18t-29.5 51q0 48 80 116l97 -1q-58 -57 -58 -83q0 -11 7.5 -16.5t25.5 -11.5t25.5 -13.5t6.5 -21.5q-2 -38 -74 -38z" />
    <glyph glyph-name="tilde" unicode="&#x2dc;" 
d="M205 616q-18 0 -30 11.5t-12 28.5q0 15 8 29q58 103 139 103q41 0 82 -31q35 -27 54 -27q29 0 56 34q21 24 46 24q18 0 30 -11.5t12 -28.5q0 -16 -8 -30q-59 -103 -139 -103q-40 0 -81 31q-36 27 -55 27q-29 0 -56 -34q-20 -23 -46 -23z" />
    <glyph glyph-name="hungarumlaut" unicode="&#x2dd;" 
d="M520 790q28 0 49.5 -15t21.5 -34q0 -17 -22 -34l-83 -61q-44 -33 -81 -33q-36 0 -36 28q0 14 13 28l80 88q31 33 58 33zM319 790q28 0 49.5 -15t21.5 -34q0 -17 -22 -34l-83 -61q-44 -33 -81 -33q-36 0 -36 28q0 14 13 28l80 88q31 33 58 33z" />
    <glyph glyph-name="commaaccent" unicode="&#x326;" 
d="M141 -179q-56 12 -56 52q0 30 22.5 50.5t55.5 20.5t51.5 -18.5t18.5 -52.5q0 -61 -50 -113q-61 -59 -133 -59q-28 0 -28 22q0 21 32 27q76 14 87 71z" />
    <glyph glyph-name="Wgrave" unicode="&#x1e80;" horiz-adv-x="1160" 
d="M623 813l-49 61q-14 21 -14 33q0 18 28 34t57 16q40 0 53 -37l32 -86q4 -12 4 -21q0 -33 -48 -33q-22 0 -34.5 6.5t-28.5 26.5zM1201 630l-363 -579q-38 -62 -103 -62h-7q-67 0 -71 68l-31 415l-257 -421q-38 -62 -100 -62h-7q-66 0 -72 68l-50 570q-2 22 -2 36
q0 30 22.5 50.5t57.5 20.5q34 0 54.5 -17t21.5 -47l28 -444l267 449q36 61 89 61h9q65 0 70 -61l29 -449l274 457q31 51 82 51q32 0 52 -17t20 -46q0 -19 -13 -41z" />
    <glyph glyph-name="wgrave" unicode="&#x1e81;" horiz-adv-x="901" 
d="M453 646l-49 61q-14 21 -14 33q0 18 28 34t57 16q40 0 53 -37l32 -86q4 -12 4 -21q0 -33 -48 -33q-22 0 -34.5 6.5t-28.5 26.5zM117 58l-24 397q-3 33 -3 36q0 29 24 50t54 21q33 0 54 -17t22 -47l9 -288l169 292q35 61 89 61h8q30 0 48.5 -16t19.5 -45l13 -293l177 308
q26 45 71 45q29 0 45 -15t16 -42q0 -21 -12 -41l-248 -412q-37 -62 -98 -62h-5q-66 0 -69 68l-15 287l-173 -293q-36 -62 -98 -62h-5q-66 0 -69 68z" />
    <glyph glyph-name="Wacute" unicode="&#x1e82;" horiz-adv-x="1160" 
d="M888 874l-83 -61q-44 -33 -89 -33q-42 0 -42 28q0 14 13 28l80 88q31 33 57 33q30 0 58 -15t28 -34q0 -18 -22 -34zM1201 630l-363 -579q-38 -62 -103 -62h-7q-67 0 -71 68l-31 415l-257 -421q-38 -62 -100 -62h-7q-66 0 -72 68l-50 570q-2 22 -2 36q0 30 22.5 50.5
t57.5 20.5q34 0 54.5 -17t21.5 -47l28 -444l267 449q36 61 89 61h9q65 0 70 -61l29 -449l274 457q31 51 82 51q32 0 52 -17t20 -46q0 -19 -13 -41z" />
    <glyph glyph-name="wacute" unicode="&#x1e83;" horiz-adv-x="901" 
d="M718 707l-83 -61q-44 -33 -89 -33q-42 0 -42 28q0 14 13 28l80 88q31 33 57 33q30 0 58 -15t28 -34q0 -17 -22 -34zM117 58l-24 397q-3 33 -3 36q0 29 24 50t54 21q33 0 54 -17t22 -47l9 -288l169 292q35 61 89 61h8q30 0 48.5 -16t19.5 -45l13 -293l177 308q26 45 71 45
q29 0 45 -15t16 -42q0 -21 -12 -41l-248 -412q-37 -62 -98 -62h-5q-66 0 -69 68l-15 287l-173 -293q-36 -62 -98 -62h-5q-66 0 -69 68z" />
    <glyph glyph-name="Wdieresis" unicode="&#x1e84;" horiz-adv-x="1160" 
d="M909 852q-7 -33 -32 -52.5t-59 -19.5q-36 0 -55 20.5t-12 51.5l2 6q7 32 32 51.5t59 19.5q33 0 53 -21t14 -50zM690 852q-7 -33 -32 -52.5t-60 -19.5t-54 20.5t-12 51.5l2 6q7 32 32 51.5t59 19.5q33 0 52.5 -21t13.5 -50zM1201 630l-363 -579q-38 -62 -103 -62h-7
q-67 0 -71 68l-31 415l-257 -421q-38 -62 -100 -62h-7q-66 0 -72 68l-50 570q-2 22 -2 36q0 30 22.5 50.5t57.5 20.5q34 0 54.5 -17t21.5 -47l28 -444l267 449q36 61 89 61h9q65 0 70 -61l29 -449l274 457q31 51 82 51q32 0 52 -17t20 -46q0 -19 -13 -41z" />
    <glyph glyph-name="wdieresis" unicode="&#x1e85;" horiz-adv-x="901" 
d="M741 685q-7 -33 -32 -52.5t-59 -19.5q-36 0 -55 20.5t-12 51.5l2 6q7 32 32 51.5t59 19.5q33 0 53 -21t14 -50zM522 685q-7 -33 -32 -52.5t-60 -19.5t-54 20.5t-12 51.5l2 6q7 32 32 51.5t59 19.5q33 0 52.5 -21t13.5 -50zM117 58l-24 397q-3 33 -3 36q0 29 24 50t54 21
q33 0 54 -17t22 -47l9 -288l169 292q35 61 89 61h8q30 0 48.5 -16t19.5 -45l13 -293l177 308q26 45 71 45q29 0 45 -15t16 -42q0 -21 -12 -41l-248 -412q-37 -62 -98 -62h-5q-66 0 -69 68l-15 287l-173 -293q-36 -62 -98 -62h-5q-66 0 -69 68z" />
    <glyph glyph-name="Ygrave" unicode="&#x1ef2;" horiz-adv-x="687" 
d="M384 813l-49 61q-14 21 -14 33q0 18 28 34t57 16q40 0 53 -37l32 -86q4 -12 4 -21q0 -33 -48 -33q-22 0 -34.5 6.5t-28.5 26.5zM411 267l-54 -196q-9 -36 -32 -56.5t-53 -20.5q-39 0 -56.5 27t-5.5 73l50 188l-134 321q-15 36 -15 58q0 31 23.5 52t59.5 21q53 0 75 -60
l97 -257l251 274q41 44 82 44q30 0 47 -17t17 -46q0 -33 -26 -61z" />
    <glyph glyph-name="ygrave" unicode="&#x1ef3;" horiz-adv-x="624" 
d="M309 646l-49 61q-14 21 -14 33q0 18 28 34t57 16q40 0 53 -37l32 -86q4 -12 4 -21q0 -33 -48 -33q-22 0 -34.5 6.5t-28.5 26.5zM63 -33q36 -9 48 -9q33 0 61 39l-68 458q-3 17 -3 36q0 30 21.5 50.5t53.5 20.5q31 0 52 -17.5t22 -47.5l36 -329l202 346q26 48 77 48
q30 0 48 -16t18 -43q0 -20 -20 -52l-293 -465q-54 -85 -105.5 -120.5t-119.5 -35.5q-49 0 -76 13q-46 20 -46 66q0 27 18 46.5t42 19.5q10 0 32 -8z" />
    <glyph glyph-name="enspace" unicode="&#x2002;" horiz-adv-x="500" 
 />
    <glyph glyph-name="emspace" unicode="&#x2003;" horiz-adv-x="1000" 
 />
    <glyph glyph-name="threeperemspace" unicode="&#x2004;" horiz-adv-x="333" 
 />
    <glyph glyph-name="fourperemspace" unicode="&#x2005;" horiz-adv-x="250" 
 />
    <glyph glyph-name="thinspace" unicode="&#x2009;" horiz-adv-x="133" 
 />
    <glyph glyph-name="hairspace" unicode="&#x200a;" horiz-adv-x="75" 
 />
    <glyph glyph-name="endash" unicode="&#x2013;" horiz-adv-x="562" 
d="M139 251q-30 0 -51 20.5t-21 50.5t21 50.5t51 20.5h308q30 0 51.5 -20.5t21.5 -50.5t-21.5 -50.5t-51.5 -20.5h-308z" />
    <glyph glyph-name="emdash" unicode="&#x2014;" horiz-adv-x="947" 
d="M139 251q-30 0 -51 20.5t-21 50.5t21 50.5t51 20.5h693q30 0 51.5 -20.5t21.5 -50.5t-21.5 -50.5t-51.5 -20.5h-693z" />
    <glyph glyph-name="quoteleft" unicode="&#x2018;" horiz-adv-x="336" 
d="M352 666q-98 -22 -106 -97q60 -16 48 -80l-2 -7q-8 -36 -33 -58.5t-60 -22.5q-44 0 -63 29.5t-8 82.5l2 8q20 100 95 162q59 49 125 51q37 0 37 -33q0 -27 -35 -35z" />
    <glyph glyph-name="quoteright" unicode="&#x2019;" horiz-adv-x="336" 
d="M117 469q97 21 106 97q-60 16 -48 80l1 7q8 36 33 58.5t60 22.5q44 0 63.5 -29.5t8.5 -81.5l-2 -8q-20 -101 -96 -162q-58 -50 -125 -52q-36 0 -36 33q0 27 35 35z" />
    <glyph glyph-name="quotesinglbase" unicode="&#x201a;" horiz-adv-x="336" 
d="M-28 -97q98 22 106 97q-60 16 -48 80l1 7q8 36 33 58.5t61 22.5q44 0 62.5 -30t8.5 -82l-2 -7q-20 -99 -95 -163q-61 -49 -126 -51q-36 0 -36 33q0 27 35 35z" />
    <glyph glyph-name="quotedblleft" unicode="&#x201c;" horiz-adv-x="596" 
d="M201 400q-44 0 -63 29.5t-8 82.5l2 8q20 100 95 162q59 49 125 51q37 0 37 -33q0 -27 -35 -35q-98 -22 -106 -97q60 -16 48 -80l-2 -7q-8 -36 -33 -58.5t-60 -22.5zM461 400q-44 0 -63 29.5t-8 82.5l1 8q22 101 96 162q59 49 125 51q36 0 36 -33q0 -27 -35 -35
q-97 -21 -106 -97q60 -16 48 -80l-1 -7q-8 -36 -33 -58.5t-60 -22.5z" />
    <glyph glyph-name="quotedblright" unicode="&#x201d;" horiz-adv-x="596" 
d="M376 469q98 22 106 97q-60 16 -48 80l2 7q8 36 33 58.5t60 22.5q44 0 63 -29.5t8 -81.5l-2 -8q-20 -100 -95 -162q-58 -50 -125 -52q-37 0 -37 33q0 27 35 35zM117 469q97 21 106 97q-60 16 -48 80l1 7q8 36 33 58.5t60 22.5q44 0 63.5 -29.5t8.5 -81.5l-2 -8
q-21 -101 -96 -162q-58 -50 -125 -52q-36 0 -36 33q0 27 35 35z" />
    <glyph glyph-name="quotedblbase" unicode="&#x201e;" horiz-adv-x="596" 
d="M231 -97q98 21 106 97q-60 17 -48 80l2 7q8 36 33 58.5t60 22.5q44 0 63 -29.5t8 -82.5l-1 -7q-21 -100 -96 -163q-59 -49 -125 -51q-36 0 -36 33q0 27 34 35zM-28 -97q98 22 106 97q-60 16 -48 80l1 7q8 36 33 58.5t61 22.5q44 0 62.5 -30t8.5 -82l-2 -7
q-20 -99 -95 -163q-61 -49 -126 -51q-36 0 -36 33q0 27 35 35z" />
    <glyph glyph-name="dagger" unicode="&#x2020;" horiz-adv-x="438" 
d="M365 675l-29 -82l79 6q18 1 30.5 -10t12.5 -28q0 -18 -12.5 -29.5t-31.5 -10.5l-97 8l-57 -246q-10 -42 -45 -42q-21 0 -30.5 14.5t-2.5 38.5l71 235l-79 -6q-19 -1 -31 10.5t-12 29.5q0 17 12 28t30 10l96 -8l16 96q7 45 48 45q24 0 33 -15.5t-1 -43.5z" />
    <glyph glyph-name="daggerdbl" unicode="&#x2021;" horiz-adv-x="440" 
d="M284 364l-54 -165l78 6q19 1 31 -10.5t12 -29.5q0 -17 -12 -28t-30 -10l-95 8l-17 -96q-7 -45 -48 -45q-24 0 -33 15.5t1 43.5l30 82l-80 -6q-18 -1 -30.5 10t-12.5 28q0 18 12.5 29.5t31.5 10.5l95 -8l36 165l53 165l-77 -6q-19 -1 -31.5 10.5t-12.5 29.5q0 17 12.5 28
t30.5 10l95 -8l17 96q8 45 47 45q25 0 34 -15.5t-1 -43.5l-30 -82l80 6q18 1 30 -10t12 -28q0 -18 -12 -29.5t-31 -10.5l-96 8z" />
    <glyph glyph-name="bullet" unicode="&#x2022;" horiz-adv-x="528" 
d="M260 209q-56 0 -88 33t-32 88q0 74 50 134.5t123 60.5q56 0 88 -32.5t32 -87.5q0 -75 -49.5 -135.5t-123.5 -60.5z" />
    <glyph glyph-name="ellipsis" unicode="&#x2026;" horiz-adv-x="905" 
d="M775 75q-6 -36 -33.5 -58.5t-65.5 -22.5q-39 0 -60.5 23t-14.5 58l1 8q7 37 34 59t65 22q39 0 60 -23t15 -58zM488 75q-6 -36 -33.5 -58.5t-65.5 -22.5q-39 0 -60 23t-15 58l1 8q7 37 34 59t65 22q39 0 60 -23t15 -58zM201 75q-6 -36 -33.5 -58.5t-65.5 -22.5
q-39 0 -60 23t-15 58l1 8q8 37 34.5 59t64.5 22q39 0 60.5 -23t15.5 -58z" />
    <glyph glyph-name="perthousand" unicode="&#x2030;" horiz-adv-x="1344" 
d="M252 360q-72 0 -115.5 44t-43.5 115q0 85 57 151t144 66q72 0 116 -44t44 -115q0 -85 -57.5 -151t-144.5 -66zM825 651l-613 -638q-19 -19 -42 -19q-20 0 -33 12.5t-13 31.5q0 20 17 39l614 638q19 19 42 19q20 0 33 -12.5t13 -31.5q0 -21 -18 -39zM258 448
q42 0 69.5 39.5t27.5 85.5q0 35 -18 55.5t-49 20.5q-41 0 -68.5 -40t-27.5 -85q0 -35 17.5 -55.5t48.5 -20.5zM1095 -8q-72 0 -115.5 44t-43.5 115q0 85 57 151t144 66q72 0 116 -44t44 -115q0 -85 -57.5 -151t-144.5 -66zM672 -8q-72 0 -115.5 44t-43.5 115q0 85 57.5 151
t144.5 66q72 0 115.5 -44t43.5 -115q0 -85 -57.5 -151t-144.5 -66zM1101 79q42 0 69.5 40t27.5 86q0 34 -18 54.5t-49 20.5q-41 0 -68.5 -39.5t-27.5 -85.5q0 -35 17.5 -55.5t48.5 -20.5zM678 79q42 0 69.5 40t27.5 86q0 34 -18 54.5t-48 20.5q-42 0 -69.5 -39.5
t-27.5 -85.5q0 -35 18 -55.5t48 -20.5z" />
    <glyph glyph-name="guilsinglleft" unicode="&#x2039;" horiz-adv-x="394" 
d="M80 298l177 175q32 30 58 30t41.5 -15t15.5 -40q0 -28 -21 -47l-154 -146l64 -122q10 -20 10 -39q0 -26 -18.5 -43.5t-45.5 -17.5q-41 0 -59 37l-72 143q-16 32 -16 44q0 23 20 41z" />
    <glyph glyph-name="guilsinglright" unicode="&#x203a;" horiz-adv-x="394" 
d="M311 248l-177 -175q-32 -30 -58 -30t-41.5 15t-15.5 40q0 28 21 47l154 146l-64 122q-10 20 -10 39q0 26 18.5 43.5t45.5 17.5q40 0 59 -37l72 -143q16 -32 16 -44q0 -23 -20 -41z" />
    <glyph glyph-name="fraction" unicode="&#x2044;" horiz-adv-x="553" 
d="M643 690l-616 -759q-31 -39 -62 -39q-20 0 -33.5 12.5t-13.5 36.5t26 55l617 759q31 39 61 39q20 0 33.5 -12.5t13.5 -36.5q0 -27 -26 -55z" />
    <glyph glyph-name="Euro" unicode="&#x20ac;" horiz-adv-x="757" 
d="M352 505h149q22 0 37 -15t15 -36t-15 -36t-37 -15h-187q-11 -29 -18 -74h159q21 0 36 -15t15 -36t-15 -36t-36 -15h-160q10 -49 43 -75t80 -26q71 0 127 52q21 19 48 19q31 0 52 -19t21 -48q0 -32 -29 -57q-100 -85 -222 -85q-117 0 -192 64.5t-89 174.5h-45
q-21 0 -36 15t-15 36t15 36t36 15h47q4 33 14 74h-14q-21 0 -36 15t-15 36t15 36t36 15h45q47 107 135.5 171t204.5 64q157 0 231 -108q21 -31 21 -55q0 -32 -22 -52.5t-56 -20.5q-37 0 -58 30q-16 23 -27 35t-36.5 22.5t-61.5 10.5q-101 0 -160 -97z" />
    <glyph glyph-name="published" unicode="&#x2117;" horiz-adv-x="873" 
d="M458 -12q-157 0 -266.5 109.5t-109.5 264.5v2q0 155 110.5 265.5t267.5 110.5t266 -109.5t109 -264.5v-2q0 -155 -110 -265.5t-267 -110.5zM458 28q141 0 237.5 98.5t96.5 237.5v2q0 140 -95.5 237t-236.5 97q-142 0 -238.5 -98.5t-96.5 -237.5v-2q0 -140 95.5 -237
t237.5 -97zM321 209v318q0 18 12.5 30.5t31.5 12.5h120q71 0 112 -37.5t41 -99.5v-2q0 -66 -46 -102t-116 -36h-68v-84q0 -19 -12.5 -31.5t-30.5 -12.5q-19 0 -31.5 12.5t-12.5 31.5zM408 369h70q33 0 52.5 17t19.5 44v2q0 30 -20 46t-54 16h-68v-125z" />
    <glyph glyph-name="servicemark" unicode="&#x2120;" horiz-adv-x="741" 
d="M752 732h6q17 0 24.5 -12.5t1.5 -33.5l-67 -248q-9 -34 -37 -34q-18 0 -25.5 11.5t-1.5 32.5l41 153l-85 -90q-16 -19 -36 -19q-22 0 -31 22l-34 88l-45 -164q-9 -34 -37 -34q-18 0 -25.5 11.5t-1.5 32.5l68 249q8 35 37 35h6q21 0 32 -27l52 -135l118 140q19 22 40 22z
M113 499q12 0 24 -10q38 -32 83 -32q25 0 40.5 11t15.5 29q0 14 -12 23.5t-47 23.5q-44 18 -63 37t-19 49q0 47 36 75.5t92 28.5q62 0 98 -30q16 -13 16 -28q0 -13 -8.5 -21.5t-21.5 -8.5q-12 0 -23 8q-29 24 -68 24q-25 0 -39.5 -10.5t-14.5 -26.5q0 -14 12 -24t50 -25
q42 -16 60 -34.5t18 -49.5q0 -49 -36.5 -77.5t-92.5 -28.5q-71 0 -119 40q-13 11 -13 26q0 13 9.5 22t22.5 9z" />
    <glyph glyph-name="trademark" unicode="&#x2122;" horiz-adv-x="737" 
d="M748 732h6q17 0 24 -12.5t2 -33.5l-67 -248q-9 -34 -37 -34q-18 0 -25.5 11.5t-1.5 32.5l41 153l-85 -90q-16 -19 -36 -19q-22 0 -31 22l-34 88l-45 -164q-9 -34 -37 -34q-18 0 -25.5 11.5t-1.5 32.5l68 249q8 35 37 35h6q19 0 32 -27l52 -135l117 140q20 22 41 22z
M290 665l-62 -229q-9 -34 -40 -34q-17 0 -25 12t-3 32l59 219h-61q-14 0 -23 9t-9 22q0 14 9 23t23 9h210q14 0 23 -9t9 -23q0 -13 -9 -22t-23 -9h-78z" />
    <glyph glyph-name="minus" unicode="&#x2212;" horiz-adv-x="674" 
d="M556 295h-394q-29 0 -49.5 20.5t-20.5 49.5t20.5 50t49.5 21h394q29 0 50 -21t21 -50t-21 -49.5t-50 -20.5z" />
    <glyph glyph-name="Q.alt" horiz-adv-x="876" 
d="M626 0l-23 33q-90 -46 -195 -46q-148 0 -240 91.5t-92 230.5q0 82 32.5 159.5t88.5 138t139 97t177 36.5q148 0 240 -91t92 -230q0 -174 -126 -302l17 -19q24 -28 24 -60q0 -30 -21 -50.5t-52 -20.5q-41 0 -61 33zM581 321l50 -78q54 77 54 166q0 85 -50 137.5t-139 52.5
q-111 0 -185.5 -88t-74.5 -192q0 -85 50 -137.5t140 -52.5q49 0 98 22l-49 63q-26 37 -26 62q0 31 22 53.5t53 22.5q38 0 57 -31z" />
    <glyph glyph-name="registered.alt" horiz-adv-x="873" 
d="M458 -12q-157 0 -266.5 109.5t-109.5 264.5v2q0 155 110.5 265.5t267.5 110.5t266 -109.5t109 -264.5v-2q0 -155 -110 -265.5t-267 -110.5zM458 28q141 0 237.5 98.5t96.5 237.5v2q0 140 -95.5 237t-236.5 97q-142 0 -238.5 -98.5t-96.5 -237.5v-2q0 -140 95.5 -237
t237.5 -97zM304 212v320q0 17 12.5 29.5t30.5 12.5h135q80 0 123 -43q33 -33 33 -86v-2q0 -88 -83 -121l68 -82q11 -14 11 -29q0 -18 -12 -30t-27 -12q-22 0 -37 19l-94 118h-74v-94q0 -18 -13 -30.5t-30 -12.5q-18 0 -30.5 12.5t-12.5 30.5zM390 380h90q34 0 52.5 16
t18.5 42v2q0 28 -19.5 43.5t-52.5 15.5h-89v-119z" />
    <glyph glyph-name="i.dot" horiz-adv-x="321" 
d="M356 686q-7 -32 -34 -50.5t-64 -18.5q-36 0 -57.5 20t-15.5 50l1 6q7 32 34 51t64 19q36 0 57.5 -20t15.5 -50zM286 462l-106 -391q-9 -36 -31.5 -56.5t-52.5 -20.5q-39 0 -56.5 26.5t-4.5 72.5l105 392q10 37 32.5 57t52.5 20q39 0 56.5 -27t4.5 -73z" />
    <glyph glyph-name="caron.alt" 
d="M299 578l37 135q12 47 61 47h24q29 0 29 -23q0 -13 -12 -35l-75 -134q-15 -28 -40 -28q-26 0 -26 23q0 7 2 15z" />
    <glyph glyph-name="acute.cap" 
d="M471 707l-83 -61q-44 -33 -89 -33q-42 0 -42 28q0 14 13 28l80 88q31 33 57 33q30 0 58 -15t28 -34q0 -17 -22 -34z" />
    <glyph glyph-name="hungarumlaut.cap" 
d="M520 790q28 0 49.5 -15t21.5 -34q0 -17 -22 -34l-83 -61q-44 -33 -81 -33q-36 0 -36 28q0 14 13 28l80 88q31 33 58 33zM319 790q28 0 49.5 -15t21.5 -34q0 -17 -22 -34l-83 -61q-44 -33 -81 -33q-36 0 -36 28q0 14 13 28l80 88q31 33 58 33z" />
    <glyph glyph-name="caron.alt.cap" 
d="M299 578l37 135q12 47 61 47h24q29 0 29 -23q0 -13 -12 -35l-75 -134q-15 -28 -40 -28q-26 0 -26 23q0 7 2 15z" />
    <glyph glyph-name="grave.cap" 
d="M345 646l-49 61q-14 21 -14 33q0 18 28 34t57 16q40 0 53 -37l32 -86q4 -12 4 -21q0 -33 -48 -33q-22 0 -34.5 6.5t-28.5 26.5z" />
    <glyph glyph-name="circumflex.cap" 
d="M489 747l40 -78q13 -23 13 -32q0 -24 -34 -24q-31 0 -49.5 5.5t-38.5 27.5l-38 42l-61 -42q-48 -33 -95 -33q-32 0 -32 23q0 15 17 32l86 83q34 34 78 34h44q49 0 70 -38z" />
    <glyph glyph-name="caron.cap" 
d="M264 652l-40 78q-13 23 -13 32q0 24 34 24q31 0 49.5 -5.5t38.5 -27.5l38 -42l61 42q48 33 95 33q32 0 32 -23q0 -15 -17 -32l-86 -83q-34 -34 -79 -34h-43q-51 0 -70 38z" />
    <glyph glyph-name="breve.cap" 
d="M377 617q-72 0 -118.5 38t-46.5 84q0 21 15 34t38 13q35 0 48 -27q23 -42 76 -42q43 0 81 42q24 27 53 27q21 0 33 -11.5t12 -31.5q0 -19 -14 -36q-70 -90 -177 -90z" />
    <glyph glyph-name="tilde.cap" 
d="M205 616q-18 0 -30 11.5t-12 28.5q0 15 8 29q58 103 139 103q41 0 82 -31q35 -27 54 -27q29 0 56 34q21 24 46 24q18 0 30 -11.5t12 -28.5q0 -16 -8 -30q-59 -103 -139 -103q-40 0 -81 31q-36 27 -55 27q-29 0 -56 -34q-20 -23 -46 -23z" />
    <glyph glyph-name="macron.cap" 
d="M511 625h-277q-22 0 -37.5 15.5t-15.5 37.5t15.5 37.5t37.5 15.5h277q22 0 37.5 -15.5t15.5 -37.5t-15.5 -37.5t-37.5 -15.5z" />
    <glyph glyph-name="dieresis.cap" 
d="M561 685q-7 -33 -32 -52.5t-59 -19.5q-36 0 -55 20.5t-12 51.5l2 6q7 32 32 51.5t59 19.5q33 0 53 -21t14 -50zM342 685q-7 -33 -32 -52.5t-60 -19.5t-54 20.5t-12 51.5l2 6q7 32 32 51.5t59 19.5q33 0 52.5 -21t13.5 -50z" />
    <glyph glyph-name="dotaccent.cap" 
d="M456 685q-7 -33 -32.5 -52.5t-60.5 -19.5q-36 0 -56 20.5t-13 51.5l2 6q7 32 33 51.5t60 19.5q33 0 54 -21t14 -50z" />
    <glyph glyph-name="ring.cap" 
d="M376 617q-51 0 -82 30.5t-31 76.5q0 56 40.5 96.5t97.5 40.5q51 0 82 -30.5t31 -76.5q0 -56 -40.5 -96.5t-97.5 -40.5zM378 673q31 0 51 24t20 56q0 22 -13.5 37t-36.5 15q-31 0 -51 -24t-20 -56q0 -23 13.5 -37.5t36.5 -14.5z" />
    <glyph glyph-name="commaaccent.cap" 
d="M141 -179q-56 12 -56 52q0 30 22.5 50.5t55.5 20.5t51.5 -18.5t18.5 -52.5q0 -61 -50 -113q-61 -59 -133 -59q-28 0 -28 22q0 21 32 27q76 14 87 71z" />
    <glyph glyph-name="cedilla.cap" 
d="M294 10l-102 -150q-21 -32 -52 -32q-22 0 -45 16t-23 35q0 17 15 33l94 98h113z" />
    <glyph glyph-name="ogonek.cap" 
d="M203 -174q-51 0 -80.5 18t-29.5 51q0 48 80 116l97 -1q-58 -57 -58 -83q0 -11 7.5 -16.5t25.5 -11.5t25.5 -13.5t6.5 -21.5q-2 -38 -74 -38z" />
    <glyph glyph-name="NUL" horiz-adv-x="0" 
 />
    <glyph glyph-name="aacute.alt" horiz-adv-x="710" 
d="M631 707l-83 -61q-44 -33 -89 -33q-42 0 -42 28q0 14 13 28l80 88q31 33 57 33q30 0 58 -15t28 -34q0 -17 -22 -34zM324 117q68 0 121 59.5t53 139.5q0 54 -34.5 88t-89.5 34q-68 0 -119 -58t-51 -142q0 -56 32.5 -88.5t87.5 -32.5zM532 471l4 14q9 34 30 55.5t53 21.5
q39 0 56.5 -27t4.5 -73l-104 -391q-10 -37 -33 -57t-55 -20t-49.5 17.5t-17.5 46.5l1 5q-77 -74 -160 -74q-94 0 -154.5 64.5t-60.5 174.5q0 144 93 241t215 97q117 0 177 -95z" />
    <glyph glyph-name="aringacute.alt2" horiz-adv-x="620" 
d="M608 869l-83 -61q-44 -33 -89 -33q-42 0 -42 28q0 14 13 28l80 88q31 33 57 33q30 0 58 -15t28 -34q0 -18 -22 -34zM391 560q30 0 50 24.5t20 56.5q0 23 -13.5 37.5t-36.5 14.5q-31 0 -51 -24.5t-20 -56.5q0 -22 14 -37t37 -15zM240 94q50 0 91 33.5t56 82.5l4 17
q-56 20 -110 20q-52 0 -84.5 -25t-32.5 -66q0 -27 21 -44.5t55 -17.5zM409 -6q-70 0 -65 68l1 4q-72 -77 -169 -77q-72 0 -117.5 42t-45.5 108q0 93 67.5 146.5t172.5 53.5q82 0 160 -25l3 8q6 26 6 42q0 69 -109 69q-53 0 -99 -13q-18 -4 -25 -4q-26 0 -43 17.5t-17 43.5
q0 45 46 59q50 17 114 23q-14 22 -14 52q0 56 40.5 96.5t97.5 40.5q51 0 82 -30.5t31 -75.5q0 -64 -51 -103q94 -40 94 -148q0 -37 -12 -83l-63 -237q-10 -37 -32.5 -57t-52.5 -20z" />
    <glyph glyph-name="aogonek.alt" horiz-adv-x="710" 
d="M532 471l4 14q9 34 30 55.5t53 21.5q39 0 56.5 -27t4.5 -73l-104 -391q-9 -34 -36 -61q-58 -57 -58 -83q0 -11 7.5 -16.5t25.5 -11.5t25.5 -13.5t6.5 -21.5q-2 -38 -74 -38q-51 0 -80.5 18t-29.5 51q0 51 79 115q-21 16 -21 48l1 5q-77 -74 -160 -74q-94 0 -154.5 64.5
t-60.5 174.5q0 144 93 241t215 97q117 0 177 -95zM324 117q68 0 121 59.5t53 139.5q0 54 -34.5 88t-89.5 34q-68 0 -119 -58t-51 -142q0 -56 32.5 -88.5t87.5 -32.5z" />
    <glyph glyph-name="acircumflex.alt" horiz-adv-x="710" 
d="M574 747l40 -78q13 -23 13 -32q0 -24 -34 -24q-31 0 -49.5 5.5t-38.5 27.5l-38 42l-61 -42q-48 -33 -95 -33q-32 0 -32 23q0 15 17 32l86 83q34 34 78 34h44q49 0 70 -38zM324 117q68 0 121 59.5t53 139.5q0 54 -34.5 88t-89.5 34q-68 0 -119 -58t-51 -142
q0 -56 32.5 -88.5t87.5 -32.5zM532 471l4 14q9 34 30 55.5t53 21.5q39 0 56.5 -27t4.5 -73l-104 -391q-10 -37 -33 -57t-55 -20t-49.5 17.5t-17.5 46.5l1 5q-77 -74 -160 -74q-94 0 -154.5 64.5t-60.5 174.5q0 144 93 241t215 97q117 0 177 -95z" />
    <glyph glyph-name="hcoslug" horiz-adv-x="694" 
d="M644 700v-800h-594v800h594zM247 428q0 13 7.5 21t19.5 8q13 0 21 -10.5t8 -27.5q0 -22 -18 -50q-15 14 -21 20.5t-11.5 17t-5.5 21.5zM312 342q30 20 42 34q29 -29 -1 -80q-33 38 -41 46zM261 219q-22 0 -37 15.5t-15 38.5q0 24 16 40q34 -32 74 -82q-15 -12 -38 -12z
M382 264q20 26 46 42q15 -25 43 -25q21 0 35.5 15.5t14.5 38.5t-14.5 37.5t-35.5 14.5q-35 0 -60 -38q-3 39 -49 37q9 15 9 34q0 29 -25.5 51.5t-69.5 22.5q-48 0 -78.5 -25.5t-30.5 -59.5q0 -37 31 -69q-82 -28 -82 -91q0 -39 32 -66t77 -27q63 0 104 45q44 -45 85 -45
q33 0 56 25.5t24 68.5l-7 2q-17 -29 -43 -29q-27 0 -62 41zM286 124l-12 -2v-9h-7v-7h7v-20q0 -13 12 -13q11 0 14 13l-5 2q-1 -7 -5 -7t-4 5v20h13v7h-13v11zM174 94q0 -21 21 -21q9 0 15 6t6 15q0 20 -21 20t-21 -20zM203 94q0 -16 -8 -16t-8 16q0 15 8 15t8 -15zM219 81
v-7h22v7h-4v15q0 10 7 10q6 0 6 -7v-18h-4v-7h22v7h-6v19q0 14 -12 14q-9 0 -14 -11v10h-17v-7h6v-25h-6zM379 93q0 -13 -7 -13q-8 0 -8 13t8 13q7 0 7 -13zM125 81v-7h30v7h-10v16h4q5 0 6 -8h7v23h-7q-1 -8 -6 -8h-4v18h12q9 0 11 -13h8v20h-51v-7h7v-41h-7zM302 88v-14h7
l1 4q7 -5 13 -5q14 0 14 13q0 9 -12 12t-12 6q0 4 5 4t10 -7h7v13h-6l-2 -5q-3 5 -11 5q-14 0 -14 -12q0 -9 12 -12.5t12 -6.5q0 -4 -5 -4q-6 0 -12 9h-7zM352 125v-52h6l4 8q5 -8 14 -8q16 0 16 21q0 20 -15 20q-10 0 -13 -9v27h-18v-7h6zM405 65q3 2 1.5 6t-6.5 4
q-7 0 -7 -7q0 -9 11 -9q12 0 18 16l13 31h5v7h-17v-7h5l-8 -20l-9 20h6v7h-25v-7h5q12 -23 16 -33q-2 -8 -8 -8zM294 39v3q0 12 6 12l3 -1q-1 -1 -1 -3q0 -6 6 -6v-5h-14zM464 33h-18v-7h6q-2 -5 -6 -9q-2 2 -5.5 6t-6.5 7q11 5 11 12q0 12 -14 12q-17 0 -17 -14q0 -6 6 -12
q-13 -4 -13 -15q0 -14 18 -14q9 0 15 6q5 -6 12 -6q10 0 13 12l-5 1q-1 -5 -4 -5t-6 5q6 8 9 14h5v7zM469 27q0 -28 29 -28q22 0 24 23h-8q-2 -16 -14 -16q-16 0 -16 22t14 22q10 0 15 -16h8v22h-8l-1 -6q-7 7 -16 7q-11 0 -19 -8.5t-8 -21.5zM431 33q-6 6 -6 10q0 5 5 5
q6 0 6 -6t-5 -9zM340 18h26q2 22 -19 22q-8 0 -14 -6t-6 -15q0 -20 21 -20q14 0 18 14h-7q-1 -7 -9 -7q-10 0 -10 12zM525 20q0 -21 21 -21q9 0 15 6t6 15q0 20 -21 20t-21 -20zM189 20q0 -21 21 -21q9 0 15 6t6 15q0 20 -21 20t-21 -20zM247 18h26q2 22 -19 22q-8 0 -14 -6
t-6 -15q0 -20 21 -20q15 0 18 14h-7q-1 -7 -9 -7q-10 0 -10 12zM340 23q0 12 7 12t7 -12h-14zM554 20q0 -16 -8 -16t-8 16q0 15 8 15t8 -15zM218 20q0 -16 -8 -16t-8 16q0 15 8 15t8 -15zM247 23q0 12 7 12t7 -12h-14zM368 7v-7h26v7h-8v16q4 9 7 9v-1q0 -6 6 -6q7 0 7 7
q0 8 -8 8t-12 -11v10h-18v-7h6v-25h-6zM276 7v-7h23v7h-5v25h14v-25h-5v-7h23v7h-6v52l-10 -2q-4 2 -9 2q-19 0 -19 -19v-1h-7v-7h7v-25h-6zM124 7v-7h29v7h-8v18h22v-18h-8v-7h29v7h-8v41h8v7h-29v-7h8v-16h-22v16h8v7h-29v-7h8v-41h-8zM437 9q-5 -3 -8 -3q-10 0 -10 10
q0 5 4 9q4 -4 14 -16zM583 6q0 7 -7 7t-7 -7t7 -7t7 7z" />
    <glyph glyph-name="atilde.alt" horiz-adv-x="710" 
d="M294 616q-18 0 -30 11.5t-12 28.5q0 15 8 29q58 103 139 103q41 0 82 -31q35 -27 54 -27q29 0 56 34q21 24 46 24q18 0 30 -11.5t12 -28.5q0 -16 -8 -30q-59 -103 -139 -103q-40 0 -81 31q-36 27 -55 27q-29 0 -56 -34q-20 -23 -46 -23zM324 117q68 0 121 59.5t53 139.5
q0 54 -34.5 88t-89.5 34q-68 0 -119 -58t-51 -142q0 -56 32.5 -88.5t87.5 -32.5zM532 471l4 14q9 34 30 55.5t53 21.5q39 0 56.5 -27t4.5 -73l-104 -391q-10 -37 -33 -57t-55 -20t-49.5 17.5t-17.5 46.5l1 5q-77 -74 -160 -74q-94 0 -154.5 64.5t-60.5 174.5q0 144 93 241
t215 97q117 0 177 -95z" />
    <glyph glyph-name="agrave.alt" horiz-adv-x="710" 
d="M366 646l-49 61q-14 21 -14 33q0 18 28 34t57 16q40 0 53 -37l32 -86q4 -12 4 -21q0 -33 -48 -33q-22 0 -34.5 6.5t-28.5 26.5zM324 117q68 0 121 59.5t53 139.5q0 54 -34.5 88t-89.5 34q-68 0 -119 -58t-51 -142q0 -56 32.5 -88.5t87.5 -32.5zM532 471l4 14
q9 34 30 55.5t53 21.5q39 0 56.5 -27t4.5 -73l-104 -391q-10 -37 -33 -57t-55 -20t-49.5 17.5t-17.5 46.5l1 5q-77 -74 -160 -74q-94 0 -154.5 64.5t-60.5 174.5q0 144 93 241t215 97q117 0 177 -95z" />
    <glyph glyph-name="three.alt" horiz-adv-x="655" 
d="M135 182q61 -57 147 -57q64 0 100.5 30t36.5 69q0 80 -120 80h-1q-30 0 -49 18t-19 45q0 26 19 45t45 19h41q62 0 103.5 25.5t41.5 71.5q0 33 -28.5 54t-71.5 21q-64 0 -124 -44q-26 -18 -50 -18q-29 0 -48 18t-19 45q0 31 23 49q56 46 103.5 64.5t132.5 22.5
q109 4 174.5 -51.5t65.5 -136.5q0 -140 -165 -187q43 -17 72 -55t29 -90q0 -100 -84 -166t-219 -66q-148 0 -235 84q-26 30 -26 58q0 30 21 51.5t51 21.5t53 -21z" />
    <glyph glyph-name="aringacute.alt" horiz-adv-x="710" 
d="M687 981l-83 -61q-44 -33 -89 -33q-42 0 -42 28q0 14 13 28l80 88q31 33 57 33q30 0 58 -15t28 -34q0 -17 -22 -34zM467 617q-51 0 -82 30.5t-31 76.5q0 56 40.5 96.5t97.5 40.5q51 0 82 -30.5t31 -76.5q0 -56 -40.5 -96.5t-97.5 -40.5zM469 673q31 0 51 24t20 56
q0 22 -13.5 37t-36.5 15q-31 0 -51 -24t-20 -56q0 -23 13.5 -37.5t36.5 -14.5zM324 117q68 0 121 59.5t53 139.5q0 54 -34.5 88t-89.5 34q-68 0 -119 -58t-51 -142q0 -56 32.5 -88.5t87.5 -32.5zM532 471l4 14q9 34 30 55.5t53 21.5q39 0 56.5 -27t4.5 -73l-104 -391
q-10 -37 -33 -57t-55 -20t-49.5 17.5t-17.5 46.5l1 5q-77 -74 -160 -74q-94 0 -154.5 64.5t-60.5 174.5q0 144 93 241t215 97q117 0 177 -95z" />
    <glyph glyph-name="adieresis.alt" horiz-adv-x="710" 
d="M653 685q-7 -33 -32 -52.5t-59 -19.5q-36 0 -55 20.5t-12 51.5l2 6q7 32 32 51.5t59 19.5q33 0 53 -21t14 -50zM434 685q-7 -33 -32 -52.5t-60 -19.5t-54 20.5t-12 51.5l2 6q7 32 32 51.5t59 19.5q33 0 52.5 -21t13.5 -50zM324 117q68 0 121 59.5t53 139.5q0 54 -34.5 88
t-89.5 34q-68 0 -119 -58t-51 -142q0 -56 32.5 -88.5t87.5 -32.5zM532 471l4 14q9 34 30 55.5t53 21.5q39 0 56.5 -27t4.5 -73l-104 -391q-10 -37 -33 -57t-55 -20t-49.5 17.5t-17.5 46.5l1 5q-77 -74 -160 -74q-94 0 -154.5 64.5t-60.5 174.5q0 144 93 241t215 97
q117 0 177 -95z" />
    <glyph glyph-name="a.alt" horiz-adv-x="710" 
d="M324 117q68 0 121 59.5t53 139.5q0 54 -34.5 88t-89.5 34q-68 0 -119 -58t-51 -142q0 -56 32.5 -88.5t87.5 -32.5zM532 471l4 14q9 34 30 55.5t53 21.5q39 0 56.5 -27t4.5 -73l-104 -391q-10 -37 -33 -57t-55 -20t-49.5 17.5t-17.5 46.5l1 5q-77 -74 -160 -74
q-94 0 -154.5 64.5t-60.5 174.5q0 144 93 241t215 97q117 0 177 -95z" />
    <glyph glyph-name="aring.alt2" horiz-adv-x="620" 
d="M391 560q30 0 50 24.5t20 56.5q0 23 -13.5 37.5t-36.5 14.5q-31 0 -51 -24.5t-20 -56.5q0 -22 14 -37t37 -15zM240 94q50 0 91 33.5t56 82.5l4 17q-56 20 -110 20q-52 0 -84.5 -25t-32.5 -66q0 -27 21 -44.5t55 -17.5zM409 -6q-70 0 -65 68l1 4q-72 -77 -169 -77
q-72 0 -117.5 42t-45.5 108q0 93 67.5 146.5t172.5 53.5q82 0 160 -25l3 8q6 26 6 42q0 69 -109 69q-53 0 -99 -13q-18 -4 -25 -4q-26 0 -43 17.5t-17 43.5q0 45 46 59q50 17 114 23q-14 22 -14 52q0 56 40.5 96.5t97.5 40.5q51 0 82 -30.5t31 -75.5q0 -64 -51 -103
q94 -40 94 -148q0 -37 -12 -83l-63 -237q-10 -37 -32.5 -57t-52.5 -20z" />
    <glyph glyph-name="aring.alt" horiz-adv-x="710" 
d="M467 617q-51 0 -82 30.5t-31 76.5q0 56 40.5 96.5t97.5 40.5q51 0 82 -30.5t31 -76.5q0 -56 -40.5 -96.5t-97.5 -40.5zM469 673q31 0 51 24t20 56q0 22 -13.5 37t-36.5 15q-31 0 -51 -24t-20 -56q0 -23 13.5 -37.5t36.5 -14.5zM324 117q68 0 121 59.5t53 139.5
q0 54 -34.5 88t-89.5 34q-68 0 -119 -58t-51 -142q0 -56 32.5 -88.5t87.5 -32.5zM532 471l4 14q9 34 30 55.5t53 21.5q39 0 56.5 -27t4.5 -73l-104 -391q-10 -37 -33 -57t-55 -20t-49.5 17.5t-17.5 46.5l1 5q-77 -74 -160 -74q-94 0 -154.5 64.5t-60.5 174.5q0 144 93 241
t215 97q117 0 177 -95z" />
    <glyph glyph-name="amacron.alt" horiz-adv-x="710" 
d="M602 625h-277q-22 0 -37.5 15.5t-15.5 37.5t15.5 37.5t37.5 15.5h277q22 0 37.5 -15.5t15.5 -37.5t-15.5 -37.5t-37.5 -15.5zM324 117q68 0 121 59.5t53 139.5q0 54 -34.5 88t-89.5 34q-68 0 -119 -58t-51 -142q0 -56 32.5 -88.5t87.5 -32.5zM532 471l4 14q9 34 30 55.5
t53 21.5q39 0 56.5 -27t4.5 -73l-104 -391q-10 -37 -33 -57t-55 -20t-49.5 17.5t-17.5 46.5l1 5q-77 -74 -160 -74q-94 0 -154.5 64.5t-60.5 174.5q0 144 93 241t215 97q117 0 177 -95z" />
    <glyph glyph-name="abreve.alt" horiz-adv-x="710" 
d="M464 617q-72 0 -118.5 38t-46.5 84q0 21 15 34t38 13q34 0 48 -27q23 -42 76 -42q43 0 81 42q24 27 53 27q21 0 33 -11.5t12 -31.5q0 -19 -14 -36q-70 -90 -177 -90zM324 117q68 0 121 59.5t53 139.5q0 54 -34.5 88t-89.5 34q-68 0 -119 -58t-51 -142q0 -56 32.5 -88.5
t87.5 -32.5zM532 471l4 14q9 34 30 55.5t53 21.5q39 0 56.5 -27t4.5 -73l-104 -391q-10 -37 -33 -57t-55 -20t-49.5 17.5t-17.5 46.5l1 5q-77 -74 -160 -74q-94 0 -154.5 64.5t-60.5 174.5q0 144 93 241t215 97q117 0 177 -95z" />
    </font>
</defs>
</svg>
