<?xml version="1.0" standalone="no"?>
<!DOCTYPE svg PUBLIC "-//W3C//DTD SVG 1.1//EN" "http://www.w3.org/Graphics/SVG/1.1/DTD/svg11.dtd" >
<svg xmlns="http://www.w3.org/2000/svg" xmlns:xlink="http://www.w3.org/1999/xlink" version="1.1">
<metadata>
Created by FontForge 20170731 at Thu Aug 11 23:46:41 2016
 By Aleksey,,,
Copyright (C) 2011, 2014 Hoefler &#38; Co. http://www.typography.com
</metadata>
<defs>
<font id="GothamRndSSm-BookItalic" horiz-adv-x="530" >
  <font-face 
    font-family="Gotham Rnd SSm Book"
    font-weight="325"
    font-style="italic"
    font-stretch="normal"
    units-per-em="1000"
    panose-1="0 0 0 0 0 0 0 0 0 0"
    ascent="800"
    descent="-200"
    x-height="541"
    cap-height="733"
    bbox="-141 -263 1248 1086"
    underline-thickness="50"
    underline-position="-200"
    slope="-15"
    unicode-range="U+0020-FB04"
  />
<missing-glyph horiz-adv-x="500" 
d="M0 -200v1000h500v-1000h-500zM71 750l179 -390l179 390h-358zM450 676l-172 -376l172 -376v752zM50 -76l172 376l-172 376v-752zM250 240l-179 -390h358z" />
    <glyph glyph-name="f_f" unicode="ff" horiz-adv-x="804" 
d="M663 459l-112 -418q-13 -46 -52 -46q-24 0 -34.5 16t-3.5 43l109 405h-30q-15 2 -26.5 13t-11.5 28t12 29t29 12h48l16 58q43 163 192 163q38 0 70 -10q33 -9 33 -40q0 -22 -14.5 -34t-33.5 -7q-28 10 -55 10q-77 0 -102 -94l-13 -46h121q17 0 29 -12t12 -29t-12 -29
t-29 -12h-142zM266 459l-112 -418q-13 -46 -52 -46q-24 0 -34.5 16t-3.5 43l109 405h-30q-15 2 -26.5 13t-11.5 28t12 29t29 12h48l16 58q43 163 192 163q38 0 70 -10q33 -9 33 -40q0 -22 -14.5 -34t-33.5 -7q-28 10 -55 10q-77 0 -102 -94l-13 -46h121q17 0 29 -12t12 -29
t-12 -29t-29 -12h-142z" />
    <glyph glyph-name="fi" unicode="fi" horiz-adv-x="688" 
d="M710 687q-5 -20 -22 -31.5t-40 -11.5q-24 0 -37.5 13.5t-9.5 32.5l5 18q4 21 21 32.5t41 11.5t37 -13.5t9 -33.5zM266 459l-112 -418q-13 -46 -52 -46q-24 0 -34.5 16t-3.5 43l109 405h-30q-15 2 -26.5 13t-11.5 28t12 29t29 12h48l16 58q43 163 192 163q38 0 70 -10
q33 -9 33 -40q0 -22 -14.5 -34t-33.5 -7q-28 10 -55 10q-77 0 -102 -94l-13 -46h121q17 0 29 -12t12 -29t-12 -29t-29 -12h-142zM648 487l-120 -446q-13 -46 -52 -46q-24 0 -34.5 16t-3.5 43l120 446q11 46 52 46q23 0 34 -16t4 -43z" />
    <glyph glyph-name="fl" unicode="fl" horiz-adv-x="688" 
d="M706 705l-178 -664q-13 -46 -52 -46q-24 0 -34.5 16t-3.5 43l178 664q12 46 52 46q24 0 34.5 -16t3.5 -43zM266 459l-112 -418q-13 -46 -52 -46q-24 0 -34.5 16t-3.5 43l109 405h-30q-15 2 -26.5 13t-11.5 28t12 29t29 12h48l16 58q43 163 192 163q38 0 70 -10
q33 -9 33 -40q0 -22 -14.5 -34t-33.5 -7q-28 10 -55 10q-77 0 -102 -94l-13 -46h121q17 0 29 -12t12 -29t-12 -29t-29 -12h-142z" />
    <glyph glyph-name="f_f_i" unicode="ffi" horiz-adv-x="1085" 
d="M1107 687q-5 -20 -22 -31.5t-40 -11.5q-24 0 -37.5 13.5t-9.5 32.5l5 18q4 21 21 32.5t41 11.5q23 0 36.5 -13.5t9.5 -33.5zM663 459l-112 -418q-13 -46 -52 -46q-24 0 -34.5 16t-3.5 43l109 405h-30q-15 2 -26.5 13t-11.5 28t12 29t29 12h48l16 58q43 163 192 163
q38 0 70 -10q33 -9 33 -40q0 -22 -14.5 -34t-33.5 -7q-28 10 -55 10q-77 0 -102 -94l-13 -46h121q17 0 29 -12t12 -29t-12 -29t-29 -12h-142zM266 459l-112 -418q-13 -46 -52 -46q-24 0 -34.5 16t-3.5 43l109 405h-30q-15 2 -26.5 13t-11.5 28t12 29t29 12h48l16 58
q43 163 192 163q38 0 70 -10q33 -9 33 -40q0 -22 -14.5 -34t-33.5 -7q-28 10 -55 10q-77 0 -102 -94l-13 -46h121q17 0 29 -12t12 -29t-12 -29t-29 -12h-142zM1045 487l-120 -446q-13 -46 -52 -46q-24 0 -34.5 16t-3.5 43l120 446q11 46 52 46q23 0 34 -16t4 -43z" />
    <glyph glyph-name="f_f_l" unicode="ffl" horiz-adv-x="1085" 
d="M1103 705l-178 -664q-13 -46 -52 -46q-24 0 -34.5 16t-3.5 43l178 664q12 46 52 46q24 0 34.5 -16t3.5 -43zM663 459l-112 -418q-13 -46 -52 -46q-24 0 -34.5 16t-3.5 43l109 405h-30q-15 2 -26.5 13t-11.5 28t12 29t29 12h48l16 58q43 163 192 163q38 0 70 -10
q33 -9 33 -40q0 -22 -14.5 -34t-33.5 -7q-28 10 -55 10q-77 0 -102 -94l-13 -46h121q17 0 29 -12t12 -29t-12 -29t-29 -12h-142zM266 459l-112 -418q-13 -46 -52 -46q-24 0 -34.5 16t-3.5 43l109 405h-30q-15 2 -26.5 13t-11.5 28t12 29t29 12h48l16 58q43 163 192 163
q38 0 70 -10q33 -9 33 -40q0 -22 -14.5 -34t-33.5 -7q-28 10 -55 10q-77 0 -102 -94l-13 -46h121q17 0 29 -12t12 -29t-12 -29t-29 -12h-142z" />
    <glyph glyph-name=".notdef" horiz-adv-x="500" 
d="M0 -200v1000h500v-1000h-500zM71 750l179 -390l179 390h-358zM450 676l-172 -376l172 -376v752zM50 -76l172 376l-172 376v-752zM250 240l-179 -390h358z" />
    <glyph glyph-name=".null" horiz-adv-x="0" 
 />
    <glyph glyph-name="nonmarkingreturn" horiz-adv-x="333" 
 />
    <glyph glyph-name="space" unicode=" " horiz-adv-x="322" 
 />
    <glyph glyph-name="exclam" unicode="!" horiz-adv-x="302" 
d="M318 692l-150 -459q-8 -24 -30 -24q-13 0 -20 9t-4 24l97 454q5 35 39 35h43q16 0 23.5 -11t1.5 -28zM153 71l-7 -26q-5 -23 -22 -36.5t-41 -13.5q-25 0 -39 15t-10 38l7 26q5 23 22 37t41 14q25 0 39.5 -15.5t9.5 -38.5z" />
    <glyph glyph-name="quotedbl" unicode="&#x22;" horiz-adv-x="485" 
d="M383 456q-12 -24 -33 -24q-13 0 -18 9t-1 22l73 226q12 42 52 42h23q22 0 27.5 -16t-5.5 -36zM170 456q-12 -24 -33 -24q-13 0 -18 9t-1 22l73 226q12 42 52 42h23q22 0 27.5 -16t-5.5 -36z" />
    <glyph glyph-name="numbersign" unicode="#" horiz-adv-x="721" 
d="M405 687l-47 -134h185l51 145q13 35 48 35q20 0 30 -13.5t3 -32.5l-47 -134h64q17 0 29.5 -12t12.5 -29t-12.5 -29.5t-29.5 -12.5h-93l-73 -208h77q17 0 29 -12t12 -29t-12 -29.5t-29 -12.5h-105l-52 -149q-12 -35 -47 -35q-20 0 -30.5 13.5t-3.5 32.5l48 138h-185
l-52 -149q-13 -35 -47 -35q-20 0 -30.5 13.5t-3.5 32.5l48 138h-64q-17 0 -29.5 12t-12.5 29t12.5 29.5t29.5 12.5h92l73 208h-76q-17 0 -29.5 12t-12.5 29t12.5 29.5t29.5 12.5h105l51 145q13 35 47 35q20 0 30.5 -13.5t3.5 -32.5zM257 262h185l73 208h-186z" />
    <glyph glyph-name="dollar" unicode="$" horiz-adv-x="660" 
d="M345 425l60 218q-73 6 -121 -27.5t-48 -85.5q0 -35 24.5 -58t84.5 -47zM316 84q74 0 120.5 33.5t46.5 87.5q0 34 -23.5 58.5t-80.5 48.5zM202 -62l20 69q-116 21 -190 91q-20 18 -20 40q0 20 13.5 33t33.5 13q14 0 33 -14q65 -63 158 -80l68 244q-95 36 -138 76.5
t-43 109.5q0 89 74.5 148.5t185.5 59.5q5 0 15.5 -0.5t14.5 -0.5l9 30q11 36 41 36q18 0 27 -12t4 -33l-9 -31q81 -18 141 -67q22 -17 22 -40q0 -19 -13.5 -32t-32.5 -13q-17 0 -34 13q-46 40 -111 56l-65 -232q90 -33 132.5 -76t42.5 -111q0 -94 -77.5 -154.5t-198.5 -60.5
h-12l-20 -72q-11 -36 -41 -36q-18 0 -26.5 12.5t-3.5 33.5z" />
    <glyph glyph-name="percent" unicode="%" horiz-adv-x="888" 
d="M248 360q-67 0 -108.5 43.5t-41.5 109.5q0 87 58 155t142 68q66 0 107.5 -43.5t41.5 -109.5q0 -88 -57.5 -155.5t-141.5 -67.5zM815 674l-640 -661q-18 -18 -34 -18q-14 0 -23 8.5t-9 22.5q0 15 14 29l641 661q18 18 34 18q13 0 22 -9t9 -22q0 -15 -14 -29zM253 423
q51 0 87 49t36 106q0 44 -22 69.5t-61 25.5q-51 0 -87.5 -48.5t-36.5 -106.5q0 -44 22.5 -69.5t61.5 -25.5zM640 -8q-66 0 -107.5 43.5t-41.5 110.5q0 87 58 155t142 68q66 0 107.5 -43.5t41.5 -110.5q0 -87 -58 -155t-142 -68zM645 55q51 0 87.5 49t36.5 107q0 43 -22 69
t-61 26q-51 0 -87.5 -49t-36.5 -107q0 -43 22 -69t61 -26z" />
    <glyph glyph-name="ampersand" unicode="&#x26;" horiz-adv-x="730" 
d="M561 10l-60 84q-118 -104 -250 -104q-95 0 -156 50.5t-61 136.5q0 81 59 143.5t176 95.5q-45 75 -45 134q0 79 59.5 134.5t148.5 55.5q82 0 132.5 -44.5t50.5 -115.5q0 -135 -220 -200l121 -169q42 46 89 119q17 25 38 25q16 0 26.5 -9t10.5 -24q0 -14 -9 -28
q-56 -86 -107 -143l61 -87q15 -18 15 -33q0 -18 -11.5 -29.5t-30.5 -11.5q-22 0 -37 20zM353 438q95 28 134 61.5t39 75.5q0 38 -26.5 63t-71.5 25q-49 0 -82.5 -33.5t-33.5 -80.5t41 -111zM262 71q97 0 193 84l-144 202q-92 -25 -138 -71t-46 -102q0 -51 36 -82t99 -31z
" />
    <glyph glyph-name="quotesingle" unicode="'" horiz-adv-x="272" 
d="M170 456q-12 -24 -33 -24q-13 0 -18 9t-1 22l73 226q12 42 52 42h23q22 0 27.5 -16t-5.5 -36z" />
    <glyph glyph-name="parenleft" unicode="(" horiz-adv-x="463" 
d="M315 -70q13 -15 13 -32t-11.5 -28t-29.5 -11t-33 13q-163 156 -163 351q0 159 98.5 293.5t284.5 217.5q16 6 26 6q16 0 27 -11t11 -27q0 -25 -26 -38q-159 -76 -242 -190.5t-83 -247.5q0 -90 33.5 -158.5t94.5 -137.5z" />
    <glyph glyph-name="parenright" unicode=")" horiz-adv-x="463" 
d="M164 669q-13 14 -13 32q0 17 11.5 28t29.5 11q20 0 33 -13q163 -155 163 -351q0 -159 -98.5 -293.5t-284.5 -217.5q-16 -6 -26 -6q-17 0 -27.5 11t-10.5 28q0 23 26 38q158 75 241 189.5t83 248.5q0 89 -33.5 158.5t-93.5 136.5z" />
    <glyph glyph-name="asterisk" unicode="*" horiz-adv-x="457" 
d="M311 534l-17 -99q-4 -28 -29 -28q-16 0 -23.5 12t-1.5 27l36 97l-95 -35q-12 -5 -20 -5q-11 0 -18.5 8t-8.5 19q0 27 27 30l107 18l-82 67q-15 12 -15 26q0 12 8 20.5t20 8.5q16 0 25 -14l68 -82l18 98q5 29 29 29q16 0 23 -11t1 -28l-36 -97l95 35q9 4 21 4q23 0 25 -26
q0 -27 -27 -30l-105 -18l80 -66q16 -13 16 -27q0 -11 -8 -19.5t-20 -8.5q-14 0 -26 13z" />
    <glyph glyph-name="plus" unicode="+" horiz-adv-x="663" 
d="M391 322l-45 -167q-13 -47 -51 -47q-23 0 -33.5 16t-3.5 42l43 156h-161q-18 0 -30.5 13t-12.5 31t12.5 31t30.5 13h184l45 167q11 47 51 47q22 0 32.5 -16t3.5 -42l-42 -156h161q18 0 30.5 -12.5t12.5 -30.5t-12.5 -31.5t-30.5 -13.5h-184z" />
    <glyph glyph-name="comma" unicode="," horiz-adv-x="287" 
d="M-27 -88q77 24 88 88q-17 3 -27 16.5t-5 35.5l6 23q5 23 21.5 36.5t39.5 13.5q27 0 40.5 -19t6.5 -49l-8 -30q-17 -73 -64 -115q-38 -34 -92 -44q-27 -3 -27 21q0 17 21 23z" />
    <glyph glyph-name="hyphen" unicode="-" horiz-adv-x="437" 
d="M335 266h-210q-19 0 -33.5 14t-14.5 34t14.5 34t33.5 14h210q19 0 33.5 -14t14.5 -34t-14.5 -34t-33.5 -14z" />
    <glyph glyph-name="period" unicode="." horiz-adv-x="287" 
d="M146 71l-7 -25q-5 -23 -22 -37t-41 -14q-25 0 -39.5 15.5t-9.5 38.5l7 25q5 23 22 37t41 14q25 0 39.5 -15.5t9.5 -38.5z" />
    <glyph glyph-name="slash" unicode="/" horiz-adv-x="542" 
d="M-79 -70l667 880q20 26 43 26q16 0 25 -9.5t9 -24.5q0 -13 -16 -35l-667 -880q-20 -26 -43 -26q-16 0 -25 9.5t-9 24.5q0 13 16 35z" />
    <glyph glyph-name="zero" unicode="0" horiz-adv-x="756" 
d="M342 -12q-121 0 -190.5 78.5t-69.5 205.5q0 85 28 169t76.5 150.5t121 107.5t155.5 41q121 0 190.5 -78.5t69.5 -205.5q0 -85 -28 -169t-76.5 -150.5t-121 -107.5t-155.5 -41zM349 75q74 0 138.5 57.5t100 145t35.5 178.5q0 89 -44 143t-123 54q-75 0 -139.5 -57.5
t-100 -145t-35.5 -178.5q0 -89 44.5 -143t123.5 -54z" />
    <glyph glyph-name="one" unicode="1" horiz-adv-x="399" 
d="M382 685l-173 -644q-13 -46 -53 -46q-23 0 -34.5 16t-4.5 44l155 577l-99 -30q-10 -2 -17 -2q-16 0 -27 11t-11 29q0 32 34 43l140 44q32 10 53 10h1q21 0 31.5 -14.5t4.5 -37.5z" />
    <glyph glyph-name="two" unicode="2" horiz-adv-x="632" 
d="M476 0h-438q-22 0 -36 10.5t-14 30.5q0 26 24 44l397 296q62 47 90.5 85t28.5 80q0 47 -35 76.5t-96 29.5q-89 0 -170 -77q-18 -16 -36 -16t-30.5 12.5t-12.5 30.5q0 21 18 36q107 100 236 100q100 0 162.5 -51t62.5 -133q0 -64 -37.5 -116.5t-121.5 -114.5l-316 -236
h324q18 0 31 -13t13 -31t-13 -30.5t-31 -12.5z" />
    <glyph glyph-name="three" unicode="3" horiz-adv-x="639" 
d="M28 93q-14 17 -14 36t13.5 32.5t31.5 13.5t34 -18q63 -83 173 -83q81 0 135.5 43.5t54.5 107.5q0 57 -48 87t-132 30h-10q-18 0 -28.5 9.5t-10.5 26.5t20 34l264 231h-293q-18 0 -30.5 12t-12.5 30t12.5 30.5t30.5 12.5h397q20 0 32.5 -9.5t12.5 -27.5q0 -24 -30 -49
l-267 -230q85 -10 138 -55t53 -124q0 -105 -85 -175t-207 -70q-159 0 -234 105z" />
    <glyph glyph-name="four" unicode="4" horiz-adv-x="687" 
d="M504 170l-35 -129q-11 -46 -51 -46q-23 0 -33.5 16t-3.5 44l31 115h-339q-21 0 -34.5 10t-13.5 29q0 27 25 52l485 447q33 30 67 30q23 0 35 -14.5t5 -36.5l-117 -437h64q17 0 28.5 -12t11.5 -28q0 -17 -11.5 -28.5t-28.5 -11.5h-85zM155 250h278l93 346z" />
    <glyph glyph-name="five" unicode="5" horiz-adv-x="639" 
d="M43 81q-20 18 -20 41q0 18 13 31.5t32 13.5t36 -17q66 -76 170 -76q88 0 144 49.5t56 117.5q0 60 -43 96t-114 36q-47 0 -125 -28q-25 -5 -47 11q-24 19 -14 51l93 281q14 40 48 40h325q18 0 31 -13t13 -31t-13 -30.5t-31 -12.5h-298l-70 -210q56 24 115 24
q103 0 166 -56t63 -149q0 -108 -85.5 -185t-221.5 -77q-133 0 -223 93z" />
    <glyph glyph-name="six" unicode="6" horiz-adv-x="677" 
d="M658 675q21 -13 21 -40q0 -19 -13 -32t-31 -13t-32 12q-62 52 -139 52q-94 0 -170 -74q-39 -40 -68.5 -99t-37.5 -118q32 42 85.5 70t117.5 28q102 0 165.5 -59.5t63.5 -149.5q0 -106 -83 -185t-204 -79q-113 0 -179 66q-73 71 -73 202q0 113 39 212.5t106 165.5
q104 106 245 106q110 0 187 -65zM335 70q80 0 133 52t53 122q0 56 -40 95.5t-111 39.5q-83 0 -137 -50t-54 -116q0 -59 39 -100q44 -43 117 -43z" />
    <glyph glyph-name="seven" unicode="7" horiz-adv-x="624" 
d="M641 643l-453 -617q-24 -31 -52 -31q-19 0 -30 10t-11 27q0 19 16 41l423 568h-335q-18 0 -30.5 12.5t-12.5 31.5q0 18 12.5 30.5t30.5 12.5h421q43 0 43 -35q0 -23 -22 -50z" />
    <glyph glyph-name="eight" unicode="8" horiz-adv-x="685" 
d="M314 -10q-117 0 -194 56t-77 140q0 82 58 134t150 69q-46 19 -74 59t-28 90q0 82 74 141t191 59q109 0 178.5 -53.5t69.5 -136.5q0 -71 -49.5 -120.5t-127.5 -65.5q53 -19 87.5 -61t34.5 -99q0 -90 -82.5 -151t-210.5 -61zM396 410q79 0 125.5 38t46.5 91
q1 51 -42.5 84.5t-114.5 33.5q-74 0 -121.5 -36.5t-47.5 -91.5q-1 -51 42.5 -85t111.5 -34zM319 71q85 0 138 37.5t53 97.5q1 53 -48.5 89.5t-129.5 36.5q-86 0 -139 -40t-54 -97q0 -55 49.5 -89.5t130.5 -34.5z" />
    <glyph glyph-name="nine" unicode="9" horiz-adv-x="677" 
d="M358 340q81 0 135 52.5t54 121.5q0 60 -39 99q-44 44 -117 44q-81 0 -134 -52.5t-53 -125.5q-1 -58 39.5 -98.5t114.5 -40.5zM258 -13q-111 0 -193 70q-24 18 -24 42q0 19 13 32t31 13t32 -12q67 -58 146 -58q95 0 169 75q40 39 68.5 95.5t36.5 115.5
q-32 -42 -84.5 -71.5t-119.5 -29.5q-102 0 -165 59.5t-63 152.5q1 111 84 190t204 79q115 0 179 -66q73 -73 73 -209q0 -110 -39.5 -207.5t-106.5 -164.5q-104 -106 -241 -106z" />
    <glyph glyph-name="colon" unicode=":" horiz-adv-x="293" 
d="M262 492l-7 -25q-5 -23 -21.5 -36.5t-41.5 -13.5t-38.5 15.5t-9.5 37.5l6 25q12 51 63 51q25 0 39.5 -15.5t9.5 -38.5zM149 71l-7 -25q-5 -23 -22 -37t-41 -14q-25 0 -39 15.5t-10 38.5l7 25q5 23 22 37t41 14q25 0 39.5 -15.5t9.5 -38.5z" />
    <glyph glyph-name="semicolon" unicode=";" horiz-adv-x="293" 
d="M262 492l-7 -25q-5 -23 -21.5 -36.5t-41.5 -13.5t-38.5 15.5t-9.5 37.5l6 25q12 51 63 51q25 0 39.5 -15.5t9.5 -38.5zM-24 -88q78 24 88 88q-17 3 -27 16.5t-5 35.5l6 23q5 23 21.5 36.5t39.5 13.5q27 0 40.5 -19t6.5 -49l-8 -30q-17 -73 -64 -115q-38 -34 -92 -44
q-27 -3 -27 21q0 17 21 23z" />
    <glyph glyph-name="less" unicode="&#x3c;" horiz-adv-x="663" 
d="M137 419l450 198q16 7 30 7q16 0 26 -10t10 -26q0 -29 -29 -42l-429 -185l313 -177q27 -13 27 -39q0 -18 -12 -30.5t-30 -12.5q-17 0 -27 7l-334 192q-40 23 -40 55v3q0 40 45 60z" />
    <glyph glyph-name="equal" unicode="=" horiz-adv-x="663" 
d="M191 446q-19 0 -32 13t-13 31q0 19 13 32t32 13h400q18 0 31.5 -13t13.5 -32q0 -18 -13.5 -31t-31.5 -13h-400zM124 197q-19 0 -32 13t-13 31q0 19 13 32t32 13h400q19 0 32 -13t13 -32q0 -18 -13 -31t-32 -13h-400z" />
    <glyph glyph-name="greater" unicode="&#x3e;" horiz-adv-x="663" 
d="M575 313l-449 -197q-14 -8 -31 -8q-16 0 -26 10t-10 26q0 28 29 42l429 185l-313 177q-26 12 -26 39q0 18 12 31t30 13q13 0 27 -8l333 -191q40 -23 40 -56v-3q0 -40 -45 -60z" />
    <glyph glyph-name="question" unicode="?" horiz-adv-x="570" 
d="M185 589q-20 -13 -35 -13q-17 0 -28 11.5t-11 27.5q0 23 19 37q97 85 225 85q99 0 158.5 -52.5t59.5 -132.5q0 -95 -74 -154t-198 -78l-29 -82q-11 -30 -37 -30h-4q-14 0 -21.5 10t-5.5 26l19 110q4 30 42 36q93 11 150.5 50.5t57.5 103.5q0 50 -35.5 78t-94.5 28
q-79 0 -158 -61zM250 71l-7 -26q-5 -23 -22 -36.5t-41 -13.5q-25 0 -39.5 15t-9.5 38l7 26q5 23 22 37t41 14q25 0 39.5 -15.5t9.5 -38.5z" />
    <glyph glyph-name="at" unicode="@" horiz-adv-x="1029" 
d="M723 -119q-99 -46 -219 -46q-195 0 -315 112t-120 294q0 99 40.5 191t108 160t162.5 109t198 41q189 0 301 -104.5t112 -259.5q0 -144 -70 -224.5t-158 -80.5q-53 0 -87.5 25t-45.5 69q-81 -96 -183 -96q-70 0 -117.5 47t-47.5 127q0 115 79 197.5t178 82.5
q108 0 150 -97l16 53q13 38 44 38q20 0 30.5 -15t3.5 -37l-71 -227q-17 -55 1 -90t66 -35q62 0 117 70.5t55 192.5q0 139 -101.5 233t-271.5 94q-127 0 -236 -64t-171.5 -171t-62.5 -229q0 -165 109.5 -267.5t286.5 -102.5q107 0 201 41q8 4 13 4q17 0 17 -18q0 -12 -12 -17
zM474 142q70 0 128 60t58 136q0 51 -31.5 83t-84.5 32q-70 0 -122 -59t-52 -140q0 -52 28.5 -82t75.5 -30z" />
    <glyph glyph-name="A" unicode="A" horiz-adv-x="791" 
d="M585 691l117 -624q3 -24 3 -26q0 -19 -13.5 -32.5t-34.5 -13.5q-41 0 -48 41l-27 152h-386l-115 -161q-23 -32 -50 -32q-18 0 -29 10.5t-11 28.5q0 17 11 31l457 631q29 41 69 41h3q45 0 54 -46zM256 274h311l-62 348z" />
    <glyph glyph-name="B" unicode="B" horiz-adv-x="756" 
d="M372 0h-284q-23 0 -35 16t-5 42l167 622q6 22 20.5 35t33.5 13h234q109 0 169 -46.5t60 -124.5q0 -75 -49 -124.5t-128 -65.5q124 -41 124 -150q0 -97 -82.5 -157t-224.5 -60zM237 409h199q91 0 145 36t54 98q0 47 -37 73t-104 26h-195zM150 86h234q91 0 144.5 36
t53.5 99q0 51 -42 78t-113 27h-213z" />
    <glyph glyph-name="C" unicode="C" horiz-adv-x="773" 
d="M664 84q-107 -97 -258 -97q-136 0 -226 83t-90 221q0 116 58.5 219.5t160 166.5t219.5 63q161 0 247 -113q18 -20 18 -41q-1 -20 -14.5 -34t-34.5 -14q-23 0 -36 16q-34 47 -77.5 72.5t-111.5 25.5q-133 0 -230.5 -108t-97.5 -249q0 -99 61 -159t158 -60q60 0 103 18
t91 58q17 13 33 13q19 0 31.5 -13t12.5 -32t-17 -36z" />
    <glyph glyph-name="D" unicode="D" horiz-adv-x="814" 
d="M269 728h142q186 0 284 -96q79 -79 79 -210q0 -168 -116 -284q-138 -138 -374 -138h-196q-23 0 -35 16t-5 42l167 622q6 22 20.5 35t33.5 13zM152 88h143q181 0 291 110q88 88 88 219q0 95 -58 153q-70 70 -212 70h-103z" />
    <glyph glyph-name="E" unicode="E" horiz-adv-x="692" 
d="M535 0h-447q-23 0 -35 16t-5 42l167 622q6 22 20.5 35t33.5 13h433q18 0 31 -13t13 -31t-13 -30.5t-31 -12.5h-401l-62 -231h331q18 0 31 -12.5t13 -30.5t-13 -30.5t-31 -12.5h-355l-63 -237h383q18 0 31 -13t13 -31t-13 -30.5t-31 -12.5z" />
    <glyph glyph-name="F" unicode="F" horiz-adv-x="695" 
d="M269 728h437q18 0 31 -13t13 -31t-13 -31t-31 -13h-405l-65 -241h335q18 0 31 -13t13 -31q0 -19 -13 -31.5t-31 -12.5h-359l-71 -268q-6 -22 -21 -35t-34 -13q-23 0 -34.5 16t-4.5 42l168 627q6 22 20.5 35t33.5 13z" />
    <glyph glyph-name="G" unicode="G" horiz-adv-x="825" 
d="M754 336l-67 -238q-11 -36 -42 -54q-102 -57 -229 -57q-137 0 -231 83t-94 227q0 113 57.5 214.5t161.5 165t229 63.5q166 0 250 -97q20 -18 20 -39q0 -20 -13.5 -34t-33.5 -14q-19 0 -33 14q-75 82 -198 82q-142 0 -241 -107t-99 -244q0 -105 64 -165.5t167 -60.5
q101 0 179 47l53 187h-166q-18 0 -30.5 12.5t-12.5 29.5q0 18 12.5 30.5t30.5 12.5h226q24 0 35.5 -16.5t4.5 -41.5z" />
    <glyph glyph-name="H" unicode="H" horiz-adv-x="796" 
d="M799 673l-170 -632q-11 -46 -53 -46q-24 0 -35.5 16.5t-3.5 43.5l71 267h-393l-75 -281q-13 -46 -53 -46q-23 0 -35 16t-5 44l170 632q13 46 53 46q23 0 35 -16t5 -44l-71 -262h393l74 276q13 46 54 46q23 0 34.5 -16t4.5 -44z" />
    <glyph glyph-name="I" unicode="I" horiz-adv-x="321" 
d="M317 673l-170 -632q-13 -46 -53 -46q-24 0 -35.5 16.5t-3.5 43.5l169 632q13 46 53 46q23 0 35 -16t5 -44z" />
    <glyph glyph-name="J" unicode="J" horiz-adv-x="585" 
d="M603 673l-110 -411q-19 -73 -42 -119t-59 -81q-72 -72 -186 -72q-131 0 -196 111q-14 18 -14 35q0 19 13.5 32.5t31.5 13.5q22 0 38 -22q43 -82 129 -82q69 0 120 49q44 45 74 155l108 405q13 46 53 46q23 0 35 -16t5 -44z" />
    <glyph glyph-name="K" unicode="K" horiz-adv-x="755" 
d="M180 189l-40 -148q-13 -46 -53 -46q-23 0 -35 16t-5 44l170 632q13 46 53 46q23 0 35 -16t5 -44l-96 -358l487 400q23 18 41 18q19 0 31 -12.5t12 -30.5q0 -22 -19 -37l-305 -247l170 -334q9 -18 9 -33q0 -19 -14 -31.5t-33 -12.5q-35 0 -50 34l-161 323z" />
    <glyph glyph-name="L" unicode="L" horiz-adv-x="645" 
d="M504 0h-416q-23 0 -35 16t-5 42l169 629q13 46 53 46q23 0 35 -16t5 -44l-157 -585h351q17 0 30 -13t13 -31t-12.5 -31t-30.5 -13z" />
    <glyph glyph-name="M" unicode="M" horiz-adv-x="913" 
d="M869 732h6q25 0 36 -17t4 -45l-168 -629q-13 -46 -55 -46q-23 0 -34.5 16t-4.5 44l133 498l-294 -311q-25 -28 -50 -28q-28 0 -41 33l-125 305l-137 -510q-13 -47 -53 -47q-23 0 -34.5 16t-4.5 44l168 626q14 51 55 51h4q34 0 50 -39l145 -364l337 369q31 34 63 34z" />
    <glyph glyph-name="N" unicode="N" horiz-adv-x="827" 
d="M598 160l142 527q13 46 52 46q23 0 34.5 -16t4.5 -44l-170 -633q-13 -44 -50 -44h-2q-36 0 -53 38l-273 548l-145 -541q-13 -46 -52 -46q-23 0 -34.5 16t-4.5 44l169 628q13 49 56 49h5q38 0 58 -42z" />
    <glyph glyph-name="O" unicode="O" horiz-adv-x="884" 
d="M414 -13q-141 0 -231 90.5t-90 226.5q0 111 55 211t154 162.5t217 62.5q142 0 232 -90.5t90 -225.5q0 -112 -55 -212t-154.5 -162.5t-217.5 -62.5zM422 75q89 0 163.5 50.5t115 129.5t40.5 165q0 101 -62.5 166.5t-166.5 65.5q-89 0 -163.5 -50.5t-115 -129t-40.5 -164.5
q0 -102 62.5 -167.5t166.5 -65.5z" />
    <glyph glyph-name="P" unicode="P" horiz-adv-x="706" 
d="M197 252l-57 -211q-13 -46 -53 -46q-23 0 -35 16t-5 44l168 625q6 22 20.5 35t33.5 13h187q144 0 212 -69q53 -51 53 -138q0 -126 -98 -197.5t-260 -71.5h-166zM219 337h149q120 0 186.5 46.5t66.5 131.5q0 50 -32 82q-43 43 -136 43h-152z" />
    <glyph glyph-name="Q" unicode="Q" horiz-adv-x="884" 
d="M674 -4l-44 55q-101 -64 -216 -64q-141 0 -231 90.5t-90 226.5q0 111 55 211t154 162.5t217 62.5q142 0 232 -90.5t90 -225.5q0 -90 -37.5 -174t-103.5 -146l41 -46q18 -19 18 -39q0 -19 -13 -31.5t-33 -12.5q-24 0 -39 21zM563 282l81 -103q46 49 71.5 112t25.5 129
q0 101 -62.5 166.5t-166.5 65.5q-89 0 -163.5 -50.5t-115 -129t-40.5 -164.5q0 -102 62.5 -167.5t166.5 -65.5q82 0 155 47l-79 92q-19 25 -19 41q0 20 13 33.5t33 13.5q23 0 38 -20z" />
    <glyph glyph-name="R" unicode="R" horiz-adv-x="757" 
d="M203 274l-63 -233q-13 -46 -53 -46q-23 0 -35 16t-5 44l168 625q6 22 20.5 35t33.5 13h222q141 0 209 -68q50 -48 50 -130q0 -93 -65 -160q-64 -64 -192 -86l118 -211q11 -18 11 -34q0 -20 -14 -32t-33 -12q-37 0 -53 31l-136 248h-183zM225 360h189q134 0 195 63
q42 42 42 100q0 46 -29 75q-42 42 -136 42h-185z" />
    <glyph glyph-name="S" unicode="S" horiz-adv-x="673" 
d="M320 75q74 0 122.5 35.5t48.5 90.5q0 39 -31.5 66.5t-113.5 59.5q-103 41 -149.5 83.5t-46.5 111.5q0 94 77 155t195 61q133 0 228 -79q22 -17 22 -40q0 -20 -13.5 -33.5t-33.5 -13.5q-19 0 -31 11q-76 70 -180 70q-74 0 -118.5 -35t-44.5 -83q0 -40 34 -66.5t121 -61.5
q96 -37 141 -80.5t45 -112.5q0 -98 -80 -161t-198 -63q-172 0 -272 103q-18 18 -18 41q0 20 13 34t33 14q18 0 34 -16q46 -47 96 -69t120 -22z" />
    <glyph glyph-name="T" unicode="T" horiz-adv-x="652" 
d="M470 639l-161 -598q-13 -46 -53 -46q-23 0 -35 16t-5 44l157 584h-188q-19 0 -32 13t-13 31q0 19 13 32t32 13h498q18 0 31 -13t13 -32q0 -18 -13 -31t-31 -13h-213z" />
    <glyph glyph-name="U" unicode="U" horiz-adv-x="800" 
d="M811 673l-101 -379q-37 -136 -114 -215q-92 -90 -231 -90q-127 0 -196.5 64t-69.5 171q0 51 15 114l93 349q13 46 54 46q23 0 34.5 -16t4.5 -44l-94 -356q-11 -40 -11 -81q0 -71 46 -115t133 -44q91 0 154 63q59 59 90 170l101 377q13 46 53 46q24 0 35.5 -16.5
t3.5 -43.5z" />
    <glyph glyph-name="V" unicode="V" horiz-adv-x="757" 
d="M807 665l-439 -632q-29 -42 -66 -42h-5q-40 0 -46 45l-100 628q-3 12 -3 25q0 19 14 31.5t36 12.5q45 0 51 -45l81 -565l394 578q21 32 51 32q19 0 31 -9.5t12 -26.5q0 -15 -11 -32z" />
    <glyph glyph-name="W" unicode="W" horiz-adv-x="1141" 
d="M1189 665l-398 -633q-25 -42 -63 -42h-4q-42 0 -44 45l-37 526l-321 -529q-26 -42 -62 -42h-5q-41 0 -44 45l-57 629q-2 10 -2 23q0 20 14 33t36 13q46 0 49 -43l42 -548l331 556q22 36 54 36h4q40 0 43 -39l35 -553l342 557q19 34 53 34q19 0 31 -11t12 -28
q0 -15 -9 -29z" />
    <glyph glyph-name="X" unicode="X" horiz-adv-x="733" 
d="M453 364l155 -286q12 -22 12 -38q0 -18 -13.5 -31.5t-33.5 -13.5q-32 0 -48 33l-142 272l-280 -278q-27 -27 -49 -27q-18 0 -30 11.5t-12 29.5q0 22 19 39l305 302l-149 273q-13 24 -13 38q0 18 14 31.5t34 13.5q32 0 48 -33l137 -261l266 267q25 27 50 27q17 0 29 -11.5
t12 -29.5q0 -22 -18 -38z" />
    <glyph glyph-name="Y" unicode="Y" horiz-adv-x="697" 
d="M391 276l-62 -235q-13 -46 -53 -46q-23 0 -35 16t-5 44l63 235l-156 362q-9 20 -9 35q0 20 14 33t36 13q34 0 48 -39l133 -323l318 335q25 27 52 27q18 0 29.5 -11t11.5 -29q0 -20 -18 -40z" />
    <glyph glyph-name="Z" unicode="Z" horiz-adv-x="710" 
d="M23 85l582 558h-382q-18 0 -30.5 12t-12.5 30q0 17 12.5 30t30.5 13h490q41 0 41 -36v-1q0 -23 -27 -48l-582 -558h401q18 0 30.5 -12.5t12.5 -29.5q0 -18 -12.5 -30.5t-30.5 -12.5h-509q-41 0 -41 36v1q0 23 27 48z" />
    <glyph glyph-name="bracketleft" unicode="[" horiz-adv-x="472" 
d="M505 655h-193l-192 -717h173q15 0 26 -10.5t11 -25.5t-11 -26t-26 -11h-228q-22 0 -34 15t-6 36l205 764q12 48 59 48h216q15 0 26 -11t11 -26t-11 -25.5t-26 -10.5z" />
    <glyph glyph-name="backslash" unicode="\" horiz-adv-x="542" 
d="M233 797l204 -871q0 -1 2 -11.5t2 -16.5q0 -16 -10.5 -26t-26.5 -10q-33 0 -41 38l-204 871q-4 16 -4 28q0 15 10.5 25.5t26.5 10.5q33 0 41 -38z" />
    <glyph glyph-name="bracketright" unicode="]" horiz-adv-x="472" 
d="M196 -135h-216q-15 0 -26 11t-11 26t11 25.5t26 10.5h193l192 717h-174q-15 0 -25.5 10.5t-10.5 25.5t10.5 26t25.5 11h229q22 0 34 -15t6 -36l-205 -764q-12 -48 -59 -48z" />
    <glyph glyph-name="asciicircum" unicode="^" 
d="M160 552l153 152q29 29 57 29h6q32 0 46 -30l73 -155q7 -16 7 -22q0 -18 -24 -18q-20 0 -30.5 6t-20.5 27l-63 125l-131 -127q-34 -31 -62 -31q-24 0 -24 20q0 11 13 24z" />
    <glyph glyph-name="underscore" unicode="_" horiz-adv-x="634" 
d="M-103 -166q-16 0 -27 11t-11 26q0 16 11 27t27 11h628q16 0 27 -11t11 -27q0 -15 -11 -26t-27 -11h-628z" />
    <glyph glyph-name="grave" unicode="`" 
d="M365 636l-57 74q-10 13 -10 23q0 13 19 24t40 11q30 0 40 -26l35 -92q3 -9 3 -16q0 -20 -28 -20q-25 0 -42 22z" />
    <glyph glyph-name="a" unicode="a" horiz-adv-x="611" 
d="M224 60q66 0 123 42.5t75 108.5l10 34q-81 22 -162 22q-68 0 -110 -33t-42 -86q0 -40 28.5 -64t77.5 -24zM415 -5q-24 0 -33.5 13.5t-6.5 32.5l11 40q-81 -93 -195 -93q-71 0 -120 40.5t-49 108.5q0 90 67 143t173 53q90 0 185 -28l3 12q7 24 7 48q0 101 -138 101
q-63 0 -119 -18q-18 -3 -19 -3q-16 0 -26.5 11t-10.5 28q0 31 31 39q78 26 160 26q103 0 158.5 -44.5t55.5 -123.5q0 -31 -12 -76l-70 -264q-13 -46 -52 -46z" />
    <glyph glyph-name="b" unicode="b" horiz-adv-x="698" 
d="M340 -12q-140 0 -197 126l-19 -73q-12 -46 -52 -46q-23 0 -34 16t-4 43l177 664q12 46 53 46q23 0 33.5 -16t3.5 -43l-67 -250q89 98 195 98q93 0 153.5 -63.5t60.5 -166.5q0 -141 -91 -238t-212 -97zM330 70q90 0 152 72t62 173q0 71 -40 113.5t-105 42.5
q-86 0 -156 -74t-70 -169q0 -68 44 -113t113 -45z" />
    <glyph glyph-name="c" unicode="c" horiz-adv-x="594" 
d="M488 60q-86 -72 -192 -72q-101 0 -171.5 65t-70.5 172q0 133 95 230.5t223 97.5q126 0 193 -91q16 -18 16 -37q0 -18 -13 -30.5t-31 -12.5q-23 0 -36 17q-51 71 -136 71q-86 0 -151 -73t-65 -170q0 -72 44 -114.5t107 -42.5q69 0 134 51q14 11 30 11q17 0 28 -11t11 -28
q0 -18 -15 -33z" />
    <glyph glyph-name="d" unicode="d" horiz-adv-x="698" 
d="M299 70q86 0 156 74t70 168q0 68 -44 113.5t-113 45.5q-89 0 -151.5 -72.5t-62.5 -173.5q0 -70 40 -112.5t105 -42.5zM492 -5q-21 0 -31.5 12t-8.5 32l11 47q-89 -98 -194 -98q-93 0 -153.5 63.5t-60.5 166.5q0 141 91 238t212 97q140 0 197 -126l77 291q12 46 53 46
q23 0 33.5 -16t3.5 -43l-177 -664q-13 -46 -53 -46z" />
    <glyph glyph-name="e" unicode="e" horiz-adv-x="626" 
d="M302 67q76 0 135 45q18 10 31 10q16 0 26.5 -10.5t10.5 -26.5q0 -20 -18 -34q-82 -63 -192 -63q-109 0 -175.5 63.5t-66.5 168.5q0 128 92 230.5t225 102.5q99 0 155 -59.5t56 -149.5q0 -36 -7 -64q-9 -42 -49 -42h-378q-1 -7 -1 -21q2 -69 43.5 -109.5t112.5 -40.5z
M158 305h328q4 20 4 41q0 56 -31.5 92t-94.5 36q-73 0 -128 -48t-78 -121z" />
    <glyph glyph-name="f" unicode="f" horiz-adv-x="407" 
d="M266 459l-112 -418q-13 -46 -52 -46q-24 0 -34.5 16t-3.5 43l109 405h-30q-15 2 -26.5 13t-11.5 28t12 29t29 12h48l16 58q43 163 192 163q38 0 70 -10q33 -9 33 -40q0 -22 -14.5 -34t-33.5 -7q-28 10 -55 10q-77 0 -102 -94l-13 -46h121q17 0 29 -12t12 -29t-12 -29
t-29 -12h-142z" />
    <glyph glyph-name="g" unicode="g" horiz-adv-x="697" 
d="M307 121q85 0 151.5 63.5t66.5 143.5q0 59 -43 101t-113 42q-84 0 -147 -62t-63 -152q0 -65 42.5 -100.5t105.5 -35.5zM555 429l19 71q12 46 51 46q24 0 34.5 -16t3.5 -43l-107 -404q-32 -118 -89 -175q-76 -76 -211 -76q-132 0 -237 70q-25 14 -25 38q0 17 12 29.5
t29 12.5q16 0 31 -9q87 -63 187 -63q93 0 147 54q41 41 64 123l13 48q-93 -93 -201 -93q-88 0 -152 54.5t-64 146.5q0 131 92.5 220.5t210.5 89.5q133 0 192 -124z" />
    <glyph glyph-name="h" unicode="h" horiz-adv-x="649" 
d="M572 300l-68 -259q-13 -46 -52 -46q-24 0 -34.5 16t-3.5 43l67 251q8 36 8 59q0 49 -30 76.5t-83 27.5q-60 0 -111 -45.5t-70 -117.5l-71 -264q-13 -46 -52 -46q-23 0 -34 16t-4 43l177 664q12 46 53 46q23 0 33.5 -16t3.5 -43l-65 -246q87 94 181 94q77 0 123.5 -45
t46.5 -121q0 -33 -15 -87z" />
    <glyph glyph-name="i" unicode="i" horiz-adv-x="292" 
d="M313 687q-5 -20 -22 -31.5t-40 -11.5q-24 0 -37.5 13.5t-9.5 32.5l5 18q4 21 21 32.5t41 11.5q23 0 36.5 -13.5t9.5 -33.5zM251 487l-120 -446q-13 -46 -52 -46q-24 0 -34.5 16t-3.5 43l120 446q11 46 52 46q23 0 34 -16t4 -43z" />
    <glyph glyph-name="j" unicode="j" horiz-adv-x="291" 
d="M313 687q-5 -20 -22 -31.5t-40 -11.5q-24 0 -37.5 13.5t-9.5 32.5l5 18q4 21 21 32.5t41 11.5q23 0 36.5 -13.5t9.5 -33.5zM251 487l-138 -514q-39 -143 -160 -143q-72 0 -72 43q0 18 12 29.5t30 9.5q3 0 14 -1t16 -1q49 0 68 70l140 520q11 46 52 46q23 0 34 -16t4 -43z
" />
    <glyph glyph-name="k" unicode="k" horiz-adv-x="605" 
d="M302 705l-119 -446l340 271q20 16 37 16t28 -10.5t11 -27.5q0 -21 -18 -34l-215 -167l116 -236q10 -20 10 -33q0 -19 -14.5 -31t-33.5 -12q-33 0 -49 33l-110 220l-134 -104l-27 -103q-13 -46 -52 -46q-23 0 -34 16t-4 43l178 664q12 46 52 46q24 0 34.5 -16t3.5 -43z
" />
    <glyph glyph-name="l" unicode="l" horiz-adv-x="292" 
d="M309 705l-178 -664q-13 -46 -52 -46q-24 0 -34.5 16t-3.5 43l178 664q12 46 52 46q24 0 34.5 -16t3.5 -43z" />
    <glyph glyph-name="m" unicode="m" horiz-adv-x="998" 
d="M399 54l67 251q8 29 8 59q0 48 -28 76t-77 28q-57 0 -106 -46t-68 -117l-71 -264q-13 -46 -52 -46q-23 0 -34 16t-4 43l119 446q12 46 53 46q20 0 31.5 -12t9.5 -31l-11 -44q41 45 81 69.5t92 24.5q62 0 100.5 -33.5t51.5 -84.5q80 118 213 118q74 0 119 -45.5t45 -120.5
q0 -29 -16 -87l-68 -259q-13 -46 -52 -46q-24 0 -34.5 16t-3.5 43l67 251q8 29 8 59q0 48 -28 76t-77 28q-58 0 -106.5 -46t-67.5 -117l-71 -264q-11 -46 -52 -46q-23 0 -34 16t-4 43z" />
    <glyph glyph-name="n" unicode="n" horiz-adv-x="649" 
d="M206 546q20 0 31.5 -12t9.5 -31l-11 -44q87 94 181 94q77 0 123.5 -45t46.5 -121q0 -33 -15 -87l-68 -259q-13 -46 -52 -46q-24 0 -34.5 16t-3.5 43l67 251q8 36 8 59q0 49 -30 76.5t-83 27.5q-60 0 -111 -45.5t-70 -117.5l-71 -264q-13 -46 -52 -46q-23 0 -34 16t-4 43
l119 446q12 46 53 46z" />
    <glyph glyph-name="o" unicode="o" horiz-adv-x="676" 
d="M303 -12q-112 0 -180.5 68.5t-68.5 175.5q0 127 95 224t223 97q112 0 180.5 -68.5t68.5 -175.5q0 -128 -95.5 -224.5t-222.5 -96.5zM309 70q86 0 151.5 72.5t65.5 163.5q0 77 -44 120.5t-116 43.5q-87 0 -152 -73t-65 -162q0 -77 43.5 -121t116.5 -44z" />
    <glyph glyph-name="p" unicode="p" horiz-adv-x="698" 
d="M399 471q-86 0 -156 -74t-70 -169q0 -68 44 -113t113 -45q90 0 152 72t62 173q0 71 -40 113.5t-105 42.5zM206 546q21 0 31.5 -12t8.5 -32l-12 -47q89 98 195 98q93 0 153.5 -63.5t60.5 -166.5q0 -141 -91 -238t-212 -97q-140 0 -197 126l-64 -239q-11 -46 -52 -46
q-23 0 -34 16t-4 43l164 612q12 46 53 46z" />
    <glyph glyph-name="q" unicode="q" horiz-adv-x="698" 
d="M358 553q139 0 197 -125l19 72q12 46 52 46q24 0 34.5 -16t3.5 -43l-163 -612q-12 -46 -52 -46q-24 0 -34.5 16t-3.5 43l53 199q-90 -99 -195 -99q-93 0 -153.5 63.5t-60.5 166.5q0 141 91 238t212 97zM368 471q-89 0 -151.5 -72.5t-62.5 -173.5q0 -70 40 -112.5
t105 -42.5q86 0 156 74t70 169q0 68 -44 113t-113 45z" />
    <glyph glyph-name="r" unicode="r" horiz-adv-x="431" 
d="M243 491l-20 -81q40 64 92.5 101.5t103.5 37.5q20 0 31.5 -12t11.5 -32q0 -42 -50 -51q-84 -14 -149 -76.5t-94 -168.5l-45 -168q-13 -46 -52 -46q-24 0 -34.5 16t-3.5 43l119 446q12 46 52 46q23 0 33.5 -15.5t4.5 -39.5z" />
    <glyph glyph-name="s" unicode="s" horiz-adv-x="527" 
d="M239 64q44 0 76.5 23.5t32.5 59.5q0 25 -21.5 44.5t-73.5 39.5q-80 31 -117 63.5t-37 87.5q0 73 57 121.5t150 48.5q95 0 175 -53q23 -15 23 -38q0 -17 -12 -29t-29 -12q-13 0 -27 9q-68 47 -138 47q-50 0 -78 -22.5t-28 -55.5q0 -25 21.5 -43.5t79.5 -42.5
q76 -31 112 -64t36 -85q0 -77 -60.5 -126t-149.5 -49q-117 0 -210 73q-19 14 -19 36q0 17 12 29.5t28 12.5q13 0 30 -13q76 -62 167 -62z" />
    <glyph glyph-name="t" unicode="t" horiz-adv-x="430" 
d="M192 541l31 118q13 46 53 46q23 0 33.5 -16t3.5 -43l-28 -105h115q17 0 29 -12t12 -29t-12 -29t-29 -12h-137l-79 -296q-5 -20 -5 -37q0 -52 68 -52q14 0 30 4q19 3 30.5 -6.5t11.5 -28.5q0 -28 -28 -40q-31 -12 -77 -12q-62 0 -98 28t-36 78q0 23 8 59l82 303h-30
q-15 2 -26.5 13t-11.5 28t11.5 29t28.5 12h50z" />
    <glyph glyph-name="u" unicode="u" horiz-adv-x="649" 
d="M443 -5q-21 0 -32 12.5t-9 30.5l11 45q-86 -95 -181 -95q-77 0 -123.5 45t-46.5 121q0 30 14 88l69 258q12 46 52 46q23 0 34 -16t4 -43l-67 -250q-8 -29 -8 -60q0 -49 30 -76.5t83 -27.5q60 0 111 45.5t70 117.5l71 264q11 46 52 46q23 0 34 -16t4 -43l-119 -446
q-13 -46 -53 -46z" />
    <glyph glyph-name="v" unicode="v" horiz-adv-x="604" 
d="M601 479l-315 -449q-28 -39 -62 -39h-2q-42 0 -48 42l-74 442q-3 10 -3 26q0 19 14 32t34 13q21 0 33.5 -11.5t14.5 -31.5l55 -394l271 405q22 32 51 32q19 0 29.5 -10t10.5 -27t-9 -30z" />
    <glyph glyph-name="w" unicode="w" horiz-adv-x="894" 
d="M140 37l-37 439q0 3 -0.5 11.5t-0.5 12.5q0 19 14 32.5t34 13.5q21 0 33.5 -11.5t13.5 -31.5l25 -374l229 381q21 37 54 37h4q40 0 42 -39l26 -379l234 387q18 30 46 30q38 0 38 -36q0 -15 -8 -29l-280 -451q-23 -39 -60 -39h-2q-42 0 -45 46l-26 368l-229 -375
q-23 -39 -59 -39h-3q-41 0 -43 46z" />
    <glyph glyph-name="x" unicode="x" horiz-adv-x="599" 
d="M224 512l91 -172l186 181q28 26 48 26q16 0 27 -10.5t11 -27.5q0 -23 -22 -42l-210 -194l112 -198q12 -22 12 -37q0 -19 -13 -31.5t-33 -12.5q-29 0 -47 35l-95 184l-201 -193q-28 -26 -48 -26q-16 0 -27 11t-11 27q0 23 22 42l224 206l-106 186q-13 19 -13 37t12.5 31
t32.5 13q29 0 48 -35z" />
    <glyph glyph-name="y" unicode="y" horiz-adv-x="611" 
d="M2 -72q35 -16 64 -16q61 0 123 89l-86 474q-3 12 -3 26q0 19 13.5 32t33.5 13q19 0 32 -11.5t15 -31.5l66 -399l263 410q19 32 50 32q19 0 30 -10t11 -27q0 -15 -12 -34l-327 -492q-55 -83 -106.5 -118t-113.5 -35q-47 0 -87 20q-28 13 -28 41q0 18 11.5 30t27.5 12
q10 0 23 -5z" />
    <glyph glyph-name="z" unicode="z" horiz-adv-x="582" 
d="M165 541h376q42 0 42 -34v-1q0 -22 -22 -41l-426 -386h292q17 0 28.5 -11.5t11.5 -28.5q0 -16 -11.5 -27.5t-28.5 -11.5h-391q-41 0 -41 35v1q0 22 21 40l427 387h-278q-16 0 -27.5 11.5t-11.5 27.5t11.5 27.5t27.5 11.5z" />
    <glyph glyph-name="braceleft" unicode="{" horiz-adv-x="513" 
d="M107 334h8q76 0 110 39t52 140q18 110 77.5 164.5t179.5 64.5q42 3 42 -33q0 -29 -32 -34q-90 -9 -129.5 -51t-52.5 -129q-18 -106 -54.5 -149t-109.5 -54q79 -18 79 -89q0 -26 -13 -67q-21 -63 -21 -101q0 -82 85 -112q24 -11 24 -33q0 -17 -12.5 -27t-32.5 -5
q-155 38 -155 163q0 38 23 111q12 41 12 64q0 32 -17.5 47.5t-60.5 18.5h-1q-42 6 -42 36q0 16 11 26t30 10z" />
    <glyph glyph-name="bar" unicode="|" horiz-adv-x="334" 
d="M148 -99v895q0 16 11.5 27.5t27.5 11.5t27 -11.5t11 -27.5v-895q0 -16 -11 -27.5t-27 -11.5q-17 0 -28 11t-11 28z" />
    <glyph glyph-name="braceright" unicode="}" horiz-adv-x="513" 
d="M421 262h-8q-76 0 -110.5 -38.5t-51.5 -139.5q-18 -110 -77.5 -164.5t-179.5 -64.5q-41 -3 -41 33q0 29 32 34q89 9 128.5 51t53.5 129q17 106 53 149t110 54q-79 18 -79 89q0 29 14 67q20 67 20 101q0 82 -85 112q-24 12 -24 33q0 17 12.5 27t32.5 5q155 -38 155 -163
q0 -37 -22 -111q-13 -39 -13 -64q0 -32 17.5 -47.5t60.5 -18.5h1q42 -6 42 -37q0 -16 -11 -26t-30 -10z" />
    <glyph glyph-name="asciitilde" unicode="~" horiz-adv-x="509" 
d="M119 244q-13 0 -22 8t-9 20q0 11 8 25q51 89 115 89q35 0 74 -34q13 -11 17 -14t11.5 -8t12.5 -6.5t11 -1.5q25 0 55 43q14 19 31 19q13 0 22 -7.5t9 -19.5q0 -14 -8 -26q-50 -88 -114 -88q-16 0 -30 5t-22 10.5t-23 18.5q-33 29 -52 29q-26 0 -55 -43q-13 -19 -31 -19z
" />
    <glyph glyph-name="uni00A0" unicode="&#xa0;" horiz-adv-x="322" 
 />
    <glyph glyph-name="exclamdown" unicode="&#xa1;" horiz-adv-x="302" 
d="M317 680l-6 -26q-5 -23 -22.5 -37t-41.5 -14q-25 0 -39 15.5t-9 38.5l6 26q5 23 22 36.5t42 13.5t38.5 -15.5t9.5 -37.5zM33 36l150 459q8 24 30 24q30 0 24 -33l-96 -454q-7 -35 -40 -35h-43q-16 0 -23 11t-2 28z" />
    <glyph glyph-name="cent" unicode="&#xa2;" horiz-adv-x="602" 
d="M174 326q0 -97 77 -137l149 379h-9q-91 -3 -154 -74.5t-63 -167.5zM527 152q-83 -66 -195 -66q-18 0 -48 4l-26 -65q-14 -36 -42 -36q-18 0 -27 14t-1 33l28 73q-64 28 -100.5 85t-36.5 131q0 135 94 230.5t228 95.5q19 0 28 -1l21 53q14 36 41 36q19 0 28 -13.5t1 -33.5
l-23 -56q72 -21 109 -77q16 -20 16 -35q0 -19 -13 -32t-32 -13q-20 0 -34 16q-16 24 -33.5 38t-47.5 24l-151 -386q7 -2 22 -2q75 0 143 50q18 9 31 9q17 0 28 -11.5t11 -28.5q0 -22 -19 -36z" />
    <glyph glyph-name="sterling" unicode="&#xa3;" horiz-adv-x="667" 
d="M475 648q-60 0 -103 -43q-40 -40 -61 -116l-29 -105h234q17 0 29.5 -12t12.5 -29t-12.5 -29.5t-29.5 -12.5h-255l-58 -216h310q17 0 30 -13t13 -30q0 -18 -12.5 -30t-30.5 -12h-477q-14 0 -23.5 9t-9.5 22q0 26 28 34l75 18l59 218h-37q-17 0 -29.5 12.5t-12.5 29.5
t12.5 29t29.5 12h59l32 121q28 103 83 160q72 72 180 72q109 0 175 -77q19 -21 19 -40q0 -20 -13.5 -34t-33.5 -14q-22 0 -34 16q-24 30 -51 45t-69 15z" />
    <glyph glyph-name="yen" unicode="&#xa5;" horiz-adv-x="743" 
d="M395 386l307 320q24 27 47 27q40 0 40 -40q0 -19 -18 -39l-300 -305h133q15 0 26 -11t11 -26t-11 -25.5t-26 -10.5h-188l-23 -87h169q15 0 26 -10.5t11 -26.5q0 -15 -11 -25.5t-26 -10.5h-188l-20 -75q-13 -46 -52 -46q-23 0 -34.5 15.5t-4.5 42.5l17 63h-167
q-15 0 -25.5 10.5t-10.5 25.5q0 16 10.5 26.5t25.5 10.5h186l23 87h-166q-15 0 -26 10.5t-11 25.5t11 26t26 11h156l-134 303q-9 22 -9 35q0 20 13.5 33t34.5 13q34 0 48 -35z" />
    <glyph glyph-name="section" unicode="&#xa7;" horiz-adv-x="667" 
d="M416 273q49 0 83.5 22t34.5 54q0 26 -27.5 45.5t-91.5 40.5q-67 22 -115 22q-49 0 -83.5 -22.5t-34.5 -53.5q0 -27 27.5 -46t91.5 -40q66 -22 115 -22zM310 66q46 0 75.5 17.5t29.5 46.5q0 26 -29 45t-100 42q-101 33 -148 65t-47 85q0 56 49 92.5t131 42.5
q-63 37 -63 95q0 64 59 103t149 39q57 0 111.5 -18t91.5 -46q20 -13 20 -36q0 -18 -12 -30t-29 -12q-14 0 -27 9q-77 58 -164 58q-47 0 -76.5 -18t-29.5 -47q0 -26 29 -45t100 -41q102 -34 148.5 -66t46.5 -85q0 -56 -49 -92.5t-131 -42.5q63 -35 63 -94q0 -64 -59 -103.5
t-147 -39.5q-125 0 -215 71q-18 13 -18 34q0 18 12 30.5t29 12.5q14 0 29 -11q77 -61 171 -61z" />
    <glyph glyph-name="dieresis" unicode="&#xa8;" 
d="M510 659q-10 -46 -61 -46q-24 0 -37 14.5t-8 35.5l6 22q5 22 21.5 34.5t39.5 12.5t36.5 -15t8.5 -35zM320 659q-5 -22 -21.5 -34t-39.5 -12q-24 0 -37 14t-9 36l6 22q5 22 21.5 34.5t39.5 12.5t37 -15t9 -35z" />
    <glyph glyph-name="copyright" unicode="&#xa9;" horiz-adv-x="873" 
d="M460 -12q-157 0 -266.5 110t-109.5 265t110.5 266t267.5 111t266 -110t109 -265t-110 -266t-267 -111zM460 22q145 0 243 100t98 243t-97.5 242t-241.5 99q-145 0 -243 -100t-98 -243t97.5 -242t241.5 -99zM465 168q-83 0 -139 58.5t-56 141.5v2q0 83 56.5 142t140.5 59
q77 0 135 -48q13 -11 13 -27q0 -13 -9 -21.5t-22 -8.5q-11 0 -22 8q-45 38 -96 38q-56 0 -94 -41.5t-38 -99.5v-2q0 -58 38.5 -100t94.5 -42q53 0 101 40q8 8 20 8t20.5 -8.5t8.5 -20.5q0 -14 -10 -22q-61 -56 -142 -56z" />
    <glyph glyph-name="ordfeminine" unicode="&#xaa;" horiz-adv-x="416" 
d="M224 466q34 0 65.5 24t41.5 58l3 12q-44 12 -79 12q-36 0 -58.5 -17.5t-22.5 -45.5q0 -19 14 -31t36 -12zM277 680q-30 0 -59 -9q-12 -3 -17 -3q-23 0 -23 24q0 20 21 26q40 14 90 14q57 0 88 -24.5t31 -68.5q0 -17 -7 -42l-38 -143q-8 -30 -33 -30q-15 0 -21.5 8.5
t-3.5 21.5l5 20q-47 -52 -108 -52q-38 0 -63 22t-25 58q0 51 37.5 81t96.5 30q42 0 96 -16l2 7q3 10 3 24q0 52 -72 52zM87 298q-11 0 -18.5 8t-7.5 18q0 11 7.5 18.5t18.5 7.5h227q11 0 18.5 -7.5t7.5 -18.5q0 -10 -8 -18t-18 -8h-227z" />
    <glyph glyph-name="guillemotleft" unicode="&#xab;" horiz-adv-x="599" 
d="M309 286l189 184q25 23 41 23q17 0 27 -10.5t10 -26.5q0 -17 -14 -31l-172 -168l72 -151q7 -15 7 -27q0 -16 -12 -27.5t-29 -11.5q-27 0 -39 26l-83 166q-10 20 -10 28q0 13 13 26zM69 286l190 184q23 23 41 23q16 0 26 -10t10 -27q0 -19 -14 -31l-171 -168l72 -151
q6 -16 6 -27q0 -16 -12 -27.5t-29 -11.5q-27 0 -39 26l-83 166q-10 20 -10 28q0 13 13 26z" />
    <glyph glyph-name="registered" unicode="&#xae;" horiz-adv-x="423" 
d="M289 374q-76 0 -128.5 53.5t-52.5 127.5v1q0 75 53 128.5t128 53.5q76 0 128.5 -53t52.5 -128v-1q0 -74 -53 -128t-128 -54zM289 394q68 0 114 47.5t46 114.5v1q0 67 -46 114.5t-114 47.5q-67 0 -113.5 -48t-46.5 -115v-1q0 -67 46 -114t114 -47zM217 483v150q0 8 6 14
t14 6h65q33 0 53 -15.5t20 -44.5q0 -42 -40 -57l33 -39q6 -7 6 -15t-5.5 -13.5t-13.5 -5.5q-9 0 -17 10l-47 57h-35v-47q0 -8 -5.5 -14t-13.5 -6t-14 6t-6 14zM256 561h43q36 0 36 29t-36 29h-43v-58z" />
    <glyph glyph-name="macron" unicode="&#xaf;" 
d="M511 637h-275q-16 0 -26.5 11t-10.5 26t10.5 26t26.5 11h275q15 0 26 -11t11 -26t-11 -26t-26 -11z" />
    <glyph glyph-name="degree" unicode="&#xb0;" horiz-adv-x="424" 
d="M242 407q-65 0 -105 40.5t-40 102.5q0 74 54 129.5t129 55.5q65 0 105 -40.5t40 -102.5q0 -74 -54 -129.5t-129 -55.5zM246 466q46 0 80 37.5t34 84.5q0 40 -23.5 64t-61.5 24q-46 0 -79.5 -37t-33.5 -84q0 -40 23.5 -64.5t60.5 -24.5z" />
    <glyph glyph-name="plusminus" unicode="&#xb1;" horiz-adv-x="663" 
d="M405 381l-42 -157q-13 -46 -49 -46q-22 0 -32 16t-3 40l39 147h-154q-17 0 -29.5 12.5t-12.5 29.5q0 18 12.5 30.5t29.5 12.5h177l42 157q11 45 49 45q22 0 32 -15t3 -40l-39 -147h154q17 0 29.5 -12.5t12.5 -29.5t-12.5 -30t-29.5 -13h-177zM480 0h-419q-17 0 -29 12
t-12 29t12 29t29 12h419q17 0 29 -12t12 -29t-12 -29t-29 -12z" />
    <glyph glyph-name="acute" unicode="&#xb4;" 
d="M453 709l-97 -73q-29 -22 -60 -22q-27 0 -27 18q0 10 9 19l86 94q24 24 42 24q21 0 42 -11.5t21 -24.5q0 -12 -16 -24z" />
    <glyph glyph-name="paragraph" unicode="&#xb6;" horiz-adv-x="562" 
d="M566 677l-170 -636q-13 -46 -54 -46q-24 0 -35.5 16.5t-3.5 43.5l52 197q-115 5 -182.5 54.5t-67.5 148.5q0 125 92 199t258 74h72q23 0 34 -14.5t5 -36.5z" />
    <glyph glyph-name="periodcentered" unicode="&#xb7;" horiz-adv-x="287" 
d="M212 326l-7 -27q-5 -23 -21.5 -36t-41.5 -13t-39 15t-10 38l7 26q5 23 22 36.5t41 13.5q25 0 39.5 -15t9.5 -38z" />
    <glyph glyph-name="cedilla" unicode="&#xb8;" 
d="M270 10l-107 -148q-15 -21 -35 -21q-16 0 -30.5 11.5t-14.5 24.5q0 12 12 27l102 106h73z" />
    <glyph glyph-name="ordmasculine" unicode="&#xba;" horiz-adv-x="421" 
d="M260 420q-63 0 -101.5 38.5t-38.5 98.5q0 71 51.5 123.5t123.5 52.5q62 0 101 -38.5t39 -98.5q0 -70 -51.5 -123t-123.5 -53zM263 473q46 0 78.5 36.5t32.5 84.5q0 39 -22.5 63t-59.5 24q-47 0 -79.5 -37t-32.5 -84q0 -39 23 -63t60 -24zM89 298q-11 0 -18.5 8t-7.5 18
q0 11 7.5 18.5t18.5 7.5h246q11 0 18.5 -7.5t7.5 -18.5q0 -10 -7.5 -18t-18.5 -8h-246z" />
    <glyph glyph-name="guillemotright" unicode="&#xbb;" horiz-adv-x="599" 
d="M288 251l-189 -185q-24 -22 -41 -22t-27 10t-10 26q0 18 14 32l172 168l-72 151q-7 14 -7 27q0 16 12 27.5t29 11.5q27 0 39 -26l83 -167q10 -18 10 -28q0 -14 -13 -25zM528 251l-190 -185q-22 -22 -41 -22q-17 0 -26.5 10t-9.5 26q0 20 14 32l171 168l-72 151
q-6 15 -6 27q0 16 12 27.5t29 11.5q27 0 39 -26l83 -167q10 -18 10 -28q0 -14 -13 -25z" />
    <glyph glyph-name="questiondown" unicode="&#xbf;" horiz-adv-x="570" 
d="M482 654q-5 -23 -22 -37t-41 -14q-25 0 -39.5 15.5t-9.5 38.5l6 26q5 23 22 36.5t42 13.5t38.5 -15.5t9.5 -37.5zM435 139q19 13 34 13q17 0 28.5 -12t11.5 -27q0 -23 -19 -37q-97 -85 -225 -85q-99 0 -158.5 52.5t-59.5 132.5q0 95 73.5 154t198.5 78l29 82q11 30 37 30
h4q14 0 21.5 -10t5.5 -26l-19 -110q-4 -30 -42 -36q-94 -11 -151 -50.5t-57 -103.5q0 -50 35.5 -78t93.5 -28q80 0 159 61z" />
    <glyph glyph-name="Agrave" unicode="&#xc0;" horiz-adv-x="791" 
d="M495 819l-57 74q-10 13 -10 23q0 13 19 24t40 11q30 0 40 -26l35 -92q3 -9 3 -16q0 -20 -28 -20q-25 0 -42 22zM585 691l117 -624q3 -24 3 -26q0 -19 -13.5 -32.5t-34.5 -13.5q-41 0 -48 41l-27 152h-386l-115 -161q-23 -32 -50 -32q-18 0 -29 10.5t-11 28.5q0 17 11 31
l457 631q29 41 69 41h3q45 0 54 -46zM256 274h311l-62 348z" />
    <glyph glyph-name="Aacute" unicode="&#xc1;" horiz-adv-x="791" 
d="M711 892l-97 -73q-29 -22 -60 -22q-27 0 -27 18q0 10 9 19l86 94q24 24 42 24q21 0 42 -12t21 -24t-16 -24zM585 691l117 -624q3 -24 3 -26q0 -19 -13.5 -32.5t-34.5 -13.5q-41 0 -48 41l-27 152h-386l-115 -161q-23 -32 -50 -32q-18 0 -29 10.5t-11 28.5q0 17 11 31
l457 631q29 41 69 41h3q45 0 54 -46zM256 274h311l-62 348z" />
    <glyph glyph-name="Acircumflex" unicode="&#xc2;" horiz-adv-x="791" 
d="M639 920l45 -85q9 -16 9 -21q0 -17 -23 -17q-37 0 -57 23l-42 52l-75 -53q-34 -22 -60 -22q-22 0 -22 16q0 11 12 22l93 87q25 25 53 25h22q30 0 45 -27zM585 691l117 -624q3 -24 3 -26q0 -19 -13.5 -32.5t-34.5 -13.5q-41 0 -48 41l-27 152h-386l-115 -161
q-23 -32 -50 -32q-18 0 -29 10.5t-11 28.5q0 17 11 31l457 631q29 41 69 41h3q45 0 54 -46zM256 274h311l-62 348z" />
    <glyph glyph-name="Atilde" unicode="&#xc3;" horiz-adv-x="791" 
d="M415 797q-13 0 -22 8t-9 20t8 25q51 89 114 89q36 0 75 -34q13 -11 17 -14t11.5 -8t12.5 -6.5t11 -1.5q26 0 55 44q15 19 31 19q13 0 22 -8t9 -20t-8 -25q-51 -89 -114 -89q-16 0 -30 5t-22 10.5t-23 18.5q-13 11 -17 14t-11.5 8t-12.5 6.5t-11 1.5q-26 0 -55 -44
q-15 -19 -31 -19zM585 691l117 -624q3 -24 3 -26q0 -19 -13.5 -32.5t-34.5 -13.5q-41 0 -48 41l-27 152h-386l-115 -161q-23 -32 -50 -32q-18 0 -29 10.5t-11 28.5q0 17 11 31l457 631q29 41 69 41h3q45 0 54 -46zM256 274h311l-62 348z" />
    <glyph glyph-name="Adieresis" unicode="&#xc4;" horiz-adv-x="791" 
d="M710 842q-10 -46 -61 -46q-24 0 -37 14.5t-8 35.5l6 22q5 22 21.5 34.5t39.5 12.5t36.5 -15t8.5 -35zM520 842q-5 -22 -21.5 -34t-39.5 -12q-24 0 -37 14t-9 36l6 22q5 22 21.5 34.5t39.5 12.5t37 -15t9 -35zM585 691l117 -624q3 -24 3 -26q0 -19 -13.5 -32.5
t-34.5 -13.5q-41 0 -48 41l-27 152h-386l-115 -161q-23 -32 -50 -32q-18 0 -29 10.5t-11 28.5q0 17 11 31l457 631q29 41 69 41h3q45 0 54 -46zM256 274h311l-62 348z" />
    <glyph glyph-name="Aring" unicode="&#xc5;" horiz-adv-x="791" 
d="M31 -5q-18 0 -29 10.5t-11 28.5q0 17 11 31l469 647q-40 26 -40 75t36 84t86 35q47 0 76.5 -27t29.5 -67q0 -37 -21.5 -66.5t-55.5 -42.5l120 -636q3 -24 3 -26q0 -19 -13.5 -32.5t-34.5 -13.5q-41 0 -48 41l-27 152h-386l-115 -161q-23 -32 -50 -32zM537 735
q31 0 51.5 22.5t20.5 53.5q0 23 -15 37.5t-42 14.5q-30 0 -51 -22.5t-21 -53.5q0 -23 15.5 -37.5t41.5 -14.5zM256 274h311l-62 348z" />
    <glyph glyph-name="AE" unicode="&#xc6;" horiz-adv-x="1117" 
d="M297 274h238l99 369h-24zM611 728h506q18 0 31 -13t13 -31t-13 -30.5t-31 -12.5h-387l-62 -231h317q18 0 31 -12.5t13 -30.5t-13 -30.5t-31 -12.5h-340l-64 -237h369q18 0 31 -13t13 -31t-13 -30.5t-31 -12.5h-433q-23 0 -35 16t-5 42l36 130h-286l-137 -162
q-26 -31 -51 -31q-17 0 -27.5 10t-10.5 26q0 19 15 38l528 620q32 39 67 39z" />
    <glyph glyph-name="Ccedilla" unicode="&#xc7;" horiz-adv-x="773" 
d="M310 -138q-15 -21 -35 -21q-16 0 -30.5 11.5t-14.5 24.5q0 12 12 27l87 91q-107 22 -173 100.5t-66 195.5q0 116 58.5 219.5t160 166.5t219.5 63q161 0 247 -113q18 -20 18 -41q-1 -20 -14.5 -34t-34.5 -14q-23 0 -36 16q-34 47 -77.5 72.5t-111.5 25.5
q-133 0 -230.5 -108t-97.5 -249q0 -99 61 -159t158 -60q60 0 103 18t91 58q17 13 33 13q19 0 31.5 -13t12.5 -32t-17 -36q-107 -97 -258 -97h-6z" />
    <glyph glyph-name="Egrave" unicode="&#xc8;" horiz-adv-x="692" 
d="M448 809l-57 74q-10 13 -10 23q0 13 19 24t40 11q30 0 40 -26l35 -92q3 -9 3 -16q0 -20 -28 -20q-25 0 -42 22zM535 0h-447q-23 0 -35 16t-5 42l167 622q6 22 20.5 35t33.5 13h433q18 0 31 -13t13 -31t-13 -30.5t-31 -12.5h-401l-62 -231h331q18 0 31 -12.5t13 -30.5
t-13 -30.5t-31 -12.5h-355l-63 -237h383q18 0 31 -13t13 -31t-13 -30.5t-31 -12.5z" />
    <glyph glyph-name="Eacute" unicode="&#xc9;" horiz-adv-x="692" 
d="M664 882l-97 -73q-29 -22 -60 -22q-27 0 -27 18q0 10 9 19l86 94q24 24 42 24q21 0 42 -12t21 -24t-16 -24zM535 0h-447q-23 0 -35 16t-5 42l167 622q6 22 20.5 35t33.5 13h433q18 0 31 -13t13 -31t-13 -30.5t-31 -12.5h-401l-62 -231h331q18 0 31 -12.5t13 -30.5
t-13 -30.5t-31 -12.5h-355l-63 -237h383q18 0 31 -13t13 -31t-13 -30.5t-31 -12.5z" />
    <glyph glyph-name="Ecircumflex" unicode="&#xca;" horiz-adv-x="692" 
d="M591 910l45 -85q9 -16 9 -21q0 -17 -23 -17q-37 0 -57 23l-42 52l-75 -53q-34 -22 -60 -22q-22 0 -22 16q0 11 12 22l93 87q25 25 53 25h22q30 0 45 -27zM535 0h-447q-23 0 -35 16t-5 42l167 622q6 22 20.5 35t33.5 13h433q18 0 31 -13t13 -31t-13 -30.5t-31 -12.5h-401
l-62 -231h331q18 0 31 -12.5t13 -30.5t-13 -30.5t-31 -12.5h-355l-63 -237h383q18 0 31 -13t13 -31t-13 -30.5t-31 -12.5z" />
    <glyph glyph-name="Edieresis" unicode="&#xcb;" horiz-adv-x="692" 
d="M662 832q-10 -46 -61 -46q-24 0 -37 14.5t-8 35.5l6 22q5 22 21.5 34.5t39.5 12.5t36.5 -15t8.5 -35zM472 832q-5 -22 -21.5 -34t-39.5 -12q-24 0 -37 14t-9 36l6 22q5 22 21.5 34.5t39.5 12.5t37 -15t9 -35zM535 0h-447q-23 0 -35 16t-5 42l167 622q6 22 20.5 35
t33.5 13h433q18 0 31 -13t13 -31t-13 -30.5t-31 -12.5h-401l-62 -231h331q18 0 31 -12.5t13 -30.5t-13 -30.5t-31 -12.5h-355l-63 -237h383q18 0 31 -13t13 -31t-13 -30.5t-31 -12.5z" />
    <glyph glyph-name="Igrave" unicode="&#xcc;" horiz-adv-x="321" 
d="M244 809l-57 74q-10 13 -10 23q0 13 19 24t40 11q30 0 40 -26l35 -92q3 -9 3 -16q0 -20 -28 -20q-25 0 -42 22zM317 673l-170 -632q-13 -46 -53 -46q-24 0 -35.5 16.5t-3.5 43.5l169 632q13 46 53 46q23 0 35 -16t5 -44z" />
    <glyph glyph-name="Iacute" unicode="&#xcd;" horiz-adv-x="321" 
d="M461 882l-97 -73q-29 -22 -60 -22q-27 0 -27 18q0 10 9 19l86 94q24 24 42 24q21 0 42 -12t21 -24t-16 -24zM317 673l-170 -632q-13 -46 -53 -46q-24 0 -35.5 16.5t-3.5 43.5l169 632q13 46 53 46q23 0 35 -16t5 -44z" />
    <glyph glyph-name="Icircumflex" unicode="&#xce;" horiz-adv-x="321" 
d="M388 910l45 -85q9 -16 9 -21q0 -17 -23 -17q-37 0 -57 23l-42 52l-75 -53q-34 -22 -60 -22q-22 0 -22 16q0 11 12 22l93 87q25 25 53 25h22q30 0 45 -27zM317 673l-170 -632q-13 -46 -53 -46q-24 0 -35.5 16.5t-3.5 43.5l169 632q13 46 53 46q23 0 35 -16t5 -44z" />
    <glyph glyph-name="Idieresis" unicode="&#xcf;" horiz-adv-x="321" 
d="M460 832q-10 -46 -61 -46q-24 0 -37 14.5t-8 35.5l6 22q5 22 21.5 34.5t39.5 12.5t36.5 -15t8.5 -35zM270 832q-5 -22 -21.5 -34t-39.5 -12q-24 0 -37 14t-9 36l6 22q5 22 21.5 34.5t39.5 12.5t37 -15t9 -35zM317 673l-170 -632q-13 -46 -53 -46q-24 0 -35.5 16.5
t-3.5 43.5l169 632q13 46 53 46q23 0 35 -16t5 -44z" />
    <glyph glyph-name="Eth" unicode="&#xd0;" horiz-adv-x="841" 
d="M311 0h-196q-23 0 -35 16t-5 42l71 265h-31q-18 0 -30.5 12.5t-12.5 30.5t12.5 30.5t30.5 12.5h54l73 271q6 22 20.5 35t33.5 13h142q186 0 284 -96q79 -79 79 -210q0 -168 -116 -284q-138 -138 -374 -138zM180 88h142q181 0 291 110q88 88 88 219q0 95 -58 153
q-70 70 -212 70h-103l-62 -231h153q18 0 31 -12.5t13 -30.5t-13 -30.5t-31 -12.5h-176z" />
    <glyph glyph-name="Ntilde" unicode="&#xd1;" horiz-adv-x="827" 
d="M418 787q-13 0 -22 8t-9 20t8 25q51 89 114 89q36 0 75 -34q13 -11 17 -14t11.5 -8t12.5 -6.5t11 -1.5q26 0 55 44q15 19 31 19q13 0 22 -8t9 -20t-8 -25q-51 -89 -114 -89q-16 0 -30 5t-22 10.5t-23 18.5q-13 11 -17 14t-11.5 8t-12.5 6.5t-11 1.5q-26 0 -55 -44
q-15 -19 -31 -19zM598 160l142 527q13 46 52 46q23 0 34.5 -16t4.5 -44l-170 -633q-13 -44 -50 -44h-2q-36 0 -53 38l-273 548l-145 -541q-13 -46 -52 -46q-23 0 -34.5 16t-4.5 44l169 628q13 49 56 49h5q38 0 58 -42z" />
    <glyph glyph-name="Ograve" unicode="&#xd2;" horiz-adv-x="884" 
d="M517 819l-57 74q-10 13 -10 23q0 13 19 24t40 11q30 0 40 -26l35 -92q3 -9 3 -16q0 -20 -28 -20q-25 0 -42 22zM414 -13q-141 0 -231 90.5t-90 226.5q0 111 55 211t154 162.5t217 62.5q142 0 232 -90.5t90 -225.5q0 -112 -55 -212t-154.5 -162.5t-217.5 -62.5zM422 75
q89 0 163.5 50.5t115 129.5t40.5 165q0 101 -62.5 166.5t-166.5 65.5q-89 0 -163.5 -50.5t-115 -129t-40.5 -164.5q0 -102 62.5 -167.5t166.5 -65.5z" />
    <glyph glyph-name="Oacute" unicode="&#xd3;" horiz-adv-x="884" 
d="M734 892l-97 -73q-29 -22 -60 -22q-27 0 -27 18q0 10 9 19l86 94q24 24 42 24q21 0 42 -12t21 -24t-16 -24zM414 -13q-141 0 -231 90.5t-90 226.5q0 111 55 211t154 162.5t217 62.5q142 0 232 -90.5t90 -225.5q0 -112 -55 -212t-154.5 -162.5t-217.5 -62.5zM422 75
q89 0 163.5 50.5t115 129.5t40.5 165q0 101 -62.5 166.5t-166.5 65.5q-89 0 -163.5 -50.5t-115 -129t-40.5 -164.5q0 -102 62.5 -167.5t166.5 -65.5z" />
    <glyph glyph-name="Ocircumflex" unicode="&#xd4;" horiz-adv-x="884" 
d="M660 920l45 -85q9 -16 9 -21q0 -17 -23 -17q-37 0 -57 23l-42 52l-75 -53q-34 -22 -60 -22q-22 0 -22 16q0 11 12 22l93 87q25 25 53 25h22q30 0 45 -27zM414 -13q-141 0 -231 90.5t-90 226.5q0 111 55 211t154 162.5t217 62.5q142 0 232 -90.5t90 -225.5
q0 -112 -55 -212t-154.5 -162.5t-217.5 -62.5zM422 75q89 0 163.5 50.5t115 129.5t40.5 165q0 101 -62.5 166.5t-166.5 65.5q-89 0 -163.5 -50.5t-115 -129t-40.5 -164.5q0 -102 62.5 -167.5t166.5 -65.5z" />
    <glyph glyph-name="Otilde" unicode="&#xd5;" horiz-adv-x="884" 
d="M437 797q-13 0 -22 8t-9 20t8 25q51 89 114 89q36 0 75 -34q13 -11 17 -14t11.5 -8t12.5 -6.5t11 -1.5q26 0 55 44q15 19 31 19q13 0 22 -8t9 -20t-8 -25q-51 -89 -114 -89q-16 0 -30 5t-22 10.5t-23 18.5q-13 11 -17 14t-11.5 8t-12.5 6.5t-11 1.5q-26 0 -55 -44
q-15 -19 -31 -19zM414 -13q-141 0 -231 90.5t-90 226.5q0 111 55 211t154 162.5t217 62.5q142 0 232 -90.5t90 -225.5q0 -112 -55 -212t-154.5 -162.5t-217.5 -62.5zM422 75q89 0 163.5 50.5t115 129.5t40.5 165q0 101 -62.5 166.5t-166.5 65.5q-89 0 -163.5 -50.5
t-115 -129t-40.5 -164.5q0 -102 62.5 -167.5t166.5 -65.5z" />
    <glyph glyph-name="Odieresis" unicode="&#xd6;" horiz-adv-x="884" 
d="M732 842q-10 -46 -61 -46q-24 0 -37 14.5t-8 35.5l6 22q5 22 21.5 34.5t39.5 12.5t36.5 -15t8.5 -35zM542 842q-5 -22 -21.5 -34t-39.5 -12q-24 0 -37 14t-9 36l6 22q5 22 21.5 34.5t39.5 12.5t37 -15t9 -35zM414 -13q-141 0 -231 90.5t-90 226.5q0 111 55 211t154 162.5
t217 62.5q142 0 232 -90.5t90 -225.5q0 -112 -55 -212t-154.5 -162.5t-217.5 -62.5zM422 75q89 0 163.5 50.5t115 129.5t40.5 165q0 101 -62.5 166.5t-166.5 65.5q-89 0 -163.5 -50.5t-115 -129t-40.5 -164.5q0 -102 62.5 -167.5t166.5 -65.5z" />
    <glyph glyph-name="multiply" unicode="&#xd7;" horiz-adv-x="663" 
d="M417 360l108 -144q11 -14 11 -30q0 -18 -13 -31.5t-32 -13.5q-23 0 -38 20l-104 147l-196 -156q-11 -10 -28 -10q-16 0 -28 12.5t-12 29.5q0 20 18 34l197 154l-107 145q-11 14 -11 30q0 18 13 31.5t32 13.5q24 0 37 -20l105 -147l196 156q11 10 27 10q17 0 29 -12.5
t12 -29.5q0 -21 -18 -34z" />
    <glyph glyph-name="Oslash" unicode="&#xd8;" horiz-adv-x="884" 
d="M181 81l-89 -74q-19 -17 -38 -17q-14 0 -22 8.5t-8 21.5q0 16 19 33l96 81q-46 74 -46 170q0 111 55 211t154 162.5t217 62.5q143 0 234 -93l88 74q21 17 37 17q31 0 31 -29q0 -17 -19 -34l-95 -81q46 -78 46 -170q0 -112 -55 -212t-154.5 -162.5t-217.5 -62.5
q-142 0 -233 94zM191 308q0 -65 24 -113l466 391q-64 69 -169 69q-89 0 -164 -51t-116 -130.5t-41 -165.5zM422 72q89 0 164 51.5t116 131t41 165.5q0 61 -25 111l-466 -390q63 -69 170 -69z" />
    <glyph glyph-name="Ugrave" unicode="&#xd9;" horiz-adv-x="800" 
d="M474 809l-57 74q-10 13 -10 23q0 13 19 24t40 11q30 0 40 -26l35 -92q3 -9 3 -16q0 -20 -28 -20q-25 0 -42 22zM811 673l-101 -379q-37 -136 -114 -215q-92 -90 -231 -90q-127 0 -196.5 64t-69.5 171q0 51 15 114l93 349q13 46 54 46q23 0 34.5 -16t4.5 -44l-94 -356
q-11 -40 -11 -81q0 -71 46 -115t133 -44q91 0 154 63q59 59 90 170l101 377q13 46 53 46q24 0 35.5 -16.5t3.5 -43.5z" />
    <glyph glyph-name="Uacute" unicode="&#xda;" horiz-adv-x="800" 
d="M691 882l-97 -73q-29 -22 -60 -22q-27 0 -27 18q0 10 9 19l86 94q24 24 42 24q21 0 42 -12t21 -24t-16 -24zM811 673l-101 -379q-37 -136 -114 -215q-92 -90 -231 -90q-127 0 -196.5 64t-69.5 171q0 51 15 114l93 349q13 46 54 46q23 0 34.5 -16t4.5 -44l-94 -356
q-11 -40 -11 -81q0 -71 46 -115t133 -44q91 0 154 63q59 59 90 170l101 377q13 46 53 46q24 0 35.5 -16.5t3.5 -43.5z" />
    <glyph glyph-name="Ucircumflex" unicode="&#xdb;" horiz-adv-x="800" 
d="M618 910l45 -85q9 -16 9 -21q0 -17 -23 -17q-37 0 -57 23l-42 52l-75 -53q-34 -22 -60 -22q-22 0 -22 16q0 11 12 22l93 87q25 25 53 25h22q30 0 45 -27zM811 673l-101 -379q-37 -136 -114 -215q-92 -90 -231 -90q-127 0 -196.5 64t-69.5 171q0 51 15 114l93 349
q13 46 54 46q23 0 34.5 -16t4.5 -44l-94 -356q-11 -40 -11 -81q0 -71 46 -115t133 -44q91 0 154 63q59 59 90 170l101 377q13 46 53 46q24 0 35.5 -16.5t3.5 -43.5z" />
    <glyph glyph-name="Udieresis" unicode="&#xdc;" horiz-adv-x="800" 
d="M690 832q-10 -46 -61 -46q-24 0 -37 14.5t-8 35.5l6 22q5 22 21.5 34.5t39.5 12.5t36.5 -15t8.5 -35zM500 832q-5 -22 -21.5 -34t-39.5 -12q-24 0 -37 14t-9 36l6 22q5 22 21.5 34.5t39.5 12.5t37 -15t9 -35zM811 673l-101 -379q-37 -136 -114 -215q-92 -90 -231 -90
q-127 0 -196.5 64t-69.5 171q0 51 15 114l93 349q13 46 54 46q23 0 34.5 -16t4.5 -44l-94 -356q-11 -40 -11 -81q0 -71 46 -115t133 -44q91 0 154 63q59 59 90 170l101 377q13 46 53 46q24 0 35.5 -16.5t3.5 -43.5z" />
    <glyph glyph-name="Yacute" unicode="&#xdd;" horiz-adv-x="697" 
d="M634 882l-97 -73q-29 -22 -60 -22q-27 0 -27 18q0 10 9 19l86 94q24 24 42 24q21 0 42 -12t21 -24t-16 -24zM391 276l-62 -235q-13 -46 -53 -46q-23 0 -35 16t-5 44l63 235l-156 362q-9 20 -9 35q0 20 14 33t36 13q34 0 48 -39l133 -323l318 335q25 27 52 27
q18 0 29.5 -11t11.5 -29q0 -20 -18 -40z" />
    <glyph glyph-name="Thorn" unicode="&#xde;" horiz-adv-x="713" 
d="M424 606q143 0 212 -69q52 -52 52 -137q0 -127 -97.5 -198.5t-259.5 -71.5h-166l-25 -89q-13 -46 -53 -46q-23 0 -35 16t-5 44l170 632q13 46 53 46q23 0 34.5 -16t4.5 -44l-17 -67h132zM187 215h149q120 0 186.5 46.5t66.5 131.5q0 50 -32 82q-44 44 -136 44h-153z" />
    <glyph glyph-name="germandbls" unicode="&#xdf;" horiz-adv-x="660" 
d="M367 415q176 49 176 165q0 48 -32.5 76.5t-86.5 28.5q-63 0 -108 -46t-67 -130l-125 -468q-13 -46 -52 -46q-23 0 -34 16t-4 43l125 467q31 113 91 173q72 72 178 72q93 0 150 -50.5t57 -128.5q0 -153 -196 -211q143 -44 143 -160q0 -95 -85 -156.5t-213 -61.5
q-42 0 -42 39q0 34 36 37q108 6 159.5 45.5t51.5 98.5q0 80 -120 115q-36 10 -36 40q0 33 34 42z" />
    <glyph glyph-name="agrave" unicode="&#xe0;" horiz-adv-x="611" 
d="M327 636l-57 74q-10 13 -10 23q0 13 19 24t40 11q30 0 40 -26l35 -92q3 -9 3 -16q0 -20 -28 -20q-25 0 -42 22zM224 60q66 0 123 42.5t75 108.5l10 34q-81 22 -162 22q-68 0 -110 -33t-42 -86q0 -40 28.5 -64t77.5 -24zM415 -5q-24 0 -33.5 13.5t-6.5 32.5l11 40
q-81 -93 -195 -93q-71 0 -120 40.5t-49 108.5q0 90 67 143t173 53q90 0 185 -28l3 12q7 24 7 48q0 101 -138 101q-63 0 -119 -18q-18 -3 -19 -3q-16 0 -26.5 11t-10.5 28q0 31 31 39q78 26 160 26q103 0 158.5 -44.5t55.5 -123.5q0 -31 -12 -76l-70 -264q-13 -46 -52 -46z
" />
    <glyph glyph-name="aacute" unicode="&#xe1;" horiz-adv-x="611" 
d="M544 709l-97 -73q-29 -22 -60 -22q-27 0 -27 18q0 10 9 19l86 94q24 24 42 24q21 0 42 -11.5t21 -24.5q0 -12 -16 -24zM224 60q66 0 123 42.5t75 108.5l10 34q-81 22 -162 22q-68 0 -110 -33t-42 -86q0 -40 28.5 -64t77.5 -24zM415 -5q-24 0 -33.5 13.5t-6.5 32.5l11 40
q-81 -93 -195 -93q-71 0 -120 40.5t-49 108.5q0 90 67 143t173 53q90 0 185 -28l3 12q7 24 7 48q0 101 -138 101q-63 0 -119 -18q-18 -3 -19 -3q-16 0 -26.5 11t-10.5 28q0 31 31 39q78 26 160 26q103 0 158.5 -44.5t55.5 -123.5q0 -31 -12 -76l-70 -264q-13 -46 -52 -46z
" />
    <glyph glyph-name="acircumflex" unicode="&#xe2;" horiz-adv-x="611" 
d="M471 737l45 -85q9 -16 9 -21q0 -17 -23 -17q-37 0 -57 23l-42 52l-75 -53q-34 -22 -60 -22q-22 0 -22 16q0 12 12 22l93 87q25 25 53 25h22q30 0 45 -27zM224 60q66 0 123 42.5t75 108.5l10 34q-81 22 -162 22q-68 0 -110 -33t-42 -86q0 -40 28.5 -64t77.5 -24zM415 -5
q-24 0 -33.5 13.5t-6.5 32.5l11 40q-81 -93 -195 -93q-71 0 -120 40.5t-49 108.5q0 90 67 143t173 53q90 0 185 -28l3 12q7 24 7 48q0 101 -138 101q-63 0 -119 -18q-18 -3 -19 -3q-16 0 -26.5 11t-10.5 28q0 31 31 39q78 26 160 26q103 0 158.5 -44.5t55.5 -123.5
q0 -31 -12 -76l-70 -264q-13 -46 -52 -46z" />
    <glyph glyph-name="atilde" unicode="&#xe3;" horiz-adv-x="611" 
d="M247 614q-13 0 -22 8t-9 20t8 25q51 89 114 89q36 0 75 -34q13 -11 17 -14t11.5 -8t12.5 -6.5t11 -1.5q26 0 55 44q15 19 31 19q13 0 22 -8t9 -20t-8 -25q-51 -89 -114 -89q-16 0 -30 5t-22 10.5t-23 18.5q-13 11 -17 14t-11.5 8t-12.5 6.5t-11 1.5q-26 0 -55 -44
q-15 -19 -31 -19zM224 60q66 0 123 42.5t75 108.5l10 34q-81 22 -162 22q-68 0 -110 -33t-42 -86q0 -40 28.5 -64t77.5 -24zM415 -5q-24 0 -33.5 13.5t-6.5 32.5l11 40q-81 -93 -195 -93q-71 0 -120 40.5t-49 108.5q0 90 67 143t173 53q90 0 185 -28l3 12q7 24 7 48
q0 101 -138 101q-63 0 -119 -18q-18 -3 -19 -3q-16 0 -26.5 11t-10.5 28q0 31 31 39q78 26 160 26q103 0 158.5 -44.5t55.5 -123.5q0 -31 -12 -76l-70 -264q-13 -46 -52 -46z" />
    <glyph glyph-name="adieresis" unicode="&#xe4;" horiz-adv-x="611" 
d="M542 659q-10 -46 -61 -46q-24 0 -37 14.5t-8 35.5l6 22q5 22 21.5 34.5t39.5 12.5t36.5 -15t8.5 -35zM352 659q-5 -22 -21.5 -34t-39.5 -12q-24 0 -37 14t-9 36l6 22q5 22 21.5 34.5t39.5 12.5t37 -15t9 -35zM224 60q66 0 123 42.5t75 108.5l10 34q-81 22 -162 22
q-68 0 -110 -33t-42 -86q0 -40 28.5 -64t77.5 -24zM415 -5q-24 0 -33.5 13.5t-6.5 32.5l11 40q-81 -93 -195 -93q-71 0 -120 40.5t-49 108.5q0 90 67 143t173 53q90 0 185 -28l3 12q7 24 7 48q0 101 -138 101q-63 0 -119 -18q-18 -3 -19 -3q-16 0 -26.5 11t-10.5 28
q0 31 31 39q78 26 160 26q103 0 158.5 -44.5t55.5 -123.5q0 -31 -12 -76l-70 -264q-13 -46 -52 -46z" />
    <glyph glyph-name="aring" unicode="&#xe5;" horiz-adv-x="611" 
d="M402 618q-47 0 -75.5 26.5t-28.5 67.5q0 49 37 84.5t87 35.5q46 0 74.5 -27t28.5 -68q0 -49 -36.5 -84t-86.5 -35zM403 661q31 0 52 22t21 53q0 23 -14.5 38t-41.5 15q-30 0 -51.5 -22.5t-21.5 -53.5q0 -23 14.5 -37.5t41.5 -14.5zM224 60q66 0 123 42.5t75 108.5l10 34
q-81 22 -162 22q-68 0 -110 -33t-42 -86q0 -40 28.5 -64t77.5 -24zM415 -5q-24 0 -33.5 13.5t-6.5 32.5l11 40q-81 -93 -195 -93q-71 0 -120 40.5t-49 108.5q0 90 67 143t173 53q90 0 185 -28l3 12q7 24 7 48q0 101 -138 101q-63 0 -119 -18q-18 -3 -19 -3q-16 0 -26.5 11
t-10.5 28q0 31 31 39q78 26 160 26q103 0 158.5 -44.5t55.5 -123.5q0 -31 -12 -76l-70 -264q-13 -46 -52 -46z" />
    <glyph glyph-name="ae" unicode="&#xe6;" horiz-adv-x="1003" 
d="M536 305h328q5 17 5 41q0 56 -32 92t-95 36q-73 0 -128 -48t-78 -121zM959 344q0 -36 -7 -64q-9 -42 -49 -42h-378q0 -4 -0.5 -11t-0.5 -10q2 -69 43.5 -109.5t112.5 -40.5q76 0 135 45q18 10 31 10q16 0 26.5 -10.5t10.5 -26.5q0 -20 -18 -34q-80 -63 -191 -63
q-153 0 -211 120q-117 -120 -259 -120q-82 0 -132 40.5t-50 112.5q0 88 68.5 140t173.5 52q92 0 183 -28l3 12q7 24 7 48q0 101 -138 101q-62 0 -119 -18q-18 -3 -19 -3q-16 0 -26.5 11t-10.5 28q0 31 31 39q80 26 160 26q77 0 127 -28.5t67 -80.5q92 113 221 113
q98 0 153.5 -59.5t55.5 -149.5zM272 267q-68 0 -111 -32t-43 -84q0 -41 29.5 -66t83.5 -25q113 0 213 106q-5 25 -5 49q0 9 2 27q-73 25 -169 25z" />
    <glyph glyph-name="ccedilla" unicode="&#xe7;" horiz-adv-x="594" 
d="M206 -138q-15 -21 -35 -21q-16 0 -30.5 11.5t-14.5 24.5q0 12 12 27l89 93q-76 20 -124.5 80t-48.5 148q0 133 95 230.5t223 97.5q126 0 193 -91q16 -18 16 -37q0 -18 -13 -30.5t-31 -12.5q-23 0 -36 17q-51 71 -136 71q-86 0 -151 -73t-65 -170q0 -72 44 -114.5
t107 -42.5q69 0 134 51q14 11 30 11q17 0 28 -11t11 -28q0 -18 -15 -33q-86 -72 -191 -72z" />
    <glyph glyph-name="egrave" unicode="&#xe8;" horiz-adv-x="626" 
d="M346 636l-57 74q-10 13 -10 23q0 13 19 24t40 11q30 0 40 -26l35 -92q3 -9 3 -16q0 -20 -28 -20q-25 0 -42 22zM302 67q76 0 135 45q18 10 31 10q16 0 26.5 -10.5t10.5 -26.5q0 -20 -18 -34q-82 -63 -192 -63q-109 0 -175.5 63.5t-66.5 168.5q0 128 92 230.5t225 102.5
q99 0 155 -59.5t56 -149.5q0 -36 -7 -64q-9 -42 -49 -42h-378q-1 -7 -1 -21q2 -69 43.5 -109.5t112.5 -40.5zM158 305h328q4 20 4 41q0 56 -31.5 92t-94.5 36q-73 0 -128 -48t-78 -121z" />
    <glyph glyph-name="eacute" unicode="&#xe9;" horiz-adv-x="626" 
d="M563 709l-97 -73q-29 -22 -60 -22q-27 0 -27 18q0 10 9 19l86 94q24 24 42 24q21 0 42 -11.5t21 -24.5q0 -12 -16 -24zM302 67q76 0 135 45q18 10 31 10q16 0 26.5 -10.5t10.5 -26.5q0 -20 -18 -34q-82 -63 -192 -63q-109 0 -175.5 63.5t-66.5 168.5q0 128 92 230.5
t225 102.5q99 0 155 -59.5t56 -149.5q0 -36 -7 -64q-9 -42 -49 -42h-378q-1 -7 -1 -21q2 -69 43.5 -109.5t112.5 -40.5zM158 305h328q4 20 4 41q0 56 -31.5 92t-94.5 36q-73 0 -128 -48t-78 -121z" />
    <glyph glyph-name="ecircumflex" unicode="&#xea;" horiz-adv-x="626" 
d="M490 737l45 -85q9 -16 9 -21q0 -17 -23 -17q-37 0 -57 23l-42 52l-75 -53q-34 -22 -60 -22q-22 0 -22 16q0 12 12 22l93 87q25 25 53 25h22q30 0 45 -27zM302 67q76 0 135 45q18 10 31 10q16 0 26.5 -10.5t10.5 -26.5q0 -20 -18 -34q-82 -63 -192 -63q-109 0 -175.5 63.5
t-66.5 168.5q0 128 92 230.5t225 102.5q99 0 155 -59.5t56 -149.5q0 -36 -7 -64q-9 -42 -49 -42h-378q-1 -7 -1 -21q2 -69 43.5 -109.5t112.5 -40.5zM158 305h328q4 20 4 41q0 56 -31.5 92t-94.5 36q-73 0 -128 -48t-78 -121z" />
    <glyph glyph-name="edieresis" unicode="&#xeb;" horiz-adv-x="626" 
d="M561 659q-10 -46 -61 -46q-24 0 -37 14.5t-8 35.5l6 22q5 22 21.5 34.5t39.5 12.5t36.5 -15t8.5 -35zM371 659q-5 -22 -21.5 -34t-39.5 -12q-24 0 -37 14t-9 36l6 22q5 22 21.5 34.5t39.5 12.5t37 -15t9 -35zM302 67q76 0 135 45q18 10 31 10q16 0 26.5 -10.5t10.5 -26.5
q0 -20 -18 -34q-82 -63 -192 -63q-109 0 -175.5 63.5t-66.5 168.5q0 128 92 230.5t225 102.5q99 0 155 -59.5t56 -149.5q0 -36 -7 -64q-9 -42 -49 -42h-378q-1 -7 -1 -21q2 -69 43.5 -109.5t112.5 -40.5zM158 305h328q4 20 4 41q0 56 -31.5 92t-94.5 36q-73 0 -128 -48
t-78 -121z" />
    <glyph glyph-name="igrave" unicode="&#xec;" horiz-adv-x="292" 
d="M183 636l-57 74q-10 13 -10 23q0 13 19 24t40 11q30 0 40 -26l35 -92q3 -9 3 -16q0 -20 -28 -20q-25 0 -42 22zM251 487l-120 -446q-13 -46 -52 -46q-24 0 -34.5 16t-3.5 43l120 446q11 46 52 46q23 0 34 -16t4 -43z" />
    <glyph glyph-name="iacute" unicode="&#xed;" horiz-adv-x="292" 
d="M400 709l-97 -73q-29 -22 -60 -22q-27 0 -27 18q0 10 9 19l86 94q24 24 42 24q21 0 42 -11.5t21 -24.5q0 -12 -16 -24zM251 487l-120 -446q-13 -46 -52 -46q-24 0 -34.5 16t-3.5 43l120 446q11 46 52 46q23 0 34 -16t4 -43z" />
    <glyph glyph-name="icircumflex" unicode="&#xee;" horiz-adv-x="292" 
d="M327 737l45 -85q9 -16 9 -21q0 -17 -23 -17q-37 0 -57 23l-42 52l-75 -53q-34 -22 -60 -22q-22 0 -22 16q0 12 12 22l93 87q25 25 53 25h22q30 0 45 -27zM251 487l-120 -446q-13 -46 -52 -46q-24 0 -34.5 16t-3.5 43l120 446q11 46 52 46q23 0 34 -16t4 -43z" />
    <glyph glyph-name="idieresis" unicode="&#xef;" horiz-adv-x="292" 
d="M399 659q-10 -46 -61 -46q-24 0 -37 14.5t-8 35.5l6 22q5 22 21.5 34.5t39.5 12.5t36.5 -15t8.5 -35zM209 659q-5 -22 -21.5 -34t-39.5 -12q-24 0 -37 14t-9 36l6 22q5 22 21.5 34.5t39.5 12.5t37 -15t9 -35zM251 487l-120 -446q-13 -46 -52 -46q-24 0 -34.5 16t-3.5 43
l120 446q11 46 52 46q23 0 34 -16t4 -43z" />
    <glyph glyph-name="eth" unicode="&#xf0;" horiz-adv-x="660" 
d="M293 -12q-106 0 -174.5 65t-68.5 166q0 118 85 202t199 84q92 0 159 -58l-79 181l-131 -53q-8 -3 -18 -3q-13 0 -21.5 8t-8.5 22q0 22 26 32l128 52l-6 13q-5 12 -5 24q0 18 13 30t32 12q31 0 42 -27l7 -18l101 41q6 3 18 3q13 0 21 -8.5t8 -21.5q0 -22 -26 -32l-98 -40
l62 -151q47 -113 47 -204q0 -130 -87.5 -224.5t-224.5 -94.5zM300 70q86 0 147 62.5t61 147.5q0 66 -44 109t-119 43q-83 0 -142 -62t-59 -146q0 -70 43.5 -112t112.5 -42z" />
    <glyph glyph-name="ntilde" unicode="&#xf1;" horiz-adv-x="649" 
d="M278 614q-13 0 -22 8t-9 20t8 25q51 89 114 89q36 0 75 -34q13 -11 17 -14t11.5 -8t12.5 -6.5t11 -1.5q26 0 55 44q15 19 31 19q13 0 22 -8t9 -20t-8 -25q-51 -89 -114 -89q-16 0 -30 5t-22 10.5t-23 18.5q-13 11 -17 14t-11.5 8t-12.5 6.5t-11 1.5q-26 0 -55 -44
q-15 -19 -31 -19zM206 546q20 0 31.5 -12t9.5 -31l-11 -44q87 94 181 94q77 0 123.5 -45t46.5 -121q0 -33 -15 -87l-68 -259q-13 -46 -52 -46q-24 0 -34.5 16t-3.5 43l67 251q8 36 8 59q0 49 -30 76.5t-83 27.5q-60 0 -111 -45.5t-70 -117.5l-71 -264q-13 -46 -52 -46
q-23 0 -34 16t-4 43l119 446q12 46 53 46z" />
    <glyph glyph-name="ograve" unicode="&#xf2;" horiz-adv-x="676" 
d="M370 636l-57 74q-10 13 -10 23q0 13 19 24t40 11q30 0 40 -26l35 -92q3 -9 3 -16q0 -20 -28 -20q-25 0 -42 22zM303 -12q-112 0 -180.5 68.5t-68.5 175.5q0 127 95 224t223 97q112 0 180.5 -68.5t68.5 -175.5q0 -128 -95.5 -224.5t-222.5 -96.5zM309 70q86 0 151.5 72.5
t65.5 163.5q0 77 -44 120.5t-116 43.5q-87 0 -152 -73t-65 -162q0 -77 43.5 -121t116.5 -44z" />
    <glyph glyph-name="oacute" unicode="&#xf3;" horiz-adv-x="676" 
d="M586 709l-97 -73q-29 -22 -60 -22q-27 0 -27 18q0 10 9 19l86 94q24 24 42 24q21 0 42 -11.5t21 -24.5q0 -12 -16 -24zM303 -12q-112 0 -180.5 68.5t-68.5 175.5q0 127 95 224t223 97q112 0 180.5 -68.5t68.5 -175.5q0 -128 -95.5 -224.5t-222.5 -96.5zM309 70
q86 0 151.5 72.5t65.5 163.5q0 77 -44 120.5t-116 43.5q-87 0 -152 -73t-65 -162q0 -77 43.5 -121t116.5 -44z" />
    <glyph glyph-name="ocircumflex" unicode="&#xf4;" horiz-adv-x="676" 
d="M513 737l45 -85q9 -16 9 -21q0 -17 -23 -17q-37 0 -57 23l-42 52l-75 -53q-34 -22 -60 -22q-22 0 -22 16q0 12 12 22l93 87q25 25 53 25h22q30 0 45 -27zM303 -12q-112 0 -180.5 68.5t-68.5 175.5q0 127 95 224t223 97q112 0 180.5 -68.5t68.5 -175.5
q0 -128 -95.5 -224.5t-222.5 -96.5zM309 70q86 0 151.5 72.5t65.5 163.5q0 77 -44 120.5t-116 43.5q-87 0 -152 -73t-65 -162q0 -77 43.5 -121t116.5 -44z" />
    <glyph glyph-name="otilde" unicode="&#xf5;" horiz-adv-x="676" 
d="M290 614q-13 0 -22 8t-9 20t8 25q51 89 114 89q36 0 75 -34q13 -11 17 -14t11.5 -8t12.5 -6.5t11 -1.5q26 0 55 44q15 19 31 19q13 0 22 -8t9 -20t-8 -25q-51 -89 -114 -89q-16 0 -30 5t-22 10.5t-23 18.5q-13 11 -17 14t-11.5 8t-12.5 6.5t-11 1.5q-26 0 -55 -44
q-15 -19 -31 -19zM303 -12q-112 0 -180.5 68.5t-68.5 175.5q0 127 95 224t223 97q112 0 180.5 -68.5t68.5 -175.5q0 -128 -95.5 -224.5t-222.5 -96.5zM309 70q86 0 151.5 72.5t65.5 163.5q0 77 -44 120.5t-116 43.5q-87 0 -152 -73t-65 -162q0 -77 43.5 -121t116.5 -44z" />
    <glyph glyph-name="odieresis" unicode="&#xf6;" horiz-adv-x="676" 
d="M585 659q-10 -46 -61 -46q-24 0 -37 14.5t-8 35.5l6 22q5 22 21.5 34.5t39.5 12.5t36.5 -15t8.5 -35zM395 659q-5 -22 -21.5 -34t-39.5 -12q-24 0 -37 14t-9 36l6 22q5 22 21.5 34.5t39.5 12.5t37 -15t9 -35zM303 -12q-112 0 -180.5 68.5t-68.5 175.5q0 127 95 224
t223 97q112 0 180.5 -68.5t68.5 -175.5q0 -128 -95.5 -224.5t-222.5 -96.5zM309 70q86 0 151.5 72.5t65.5 163.5q0 77 -44 120.5t-116 43.5q-87 0 -152 -73t-65 -162q0 -77 43.5 -121t116.5 -44z" />
    <glyph glyph-name="divide" unicode="&#xf7;" horiz-adv-x="663" 
d="M469 569q-2 -24 -21 -40t-45 -16q-24 0 -38.5 15t-12.5 37l5 17q2 24 21 40t45 16q24 0 39 -14.5t12 -36.5zM576 324h-438q-17 0 -29.5 12.5t-12.5 29.5t12.5 29.5t29.5 12.5h438q17 0 29.5 -12.5t12.5 -29.5t-12.5 -29.5t-29.5 -12.5zM358 150q-3 -24 -22 -40t-45 -16
q-23 0 -38 14.5t-13 36.5l5 18q3 24 22 40t45 16q23 0 38 -14.5t13 -36.5z" />
    <glyph glyph-name="oslash" unicode="&#xf8;" horiz-adv-x="676" 
d="M132 50l-53 -45q-19 -15 -34 -15q-13 0 -22 8t-9 20q0 17 17 32l58 48q-35 58 -35 134q0 127 95 224t223 97q101 0 169 -60l54 45q17 15 34 15q13 0 21.5 -8t8.5 -21q0 -17 -17 -31l-57 -49q36 -57 36 -135q0 -128 -95.5 -224.5t-222.5 -96.5q-103 0 -171 62zM147 235
q0 -38 13 -74l317 272q-41 39 -111 39q-88 0 -153.5 -73.5t-65.5 -163.5zM309 68q86 0 152.5 73t66.5 165q0 41 -14 75l-318 -273q42 -40 113 -40z" />
    <glyph glyph-name="ugrave" unicode="&#xf9;" horiz-adv-x="649" 
d="M353 636l-57 74q-10 13 -10 23q0 13 19 24t40 11q30 0 40 -26l35 -92q3 -9 3 -16q0 -20 -28 -20q-25 0 -42 22zM443 -5q-21 0 -32 12.5t-9 30.5l11 45q-86 -95 -181 -95q-77 0 -123.5 45t-46.5 121q0 30 14 88l69 258q12 46 52 46q23 0 34 -16t4 -43l-67 -250
q-8 -29 -8 -60q0 -49 30 -76.5t83 -27.5q60 0 111 45.5t70 117.5l71 264q11 46 52 46q23 0 34 -16t4 -43l-119 -446q-13 -46 -53 -46z" />
    <glyph glyph-name="uacute" unicode="&#xfa;" horiz-adv-x="649" 
d="M569 709l-97 -73q-29 -22 -60 -22q-27 0 -27 18q0 10 9 19l86 94q24 24 42 24q21 0 42 -11.5t21 -24.5q0 -12 -16 -24zM443 -5q-21 0 -32 12.5t-9 30.5l11 45q-86 -95 -181 -95q-77 0 -123.5 45t-46.5 121q0 30 14 88l69 258q12 46 52 46q23 0 34 -16t4 -43l-67 -250
q-8 -29 -8 -60q0 -49 30 -76.5t83 -27.5q60 0 111 45.5t70 117.5l71 264q11 46 52 46q23 0 34 -16t4 -43l-119 -446q-13 -46 -53 -46z" />
    <glyph glyph-name="ucircumflex" unicode="&#xfb;" horiz-adv-x="649" 
d="M496 737l45 -85q9 -16 9 -21q0 -17 -23 -17q-37 0 -57 23l-42 52l-75 -53q-34 -22 -60 -22q-22 0 -22 16q0 12 12 22l93 87q25 25 53 25h22q30 0 45 -27zM443 -5q-21 0 -32 12.5t-9 30.5l11 45q-86 -95 -181 -95q-77 0 -123.5 45t-46.5 121q0 30 14 88l69 258
q12 46 52 46q23 0 34 -16t4 -43l-67 -250q-8 -29 -8 -60q0 -49 30 -76.5t83 -27.5q60 0 111 45.5t70 117.5l71 264q11 46 52 46q23 0 34 -16t4 -43l-119 -446q-13 -46 -53 -46z" />
    <glyph glyph-name="udieresis" unicode="&#xfc;" horiz-adv-x="649" 
d="M567 659q-10 -46 -61 -46q-24 0 -37 14.5t-8 35.5l6 22q5 22 21.5 34.5t39.5 12.5t36.5 -15t8.5 -35zM377 659q-5 -22 -21.5 -34t-39.5 -12q-24 0 -37 14t-9 36l6 22q5 22 21.5 34.5t39.5 12.5t37 -15t9 -35zM443 -5q-21 0 -32 12.5t-9 30.5l11 45q-86 -95 -181 -95
q-77 0 -123.5 45t-46.5 121q0 30 14 88l69 258q12 46 52 46q23 0 34 -16t4 -43l-67 -250q-8 -29 -8 -60q0 -49 30 -76.5t83 -27.5q60 0 111 45.5t70 117.5l71 264q11 46 52 46q23 0 34 -16t4 -43l-119 -446q-13 -46 -53 -46z" />
    <glyph glyph-name="yacute" unicode="&#xfd;" horiz-adv-x="611" 
d="M536 709l-97 -73q-29 -22 -60 -22q-27 0 -27 18q0 10 9 19l86 94q24 24 42 24q21 0 42 -11.5t21 -24.5q0 -12 -16 -24zM2 -72q35 -16 64 -16q61 0 123 89l-86 474q-3 12 -3 26q0 19 13.5 32t33.5 13q19 0 32 -11.5t15 -31.5l66 -399l263 410q19 32 50 32q19 0 30 -10
t11 -27q0 -15 -12 -34l-327 -492q-55 -83 -106.5 -118t-113.5 -35q-47 0 -87 20q-28 13 -28 41q0 18 11.5 30t27.5 12q10 0 23 -5z" />
    <glyph glyph-name="thorn" unicode="&#xfe;" horiz-adv-x="698" 
d="M330 70q90 0 152 72t62 173q0 71 -40 113.5t-105 42.5q-86 0 -156 -74t-70 -169q0 -68 44 -113t113 -45zM-11 -112l223 830q12 46 52 46q23 0 34 -16t4 -43l-68 -250q89 98 195 98q93 0 153.5 -63.5t60.5 -166.5q0 -141 -91 -238t-212 -97q-140 0 -197 126l-64 -239
q-11 -46 -52 -46q-23 0 -34 16t-4 43z" />
    <glyph glyph-name="ydieresis" unicode="&#xff;" horiz-adv-x="611" 
d="M535 659q-10 -46 -61 -46q-24 0 -37 14.5t-8 35.5l6 22q5 22 21.5 34.5t39.5 12.5t36.5 -15t8.5 -35zM345 659q-5 -22 -21.5 -34t-39.5 -12q-24 0 -37 14t-9 36l6 22q5 22 21.5 34.5t39.5 12.5t37 -15t9 -35zM2 -72q35 -16 64 -16q61 0 123 89l-86 474q-3 12 -3 26
q0 19 13.5 32t33.5 13q19 0 32 -11.5t15 -31.5l66 -399l263 410q19 32 50 32q19 0 30 -10t11 -27q0 -15 -12 -34l-327 -492q-55 -83 -106.5 -118t-113.5 -35q-47 0 -87 20q-28 13 -28 41q0 18 11.5 30t27.5 12q10 0 23 -5z" />
    <glyph glyph-name="Amacron" unicode="&#x100;" horiz-adv-x="791" 
d="M703 820h-275q-16 0 -26.5 11t-10.5 26t10.5 26t26.5 11h275q15 0 26 -11t11 -26t-11 -26t-26 -11zM585 691l117 -624q3 -24 3 -26q0 -19 -13.5 -32.5t-34.5 -13.5q-41 0 -48 41l-27 152h-386l-115 -161q-23 -32 -50 -32q-18 0 -29 10.5t-11 28.5q0 17 11 31l457 631
q29 41 69 41h3q45 0 54 -46zM256 274h311l-62 348z" />
    <glyph glyph-name="amacron" unicode="&#x101;" horiz-adv-x="611" 
d="M535 637h-275q-16 0 -26.5 11t-10.5 26t10.5 26t26.5 11h275q15 0 26 -11t11 -26t-11 -26t-26 -11zM224 60q66 0 123 42.5t75 108.5l10 34q-81 22 -162 22q-68 0 -110 -33t-42 -86q0 -40 28.5 -64t77.5 -24zM415 -5q-24 0 -33.5 13.5t-6.5 32.5l11 40q-81 -93 -195 -93
q-71 0 -120 40.5t-49 108.5q0 90 67 143t173 53q90 0 185 -28l3 12q7 24 7 48q0 101 -138 101q-63 0 -119 -18q-18 -3 -19 -3q-16 0 -26.5 11t-10.5 28q0 31 31 39q78 26 160 26q103 0 158.5 -44.5t55.5 -123.5q0 -31 -12 -76l-70 -264q-13 -46 -52 -46z" />
    <glyph glyph-name="Abreve" unicode="&#x102;" horiz-adv-x="791" 
d="M559 800q-58 0 -95 30t-37 77q0 19 10 30t26 11q25 0 33 -23q8 -25 24 -38.5t50 -13.5q56 0 95 53q17 22 38 22q14 0 22.5 -8t8.5 -21q0 -12 -8 -23q-26 -43 -70 -69.5t-97 -26.5zM585 691l117 -624q3 -24 3 -26q0 -19 -13.5 -32.5t-34.5 -13.5q-41 0 -48 41l-27 152
h-386l-115 -161q-23 -32 -50 -32q-18 0 -29 10.5t-11 28.5q0 17 11 31l457 631q29 41 69 41h3q45 0 54 -46zM256 274h311l-62 348z" />
    <glyph glyph-name="abreve" unicode="&#x103;" horiz-adv-x="611" 
d="M392 617q-58 0 -95 30t-37 77q0 19 10 30t26 11q25 0 33 -23q8 -25 24 -38.5t50 -13.5q56 0 95 53q17 22 38 22q14 0 22.5 -8t8.5 -21q0 -12 -8 -23q-26 -43 -70 -69.5t-97 -26.5zM224 60q66 0 123 42.5t75 108.5l10 34q-81 22 -162 22q-68 0 -110 -33t-42 -86
q0 -40 28.5 -64t77.5 -24zM415 -5q-24 0 -33.5 13.5t-6.5 32.5l11 40q-81 -93 -195 -93q-71 0 -120 40.5t-49 108.5q0 90 67 143t173 53q90 0 185 -28l3 12q7 24 7 48q0 101 -138 101q-63 0 -119 -18q-18 -3 -19 -3q-16 0 -26.5 11t-10.5 28q0 31 31 39q78 26 160 26
q103 0 158.5 -44.5t55.5 -123.5q0 -31 -12 -76l-70 -264q-13 -46 -52 -46z" />
    <glyph glyph-name="Aogonek" unicode="&#x104;" horiz-adv-x="791" 
d="M638 -172q-50 0 -77.5 19.5t-27.5 49.5q0 50 88 113q-10 8 -11 20l-28 158h-386l-115 -161q-23 -32 -50 -32q-18 0 -29 10.5t-11 28.5q0 17 11 31l457 631q29 41 69 41h3q45 0 54 -46l117 -624q3 -24 3 -26q0 -21 -18 -37q-73 -56 -73 -89q0 -24 45 -33q23 -6 23 -26
q0 -28 -44 -28zM256 274h311l-62 348z" />
    <glyph glyph-name="aogonek" unicode="&#x105;" horiz-adv-x="611" 
d="M443 3q-71 -56 -71 -88q0 -13 10 -20.5t35 -12.5q24 -6 23 -26q0 -28 -44 -28q-49 0 -77 19.5t-28 49.5q0 51 90 115q0 4 1 7q-3 3 4 62q-81 -93 -195 -93q-71 0 -120 40.5t-49 108.5q0 90 67 143t173 53q90 0 185 -28l3 12q7 24 7 48q0 101 -138 101q-63 0 -119 -18
q-18 -3 -19 -3q-16 0 -26.5 11t-10.5 28q0 31 31 39q78 26 160 26q103 0 158.5 -44.5t55.5 -123.5q0 -31 -12 -76l-70 -264q-6 -22 -24 -38zM224 60q66 0 123 42.5t75 108.5l10 34q-81 22 -162 22q-68 0 -110 -33t-42 -86q0 -40 28.5 -64t77.5 -24z" />
    <glyph glyph-name="Cacute" unicode="&#x106;" horiz-adv-x="773" 
d="M714 892l-97 -73q-29 -22 -60 -22q-27 0 -27 18q0 10 9 19l86 94q24 24 42 24q21 0 42 -12t21 -24t-16 -24zM664 84q-107 -97 -258 -97q-136 0 -226 83t-90 221q0 116 58.5 219.5t160 166.5t219.5 63q161 0 247 -113q18 -20 18 -41q-1 -20 -14.5 -34t-34.5 -14
q-23 0 -36 16q-34 47 -77.5 72.5t-111.5 25.5q-133 0 -230.5 -108t-97.5 -249q0 -99 61 -159t158 -60q60 0 103 18t91 58q17 13 33 13q19 0 31.5 -13t12.5 -32t-17 -36z" />
    <glyph glyph-name="cacute" unicode="&#x107;" horiz-adv-x="594" 
d="M558 709l-97 -73q-29 -22 -60 -22q-27 0 -27 18q0 10 9 19l86 94q24 24 42 24q21 0 42 -11.5t21 -24.5q0 -12 -16 -24zM488 60q-86 -72 -192 -72q-101 0 -171.5 65t-70.5 172q0 133 95 230.5t223 97.5q126 0 193 -91q16 -18 16 -37q0 -18 -13 -30.5t-31 -12.5
q-23 0 -36 17q-51 71 -136 71q-86 0 -151 -73t-65 -170q0 -72 44 -114.5t107 -42.5q69 0 134 51q14 11 30 11q17 0 28 -11t11 -28q0 -18 -15 -33z" />
    <glyph glyph-name="Cdotaccent" unicode="&#x10a;" horiz-adv-x="773" 
d="M618 842q-11 -46 -62 -46q-24 0 -37.5 14.5t-8.5 35.5l6 22q5 22 22 34.5t40 12.5t36.5 -15t9.5 -35zM664 84q-107 -97 -258 -97q-136 0 -226 83t-90 221q0 116 58.5 219.5t160 166.5t219.5 63q161 0 247 -113q18 -20 18 -41q-1 -20 -14.5 -34t-34.5 -14q-23 0 -36 16
q-34 47 -77.5 72.5t-111.5 25.5q-133 0 -230.5 -108t-97.5 -249q0 -99 61 -159t158 -60q60 0 103 18t91 58q17 13 33 13q19 0 31.5 -13t12.5 -32t-17 -36z" />
    <glyph glyph-name="cdotaccent" unicode="&#x10b;" horiz-adv-x="594" 
d="M462 659q-11 -46 -62 -46q-24 0 -37.5 14.5t-8.5 35.5l6 22q5 22 22 34.5t40 12.5t36.5 -15t9.5 -35zM488 60q-86 -72 -192 -72q-101 0 -171.5 65t-70.5 172q0 133 95 230.5t223 97.5q126 0 193 -91q16 -18 16 -37q0 -18 -13 -30.5t-31 -12.5q-23 0 -36 17
q-51 71 -136 71q-86 0 -151 -73t-65 -170q0 -72 44 -114.5t107 -42.5q69 0 134 51q14 11 30 11q17 0 28 -11t11 -28q0 -18 -15 -33z" />
    <glyph glyph-name="Ccaron" unicode="&#x10c;" horiz-adv-x="773" 
d="M502 825l-46 85q-8 19 -8 21q0 17 23 17q37 0 56 -23l43 -52l75 53q32 22 60 22q22 0 22 -16q0 -12 -12 -22l-93 -87q-25 -25 -53 -25h-22q-30 0 -45 27zM664 84q-107 -97 -258 -97q-136 0 -226 83t-90 221q0 116 58.5 219.5t160 166.5t219.5 63q161 0 247 -113
q18 -20 18 -41q-1 -20 -14.5 -34t-34.5 -14q-23 0 -36 16q-34 47 -77.5 72.5t-111.5 25.5q-133 0 -230.5 -108t-97.5 -249q0 -99 61 -159t158 -60q60 0 103 18t91 58q17 13 33 13q19 0 31.5 -13t12.5 -32t-17 -36z" />
    <glyph glyph-name="ccaron" unicode="&#x10d;" horiz-adv-x="594" 
d="M347 642l-46 85q-8 19 -8 21q0 17 23 17q37 0 56 -23l43 -52l75 53q32 22 60 22q22 0 22 -16q0 -11 -12 -22l-93 -87q-25 -25 -53 -25h-22q-30 0 -45 27zM488 60q-86 -72 -192 -72q-101 0 -171.5 65t-70.5 172q0 133 95 230.5t223 97.5q126 0 193 -91q16 -18 16 -37
q0 -18 -13 -30.5t-31 -12.5q-23 0 -36 17q-51 71 -136 71q-86 0 -151 -73t-65 -170q0 -72 44 -114.5t107 -42.5q69 0 134 51q14 11 30 11q17 0 28 -11t11 -28q0 -18 -15 -33z" />
    <glyph glyph-name="Dcaron" unicode="&#x10e;" horiz-adv-x="814" 
d="M458 815l-46 85q-8 19 -8 21q0 17 23 17q37 0 56 -23l43 -52l75 53q32 22 60 22q22 0 22 -16q0 -12 -12 -22l-93 -87q-25 -25 -53 -25h-22q-30 0 -45 27zM269 728h142q186 0 284 -96q79 -79 79 -210q0 -168 -116 -284q-138 -138 -374 -138h-196q-23 0 -35 16t-5 42
l167 622q6 22 20.5 35t33.5 13zM152 88h143q181 0 291 110q88 88 88 219q0 95 -58 153q-70 70 -212 70h-103z" />
    <glyph glyph-name="dcaron" unicode="&#x10f;" horiz-adv-x="698" 
d="M764 603l41 123q11 35 47 35h18q20 0 20 -16q0 -11 -10 -28l-70 -120q-12 -22 -31 -22q-18 0 -18 15q0 6 3 13zM299 70q86 0 156 74t70 168q0 68 -44 113.5t-113 45.5q-89 0 -151.5 -72.5t-62.5 -173.5q0 -70 40 -112.5t105 -42.5zM492 -5q-21 0 -31.5 12t-8.5 32l11 47
q-89 -98 -194 -98q-93 0 -153.5 63.5t-60.5 166.5q0 141 91 238t212 97q140 0 197 -126l77 291q12 46 53 46q23 0 33.5 -16t3.5 -43l-177 -664q-13 -46 -53 -46z" />
    <glyph glyph-name="Dcroat" unicode="&#x110;" horiz-adv-x="841" 
d="M311 0h-196q-23 0 -35 16t-5 42l71 265h-31q-18 0 -30.5 12.5t-12.5 30.5t12.5 30.5t30.5 12.5h54l73 271q6 22 20.5 35t33.5 13h142q186 0 284 -96q79 -79 79 -210q0 -168 -116 -284q-138 -138 -374 -138zM180 88h142q181 0 291 110q88 88 88 219q0 95 -58 153
q-70 70 -212 70h-103l-62 -231h153q18 0 31 -12.5t13 -30.5t-13 -30.5t-31 -12.5h-176z" />
    <glyph glyph-name="dcroat" unicode="&#x111;" horiz-adv-x="698" 
d="M299 70q86 0 156 74t70 168q0 68 -44 113.5t-113 45.5q-89 0 -151.5 -72.5t-62.5 -173.5q0 -70 40 -112.5t105 -42.5zM463 86q-89 -98 -194 -98q-93 0 -153.5 63.5t-60.5 166.5q0 141 91 238t212 97q140 0 197 -126l55 206h-146q-13 0 -22 9.5t-9 22.5t9 22t22 9h162
l6 22q12 46 53 46q23 0 33.5 -16t3.5 -43l-2 -9h38q13 0 22 -9t9 -22t-9 -22.5t-22 -9.5h-55l-158 -592q-13 -46 -53 -46q-21 0 -31.5 12t-8.5 32z" />
    <glyph glyph-name="Emacron" unicode="&#x112;" horiz-adv-x="692" 
d="M656 810h-275q-16 0 -26.5 11t-10.5 26t10.5 26t26.5 11h275q15 0 26 -11t11 -26t-11 -26t-26 -11zM535 0h-447q-23 0 -35 16t-5 42l167 622q6 22 20.5 35t33.5 13h433q18 0 31 -13t13 -31t-13 -30.5t-31 -12.5h-401l-62 -231h331q18 0 31 -12.5t13 -30.5t-13 -30.5
t-31 -12.5h-355l-63 -237h383q18 0 31 -13t13 -31t-13 -30.5t-31 -12.5z" />
    <glyph glyph-name="emacron" unicode="&#x113;" horiz-adv-x="626" 
d="M555 637h-275q-16 0 -26.5 11t-10.5 26t10.5 26t26.5 11h275q15 0 26 -11t11 -26t-11 -26t-26 -11zM302 67q76 0 135 45q18 10 31 10q16 0 26.5 -10.5t10.5 -26.5q0 -20 -18 -34q-82 -63 -192 -63q-109 0 -175.5 63.5t-66.5 168.5q0 128 92 230.5t225 102.5
q99 0 155 -59.5t56 -149.5q0 -36 -7 -64q-9 -42 -49 -42h-378q-1 -7 -1 -21q2 -69 43.5 -109.5t112.5 -40.5zM158 305h328q4 20 4 41q0 56 -31.5 92t-94.5 36q-73 0 -128 -48t-78 -121z" />
    <glyph glyph-name="Ebreve" unicode="&#x114;" horiz-adv-x="692" 
d="M512 790q-58 0 -95 30t-37 77q0 19 10 30t26 11q25 0 33 -23q8 -25 24 -38.5t50 -13.5q56 0 95 53q17 22 38 22q14 0 22.5 -8t8.5 -21q0 -12 -8 -23q-26 -43 -70 -69.5t-97 -26.5zM535 0h-447q-23 0 -35 16t-5 42l167 622q6 22 20.5 35t33.5 13h433q18 0 31 -13t13 -31
t-13 -30.5t-31 -12.5h-401l-62 -231h331q18 0 31 -12.5t13 -30.5t-13 -30.5t-31 -12.5h-355l-63 -237h383q18 0 31 -13t13 -31t-13 -30.5t-31 -12.5z" />
    <glyph glyph-name="ebreve" unicode="&#x115;" horiz-adv-x="626" 
d="M411 617q-58 0 -95 30t-37 77q0 19 10 30t26 11q25 0 33 -23q8 -25 24 -38.5t50 -13.5q56 0 95 53q17 22 38 22q14 0 22.5 -8t8.5 -21q0 -12 -8 -23q-26 -43 -70 -69.5t-97 -26.5zM302 67q76 0 135 45q18 10 31 10q16 0 26.5 -10.5t10.5 -26.5q0 -20 -18 -34
q-82 -63 -192 -63q-109 0 -175.5 63.5t-66.5 168.5q0 128 92 230.5t225 102.5q99 0 155 -59.5t56 -149.5q0 -36 -7 -64q-9 -42 -49 -42h-378q-1 -7 -1 -21q2 -69 43.5 -109.5t112.5 -40.5zM158 305h328q4 20 4 41q0 56 -31.5 92t-94.5 36q-73 0 -128 -48t-78 -121z" />
    <glyph glyph-name="Edotaccent" unicode="&#x116;" horiz-adv-x="692" 
d="M569 832q-11 -46 -62 -46q-24 0 -37.5 14.5t-8.5 35.5l6 22q5 22 22 34.5t40 12.5t36.5 -15t9.5 -35zM535 0h-447q-23 0 -35 16t-5 42l167 622q6 22 20.5 35t33.5 13h433q18 0 31 -13t13 -31t-13 -30.5t-31 -12.5h-401l-62 -231h331q18 0 31 -12.5t13 -30.5t-13 -30.5
t-31 -12.5h-355l-63 -237h383q18 0 31 -13t13 -31t-13 -30.5t-31 -12.5z" />
    <glyph glyph-name="edotaccent" unicode="&#x117;" horiz-adv-x="626" 
d="M467 659q-11 -46 -62 -46q-24 0 -37.5 14.5t-8.5 35.5l6 22q5 22 22 34.5t40 12.5t36.5 -15t9.5 -35zM302 67q76 0 135 45q18 10 31 10q16 0 26.5 -10.5t10.5 -26.5q0 -20 -18 -34q-82 -63 -192 -63q-109 0 -175.5 63.5t-66.5 168.5q0 128 92 230.5t225 102.5
q99 0 155 -59.5t56 -149.5q0 -36 -7 -64q-9 -42 -49 -42h-378q-1 -7 -1 -21q2 -69 43.5 -109.5t112.5 -40.5zM158 305h328q4 20 4 41q0 56 -31.5 92t-94.5 36q-73 0 -128 -48t-78 -121z" />
    <glyph glyph-name="Eogonek" unicode="&#x118;" horiz-adv-x="692" 
d="M554 2q-73 -54 -73 -87q0 -24 45 -33q23 -6 23 -26q0 -28 -44 -28q-50 0 -77.5 19.5t-27.5 49.5q0 48 74 103h-386q-23 0 -35 16t-5 42l167 622q6 22 20.5 35t33.5 13h433q18 0 31 -13t13 -31t-13 -30.5t-31 -12.5h-401l-62 -231h331q18 0 31 -12.5t13 -30.5t-13 -30.5
t-31 -12.5h-355l-63 -237h383q19 0 31.5 -12.5t12.5 -29.5q0 -22 -25 -43z" />
    <glyph glyph-name="eogonek" unicode="&#x119;" horiz-adv-x="626" 
d="M421 0q-66 -53 -66 -85q0 -13 10 -20.5t35 -12.5q24 -6 24 -26q-2 -28 -44 -28q-50 0 -77.5 19.5t-27.5 49.5q0 46 60 93q-26 -2 -40 -2q-109 0 -175.5 63.5t-66.5 168.5q0 128 92 230.5t225 102.5q99 0 155 -59.5t56 -149.5q0 -36 -7 -64q-9 -42 -49 -42h-378
q-1 -7 -1 -21q2 -69 43.5 -109.5t112.5 -40.5q76 0 135 45q18 10 31 10q16 0 26.5 -10.5t10.5 -26.5q0 -18 -18 -34q-41 -30 -66 -51zM158 305h328q4 20 4 41q0 56 -31.5 92t-94.5 36q-73 0 -128 -48t-78 -121z" />
    <glyph glyph-name="Ecaron" unicode="&#x11a;" horiz-adv-x="692" 
d="M453 815l-46 85q-8 19 -8 21q0 17 23 17q37 0 56 -23l43 -52l75 53q32 22 60 22q22 0 22 -16q0 -12 -12 -22l-93 -87q-25 -25 -53 -25h-22q-30 0 -45 27zM535 0h-447q-23 0 -35 16t-5 42l167 622q6 22 20.5 35t33.5 13h433q18 0 31 -13t13 -31t-13 -30.5t-31 -12.5h-401
l-62 -231h331q18 0 31 -12.5t13 -30.5t-13 -30.5t-31 -12.5h-355l-63 -237h383q18 0 31 -13t13 -31t-13 -30.5t-31 -12.5z" />
    <glyph glyph-name="ecaron" unicode="&#x11b;" horiz-adv-x="626" 
d="M352 642l-46 85q-8 19 -8 21q0 17 23 17q37 0 56 -23l43 -52l75 53q32 22 60 22q22 0 22 -16q0 -11 -12 -22l-93 -87q-25 -25 -53 -25h-22q-30 0 -45 27zM302 67q76 0 135 45q18 10 31 10q16 0 26.5 -10.5t10.5 -26.5q0 -20 -18 -34q-82 -63 -192 -63q-109 0 -175.5 63.5
t-66.5 168.5q0 128 92 230.5t225 102.5q99 0 155 -59.5t56 -149.5q0 -36 -7 -64q-9 -42 -49 -42h-378q-1 -7 -1 -21q2 -69 43.5 -109.5t112.5 -40.5zM158 305h328q4 20 4 41q0 56 -31.5 92t-94.5 36q-73 0 -128 -48t-78 -121z" />
    <glyph glyph-name="Gbreve" unicode="&#x11e;" horiz-adv-x="825" 
d="M573 800q-58 0 -95 30t-37 77q0 19 10 30t26 11q25 0 33 -23q8 -25 24 -38.5t50 -13.5q56 0 95 53q17 22 38 22q14 0 22.5 -8t8.5 -21q0 -12 -8 -23q-26 -43 -70 -69.5t-97 -26.5zM754 336l-67 -238q-11 -36 -42 -54q-102 -57 -229 -57q-137 0 -231 83t-94 227
q0 113 57.5 214.5t161.5 165t229 63.5q166 0 250 -97q20 -18 20 -39q0 -20 -13.5 -34t-33.5 -14q-19 0 -33 14q-75 82 -198 82q-142 0 -241 -107t-99 -244q0 -105 64 -165.5t167 -60.5q101 0 179 47l53 187h-166q-18 0 -30.5 12.5t-12.5 29.5q0 18 12.5 30.5t30.5 12.5h226
q24 0 35.5 -16.5t4.5 -41.5z" />
    <glyph glyph-name="gbreve" unicode="&#x11f;" horiz-adv-x="697" 
d="M448 617q-58 0 -95 30t-37 77q0 19 10 30t26 11q25 0 33 -23q8 -25 24 -38.5t50 -13.5q56 0 95 53q17 22 38 22q14 0 22.5 -8t8.5 -21q0 -12 -8 -23q-26 -43 -70 -69.5t-97 -26.5zM307 121q85 0 151.5 63.5t66.5 143.5q0 59 -43 101t-113 42q-84 0 -147 -62t-63 -152
q0 -65 42.5 -100.5t105.5 -35.5zM555 429l19 71q12 46 51 46q24 0 34.5 -16t3.5 -43l-107 -404q-32 -118 -89 -175q-76 -76 -211 -76q-132 0 -237 70q-25 14 -25 38q0 17 12 29.5t29 12.5q16 0 31 -9q87 -63 187 -63q93 0 147 54q41 41 64 123l13 48q-93 -93 -201 -93
q-88 0 -152 54.5t-64 146.5q0 131 92.5 220.5t210.5 89.5q133 0 192 -124z" />
    <glyph glyph-name="Gdotaccent" unicode="&#x120;" horiz-adv-x="825" 
d="M630 842q-11 -46 -62 -46q-24 0 -37.5 14.5t-8.5 35.5l6 22q5 22 22 34.5t40 12.5t36.5 -15t9.5 -35zM754 336l-67 -238q-11 -36 -42 -54q-102 -57 -229 -57q-137 0 -231 83t-94 227q0 113 57.5 214.5t161.5 165t229 63.5q166 0 250 -97q20 -18 20 -39q0 -20 -13.5 -34
t-33.5 -14q-19 0 -33 14q-75 82 -198 82q-142 0 -241 -107t-99 -244q0 -105 64 -165.5t167 -60.5q101 0 179 47l53 187h-166q-18 0 -30.5 12.5t-12.5 29.5q0 18 12.5 30.5t30.5 12.5h226q24 0 35.5 -16.5t4.5 -41.5z" />
    <glyph glyph-name="gdotaccent" unicode="&#x121;" horiz-adv-x="697" 
d="M505 659q-11 -46 -62 -46q-24 0 -37.5 14.5t-8.5 35.5l6 22q5 22 22 34.5t40 12.5t36.5 -15t9.5 -35zM307 121q85 0 151.5 63.5t66.5 143.5q0 59 -43 101t-113 42q-84 0 -147 -62t-63 -152q0 -65 42.5 -100.5t105.5 -35.5zM555 429l19 71q12 46 51 46q24 0 34.5 -16
t3.5 -43l-107 -404q-32 -118 -89 -175q-76 -76 -211 -76q-132 0 -237 70q-25 14 -25 38q0 17 12 29.5t29 12.5q16 0 31 -9q87 -63 187 -63q93 0 147 54q41 41 64 123l13 48q-93 -93 -201 -93q-88 0 -152 54.5t-64 146.5q0 131 92.5 220.5t210.5 89.5q133 0 192 -124z" />
    <glyph glyph-name="Gcommaaccent" unicode="&#x122;" horiz-adv-x="825" 
d="M754 336l-67 -238q-11 -36 -42 -54q-102 -57 -229 -57q-137 0 -231 83t-94 227q0 113 57.5 214.5t161.5 165t229 63.5q166 0 250 -97q20 -18 20 -39q0 -20 -13.5 -34t-33.5 -14q-19 0 -33 14q-75 82 -198 82q-142 0 -241 -107t-99 -244q0 -105 64 -165.5t167 -60.5
q101 0 179 47l53 187h-166q-18 0 -30.5 12.5t-12.5 29.5q0 18 12.5 30.5t30.5 12.5h226q24 0 35.5 -16.5t4.5 -41.5zM320 -166q-38 8 -38 38q0 24 16 42t43 18q48 0 48 -49q0 -25 -12 -53.5t-32 -47.5q-45 -45 -104 -45q-19 0 -19 15t24 21q63 14 74 61z" />
    <glyph glyph-name="gcommaaccent" unicode="&#x123;" horiz-adv-x="697" 
d="M464 711q39 -8 39 -39q0 -23 -16.5 -41t-43.5 -18q-48 0 -48 49q0 25 12.5 53.5t31.5 47.5q45 45 105 45q19 0 19 -15t-24 -21q-64 -14 -75 -61zM307 121q85 0 151.5 63.5t66.5 143.5q0 59 -43 101t-113 42q-84 0 -147 -62t-63 -152q0 -65 42.5 -100.5t105.5 -35.5z
M555 429l19 71q12 46 51 46q24 0 34.5 -16t3.5 -43l-107 -404q-32 -118 -89 -175q-76 -76 -211 -76q-132 0 -237 70q-25 14 -25 38q0 17 12 29.5t29 12.5q16 0 31 -9q87 -63 187 -63q93 0 147 54q41 41 64 123l13 48q-93 -93 -201 -93q-88 0 -152 54.5t-64 146.5
q0 131 92.5 220.5t210.5 89.5q133 0 192 -124z" />
    <glyph glyph-name="Hbar" unicode="&#x126;" horiz-adv-x="796" 
d="M239 411h393l32 120h-392zM629 41q-11 -46 -53 -46q-24 0 -35.5 16.5t-3.5 43.5l71 267h-393l-75 -281q-13 -46 -53 -46q-23 0 -35 16t-5 44l128 476h-34q-15 0 -26 10.5t-11 25.5q0 14 11 25t26 11h53l23 84q13 46 53 46q23 0 35 -16t5 -44l-19 -70h392l23 84
q13 46 54 46q23 0 34.5 -16t4.5 -44l-19 -70h35q15 0 26 -11t11 -25q0 -15 -11 -25.5t-26 -10.5h-54z" />
    <glyph glyph-name="hbar" unicode="&#x127;" horiz-adv-x="649" 
d="M504 41q-13 -46 -52 -46q-24 0 -34.5 16t-3.5 43l67 251q8 36 8 59q0 49 -30 76.5t-83 27.5q-60 0 -111 -45.5t-70 -117.5l-71 -264q-13 -46 -52 -46q-23 0 -34 16t-4 43l154 579h-37q-13 0 -22.5 9.5t-9.5 22.5t9.5 22t22.5 9h54l6 22q12 46 53 46q23 0 33.5 -16
t3.5 -43l-2 -9h145q13 0 22 -9t9 -22t-9 -22.5t-22 -9.5h-162l-46 -174q87 94 181 94q77 0 123.5 -45t46.5 -121q0 -33 -15 -87z" />
    <glyph glyph-name="Imacron" unicode="&#x12a;" horiz-adv-x="321" 
d="M453 810h-275q-16 0 -26.5 11t-10.5 26t10.5 26t26.5 11h275q15 0 26 -11t11 -26t-11 -26t-26 -11zM317 673l-170 -632q-13 -46 -53 -46q-24 0 -35.5 16.5t-3.5 43.5l169 632q13 46 53 46q23 0 35 -16t5 -44z" />
    <glyph glyph-name="imacron" unicode="&#x12b;" horiz-adv-x="292" 
d="M392 637h-275q-16 0 -26.5 11t-10.5 26t10.5 26t26.5 11h275q15 0 26 -11t11 -26t-11 -26t-26 -11zM251 487l-120 -446q-13 -46 -52 -46q-24 0 -34.5 16t-3.5 43l120 446q11 46 52 46q23 0 34 -16t4 -43z" />
    <glyph glyph-name="Ibreve" unicode="&#x12c;" horiz-adv-x="321" 
d="M309 790q-58 0 -95 30t-37 77q0 19 10 30t26 11q25 0 33 -23q8 -25 24 -38.5t50 -13.5q56 0 95 53q17 22 38 22q14 0 22.5 -8t8.5 -21q0 -12 -8 -23q-26 -43 -70 -69.5t-97 -26.5zM317 673l-170 -632q-13 -46 -53 -46q-24 0 -35.5 16.5t-3.5 43.5l169 632q13 46 53 46
q23 0 35 -16t5 -44z" />
    <glyph glyph-name="ibreve" unicode="&#x12d;" horiz-adv-x="292" 
d="M248 617q-58 0 -95 30t-37 77q0 19 10 30t26 11q25 0 33 -23q8 -25 24 -38.5t50 -13.5q56 0 95 53q17 22 38 22q14 0 22.5 -8t8.5 -21q0 -12 -8 -23q-26 -43 -70 -69.5t-97 -26.5zM251 487l-120 -446q-13 -46 -52 -46q-24 0 -34.5 16t-3.5 43l120 446q11 46 52 46
q23 0 34 -16t4 -43z" />
    <glyph glyph-name="Iogonek" unicode="&#x12e;" horiz-adv-x="321" 
d="M76 -172q-50 0 -78 19.5t-28 49.5q0 50 90 115q-14 15 -5 43l169 632q13 46 53 46q23 0 35 -16t5 -44l-170 -632q-6 -22 -25 -39q-71 -55 -71 -87q0 -13 10 -20.5t35 -12.5q24 -6 24 -26q-2 -28 -44 -28z" />
    <glyph glyph-name="iogonek" unicode="&#x12f;" horiz-adv-x="292" 
d="M313 687q-5 -20 -22 -31.5t-40 -11.5q-24 0 -37.5 13.5t-9.5 32.5l5 18q4 21 21 32.5t41 11.5q23 0 36.5 -13.5t9.5 -33.5zM251 487l-120 -446q-6 -22 -24 -38q-71 -56 -71 -88q0 -13 10 -20.5t35 -12.5q24 -6 23 -26q0 -28 -43 -28q-50 0 -78 19.5t-28 49.5q0 52 91 115
q-9 11 -7 28q0 4 2 14l120 446q11 46 52 46q23 0 34 -16t4 -43z" />
    <glyph glyph-name="Idotaccent" unicode="&#x130;" horiz-adv-x="321" 
d="M366 832q-11 -46 -62 -46q-24 0 -37.5 14.5t-8.5 35.5l6 22q5 22 22 34.5t40 12.5t36.5 -15t9.5 -35zM317 673l-170 -632q-13 -46 -53 -46q-24 0 -35.5 16.5t-3.5 43.5l169 632q13 46 53 46q23 0 35 -16t5 -44z" />
    <glyph glyph-name="dotlessi" unicode="&#x131;" horiz-adv-x="292" 
d="M251 487l-120 -446q-13 -46 -52 -46q-24 0 -34.5 16t-3.5 43l120 446q11 46 52 46q23 0 34 -16t4 -43z" />
    <glyph glyph-name="Kcommaaccent" unicode="&#x136;" horiz-adv-x="755" 
d="M180 189l-40 -148q-13 -46 -53 -46q-23 0 -35 16t-5 44l170 632q13 46 53 46q23 0 35 -16t5 -44l-96 -358l487 400q23 18 41 18q19 0 31 -12.5t12 -30.5q0 -22 -19 -37l-305 -247l170 -334q9 -18 9 -33q0 -19 -14 -31.5t-33 -12.5q-35 0 -50 34l-161 323zM289 -159
q-38 8 -38 38q0 24 16 42t43 18q48 0 48 -49q0 -25 -12 -53.5t-32 -47.5q-45 -45 -104 -45q-19 0 -19 15t24 21q63 14 74 61z" />
    <glyph glyph-name="kcommaaccent" unicode="&#x137;" horiz-adv-x="605" 
d="M302 705l-119 -446l340 271q20 16 37 16t28 -10.5t11 -27.5q0 -21 -18 -34l-215 -167l116 -236q10 -20 10 -33q0 -19 -14.5 -31t-33.5 -12q-33 0 -49 33l-110 220l-134 -104l-27 -103q-13 -46 -52 -46q-23 0 -34 16t-4 43l178 664q12 46 52 46q24 0 34.5 -16t3.5 -43z
M201 -164q-38 8 -38 38q0 24 16 42t43 18q48 0 48 -49q0 -25 -12 -53.5t-32 -47.5q-45 -45 -104 -45q-19 0 -19 15t24 21q63 14 74 61z" />
    <glyph glyph-name="Lacute" unicode="&#x139;" horiz-adv-x="645" 
d="M468 882l-97 -73q-29 -22 -60 -22q-27 0 -27 18q0 10 9 19l86 94q24 24 42 24q21 0 42 -12t21 -24t-16 -24zM504 0h-416q-23 0 -35 16t-5 42l169 629q13 46 53 46q23 0 35 -16t5 -44l-157 -585h351q17 0 30 -13t13 -31t-12.5 -31t-30.5 -13z" />
    <glyph glyph-name="lacute" unicode="&#x13a;" horiz-adv-x="292" 
d="M454 902l-97 -73q-29 -22 -60 -22q-27 0 -27 18q0 10 9 19l86 94q24 24 42 24q21 0 42 -12t21 -24t-16 -24zM309 705l-178 -664q-13 -46 -52 -46q-24 0 -34.5 16t-3.5 43l178 664q12 46 52 46q24 0 34.5 -16t3.5 -43z" />
    <glyph glyph-name="Lcommaaccent" unicode="&#x13b;" horiz-adv-x="645" 
d="M504 0h-416q-23 0 -35 16t-5 42l169 629q13 46 53 46q23 0 35 -16t5 -44l-157 -585h351q17 0 30 -13t13 -31t-12.5 -31t-30.5 -13zM230 -164q-38 8 -38 38q0 24 16 42t43 18q48 0 48 -49q0 -25 -12 -53.5t-32 -47.5q-45 -45 -104 -45q-19 0 -19 15t24 21q63 14 74 61z
" />
    <glyph glyph-name="lcommaaccent" unicode="&#x13c;" horiz-adv-x="292" 
d="M309 705l-178 -664q-13 -46 -52 -46q-24 0 -34.5 16t-3.5 43l178 664q12 46 52 46q24 0 34.5 -16t3.5 -43zM39 -164q-38 8 -38 38q0 24 16 42t43 18q48 0 48 -49q0 -25 -12 -53.5t-32 -47.5q-45 -45 -104 -45q-19 0 -19 15t24 21q63 14 74 61z" />
    <glyph glyph-name="Lcaron" unicode="&#x13d;" horiz-adv-x="645" 
d="M504 0h-416q-23 0 -35 16t-5 42l169 629q13 46 53 46q23 0 35 -16t5 -44l-157 -585h351q17 0 30 -13t13 -31t-12.5 -31t-30.5 -13zM359 572l41 123q11 35 47 35h18q20 0 20 -16q0 -11 -10 -28l-70 -120q-12 -22 -31 -22q-18 0 -18 15q0 5 3 13z" />
    <glyph glyph-name="lcaron" unicode="&#x13e;" horiz-adv-x="292" 
d="M309 705l-178 -664q-13 -46 -52 -46q-24 0 -34.5 16t-3.5 43l178 664q12 46 52 46q24 0 34.5 -16t3.5 -43zM340 603l41 123q11 35 47 35h18q20 0 20 -16q0 -11 -10 -28l-70 -120q-12 -22 -31 -22q-18 0 -18 15q0 6 3 13z" />
    <glyph glyph-name="Ldot" unicode="&#x13f;" horiz-adv-x="645" 
d="M504 0h-416q-23 0 -35 16t-5 42l169 629q13 46 53 46q23 0 35 -16t5 -44l-157 -585h351q17 0 30 -13t13 -31t-12.5 -31t-30.5 -13zM576 375q-11 -48 -64 -48q-24 0 -38 15t-9 37l4 17q5 22 22.5 35t41.5 13t38.5 -15.5t9.5 -36.5z" />
    <glyph glyph-name="ldot" unicode="&#x140;" horiz-adv-x="367" 
d="M309 705l-178 -664q-13 -46 -52 -46q-24 0 -34.5 16t-3.5 43l178 664q12 46 52 46q24 0 34.5 -16t3.5 -43zM401 374q-11 -44 -54 -44q-22 0 -34.5 14.5t-8.5 34.5l5 18q11 45 55 45q22 0 34 -15t8 -35z" />
    <glyph glyph-name="Lslash" unicode="&#x141;" horiz-adv-x="689" 
d="M548 0h-416q-23 0 -35 16t-5 42l66 247l-18 -5q-18 -3 -21 -3q-17 0 -27.5 10.5t-10.5 28.5q0 30 34 40l68 19l78 292q13 46 52 46q23 0 34.5 -16t4.5 -44l-67 -249l169 48q12 4 22 4q17 0 28 -10.5t11 -28.5q0 -29 -35 -40l-219 -62l-66 -247h353q18 0 30.5 -13
t12.5 -31q0 -19 -12.5 -31.5t-30.5 -12.5z" />
    <glyph glyph-name="lslash" unicode="&#x142;" horiz-adv-x="352" 
d="M110 -5q-23 0 -34 16t-4 43l73 271l-21 -6q-15 -3 -20 -3q-16 0 -26 11t-10 28q0 33 34 42l67 19l81 302q12 46 52 46q24 0 34.5 -16t3.5 -43l-70 -260l23 6q15 3 20 3q16 0 26 -11t10 -28q0 -33 -34 -42l-69 -20l-84 -312q-13 -46 -52 -46z" />
    <glyph glyph-name="Nacute" unicode="&#x143;" horiz-adv-x="827" 
d="M714 882l-97 -73q-29 -22 -60 -22q-27 0 -27 18q0 10 9 19l86 94q24 24 42 24q21 0 42 -12t21 -24t-16 -24zM598 160l142 527q13 46 52 46q23 0 34.5 -16t4.5 -44l-170 -633q-13 -44 -50 -44h-2q-36 0 -53 38l-273 548l-145 -541q-13 -46 -52 -46q-23 0 -34.5 16t-4.5 44
l169 628q13 49 56 49h5q38 0 58 -42z" />
    <glyph glyph-name="nacute" unicode="&#x144;" horiz-adv-x="649" 
d="M574 709l-97 -73q-29 -22 -60 -22q-27 0 -27 18q0 10 9 19l86 94q24 24 42 24q21 0 42 -11.5t21 -24.5q0 -12 -16 -24zM206 546q20 0 31.5 -12t9.5 -31l-11 -44q87 94 181 94q77 0 123.5 -45t46.5 -121q0 -33 -15 -87l-68 -259q-13 -46 -52 -46q-24 0 -34.5 16t-3.5 43
l67 251q8 36 8 59q0 49 -30 76.5t-83 27.5q-60 0 -111 -45.5t-70 -117.5l-71 -264q-13 -46 -52 -46q-23 0 -34 16t-4 43l119 446q12 46 53 46z" />
    <glyph glyph-name="Ncommaaccent" unicode="&#x145;" horiz-adv-x="827" 
d="M598 160l142 527q13 46 52 46q23 0 34.5 -16t4.5 -44l-170 -633q-13 -44 -50 -44h-2q-36 0 -53 38l-273 548l-145 -541q-13 -46 -52 -46q-23 0 -34.5 16t-4.5 44l169 628q13 49 56 49h5q38 0 58 -42zM308 -159q-38 8 -38 38q0 24 16 42t43 18q48 0 48 -49
q0 -25 -12 -53.5t-32 -47.5q-45 -45 -104 -45q-19 0 -19 15t24 21q63 14 74 61z" />
    <glyph glyph-name="ncommaaccent" unicode="&#x146;" horiz-adv-x="649" 
d="M206 546q20 0 31.5 -12t9.5 -31l-11 -44q87 94 181 94q77 0 123.5 -45t46.5 -121q0 -33 -15 -87l-68 -259q-13 -46 -52 -46q-24 0 -34.5 16t-3.5 43l67 251q8 36 8 59q0 49 -30 76.5t-83 27.5q-60 0 -111 -45.5t-70 -117.5l-71 -264q-13 -46 -52 -46q-23 0 -34 16t-4 43
l119 446q12 46 53 46zM213 -164q-38 8 -38 38q0 24 16 42t43 18q48 0 48 -49q0 -25 -12 -53.5t-32 -47.5q-45 -45 -104 -45q-19 0 -19 15t24 21q63 14 74 61z" />
    <glyph glyph-name="Ncaron" unicode="&#x147;" horiz-adv-x="827" 
d="M503 815l-46 85q-8 19 -8 21q0 17 23 17q37 0 56 -23l43 -52l75 53q32 22 60 22q22 0 22 -16q0 -12 -12 -22l-93 -87q-25 -25 -53 -25h-22q-30 0 -45 27zM598 160l142 527q13 46 52 46q23 0 34.5 -16t4.5 -44l-170 -633q-13 -44 -50 -44h-2q-36 0 -53 38l-273 548
l-145 -541q-13 -46 -52 -46q-23 0 -34.5 16t-4.5 44l169 628q13 49 56 49h5q38 0 58 -42z" />
    <glyph glyph-name="ncaron" unicode="&#x148;" horiz-adv-x="649" 
d="M363 642l-46 85q-8 19 -8 21q0 17 23 17q37 0 56 -23l43 -52l75 53q32 22 60 22q22 0 22 -16q0 -11 -12 -22l-93 -87q-25 -25 -53 -25h-22q-30 0 -45 27zM206 546q20 0 31.5 -12t9.5 -31l-11 -44q87 94 181 94q77 0 123.5 -45t46.5 -121q0 -33 -15 -87l-68 -259
q-13 -46 -52 -46q-24 0 -34.5 16t-3.5 43l67 251q8 36 8 59q0 49 -30 76.5t-83 27.5q-60 0 -111 -45.5t-70 -117.5l-71 -264q-13 -46 -52 -46q-23 0 -34 16t-4 43l119 446q12 46 53 46z" />
    <glyph glyph-name="Omacron" unicode="&#x14c;" horiz-adv-x="884" 
d="M725 820h-275q-16 0 -26.5 11t-10.5 26t10.5 26t26.5 11h275q15 0 26 -11t11 -26t-11 -26t-26 -11zM414 -13q-141 0 -231 90.5t-90 226.5q0 111 55 211t154 162.5t217 62.5q142 0 232 -90.5t90 -225.5q0 -112 -55 -212t-154.5 -162.5t-217.5 -62.5zM422 75
q89 0 163.5 50.5t115 129.5t40.5 165q0 101 -62.5 166.5t-166.5 65.5q-89 0 -163.5 -50.5t-115 -129t-40.5 -164.5q0 -102 62.5 -167.5t166.5 -65.5z" />
    <glyph glyph-name="omacron" unicode="&#x14d;" horiz-adv-x="676" 
d="M578 637h-275q-16 0 -26.5 11t-10.5 26t10.5 26t26.5 11h275q15 0 26 -11t11 -26t-11 -26t-26 -11zM303 -12q-112 0 -180.5 68.5t-68.5 175.5q0 127 95 224t223 97q112 0 180.5 -68.5t68.5 -175.5q0 -128 -95.5 -224.5t-222.5 -96.5zM309 70q86 0 151.5 72.5t65.5 163.5
q0 77 -44 120.5t-116 43.5q-87 0 -152 -73t-65 -162q0 -77 43.5 -121t116.5 -44z" />
    <glyph glyph-name="Obreve" unicode="&#x14e;" horiz-adv-x="884" 
d="M581 800q-58 0 -95 30t-37 77q0 19 10 30t26 11q25 0 33 -23q8 -25 24 -38.5t50 -13.5q56 0 95 53q17 22 38 22q14 0 22.5 -8t8.5 -21q0 -12 -8 -23q-26 -43 -70 -69.5t-97 -26.5zM414 -13q-141 0 -231 90.5t-90 226.5q0 111 55 211t154 162.5t217 62.5q142 0 232 -90.5
t90 -225.5q0 -112 -55 -212t-154.5 -162.5t-217.5 -62.5zM422 75q89 0 163.5 50.5t115 129.5t40.5 165q0 101 -62.5 166.5t-166.5 65.5q-89 0 -163.5 -50.5t-115 -129t-40.5 -164.5q0 -102 62.5 -167.5t166.5 -65.5z" />
    <glyph glyph-name="obreve" unicode="&#x14f;" horiz-adv-x="676" 
d="M435 617q-58 0 -95 30t-37 77q0 19 10 30t26 11q25 0 33 -23q8 -25 24 -38.5t50 -13.5q56 0 95 53q17 22 38 22q14 0 22.5 -8t8.5 -21q0 -12 -8 -23q-26 -43 -70 -69.5t-97 -26.5zM303 -12q-112 0 -180.5 68.5t-68.5 175.5q0 127 95 224t223 97q112 0 180.5 -68.5
t68.5 -175.5q0 -128 -95.5 -224.5t-222.5 -96.5zM309 70q86 0 151.5 72.5t65.5 163.5q0 77 -44 120.5t-116 43.5q-87 0 -152 -73t-65 -162q0 -77 43.5 -121t116.5 -44z" />
    <glyph glyph-name="Ohungarumlaut" unicode="&#x150;" horiz-adv-x="884" 
d="M745 952q18 0 32 -11t14 -24q0 -14 -17 -26l-92 -72q-29 -22 -54 -22q-22 0 -22 18q0 8 9 19l87 94q24 24 43 24zM568 952q19 0 32.5 -11t13.5 -24q0 -14 -16 -26l-92 -72q-29 -22 -54 -22q-22 0 -22 18q0 10 9 19l87 94q22 24 42 24zM414 -13q-141 0 -231 90.5
t-90 226.5q0 111 55 211t154 162.5t217 62.5q142 0 232 -90.5t90 -225.5q0 -112 -55 -212t-154.5 -162.5t-217.5 -62.5zM422 75q89 0 163.5 50.5t115 129.5t40.5 165q0 101 -62.5 166.5t-166.5 65.5q-89 0 -163.5 -50.5t-115 -129t-40.5 -164.5q0 -102 62.5 -167.5
t166.5 -65.5z" />
    <glyph glyph-name="ohungarumlaut" unicode="&#x151;" horiz-adv-x="676" 
d="M598 769q18 0 32 -11t14 -24q0 -14 -17 -26l-92 -72q-29 -22 -54 -22q-22 0 -22 18q0 8 9 19l87 94q24 24 43 24zM421 769q19 0 32.5 -11t13.5 -24q0 -14 -16 -26l-92 -72q-29 -22 -54 -22q-22 0 -22 18q0 10 9 19l87 94q22 24 42 24zM303 -12q-112 0 -180.5 68.5
t-68.5 175.5q0 127 95 224t223 97q112 0 180.5 -68.5t68.5 -175.5q0 -128 -95.5 -224.5t-222.5 -96.5zM309 70q86 0 151.5 72.5t65.5 163.5q0 77 -44 120.5t-116 43.5q-87 0 -152 -73t-65 -162q0 -77 43.5 -121t116.5 -44z" />
    <glyph glyph-name="OE" unicode="&#x152;" horiz-adv-x="1176" 
d="M1009 0h-555q-188 0 -286 98q-78 78 -78 208q0 168 116 284q138 138 375 138h595q18 0 31 -13t13 -31t-13 -30.5t-31 -12.5h-386l-62 -231h316q18 0 31 -12.5t13 -30.5t-13 -30.5t-31 -12.5h-340l-63 -237h368q18 0 31 -13t13 -31t-13 -30.5t-31 -12.5zM461 88h84
l148 552h-124q-179 0 -291 -110q-87 -87 -87 -219q0 -94 57 -153q70 -70 213 -70z" />
    <glyph glyph-name="oe" unicode="&#x153;" horiz-adv-x="1090" 
d="M767 67q77 0 135 45q18 10 31 10q16 0 26.5 -10.5t10.5 -26.5q0 -21 -18 -34q-83 -63 -190 -63q-80 0 -136.5 36.5t-77.5 100.5q-42 -61 -105 -99t-141 -38q-110 0 -179 68.5t-69 175.5q0 127 94.5 224t223.5 97q83 0 139.5 -40.5t77.5 -105.5q92 146 246 146
q100 0 155.5 -59.5t55.5 -149.5q0 -34 -7 -66q-8 -40 -46 -40h-381q0 -4 -0.5 -11t-0.5 -10q2 -69 43.5 -109.5t112.5 -40.5zM623 305h328q5 17 5 41q0 56 -32 92t-95 36q-73 0 -128 -48t-78 -121zM309 70q87 0 152 71t65 161q0 78 -43.5 123t-115.5 45q-88 0 -153 -72
t-65 -163q0 -76 44 -120.5t116 -44.5z" />
    <glyph glyph-name="Racute" unicode="&#x154;" horiz-adv-x="757" 
d="M644 882l-97 -73q-29 -22 -60 -22q-27 0 -27 18q0 10 9 19l86 94q24 24 42 24q21 0 42 -12t21 -24t-16 -24zM203 274l-63 -233q-13 -46 -53 -46q-23 0 -35 16t-5 44l168 625q6 22 20.5 35t33.5 13h222q141 0 209 -68q50 -48 50 -130q0 -93 -65 -160q-64 -64 -192 -86
l118 -211q11 -18 11 -34q0 -20 -14 -32t-33 -12q-37 0 -53 31l-136 248h-183zM225 360h189q134 0 195 63q42 42 42 100q0 46 -29 75q-42 42 -136 42h-185z" />
    <glyph glyph-name="racute" unicode="&#x155;" horiz-adv-x="431" 
d="M469 709l-97 -73q-29 -22 -60 -22q-27 0 -27 18q0 10 9 19l86 94q24 24 42 24q21 0 42 -11.5t21 -24.5q0 -12 -16 -24zM243 491l-20 -81q40 64 92.5 101.5t103.5 37.5q20 0 31.5 -12t11.5 -32q0 -42 -50 -51q-84 -14 -149 -76.5t-94 -168.5l-45 -168q-13 -46 -52 -46
q-24 0 -34.5 16t-3.5 43l119 446q12 46 52 46q23 0 33.5 -15.5t4.5 -39.5z" />
    <glyph glyph-name="Rcommaaccent" unicode="&#x156;" horiz-adv-x="757" 
d="M203 274l-63 -233q-13 -46 -53 -46q-23 0 -35 16t-5 44l168 625q6 22 20.5 35t33.5 13h222q141 0 209 -68q50 -48 50 -130q0 -93 -65 -160q-64 -64 -192 -86l118 -211q11 -18 11 -34q0 -20 -14 -32t-33 -12q-37 0 -53 31l-136 248h-183zM225 360h189q134 0 195 63
q42 42 42 100q0 46 -29 75q-42 42 -136 42h-185zM266 -159q-38 8 -38 38q0 24 16 42t43 18q48 0 48 -49q0 -25 -12 -53.5t-32 -47.5q-45 -45 -104 -45q-19 0 -19 15t24 21q63 14 74 61z" />
    <glyph glyph-name="rcommaaccent" unicode="&#x157;" horiz-adv-x="431" 
d="M243 491l-20 -81q40 64 92.5 101.5t103.5 37.5q20 0 31.5 -12t11.5 -32q0 -42 -50 -51q-84 -14 -149 -76.5t-94 -168.5l-45 -168q-13 -46 -52 -46q-24 0 -34.5 16t-3.5 43l119 446q12 46 52 46q23 0 33.5 -15.5t4.5 -39.5zM32 -164q-38 8 -38 38q0 24 16 42t43 18
q48 0 48 -49q0 -25 -12 -53.5t-32 -47.5q-45 -45 -104 -45q-19 0 -19 15t24 21q63 14 74 61z" />
    <glyph glyph-name="Rcaron" unicode="&#x158;" horiz-adv-x="757" 
d="M433 815l-46 85q-8 19 -8 21q0 17 23 17q37 0 56 -23l43 -52l75 53q32 22 60 22q22 0 22 -16q0 -12 -12 -22l-93 -87q-25 -25 -53 -25h-22q-30 0 -45 27zM203 274l-63 -233q-13 -46 -53 -46q-23 0 -35 16t-5 44l168 625q6 22 20.5 35t33.5 13h222q141 0 209 -68
q50 -48 50 -130q0 -93 -65 -160q-64 -64 -192 -86l118 -211q11 -18 11 -34q0 -20 -14 -32t-33 -12q-37 0 -53 31l-136 248h-183zM225 360h189q134 0 195 63q42 42 42 100q0 46 -29 75q-42 42 -136 42h-185z" />
    <glyph glyph-name="rcaron" unicode="&#x159;" horiz-adv-x="431" 
d="M257 642l-46 85q-8 19 -8 21q0 17 23 17q37 0 56 -23l43 -52l75 53q32 22 60 22q22 0 22 -16q0 -11 -12 -22l-93 -87q-25 -25 -53 -25h-22q-30 0 -45 27zM243 491l-20 -81q40 64 92.5 101.5t103.5 37.5q20 0 31.5 -12t11.5 -32q0 -42 -50 -51q-84 -14 -149 -76.5
t-94 -168.5l-45 -168q-13 -46 -52 -46q-24 0 -34.5 16t-3.5 43l119 446q12 46 52 46q23 0 33.5 -15.5t4.5 -39.5z" />
    <glyph glyph-name="Sacute" unicode="&#x15a;" horiz-adv-x="673" 
d="M625 892l-97 -73q-29 -22 -60 -22q-27 0 -27 18q0 10 9 19l86 94q24 24 42 24q21 0 42 -12t21 -24t-16 -24zM320 75q74 0 122.5 35.5t48.5 90.5q0 39 -31.5 66.5t-113.5 59.5q-103 41 -149.5 83.5t-46.5 111.5q0 94 77 155t195 61q133 0 228 -79q22 -17 22 -40
q0 -20 -13.5 -33.5t-33.5 -13.5q-19 0 -31 11q-76 70 -180 70q-74 0 -118.5 -35t-44.5 -83q0 -40 34 -66.5t121 -61.5q96 -37 141 -80.5t45 -112.5q0 -98 -80 -161t-198 -63q-172 0 -272 103q-18 18 -18 41q0 20 13 34t33 14q18 0 34 -16q46 -47 96 -69t120 -22z" />
    <glyph glyph-name="sacute" unicode="&#x15b;" horiz-adv-x="527" 
d="M505 709l-97 -73q-29 -22 -60 -22q-27 0 -27 18q0 10 9 19l86 94q24 24 42 24q21 0 42 -11.5t21 -24.5q0 -12 -16 -24zM239 64q44 0 76.5 23.5t32.5 59.5q0 25 -21.5 44.5t-73.5 39.5q-80 31 -117 63.5t-37 87.5q0 73 57 121.5t150 48.5q95 0 175 -53q23 -15 23 -38
q0 -17 -12 -29t-29 -12q-13 0 -27 9q-68 47 -138 47q-50 0 -78 -22.5t-28 -55.5q0 -25 21.5 -43.5t79.5 -42.5q76 -31 112 -64t36 -85q0 -77 -60.5 -126t-149.5 -49q-117 0 -210 73q-19 14 -19 36q0 17 12 29.5t28 12.5q13 0 30 -13q76 -62 167 -62z" />
    <glyph glyph-name="Scedilla" unicode="&#x15e;" horiz-adv-x="673" 
d="M217 -138q-15 -21 -35 -21q-16 0 -30.5 11.5t-14.5 24.5q0 12 12 27l89 92q-120 19 -196 97q-18 18 -18 41q0 20 13 34t33 14q18 0 34 -16q46 -47 96 -69t120 -22q74 0 122.5 35.5t48.5 90.5q0 39 -31.5 66.5t-113.5 59.5q-103 41 -149.5 83.5t-46.5 111.5q0 94 77 155
t195 61q133 0 228 -79q22 -17 22 -40q0 -20 -13.5 -33.5t-33.5 -13.5q-19 0 -31 11q-76 70 -180 70q-74 0 -118.5 -35t-44.5 -83q0 -40 34 -66.5t121 -61.5q96 -37 141 -80.5t45 -112.5q0 -98 -80 -161t-198 -63h-4z" />
    <glyph glyph-name="scedilla" unicode="&#x15f;" horiz-adv-x="527" 
d="M139 -138q-15 -21 -35 -21q-16 0 -30.5 11.5t-14.5 24.5q0 12 12 27l88 92q-76 17 -138 65q-19 14 -19 36q0 17 12 29.5t28 12.5q13 0 30 -13q76 -62 167 -62q44 0 76.5 23.5t32.5 59.5q0 25 -21.5 44.5t-73.5 39.5q-80 31 -117 63.5t-37 87.5q0 73 57 121.5t150 48.5
q95 0 175 -53q23 -15 23 -38q0 -17 -12 -29t-29 -12q-13 0 -27 9q-68 47 -138 47q-50 0 -78 -22.5t-28 -55.5q0 -25 21.5 -43.5t79.5 -42.5q76 -31 112 -64t36 -85q0 -77 -60.5 -126t-149.5 -49h-1z" />
    <glyph glyph-name="Scaron" unicode="&#x160;" horiz-adv-x="673" 
d="M413 825l-46 85q-8 19 -8 21q0 17 23 17q37 0 56 -23l43 -52l75 53q32 22 60 22q22 0 22 -16q0 -12 -12 -22l-93 -87q-25 -25 -53 -25h-22q-30 0 -45 27zM320 75q74 0 122.5 35.5t48.5 90.5q0 39 -31.5 66.5t-113.5 59.5q-103 41 -149.5 83.5t-46.5 111.5q0 94 77 155
t195 61q133 0 228 -79q22 -17 22 -40q0 -20 -13.5 -33.5t-33.5 -13.5q-19 0 -31 11q-76 70 -180 70q-74 0 -118.5 -35t-44.5 -83q0 -40 34 -66.5t121 -61.5q96 -37 141 -80.5t45 -112.5q0 -98 -80 -161t-198 -63q-172 0 -272 103q-18 18 -18 41q0 20 13 34t33 14
q18 0 34 -16q46 -47 96 -69t120 -22z" />
    <glyph glyph-name="scaron" unicode="&#x161;" horiz-adv-x="527" 
d="M294 642l-46 85q-8 19 -8 21q0 17 23 17q37 0 56 -23l43 -52l75 53q32 22 60 22q22 0 22 -16q0 -11 -12 -22l-93 -87q-25 -25 -53 -25h-22q-30 0 -45 27zM239 64q44 0 76.5 23.5t32.5 59.5q0 25 -21.5 44.5t-73.5 39.5q-80 31 -117 63.5t-37 87.5q0 73 57 121.5t150 48.5
q95 0 175 -53q23 -15 23 -38q0 -17 -12 -29t-29 -12q-13 0 -27 9q-68 47 -138 47q-50 0 -78 -22.5t-28 -55.5q0 -25 21.5 -43.5t79.5 -42.5q76 -31 112 -64t36 -85q0 -77 -60.5 -126t-149.5 -49q-117 0 -210 73q-19 14 -19 36q0 17 12 29.5t28 12.5q13 0 30 -13
q76 -62 167 -62z" />
    <glyph glyph-name="Tcommaaccent" unicode="&#x162;" horiz-adv-x="652" 
d="M470 639l-161 -598q-13 -46 -53 -46q-23 0 -35 16t-5 44l157 584h-188q-19 0 -32 13t-13 31q0 19 13 32t32 13h498q18 0 31 -13t13 -32q0 -18 -13 -31t-31 -13h-213zM215 -164q-38 8 -38 38q0 24 16 42t43 18q48 0 48 -49q0 -25 -12 -53.5t-32 -47.5q-45 -45 -104 -45
q-19 0 -19 15t24 21q63 14 74 61z" />
    <glyph glyph-name="Tcommaaccent" unicode="&#x21a;" horiz-adv-x="652" 
d="M470 639l-161 -598q-13 -46 -53 -46q-23 0 -35 16t-5 44l157 584h-188q-19 0 -32 13t-13 31q0 19 13 32t32 13h498q18 0 31 -13t13 -32q0 -18 -13 -31t-31 -13h-213zM215 -164q-38 8 -38 38q0 24 16 42t43 18q48 0 48 -49q0 -25 -12 -53.5t-32 -47.5q-45 -45 -104 -45
q-19 0 -19 15t24 21q63 14 74 61z" />
    <glyph glyph-name="tcommaaccent" unicode="&#x163;" horiz-adv-x="430" 
d="M192 541l31 118q13 46 53 46q23 0 33.5 -16t3.5 -43l-28 -105h115q17 0 29 -12t12 -29t-12 -29t-29 -12h-137l-79 -296q-5 -20 -5 -37q0 -52 68 -52q14 0 30 4q19 3 30.5 -6.5t11.5 -28.5q0 -28 -28 -40q-31 -12 -77 -12q-62 0 -98 28t-36 78q0 23 8 59l82 303h-30
q-15 2 -26.5 13t-11.5 28t11.5 29t28.5 12h50zM137 -164q-38 8 -38 38q0 24 16 42t43 18q48 0 48 -49q0 -25 -12 -53.5t-32 -47.5q-45 -45 -104 -45q-19 0 -19 15t24 21q63 14 74 61z" />
    <glyph glyph-name="tcommaaccent" unicode="&#x21b;" horiz-adv-x="430" 
d="M192 541l31 118q13 46 53 46q23 0 33.5 -16t3.5 -43l-28 -105h115q17 0 29 -12t12 -29t-12 -29t-29 -12h-137l-79 -296q-5 -20 -5 -37q0 -52 68 -52q14 0 30 4q19 3 30.5 -6.5t11.5 -28.5q0 -28 -28 -40q-31 -12 -77 -12q-62 0 -98 28t-36 78q0 23 8 59l82 303h-30
q-15 2 -26.5 13t-11.5 28t11.5 29t28.5 12h50zM137 -164q-38 8 -38 38q0 24 16 42t43 18q48 0 48 -49q0 -25 -12 -53.5t-32 -47.5q-45 -45 -104 -45q-19 0 -19 15t24 21q63 14 74 61z" />
    <glyph glyph-name="Tcaron" unicode="&#x164;" horiz-adv-x="652" 
d="M412 815l-46 85q-8 19 -8 21q0 17 23 17q37 0 56 -23l43 -52l75 53q32 22 60 22q22 0 22 -16q0 -12 -12 -22l-93 -87q-25 -25 -53 -25h-22q-30 0 -45 27zM470 639l-161 -598q-13 -46 -53 -46q-23 0 -35 16t-5 44l157 584h-188q-19 0 -32 13t-13 31q0 19 13 32t32 13h498
q18 0 31 -13t13 -32q0 -18 -13 -31t-31 -13h-213z" />
    <glyph glyph-name="tcaron" unicode="&#x165;" horiz-adv-x="430" 
d="M390 636l41 123q11 35 47 35h18q20 0 20 -16q0 -11 -10 -28l-70 -120q-12 -22 -31 -22q-18 0 -18 15q0 5 3 13zM192 541l31 118q13 46 53 46q23 0 33.5 -16t3.5 -43l-28 -105h115q17 0 29 -12t12 -29t-12 -29t-29 -12h-137l-79 -296q-5 -20 -5 -37q0 -52 68 -52
q14 0 30 4q19 3 30.5 -6.5t11.5 -28.5q0 -28 -28 -40q-31 -12 -77 -12q-62 0 -98 28t-36 78q0 23 8 59l82 303h-30q-15 2 -26.5 13t-11.5 28t11.5 29t28.5 12h50z" />
    <glyph glyph-name="Umacron" unicode="&#x16a;" horiz-adv-x="800" 
d="M683 810h-275q-16 0 -26.5 11t-10.5 26t10.5 26t26.5 11h275q15 0 26 -11t11 -26t-11 -26t-26 -11zM811 673l-101 -379q-37 -136 -114 -215q-92 -90 -231 -90q-127 0 -196.5 64t-69.5 171q0 51 15 114l93 349q13 46 54 46q23 0 34.5 -16t4.5 -44l-94 -356
q-11 -40 -11 -81q0 -71 46 -115t133 -44q91 0 154 63q59 59 90 170l101 377q13 46 53 46q24 0 35.5 -16.5t3.5 -43.5z" />
    <glyph glyph-name="umacron" unicode="&#x16b;" horiz-adv-x="649" 
d="M561 637h-275q-16 0 -26.5 11t-10.5 26t10.5 26t26.5 11h275q15 0 26 -11t11 -26t-11 -26t-26 -11zM443 -5q-21 0 -32 12.5t-9 30.5l11 45q-86 -95 -181 -95q-77 0 -123.5 45t-46.5 121q0 30 14 88l69 258q12 46 52 46q23 0 34 -16t4 -43l-67 -250q-8 -29 -8 -60
q0 -49 30 -76.5t83 -27.5q60 0 111 45.5t70 117.5l71 264q11 46 52 46q23 0 34 -16t4 -43l-119 -446q-13 -46 -53 -46z" />
    <glyph glyph-name="Ubreve" unicode="&#x16c;" horiz-adv-x="800" 
d="M539 790q-58 0 -95 30t-37 77q0 19 10 30t26 11q25 0 33 -23q8 -25 24 -38.5t50 -13.5q56 0 95 53q17 22 38 22q14 0 22.5 -8t8.5 -21q0 -12 -8 -23q-26 -43 -70 -69.5t-97 -26.5zM811 673l-101 -379q-37 -136 -114 -215q-92 -90 -231 -90q-127 0 -196.5 64t-69.5 171
q0 51 15 114l93 349q13 46 54 46q23 0 34.5 -16t4.5 -44l-94 -356q-11 -40 -11 -81q0 -71 46 -115t133 -44q91 0 154 63q59 59 90 170l101 377q13 46 53 46q24 0 35.5 -16.5t3.5 -43.5z" />
    <glyph glyph-name="ubreve" unicode="&#x16d;" horiz-adv-x="649" 
d="M418 617q-58 0 -95 30t-37 77q0 19 10 30t26 11q25 0 33 -23q8 -25 24 -38.5t50 -13.5q56 0 95 53q17 22 38 22q14 0 22.5 -8t8.5 -21q0 -12 -8 -23q-26 -43 -70 -69.5t-97 -26.5zM443 -5q-21 0 -32 12.5t-9 30.5l11 45q-86 -95 -181 -95q-77 0 -123.5 45t-46.5 121
q0 30 14 88l69 258q12 46 52 46q23 0 34 -16t4 -43l-67 -250q-8 -29 -8 -60q0 -49 30 -76.5t83 -27.5q60 0 111 45.5t70 117.5l71 264q11 46 52 46q23 0 34 -16t4 -43l-119 -446q-13 -46 -53 -46z" />
    <glyph glyph-name="Uring" unicode="&#x16e;" horiz-adv-x="800" 
d="M546 782q-47 0 -75.5 26.5t-28.5 67.5q0 49 37 84.5t87 35.5q46 0 74.5 -27t28.5 -68q0 -49 -36.5 -84t-86.5 -35zM547 825q31 0 52 22t21 53q0 23 -14.5 38t-41.5 15q-30 0 -51.5 -22.5t-21.5 -53.5q0 -23 14.5 -37.5t41.5 -14.5zM811 673l-101 -379q-37 -136 -114 -215
q-92 -90 -231 -90q-127 0 -196.5 64t-69.5 171q0 51 15 114l93 349q13 46 54 46q23 0 34.5 -16t4.5 -44l-94 -356q-11 -40 -11 -81q0 -71 46 -115t133 -44q91 0 154 63q59 59 90 170l101 377q13 46 53 46q24 0 35.5 -16.5t3.5 -43.5z" />
    <glyph glyph-name="uring" unicode="&#x16f;" horiz-adv-x="649" 
d="M426 615q-47 0 -75.5 26.5t-28.5 67.5q0 49 37 84.5t87 35.5q46 0 74.5 -27t28.5 -68q0 -49 -36.5 -84t-86.5 -35zM427 658q31 0 52 22t21 53q0 23 -14.5 38t-41.5 15q-30 0 -51.5 -22.5t-21.5 -53.5q0 -23 14.5 -37.5t41.5 -14.5zM443 -5q-21 0 -32 12.5t-9 30.5l11 45
q-86 -95 -181 -95q-77 0 -123.5 45t-46.5 121q0 30 14 88l69 258q12 46 52 46q23 0 34 -16t4 -43l-67 -250q-8 -29 -8 -60q0 -49 30 -76.5t83 -27.5q60 0 111 45.5t70 117.5l71 264q11 46 52 46q23 0 34 -16t4 -43l-119 -446q-13 -46 -53 -46z" />
    <glyph glyph-name="Uhungarumlaut" unicode="&#x170;" horiz-adv-x="800" 
d="M702 942q18 0 32 -11t14 -24q0 -14 -17 -26l-92 -72q-29 -22 -54 -22q-22 0 -22 18q0 8 9 19l87 94q24 24 43 24zM525 942q19 0 32.5 -11t13.5 -24q0 -14 -16 -26l-92 -72q-29 -22 -54 -22q-22 0 -22 18q0 10 9 19l87 94q22 24 42 24zM811 673l-101 -379
q-37 -136 -114 -215q-92 -90 -231 -90q-127 0 -196.5 64t-69.5 171q0 51 15 114l93 349q13 46 54 46q23 0 34.5 -16t4.5 -44l-94 -356q-11 -40 -11 -81q0 -71 46 -115t133 -44q91 0 154 63q59 59 90 170l101 377q13 46 53 46q24 0 35.5 -16.5t3.5 -43.5z" />
    <glyph glyph-name="uhungarumlaut" unicode="&#x171;" horiz-adv-x="649" 
d="M581 769q18 0 32 -11t14 -24q0 -14 -17 -26l-92 -72q-29 -22 -54 -22q-22 0 -22 18q0 8 9 19l87 94q24 24 43 24zM404 769q19 0 32.5 -11t13.5 -24q0 -14 -16 -26l-92 -72q-29 -22 -54 -22q-22 0 -22 18q0 10 9 19l87 94q22 24 42 24zM443 -5q-21 0 -32 12.5t-9 30.5
l11 45q-86 -95 -181 -95q-77 0 -123.5 45t-46.5 121q0 30 14 88l69 258q12 46 52 46q23 0 34 -16t4 -43l-67 -250q-8 -29 -8 -60q0 -49 30 -76.5t83 -27.5q60 0 111 45.5t70 117.5l71 264q11 46 52 46q23 0 34 -16t4 -43l-119 -446q-13 -46 -53 -46z" />
    <glyph glyph-name="Uogonek" unicode="&#x172;" horiz-adv-x="800" 
d="M337 -172q-50 0 -77.5 19.5t-27.5 49.5q0 46 66 97q-96 16 -147.5 77t-51.5 153q0 51 15 114l93 349q13 46 54 46q23 0 34.5 -16t4.5 -44l-94 -356q-11 -40 -11 -81q0 -71 46 -115t133 -44q91 0 154 63q59 59 90 170l101 377q13 46 53 46q24 0 35.5 -16.5t3.5 -43.5
l-101 -379q-37 -136 -114 -215q-92 -90 -230 -90q-53 -44 -53 -74q0 -24 44 -33q24 -6 24 -26q-2 -28 -44 -28z" />
    <glyph glyph-name="uogonek" unicode="&#x173;" horiz-adv-x="649" 
d="M615 487l-119 -446q-6 -22 -24 -38q-71 -56 -71 -88q0 -13 10 -20.5t35 -12.5q24 -6 23 -26q0 -28 -43 -28q-50 0 -78 19.5t-28 49.5q0 51 90 115q-9 11 -8 26l11 45q-86 -95 -181 -95q-77 0 -123.5 45t-46.5 121q0 30 14 88l69 258q12 46 52 46q23 0 34 -16t4 -43
l-67 -250q-8 -29 -8 -60q0 -49 30 -76.5t83 -27.5q60 0 111 45.5t70 117.5l71 264q11 46 52 46q23 0 34 -16t4 -43z" />
    <glyph glyph-name="Wcircumflex" unicode="&#x174;" horiz-adv-x="1141" 
d="M786 910l45 -85q9 -16 9 -21q0 -17 -23 -17q-37 0 -57 23l-42 52l-75 -53q-34 -22 -60 -22q-22 0 -22 16q0 11 12 22l93 87q25 25 53 25h22q30 0 45 -27zM1189 665l-398 -633q-25 -42 -63 -42h-4q-42 0 -44 45l-37 526l-321 -529q-26 -42 -62 -42h-5q-41 0 -44 45
l-57 629q-2 10 -2 23q0 20 14 33t36 13q46 0 49 -43l42 -548l331 556q22 36 54 36h4q40 0 43 -39l35 -553l342 557q19 34 53 34q19 0 31 -11t12 -28q0 -15 -9 -29z" />
    <glyph glyph-name="wcircumflex" unicode="&#x175;" horiz-adv-x="894" 
d="M618 737l45 -85q9 -16 9 -21q0 -17 -23 -17q-37 0 -57 23l-42 52l-75 -53q-34 -22 -60 -22q-22 0 -22 16q0 12 12 22l93 87q25 25 53 25h22q30 0 45 -27zM140 37l-37 439q0 3 -0.5 11.5t-0.5 12.5q0 19 14 32.5t34 13.5q21 0 33.5 -11.5t13.5 -31.5l25 -374l229 381
q21 37 54 37h4q40 0 42 -39l26 -379l234 387q18 30 46 30q38 0 38 -36q0 -15 -8 -29l-280 -451q-23 -39 -60 -39h-2q-42 0 -45 46l-26 368l-229 -375q-23 -39 -59 -39h-3q-41 0 -43 46z" />
    <glyph glyph-name="Ycircumflex" unicode="&#x176;" horiz-adv-x="697" 
d="M561 910l45 -85q9 -16 9 -21q0 -17 -23 -17q-37 0 -57 23l-42 52l-75 -53q-34 -22 -60 -22q-22 0 -22 16q0 11 12 22l93 87q25 25 53 25h22q30 0 45 -27zM391 276l-62 -235q-13 -46 -53 -46q-23 0 -35 16t-5 44l63 235l-156 362q-9 20 -9 35q0 20 14 33t36 13
q34 0 48 -39l133 -323l318 335q25 27 52 27q18 0 29.5 -11t11.5 -29q0 -20 -18 -40z" />
    <glyph glyph-name="ycircumflex" unicode="&#x177;" horiz-adv-x="611" 
d="M463 737l45 -85q9 -16 9 -21q0 -17 -23 -17q-37 0 -57 23l-42 52l-75 -53q-34 -22 -60 -22q-22 0 -22 16q0 12 12 22l93 87q25 25 53 25h22q30 0 45 -27zM2 -72q35 -16 64 -16q61 0 123 89l-86 474q-3 12 -3 26q0 19 13.5 32t33.5 13q19 0 32 -11.5t15 -31.5l66 -399
l263 410q19 32 50 32q19 0 30 -10t11 -27q0 -15 -12 -34l-327 -492q-55 -83 -106.5 -118t-113.5 -35q-47 0 -87 20q-28 13 -28 41q0 18 11.5 30t27.5 12q10 0 23 -5z" />
    <glyph glyph-name="Ydieresis" unicode="&#x178;" horiz-adv-x="697" 
d="M632 832q-10 -46 -61 -46q-24 0 -37 14.5t-8 35.5l6 22q5 22 21.5 34.5t39.5 12.5t36.5 -15t8.5 -35zM442 832q-5 -22 -21.5 -34t-39.5 -12q-24 0 -37 14t-9 36l6 22q5 22 21.5 34.5t39.5 12.5t37 -15t9 -35zM391 276l-62 -235q-13 -46 -53 -46q-23 0 -35 16t-5 44
l63 235l-156 362q-9 20 -9 35q0 20 14 33t36 13q34 0 48 -39l133 -323l318 335q25 27 52 27q18 0 29.5 -11t11.5 -29q0 -20 -18 -40z" />
    <glyph glyph-name="Zacute" unicode="&#x179;" horiz-adv-x="710" 
d="M635 882l-97 -73q-29 -22 -60 -22q-27 0 -27 18q0 10 9 19l86 94q24 24 42 24q21 0 42 -12t21 -24t-16 -24zM23 85l582 558h-382q-18 0 -30.5 12t-12.5 30q0 17 12.5 30t30.5 13h490q41 0 41 -36v-1q0 -23 -27 -48l-582 -558h401q18 0 30.5 -12.5t12.5 -29.5
q0 -18 -12.5 -30.5t-30.5 -12.5h-509q-41 0 -41 36v1q0 23 27 48z" />
    <glyph glyph-name="zacute" unicode="&#x17a;" horiz-adv-x="582" 
d="M526 709l-97 -73q-29 -22 -60 -22q-27 0 -27 18q0 10 9 19l86 94q24 24 42 24q21 0 42 -11.5t21 -24.5q0 -12 -16 -24zM165 541h376q42 0 42 -34v-1q0 -22 -22 -41l-426 -386h292q17 0 28.5 -11.5t11.5 -28.5q0 -16 -11.5 -27.5t-28.5 -11.5h-391q-41 0 -41 35v1
q0 22 21 40l427 387h-278q-16 0 -27.5 11.5t-11.5 27.5t11.5 27.5t27.5 11.5z" />
    <glyph glyph-name="Zdotaccent" unicode="&#x17b;" horiz-adv-x="710" 
d="M539 832q-11 -46 -62 -46q-24 0 -37.5 14.5t-8.5 35.5l6 22q5 22 22 34.5t40 12.5t36.5 -15t9.5 -35zM23 85l582 558h-382q-18 0 -30.5 12t-12.5 30q0 17 12.5 30t30.5 13h490q41 0 41 -36v-1q0 -23 -27 -48l-582 -558h401q18 0 30.5 -12.5t12.5 -29.5q0 -18 -12.5 -30.5
t-30.5 -12.5h-509q-41 0 -41 36v1q0 23 27 48z" />
    <glyph glyph-name="zdotaccent" unicode="&#x17c;" horiz-adv-x="582" 
d="M431 659q-11 -46 -62 -46q-24 0 -37.5 14.5t-8.5 35.5l6 22q5 22 22 34.5t40 12.5t36.5 -15t9.5 -35zM165 541h376q42 0 42 -34v-1q0 -22 -22 -41l-426 -386h292q17 0 28.5 -11.5t11.5 -28.5q0 -16 -11.5 -27.5t-28.5 -11.5h-391q-41 0 -41 35v1q0 22 21 40l427 387h-278
q-16 0 -27.5 11.5t-11.5 27.5t11.5 27.5t27.5 11.5z" />
    <glyph glyph-name="Zcaron" unicode="&#x17d;" horiz-adv-x="710" 
d="M424 815l-46 85q-8 19 -8 21q0 17 23 17q37 0 56 -23l43 -52l75 53q32 22 60 22q22 0 22 -16q0 -12 -12 -22l-93 -87q-25 -25 -53 -25h-22q-30 0 -45 27zM23 85l582 558h-382q-18 0 -30.5 12t-12.5 30q0 17 12.5 30t30.5 13h490q41 0 41 -36v-1q0 -23 -27 -48l-582 -558
h401q18 0 30.5 -12.5t12.5 -29.5q0 -18 -12.5 -30.5t-30.5 -12.5h-509q-41 0 -41 36v1q0 23 27 48z" />
    <glyph glyph-name="zcaron" unicode="&#x17e;" horiz-adv-x="582" 
d="M315 642l-46 85q-8 19 -8 21q0 17 23 17q37 0 56 -23l43 -52l75 53q32 22 60 22q22 0 22 -16q0 -11 -12 -22l-93 -87q-25 -25 -53 -25h-22q-30 0 -45 27zM165 541h376q42 0 42 -34v-1q0 -22 -22 -41l-426 -386h292q17 0 28.5 -11.5t11.5 -28.5q0 -16 -11.5 -27.5
t-28.5 -11.5h-391q-41 0 -41 35v1q0 22 21 40l427 387h-278q-16 0 -27.5 11.5t-11.5 27.5t11.5 27.5t27.5 11.5z" />
    <glyph glyph-name="florin" unicode="&#x192;" horiz-adv-x="564" 
d="M53 -11q-58 0 -58 41q0 37 50 39q34 0 58.5 21t47.5 72l97 221h-52q-15 0 -26.5 11.5t-11.5 27.5q0 17 11.5 29t28.5 12h85l53 119q68 157 202 157q34 0 58 -7q34 -9 34 -39q0 -19 -12.5 -30.5t-27.5 -10.5q-3 0 -20 3t-31 3q-76 0 -121 -102l-42 -93h104q16 0 28 -12
t12 -29q0 -16 -11.5 -27.5t-28.5 -11.5h-139l-109 -248q-65 -146 -179 -146z" />
    <glyph glyph-name="Aringacute" unicode="&#x1fa;" horiz-adv-x="791" 
d="M739 1026l-97 -73q-29 -22 -60 -22q-27 0 -27 18q0 10 9 19l86 94q24 24 42 24q21 0 42 -12t21 -24t-16 -24zM31 -5q-18 0 -29 10.5t-11 28.5q0 17 11 31l469 647q-40 26 -40 75t36 84t86 35q47 0 76.5 -27t29.5 -67q0 -37 -21.5 -66.5t-55.5 -42.5l120 -636q3 -24 3 -26
q0 -19 -13.5 -32.5t-34.5 -13.5q-41 0 -48 41l-27 152h-386l-115 -161q-23 -32 -50 -32zM537 735q31 0 51.5 22.5t20.5 53.5q0 23 -15 37.5t-42 14.5q-30 0 -51 -22.5t-21 -53.5q0 -23 15.5 -37.5t41.5 -14.5zM256 274h311l-62 348z" />
    <glyph glyph-name="aringacute" unicode="&#x1fb;" horiz-adv-x="611" 
d="M595 960l-97 -73q-29 -22 -60 -22q-27 0 -27 18q0 10 9 19l86 94q24 24 42 24q21 0 42 -12t21 -24t-16 -24zM402 618q-47 0 -75.5 26.5t-28.5 67.5q0 49 37 84.5t87 35.5q46 0 74.5 -27t28.5 -68q0 -49 -36.5 -84t-86.5 -35zM403 661q31 0 52 22t21 53q0 23 -14.5 38
t-41.5 15q-30 0 -51.5 -22.5t-21.5 -53.5q0 -23 14.5 -37.5t41.5 -14.5zM224 60q66 0 123 42.5t75 108.5l10 34q-81 22 -162 22q-68 0 -110 -33t-42 -86q0 -40 28.5 -64t77.5 -24zM415 -5q-24 0 -33.5 13.5t-6.5 32.5l11 40q-81 -93 -195 -93q-71 0 -120 40.5t-49 108.5
q0 90 67 143t173 53q90 0 185 -28l3 12q7 24 7 48q0 101 -138 101q-63 0 -119 -18q-18 -3 -19 -3q-16 0 -26.5 11t-10.5 28q0 31 31 39q78 26 160 26q103 0 158.5 -44.5t55.5 -123.5q0 -31 -12 -76l-70 -264q-13 -46 -52 -46z" />
    <glyph glyph-name="AEacute" unicode="&#x1fc;" horiz-adv-x="1117" 
d="M939 882l-97 -73q-29 -22 -60 -22q-27 0 -27 18q0 10 9 19l86 94q24 24 42 24q21 0 42 -12t21 -24t-16 -24zM297 274h238l99 369h-24zM611 728h506q18 0 31 -13t13 -31t-13 -30.5t-31 -12.5h-387l-62 -231h317q18 0 31 -12.5t13 -30.5t-13 -30.5t-31 -12.5h-340l-64 -237
h369q18 0 31 -13t13 -31t-13 -30.5t-31 -12.5h-433q-23 0 -35 16t-5 42l36 130h-286l-137 -162q-26 -31 -51 -31q-17 0 -27.5 10t-10.5 26q0 19 15 38l528 620q32 39 67 39z" />
    <glyph glyph-name="aeacute" unicode="&#x1fd;" horiz-adv-x="1003" 
d="M736 709l-97 -73q-29 -22 -60 -22q-27 0 -27 18q0 10 9 19l86 94q24 24 42 24q21 0 42 -11.5t21 -24.5q0 -12 -16 -24zM536 305h328q5 17 5 41q0 56 -32 92t-95 36q-73 0 -128 -48t-78 -121zM959 344q0 -36 -7 -64q-9 -42 -49 -42h-378q0 -4 -0.5 -11t-0.5 -10
q2 -69 43.5 -109.5t112.5 -40.5q76 0 135 45q18 10 31 10q16 0 26.5 -10.5t10.5 -26.5q0 -20 -18 -34q-80 -63 -191 -63q-153 0 -211 120q-117 -120 -259 -120q-82 0 -132 40.5t-50 112.5q0 88 68.5 140t173.5 52q92 0 183 -28l3 12q7 24 7 48q0 101 -138 101
q-62 0 -119 -18q-18 -3 -19 -3q-16 0 -26.5 11t-10.5 28q0 31 31 39q80 26 160 26q77 0 127 -28.5t67 -80.5q92 113 221 113q98 0 153.5 -59.5t55.5 -149.5zM272 267q-68 0 -111 -32t-43 -84q0 -41 29.5 -66t83.5 -25q113 0 213 106q-5 25 -5 49q0 9 2 27q-73 25 -169 25z
" />
    <glyph glyph-name="Oslashacute" unicode="&#x1fe;" horiz-adv-x="884" 
d="M740 892l-97 -73q-29 -22 -60 -22q-27 0 -27 18q0 10 9 19l86 94q24 24 42 24q21 0 42 -12t21 -24t-16 -24zM181 81l-89 -74q-19 -17 -38 -17q-14 0 -22 8.5t-8 21.5q0 16 19 33l96 81q-46 74 -46 170q0 111 55 211t154 162.5t217 62.5q143 0 234 -93l88 74q21 17 37 17
q31 0 31 -29q0 -17 -19 -34l-95 -81q46 -78 46 -170q0 -112 -55 -212t-154.5 -162.5t-217.5 -62.5q-142 0 -233 94zM191 308q0 -65 24 -113l466 391q-64 69 -169 69q-89 0 -164 -51t-116 -130.5t-41 -165.5zM422 72q89 0 164 51.5t116 131t41 165.5q0 61 -25 111l-466 -390
q63 -69 170 -69z" />
    <glyph glyph-name="oslashacute" unicode="&#x1ff;" horiz-adv-x="676" 
d="M591 709l-97 -73q-29 -22 -60 -22q-27 0 -27 18q0 10 9 19l86 94q24 24 42 24q21 0 42 -11.5t21 -24.5q0 -12 -16 -24zM132 50l-53 -45q-19 -15 -34 -15q-13 0 -22 8t-9 20q0 17 17 32l58 48q-35 58 -35 134q0 127 95 224t223 97q101 0 169 -60l54 45q17 15 34 15
q13 0 21.5 -8t8.5 -21q0 -17 -17 -31l-57 -49q36 -57 36 -135q0 -128 -95.5 -224.5t-222.5 -96.5q-103 0 -171 62zM147 235q0 -38 13 -74l317 272q-41 39 -111 39q-88 0 -153.5 -73.5t-65.5 -163.5zM309 68q86 0 152.5 73t66.5 165q0 41 -14 75l-318 -273q42 -40 113 -40z
" />
    <glyph glyph-name="Scommaaccent" unicode="&#x218;" horiz-adv-x="673" 
d="M320 75q74 0 122.5 35.5t48.5 90.5q0 39 -31.5 66.5t-113.5 59.5q-103 41 -149.5 83.5t-46.5 111.5q0 94 77 155t195 61q133 0 228 -79q22 -17 22 -40q0 -20 -13.5 -33.5t-33.5 -13.5q-19 0 -31 11q-76 70 -180 70q-74 0 -118.5 -35t-44.5 -83q0 -40 34 -66.5t121 -61.5
q96 -37 141 -80.5t45 -112.5q0 -98 -80 -161t-198 -63q-172 0 -272 103q-18 18 -18 41q0 20 13 34t33 14q18 0 34 -16q46 -47 96 -69t120 -22zM216 -166q-38 8 -38 38q0 24 16 42t43 18q48 0 48 -49q0 -25 -12 -53.5t-32 -47.5q-45 -45 -104 -45q-19 0 -19 15t24 21
q63 14 74 61z" />
    <glyph glyph-name="scommaaccent" unicode="&#x219;" horiz-adv-x="527" 
d="M239 64q44 0 76.5 23.5t32.5 59.5q0 25 -21.5 44.5t-73.5 39.5q-80 31 -117 63.5t-37 87.5q0 73 57 121.5t150 48.5q95 0 175 -53q23 -15 23 -38q0 -17 -12 -29t-29 -12q-13 0 -27 9q-68 47 -138 47q-50 0 -78 -22.5t-28 -55.5q0 -25 21.5 -43.5t79.5 -42.5
q76 -31 112 -64t36 -85q0 -77 -60.5 -126t-149.5 -49q-117 0 -210 73q-19 14 -19 36q0 17 12 29.5t28 12.5q13 0 30 -13q76 -62 167 -62zM142 -164q-38 8 -38 38q0 24 16 42t43 18q48 0 48 -49q0 -25 -12 -53.5t-32 -47.5q-45 -45 -104 -45q-19 0 -19 15t24 21q63 14 74 61z
" />
    <glyph glyph-name="schwa" unicode="&#x259;" horiz-adv-x="626" 
d="M324 474q-74 0 -135 -45q-16 -10 -31 -10q-16 0 -26.5 10.5t-10.5 26.5q0 20 19 34q84 64 191 64q109 0 175.5 -64t66.5 -169q0 -82 -40 -158.5t-114 -125.5t-162 -49q-100 0 -156 59.5t-56 149.5q0 36 7 64q9 42 49 42h378q1 7 1 21q-2 69 -43.5 109.5t-112.5 40.5z
M468 236h-328q-4 -18 -4 -40q0 -56 32 -92.5t94 -36.5q73 0 128.5 48t77.5 121z" />
    <glyph glyph-name="circumflex" unicode="&#x2c6;" 
d="M452 737l45 -85q9 -16 9 -21q0 -17 -23 -17q-37 0 -57 23l-42 52l-75 -53q-34 -22 -60 -22q-22 0 -22 16q0 12 12 22l93 87q25 25 53 25h22q30 0 45 -27z" />
    <glyph glyph-name="caron" unicode="&#x2c7;" 
d="M302 642l-46 85q-8 19 -8 21q0 17 23 17q37 0 56 -23l43 -52l75 53q32 22 60 22q22 0 22 -16q0 -11 -12 -22l-93 -87q-25 -25 -53 -25h-22q-30 0 -45 27z" />
    <glyph glyph-name="breve" unicode="&#x2d8;" 
d="M366 617q-58 0 -95 30t-37 77q0 19 10 30t26 11q25 0 33 -23q8 -25 24 -38.5t50 -13.5q56 0 95 53q17 22 38 22q14 0 22.5 -8t8.5 -21q0 -12 -8 -23q-26 -43 -70 -69.5t-97 -26.5z" />
    <glyph glyph-name="dotaccent" unicode="&#x2d9;" 
d="M424 659q-11 -46 -62 -46q-24 0 -37.5 14.5t-8.5 35.5l6 22q5 22 22 34.5t40 12.5t36.5 -15t9.5 -35z" />
    <glyph glyph-name="ring" unicode="&#x2da;" 
d="M376 618q-47 0 -75.5 26.5t-28.5 67.5q0 49 37 84.5t87 35.5q46 0 74.5 -27t28.5 -68q0 -49 -36.5 -84t-86.5 -35zM377 661q31 0 52 22t21 53q0 23 -14.5 38t-41.5 15q-30 0 -51.5 -22.5t-21.5 -53.5q0 -23 14.5 -37.5t41.5 -14.5z" />
    <glyph glyph-name="ogonek" unicode="&#x2db;" 
d="M209 -172q-50 0 -77.5 19.5t-27.5 49.5q0 53 95 118l59 -10q-73 -57 -73 -90q0 -24 44 -33q24 -6 24 -26q-2 -28 -44 -28z" />
    <glyph glyph-name="tilde" unicode="&#x2dc;" 
d="M222 614q-13 0 -22 8t-9 20t8 25q51 89 114 89q36 0 75 -34q13 -11 17 -14t11.5 -8t12.5 -6.5t11 -1.5q26 0 55 44q15 19 31 19q13 0 22 -8t9 -20t-8 -25q-51 -89 -114 -89q-16 0 -30 5t-22 10.5t-23 18.5q-13 11 -17 14t-11.5 8t-12.5 6.5t-11 1.5q-26 0 -55 -44
q-15 -19 -31 -19z" />
    <glyph glyph-name="hungarumlaut" unicode="&#x2dd;" 
d="M511 769q18 0 32 -11t14 -24q0 -14 -17 -26l-92 -72q-29 -22 -54 -22q-22 0 -22 18q0 8 9 19l87 94q24 24 43 24zM334 769q19 0 32.5 -11t13.5 -24q0 -14 -16 -26l-92 -72q-29 -22 -54 -22q-22 0 -22 18q0 10 9 19l87 94q22 24 42 24z" />
    <glyph glyph-name="commaaccent" unicode="&#x326;" 
d="M146 -164q-38 8 -38 38q0 24 16 42t43 18q48 0 48 -49q0 -25 -12 -53.5t-32 -47.5q-45 -45 -104 -45q-19 0 -19 15t24 21q63 14 74 61z" />
    <glyph glyph-name="Wgrave" unicode="&#x1e80;" horiz-adv-x="1141" 
d="M643 809l-57 74q-10 13 -10 23q0 13 19 24t40 11q30 0 40 -26l35 -92q3 -9 3 -16q0 -20 -28 -20q-25 0 -42 22zM1189 665l-398 -633q-25 -42 -63 -42h-4q-42 0 -44 45l-37 526l-321 -529q-26 -42 -62 -42h-5q-41 0 -44 45l-57 629q-2 10 -2 23q0 20 14 33t36 13
q46 0 49 -43l42 -548l331 556q22 36 54 36h4q40 0 43 -39l35 -553l342 557q19 34 53 34q19 0 31 -11t12 -28q0 -15 -9 -29z" />
    <glyph glyph-name="wgrave" unicode="&#x1e81;" horiz-adv-x="894" 
d="M474 636l-57 74q-10 13 -10 23q0 13 19 24t40 11q30 0 40 -26l35 -92q3 -9 3 -16q0 -20 -28 -20q-25 0 -42 22zM140 37l-37 439q0 3 -0.5 11.5t-0.5 12.5q0 19 14 32.5t34 13.5q21 0 33.5 -11.5t13.5 -31.5l25 -374l229 381q21 37 54 37h4q40 0 42 -39l26 -379l234 387
q18 30 46 30q38 0 38 -36q0 -15 -8 -29l-280 -451q-23 -39 -60 -39h-2q-42 0 -45 46l-26 368l-229 -375q-23 -39 -59 -39h-3q-41 0 -43 46z" />
    <glyph glyph-name="Wacute" unicode="&#x1e82;" horiz-adv-x="1141" 
d="M859 882l-97 -73q-29 -22 -60 -22q-27 0 -27 18q0 10 9 19l86 94q24 24 42 24q21 0 42 -12t21 -24t-16 -24zM1189 665l-398 -633q-25 -42 -63 -42h-4q-42 0 -44 45l-37 526l-321 -529q-26 -42 -62 -42h-5q-41 0 -44 45l-57 629q-2 10 -2 23q0 20 14 33t36 13q46 0 49 -43
l42 -548l331 556q22 36 54 36h4q40 0 43 -39l35 -553l342 557q19 34 53 34q19 0 31 -11t12 -28q0 -15 -9 -29z" />
    <glyph glyph-name="wacute" unicode="&#x1e83;" horiz-adv-x="894" 
d="M691 709l-97 -73q-29 -22 -60 -22q-27 0 -27 18q0 10 9 19l86 94q24 24 42 24q21 0 42 -11.5t21 -24.5q0 -12 -16 -24zM140 37l-37 439q0 3 -0.5 11.5t-0.5 12.5q0 19 14 32.5t34 13.5q21 0 33.5 -11.5t13.5 -31.5l25 -374l229 381q21 37 54 37h4q40 0 42 -39l26 -379
l234 387q18 30 46 30q38 0 38 -36q0 -15 -8 -29l-280 -451q-23 -39 -60 -39h-2q-42 0 -45 46l-26 368l-229 -375q-23 -39 -59 -39h-3q-41 0 -43 46z" />
    <glyph glyph-name="Wdieresis" unicode="&#x1e84;" horiz-adv-x="1141" 
d="M857 832q-10 -46 -61 -46q-24 0 -37 14.5t-8 35.5l6 22q5 22 21.5 34.5t39.5 12.5t36.5 -15t8.5 -35zM667 832q-5 -22 -21.5 -34t-39.5 -12q-24 0 -37 14t-9 36l6 22q5 22 21.5 34.5t39.5 12.5t37 -15t9 -35zM1189 665l-398 -633q-25 -42 -63 -42h-4q-42 0 -44 45
l-37 526l-321 -529q-26 -42 -62 -42h-5q-41 0 -44 45l-57 629q-2 10 -2 23q0 20 14 33t36 13q46 0 49 -43l42 -548l331 556q22 36 54 36h4q40 0 43 -39l35 -553l342 557q19 34 53 34q19 0 31 -11t12 -28q0 -15 -9 -29z" />
    <glyph glyph-name="wdieresis" unicode="&#x1e85;" horiz-adv-x="894" 
d="M689 659q-10 -46 -61 -46q-24 0 -37 14.5t-8 35.5l6 22q5 22 21.5 34.5t39.5 12.5t36.5 -15t8.5 -35zM499 659q-5 -22 -21.5 -34t-39.5 -12q-24 0 -37 14t-9 36l6 22q5 22 21.5 34.5t39.5 12.5t37 -15t9 -35zM140 37l-37 439q0 3 -0.5 11.5t-0.5 12.5q0 19 14 32.5
t34 13.5q21 0 33.5 -11.5t13.5 -31.5l25 -374l229 381q21 37 54 37h4q40 0 42 -39l26 -379l234 387q18 30 46 30q38 0 38 -36q0 -15 -8 -29l-280 -451q-23 -39 -60 -39h-2q-42 0 -45 46l-26 368l-229 -375q-23 -39 -59 -39h-3q-41 0 -43 46z" />
    <glyph glyph-name="Ygrave" unicode="&#x1ef2;" horiz-adv-x="697" 
d="M417 809l-57 74q-10 13 -10 23q0 13 19 24t40 11q30 0 40 -26l35 -92q3 -9 3 -16q0 -20 -28 -20q-25 0 -42 22zM391 276l-62 -235q-13 -46 -53 -46q-23 0 -35 16t-5 44l63 235l-156 362q-9 20 -9 35q0 20 14 33t36 13q34 0 48 -39l133 -323l318 335q25 27 52 27
q18 0 29.5 -11t11.5 -29q0 -20 -18 -40z" />
    <glyph glyph-name="ygrave" unicode="&#x1ef3;" horiz-adv-x="611" 
d="M320 636l-57 74q-10 13 -10 23q0 13 19 24t40 11q30 0 40 -26l35 -92q3 -9 3 -16q0 -20 -28 -20q-25 0 -42 22zM2 -72q35 -16 64 -16q61 0 123 89l-86 474q-3 12 -3 26q0 19 13.5 32t33.5 13q19 0 32 -11.5t15 -31.5l66 -399l263 410q19 32 50 32q19 0 30 -10t11 -27
q0 -15 -12 -34l-327 -492q-55 -83 -106.5 -118t-113.5 -35q-47 0 -87 20q-28 13 -28 41q0 18 11.5 30t27.5 12q10 0 23 -5z" />
    <glyph glyph-name="enspace" unicode="&#x2002;" horiz-adv-x="500" 
 />
    <glyph glyph-name="emspace" unicode="&#x2003;" horiz-adv-x="1000" 
 />
    <glyph glyph-name="threeperemspace" unicode="&#x2004;" horiz-adv-x="333" 
 />
    <glyph glyph-name="fourperemspace" unicode="&#x2005;" horiz-adv-x="250" 
 />
    <glyph glyph-name="thinspace" unicode="&#x2009;" horiz-adv-x="133" 
 />
    <glyph glyph-name="hairspace" unicode="&#x200a;" horiz-adv-x="75" 
 />
    <glyph glyph-name="endash" unicode="&#x2013;" horiz-adv-x="560" 
d="M124 269q-20 0 -33.5 13t-13.5 32t13.5 32.5t33.5 13.5h336q20 0 33.5 -13.5t13.5 -32.5t-13.5 -32t-33.5 -13h-336z" />
    <glyph glyph-name="emdash" unicode="&#x2014;" horiz-adv-x="945" 
d="M124 269q-20 0 -33.5 13t-13.5 32t13.5 32.5t33.5 13.5h721q19 0 33 -13.5t14 -32.5t-14 -32t-33 -13h-721z" />
    <glyph glyph-name="quoteleft" unicode="&#x2018;" horiz-adv-x="287" 
d="M320 688q-78 -25 -88 -89q18 -3 27.5 -16.5t4.5 -35.5l-6 -22q-5 -23 -21.5 -36.5t-39.5 -13.5q-27 0 -40.5 18.5t-6.5 48.5l8 30q17 73 64 115q41 36 92 44q13 2 20 -4t7 -16q0 -17 -21 -23z" />
    <glyph glyph-name="quoteright" unicode="&#x2019;" horiz-adv-x="287" 
d="M130 520q78 25 88 88q-42 10 -32 52l6 23q5 23 21.5 36.5t39.5 13.5q28 0 41 -18.5t6 -48.5l-8 -30q-17 -73 -64 -115q-41 -36 -92 -44q-13 -2 -20 4t-7 16q0 17 21 23z" />
    <glyph glyph-name="quotesinglbase" unicode="&#x201a;" horiz-adv-x="287" 
d="M-27 -88q77 24 88 88q-17 3 -27 16.5t-5 35.5l6 23q5 23 21.5 36.5t39.5 13.5q27 0 40.5 -19t6.5 -49l-8 -30q-17 -73 -64 -115q-38 -34 -92 -44q-27 -3 -27 21q0 17 21 23z" />
    <glyph glyph-name="quotedblleft" unicode="&#x201c;" horiz-adv-x="505" 
d="M197 474q-27 0 -40.5 19t-6.5 49l8 30q17 74 65 115q37 34 91 44q27 3 27 -21q0 -17 -21 -23q-77 -24 -87 -88q17 -3 26.5 -16.5t4.5 -35.5l-6 -23q-5 -23 -21.5 -36.5t-39.5 -13.5zM415 474q-27 0 -40.5 19t-6.5 49l8 30q17 74 65 115q37 34 91 44q27 3 27 -21
q0 -17 -21 -23q-77 -24 -87 -88q17 -3 26.5 -16.5t4.5 -35.5l-6 -23q-5 -23 -21.5 -36.5t-39.5 -13.5z" />
    <glyph glyph-name="quotedblright" unicode="&#x201d;" horiz-adv-x="505" 
d="M348 520q77 25 87 88q-41 10 -32 52l6 23q6 23 22.5 36.5t39.5 13.5q27 0 40 -18.5t7 -48.5l-8 -30q-17 -72 -65 -115q-39 -36 -91 -44q-13 -2 -20 4t-7 16q0 17 21 23zM130 520q77 25 87 88q-41 10 -32 52l6 23q6 23 22.5 36.5t39.5 13.5q27 0 40 -18.5t7 -48.5l-8 -30
q-17 -72 -65 -115q-39 -36 -91 -44q-13 -2 -20 4t-7 16q0 17 21 23z" />
    <glyph glyph-name="quotedblbase" unicode="&#x201e;" horiz-adv-x="505" 
d="M191 -88q77 24 88 88q-17 3 -27 16.5t-5 35.5l6 23q5 23 21.5 36.5t39.5 13.5q27 0 40.5 -19t6.5 -49l-8 -30q-17 -73 -64 -115q-38 -34 -92 -44q-27 -3 -27 21q0 17 21 23zM-27 -88q77 24 88 88q-17 3 -27 16.5t-5 35.5l6 23q5 23 21.5 36.5t39.5 13.5q27 0 40.5 -19
t6.5 -49l-8 -30q-17 -73 -64 -115q-38 -34 -92 -44q-27 -3 -27 21q0 17 21 23z" />
    <glyph glyph-name="dagger" unicode="&#x2020;" horiz-adv-x="437" 
d="M351 690l-35 -106l94 6q13 1 22.5 -8t9.5 -21q0 -13 -9.5 -22t-22.5 -8l-108 7l-64 -265q-8 -30 -34 -30q-15 0 -22 10t-3 27l75 258l-93 -6q-14 -1 -23.5 7.5t-9.5 21.5t9.5 22t22.5 8l106 -7l24 115q6 34 36 34q17 0 24.5 -12t0.5 -31z" />
    <glyph glyph-name="daggerdbl" unicode="&#x2021;" horiz-adv-x="450" 
d="M270 364l-55 -174l95 6q13 1 22.5 -7.5t9.5 -21.5t-9.5 -22t-22.5 -8l-106 7l-24 -115q-6 -34 -35 -34q-18 0 -25.5 12t-0.5 31l36 106l-95 -6q-13 -1 -22.5 8t-9.5 21q0 13 9.5 22t22.5 8l107 -7l40 174l53 174l-93 -6q-13 -1 -22.5 7.5t-9.5 21.5t9 22t22 8l106 -7
l24 115q6 34 36 34q17 0 25 -12t1 -31l-36 -106l94 6q13 1 22.5 -8t9.5 -21q0 -13 -9.5 -22t-22.5 -8l-107 7z" />
    <glyph glyph-name="bullet" unicode="&#x2022;" horiz-adv-x="511" 
d="M252 222q-51 0 -82.5 31.5t-31.5 84.5q0 68 47 120.5t112 52.5q52 0 83 -31.5t31 -84.5q0 -68 -46.5 -120.5t-112.5 -52.5z" />
    <glyph glyph-name="ellipsis" unicode="&#x2026;" horiz-adv-x="799" 
d="M653 44q-4 -22 -21.5 -35.5t-41.5 -13.5q-26 0 -39.5 15t-9.5 37l7 26q5 23 22 36.5t41 13.5q25 0 39.5 -15t9.5 -38zM396 44q-4 -22 -21.5 -35.5t-41.5 -13.5q-26 0 -39.5 15t-9.5 37l7 26q5 23 22 36.5t41 13.5q25 0 39.5 -15t9.5 -38zM139 44q-4 -22 -21.5 -35.5
t-41.5 -13.5q-26 0 -39.5 15t-9.5 37l6 26q5 23 22.5 36.5t41.5 13.5q25 0 39.5 -15t9.5 -38z" />
    <glyph glyph-name="perthousand" unicode="&#x2030;" horiz-adv-x="1296" 
d="M248 360q-67 0 -108.5 43.5t-41.5 109.5q0 87 58 155t142 68q66 0 107.5 -43.5t41.5 -109.5q0 -88 -57.5 -155.5t-141.5 -67.5zM815 674l-640 -661q-18 -18 -34 -18q-14 0 -23 8.5t-9 22.5q0 15 14 29l641 661q18 18 34 18q13 0 22 -9t9 -22q0 -15 -14 -29zM253 423
q51 0 87 49t36 106q0 44 -22 69.5t-61 25.5q-51 0 -87.5 -48.5t-36.5 -106.5q0 -44 22.5 -69.5t61.5 -25.5zM1048 -8q-66 0 -107.5 43.5t-41.5 110.5q0 87 58 155t142 68q66 0 107.5 -43.5t41.5 -110.5q0 -87 -58 -155t-142 -68zM640 -8q-66 0 -107.5 43.5t-41.5 110.5
q0 87 58 155t142 68q66 0 107.5 -43.5t41.5 -110.5q0 -87 -58 -155t-142 -68zM1053 55q51 0 87.5 49t36.5 107q0 43 -22 69t-61 26q-51 0 -87.5 -49t-36.5 -107q0 -43 22 -69t61 -26zM645 55q51 0 87.5 49t36.5 107q0 43 -22 69t-61 26q-51 0 -87.5 -49t-36.5 -107
q0 -43 22 -69t61 -26z" />
    <glyph glyph-name="guilsinglleft" unicode="&#x2039;" horiz-adv-x="359" 
d="M69 286l190 184q23 23 41 23q16 0 26 -10t10 -27q0 -19 -14 -31l-171 -168l72 -151q6 -16 6 -27q0 -16 -12 -27.5t-29 -11.5q-27 0 -39 26l-83 166q-10 20 -10 28q0 13 13 26z" />
    <glyph glyph-name="guilsinglright" unicode="&#x203a;" horiz-adv-x="359" 
d="M288 251l-189 -185q-24 -22 -41 -22t-27 10t-10 26q0 18 14 32l172 168l-72 151q-7 14 -7 27q0 16 12 27.5t29 11.5q27 0 39 -26l83 -167q10 -18 10 -28q0 -14 -13 -25z" />
    <glyph glyph-name="fraction" unicode="&#x2044;" horiz-adv-x="570" 
d="M661 724l-655 -803q-20 -28 -42 -28q-14 0 -23.5 8.5t-9.5 23.5q0 17 16 37l655 804q22 27 43 27q13 0 22.5 -8.5t9.5 -23.5q0 -17 -16 -37z" />
    <glyph glyph-name="Euro" unicode="&#x20ac;" horiz-adv-x="736" 
d="M286 492h227q15 0 25.5 -10.5t10.5 -25.5t-10.5 -25.5t-25.5 -10.5h-254q-16 -49 -21 -105h228q15 0 26 -10.5t11 -25.5t-11 -25.5t-26 -10.5h-228q7 -77 51 -122.5t115 -45.5q94 0 168 74q14 14 33 14q18 0 31 -11.5t13 -29.5q0 -22 -20 -38q-101 -96 -227 -96
q-112 0 -184 68.5t-81 186.5h-58q-15 0 -25.5 10.5t-10.5 25.5t10.5 25.5t25.5 10.5h60q3 56 18 105h-31q-15 0 -25.5 10.5t-10.5 25.5t10.5 25.5t25.5 10.5h54q47 112 136 180t203 68q155 0 224 -127q12 -21 12 -35q0 -20 -13.5 -33t-34.5 -13q-25 0 -38 23
q-24 46 -59.5 72t-99.5 26q-71 0 -129.5 -43.5t-94.5 -117.5z" />
    <glyph glyph-name="published" unicode="&#x2117;" horiz-adv-x="873" 
d="M460 -12q-157 0 -266.5 110t-109.5 265t110.5 266t267.5 111t266 -110t109 -265t-110 -266t-267 -111zM460 22q145 0 243 100t98 243t-97.5 242t-241.5 99q-145 0 -243 -100t-98 -243t97.5 -242t241.5 -99zM331 204v330q0 14 9.5 23t22.5 9h122q69 0 110 -34t41 -93v-2
q0 -63 -45.5 -97t-113.5 -34h-82v-102q0 -13 -9.5 -22.5t-22.5 -9.5t-22.5 9.5t-9.5 22.5zM395 362h84q43 0 68 19.5t25 53.5v2q0 35 -24.5 53.5t-67.5 18.5h-85v-147z" />
    <glyph glyph-name="servicemark" unicode="&#x2120;" horiz-adv-x="744" 
d="M775 730h3q28 0 20 -34l-75 -269q-8 -23 -28 -23q-12 0 -17.5 8.5t-1.5 23.5l56 197l-123 -133q-14 -14 -28 -14q-16 0 -22 16l-52 131l-59 -206q-6 -23 -27 -23q-28 0 -19 32l75 268q7 26 27 26h3q16 0 25 -21l64 -162l147 166q15 17 32 17zM109 492q10 0 18 -8
q42 -40 94 -40q30 0 50 15t20 37q0 17 -13 28t-49 26q-47 18 -67 37t-20 49q0 43 35 70.5t88 27.5q62 0 103 -37q10 -10 10 -20q0 -9 -6.5 -16t-16.5 -7q-9 0 -19 8q-32 29 -76 29q-30 0 -49 -14t-19 -34q0 -17 14.5 -28.5t53.5 -26.5q42 -16 61.5 -35t19.5 -49
q0 -45 -36 -73.5t-89 -28.5q-74 0 -122 48q-9 11 -9 19q0 10 7 16.5t17 6.5z" />
    <glyph glyph-name="trademark" unicode="&#x2122;" horiz-adv-x="732" 
d="M762 730h3q14 0 19 -9t1 -25l-75 -269q-6 -23 -27 -23q-13 0 -18.5 8.5t-1.5 23.5l56 197l-123 -133q-12 -14 -27 -14t-23 16l-51 131l-59 -206q-6 -23 -27 -23q-13 0 -18.5 8.5t-1.5 23.5l75 268q6 26 28 26h3q16 0 25 -21l63 -162l148 166q15 17 31 17zM286 681
l-71 -255q-8 -23 -29 -23q-12 0 -18 8.5t-2 23.5l69 246h-76q-10 0 -17 6.5t-7 16.5t7 17t17 7h215q10 0 17 -6.5t7 -16.5q0 -11 -7 -17.5t-17 -6.5h-88z" />
    <glyph glyph-name="minus" unicode="&#x2212;" horiz-adv-x="663" 
d="M573 321h-432q-19 0 -32 13t-13 32t13 32t32 13h432q19 0 32 -13t13 -32t-13 -32t-32 -13z" />
    <glyph glyph-name="Q.alt" horiz-adv-x="884" 
d="M674 -4l-44 55q-101 -64 -216 -64q-141 0 -231 90.5t-90 226.5q0 111 55 211t154 162.5t217 62.5q142 0 232 -90.5t90 -225.5q0 -90 -37.5 -174t-103.5 -146l41 -46q18 -19 18 -39q0 -19 -13 -31.5t-33 -12.5q-24 0 -39 21zM563 282l81 -103q46 49 71.5 112t25.5 129
q0 101 -62.5 166.5t-166.5 65.5q-89 0 -163.5 -50.5t-115 -129t-40.5 -164.5q0 -102 62.5 -167.5t166.5 -65.5q82 0 155 47l-79 92q-19 25 -19 41q0 20 13 33.5t33 13.5q23 0 38 -20z" />
    <glyph glyph-name="registered.alt" horiz-adv-x="873" 
d="M460 -12q-157 0 -266.5 110t-109.5 265t110.5 266t267.5 111t266 -110t109 -265t-110 -266t-267 -111zM460 22q145 0 243 100t98 243t-97.5 242t-241.5 99q-145 0 -243 -100t-98 -243t97.5 -242t241.5 -99zM312 206v332q0 13 9 22t22 9h143q75 0 116 -41q31 -29 31 -77
v-2q0 -44 -25.5 -73t-69.5 -41l86 -107q8 -11 8 -22q0 -13 -9 -22t-21 -9q-15 0 -26 14l-107 135h-95v-118q0 -13 -9 -22t-22 -9t-22 9t-9 22zM374 379h107q40 0 64 18t24 49v1q0 31 -23 48t-63 17h-109v-133z" />
    <glyph glyph-name="i.dot" horiz-adv-x="292" 
d="M313 687q-5 -20 -22 -31.5t-40 -11.5q-24 0 -37.5 13.5t-9.5 32.5l5 18q4 21 21 32.5t41 11.5q23 0 36.5 -13.5t9.5 -33.5zM251 487l-120 -446q-13 -46 -52 -46q-24 0 -34.5 16t-3.5 43l120 446q11 46 52 46q23 0 34 -16t4 -43z" />
    <glyph glyph-name="caron.alt" 
d="M313 603l41 123q11 35 47 35h18q20 0 20 -16q0 -11 -10 -28l-70 -120q-12 -22 -31 -22q-18 0 -18 15q0 6 3 13z" />
    <glyph glyph-name="acute.cap" 
d="M453 709l-97 -73q-29 -22 -60 -22q-27 0 -27 18q0 10 9 19l86 94q24 24 42 24q21 0 42 -11.5t21 -24.5q0 -12 -16 -24z" />
    <glyph glyph-name="hungarumlaut.cap" 
d="M511 769q18 0 32 -11t14 -24q0 -14 -17 -26l-92 -72q-29 -22 -54 -22q-22 0 -22 18q0 8 9 19l87 94q24 24 43 24zM334 769q19 0 32.5 -11t13.5 -24q0 -14 -16 -26l-92 -72q-29 -22 -54 -22q-22 0 -22 18q0 10 9 19l87 94q22 24 42 24z" />
    <glyph glyph-name="caron.alt.cap" 
d="M313 603l41 123q11 35 47 35h18q20 0 20 -16q0 -11 -10 -28l-70 -120q-12 -22 -31 -22q-18 0 -18 15q0 6 3 13z" />
    <glyph glyph-name="grave.cap" 
d="M365 636l-57 74q-10 13 -10 23q0 13 19 24t40 11q30 0 40 -26l35 -92q3 -9 3 -16q0 -20 -28 -20q-25 0 -42 22z" />
    <glyph glyph-name="circumflex.cap" 
d="M452 737l45 -85q9 -16 9 -21q0 -17 -23 -17q-37 0 -57 23l-42 52l-75 -53q-34 -22 -60 -22q-22 0 -22 16q0 12 12 22l93 87q25 25 53 25h22q30 0 45 -27z" />
    <glyph glyph-name="caron.cap" 
d="M302 642l-46 85q-8 19 -8 21q0 17 23 17q37 0 56 -23l43 -52l75 53q32 22 60 22q22 0 22 -16q0 -11 -12 -22l-93 -87q-25 -25 -53 -25h-22q-30 0 -45 27z" />
    <glyph glyph-name="breve.cap" 
d="M366 617q-58 0 -95 30t-37 77q0 19 10 30t26 11q25 0 33 -23q8 -25 24 -38.5t50 -13.5q56 0 95 53q17 22 38 22q14 0 22.5 -8t8.5 -21q0 -12 -8 -23q-26 -43 -70 -69.5t-97 -26.5z" />
    <glyph glyph-name="tilde.cap" 
d="M222 614q-13 0 -22 8t-9 20t8 25q51 89 114 89q36 0 75 -34q13 -11 17 -14t11.5 -8t12.5 -6.5t11 -1.5q26 0 55 44q15 19 31 19q13 0 22 -8t9 -20t-8 -25q-51 -89 -114 -89q-16 0 -30 5t-22 10.5t-23 18.5q-13 11 -17 14t-11.5 8t-12.5 6.5t-11 1.5q-26 0 -55 -44
q-15 -19 -31 -19z" />
    <glyph glyph-name="macron.cap" 
d="M511 637h-275q-16 0 -26.5 11t-10.5 26t10.5 26t26.5 11h275q15 0 26 -11t11 -26t-11 -26t-26 -11z" />
    <glyph glyph-name="dieresis.cap" 
d="M510 659q-10 -46 -61 -46q-24 0 -37 14.5t-8 35.5l6 22q5 22 21.5 34.5t39.5 12.5t36.5 -15t8.5 -35zM320 659q-5 -22 -21.5 -34t-39.5 -12q-24 0 -37 14t-9 36l6 22q5 22 21.5 34.5t39.5 12.5t37 -15t9 -35z" />
    <glyph glyph-name="dotaccent.cap" 
d="M424 659q-11 -46 -62 -46q-24 0 -37.5 14.5t-8.5 35.5l6 22q5 22 22 34.5t40 12.5t36.5 -15t9.5 -35z" />
    <glyph glyph-name="ring.cap" 
d="M376 618q-47 0 -75.5 26.5t-28.5 67.5q0 49 37 84.5t87 35.5q46 0 74.5 -27t28.5 -68q0 -49 -36.5 -84t-86.5 -35zM377 661q31 0 52 22t21 53q0 23 -14.5 38t-41.5 15q-30 0 -51.5 -22.5t-21.5 -53.5q0 -23 14.5 -37.5t41.5 -14.5z" />
    <glyph glyph-name="commaaccent.cap" 
d="M146 -164q-38 8 -38 38q0 24 16 42t43 18q48 0 48 -49q0 -25 -12 -53.5t-32 -47.5q-45 -45 -104 -45q-19 0 -19 15t24 21q63 14 74 61z" />
    <glyph glyph-name="cedilla.cap" 
d="M270 10l-107 -148q-15 -21 -35 -21q-16 0 -30.5 11.5t-14.5 24.5q0 12 12 27l102 106h73z" />
    <glyph glyph-name="ogonek.cap" 
d="M209 -172q-50 0 -77.5 19.5t-27.5 49.5q0 53 95 118l59 -10q-73 -57 -73 -90q0 -24 44 -33q24 -6 24 -26q-2 -28 -44 -28z" />
    <glyph glyph-name="NUL" horiz-adv-x="0" 
 />
    <glyph glyph-name="aacute.alt" horiz-adv-x="698" 
d="M593 709l-97 -73q-29 -22 -60 -22q-27 0 -27 18q0 10 9 19l86 94q24 24 42 24q21 0 42 -11.5t21 -24.5q0 -12 -16 -24zM299 70q86 0 156 74t70 168q0 68 -44 113.5t-113 45.5q-89 0 -151.5 -72.5t-62.5 -173.5q0 -70 40 -112.5t105 -42.5zM555 427l19 73q12 46 52 46
q24 0 34.5 -16t3.5 -43l-119 -446q-13 -46 -53 -46q-21 0 -31.5 12t-8.5 32l11 47q-89 -98 -194 -98q-93 0 -153.5 63.5t-60.5 166.5q0 141 91 238t212 97q140 0 197 -126z" />
    <glyph glyph-name="aringacute.alt2" horiz-adv-x="611" 
d="M571 846l-97 -73q-29 -22 -60 -22q-27 0 -27 18q0 10 9 19l86 94q24 24 42 24q21 0 42 -12t21 -24t-16 -24zM378 547q31 0 52 22t21 53q0 23 -14.5 38t-41.5 15q-30 0 -51.5 -22.5t-21.5 -53.5q0 -23 14.5 -37.5t41.5 -14.5zM224 60q66 0 123 42.5t75 108.5l10 34
q-81 22 -162 22q-68 0 -110 -33t-42 -86q0 -40 28.5 -64t77.5 -24zM415 -5q-24 0 -33.5 13.5t-6.5 32.5l11 40q-81 -93 -195 -93q-71 0 -120 40.5t-49 108.5q0 90 67 143t173 53q90 0 185 -28l3 12q7 24 7 48q0 101 -138 101q-63 0 -119 -18q-18 -3 -19 -3q-16 0 -26.5 11
t-10.5 28q0 31 31 39q57 18 114 24q-16 20 -16 51q0 49 37 84.5t87 35.5q47 0 75 -27t28 -68q0 -59 -52 -94q101 -40 101 -148q0 -31 -12 -76l-70 -264q-13 -46 -52 -46z" />
    <glyph glyph-name="aogonek.alt" horiz-adv-x="698" 
d="M555 427l19 73q12 46 52 46q24 0 34.5 -16t3.5 -43l-119 -446q-5 -22 -24 -38q-70 -55 -70 -88q0 -24 44 -33q24 -6 24 -26q-2 -28 -44 -28q-50 0 -77.5 19.5t-27.5 49.5q0 53 90 115q-9 9 -8 27l11 47q-89 -98 -194 -98q-93 0 -153.5 63.5t-60.5 166.5q0 141 91 238
t212 97q140 0 197 -126zM299 70q86 0 156 74t70 168q0 68 -44 113.5t-113 45.5q-89 0 -151.5 -72.5t-62.5 -173.5q0 -70 40 -112.5t105 -42.5z" />
    <glyph glyph-name="acircumflex.alt" horiz-adv-x="698" 
d="M520 737l45 -85q9 -16 9 -21q0 -17 -23 -17q-37 0 -57 23l-42 52l-75 -53q-34 -22 -60 -22q-22 0 -22 16q0 12 12 22l93 87q25 25 53 25h22q30 0 45 -27zM299 70q86 0 156 74t70 168q0 68 -44 113.5t-113 45.5q-89 0 -151.5 -72.5t-62.5 -173.5q0 -70 40 -112.5
t105 -42.5zM555 427l19 73q12 46 52 46q24 0 34.5 -16t3.5 -43l-119 -446q-13 -46 -53 -46q-21 0 -31.5 12t-8.5 32l11 47q-89 -98 -194 -98q-93 0 -153.5 63.5t-60.5 166.5q0 141 91 238t212 97q140 0 197 -126z" />
    <glyph glyph-name="hcoslug" horiz-adv-x="694" 
d="M644 700v-800h-594v800h594zM247 428q0 13 7.5 21t19.5 8q13 0 21 -10.5t8 -27.5q0 -22 -18 -50q-15 14 -21 20.5t-11.5 17t-5.5 21.5zM312 342q30 20 42 34q29 -29 -1 -80q-33 38 -41 46zM261 219q-22 0 -37 15.5t-15 38.5q0 24 16 40q34 -32 74 -82q-15 -12 -38 -12z
M382 264q20 26 46 42q15 -25 43 -25q21 0 35.5 15.5t14.5 38.5t-14.5 37.5t-35.5 14.5q-35 0 -60 -38q-3 39 -49 37q9 15 9 34q0 29 -25.5 51.5t-69.5 22.5q-48 0 -78.5 -25.5t-30.5 -59.5q0 -37 31 -69q-82 -28 -82 -91q0 -39 32 -66t77 -27q63 0 104 45q44 -45 85 -45
q33 0 56 25.5t24 68.5l-7 2q-17 -29 -43 -29q-27 0 -62 41zM286 124l-12 -2v-9h-7v-7h7v-20q0 -13 12 -13q11 0 14 13l-5 2q-1 -7 -5 -7t-4 5v20h13v7h-13v11zM174 94q0 -21 21 -21q9 0 15 6t6 15q0 20 -21 20t-21 -20zM203 94q0 -16 -8 -16t-8 16q0 15 8 15t8 -15zM219 81
v-7h22v7h-4v15q0 10 7 10q6 0 6 -7v-18h-4v-7h22v7h-6v19q0 14 -12 14q-9 0 -14 -11v10h-17v-7h6v-25h-6zM379 93q0 -13 -7 -13q-8 0 -8 13t8 13q7 0 7 -13zM125 81v-7h30v7h-10v16h4q5 0 6 -8h7v23h-7q-1 -8 -6 -8h-4v18h12q9 0 11 -13h8v20h-51v-7h7v-41h-7zM302 88v-14h7
l1 4q7 -5 13 -5q14 0 14 13q0 9 -12 12t-12 6q0 4 5 4t10 -7h7v13h-6l-2 -5q-3 5 -11 5q-14 0 -14 -12q0 -9 12 -12.5t12 -6.5q0 -4 -5 -4q-6 0 -12 9h-7zM352 125v-52h6l4 8q5 -8 14 -8q16 0 16 21q0 20 -15 20q-10 0 -13 -9v27h-18v-7h6zM405 65q3 2 1.5 6t-6.5 4
q-7 0 -7 -7q0 -9 11 -9q12 0 18 16l13 31h5v7h-17v-7h5l-8 -20l-9 20h6v7h-25v-7h5q12 -23 16 -33q-2 -8 -8 -8zM294 39v3q0 12 6 12l3 -1q-1 -1 -1 -3q0 -6 6 -6v-5h-14zM464 33h-18v-7h6q-2 -5 -6 -9q-2 2 -5.5 6t-6.5 7q11 5 11 12q0 12 -14 12q-17 0 -17 -14q0 -6 6 -12
q-13 -4 -13 -15q0 -14 18 -14q9 0 15 6q5 -6 12 -6q10 0 13 12l-5 1q-1 -5 -4 -5t-6 5q6 8 9 14h5v7zM469 27q0 -28 29 -28q22 0 24 23h-8q-2 -16 -14 -16q-16 0 -16 22t14 22q10 0 15 -16h8v22h-8l-1 -6q-7 7 -16 7q-11 0 -19 -8.5t-8 -21.5zM431 33q-6 6 -6 10q0 5 5 5
q6 0 6 -6t-5 -9zM340 18h26q2 22 -19 22q-8 0 -14 -6t-6 -15q0 -20 21 -20q14 0 18 14h-7q-1 -7 -9 -7q-10 0 -10 12zM525 20q0 -21 21 -21q9 0 15 6t6 15q0 20 -21 20t-21 -20zM189 20q0 -21 21 -21q9 0 15 6t6 15q0 20 -21 20t-21 -20zM247 18h26q2 22 -19 22q-8 0 -14 -6
t-6 -15q0 -20 21 -20q15 0 18 14h-7q-1 -7 -9 -7q-10 0 -10 12zM340 23q0 12 7 12t7 -12h-14zM554 20q0 -16 -8 -16t-8 16q0 15 8 15t8 -15zM218 20q0 -16 -8 -16t-8 16q0 15 8 15t8 -15zM247 23q0 12 7 12t7 -12h-14zM368 7v-7h26v7h-8v16q4 9 7 9v-1q0 -6 6 -6q7 0 7 7
q0 8 -8 8t-12 -11v10h-18v-7h6v-25h-6zM276 7v-7h23v7h-5v25h14v-25h-5v-7h23v7h-6v52l-10 -2q-4 2 -9 2q-19 0 -19 -19v-1h-7v-7h7v-25h-6zM124 7v-7h29v7h-8v18h22v-18h-8v-7h29v7h-8v41h8v7h-29v-7h8v-16h-22v16h8v7h-29v-7h8v-41h-8zM437 9q-5 -3 -8 -3q-10 0 -10 10
q0 5 4 9q4 -4 14 -16zM583 6q0 7 -7 7t-7 -7t7 -7t7 7z" />
    <glyph glyph-name="atilde.alt" horiz-adv-x="698" 
d="M296 614q-13 0 -22 8t-9 20t8 25q51 89 114 89q36 0 75 -34q13 -11 17 -14t11.5 -8t12.5 -6.5t11 -1.5q26 0 55 44q15 19 31 19q13 0 22 -8t9 -20t-8 -25q-51 -89 -114 -89q-16 0 -30 5t-22 10.5t-23 18.5q-13 11 -17 14t-11.5 8t-12.5 6.5t-11 1.5q-26 0 -55 -44
q-15 -19 -31 -19zM299 70q86 0 156 74t70 168q0 68 -44 113.5t-113 45.5q-89 0 -151.5 -72.5t-62.5 -173.5q0 -70 40 -112.5t105 -42.5zM555 427l19 73q12 46 52 46q24 0 34.5 -16t3.5 -43l-119 -446q-13 -46 -53 -46q-21 0 -31.5 12t-8.5 32l11 47q-89 -98 -194 -98
q-93 0 -153.5 63.5t-60.5 166.5q0 141 91 238t212 97q140 0 197 -126z" />
    <glyph glyph-name="agrave.alt" horiz-adv-x="698" 
d="M376 636l-57 74q-10 13 -10 23q0 13 19 24t40 11q30 0 40 -26l35 -92q3 -9 3 -16q0 -20 -28 -20q-25 0 -42 22zM299 70q86 0 156 74t70 168q0 68 -44 113.5t-113 45.5q-89 0 -151.5 -72.5t-62.5 -173.5q0 -70 40 -112.5t105 -42.5zM555 427l19 73q12 46 52 46
q24 0 34.5 -16t3.5 -43l-119 -446q-13 -46 -53 -46q-21 0 -31.5 12t-8.5 32l11 47q-89 -98 -194 -98q-93 0 -153.5 63.5t-60.5 166.5q0 141 91 238t212 97q140 0 197 -126z" />
    <glyph glyph-name="three.alt" horiz-adv-x="643" 
d="M97 154q67 -80 183 -80q80 0 129.5 39.5t49.5 94.5q0 59 -49 89t-131 30h-4q-19 0 -30.5 11.5t-11.5 28.5t12 29t29 12h33q101 0 160.5 36t59.5 100q0 49 -39.5 78.5t-100.5 29.5q-86 0 -158 -53q-17 -13 -34 -13q-18 0 -30 12t-12 29q0 21 19 34q49 38 98.5 57.5
t123.5 20.5q102 2 168 -49.5t66 -133.5q0 -75 -51.5 -124t-145.5 -68q55 -18 91 -58t36 -98q0 -94 -80.5 -157t-203.5 -63q-159 0 -244 100q-16 16 -16 37q0 19 13 32.5t32 13.5q23 0 38 -17z" />
    <glyph glyph-name="aringacute.alt" horiz-adv-x="698" 
d="M645 960l-97 -73q-29 -22 -60 -22q-27 0 -27 18q0 10 9 19l86 94q24 24 42 24q21 0 42 -12t21 -24t-16 -24zM451 618q-47 0 -75.5 26.5t-28.5 67.5q0 49 37 84.5t87 35.5q46 0 74.5 -27t28.5 -68q0 -49 -36.5 -84t-86.5 -35zM452 661q31 0 52 22t21 53q0 23 -14.5 38
t-41.5 15q-30 0 -51.5 -22.5t-21.5 -53.5q0 -23 14.5 -37.5t41.5 -14.5zM299 70q86 0 156 74t70 168q0 68 -44 113.5t-113 45.5q-89 0 -151.5 -72.5t-62.5 -173.5q0 -70 40 -112.5t105 -42.5zM555 427l19 73q12 46 52 46q24 0 34.5 -16t3.5 -43l-119 -446q-13 -46 -53 -46
q-21 0 -31.5 12t-8.5 32l11 47q-89 -98 -194 -98q-93 0 -153.5 63.5t-60.5 166.5q0 141 91 238t212 97q140 0 197 -126z" />
    <glyph glyph-name="adieresis.alt" horiz-adv-x="698" 
d="M591 659q-10 -46 -61 -46q-24 0 -37 14.5t-8 35.5l6 22q5 22 21.5 34.5t39.5 12.5t36.5 -15t8.5 -35zM401 659q-5 -22 -21.5 -34t-39.5 -12q-24 0 -37 14t-9 36l6 22q5 22 21.5 34.5t39.5 12.5t37 -15t9 -35zM299 70q86 0 156 74t70 168q0 68 -44 113.5t-113 45.5
q-89 0 -151.5 -72.5t-62.5 -173.5q0 -70 40 -112.5t105 -42.5zM555 427l19 73q12 46 52 46q24 0 34.5 -16t3.5 -43l-119 -446q-13 -46 -53 -46q-21 0 -31.5 12t-8.5 32l11 47q-89 -98 -194 -98q-93 0 -153.5 63.5t-60.5 166.5q0 141 91 238t212 97q140 0 197 -126z" />
    <glyph glyph-name="a.alt" horiz-adv-x="698" 
d="M299 70q86 0 156 74t70 168q0 68 -44 113.5t-113 45.5q-89 0 -151.5 -72.5t-62.5 -173.5q0 -70 40 -112.5t105 -42.5zM555 427l19 73q12 46 52 46q24 0 34.5 -16t3.5 -43l-119 -446q-13 -46 -53 -46q-21 0 -31.5 12t-8.5 32l11 47q-89 -98 -194 -98q-93 0 -153.5 63.5
t-60.5 166.5q0 141 91 238t212 97q140 0 197 -126z" />
    <glyph glyph-name="aring.alt2" horiz-adv-x="611" 
d="M378 547q31 0 52 22t21 53q0 23 -14.5 38t-41.5 15q-30 0 -51.5 -22.5t-21.5 -53.5q0 -23 14.5 -37.5t41.5 -14.5zM224 60q66 0 123 42.5t75 108.5l10 34q-81 22 -162 22q-68 0 -110 -33t-42 -86q0 -40 28.5 -64t77.5 -24zM415 -5q-24 0 -33.5 13.5t-6.5 32.5l11 40
q-81 -93 -195 -93q-71 0 -120 40.5t-49 108.5q0 90 67 143t173 53q90 0 185 -28l3 12q7 24 7 48q0 101 -138 101q-63 0 -119 -18q-18 -3 -19 -3q-16 0 -26.5 11t-10.5 28q0 31 31 39q57 18 114 24q-16 20 -16 51q0 49 37 84.5t87 35.5q47 0 75 -27t28 -68q0 -59 -52 -94
q101 -40 101 -148q0 -31 -12 -76l-70 -264q-13 -46 -52 -46z" />
    <glyph glyph-name="aring.alt" horiz-adv-x="698" 
d="M451 618q-47 0 -75.5 26.5t-28.5 67.5q0 49 37 84.5t87 35.5q46 0 74.5 -27t28.5 -68q0 -49 -36.5 -84t-86.5 -35zM452 661q31 0 52 22t21 53q0 23 -14.5 38t-41.5 15q-30 0 -51.5 -22.5t-21.5 -53.5q0 -23 14.5 -37.5t41.5 -14.5zM299 70q86 0 156 74t70 168
q0 68 -44 113.5t-113 45.5q-89 0 -151.5 -72.5t-62.5 -173.5q0 -70 40 -112.5t105 -42.5zM555 427l19 73q12 46 52 46q24 0 34.5 -16t3.5 -43l-119 -446q-13 -46 -53 -46q-21 0 -31.5 12t-8.5 32l11 47q-89 -98 -194 -98q-93 0 -153.5 63.5t-60.5 166.5q0 141 91 238t212 97
q140 0 197 -126z" />
    <glyph glyph-name="amacron.alt" horiz-adv-x="698" 
d="M585 637h-275q-16 0 -26.5 11t-10.5 26t10.5 26t26.5 11h275q15 0 26 -11t11 -26t-11 -26t-26 -11zM299 70q86 0 156 74t70 168q0 68 -44 113.5t-113 45.5q-89 0 -151.5 -72.5t-62.5 -173.5q0 -70 40 -112.5t105 -42.5zM555 427l19 73q12 46 52 46q24 0 34.5 -16t3.5 -43
l-119 -446q-13 -46 -53 -46q-21 0 -31.5 12t-8.5 32l11 47q-89 -98 -194 -98q-93 0 -153.5 63.5t-60.5 166.5q0 141 91 238t212 97q140 0 197 -126z" />
    <glyph glyph-name="abreve.alt" horiz-adv-x="698" 
d="M441 617q-58 0 -95 30t-37 77q0 19 10 30t26 11q25 0 33 -23q8 -25 24 -38.5t50 -13.5q56 0 95 53q17 22 38 22q14 0 22.5 -8t8.5 -21q0 -12 -8 -23q-26 -43 -70 -69.5t-97 -26.5zM299 70q86 0 156 74t70 168q0 68 -44 113.5t-113 45.5q-89 0 -151.5 -72.5t-62.5 -173.5
q0 -70 40 -112.5t105 -42.5zM555 427l19 73q12 46 52 46q24 0 34.5 -16t3.5 -43l-119 -446q-13 -46 -53 -46q-21 0 -31.5 12t-8.5 32l11 47q-89 -98 -194 -98q-93 0 -153.5 63.5t-60.5 166.5q0 141 91 238t212 97q140 0 197 -126z" />
    </font>
</defs>
</svg>
