<?xml version="1.0" standalone="no"?>
<!DOCTYPE svg PUBLIC "-//W3C//DTD SVG 1.1//EN" "http://www.w3.org/Graphics/SVG/1.1/DTD/svg11.dtd" >
<svg xmlns="http://www.w3.org/2000/svg" xmlns:xlink="http://www.w3.org/1999/xlink" version="1.1">
<metadata>
Created by FontForge 20170731 at Thu Aug 11 23:46:41 2016
 By Aleksey,,,
Copyright (C) 2011, 2014 Hoefler &#38; Co. http://www.typography.com
</metadata>
<defs>
<font id="GothamRndSSm-MediumItalic" horiz-adv-x="530" >
  <font-face 
    font-family="Gotham Rnd SSm Medium"
    font-weight="350"
    font-style="italic"
    font-stretch="normal"
    units-per-em="1000"
    panose-1="0 0 0 0 0 0 0 0 0 0"
    ascent="800"
    descent="-200"
    x-height="548"
    cap-height="734"
    bbox="-148 -282 1271 1105"
    underline-thickness="50"
    underline-position="-200"
    slope="-15"
    unicode-range="U+0020-FB04"
  />
<missing-glyph horiz-adv-x="500" 
d="M0 -200v1000h500v-1000h-500zM71 750l179 -390l179 390h-358zM450 676l-172 -376l172 -376v752zM50 -76l172 376l-172 376v-752zM250 240l-179 -390h358z" />
    <glyph glyph-name="f_f" unicode="ff" horiz-adv-x="829" 
d="M691 444l-105 -389q-16 -61 -67 -61q-31 0 -45 21.5t-4 56.5l100 372h-17q-18 2 -32 16t-14 36t15 37t36 15h40l12 47q44 169 206 169q34 0 61 -8q41 -9 41 -48q0 -27 -17.5 -42.5t-39.5 -10.5q-21 6 -43 6q-70 0 -92 -80l-9 -33h94q21 0 36 -15t15 -37t-15 -37t-36 -15
h-120zM281 444l-105 -389q-16 -61 -67 -61q-31 0 -45 21.5t-4 56.5l100 372h-17q-18 2 -32 16t-14 36t15 37t36 15h40l12 47q44 169 206 169q34 0 61 -8q41 -9 41 -48q0 -27 -17.5 -42.5t-39.5 -10.5q-21 6 -43 6q-70 0 -92 -80l-9 -33h94q21 0 36 -15t15 -37t-15 -37
t-36 -15h-120z" />
    <glyph glyph-name="fi" unicode="fi" horiz-adv-x="715" 
d="M743 687q-6 -26 -27.5 -41t-51.5 -15t-47 16.5t-12 41.5l3 12q6 26 27.5 41t51.5 15q29 0 46.5 -16.5t12.5 -40.5zM281 444l-105 -389q-16 -61 -67 -61q-31 0 -45 21.5t-4 56.5l100 372h-17q-18 2 -32 16t-14 36t15 37t36 15h40l12 47q44 169 206 169q34 0 61 -8
q41 -9 41 -48q0 -27 -17.5 -42.5t-39.5 -10.5q-21 6 -43 6q-70 0 -92 -80l-9 -33h94q21 0 36 -15t15 -37t-15 -37t-36 -15h-120zM677 476l-113 -421q-16 -61 -67 -61q-31 0 -45 21.5t-4 56.5l113 421q15 60 68 60q30 0 44 -21t4 -56z" />
    <glyph glyph-name="fl" unicode="fl" horiz-adv-x="715" 
d="M734 687l-170 -632q-16 -61 -67 -61q-31 0 -45 21.5t-4 56.5l170 632q16 61 67 61q31 0 45 -21.5t4 -56.5zM281 444l-105 -389q-16 -61 -67 -61q-31 0 -45 21.5t-4 56.5l100 372h-17q-18 2 -32 16t-14 36t15 37t36 15h40l12 47q44 169 206 169q34 0 61 -8q41 -9 41 -48
q0 -27 -17.5 -42.5t-39.5 -10.5q-21 6 -43 6q-70 0 -92 -80l-9 -33h94q21 0 36 -15t15 -37t-15 -37t-36 -15h-120z" />
    <glyph glyph-name="f_f_i" unicode="ffi" horiz-adv-x="1124" 
d="M1152 687q-6 -26 -27.5 -41t-51.5 -15t-47 16.5t-12 41.5l3 12q6 26 27.5 41t51.5 15q29 0 46.5 -16.5t12.5 -40.5zM691 444l-105 -389q-16 -61 -67 -61q-31 0 -45 21.5t-4 56.5l100 372h-17q-18 2 -32 16t-14 36t15 37t36 15h40l12 47q44 169 206 169q34 0 61 -8
q41 -9 41 -48q0 -27 -17.5 -42.5t-39.5 -10.5q-21 6 -43 6q-70 0 -92 -80l-9 -33h94q21 0 36 -15t15 -37t-15 -37t-36 -15h-120zM281 444l-105 -389q-16 -61 -67 -61q-31 0 -45 21.5t-4 56.5l100 372h-17q-18 2 -32 16t-14 36t15 37t36 15h40l12 47q44 169 206 169
q34 0 61 -8q41 -9 41 -48q0 -27 -17.5 -42.5t-39.5 -10.5q-21 6 -43 6q-70 0 -92 -80l-9 -33h94q21 0 36 -15t15 -37t-15 -37t-36 -15h-120zM1086 476l-113 -421q-16 -61 -67 -61q-31 0 -45 21.5t-4 56.5l113 421q15 60 68 60q30 0 44 -21t4 -56z" />
    <glyph glyph-name="f_f_l" unicode="ffl" horiz-adv-x="1124" 
d="M1143 687l-170 -632q-16 -61 -67 -61q-31 0 -45 21.5t-4 56.5l170 632q16 61 67 61q31 0 45 -21.5t4 -56.5zM691 444l-105 -389q-16 -61 -67 -61q-31 0 -45 21.5t-4 56.5l100 372h-17q-18 2 -32 16t-14 36t15 37t36 15h40l12 47q44 169 206 169q34 0 61 -8q41 -9 41 -48
q0 -27 -17.5 -42.5t-39.5 -10.5q-21 6 -43 6q-70 0 -92 -80l-9 -33h94q21 0 36 -15t15 -37t-15 -37t-36 -15h-120zM281 444l-105 -389q-16 -61 -67 -61q-31 0 -45 21.5t-4 56.5l100 372h-17q-18 2 -32 16t-14 36t15 37t36 15h40l12 47q44 169 206 169q34 0 61 -8
q41 -9 41 -48q0 -27 -17.5 -42.5t-39.5 -10.5q-21 6 -43 6q-70 0 -92 -80l-9 -33h94q21 0 36 -15t15 -37t-15 -37t-36 -15h-120z" />
    <glyph glyph-name=".notdef" horiz-adv-x="500" 
d="M0 -200v1000h500v-1000h-500zM71 750l179 -390l179 390h-358zM450 676l-172 -376l172 -376v752zM50 -76l172 376l-172 376v-752zM250 240l-179 -390h358z" />
    <glyph glyph-name=".null" horiz-adv-x="0" 
 />
    <glyph glyph-name="nonmarkingreturn" horiz-adv-x="333" 
 />
    <glyph glyph-name="space" unicode=" " horiz-adv-x="322" 
 />
    <glyph glyph-name="exclam" unicode="!" horiz-adv-x="321" 
d="M340 686l-150 -433q-10 -31 -39 -31q-17 0 -25.5 11t-5.5 30l82 426q9 42 46 42h65q18 0 25.5 -13t1.5 -32zM177 77l-4 -18q-5 -29 -27 -47t-53 -18t-48 19.5t-12 48.5l4 17q6 30 27.5 48t51.5 18q31 0 48.5 -19.5t12.5 -48.5z" />
    <glyph glyph-name="quotedbl" unicode="&#x22;" horiz-adv-x="516" 
d="M415 445q-16 -31 -43 -31q-16 0 -23 11t-2 28l67 224q16 54 64 54h33q27 0 33 -19.5t-8 -41.5zM186 445q-16 -31 -43 -31q-16 0 -23 11t-2 28l67 224q16 54 64 54h33q27 0 33 -19.5t-8 -41.5z" />
    <glyph glyph-name="numbersign" unicode="#" horiz-adv-x="724" 
d="M411 677l-40 -114h167l45 127q7 20 23.5 32t35.5 12q25 0 38 -17t5 -40l-40 -114h42q22 0 37 -15.5t15 -36.5t-15 -36.5t-37 -15.5h-79l-64 -186h54q22 0 37 -15t15 -37q0 -21 -15 -36.5t-37 -15.5h-91l-45 -131q-7 -19 -23 -31.5t-36 -12.5q-24 0 -37.5 17t-5.5 40
l41 118h-167l-46 -131q-6 -19 -21.5 -31.5t-36.5 -12.5q-25 0 -38.5 16.5t-5.5 40.5l41 118h-42q-21 0 -36.5 15.5t-15.5 36.5t15.5 36.5t36.5 15.5h79l64 186h-54q-22 0 -37 15t-15 37q0 21 15 36.5t37 15.5h91l44 127q17 44 59 44q24 0 37.5 -17.5t5.5 -39.5zM271 273h166
l65 186h-167z" />
    <glyph glyph-name="dollar" unicode="$" horiz-adv-x="665" 
d="M346 438l52 183q-63 2 -101 -26.5t-38 -70.5q0 -28 19.5 -47t67.5 -39zM329 106q62 2 99 29.5t37 72.5q0 28 -18.5 48.5t-62.5 38.5zM198 -52l17 61q-108 21 -174 82q-26 20 -26 50q0 25 17 41.5t43 16.5q21 0 40 -17q57 -53 136 -69l60 210q-92 34 -135 75t-43 113
q0 93 78 155t193 62q15 0 22 -1l6 23q15 44 49 44q22 0 32.5 -15t3.5 -41l-6 -22q71 -15 127 -60q29 -20 29 -49q0 -25 -17 -41.5t-43 -16.5q-20 0 -42 16q-38 31 -89 45l-57 -199q87 -33 129.5 -76t42.5 -114q0 -97 -80 -159t-203 -62h-7l-19 -64q-13 -44 -49 -44
q-22 0 -32 15t-3 41z" />
    <glyph glyph-name="percent" unicode="%" horiz-adv-x="904" 
d="M250 360q-69 0 -111.5 44t-42.5 112q0 86 57.5 153t142.5 67q69 0 111.5 -44t42.5 -112q0 -86 -57.5 -153t-142.5 -67zM820 664l-628 -651q-19 -19 -37 -19q-17 0 -28 11t-11 27q0 17 16 33l628 650q17 19 37 19q17 0 28 -10.5t11 -26.5q0 -17 -16 -33zM255 434
q47 0 79 44.5t32 97.5q0 39 -20 62.5t-55 23.5q-47 0 -79 -44.5t-32 -96.5q0 -40 20 -63.5t55 -23.5zM655 -8q-68 0 -111 44t-43 112q0 87 57.5 154t143.5 67q69 0 111.5 -44t42.5 -113q0 -86 -58 -153t-143 -67zM661 67q47 0 79 44.5t32 96.5q0 40 -20.5 63t-55.5 23
q-47 0 -79 -44.5t-32 -96.5q0 -40 20 -63t56 -23z" />
    <glyph glyph-name="ampersand" unicode="&#x26;" horiz-adv-x="732" 
d="M546 13l-51 71q-114 -94 -240 -94q-99 0 -161 51t-62 139q0 78 55.5 139.5t167.5 94.5q-42 71 -42 131q0 81 61.5 138t155.5 57q85 0 138 -46.5t53 -119.5q0 -135 -210 -201l105 -143q37 41 76 98q22 29 46 29q19 0 32 -11t13 -29t-10 -34q-48 -73 -98 -128l50 -71
q19 -24 19 -42q0 -22 -15 -37t-38 -15q-28 0 -45 23zM359 444q84 26 117 55.5t33 67.5q0 32 -22.5 54t-61.5 22q-43 0 -72.5 -29.5t-29.5 -69.5q0 -45 36 -100zM268 92q82 0 169 68l-131 182q-79 -24 -118 -65t-39 -88q0 -44 31.5 -70.5t87.5 -26.5z" />
    <glyph glyph-name="quotesingle" unicode="'" horiz-adv-x="287" 
d="M186 445q-16 -31 -43 -31q-16 0 -23 11t-2 28l67 224q16 54 64 54h33q27 0 33 -19.5t-8 -41.5z" />
    <glyph glyph-name="parenleft" unicode="(" horiz-adv-x="467" 
d="M320 -48q16 -20 16 -41t-15 -36t-39 -15q-26 0 -43 17q-159 151 -159 344q0 160 97 292.5t281 217.5q16 7 31 7q21 0 35 -14t14 -36q0 -31 -33 -49q-149 -75 -225.5 -182.5t-76.5 -232.5q0 -79 30.5 -143t86.5 -129z" />
    <glyph glyph-name="parenright" unicode=")" horiz-adv-x="467" 
d="M161 646q-16 18 -16 41q0 22 15 36.5t38 14.5q25 0 43 -16q159 -151 159 -344q0 -161 -96.5 -293t-280.5 -217q-18 -8 -31 -8q-22 0 -36 14t-14 36q0 31 34 50q148 74 224.5 181.5t76.5 232.5q0 79 -30 143t-86 129z" />
    <glyph glyph-name="asterisk" unicode="*" horiz-adv-x="457" 
d="M311 522l-15 -92q-4 -32 -34 -32q-17 0 -25.5 14t-1.5 31l34 90l-87 -33q-18 -6 -24 -6q-12 0 -21 9t-10 23q-1 13 7.5 22.5t23.5 11.5l100 16l-77 62q-17 14 -17 30q0 13 9.5 23t23.5 10q17 0 29 -16l63 -78l15 92q5 33 33 33q20 0 27.5 -13.5t-0.5 -33.5l-34 -89l87 33
q11 5 26 5q12 0 20 -8.5t9 -21.5q0 -30 -31 -35l-100 -15l77 -62q18 -15 18 -30q0 -13 -9.5 -23t-24.5 -10q-18 0 -29 16z" />
    <glyph glyph-name="plus" unicode="+" horiz-adv-x="668" 
d="M401 311l-39 -145q-7 -28 -24.5 -44.5t-40.5 -16.5q-29 0 -42 20.5t-3 55.5l35 130h-136q-23 0 -39.5 16t-16.5 39t16.5 39t39.5 16h166l38 145q8 29 25.5 45t39.5 16q29 0 42.5 -20t3.5 -55l-35 -131h136q23 0 39.5 -16t16.5 -39t-16.5 -39t-39.5 -16h-166z" />
    <glyph glyph-name="comma" unicode="," horiz-adv-x="310" 
d="M-28 -92q87 22 97 92q-51 11 -40 65l4 15q7 30 27.5 47.5t48.5 17.5q35 0 51 -24t7 -64l-5 -20q-19 -86 -78 -137q-50 -42 -108 -47q-31 -1 -31 26q0 21 27 29z" />
    <glyph glyph-name="hyphen" unicode="-" horiz-adv-x="437" 
d="M330 258h-198q-25 0 -42.5 17.5t-17.5 42.5q0 24 17.5 41.5t42.5 17.5h198q24 0 41.5 -17.5t17.5 -41.5q0 -25 -17.5 -42.5t-41.5 -17.5z" />
    <glyph glyph-name="period" unicode="." horiz-adv-x="310" 
d="M172 77l-4 -17q-5 -29 -27.5 -47.5t-52.5 -18.5q-31 0 -48 19.5t-12 48.5l4 17q6 30 27.5 48t51.5 18q31 0 48.5 -19.5t12.5 -48.5z" />
    <glyph glyph-name="slash" unicode="/" horiz-adv-x="550" 
d="M-71 -54l642 857q24 33 54 33q19 0 30.5 -11t11.5 -30t-19 -44l-642 -857q-25 -33 -54 -33q-19 0 -30.5 11t-11.5 30t19 44z" />
    <glyph glyph-name="zero" unicode="0" horiz-adv-x="762" 
d="M347 -12q-124 0 -197 80t-73 212q0 113 46 217t136 173.5t202 69.5q124 0 197 -80t73 -212q0 -112 -46 -216.5t-136 -174t-202 -69.5zM356 99q69 0 127.5 54t90 134t31.5 162q0 83 -40.5 131.5t-112.5 48.5q-69 0 -127.5 -54t-90 -134t-31.5 -162q0 -83 40.5 -131.5
t112.5 -48.5z" />
    <glyph glyph-name="one" unicode="1" horiz-adv-x="425" 
d="M405 671l-166 -616q-16 -61 -67 -61q-31 0 -45 21.5t-4 57.5l143 533l-83 -24q-12 -2 -18 -2q-21 0 -35 13.5t-14 37.5q0 42 43 55l135 40q38 11 63 11h1q28 0 41 -19t6 -47z" />
    <glyph glyph-name="two" unicode="2" horiz-adv-x="639" 
d="M476 0h-422q-65 0 -65 54q0 34 31 56l376 273q59 42 86 77.5t27 74.5q0 43 -30.5 68t-83.5 25q-80 0 -156 -68q-21 -19 -44 -19t-38.5 16t-15.5 39q0 25 21 44q105 98 239 98q105 0 170 -53t65 -138q0 -66 -38 -120t-127 -117l-277 -202h282q22 0 38 -16t16 -38t-16 -38
t-38 -16z" />
    <glyph glyph-name="three" unicode="3" horiz-adv-x="639" 
d="M29 83q-20 22 -20 45q0 24 17.5 41.5t41.5 17.5q22 0 41 -19q32 -36 67 -53t89 -17q71 0 119.5 38t48.5 92q0 51 -44 78t-120 27h-8q-46 0 -46 46q0 23 26 44l233 198h-252q-22 0 -38 15.5t-16 37.5t16 38t38 16h378q27 0 43.5 -13t16.5 -36q0 -32 -40 -63l-238 -197
q80 -13 128 -57.5t48 -122.5q0 -107 -86.5 -179t-211.5 -72q-154 0 -231 95z" />
    <glyph glyph-name="four" unicode="4" horiz-adv-x="690" 
d="M513 164l-29 -109q-17 -61 -66 -61q-29 0 -42.5 21.5t-3.5 57.5l24 91h-313q-26 0 -43.5 14t-17.5 38q0 36 33 66l453 416q44 41 89 41q29 0 44.5 -18t7.5 -47l-109 -409h46q21 0 35.5 -14.5t14.5 -35.5q0 -22 -14.5 -36.5t-35.5 -14.5h-73zM184 265h239l81 299z" />
    <glyph glyph-name="five" unicode="5" horiz-adv-x="641" 
d="M45 74q-25 21 -25 50q0 23 16.5 40t40.5 17t44 -19q63 -63 155 -63q78 0 128 43t50 102q0 52 -39 83.5t-106 31.5q-20 0 -37.5 -3t-42 -10.5t-29.5 -8.5q-28 -3 -54 18q-30 22 -17 59l87 265q17 49 60 49h315q23 0 39 -16t16 -39q0 -22 -16 -38t-39 -16h-278l-59 -174
q51 17 98 17q103 0 165.5 -56t62.5 -150q0 -110 -87.5 -189t-226.5 -79q-128 0 -221 86z" />
    <glyph glyph-name="six" unicode="6" horiz-adv-x="678" 
d="M653 683q28 -17 28 -51q0 -24 -17 -40.5t-40 -16.5q-14 0 -39 14q-55 41 -123 41q-91 0 -158 -67q-73 -73 -93 -180q29 35 80 59t108 24q99 0 162.5 -57t63.5 -149q0 -109 -85.5 -190.5t-207.5 -81.5q-119 0 -183 66q-74 74 -74 204q0 109 38 208t106 167
q105 107 253 107q104 0 181 -57zM333 92q72 0 119.5 46.5t47.5 107.5q0 51 -36 85t-98 34q-75 0 -123 -44t-48 -105q0 -51 35 -86q38 -38 103 -38z" />
    <glyph glyph-name="seven" unicode="7" horiz-adv-x="632" 
d="M641 618l-435 -585q-33 -39 -67 -39q-24 0 -38 13t-14 35q0 25 20 51l399 527h-301q-23 0 -38.5 16t-15.5 38t15.5 38t38.5 16h409q55 0 55 -45q0 -30 -28 -65z" />
    <glyph glyph-name="eight" unicode="8" horiz-adv-x="691" 
d="M315 -10q-116 0 -195 56.5t-79 143.5q0 81 54.5 132t144.5 69q-44 21 -70 59.5t-26 86.5q0 80 73.5 140.5t194.5 60.5q111 0 181.5 -54t70.5 -138q0 -70 -46 -118.5t-123 -65.5q52 -20 84.5 -61t32.5 -98q0 -88 -82.5 -150.5t-214.5 -62.5zM397 420q67 0 108.5 33
t41.5 79q1 45 -37 74.5t-103 29.5q-64 0 -105.5 -32t-42.5 -80q0 -45 38.5 -74.5t99.5 -29.5zM322 91q74 0 121 33t48 86q1 47 -43.5 78.5t-115.5 31.5q-75 0 -122 -34t-48 -85q0 -48 44 -79t116 -31z" />
    <glyph glyph-name="nine" unicode="9" horiz-adv-x="678" 
d="M361 355q73 0 121 46.5t48 109.5q0 52 -34 86q-37 38 -103 38q-73 0 -120.5 -46.5t-48.5 -111.5q0 -53 36.5 -87.5t100.5 -34.5zM258 -13q-106 0 -188 62q-32 22 -32 53q0 24 17 40.5t40 16.5q18 0 39 -14q62 -47 130 -47q90 0 158 68q70 69 91 172q-30 -35 -79.5 -59.5
t-108.5 -24.5q-100 0 -162.5 57t-62.5 153q0 114 85 195t209 81q54 0 103 -17t80 -49q74 -72 74 -213q0 -105 -39 -202t-107 -165q-107 -107 -247 -107z" />
    <glyph glyph-name="colon" unicode=":" horiz-adv-x="313" 
d="M284 486l-5 -17q-5 -29 -27 -47.5t-52 -18.5q-31 0 -48.5 19.5t-12.5 48.5l4 17q6 29 27.5 47t52.5 18t48.5 -19t12.5 -48zM174 77l-4 -17q-6 -29 -28 -47.5t-52 -18.5q-31 0 -48.5 19.5t-12.5 48.5l5 17q6 30 27.5 48t51.5 18q31 0 48.5 -19.5t12.5 -48.5z" />
    <glyph glyph-name="semicolon" unicode=";" horiz-adv-x="313" 
d="M284 486l-5 -17q-5 -29 -27 -47.5t-52 -18.5q-31 0 -48.5 19.5t-12.5 48.5l4 17q6 29 27.5 47t52.5 18t48.5 -19t12.5 -48zM-26 -92q87 23 96 92q-50 12 -39 65l4 15q7 30 27.5 47.5t48.5 17.5q35 0 50.5 -23.5t7.5 -64.5l-5 -20q-19 -87 -79 -137q-48 -42 -107 -47
q-31 -1 -31 26q0 21 27 29z" />
    <glyph glyph-name="less" unicode="&#x3c;" horiz-adv-x="668" 
d="M148 434l428 183q18 8 34 8q20 0 33 -12t13 -32q0 -37 -34 -51l-405 -169l293 -158q33 -17 33 -50q0 -22 -15 -38t-38 -16q-18 0 -32 8l-313 174q-53 28 -53 72v5q0 52 56 76z" />
    <glyph glyph-name="equal" unicode="=" horiz-adv-x="668" 
d="M202 439q-23 0 -39.5 16.5t-16.5 39.5t16.5 39.5t39.5 16.5h384q23 0 39.5 -16.5t16.5 -39.5t-16.5 -39.5t-39.5 -16.5h-384zM133 181q-23 0 -39.5 16.5t-16.5 39.5t16.5 39.5t39.5 16.5h384q23 0 39.5 -16.5t16.5 -39.5t-16.5 -39.5t-39.5 -16.5h-384z" />
    <glyph glyph-name="greater" unicode="&#x3e;" horiz-adv-x="668" 
d="M567 298l-427 -183q-20 -8 -35 -8q-20 0 -33 12t-13 32q0 38 35 51l404 170l-293 157q-33 17 -33 50q0 23 15 39t38 16q16 0 32 -9l314 -174q52 -29 52 -72v-4q0 -53 -56 -77z" />
    <glyph glyph-name="question" unicode="?" horiz-adv-x="572" 
d="M204 577q-26 -15 -43 -15q-21 0 -35 15t-14 34q0 30 26 50q94 76 219 76q102 0 163 -53.5t61 -132.5q0 -94 -71.5 -153t-198.5 -78l-22 -59q-14 -39 -49 -39h-6q-17 0 -26.5 11.5t-7.5 31.5l15 97q5 37 53 44q83 10 134 43.5t51 87.5q0 42 -30 65.5t-82 23.5
q-66 0 -137 -49zM267 77l-4 -18q-5 -29 -27 -47t-53 -18t-48.5 19.5t-12.5 48.5l5 17q6 30 27.5 48t51.5 18q31 0 48.5 -19.5t12.5 -48.5z" />
    <glyph glyph-name="at" unicode="@" horiz-adv-x="1029" 
d="M720 -117q-102 -46 -220 -46q-193 0 -313.5 112.5t-120.5 292.5q0 99 40 191t107.5 160t162 109t198.5 41q189 0 302.5 -105t113.5 -257q0 -148 -70.5 -229t-164.5 -81q-52 0 -88 23.5t-50 64.5q-78 -90 -176 -90q-71 0 -118.5 47t-47.5 128q0 118 79.5 200.5t178.5 82.5
q101 0 145 -87l10 32q16 48 55 48q23 0 36 -17.5t4 -43.5l-70 -223q-17 -55 1 -87.5t64 -32.5q62 0 116.5 71.5t54.5 193.5q0 136 -102.5 229.5t-272.5 93.5q-127 0 -235.5 -64t-170 -170t-61.5 -228q0 -164 109 -265.5t284 -101.5q109 0 200 41q12 3 13 3q18 0 18 -19
q0 -12 -11 -17zM479 154q63 0 115.5 56t52.5 127q0 46 -29 75t-77 29q-63 0 -111.5 -54.5t-48.5 -129.5q0 -48 26.5 -75.5t71.5 -27.5z" />
    <glyph glyph-name="A" unicode="A" horiz-adv-x="797" 
d="M599 680l109 -594q4 -22 4 -33q0 -24 -18 -41.5t-44 -17.5q-52 0 -61 51l-22 132h-360l-102 -143q-29 -40 -63 -40q-23 0 -37 13.5t-14 35.5q0 20 15 40l435 605q34 50 87 50h3q56 0 68 -58zM283 287h265l-52 303z" />
    <glyph glyph-name="B" unicode="B" horiz-adv-x="756" 
d="M373 0h-276q-31 0 -45.5 21t-4.5 56l158 589q7 29 26 45.5t43 16.5h226q115 0 176 -48t61 -126q0 -73 -46 -121.5t-123 -64.5q115 -44 115 -149q0 -98 -82.5 -158.5t-227.5 -60.5zM259 419h183q80 0 125.5 30.5t45.5 84.5q0 40 -31.5 62.5t-92.5 22.5h-177zM176 109h214
q79 0 124.5 31t45.5 86q0 42 -35.5 65.5t-96.5 23.5h-197z" />
    <glyph glyph-name="C" unicode="C" horiz-adv-x="769" 
d="M660 76q-101 -89 -249 -89q-142 0 -234.5 84.5t-92.5 225.5q0 115 58.5 217t160.5 164t221 62q153 0 244 -103q24 -26 24 -52t-18 -44.5t-45 -18.5q-26 0 -44 19q-33 42 -72.5 64t-102.5 22q-120 0 -209 -98t-89 -228q0 -90 56 -145t145 -55q53 0 90 15t81 49
q24 15 42 15q24 0 40 -17t16 -41q0 -28 -22 -46z" />
    <glyph glyph-name="D" unicode="D" horiz-adv-x="816" 
d="M274 728h143q189 0 284 -95q79 -79 79 -211q0 -167 -117 -286q-136 -136 -378 -136h-188q-31 0 -45.5 21t-4.5 56l158 589q7 29 26 45.5t43 16.5zM179 111h121q169 0 271 102q82 82 82 203q0 87 -52 137q-64 64 -193 64h-93z" />
    <glyph glyph-name="E" unicode="E" horiz-adv-x="696" 
d="M529 0h-432q-31 0 -45.5 21t-4.5 56l158 589q7 29 26 45.5t43 16.5h415q23 0 39.5 -16t16.5 -39t-16.5 -39t-39.5 -16h-375l-52 -197h298q23 0 39.5 -16t16.5 -39q0 -22 -16.5 -38t-39.5 -16h-328l-54 -202h351q23 0 39 -16t16 -39t-16 -39t-39 -16z" />
    <glyph glyph-name="F" unicode="F" horiz-adv-x="697" 
d="M274 728h422q23 0 39.5 -16.5t16.5 -39.5t-16.5 -39.5t-39.5 -16.5h-382l-55 -205h304q23 0 39.5 -16.5t16.5 -39.5t-16.5 -39.5t-39.5 -16.5h-333l-66 -243q-7 -28 -26 -45t-43 -17q-30 0 -45 21.5t-5 56.5l160 594q7 29 26 45.5t43 16.5z" />
    <glyph glyph-name="G" unicode="G" horiz-adv-x="823" 
d="M754 327l-63 -222q-12 -44 -51 -66q-95 -52 -224 -52q-88 0 -162 34t-122 107t-48 172q0 113 58 213.5t162.5 163.5t230.5 63q165 0 251 -90q25 -23 25 -50q0 -25 -17.5 -42.5t-42.5 -17.5q-24 0 -40 14q-76 74 -186 74q-131 0 -222 -97.5t-91 -226.5q0 -95 59.5 -149.5
t152.5 -54.5q89 0 158 39l46 158h-135q-22 0 -38 16t-16 38t16 38t38 16h211q31 0 45.5 -22t4.5 -56z" />
    <glyph glyph-name="H" unicode="H" horiz-adv-x="796" 
d="M799 655l-162 -600q-16 -61 -68 -61q-30 0 -44.5 21.5t-5.5 57.5l64 236h-350l-69 -254q-16 -61 -68 -61q-31 0 -45.5 21.5t-4.5 57.5l161 600q16 61 68 61q31 0 45.5 -21.5t4.5 -57.5l-62 -232h351l67 250q16 61 68 61q31 0 45.5 -21.5t4.5 -57.5z" />
    <glyph glyph-name="I" unicode="I" horiz-adv-x="337" 
d="M333 655l-162 -600q-16 -61 -68 -61q-31 0 -45.5 21.5t-4.5 57.5l161 600q17 61 69 61q30 0 44.5 -21.5t5.5 -57.5z" />
    <glyph glyph-name="J" unicode="J" horiz-adv-x="595" 
d="M608 655l-102 -382q-21 -79 -43.5 -125.5t-59.5 -83.5q-75 -74 -200 -74q-120 0 -191 92q-20 20 -20 46q0 25 16.5 42t40.5 17t45 -22q42 -62 115 -62q66 0 112 46q40 40 69 152l100 372q16 61 68 61q31 0 45.5 -21.5t4.5 -57.5z" />
    <glyph glyph-name="K" unicode="K" horiz-adv-x="756" 
d="M201 193l-37 -138q-16 -61 -68 -61q-31 0 -45.5 21.5t-4.5 57.5l161 600q16 61 68 61q31 0 45.5 -21.5t4.5 -57.5l-81 -302l432 357q30 24 52 24q25 0 40 -16t15 -40q0 -27 -22 -46l-276 -223l153 -318q11 -24 11 -41q0 -24 -19 -40t-43 -16q-44 0 -62 44l-141 302z" />
    <glyph glyph-name="L" unicode="L" horiz-adv-x="652" 
d="M500 0h-403q-31 0 -45.5 21t-4.5 56l160 596q16 61 68 61q31 0 45.5 -21.5t4.5 -57.5l-145 -543h320q23 0 39 -16.5t16 -39.5q0 -24 -16 -40t-39 -16z" />
    <glyph glyph-name="M" unicode="M" horiz-adv-x="913" 
d="M855 732h10q31 0 45.5 -21.5t4.5 -57.5l-161 -598q-7 -29 -26 -45t-43 -16q-31 0 -45.5 21.5t-4.5 57.5l115 430l-246 -262q-34 -36 -66 -36q-36 0 -52 43l-102 255l-120 -448q-18 -61 -69 -61q-30 0 -44.5 21.5t-4.5 57.5l160 596q16 63 70 63h6q44 0 63 -50l131 -334
l303 344q35 40 76 40z" />
    <glyph glyph-name="N" unicode="N" horiz-adv-x="827" 
d="M588 204l126 469q17 61 68 61q30 0 44 -21.5t4 -57.5l-162 -602q-14 -57 -64 -57h-3q-47 0 -69 47l-241 495l-129 -483q-16 -61 -67 -61q-31 0 -45 21.5t-4 57.5l160 597q16 62 72 62h6q50 0 73 -51z" />
    <glyph glyph-name="O" unicode="O" horiz-adv-x="880" 
d="M411 -13q-144 0 -235 91t-91 228q0 82 32.5 161t89 139t138 97t172.5 37q144 0 235 -91t91 -228q0 -82 -32.5 -161t-89 -139t-138 -97t-172.5 -37zM424 100q123 0 207 97.5t84 217.5q0 93 -57 152.5t-154 59.5q-123 0 -207 -97t-84 -217q0 -94 57 -153.5t154 -59.5z" />
    <glyph glyph-name="P" unicode="P" horiz-adv-x="710" 
d="M214 239l-50 -184q-16 -61 -68 -61q-31 0 -45.5 21.5t-4.5 57.5l159 593q7 29 26 45.5t43 16.5h177q148 0 219 -71q54 -54 54 -143q0 -129 -98.5 -202t-257.5 -73h-154zM242 347h132q104 0 163 41.5t59 116.5q0 45 -28 73q-39 39 -121 39h-133z" />
    <glyph glyph-name="Q" unicode="Q" horiz-adv-x="880" 
d="M652 -2l-35 44q-93 -55 -206 -55q-144 0 -235 91t-91 228q0 82 32.5 161t89 139t138 97t172.5 37q144 0 235 -91t91 -228q0 -86 -35.5 -167.5t-98.5 -143.5l30 -34q20 -23 20 -48q0 -24 -16.5 -40.5t-41.5 -16.5q-32 0 -49 27zM571 300l67 -91q77 91 77 206
q0 93 -57 152.5t-154 59.5q-123 0 -207 -97t-84 -217q0 -94 57 -153.5t154 -59.5q66 0 128 35l-64 79q-23 31 -23 51q0 25 17.5 42.5t42.5 17.5q30 0 46 -25z" />
    <glyph glyph-name="R" unicode="R" horiz-adv-x="761" 
d="M218 257l-54 -202q-16 -61 -68 -61q-31 0 -45.5 21.5t-4.5 57.5l159 593q7 29 26 45.5t43 16.5h211q149 0 219 -70q53 -53 53 -137q0 -99 -66 -165q-62 -62 -179 -86l106 -178q14 -20 14 -41q0 -26 -18 -41.5t-42 -15.5q-46 0 -70 41l-127 222h-157zM248 366h169
q117 0 175 56q37 39 37 89q0 42 -26 68q-38 38 -124 38h-164z" />
    <glyph glyph-name="S" unicode="S" horiz-adv-x="672" 
d="M320 98q63 0 104.5 29.5t41.5 75.5q0 34 -29 58.5t-107 55.5q-95 38 -142.5 81t-47.5 114q0 100 80 163t200 63q132 0 225 -73q29 -20 29 -51q0 -25 -17.5 -42.5t-43.5 -17.5q-22 0 -36 13q-74 63 -167 63q-63 0 -101 -29.5t-38 -70.5q0 -35 30.5 -58t113.5 -56
q92 -36 136.5 -80t44.5 -115q0 -103 -82 -167t-201 -64q-172 0 -271 95q-23 19 -23 51q0 26 17 44t42 18q22 0 41 -17q46 -44 92 -63.5t109 -19.5z" />
    <glyph glyph-name="T" unicode="T" horiz-adv-x="653" 
d="M477 615l-151 -560q-16 -61 -68 -61q-31 0 -45.5 21.5t-4.5 57.5l146 542h-166q-23 0 -40 16.5t-17 39.5t17 40t40 17h485q23 0 40 -17t17 -40t-17 -39.5t-40 -16.5h-196z" />
    <glyph glyph-name="U" unicode="U" horiz-adv-x="802" 
d="M812 655l-97 -361q-37 -138 -114 -215q-89 -90 -237 -90q-127 0 -198 64t-71 175q0 53 16 115l88 330q17 61 69 61q30 0 44.5 -21.5t5.5 -57.5l-89 -330q-10 -48 -10 -80q0 -65 40.5 -104t116.5 -39q81 0 139 56q54 52 82 155l96 360q17 61 69 61q30 0 44.5 -21.5
t5.5 -57.5z" />
    <glyph glyph-name="V" unicode="V" horiz-adv-x="759" 
d="M805 650l-420 -609q-35 -51 -83 -51h-5q-50 0 -59 55l-93 602q-2 20 -2 30q0 25 17.5 41t46.5 16q58 0 64 -58l70 -512l357 529q25 41 64 41q25 0 40.5 -12t15.5 -34q0 -19 -13 -38z" />
    <glyph glyph-name="W" unicode="W" horiz-adv-x="1150" 
d="M1194 649l-381 -608q-31 -51 -82 -51h-5q-54 0 -56 55l-35 475l-291 -479q-32 -51 -80 -51h-5q-52 0 -57 55l-55 602q0 4 -0.5 14.5t-0.5 14.5q0 25 17.5 41.5t45.5 16.5t44.5 -14.5t17.5 -39.5l36 -499l301 506q27 48 70 48h6q51 0 56 -49l32 -505l310 511q25 42 67 42
q25 0 40.5 -14t15.5 -36q0 -18 -11 -35z" />
    <glyph glyph-name="X" unicode="X" horiz-adv-x="735" 
d="M469 362l142 -262q16 -30 16 -46q0 -25 -18 -42.5t-44 -17.5q-41 0 -63 44l-122 240l-251 -250q-34 -34 -63 -34q-22 0 -37.5 14.5t-15.5 39.5q0 26 24 50l283 279l-136 251q-16 30 -16 46q0 25 18 42.5t44 17.5q41 0 63 -44l119 -232l237 242q34 34 63 34q22 0 37.5 -15
t15.5 -38q0 -25 -22 -49z" />
    <glyph glyph-name="Y" unicode="Y" horiz-adv-x="693" 
d="M400 272l-58 -217q-16 -61 -68 -61q-31 0 -45.5 21.5t-4.5 57.5l57 213l-146 343q-11 26 -11 46q0 25 18 42t47 17q43 0 60 -49l116 -293l287 307q33 35 66 35q24 0 38 -13.5t14 -36.5q0 -28 -22 -50z" />
    <glyph glyph-name="Z" unicode="Z" horiz-adv-x="717" 
d="M30 110l543 510h-344q-22 0 -38 15.5t-16 37.5q0 23 16 39t38 16h479q24 0 38.5 -12.5t14.5 -34.5v-1q0 -30 -34 -62l-543 -510h362q23 0 39 -16t16 -38t-16 -38t-39 -16h-496q-25 0 -39 12.5t-14 34.5v1q0 29 33 62z" />
    <glyph glyph-name="bracketleft" unicode="[" horiz-adv-x="481" 
d="M499 634h-173l-181 -675h147q20 0 34 -14t14 -33t-14 -33t-34 -14h-220q-27 0 -42.5 19t-8.5 44l198 738q7 28 26.5 45t48.5 17h205q19 0 33 -14t14 -33t-14 -33t-33 -14z" />
    <glyph glyph-name="backslash" unicode="\" horiz-adv-x="550" 
d="M249 787l194 -844q6 -33 6 -36q0 -20 -13.5 -33t-33.5 -13q-42 0 -52 49l-194 843q-6 22 -6 37q0 19 13.5 32t33.5 13q42 0 52 -48z" />
    <glyph glyph-name="bracketright" unicode="]" horiz-adv-x="481" 
d="M199 -135h-205q-20 0 -34 14t-14 33t14 33t34 14h173l181 675h-148q-20 0 -34 14t-14 33t14.5 33t33.5 14h221q27 0 42 -18.5t8 -44.5l-198 -739q-7 -27 -26.5 -44t-47.5 -17z" />
    <glyph glyph-name="asciicircum" unicode="^" 
d="M157 561l135 135q36 36 70 36h7q41 0 57 -38l64 -136q9 -20 9 -30q0 -20 -29 -20q-24 0 -36.5 7t-26.5 35l-52 103l-108 -105q-25 -23 -40.5 -31.5t-35.5 -8.5q-14 0 -21.5 7t-7.5 17q0 15 15 29z" />
    <glyph glyph-name="underscore" unicode="_" horiz-adv-x="634" 
d="M-101 -166q-19 0 -33 14t-14 33t14 33t33 14h628q20 0 34 -14t14 -33t-14 -33t-34 -14h-628z" />
    <glyph glyph-name="grave" unicode="`" 
d="M356 640l-53 69q-12 15 -12 27q0 15 23 28.5t48 13.5q34 0 46 -31l33 -89q4 -9 4 -19q0 -25 -37 -25q-19 0 -29.5 5t-22.5 21z" />
    <glyph glyph-name="a" unicode="a" horiz-adv-x="615" 
d="M232 76q58 0 107.5 38.5t66.5 95.5l7 26q-68 22 -138 22q-60 0 -98 -29t-38 -77q0 -34 25.5 -55t67.5 -21zM412 -6q-31 0 -42.5 17t-8.5 40l6 23q-77 -85 -183 -85q-71 0 -118.5 41t-47.5 108q0 92 67.5 145t172.5 53q85 0 173 -27l3 10q7 24 7 46q0 86 -125 86
q-57 0 -109 -16q-2 0 -10.5 -1.5t-11.5 -1.5q-20 0 -34 14t-14 35q0 36 38 48q78 26 165 26q106 0 162 -44.5t56 -124.5q0 -30 -11 -80l-68 -251q-16 -61 -67 -61z" />
    <glyph glyph-name="b" unicode="b" horiz-adv-x="704" 
d="M346 -11q-128 0 -187 111l-12 -45q-16 -61 -67 -61q-30 0 -44 21.5t-4 56.5l168 632q16 61 67 61q31 0 45 -21.5t4 -56.5l-58 -215q84 87 179 87q93 0 153.5 -64t60.5 -170q0 -142 -91.5 -239t-213.5 -97zM332 92q80 0 137 65.5t57 158.5q0 64 -36.5 102t-96.5 38
q-78 0 -140.5 -67t-62.5 -155q0 -62 40 -102t102 -40z" />
    <glyph glyph-name="c" unicode="c" horiz-adv-x="593" 
d="M491 57q-83 -69 -190 -69t-178 67t-71 176q0 134 95.5 231t226.5 97q122 0 191 -82q22 -22 22 -47q0 -23 -17 -39.5t-41 -16.5q-26 0 -42 19q-46 61 -122 61t-134.5 -67t-58.5 -155q0 -64 39 -102.5t95 -38.5q60 0 118 43q18 14 37 14q21 0 35 -14.5t14 -35.5
q0 -25 -19 -41z" />
    <glyph glyph-name="d" unicode="d" horiz-adv-x="704" 
d="M310 92q78 0 140.5 67t62.5 155q0 62 -40 102t-102 40q-80 0 -137 -66t-57 -159q0 -63 36.5 -101t96.5 -38zM490 -6q-26 0 -40 15t-12 39l6 27q-83 -86 -178 -86q-93 0 -153.5 63.5t-60.5 169.5q0 143 91.5 240t213.5 97q128 0 187 -111l68 256q17 61 68 61
q30 0 44 -21.5t4 -56.5l-169 -632q-16 -61 -69 -61z" />
    <glyph glyph-name="e" unicode="e" horiz-adv-x="633" 
d="M311 87q66 0 115 35q20 12 38 12q20 0 33 -13t13 -34q0 -24 -23 -42q-79 -57 -188 -57q-113 0 -180.5 64.5t-67.5 173.5q0 128 92.5 230.5t229.5 102.5q103 0 161 -60t58 -152q0 -31 -7 -61q-12 -54 -60 -54h-357q-1 -4 -1 -12q2 -61 39.5 -97t104.5 -36zM180 312h292
q5 17 5 39q0 48 -28 78.5t-84 30.5q-64 0 -114 -41.5t-71 -106.5z" />
    <glyph glyph-name="f" unicode="f" horiz-adv-x="420" 
d="M281 444l-105 -389q-16 -61 -67 -61q-31 0 -45 21.5t-4 56.5l100 372h-17q-18 2 -32 16t-14 36t15 37t36 15h40l12 47q44 169 206 169q34 0 61 -8q41 -9 41 -48q0 -27 -17.5 -42.5t-39.5 -10.5q-21 6 -43 6q-70 0 -92 -80l-9 -33h94q21 0 36 -15t15 -37t-15 -37t-36 -15
h-120z" />
    <glyph glyph-name="g" unicode="g" horiz-adv-x="702" 
d="M312 142q77 0 136 57t59 132q0 54 -37 89.5t-99 35.5q-77 0 -133.5 -57t-56.5 -136q0 -58 37 -89.5t94 -31.5zM542 447l13 46q16 60 66 60q31 0 45 -21t4 -56l-102 -382q-19 -72 -39.5 -112.5t-52.5 -73.5q-78 -76 -216 -76q-132 0 -239 60q-33 17 -33 48q0 22 14.5 37.5
t36.5 15.5q18 0 37 -11q87 -53 178 -53q85 0 135 50q37 37 59 114l10 35q-89 -84 -190 -84q-87 0 -149.5 53t-62.5 145q0 133 92.5 225t210.5 92q124 0 183 -112z" />
    <glyph glyph-name="h" unicode="h" horiz-adv-x="652" 
d="M580 300l-65 -245q-16 -61 -67 -61q-31 0 -45 21.5t-4 56.5l62 233q8 27 8 55q0 43 -25.5 66.5t-72.5 23.5q-54 0 -96.5 -39t-59.5 -103l-68 -253q-16 -61 -67 -61q-30 0 -44 21.5t-4 56.5l168 632q16 61 67 61q31 0 45 -21.5t4 -56.5l-56 -211q81 83 169 83
q76 0 121.5 -44.5t45.5 -119.5q0 -33 -16 -95z" />
    <glyph glyph-name="i" unicode="i" horiz-adv-x="305" 
d="M333 687q-6 -26 -27.5 -41t-51.5 -15t-47 16.5t-12 41.5l3 12q6 26 27.5 41t51.5 15q29 0 46.5 -16.5t12.5 -40.5zM267 476l-113 -421q-16 -61 -67 -61q-31 0 -45 21.5t-4 56.5l113 421q15 60 68 60q30 0 44 -21t4 -56z" />
    <glyph glyph-name="j" unicode="j" horiz-adv-x="304" 
d="M333 687q-6 -26 -27.5 -41t-51.5 -15t-47 16.5t-12 41.5l3 12q6 26 27.5 41t51.5 15q29 0 46.5 -16.5t12.5 -40.5zM267 476l-130 -486q-43 -160 -182 -160q-77 0 -77 52q0 22 14.5 37t35.5 12q3 0 13.5 -1t14.5 -1q44 0 63 70l132 494q15 60 68 60q30 0 44 -21t4 -56z
" />
    <glyph glyph-name="k" unicode="k" horiz-adv-x="613" 
d="M317 687l-104 -388l298 233q27 21 46 21q22 0 36.5 -13.5t14.5 -34.5q0 -27 -23 -42l-194 -148l104 -224q11 -25 11 -42q0 -25 -18.5 -40t-43.5 -15q-44 0 -62 44l-95 202l-114 -87l-26 -98q-16 -61 -67 -61q-30 0 -44 21.5t-4 56.5l169 632q16 61 68 61q30 0 44 -21.5
t4 -56.5z" />
    <glyph glyph-name="l" unicode="l" horiz-adv-x="305" 
d="M324 687l-170 -632q-16 -61 -67 -61q-31 0 -45 21.5t-4 56.5l170 632q16 61 67 61q31 0 45 -21.5t4 -56.5z" />
    <glyph glyph-name="m" unicode="m" horiz-adv-x="998" 
d="M388 72l63 233q7 30 7 55q0 43 -24 66.5t-68 23.5q-52 0 -93 -39.5t-58 -102.5l-68 -253q-16 -61 -67 -61q-30 0 -44 21.5t-4 56.5l112 421q15 60 69 60q26 0 40.5 -15t12.5 -37l-6 -25q79 83 162 83q59 0 97.5 -30.5t52.5 -80.5q82 111 208 111q74 0 118.5 -44.5
t44.5 -119.5q0 -29 -17 -95l-65 -245q-16 -61 -67 -61q-31 0 -45 21.5t-4 56.5l62 233q8 27 8 55q0 43 -24 66.5t-68 23.5q-52 0 -93 -39.5t-58 -102.5l-68 -253q-16 -61 -67 -61q-30 0 -44 21t-5 57z" />
    <glyph glyph-name="n" unicode="n" horiz-adv-x="651" 
d="M213 553q26 0 40.5 -15t12.5 -37l-6 -25q81 83 169 83q76 0 121.5 -44.5t45.5 -119.5q0 -33 -16 -95l-65 -245q-16 -61 -67 -61q-31 0 -45 21.5t-4 56.5l62 233q8 27 8 55q0 43 -25.5 66.5t-72.5 23.5q-54 0 -96.5 -39t-59.5 -103l-68 -253q-16 -61 -67 -61
q-30 0 -44 21.5t-4 56.5l112 421q15 60 69 60z" />
    <glyph glyph-name="o" unicode="o" horiz-adv-x="681" 
d="M309 -12q-116 0 -186.5 70t-70.5 179q0 127 95 224.5t225 97.5q116 0 186.5 -70t70.5 -180q0 -127 -95.5 -224t-224.5 -97zM316 92q79 0 136 67t57 147q0 69 -39.5 108.5t-104.5 39.5q-79 0 -136 -67t-57 -146q0 -70 39 -109.5t105 -39.5z" />
    <glyph glyph-name="p" unicode="p" horiz-adv-x="704" 
d="M393 456q-78 0 -140.5 -67t-62.5 -155q0 -62 40 -102t102 -40q80 0 137 65.5t57 158.5q0 64 -36.5 102t-96.5 38zM213 553q26 0 40 -14.5t12 -38.5l-7 -28q84 87 179 87q93 0 153.5 -64t60.5 -170q0 -142 -91.5 -239t-213.5 -97q-128 0 -187 111l-56 -211
q-17 -61 -68 -61q-31 0 -44.5 21t-3.5 57l157 587q15 60 69 60z" />
    <glyph glyph-name="q" unicode="q" horiz-adv-x="704" 
d="M357 559q128 0 187 -111l12 45q16 60 67 60q31 0 44.5 -21t3.5 -56l-156 -587q-16 -61 -67 -61q-31 0 -44.5 21t-3.5 57l45 170q-84 -87 -179 -87q-93 0 -153.5 63.5t-60.5 169.5q0 143 91.5 240t213.5 97zM371 456q-80 0 -137 -66t-57 -159q0 -63 36.5 -101t96.5 -38
q78 0 140.5 67t62.5 155q0 62 -40 102t-102 40z" />
    <glyph glyph-name="r" unicode="r" horiz-adv-x="437" 
d="M260 482l-13 -52q35 60 79 92.5t89 32.5q24 0 38.5 -15t14.5 -40q0 -50 -58 -64q-171 -36 -222 -231l-41 -150q-17 -61 -68 -61q-30 0 -44 21.5t-4 56.5l113 421q15 60 67 60q29 0 43 -19.5t6 -51.5z" />
    <glyph glyph-name="s" unicode="s" horiz-adv-x="528" 
d="M240 83q39 0 65.5 18.5t26.5 49.5q0 21 -19.5 37.5t-63.5 33.5q-80 32 -118.5 65.5t-38.5 90.5q0 78 58.5 129.5t155.5 51.5q94 0 176 -52q28 -18 28 -47q0 -22 -14.5 -37t-36.5 -15q-15 0 -32 12q-66 44 -130 44q-41 0 -64.5 -18.5t-23.5 -46.5q0 -21 20 -37t70 -37
q74 -32 112 -65.5t38 -87.5q0 -83 -61.5 -133.5t-156.5 -50.5q-118 0 -212 71q-23 17 -23 44q0 21 14.5 36.5t35.5 15.5q18 0 35 -13q74 -59 159 -59z" />
    <glyph glyph-name="t" unicode="t" horiz-adv-x="435" 
d="M185 548l27 97q15 60 67 60q30 0 44 -21t5 -56l-22 -80h89q21 0 36 -15t15 -37t-15 -37t-36 -15h-117l-72 -271q-5 -17 -5 -32q0 -43 56 -43q17 0 23 2q22 2 35 -10t13 -35q0 -36 -34 -51q-32 -13 -83 -13q-65 0 -101.5 29t-36.5 78q0 26 9 64l75 282h-17q-18 2 -32 16
t-14 36t15 37t36 15h40z" />
    <glyph glyph-name="u" unicode="u" horiz-adv-x="652" 
d="M439 -6q-25 0 -39.5 15t-13.5 38l7 25q-83 -83 -169 -83q-77 0 -122.5 44.5t-45.5 119.5q0 33 16 95l65 245q15 60 68 60q30 0 44 -21t4 -56l-62 -233q-8 -27 -8 -55q0 -43 26 -66.5t72 -23.5q54 0 96.5 39t59.5 103l68 253q15 60 67 60q31 0 45 -21t4 -56l-112 -421
q-17 -61 -70 -61z" />
    <glyph glyph-name="v" unicode="v" horiz-adv-x="613" 
d="M610 472l-301 -432q-34 -49 -79 -49h-4q-52 0 -60 53l-69 422q-3 13 -3 31q0 24 18 40t43 16q27 0 43.5 -14t18.5 -38l45 -360l244 373q26 39 64 39q23 0 37 -12.5t14 -33.5t-11 -35z" />
    <glyph glyph-name="w" unicode="w" horiz-adv-x="897" 
d="M129 47l-31 419q0 4 -0.5 14.5t-0.5 15.5q0 24 18.5 40.5t43.5 16.5q27 0 43 -14t17 -39l17 -333l201 339q29 48 71 48h6q51 0 54 -49l20 -339l207 350q23 37 58 37q23 0 36 -12t13 -33q0 -18 -11 -35l-265 -433q-28 -49 -77 -49h-4q-53 0 -56 56l-21 330l-202 -337
q-28 -49 -78 -49h-3q-53 0 -56 56z" />
    <glyph glyph-name="x" unicode="x" horiz-adv-x="604" 
d="M241 510l80 -149l166 162q13 12 19 17t17 10t23 5q21 0 35 -13.5t14 -34.5q0 -30 -28 -54l-195 -179l104 -178q16 -27 16 -46q0 -25 -16.5 -41.5t-42.5 -16.5q-38 0 -60 46l-84 159l-178 -172q-2 -2 -9 -8t-9.5 -8t-8.5 -6t-10 -5.5t-10 -3t-12 -1.5q-21 0 -35 13.5
t-14 34.5q0 29 28 54l207 188l-100 168q-16 24 -16 47q0 24 16 40.5t41 16.5q38 0 62 -45z" />
    <glyph glyph-name="y" unicode="y" horiz-adv-x="617" 
d="M30 -54q33 -12 57 -12q48 0 94 65l-78 467q-3 13 -3 30q0 24 17.5 40.5t42.5 16.5q26 0 42 -14t18 -39l52 -367l235 381q21 39 62 39q24 0 38.5 -12.5t14.5 -34.5q0 -16 -16 -42l-311 -479q-54 -84 -106 -119.5t-117 -35.5q-48 0 -81 17q-37 16 -37 52q0 22 15 37.5
t34 15.5q9 0 27 -6z" />
    <glyph glyph-name="z" unicode="z" horiz-adv-x="585" 
d="M170 548h364q25 0 39.5 -12t14.5 -32v-1q0 -29 -29 -54l-392 -350h257q21 0 35.5 -14.5t14.5 -35.5q0 -20 -14.5 -34.5t-35.5 -14.5h-377q-25 0 -39.5 12t-14.5 32v1q0 29 29 54l391 350h-243q-20 0 -35 14.5t-15 34.5t15 35t35 15z" />
    <glyph glyph-name="braceleft" unicode="{" horiz-adv-x="516" 
d="M112 345h7q74 0 106 36t47 134q16 110 75.5 164t175.5 63q54 3 54 -42q0 -36 -39 -43q-82 -10 -115.5 -48t-44.5 -120q-15 -105 -52.5 -147.5t-113.5 -51.5q82 -17 82 -91q0 -30 -15 -73q-20 -58 -20 -89q0 -66 69 -94q30 -13 30 -42q0 -22 -16.5 -35t-40.5 -7
q-81 20 -119 59t-38 100q0 35 21 101q15 43 15 68q0 30 -14.5 45t-50.5 19h-1q-52 10 -52 47q0 20 14 33.5t36 13.5z" />
    <glyph glyph-name="bar" unicode="|" horiz-adv-x="351" 
d="M146 -90v877q0 20 14 34t34 14t34.5 -14t14.5 -34v-877q0 -20 -14.5 -34.5t-34.5 -14.5t-34 14.5t-14 34.5z" />
    <glyph glyph-name="braceright" unicode="}" horiz-adv-x="516" 
d="M6 -145q-54 -3 -54 42q0 36 39 43q82 10 115.5 48t44.5 120q15 105 52.5 147.5t113.5 51.5q-82 17 -82 91q0 31 15 72q20 60 20 90q0 66 -69 94q-30 13 -30 42q0 22 16.5 35t40.5 7q81 -20 119 -59t38 -100q0 -36 -22 -101q-14 -45 -14 -68q0 -30 14.5 -45t50.5 -19
q53 -10 53 -48q0 -20 -14 -33t-37 -13h-6q-74 0 -106 -36t-47 -134q-16 -110 -76 -164t-175 -63z" />
    <glyph glyph-name="asciitilde" unicode="~" horiz-adv-x="522" 
d="M117 240q-15 0 -25.5 9t-10.5 24q0 13 8 27q54 95 126 95q38 0 78 -32q36 -29 53 -29q26 0 56 40q16 21 37 21q15 0 25.5 -9.5t10.5 -24.5t-8 -27q-54 -95 -125 -95q-38 0 -78 32q-36 29 -53 29q-26 0 -56 -39q-16 -21 -38 -21z" />
    <glyph glyph-name="uni00A0" unicode="&#xa0;" horiz-adv-x="322" 
 />
    <glyph glyph-name="exclamdown" unicode="&#xa1;" horiz-adv-x="321" 
d="M336 666l-4 -17q-6 -30 -27.5 -48t-51.5 -18q-32 0 -49 19.5t-12 48.5l4 18q5 29 27 47t52 18q31 0 48.5 -19.5t12.5 -48.5zM29 42l149 433q12 31 40 31q16 0 25 -11t5 -30l-82 -426q-3 -18 -15 -30t-30 -12h-65q-18 0 -26 13t-1 32z" />
    <glyph glyph-name="cent" unicode="&#xa2;" horiz-adv-x="609" 
d="M197 332q0 -82 63 -121l133 338h-5q-81 -4 -136 -68.5t-55 -148.5zM529 142q-83 -59 -185 -59q-28 0 -48 4l-22 -56q-18 -43 -49 -43q-22 0 -33 16.5t-1 40.5l25 64q-65 30 -102 88t-37 134q0 136 94.5 230t230.5 94q18 0 28 -1l17 43q18 43 49 43q22 0 32.5 -16t0.5 -41
l-18 -47q62 -22 95 -66q22 -22 22 -46t-16.5 -40.5t-40.5 -16.5q-25 0 -41 19q-27 34 -63 49l-136 -346q4 -1 13 -1q62 0 123 39q21 12 39 12q21 0 34.5 -15t13.5 -36q0 -31 -25 -46z" />
    <glyph glyph-name="sterling" unicode="&#xa3;" horiz-adv-x="672" 
d="M474 624q-51 0 -90 -37q-34 -34 -53 -102l-25 -90h204q22 0 37 -15.5t15 -36.5q0 -22 -15 -36.5t-37 -14.5h-231l-49 -185h278q22 0 38 -15.5t16 -38.5q0 -22 -15.5 -37.5t-38.5 -15.5h-459q-21 0 -34 12.5t-13 30.5q0 34 39 45l66 18l50 186h-22q-22 0 -37 14.5
t-15 36.5q0 21 15 36.5t37 15.5h49l30 111q27 102 83 159q74 72 186 72q111 0 173 -69q26 -24 26 -50q0 -27 -17 -44.5t-44 -17.5q-25 0 -42 19q-42 49 -105 49z" />
    <glyph glyph-name="yen" unicode="&#xa5;" horiz-adv-x="745" 
d="M402 416l269 283q31 35 59 35q24 0 37.5 -13.5t13.5 -36.5q0 -25 -23 -50l-267 -270h114q19 0 32 -13t13 -32q0 -18 -13 -31t-32 -13h-175l-20 -78h151q18 0 31.5 -13t13.5 -32q0 -18 -13.5 -31t-31.5 -13h-175l-15 -53q-7 -29 -25 -45t-41 -16q-30 0 -44 19.5t-5 55.5
l11 39h-150q-19 0 -32 13t-13 31q0 19 13 32t32 13h174l20 78h-150q-19 0 -32 13t-13 31q0 19 13 32t32 13h139l-118 266q-12 28 -12 45q0 25 17.5 42t43.5 17q43 0 60 -42z" />
    <glyph glyph-name="section" unicode="&#xa7;" horiz-adv-x="667" 
d="M417 284q40 0 68.5 19t28.5 46q0 24 -24.5 40.5t-81.5 34.5q-66 22 -110 22q-40 0 -68.5 -19t-28.5 -46q0 -24 24.5 -40.5t81.5 -34.5q66 -22 110 -22zM309 84q41 0 66.5 14.5t25.5 39.5q0 22 -26 37.5t-94 36.5q-100 31 -147.5 62.5t-47.5 87.5q0 54 43.5 90t120.5 45
q-53 38 -53 91q0 67 62.5 109.5t157.5 42.5q115 0 197 -59q25 -17 25 -45q0 -22 -15 -37t-37 -15q-16 0 -31 11q-73 51 -148 51q-42 0 -68 -14.5t-26 -39.5q0 -22 26 -37.5t94 -36.5q100 -31 147.5 -62.5t47.5 -87.5q0 -54 -43.5 -90t-120.5 -45q53 -35 53 -91
q0 -67 -62 -109.5t-155 -42.5q-129 0 -216 70q-20 17 -20 42q0 22 14.5 37.5t35.5 15.5q18 0 35 -13q72 -58 159 -58z" />
    <glyph glyph-name="dieresis" unicode="&#xa8;" 
d="M534 671q-6 -27 -26.5 -42.5t-48.5 -15.5q-30 0 -46 17t-9 43l4 15q6 27 26.5 42.5t48.5 15.5t44 -17.5t11 -42.5zM330 671q-6 -27 -26.5 -42.5t-48.5 -15.5q-30 0 -46 17t-9 43l4 15q6 27 26.5 42.5t48.5 15.5t44 -17.5t11 -42.5z" />
    <glyph glyph-name="copyright" unicode="&#xa9;" horiz-adv-x="873" 
d="M459 -12q-157 0 -266.5 109.5t-109.5 264.5v2q0 155 110.5 265.5t267.5 110.5t266 -109.5t109 -264.5v-2q0 -155 -110 -265.5t-267 -110.5zM459 25q143 0 240.5 99t97.5 240v2q0 141 -96.5 239t-239.5 98t-240.5 -99t-97.5 -240v-2q0 -141 96.5 -239t239.5 -98zM464 166
q-85 0 -142 58.5t-57 142.5v3q0 84 57.5 143.5t143.5 59.5q78 0 135 -45q16 -13 16 -31q0 -16 -10.5 -26.5t-25.5 -10.5q-12 0 -25 10q-43 34 -90 34q-53 0 -89 -39t-36 -94v-2q0 -55 36 -94.5t89 -39.5t96 37q11 9 23 9q14 0 24.5 -10t10.5 -24q0 -16 -12 -26
q-62 -55 -144 -55z" />
    <glyph glyph-name="ordfeminine" unicode="&#xaa;" horiz-adv-x="416" 
d="M230 470q31 0 59 21.5t35 52.5l3 10q-38 12 -70 12t-52.5 -16t-20.5 -41q0 -17 12.5 -28t33.5 -11zM277 671q-27 0 -57 -8q-12 -3 -17 -3q-26 0 -26 28q0 22 23 30q40 14 92 14q58 0 89 -24.5t31 -68.5q0 -23 -6 -44l-37 -138q-10 -35 -40 -35q-17 0 -24.5 9.5t-5.5 23.5
l4 12q-45 -47 -101 -47q-39 0 -64 22.5t-25 57.5q0 51 37.5 81t95.5 30q43 0 92 -15l2 7q4 16 4 22q0 46 -67 46zM88 294q-12 0 -20.5 8.5t-8.5 20.5q0 13 8.5 21.5t20.5 8.5h229q13 0 21.5 -8.5t8.5 -21.5q0 -12 -8.5 -20.5t-21.5 -8.5h-229z" />
    <glyph glyph-name="guillemotleft" unicode="&#xab;" horiz-adv-x="632" 
d="M331 292l184 179q26 26 49 26q21 0 33.5 -12t12.5 -33q0 -24 -18 -38l-163 -158l68 -138q8 -16 8 -32q0 -21 -15 -35t-36 -14q-34 0 -49 31l-78 155q-12 29 -12 36q0 17 16 33zM74 292l184 179q28 26 49 26t33.5 -12t12.5 -33q0 -23 -17 -38l-164 -158l68 -138
q8 -16 8 -32q0 -21 -15 -35t-36 -14q-33 0 -48 31l-78 155q-13 26 -13 36q0 17 16 33z" />
    <glyph glyph-name="registered" unicode="&#xae;" horiz-adv-x="410" 
d="M283 374q-76 0 -128.5 53.5t-52.5 127.5v1q0 75 53 128.5t128 53.5q76 0 128.5 -53t52.5 -128v-1q0 -74 -53 -128t-128 -54zM283 394q68 0 114 47.5t46 114.5v1q0 67 -46 114.5t-114 47.5q-67 0 -113.5 -48t-46.5 -115v-1q0 -67 46 -114t114 -47zM208 485v146q0 9 6.5 16
t16.5 7h65q34 0 55 -16t21 -46q0 -42 -39 -57l30 -35q6 -7 6 -17q0 -9 -6.5 -15t-15.5 -6q-11 0 -19 10l-44 54h-31v-41q0 -10 -6.5 -16.5t-15.5 -6.5q-10 0 -16.5 6.5t-6.5 16.5zM253 562h40q33 0 33 27q0 26 -33 26h-40v-53z" />
    <glyph glyph-name="macron" unicode="&#xaf;" 
d="M511 632h-276q-18 0 -31.5 13t-13.5 31t13.5 31t31.5 13h276q18 0 31 -13t13 -31q0 -19 -13 -31.5t-31 -12.5z" />
    <glyph glyph-name="degree" unicode="&#xb0;" horiz-adv-x="444" 
d="M251 395q-69 0 -111.5 42.5t-42.5 107.5q0 76 55.5 133.5t133.5 57.5q70 0 112.5 -42.5t42.5 -107.5q0 -76 -56 -133.5t-134 -57.5zM255 463q45 0 77 37t32 82q0 39 -22.5 62.5t-59.5 23.5q-45 0 -77 -37t-32 -82q0 -39 22.5 -62.5t59.5 -23.5z" />
    <glyph glyph-name="plusminus" unicode="&#xb1;" horiz-adv-x="668" 
d="M419 387l-36 -137q-16 -58 -62 -58q-28 0 -40.5 19t-3.5 53l33 123h-133q-22 0 -37 15.5t-15 37.5t15 37.5t37 15.5h162l36 136q16 58 62 58q28 0 40 -19t3 -53l-32 -122h132q22 0 37.5 -15.5t15.5 -37.5t-15.5 -37.5t-37.5 -15.5h-161zM477 0h-404q-22 0 -37 15t-15 36
q0 22 15 37t37 15h404q21 0 36 -15t15 -37q0 -21 -15 -36t-36 -15z" />
    <glyph glyph-name="acute" unicode="&#xb4;" 
d="M461 708l-90 -67q-37 -27 -74 -27q-33 0 -33 22q0 12 10 23l84 92q28 28 49 28q25 0 49 -13.5t24 -28.5t-19 -29z" />
    <glyph glyph-name="paragraph" unicode="&#xb6;" horiz-adv-x="592" 
d="M597 665l-163 -610q-17 -61 -69 -61q-31 0 -45.5 21.5t-4.5 57.5l44 166q-121 4 -189.5 56t-68.5 154q0 126 92.5 202.5t264.5 76.5h89q28 0 42.5 -18.5t7.5 -44.5z" />
    <glyph glyph-name="periodcentered" unicode="&#xb7;" horiz-adv-x="310" 
d="M235 326l-4 -18q-5 -29 -26.5 -47t-52.5 -18t-48.5 19t-12.5 48l4 17q6 30 27.5 48t51.5 18q32 0 49 -19.5t12 -47.5z" />
    <glyph glyph-name="cedilla" unicode="&#xb8;" 
d="M281 10l-105 -149q-17 -26 -42 -26q-19 0 -37.5 13.5t-18.5 29.5q0 15 14 30l98 102h91z" />
    <glyph glyph-name="ordmasculine" unicode="&#xba;" horiz-adv-x="424" 
d="M260 418q-65 0 -104 39t-39 100q0 70 51.5 123t124.5 53q65 0 104 -39t39 -100q0 -70 -51.5 -123t-124.5 -53zM264 479q43 0 72 34.5t29 78.5q0 35 -20.5 57.5t-54.5 22.5q-43 0 -72.5 -34.5t-29.5 -77.5q0 -36 21 -58.5t55 -22.5zM90 294q-13 0 -21.5 8.5t-8.5 20.5
q0 13 8.5 21.5t21.5 8.5h244q13 0 21.5 -8.5t8.5 -21.5q0 -12 -8.5 -20.5t-21.5 -8.5h-244z" />
    <glyph glyph-name="guillemotright" unicode="&#xbb;" horiz-adv-x="632" 
d="M299 249l-184 -180q-28 -26 -49 -26t-33.5 12.5t-12.5 33.5q0 23 17 38l164 158l-68 137q-9 18 -9 33q0 21 15.5 35t36.5 14q32 0 48 -31l78 -156q13 -24 13 -35q0 -17 -16 -33zM556 249l-184 -180q-28 -26 -49 -26t-33.5 12.5t-12.5 33.5q0 23 17 38l163 158l-68 137
q-8 19 -8 33q0 21 15.5 35t36.5 14q33 0 48 -31l78 -156q13 -24 13 -35q0 -17 -16 -33z" />
    <glyph glyph-name="questiondown" unicode="&#xbf;" horiz-adv-x="572" 
d="M494 649q-6 -30 -28 -48t-52 -18q-31 0 -48.5 19.5t-12.5 48.5l5 18q5 29 27 47t52 18q31 0 48.5 -19.5t12.5 -48.5zM416 151q26 15 43 15q21 0 35.5 -15t14.5 -34q0 -30 -26 -50q-95 -76 -219 -76q-102 0 -163 53.5t-61 132.5q0 94 71 153t198 78l22 59q15 39 49 39h6
q18 0 27.5 -11.5t6.5 -31.5l-15 -97q-4 -37 -52 -44q-84 -10 -134.5 -43.5t-50.5 -87.5q0 -42 29.5 -65.5t81.5 -23.5q66 0 137 49z" />
    <glyph glyph-name="Agrave" unicode="&#xc0;" horiz-adv-x="797" 
d="M482 820l-53 69q-12 15 -12 27q0 15 23 28.5t48 13.5q34 0 46 -31l33 -89q4 -9 4 -19q0 -25 -37 -25q-19 0 -29.5 5t-22.5 21zM599 680l109 -594q4 -22 4 -33q0 -24 -18 -41.5t-44 -17.5q-52 0 -61 51l-22 132h-360l-102 -143q-29 -40 -63 -40q-23 0 -37 13.5t-14 35.5
q0 20 15 40l435 605q34 50 87 50h3q56 0 68 -58zM283 287h265l-52 303z" />
    <glyph glyph-name="Aacute" unicode="&#xc1;" horiz-adv-x="797" 
d="M721 888l-90 -67q-37 -27 -74 -27q-33 0 -33 22q0 12 10 23l84 92q28 28 49 28q25 0 49 -13.5t24 -28.5t-19 -29zM599 680l109 -594q4 -22 4 -33q0 -24 -18 -41.5t-44 -17.5q-52 0 -61 51l-22 132h-360l-102 -143q-29 -40 -63 -40q-23 0 -37 13.5t-14 35.5q0 20 15 40
l435 605q34 50 87 50h3q56 0 68 -58zM283 287h265l-52 303z" />
    <glyph glyph-name="Acircumflex" unicode="&#xc2;" horiz-adv-x="797" 
d="M656 922l43 -82q11 -22 11 -26q0 -20 -29 -20q-24 0 -39.5 4.5t-31.5 22.5l-40 47l-68 -47q-39 -27 -77 -27q-26 0 -26 19q0 11 14 27l90 84q28 30 64 30h32q39 0 57 -32zM599 680l109 -594q4 -22 4 -33q0 -24 -18 -41.5t-44 -17.5q-52 0 -61 51l-22 132h-360l-102 -143
q-29 -40 -63 -40q-23 0 -37 13.5t-14 35.5q0 20 15 40l435 605q34 50 87 50h3q56 0 68 -58zM283 287h265l-52 303z" />
    <glyph glyph-name="Atilde" unicode="&#xc3;" horiz-adv-x="797" 
d="M406 795q-15 0 -25.5 9.5t-10.5 24.5q0 13 8 27q54 95 126 95q36 0 78 -33q35 -28 53 -28q28 0 55 39q18 21 38 21q15 0 25.5 -9.5t10.5 -24.5q0 -13 -8 -27q-54 -95 -126 -95q-37 0 -77 33q-36 28 -54 28q-28 0 -55 -39q-18 -21 -38 -21zM599 680l109 -594q4 -22 4 -33
q0 -24 -18 -41.5t-44 -17.5q-52 0 -61 51l-22 132h-360l-102 -143q-29 -40 -63 -40q-23 0 -37 13.5t-14 35.5q0 20 15 40l435 605q34 50 87 50h3q56 0 68 -58zM283 287h265l-52 303z" />
    <glyph glyph-name="Adieresis" unicode="&#xc4;" horiz-adv-x="797" 
d="M731 851q-6 -27 -26.5 -42.5t-48.5 -15.5q-30 0 -46 17t-9 43l4 15q6 27 26.5 42.5t48.5 15.5t44 -17.5t11 -42.5zM527 851q-6 -27 -26.5 -42.5t-48.5 -15.5q-30 0 -46 17t-9 43l4 15q6 27 26.5 42.5t48.5 15.5t44 -17.5t11 -42.5zM599 680l109 -594q4 -22 4 -33
q0 -24 -18 -41.5t-44 -17.5q-52 0 -61 51l-22 132h-360l-102 -143q-29 -40 -63 -40q-23 0 -37 13.5t-14 35.5q0 20 15 40l435 605q34 50 87 50h3q56 0 68 -58zM283 287h265l-52 303z" />
    <glyph glyph-name="Aring" unicode="&#xc5;" horiz-adv-x="797" 
d="M42 -6q-23 0 -37 13.5t-14 35.5q0 20 15 40l455 632q-35 26 -35 75q0 52 37.5 89.5t91.5 37.5q49 0 79 -28.5t30 -71.5q0 -35 -19.5 -65.5t-50.5 -45.5l114 -620q4 -22 4 -33q0 -24 -18 -41.5t-44 -17.5q-52 0 -61 51l-22 132h-360l-102 -143q-29 -40 -63 -40zM536 738
q31 0 51.5 23.5t20.5 54.5q0 23 -14.5 37.5t-40.5 14.5q-31 0 -51 -23t-20 -55q0 -22 14.5 -37t39.5 -15zM283 287h265l-52 303z" />
    <glyph glyph-name="AE" unicode="&#xc6;" horiz-adv-x="1114" 
d="M323 287h210l89 334h-22zM602 728h500q22 0 38.5 -16t16.5 -39t-16 -39t-39 -16h-358l-53 -197h282q23 0 39 -16t16 -39q0 -22 -16 -38t-39 -16h-311l-55 -202h334q23 0 39.5 -16t16.5 -39t-16.5 -39t-39.5 -16h-415q-31 0 -45.5 21t-4.5 56l27 100h-269l-121 -145
q-30 -38 -61 -38q-22 0 -35 12.5t-13 32.5q0 25 19 48l495 594q40 47 84 47z" />
    <glyph glyph-name="Ccedilla" unicode="&#xc7;" horiz-adv-x="769" 
d="M315 -139q-17 -26 -42 -26q-19 0 -37.5 13.5t-18.5 29.5q0 15 14 30l86 90q-105 25 -169 104.5t-64 194.5t58.5 217t160.5 164t221 62q153 0 244 -103q24 -26 24 -52t-18 -44.5t-45 -18.5q-26 0 -44 19q-33 42 -72.5 64t-102.5 22q-120 0 -209 -98t-89 -228
q0 -90 56 -145t145 -55q53 0 90 15t81 49q24 15 42 15q24 0 40 -17t16 -41q0 -28 -22 -46q-101 -89 -249 -89h-7z" />
    <glyph glyph-name="Egrave" unicode="&#xc8;" horiz-adv-x="696" 
d="M435 810l-53 69q-12 15 -12 27q0 15 23 28.5t48 13.5q34 0 46 -31l33 -89q4 -9 4 -19q0 -25 -37 -25q-19 0 -29.5 5t-22.5 21zM529 0h-432q-31 0 -45.5 21t-4.5 56l158 589q7 29 26 45.5t43 16.5h415q23 0 39.5 -16t16.5 -39t-16.5 -39t-39.5 -16h-375l-52 -197h298
q23 0 39.5 -16t16.5 -39q0 -22 -16.5 -38t-39.5 -16h-328l-54 -202h351q23 0 39 -16t16 -39t-16 -39t-39 -16z" />
    <glyph glyph-name="Eacute" unicode="&#xc9;" horiz-adv-x="696" 
d="M673 878l-90 -67q-37 -27 -74 -27q-33 0 -33 22q0 12 10 23l84 92q28 28 49 28q25 0 49 -13.5t24 -28.5t-19 -29zM529 0h-432q-31 0 -45.5 21t-4.5 56l158 589q7 29 26 45.5t43 16.5h415q23 0 39.5 -16t16.5 -39t-16.5 -39t-39.5 -16h-375l-52 -197h298q23 0 39.5 -16
t16.5 -39q0 -22 -16.5 -38t-39.5 -16h-328l-54 -202h351q23 0 39 -16t16 -39t-16 -39t-39 -16z" />
    <glyph glyph-name="Ecircumflex" unicode="&#xca;" horiz-adv-x="696" 
d="M607 912l43 -82q11 -22 11 -26q0 -20 -29 -20q-24 0 -39.5 4.5t-31.5 22.5l-40 47l-68 -47q-39 -27 -77 -27q-26 0 -26 19q0 11 14 27l90 84q28 30 64 30h32q39 0 57 -32zM529 0h-432q-31 0 -45.5 21t-4.5 56l158 589q7 29 26 45.5t43 16.5h415q23 0 39.5 -16t16.5 -39
t-16.5 -39t-39.5 -16h-375l-52 -197h298q23 0 39.5 -16t16.5 -39q0 -22 -16.5 -38t-39.5 -16h-328l-54 -202h351q23 0 39 -16t16 -39t-16 -39t-39 -16z" />
    <glyph glyph-name="Edieresis" unicode="&#xcb;" horiz-adv-x="696" 
d="M683 841q-6 -27 -26.5 -42.5t-48.5 -15.5q-30 0 -46 17t-9 43l4 15q6 27 26.5 42.5t48.5 15.5t44 -17.5t11 -42.5zM479 841q-6 -27 -26.5 -42.5t-48.5 -15.5q-30 0 -46 17t-9 43l4 15q6 27 26.5 42.5t48.5 15.5t44 -17.5t11 -42.5zM529 0h-432q-31 0 -45.5 21t-4.5 56
l158 589q7 29 26 45.5t43 16.5h415q23 0 39.5 -16t16.5 -39t-16.5 -39t-39.5 -16h-375l-52 -197h298q23 0 39.5 -16t16.5 -39q0 -22 -16.5 -38t-39.5 -16h-328l-54 -202h351q23 0 39 -16t16 -39t-16 -39t-39 -16z" />
    <glyph glyph-name="Igrave" unicode="&#xcc;" horiz-adv-x="337" 
d="M239 810l-53 69q-12 15 -12 27q0 15 23 28.5t48 13.5q34 0 46 -31l33 -89q4 -9 4 -19q0 -25 -37 -25q-19 0 -29.5 5t-22.5 21zM333 655l-162 -600q-16 -61 -68 -61q-31 0 -45.5 21.5t-4.5 57.5l161 600q17 61 69 61q30 0 44.5 -21.5t5.5 -57.5z" />
    <glyph glyph-name="Iacute" unicode="&#xcd;" horiz-adv-x="337" 
d="M478 878l-90 -67q-37 -27 -74 -27q-33 0 -33 22q0 12 10 23l84 92q28 28 49 28q25 0 49 -13.5t24 -28.5t-19 -29zM333 655l-162 -600q-16 -61 -68 -61q-31 0 -45.5 21.5t-4.5 57.5l161 600q17 61 69 61q30 0 44.5 -21.5t5.5 -57.5z" />
    <glyph glyph-name="Icircumflex" unicode="&#xce;" horiz-adv-x="337" 
d="M412 912l43 -82q11 -22 11 -26q0 -20 -29 -20q-24 0 -39.5 4.5t-31.5 22.5l-40 47l-68 -47q-39 -27 -77 -27q-26 0 -26 19q0 11 14 27l90 84q28 30 64 30h32q39 0 57 -32zM333 655l-162 -600q-16 -61 -68 -61q-31 0 -45.5 21.5t-4.5 57.5l161 600q17 61 69 61
q30 0 44.5 -21.5t5.5 -57.5z" />
    <glyph glyph-name="Idieresis" unicode="&#xcf;" horiz-adv-x="337" 
d="M488 841q-6 -27 -26.5 -42.5t-48.5 -15.5q-30 0 -46 17t-9 43l4 15q6 27 26.5 42.5t48.5 15.5t44 -17.5t11 -42.5zM284 841q-6 -27 -26.5 -42.5t-48.5 -15.5q-30 0 -46 17t-9 43l4 15q6 27 26.5 42.5t48.5 15.5t44 -17.5t11 -42.5zM333 655l-162 -600q-16 -61 -68 -61
q-31 0 -45.5 21.5t-4.5 57.5l161 600q17 61 69 61q30 0 44.5 -21.5t5.5 -57.5z" />
    <glyph glyph-name="Eth" unicode="&#xd0;" horiz-adv-x="840" 
d="M310 0h-189q-30 0 -44.5 21t-5.5 56l63 234h-19q-23 0 -39 16t-16 39t16 39t39 16h48l66 245q8 29 26.5 45.5t42.5 16.5h143q191 0 284 -95q80 -80 80 -211q0 -168 -118 -286q-136 -136 -377 -136zM203 111h121q170 0 272 102q81 81 81 203q0 88 -51 137q-64 64 -194 64
h-93l-53 -196h117q23 0 38.5 -16t15.5 -39t-16 -39t-38 -16h-146z" />
    <glyph glyph-name="Ntilde" unicode="&#xd1;" horiz-adv-x="827" 
d="M408 785q-15 0 -25.5 9.5t-10.5 24.5q0 13 8 27q54 95 126 95q36 0 78 -33q35 -28 53 -28q28 0 55 39q18 21 38 21q15 0 25.5 -9.5t10.5 -24.5q0 -13 -8 -27q-54 -95 -126 -95q-37 0 -77 33q-36 28 -54 28q-28 0 -55 -39q-18 -21 -38 -21zM588 204l126 469q17 61 68 61
q30 0 44 -21.5t4 -57.5l-162 -602q-14 -57 -64 -57h-3q-47 0 -69 47l-241 495l-129 -483q-16 -61 -67 -61q-31 0 -45 21.5t-4 57.5l160 597q16 62 72 62h6q50 0 73 -51z" />
    <glyph glyph-name="Ograve" unicode="&#xd2;" horiz-adv-x="880" 
d="M504 820l-53 69q-12 15 -12 27q0 15 23 28.5t48 13.5q34 0 46 -31l33 -89q4 -9 4 -19q0 -25 -37 -25q-19 0 -29.5 5t-22.5 21zM411 -13q-144 0 -235 91t-91 228q0 82 32.5 161t89 139t138 97t172.5 37q144 0 235 -91t91 -228q0 -82 -32.5 -161t-89 -139t-138 -97
t-172.5 -37zM424 100q123 0 207 97.5t84 217.5q0 93 -57 152.5t-154 59.5q-123 0 -207 -97t-84 -217q0 -94 57 -153.5t154 -59.5z" />
    <glyph glyph-name="Oacute" unicode="&#xd3;" horiz-adv-x="880" 
d="M742 888l-90 -67q-37 -27 -74 -27q-33 0 -33 22q0 12 10 23l84 92q28 28 49 28q25 0 49 -13.5t24 -28.5t-19 -29zM411 -13q-144 0 -235 91t-91 228q0 82 32.5 161t89 139t138 97t172.5 37q144 0 235 -91t91 -228q0 -82 -32.5 -161t-89 -139t-138 -97t-172.5 -37zM424 100
q123 0 207 97.5t84 217.5q0 93 -57 152.5t-154 59.5q-123 0 -207 -97t-84 -217q0 -94 57 -153.5t154 -59.5z" />
    <glyph glyph-name="Ocircumflex" unicode="&#xd4;" horiz-adv-x="880" 
d="M676 922l43 -82q11 -22 11 -26q0 -20 -29 -20q-24 0 -39.5 4.5t-31.5 22.5l-40 47l-68 -47q-39 -27 -77 -27q-26 0 -26 19q0 11 14 27l90 84q28 30 64 30h32q39 0 57 -32zM411 -13q-144 0 -235 91t-91 228q0 82 32.5 161t89 139t138 97t172.5 37q144 0 235 -91t91 -228
q0 -82 -32.5 -161t-89 -139t-138 -97t-172.5 -37zM424 100q123 0 207 97.5t84 217.5q0 93 -57 152.5t-154 59.5q-123 0 -207 -97t-84 -217q0 -94 57 -153.5t154 -59.5z" />
    <glyph glyph-name="Otilde" unicode="&#xd5;" horiz-adv-x="880" 
d="M427 795q-15 0 -25.5 9.5t-10.5 24.5q0 13 8 27q54 95 126 95q36 0 78 -33q35 -28 53 -28q28 0 55 39q17 21 38 21q15 0 25.5 -9.5t10.5 -24.5q0 -13 -8 -27q-54 -95 -126 -95q-37 0 -77 33q-36 28 -54 28q-28 0 -55 -39q-17 -21 -38 -21zM411 -13q-144 0 -235 91
t-91 228q0 82 32.5 161t89 139t138 97t172.5 37q144 0 235 -91t91 -228q0 -82 -32.5 -161t-89 -139t-138 -97t-172.5 -37zM424 100q123 0 207 97.5t84 217.5q0 93 -57 152.5t-154 59.5q-123 0 -207 -97t-84 -217q0 -94 57 -153.5t154 -59.5z" />
    <glyph glyph-name="Odieresis" unicode="&#xd6;" horiz-adv-x="880" 
d="M752 851q-6 -27 -26.5 -42.5t-48.5 -15.5q-30 0 -46 17t-9 43l4 15q6 27 26.5 42.5t48.5 15.5t44 -17.5t11 -42.5zM548 851q-6 -27 -26.5 -42.5t-48.5 -15.5q-30 0 -46 17t-9 43l4 15q6 27 26.5 42.5t48.5 15.5t44 -17.5t11 -42.5zM411 -13q-144 0 -235 91t-91 228
q0 82 32.5 161t89 139t138 97t172.5 37q144 0 235 -91t91 -228q0 -82 -32.5 -161t-89 -139t-138 -97t-172.5 -37zM424 100q123 0 207 97.5t84 217.5q0 93 -57 152.5t-154 59.5q-123 0 -207 -97t-84 -217q0 -94 57 -153.5t154 -59.5z" />
    <glyph glyph-name="multiply" unicode="&#xd7;" horiz-adv-x="668" 
d="M435 359l97 -129q13 -20 13 -37q0 -23 -16.5 -39.5t-40.5 -16.5q-30 0 -47 25l-92 130l-178 -142q-16 -13 -35 -13q-21 0 -36.5 15.5t-15.5 37.5q0 25 23 43l180 141l-96 129q-13 16 -13 37q0 23 16.5 39.5t40.5 16.5q29 0 47 -25l92 -131l178 143q13 12 34 12
q22 0 37 -15t15 -37q0 -27 -22 -43z" />
    <glyph glyph-name="Oslash" unicode="&#xd8;" horiz-adv-x="880" 
d="M182 73l-77 -64q-22 -20 -42 -20q-17 0 -27.5 10.5t-10.5 25.5q0 19 25 42l81 68q-46 75 -46 171q0 82 32.5 161t89 139t138 97t172.5 37q141 0 232 -88l80 67q22 20 42 20q17 0 27.5 -10.5t10.5 -25.5q0 -19 -25 -42l-85 -73q44 -75 44 -167q0 -82 -32.5 -161t-89 -139
t-138 -97t-172.5 -37q-137 0 -229 86zM209 313q0 -58 20 -99l428 360q-58 58 -153 58q-123 0 -209 -99.5t-86 -219.5zM424 96q123 0 209 99.5t86 219.5q0 52 -19 93l-426 -357q55 -55 150 -55z" />
    <glyph glyph-name="Ugrave" unicode="&#xd9;" horiz-adv-x="802" 
d="M464 810l-53 69q-12 15 -12 27q0 15 23 28.5t48 13.5q34 0 46 -31l33 -89q4 -9 4 -19q0 -25 -37 -25q-19 0 -29.5 5t-22.5 21zM812 655l-97 -361q-37 -138 -114 -215q-89 -90 -237 -90q-127 0 -198 64t-71 175q0 53 16 115l88 330q17 61 69 61q30 0 44.5 -21.5t5.5 -57.5
l-89 -330q-10 -48 -10 -80q0 -65 40.5 -104t116.5 -39q81 0 139 56q54 52 82 155l96 360q17 61 69 61q30 0 44.5 -21.5t5.5 -57.5z" />
    <glyph glyph-name="Uacute" unicode="&#xda;" horiz-adv-x="802" 
d="M702 878l-90 -67q-37 -27 -74 -27q-33 0 -33 22q0 12 10 23l84 92q28 28 49 28q25 0 49 -13.5t24 -28.5t-19 -29zM812 655l-97 -361q-37 -138 -114 -215q-89 -90 -237 -90q-127 0 -198 64t-71 175q0 53 16 115l88 330q17 61 69 61q30 0 44.5 -21.5t5.5 -57.5l-89 -330
q-10 -48 -10 -80q0 -65 40.5 -104t116.5 -39q81 0 139 56q54 52 82 155l96 360q17 61 69 61q30 0 44.5 -21.5t5.5 -57.5z" />
    <glyph glyph-name="Ucircumflex" unicode="&#xdb;" horiz-adv-x="802" 
d="M636 912l43 -82q11 -22 11 -26q0 -20 -29 -20q-24 0 -39.5 4.5t-31.5 22.5l-40 47l-68 -47q-39 -27 -77 -27q-26 0 -26 19q0 11 14 27l90 84q28 30 64 30h32q39 0 57 -32zM812 655l-97 -361q-37 -138 -114 -215q-89 -90 -237 -90q-127 0 -198 64t-71 175q0 53 16 115
l88 330q17 61 69 61q30 0 44.5 -21.5t5.5 -57.5l-89 -330q-10 -48 -10 -80q0 -65 40.5 -104t116.5 -39q81 0 139 56q54 52 82 155l96 360q17 61 69 61q30 0 44.5 -21.5t5.5 -57.5z" />
    <glyph glyph-name="Udieresis" unicode="&#xdc;" horiz-adv-x="802" 
d="M712 841q-6 -27 -26.5 -42.5t-48.5 -15.5q-30 0 -46 17t-9 43l4 15q6 27 26.5 42.5t48.5 15.5t44 -17.5t11 -42.5zM508 841q-6 -27 -26.5 -42.5t-48.5 -15.5q-30 0 -46 17t-9 43l4 15q6 27 26.5 42.5t48.5 15.5t44 -17.5t11 -42.5zM812 655l-97 -361q-37 -138 -114 -215
q-89 -90 -237 -90q-127 0 -198 64t-71 175q0 53 16 115l88 330q17 61 69 61q30 0 44.5 -21.5t5.5 -57.5l-89 -330q-10 -48 -10 -80q0 -65 40.5 -104t116.5 -39q81 0 139 56q54 52 82 155l96 360q17 61 69 61q30 0 44.5 -21.5t5.5 -57.5z" />
    <glyph glyph-name="Yacute" unicode="&#xdd;" horiz-adv-x="693" 
d="M641 878l-90 -67q-37 -27 -74 -27q-33 0 -33 22q0 12 10 23l84 92q28 28 49 28q25 0 49 -13.5t24 -28.5t-19 -29zM400 272l-58 -217q-16 -61 -68 -61q-31 0 -45.5 21.5t-4.5 57.5l57 213l-146 343q-11 26 -11 46q0 25 18 42t47 17q43 0 60 -49l116 -293l287 307
q33 35 66 35q24 0 38 -13.5t14 -36.5q0 -28 -22 -50z" />
    <glyph glyph-name="Thorn" unicode="&#xde;" horiz-adv-x="719" 
d="M421 613q148 0 219 -71q53 -55 53 -143q0 -129 -98.5 -202t-256.5 -73h-155l-19 -69q-16 -61 -68 -61q-31 0 -45.5 21.5t-4.5 57.5l161 600q16 61 68 61q31 0 45.5 -21.5t4.5 -57.5l-11 -42h107zM212 232h132q103 0 162.5 41.5t59.5 116.5q0 42 -29 73q-40 38 -121 38
h-132z" />
    <glyph glyph-name="germandbls" unicode="&#xdf;" horiz-adv-x="663" 
d="M376 422q148 43 148 147q0 43 -28.5 68.5t-74.5 25.5q-112 0 -152 -152l-122 -456q-16 -61 -67 -61q-30 0 -44 21.5t-4 56.5l120 450q30 112 91 172q70 72 182 72q98 0 156.5 -52.5t58.5 -133.5q0 -151 -181 -206q128 -44 128 -153q0 -97 -81 -160.5t-207 -63.5
q-53 0 -53 49q0 19 12 32.5t32 14.5q94 6 137.5 42t43.5 89q0 68 -95 97q-21 9 -31.5 19.5t-10.5 29.5q0 38 42 52z" />
    <glyph glyph-name="agrave" unicode="&#xe0;" horiz-adv-x="615" 
d="M320 640l-53 69q-12 15 -12 27q0 15 23 28.5t48 13.5q34 0 46 -31l33 -89q4 -9 4 -19q0 -25 -37 -25q-19 0 -29.5 5t-22.5 21zM232 76q58 0 107.5 38.5t66.5 95.5l7 26q-68 22 -138 22q-60 0 -98 -29t-38 -77q0 -34 25.5 -55t67.5 -21zM412 -6q-31 0 -42.5 17t-8.5 40
l6 23q-77 -85 -183 -85q-71 0 -118.5 41t-47.5 108q0 92 67.5 145t172.5 53q85 0 173 -27l3 10q7 24 7 46q0 86 -125 86q-57 0 -109 -16q-2 0 -10.5 -1.5t-11.5 -1.5q-20 0 -34 14t-14 35q0 36 38 48q78 26 165 26q106 0 162 -44.5t56 -124.5q0 -30 -11 -80l-68 -251
q-16 -61 -67 -61z" />
    <glyph glyph-name="aacute" unicode="&#xe1;" horiz-adv-x="615" 
d="M559 708l-90 -67q-37 -27 -74 -27q-33 0 -33 22q0 12 10 23l84 92q28 28 49 28q25 0 49 -13.5t24 -28.5t-19 -29zM232 76q58 0 107.5 38.5t66.5 95.5l7 26q-68 22 -138 22q-60 0 -98 -29t-38 -77q0 -34 25.5 -55t67.5 -21zM412 -6q-31 0 -42.5 17t-8.5 40l6 23
q-77 -85 -183 -85q-71 0 -118.5 41t-47.5 108q0 92 67.5 145t172.5 53q85 0 173 -27l3 10q7 24 7 46q0 86 -125 86q-57 0 -109 -16q-2 0 -10.5 -1.5t-11.5 -1.5q-20 0 -34 14t-14 35q0 36 38 48q78 26 165 26q106 0 162 -44.5t56 -124.5q0 -30 -11 -80l-68 -251
q-16 -61 -67 -61z" />
    <glyph glyph-name="acircumflex" unicode="&#xe2;" horiz-adv-x="615" 
d="M493 742l43 -82q11 -22 11 -26q0 -20 -29 -20q-24 0 -39.5 4.5t-31.5 22.5l-40 47l-68 -47q-39 -27 -77 -27q-26 0 -26 19q0 11 14 27l90 84q28 30 64 30h32q39 0 57 -32zM232 76q58 0 107.5 38.5t66.5 95.5l7 26q-68 22 -138 22q-60 0 -98 -29t-38 -77q0 -34 25.5 -55
t67.5 -21zM412 -6q-31 0 -42.5 17t-8.5 40l6 23q-77 -85 -183 -85q-71 0 -118.5 41t-47.5 108q0 92 67.5 145t172.5 53q85 0 173 -27l3 10q7 24 7 46q0 86 -125 86q-57 0 -109 -16q-2 0 -10.5 -1.5t-11.5 -1.5q-20 0 -34 14t-14 35q0 36 38 48q78 26 165 26q106 0 162 -44.5
t56 -124.5q0 -30 -11 -80l-68 -251q-16 -61 -67 -61z" />
    <glyph glyph-name="atilde" unicode="&#xe3;" horiz-adv-x="615" 
d="M244 615q-15 0 -25.5 9.5t-10.5 24.5q0 13 8 27q54 95 126 95q36 0 78 -33q35 -28 53 -28q28 0 55 39q18 21 38 21q15 0 25.5 -9.5t10.5 -24.5q0 -13 -8 -27q-54 -95 -126 -95q-37 0 -77 33q-36 28 -54 28q-28 0 -55 -39q-18 -21 -38 -21zM232 76q58 0 107.5 38.5
t66.5 95.5l7 26q-68 22 -138 22q-60 0 -98 -29t-38 -77q0 -34 25.5 -55t67.5 -21zM412 -6q-31 0 -42.5 17t-8.5 40l6 23q-77 -85 -183 -85q-71 0 -118.5 41t-47.5 108q0 92 67.5 145t172.5 53q85 0 173 -27l3 10q7 24 7 46q0 86 -125 86q-57 0 -109 -16q-2 0 -10.5 -1.5
t-11.5 -1.5q-20 0 -34 14t-14 35q0 36 38 48q78 26 165 26q106 0 162 -44.5t56 -124.5q0 -30 -11 -80l-68 -251q-16 -61 -67 -61z" />
    <glyph glyph-name="adieresis" unicode="&#xe4;" horiz-adv-x="615" 
d="M568 671q-6 -27 -26.5 -42.5t-48.5 -15.5q-30 0 -46 17t-9 43l4 15q6 27 26.5 42.5t48.5 15.5t44 -17.5t11 -42.5zM364 671q-6 -27 -26.5 -42.5t-48.5 -15.5q-30 0 -46 17t-9 43l4 15q6 27 26.5 42.5t48.5 15.5t44 -17.5t11 -42.5zM232 76q58 0 107.5 38.5t66.5 95.5
l7 26q-68 22 -138 22q-60 0 -98 -29t-38 -77q0 -34 25.5 -55t67.5 -21zM412 -6q-31 0 -42.5 17t-8.5 40l6 23q-77 -85 -183 -85q-71 0 -118.5 41t-47.5 108q0 92 67.5 145t172.5 53q85 0 173 -27l3 10q7 24 7 46q0 86 -125 86q-57 0 -109 -16q-2 0 -10.5 -1.5t-11.5 -1.5
q-20 0 -34 14t-14 35q0 36 38 48q78 26 165 26q106 0 162 -44.5t56 -124.5q0 -30 -11 -80l-68 -251q-16 -61 -67 -61z" />
    <glyph glyph-name="aring" unicode="&#xe5;" horiz-adv-x="615" 
d="M407 617q-49 0 -78.5 28.5t-29.5 72.5q0 52 38.5 89.5t91.5 37.5q49 0 78.5 -28.5t29.5 -71.5q0 -52 -38.5 -90t-91.5 -38zM409 666q31 0 51.5 23.5t20.5 54.5q0 23 -14 37.5t-40 14.5q-31 0 -51.5 -23t-20.5 -54q0 -23 14.5 -38t39.5 -15zM232 76q58 0 107.5 38.5
t66.5 95.5l7 26q-68 22 -138 22q-60 0 -98 -29t-38 -77q0 -34 25.5 -55t67.5 -21zM412 -6q-31 0 -42.5 17t-8.5 40l6 23q-77 -85 -183 -85q-71 0 -118.5 41t-47.5 108q0 92 67.5 145t172.5 53q85 0 173 -27l3 10q7 24 7 46q0 86 -125 86q-57 0 -109 -16q-2 0 -10.5 -1.5
t-11.5 -1.5q-20 0 -34 14t-14 35q0 36 38 48q78 26 165 26q106 0 162 -44.5t56 -124.5q0 -30 -11 -80l-68 -251q-16 -61 -67 -61z" />
    <glyph glyph-name="ae" unicode="&#xe6;" horiz-adv-x="997" 
d="M545 312h292q5 25 5 39q0 48 -28 78.5t-84 30.5q-64 0 -114 -41.5t-71 -106.5zM956 347q0 -35 -6 -61q-12 -54 -60 -54h-358v-12q2 -61 39.5 -97t104.5 -36q65 0 114 35q22 12 38 12q20 0 33.5 -13t13.5 -34q0 -25 -24 -42q-79 -57 -186 -57q-151 0 -212 115
q-109 -114 -255 -114q-83 0 -131.5 40.5t-48.5 110.5q0 91 68 143.5t173 52.5q86 0 172 -27l3 10q7 24 7 46q0 86 -125 86q-59 0 -109 -16q-2 0 -10.5 -1.5t-11.5 -1.5q-20 0 -34 14t-14 35q0 36 38 48q76 26 165 26q149 0 189 -98q90 102 213 102q100 0 157 -60t57 -152z
M276 258q-60 0 -98.5 -29t-38.5 -75q0 -36 26 -57t75 -21q48 0 98.5 24t92.5 67q-4 22 -6 49q0 2 0.5 7t0.5 8q-68 27 -150 27z" />
    <glyph glyph-name="ccedilla" unicode="&#xe7;" horiz-adv-x="593" 
d="M214 -139q-17 -26 -42 -26q-19 0 -37.5 13.5t-18.5 29.5q0 15 14 30l88 92q-75 23 -120.5 84t-45.5 147q0 134 95.5 231t226.5 97q122 0 191 -82q22 -22 22 -47q0 -23 -17 -39.5t-41 -16.5q-26 0 -42 19q-46 61 -122 61t-134.5 -67t-58.5 -155q0 -64 39 -102.5t95 -38.5
q60 0 118 43q18 14 37 14q21 0 35 -14.5t14 -35.5q0 -25 -19 -41q-83 -69 -187 -69z" />
    <glyph glyph-name="egrave" unicode="&#xe8;" horiz-adv-x="633" 
d="M337 640l-53 69q-12 15 -12 27q0 15 23 28.5t48 13.5q34 0 46 -31l33 -89q4 -9 4 -19q0 -25 -37 -25q-19 0 -29.5 5t-22.5 21zM311 87q66 0 115 35q20 12 38 12q20 0 33 -13t13 -34q0 -24 -23 -42q-79 -57 -188 -57q-113 0 -180.5 64.5t-67.5 173.5q0 128 92.5 230.5
t229.5 102.5q103 0 161 -60t58 -152q0 -31 -7 -61q-12 -54 -60 -54h-357q-1 -4 -1 -12q2 -61 39.5 -97t104.5 -36zM180 312h292q5 17 5 39q0 48 -28 78.5t-84 30.5q-64 0 -114 -41.5t-71 -106.5z" />
    <glyph glyph-name="eacute" unicode="&#xe9;" horiz-adv-x="633" 
d="M576 708l-90 -67q-37 -27 -74 -27q-33 0 -33 22q0 12 10 23l84 92q28 28 49 28q25 0 49 -13.5t24 -28.5t-19 -29zM311 87q66 0 115 35q20 12 38 12q20 0 33 -13t13 -34q0 -24 -23 -42q-79 -57 -188 -57q-113 0 -180.5 64.5t-67.5 173.5q0 128 92.5 230.5t229.5 102.5
q103 0 161 -60t58 -152q0 -31 -7 -61q-12 -54 -60 -54h-357q-1 -4 -1 -12q2 -61 39.5 -97t104.5 -36zM180 312h292q5 17 5 39q0 48 -28 78.5t-84 30.5q-64 0 -114 -41.5t-71 -106.5z" />
    <glyph glyph-name="ecircumflex" unicode="&#xea;" horiz-adv-x="633" 
d="M510 742l43 -82q11 -22 11 -26q0 -20 -29 -20q-24 0 -39.5 4.5t-31.5 22.5l-40 47l-68 -47q-39 -27 -77 -27q-26 0 -26 19q0 11 14 27l90 84q28 30 64 30h32q39 0 57 -32zM311 87q66 0 115 35q20 12 38 12q20 0 33 -13t13 -34q0 -24 -23 -42q-79 -57 -188 -57
q-113 0 -180.5 64.5t-67.5 173.5q0 128 92.5 230.5t229.5 102.5q103 0 161 -60t58 -152q0 -31 -7 -61q-12 -54 -60 -54h-357q-1 -4 -1 -12q2 -61 39.5 -97t104.5 -36zM180 312h292q5 17 5 39q0 48 -28 78.5t-84 30.5q-64 0 -114 -41.5t-71 -106.5z" />
    <glyph glyph-name="edieresis" unicode="&#xeb;" horiz-adv-x="633" 
d="M586 671q-6 -27 -26.5 -42.5t-48.5 -15.5q-30 0 -46 17t-9 43l4 15q6 27 26.5 42.5t48.5 15.5t44 -17.5t11 -42.5zM382 671q-6 -27 -26.5 -42.5t-48.5 -15.5q-30 0 -46 17t-9 43l4 15q6 27 26.5 42.5t48.5 15.5t44 -17.5t11 -42.5zM311 87q66 0 115 35q20 12 38 12
q20 0 33 -13t13 -34q0 -24 -23 -42q-79 -57 -188 -57q-113 0 -180.5 64.5t-67.5 173.5q0 128 92.5 230.5t229.5 102.5q103 0 161 -60t58 -152q0 -31 -7 -61q-12 -54 -60 -54h-357q-1 -4 -1 -12q2 -61 39.5 -97t104.5 -36zM180 312h292q5 17 5 39q0 48 -28 78.5t-84 30.5
q-64 0 -114 -41.5t-71 -106.5z" />
    <glyph glyph-name="igrave" unicode="&#xec;" horiz-adv-x="305" 
d="M178 640l-53 69q-12 15 -12 27q0 15 23 28.5t48 13.5q34 0 46 -31l33 -89q4 -9 4 -19q0 -25 -37 -25q-19 0 -29.5 5t-22.5 21zM267 476l-113 -421q-16 -61 -67 -61q-31 0 -45 21.5t-4 56.5l113 421q15 60 68 60q30 0 44 -21t4 -56z" />
    <glyph glyph-name="iacute" unicode="&#xed;" horiz-adv-x="305" 
d="M416 708l-90 -67q-37 -27 -74 -27q-33 0 -33 22q0 12 10 23l84 92q28 28 49 28q25 0 49 -13.5t24 -28.5t-19 -29zM267 476l-113 -421q-16 -61 -67 -61q-31 0 -45 21.5t-4 56.5l113 421q15 60 68 60q30 0 44 -21t4 -56z" />
    <glyph glyph-name="icircumflex" unicode="&#xee;" horiz-adv-x="305" 
d="M350 742l43 -82q11 -22 11 -26q0 -20 -29 -20q-24 0 -39.5 4.5t-31.5 22.5l-40 47l-68 -47q-39 -27 -77 -27q-26 0 -26 19q0 11 14 27l90 84q28 30 64 30h32q39 0 57 -32zM267 476l-113 -421q-16 -61 -67 -61q-31 0 -45 21.5t-4 56.5l113 421q15 60 68 60q30 0 44 -21
t4 -56z" />
    <glyph glyph-name="idieresis" unicode="&#xef;" horiz-adv-x="305" 
d="M427 671q-6 -27 -26.5 -42.5t-48.5 -15.5q-30 0 -46 17t-9 43l4 15q6 27 26.5 42.5t48.5 15.5t44 -17.5t11 -42.5zM223 671q-6 -27 -26.5 -42.5t-48.5 -15.5q-30 0 -46 17t-9 43l4 15q6 27 26.5 42.5t48.5 15.5t44 -17.5t11 -42.5zM267 476l-113 -421q-16 -61 -67 -61
q-31 0 -45 21.5t-4 56.5l113 421q15 60 68 60q30 0 44 -21t4 -56z" />
    <glyph glyph-name="eth" unicode="&#xf0;" horiz-adv-x="666" 
d="M297 -12q-110 0 -179.5 66t-69.5 170q0 116 83 198.5t196 82.5q92 0 158 -59l-75 168l-121 -47q-7 -3 -21 -3q-15 0 -24.5 9.5t-9.5 24.5q0 25 30 37l117 46l-3 6q-6 14 -6 27q0 22 16 37.5t39 15.5q38 0 52 -32l6 -14l101 40q7 3 21 3q15 0 24.5 -9.5t9.5 -24.5
q0 -27 -30 -37l-98 -39l52 -125q47 -110 47 -208q0 -139 -87 -236t-228 -97zM305 91q77 0 130.5 56t53.5 130q0 61 -39 100t-105 39q-75 0 -127.5 -55t-52.5 -130q0 -64 39 -102t101 -38z" />
    <glyph glyph-name="ntilde" unicode="&#xf1;" horiz-adv-x="651" 
d="M268 615q-15 0 -25.5 9.5t-10.5 24.5q0 13 8 27q54 95 126 95q36 0 78 -33q35 -28 53 -28q28 0 55 39q18 21 38 21q15 0 25.5 -9.5t10.5 -24.5q0 -13 -8 -27q-54 -95 -126 -95q-37 0 -77 33q-36 28 -54 28q-28 0 -55 -39q-18 -21 -38 -21zM213 553q26 0 40.5 -15
t12.5 -37l-6 -25q81 83 169 83q76 0 121.5 -44.5t45.5 -119.5q0 -33 -16 -95l-65 -245q-16 -61 -67 -61q-31 0 -45 21.5t-4 56.5l62 233q8 27 8 55q0 43 -25.5 66.5t-72.5 23.5q-54 0 -96.5 -39t-59.5 -103l-68 -253q-16 -61 -67 -61q-30 0 -44 21.5t-4 56.5l112 421
q15 60 69 60z" />
    <glyph glyph-name="ograve" unicode="&#xf2;" horiz-adv-x="681" 
d="M361 640l-53 69q-12 15 -12 27q0 15 23 28.5t48 13.5q34 0 46 -31l33 -89q4 -9 4 -19q0 -25 -37 -25q-19 0 -29.5 5t-22.5 21zM309 -12q-116 0 -186.5 70t-70.5 179q0 127 95 224.5t225 97.5q116 0 186.5 -70t70.5 -180q0 -127 -95.5 -224t-224.5 -97zM316 92
q79 0 136 67t57 147q0 69 -39.5 108.5t-104.5 39.5q-79 0 -136 -67t-57 -146q0 -70 39 -109.5t105 -39.5z" />
    <glyph glyph-name="oacute" unicode="&#xf3;" horiz-adv-x="681" 
d="M599 708l-90 -67q-37 -27 -74 -27q-33 0 -33 22q0 12 10 23l84 92q28 28 49 28q25 0 49 -13.5t24 -28.5t-19 -29zM309 -12q-116 0 -186.5 70t-70.5 179q0 127 95 224.5t225 97.5q116 0 186.5 -70t70.5 -180q0 -127 -95.5 -224t-224.5 -97zM316 92q79 0 136 67t57 147
q0 69 -39.5 108.5t-104.5 39.5q-79 0 -136 -67t-57 -146q0 -70 39 -109.5t105 -39.5z" />
    <glyph glyph-name="ocircumflex" unicode="&#xf4;" horiz-adv-x="681" 
d="M533 742l43 -82q11 -22 11 -26q0 -20 -29 -20q-24 0 -39.5 4.5t-31.5 22.5l-40 47l-68 -47q-39 -27 -77 -27q-26 0 -26 19q0 11 14 27l90 84q28 30 64 30h32q39 0 57 -32zM309 -12q-116 0 -186.5 70t-70.5 179q0 127 95 224.5t225 97.5q116 0 186.5 -70t70.5 -180
q0 -127 -95.5 -224t-224.5 -97zM316 92q79 0 136 67t57 147q0 69 -39.5 108.5t-104.5 39.5q-79 0 -136 -67t-57 -146q0 -70 39 -109.5t105 -39.5z" />
    <glyph glyph-name="otilde" unicode="&#xf5;" horiz-adv-x="681" 
d="M285 615q-15 0 -25.5 9.5t-10.5 24.5q0 13 8 27q54 95 126 95q36 0 78 -33q35 -28 53 -28q28 0 55 39q17 21 38 21q15 0 25.5 -9.5t10.5 -24.5q0 -13 -8 -27q-54 -95 -126 -95q-37 0 -77 33q-36 28 -54 28q-28 0 -55 -39q-17 -21 -38 -21zM309 -12q-116 0 -186.5 70
t-70.5 179q0 127 95 224.5t225 97.5q116 0 186.5 -70t70.5 -180q0 -127 -95.5 -224t-224.5 -97zM316 92q79 0 136 67t57 147q0 69 -39.5 108.5t-104.5 39.5q-79 0 -136 -67t-57 -146q0 -70 39 -109.5t105 -39.5z" />
    <glyph glyph-name="odieresis" unicode="&#xf6;" horiz-adv-x="681" 
d="M609 671q-6 -27 -26.5 -42.5t-48.5 -15.5q-30 0 -46 17t-9 43l4 15q6 27 26.5 42.5t48.5 15.5t44 -17.5t11 -42.5zM405 671q-6 -27 -26.5 -42.5t-48.5 -15.5q-30 0 -46 17t-9 43l4 15q6 27 26.5 42.5t48.5 15.5t44 -17.5t11 -42.5zM309 -12q-116 0 -186.5 70t-70.5 179
q0 127 95 224.5t225 97.5q116 0 186.5 -70t70.5 -180q0 -127 -95.5 -224t-224.5 -97zM316 92q79 0 136 67t57 147q0 69 -39.5 108.5t-104.5 39.5q-79 0 -136 -67t-57 -146q0 -70 39 -109.5t105 -39.5z" />
    <glyph glyph-name="divide" unicode="&#xf7;" horiz-adv-x="668" 
d="M485 583q-1 -30 -24.5 -51t-55.5 -21q-27 0 -44.5 17t-16.5 42l3 10q1 30 24.5 51t55.5 21q27 0 44.5 -17t16.5 -42zM570 314h-424q-21 0 -36.5 15.5t-15.5 36.5t15.5 36.5t36.5 15.5h424q22 0 37 -15.5t15 -36.5t-15 -36.5t-37 -15.5zM370 152q-1 -30 -24.5 -51
t-54.5 -21q-27 0 -44.5 17t-16.5 42l3 11q2 29 25 50t54 21q27 0 44.5 -17t16.5 -42z" />
    <glyph glyph-name="oslash" unicode="&#xf8;" horiz-adv-x="681" 
d="M141 43l-41 -36q-22 -18 -41 -18q-16 0 -26.5 10t-10.5 25q0 18 20 38l46 39q-36 57 -36 136q0 127 95 224.5t225 97.5q99 0 163 -53l41 36q21 17 41 17q16 0 26.5 -9.5t10.5 -24.5q0 -18 -20 -38l-44 -37q39 -62 39 -141q0 -127 -95.5 -224t-224.5 -97q-100 0 -168 55z
M169 241q0 -34 9 -59l278 248q-36 28 -91 28q-80 0 -138 -68t-58 -149zM316 89q79 0 137.5 67.5t58.5 149.5q0 31 -10 63l-281 -251q37 -29 95 -29z" />
    <glyph glyph-name="ugrave" unicode="&#xf9;" horiz-adv-x="652" 
d="M345 640l-53 69q-12 15 -12 27q0 15 23 28.5t48 13.5q34 0 46 -31l33 -89q4 -9 4 -19q0 -25 -37 -25q-19 0 -29.5 5t-22.5 21zM439 -6q-25 0 -39.5 15t-13.5 38l7 25q-83 -83 -169 -83q-77 0 -122.5 44.5t-45.5 119.5q0 33 16 95l65 245q15 60 68 60q30 0 44 -21t4 -56
l-62 -233q-8 -27 -8 -55q0 -43 26 -66.5t72 -23.5q54 0 96.5 39t59.5 103l68 253q15 60 67 60q31 0 45 -21t4 -56l-112 -421q-17 -61 -70 -61z" />
    <glyph glyph-name="uacute" unicode="&#xfa;" horiz-adv-x="652" 
d="M583 708l-90 -67q-37 -27 -74 -27q-33 0 -33 22q0 12 10 23l84 92q28 28 49 28q25 0 49 -13.5t24 -28.5t-19 -29zM439 -6q-25 0 -39.5 15t-13.5 38l7 25q-83 -83 -169 -83q-77 0 -122.5 44.5t-45.5 119.5q0 33 16 95l65 245q15 60 68 60q30 0 44 -21t4 -56l-62 -233
q-8 -27 -8 -55q0 -43 26 -66.5t72 -23.5q54 0 96.5 39t59.5 103l68 253q15 60 67 60q31 0 45 -21t4 -56l-112 -421q-17 -61 -70 -61z" />
    <glyph glyph-name="ucircumflex" unicode="&#xfb;" horiz-adv-x="652" 
d="M517 742l43 -82q11 -22 11 -26q0 -20 -29 -20q-24 0 -39.5 4.5t-31.5 22.5l-40 47l-68 -47q-39 -27 -77 -27q-26 0 -26 19q0 11 14 27l90 84q28 30 64 30h32q39 0 57 -32zM439 -6q-25 0 -39.5 15t-13.5 38l7 25q-83 -83 -169 -83q-77 0 -122.5 44.5t-45.5 119.5
q0 33 16 95l65 245q15 60 68 60q30 0 44 -21t4 -56l-62 -233q-8 -27 -8 -55q0 -43 26 -66.5t72 -23.5q54 0 96.5 39t59.5 103l68 253q15 60 67 60q31 0 45 -21t4 -56l-112 -421q-17 -61 -70 -61z" />
    <glyph glyph-name="udieresis" unicode="&#xfc;" horiz-adv-x="652" 
d="M593 671q-6 -27 -26.5 -42.5t-48.5 -15.5q-30 0 -46 17t-9 43l4 15q6 27 26.5 42.5t48.5 15.5t44 -17.5t11 -42.5zM389 671q-6 -27 -26.5 -42.5t-48.5 -15.5q-30 0 -46 17t-9 43l4 15q6 27 26.5 42.5t48.5 15.5t44 -17.5t11 -42.5zM439 -6q-25 0 -39.5 15t-13.5 38l7 25
q-83 -83 -169 -83q-77 0 -122.5 44.5t-45.5 119.5q0 33 16 95l65 245q15 60 68 60q30 0 44 -21t4 -56l-62 -233q-8 -27 -8 -55q0 -43 26 -66.5t72 -23.5q54 0 96.5 39t59.5 103l68 253q15 60 67 60q31 0 45 -21t4 -56l-112 -421q-17 -61 -70 -61z" />
    <glyph glyph-name="yacute" unicode="&#xfd;" horiz-adv-x="617" 
d="M553 708l-90 -67q-37 -27 -74 -27q-33 0 -33 22q0 12 10 23l84 92q28 28 49 28q25 0 49 -13.5t24 -28.5t-19 -29zM30 -54q33 -12 57 -12q48 0 94 65l-78 467q-3 13 -3 30q0 24 17.5 40.5t42.5 16.5q26 0 42 -14t18 -39l52 -367l235 381q21 39 62 39q24 0 38.5 -12.5
t14.5 -34.5q0 -16 -16 -42l-311 -479q-54 -84 -106 -119.5t-117 -35.5q-48 0 -81 17q-37 16 -37 52q0 22 15 37.5t34 15.5q9 0 27 -6z" />
    <glyph glyph-name="thorn" unicode="&#xfe;" horiz-adv-x="704" 
d="M332 92q80 0 137 65.5t57 158.5q0 64 -36.5 102t-96.5 38q-78 0 -140.5 -67t-62.5 -155q0 -62 40 -102t102 -40zM-13 -94l214 798q16 61 67 61q30 0 44 -21.5t4 -56.5l-58 -215q84 87 179 87q93 0 153.5 -64t60.5 -170q0 -142 -91.5 -239t-213.5 -97q-128 0 -187 111
l-56 -211q-17 -61 -68 -61q-31 0 -44.5 21t-3.5 57z" />
    <glyph glyph-name="ydieresis" unicode="&#xff;" horiz-adv-x="617" 
d="M563 671q-6 -27 -26.5 -42.5t-48.5 -15.5q-30 0 -46 17t-9 43l4 15q6 27 26.5 42.5t48.5 15.5t44 -17.5t11 -42.5zM359 671q-6 -27 -26.5 -42.5t-48.5 -15.5q-30 0 -46 17t-9 43l4 15q6 27 26.5 42.5t48.5 15.5t44 -17.5t11 -42.5zM30 -54q33 -12 57 -12q48 0 94 65
l-78 467q-3 13 -3 30q0 24 17.5 40.5t42.5 16.5q26 0 42 -14t18 -39l52 -367l235 381q21 39 62 39q24 0 38.5 -12.5t14.5 -34.5q0 -16 -16 -42l-311 -479q-54 -84 -106 -119.5t-117 -35.5q-48 0 -81 17q-37 16 -37 52q0 22 15 37.5t34 15.5q9 0 27 -6z" />
    <glyph glyph-name="Amacron" unicode="&#x100;" horiz-adv-x="797" 
d="M703 812h-276q-18 0 -31.5 13t-13.5 31t13.5 31t31.5 13h276q18 0 31 -13t13 -31q0 -19 -13 -31.5t-31 -12.5zM599 680l109 -594q4 -22 4 -33q0 -24 -18 -41.5t-44 -17.5q-52 0 -61 51l-22 132h-360l-102 -143q-29 -40 -63 -40q-23 0 -37 13.5t-14 35.5q0 20 15 40
l435 605q34 50 87 50h3q56 0 68 -58zM283 287h265l-52 303z" />
    <glyph glyph-name="amacron" unicode="&#x101;" horiz-adv-x="615" 
d="M541 632h-276q-18 0 -31.5 13t-13.5 31t13.5 31t31.5 13h276q18 0 31 -13t13 -31q0 -19 -13 -31.5t-31 -12.5zM232 76q58 0 107.5 38.5t66.5 95.5l7 26q-68 22 -138 22q-60 0 -98 -29t-38 -77q0 -34 25.5 -55t67.5 -21zM412 -6q-31 0 -42.5 17t-8.5 40l6 23
q-77 -85 -183 -85q-71 0 -118.5 41t-47.5 108q0 92 67.5 145t172.5 53q85 0 173 -27l3 10q7 24 7 46q0 86 -125 86q-57 0 -109 -16q-2 0 -10.5 -1.5t-11.5 -1.5q-20 0 -34 14t-14 35q0 36 38 48q78 26 165 26q106 0 162 -44.5t56 -124.5q0 -30 -11 -80l-68 -251
q-16 -61 -67 -61z" />
    <glyph glyph-name="Abreve" unicode="&#x102;" horiz-adv-x="797" 
d="M562 797q-65 0 -106 33.5t-41 80.5q0 20 12.5 32t31.5 12q29 0 39 -25q20 -48 76 -48q50 0 88 49q22 24 45 24q17 0 27 -9.5t10 -26.5q0 -15 -10 -29q-27 -41 -72 -67t-100 -26zM599 680l109 -594q4 -22 4 -33q0 -24 -18 -41.5t-44 -17.5q-52 0 -61 51l-22 132h-360
l-102 -143q-29 -40 -63 -40q-23 0 -37 13.5t-14 35.5q0 20 15 40l435 605q34 50 87 50h3q56 0 68 -58zM283 287h265l-52 303z" />
    <glyph glyph-name="abreve" unicode="&#x103;" horiz-adv-x="615" 
d="M401 617q-65 0 -106 33.5t-41 80.5q0 20 12.5 32t31.5 12q29 0 39 -25q20 -48 76 -48q50 0 88 49q22 24 45 24q17 0 27 -9.5t10 -26.5q0 -15 -10 -29q-27 -41 -72 -67t-100 -26zM232 76q58 0 107.5 38.5t66.5 95.5l7 26q-68 22 -138 22q-60 0 -98 -29t-38 -77
q0 -34 25.5 -55t67.5 -21zM412 -6q-31 0 -42.5 17t-8.5 40l6 23q-77 -85 -183 -85q-71 0 -118.5 41t-47.5 108q0 92 67.5 145t172.5 53q85 0 173 -27l3 10q7 24 7 46q0 86 -125 86q-57 0 -109 -16q-2 0 -10.5 -1.5t-11.5 -1.5q-20 0 -34 14t-14 35q0 36 38 48q78 26 165 26
q106 0 162 -44.5t56 -124.5q0 -30 -11 -80l-68 -251q-16 -61 -67 -61z" />
    <glyph glyph-name="Aogonek" unicode="&#x104;" horiz-adv-x="797" 
d="M632 -173q-50 0 -78.5 19t-28.5 50q0 51 83 113q-17 13 -18 32l-23 136h-360l-102 -143q-29 -40 -63 -40q-23 0 -37 13.5t-14 35.5q0 20 15 40l435 605q34 50 87 50h3q56 0 68 -58l109 -594q4 -22 4 -33q0 -26 -23 -46q-66 -58 -66 -86q0 -12 8.5 -19t30.5 -12
q29 -9 28 -30q-2 -33 -58 -33zM283 287h265l-52 303z" />
    <glyph glyph-name="aogonek" unicode="&#x105;" horiz-adv-x="615" 
d="M450 6q-65 -55 -65 -85q0 -12 8.5 -19t30.5 -12q28 -9 28 -30q-2 -33 -58 -33q-50 0 -78.5 19t-28.5 50q0 52 84 115q0 2 1 4q-9 8 -5 59q-77 -85 -183 -85q-71 0 -118.5 41t-47.5 108q0 92 67.5 145t172.5 53q85 0 173 -27l3 10q7 24 7 46q0 86 -125 86q-57 0 -109 -16
q-2 0 -10.5 -1.5t-11.5 -1.5q-20 0 -34 14t-14 35q0 36 38 48q78 26 165 26q106 0 162 -44.5t56 -124.5q0 -30 -11 -80l-68 -251q-6 -28 -29 -49zM232 76q58 0 107.5 38.5t66.5 95.5l7 26q-68 22 -138 22q-60 0 -98 -29t-38 -77q0 -34 25.5 -55t67.5 -21z" />
    <glyph glyph-name="Cacute" unicode="&#x106;" horiz-adv-x="769" 
d="M724 888l-90 -67q-37 -27 -74 -27q-33 0 -33 22q0 12 10 23l84 92q28 28 49 28q25 0 49 -13.5t24 -28.5t-19 -29zM660 76q-101 -89 -249 -89q-142 0 -234.5 84.5t-92.5 225.5q0 115 58.5 217t160.5 164t221 62q153 0 244 -103q24 -26 24 -52t-18 -44.5t-45 -18.5
q-26 0 -44 19q-33 42 -72.5 64t-102.5 22q-120 0 -209 -98t-89 -228q0 -90 56 -145t145 -55q53 0 90 15t81 49q24 15 42 15q24 0 40 -17t16 -41q0 -28 -22 -46z" />
    <glyph glyph-name="cacute" unicode="&#x107;" horiz-adv-x="593" 
d="M570 708l-90 -67q-37 -27 -74 -27q-33 0 -33 22q0 12 10 23l84 92q28 28 49 28q25 0 49 -13.5t24 -28.5t-19 -29zM491 57q-83 -69 -190 -69t-178 67t-71 176q0 134 95.5 231t226.5 97q122 0 191 -82q22 -22 22 -47q0 -23 -17 -39.5t-41 -16.5q-26 0 -42 19
q-46 61 -122 61t-134.5 -67t-58.5 -155q0 -64 39 -102.5t95 -38.5q60 0 118 43q18 14 37 14q21 0 35 -14.5t14 -35.5q0 -25 -19 -41z" />
    <glyph glyph-name="Cdotaccent" unicode="&#x10a;" horiz-adv-x="769" 
d="M633 851q-6 -27 -27 -42.5t-50 -15.5t-45.5 17t-10.5 43l4 15q6 26 27 42t49 16t45 -17.5t12 -42.5zM660 76q-101 -89 -249 -89q-142 0 -234.5 84.5t-92.5 225.5q0 115 58.5 217t160.5 164t221 62q153 0 244 -103q24 -26 24 -52t-18 -44.5t-45 -18.5q-26 0 -44 19
q-33 42 -72.5 64t-102.5 22q-120 0 -209 -98t-89 -228q0 -90 56 -145t145 -55q53 0 90 15t81 49q24 15 42 15q24 0 40 -17t16 -41q0 -28 -22 -46z" />
    <glyph glyph-name="cdotaccent" unicode="&#x10b;" horiz-adv-x="593" 
d="M480 671q-6 -27 -27 -42.5t-50 -15.5t-45.5 17t-10.5 43l4 15q6 26 27 42t49 16t45 -17.5t12 -42.5zM491 57q-83 -69 -190 -69t-178 67t-71 176q0 134 95.5 231t226.5 97q122 0 191 -82q22 -22 22 -47q0 -23 -17 -39.5t-41 -16.5q-26 0 -42 19q-46 61 -122 61t-134.5 -67
t-58.5 -155q0 -64 39 -102.5t95 -38.5q60 0 118 43q18 14 37 14q21 0 35 -14.5t14 -35.5q0 -25 -19 -41z" />
    <glyph glyph-name="Ccaron" unicode="&#x10c;" horiz-adv-x="769" 
d="M487 827l-44 81q-10 22 -10 27q0 19 28 19q25 0 40 -4.5t31 -22.5l40 -47l69 47q38 27 76 27q27 0 27 -19q0 -13 -15 -26l-89 -85q-30 -30 -65 -30h-32q-40 0 -56 33zM660 76q-101 -89 -249 -89q-142 0 -234.5 84.5t-92.5 225.5q0 115 58.5 217t160.5 164t221 62
q153 0 244 -103q24 -26 24 -52t-18 -44.5t-45 -18.5q-26 0 -44 19q-33 42 -72.5 64t-102.5 22q-120 0 -209 -98t-89 -228q0 -90 56 -145t145 -55q53 0 90 15t81 49q24 15 42 15q24 0 40 -17t16 -41q0 -28 -22 -46z" />
    <glyph glyph-name="ccaron" unicode="&#x10d;" horiz-adv-x="593" 
d="M334 647l-44 81q-10 22 -10 27q0 19 28 19q25 0 40 -4.5t31 -22.5l40 -47l69 47q38 27 76 27q27 0 27 -19q0 -13 -15 -26l-89 -85q-30 -30 -65 -30h-32q-40 0 -56 33zM491 57q-83 -69 -190 -69t-178 67t-71 176q0 134 95.5 231t226.5 97q122 0 191 -82q22 -22 22 -47
q0 -23 -17 -39.5t-41 -16.5q-26 0 -42 19q-46 61 -122 61t-134.5 -67t-58.5 -155q0 -64 39 -102.5t95 -38.5q60 0 118 43q18 14 37 14q21 0 35 -14.5t14 -35.5q0 -25 -19 -41z" />
    <glyph glyph-name="Dcaron" unicode="&#x10e;" horiz-adv-x="816" 
d="M443 817l-44 81q-10 22 -10 27q0 19 28 19q25 0 40 -4.5t31 -22.5l40 -47l69 47q38 27 76 27q27 0 27 -19q0 -13 -15 -26l-89 -85q-30 -30 -65 -30h-32q-40 0 -56 33zM274 728h143q189 0 284 -95q79 -79 79 -211q0 -167 -117 -286q-136 -136 -378 -136h-188
q-31 0 -45.5 21t-4.5 56l158 589q7 29 26 45.5t43 16.5zM179 111h121q169 0 271 102q82 82 82 203q0 87 -52 137q-64 64 -193 64h-93z" />
    <glyph glyph-name="dcaron" unicode="&#x10f;" horiz-adv-x="704" 
d="M766 591l39 129q13 41 54 41h21q24 0 24 -20q0 -11 -11 -31l-72 -127q-14 -24 -35 -24q-22 0 -22 19q0 5 2 13zM310 92q78 0 140.5 67t62.5 155q0 62 -40 102t-102 40q-80 0 -137 -66t-57 -159q0 -63 36.5 -101t96.5 -38zM490 -6q-26 0 -40 15t-12 39l6 27
q-83 -86 -178 -86q-93 0 -153.5 63.5t-60.5 169.5q0 143 91.5 240t213.5 97q128 0 187 -111l68 256q17 61 68 61q30 0 44 -21.5t4 -56.5l-169 -632q-16 -61 -69 -61z" />
    <glyph glyph-name="Dcroat" unicode="&#x110;" horiz-adv-x="840" 
d="M310 0h-189q-30 0 -44.5 21t-5.5 56l63 234h-19q-23 0 -39 16t-16 39t16 39t39 16h48l66 245q8 29 26.5 45.5t42.5 16.5h143q191 0 284 -95q80 -80 80 -211q0 -168 -118 -286q-136 -136 -377 -136zM203 111h121q170 0 272 102q81 81 81 203q0 88 -51 137q-64 64 -194 64
h-93l-53 -196h117q23 0 38.5 -16t15.5 -39t-16 -39t-38 -16h-146z" />
    <glyph glyph-name="dcroat" unicode="&#x111;" horiz-adv-x="704" 
d="M310 92q78 0 140.5 67t62.5 155q0 62 -40 102t-102 40q-80 0 -137 -66t-57 -159q0 -63 36.5 -101t96.5 -38zM444 75q-83 -86 -178 -86q-93 0 -153.5 63.5t-60.5 169.5q0 143 91.5 240t213.5 97q128 0 187 -111l48 179h-132q-15 0 -25.5 10.5t-10.5 25.5t10.5 26t25.5 11
h151l1 4q17 61 68 61q27 0 41 -17.5t10 -47.5h31q15 0 26 -11t11 -26t-11 -25.5t-26 -10.5h-50l-153 -572q-16 -61 -69 -61q-26 0 -40 15t-12 39z" />
    <glyph glyph-name="Emacron" unicode="&#x112;" horiz-adv-x="696" 
d="M656 802h-276q-18 0 -31.5 13t-13.5 31t13.5 31t31.5 13h276q18 0 31 -13t13 -31q0 -19 -13 -31.5t-31 -12.5zM529 0h-432q-31 0 -45.5 21t-4.5 56l158 589q7 29 26 45.5t43 16.5h415q23 0 39.5 -16t16.5 -39t-16.5 -39t-39.5 -16h-375l-52 -197h298q23 0 39.5 -16
t16.5 -39q0 -22 -16.5 -38t-39.5 -16h-328l-54 -202h351q23 0 39 -16t16 -39t-16 -39t-39 -16z" />
    <glyph glyph-name="emacron" unicode="&#x113;" horiz-adv-x="633" 
d="M558 632h-276q-18 0 -31.5 13t-13.5 31t13.5 31t31.5 13h276q18 0 31 -13t13 -31q0 -19 -13 -31.5t-31 -12.5zM311 87q66 0 115 35q20 12 38 12q20 0 33 -13t13 -34q0 -24 -23 -42q-79 -57 -188 -57q-113 0 -180.5 64.5t-67.5 173.5q0 128 92.5 230.5t229.5 102.5
q103 0 161 -60t58 -152q0 -31 -7 -61q-12 -54 -60 -54h-357q-1 -4 -1 -12q2 -61 39.5 -97t104.5 -36zM180 312h292q5 17 5 39q0 48 -28 78.5t-84 30.5q-64 0 -114 -41.5t-71 -106.5z" />
    <glyph glyph-name="Ebreve" unicode="&#x114;" horiz-adv-x="696" 
d="M514 787q-65 0 -106 33.5t-41 80.5q0 20 12.5 32t31.5 12q29 0 39 -25q20 -48 76 -48q50 0 88 49q22 24 45 24q17 0 27 -9.5t10 -26.5q0 -15 -10 -29q-27 -41 -72 -67t-100 -26zM529 0h-432q-31 0 -45.5 21t-4.5 56l158 589q7 29 26 45.5t43 16.5h415q23 0 39.5 -16
t16.5 -39t-16.5 -39t-39.5 -16h-375l-52 -197h298q23 0 39.5 -16t16.5 -39q0 -22 -16.5 -38t-39.5 -16h-328l-54 -202h351q23 0 39 -16t16 -39t-16 -39t-39 -16z" />
    <glyph glyph-name="ebreve" unicode="&#x115;" horiz-adv-x="633" 
d="M418 617q-65 0 -106 33.5t-41 80.5q0 20 12.5 32t31.5 12q29 0 39 -25q20 -48 76 -48q50 0 88 49q22 24 45 24q17 0 27 -9.5t10 -26.5q0 -15 -10 -29q-27 -41 -72 -67t-100 -26zM311 87q66 0 115 35q20 12 38 12q20 0 33 -13t13 -34q0 -24 -23 -42q-79 -57 -188 -57
q-113 0 -180.5 64.5t-67.5 173.5q0 128 92.5 230.5t229.5 102.5q103 0 161 -60t58 -152q0 -31 -7 -61q-12 -54 -60 -54h-357q-1 -4 -1 -12q2 -61 39.5 -97t104.5 -36zM180 312h292q5 17 5 39q0 48 -28 78.5t-84 30.5q-64 0 -114 -41.5t-71 -106.5z" />
    <glyph glyph-name="Edotaccent" unicode="&#x116;" horiz-adv-x="696" 
d="M582 841q-6 -27 -27 -42.5t-50 -15.5t-45.5 17t-10.5 43l4 15q6 26 27 42t49 16t45 -17.5t12 -42.5zM529 0h-432q-31 0 -45.5 21t-4.5 56l158 589q7 29 26 45.5t43 16.5h415q23 0 39.5 -16t16.5 -39t-16.5 -39t-39.5 -16h-375l-52 -197h298q23 0 39.5 -16t16.5 -39
q0 -22 -16.5 -38t-39.5 -16h-328l-54 -202h351q23 0 39 -16t16 -39t-16 -39t-39 -16z" />
    <glyph glyph-name="edotaccent" unicode="&#x117;" horiz-adv-x="633" 
d="M486 671q-6 -27 -27 -42.5t-50 -15.5t-45.5 17t-10.5 43l4 15q6 26 27 42t49 16t45 -17.5t12 -42.5zM311 87q66 0 115 35q20 12 38 12q20 0 33 -13t13 -34q0 -24 -23 -42q-79 -57 -188 -57q-113 0 -180.5 64.5t-67.5 173.5q0 128 92.5 230.5t229.5 102.5q103 0 161 -60
t58 -152q0 -31 -7 -61q-12 -54 -60 -54h-357q-1 -4 -1 -12q2 -61 39.5 -97t104.5 -36zM180 312h292q5 17 5 39q0 48 -28 78.5t-84 30.5q-64 0 -114 -41.5t-71 -106.5z" />
    <glyph glyph-name="Eogonek" unicode="&#x118;" horiz-adv-x="696" 
d="M553 2q-37 -30 -51.5 -47.5t-14.5 -33.5q0 -12 9 -19t31 -12q28 -9 27 -30q-2 -33 -58 -33q-50 0 -78.5 19t-28.5 50q0 48 73 104h-365q-31 0 -45.5 21t-4.5 56l158 589q7 29 26 45.5t43 16.5h415q23 0 39.5 -16t16.5 -39t-16.5 -39t-39.5 -16h-375l-52 -197h298
q23 0 39.5 -16t16.5 -39q0 -22 -16.5 -38t-39.5 -16h-328l-54 -202h351q23 0 39 -16t16 -39q0 -26 -31 -53z" />
    <glyph glyph-name="eogonek" unicode="&#x119;" horiz-adv-x="633" 
d="M428 -1q-56 -49 -56 -78q0 -12 9 -19t31 -12q28 -9 27 -30q-2 -33 -58 -33q-50 0 -78.5 19t-28.5 50q0 44 57 94q-10 -2 -32 -2q-113 0 -180.5 64.5t-67.5 173.5q0 128 92.5 230.5t229.5 102.5q103 0 161 -60t58 -152q0 -31 -7 -61q-12 -54 -60 -54h-357q-1 -4 -1 -12
q2 -61 39.5 -97t104.5 -36q66 0 115 35q20 12 38 12q20 0 33 -13t13 -34q0 -23 -23 -42q-32 -23 -59 -46zM180 312h292q5 17 5 39q0 48 -28 78.5t-84 30.5q-64 0 -114 -41.5t-71 -106.5z" />
    <glyph glyph-name="Ecaron" unicode="&#x11a;" horiz-adv-x="696" 
d="M436 817l-44 81q-10 22 -10 27q0 19 28 19q25 0 40 -4.5t31 -22.5l40 -47l69 47q38 27 76 27q27 0 27 -19q0 -13 -15 -26l-89 -85q-30 -30 -65 -30h-32q-40 0 -56 33zM529 0h-432q-31 0 -45.5 21t-4.5 56l158 589q7 29 26 45.5t43 16.5h415q23 0 39.5 -16t16.5 -39
t-16.5 -39t-39.5 -16h-375l-52 -197h298q23 0 39.5 -16t16.5 -39q0 -22 -16.5 -38t-39.5 -16h-328l-54 -202h351q23 0 39 -16t16 -39t-16 -39t-39 -16z" />
    <glyph glyph-name="ecaron" unicode="&#x11b;" horiz-adv-x="633" 
d="M339 647l-44 81q-10 22 -10 27q0 19 28 19q25 0 40 -4.5t31 -22.5l40 -47l69 47q38 27 76 27q27 0 27 -19q0 -13 -15 -26l-89 -85q-30 -30 -65 -30h-32q-40 0 -56 33zM311 87q66 0 115 35q20 12 38 12q20 0 33 -13t13 -34q0 -24 -23 -42q-79 -57 -188 -57
q-113 0 -180.5 64.5t-67.5 173.5q0 128 92.5 230.5t229.5 102.5q103 0 161 -60t58 -152q0 -31 -7 -61q-12 -54 -60 -54h-357q-1 -4 -1 -12q2 -61 39.5 -97t104.5 -36zM180 312h292q5 17 5 39q0 48 -28 78.5t-84 30.5q-64 0 -114 -41.5t-71 -106.5z" />
    <glyph glyph-name="Gbreve" unicode="&#x11e;" horiz-adv-x="823" 
d="M576 797q-65 0 -106 33.5t-41 80.5q0 20 12.5 32t31.5 12q29 0 39 -25q20 -48 76 -48q50 0 88 49q22 24 45 24q17 0 27 -9.5t10 -26.5q0 -15 -10 -29q-27 -41 -72 -67t-100 -26zM754 327l-63 -222q-12 -44 -51 -66q-95 -52 -224 -52q-88 0 -162 34t-122 107t-48 172
q0 113 58 213.5t162.5 163.5t230.5 63q165 0 251 -90q25 -23 25 -50q0 -25 -17.5 -42.5t-42.5 -17.5q-24 0 -40 14q-76 74 -186 74q-131 0 -222 -97.5t-91 -226.5q0 -95 59.5 -149.5t152.5 -54.5q89 0 158 39l46 158h-135q-22 0 -38 16t-16 38t16 38t38 16h211
q31 0 45.5 -22t4.5 -56z" />
    <glyph glyph-name="gbreve" unicode="&#x11f;" horiz-adv-x="702" 
d="M454 617q-65 0 -106 33.5t-41 80.5q0 20 12.5 32t31.5 12q29 0 39 -25q20 -48 76 -48q50 0 88 49q22 24 45 24q17 0 27 -9.5t10 -26.5q0 -15 -10 -29q-27 -41 -72 -67t-100 -26zM312 142q77 0 136 57t59 132q0 54 -37 89.5t-99 35.5q-77 0 -133.5 -57t-56.5 -136
q0 -58 37 -89.5t94 -31.5zM542 447l13 46q16 60 66 60q31 0 45 -21t4 -56l-102 -382q-19 -72 -39.5 -112.5t-52.5 -73.5q-78 -76 -216 -76q-132 0 -239 60q-33 17 -33 48q0 22 14.5 37.5t36.5 15.5q18 0 37 -11q87 -53 178 -53q85 0 135 50q37 37 59 114l10 35
q-89 -84 -190 -84q-87 0 -149.5 53t-62.5 145q0 133 92.5 225t210.5 92q124 0 183 -112z" />
    <glyph glyph-name="Gdotaccent" unicode="&#x120;" horiz-adv-x="823" 
d="M644 851q-6 -27 -27 -42.5t-50 -15.5t-45.5 17t-10.5 43l4 15q6 26 27 42t49 16t45 -17.5t12 -42.5zM754 327l-63 -222q-12 -44 -51 -66q-95 -52 -224 -52q-88 0 -162 34t-122 107t-48 172q0 113 58 213.5t162.5 163.5t230.5 63q165 0 251 -90q25 -23 25 -50
q0 -25 -17.5 -42.5t-42.5 -17.5q-24 0 -40 14q-76 74 -186 74q-131 0 -222 -97.5t-91 -226.5q0 -95 59.5 -149.5t152.5 -54.5q89 0 158 39l46 158h-135q-22 0 -38 16t-16 38t16 38t38 16h211q31 0 45.5 -22t4.5 -56z" />
    <glyph glyph-name="gdotaccent" unicode="&#x121;" horiz-adv-x="702" 
d="M522 671q-6 -27 -27 -42.5t-50 -15.5t-45.5 17t-10.5 43l4 15q6 26 27 42t49 16t45 -17.5t12 -42.5zM312 142q77 0 136 57t59 132q0 54 -37 89.5t-99 35.5q-77 0 -133.5 -57t-56.5 -136q0 -58 37 -89.5t94 -31.5zM542 447l13 46q16 60 66 60q31 0 45 -21t4 -56l-102 -382
q-19 -72 -39.5 -112.5t-52.5 -73.5q-78 -76 -216 -76q-132 0 -239 60q-33 17 -33 48q0 22 14.5 37.5t36.5 15.5q18 0 37 -11q87 -53 178 -53q85 0 135 50q37 37 59 114l10 35q-89 -84 -190 -84q-87 0 -149.5 53t-62.5 145q0 133 92.5 225t210.5 92q124 0 183 -112z" />
    <glyph glyph-name="Gcommaaccent" unicode="&#x122;" horiz-adv-x="823" 
d="M754 327l-63 -222q-12 -44 -51 -66q-95 -52 -224 -52q-88 0 -162 34t-122 107t-48 172q0 113 58 213.5t162.5 163.5t230.5 63q165 0 251 -90q25 -23 25 -50q0 -25 -17.5 -42.5t-42.5 -17.5q-24 0 -40 14q-76 74 -186 74q-131 0 -222 -97.5t-91 -226.5q0 -95 59.5 -149.5
t152.5 -54.5q89 0 158 39l46 158h-135q-22 0 -38 16t-16 38t16 38t38 16h211q31 0 45.5 -22t4.5 -56zM322 -174q-46 10 -46 45q0 26 19 45.5t49 19.5q28 0 43.5 -15.5t15.5 -43.5q0 -60 -47 -107q-52 -52 -118 -52q-23 0 -23 19q0 17 27 23q71 14 80 66z" />
    <glyph glyph-name="gcommaaccent" unicode="&#x123;" horiz-adv-x="702" 
d="M469 722q46 -8 46 -45q0 -26 -19 -45t-49 -19q-27 0 -42.5 15.5t-15.5 43.5q0 61 47 106q52 52 117 52q23 0 23 -18t-27 -24q-70 -14 -80 -66zM312 142q77 0 136 57t59 132q0 54 -37 89.5t-99 35.5q-77 0 -133.5 -57t-56.5 -136q0 -58 37 -89.5t94 -31.5zM542 447l13 46
q16 60 66 60q31 0 45 -21t4 -56l-102 -382q-19 -72 -39.5 -112.5t-52.5 -73.5q-78 -76 -216 -76q-132 0 -239 60q-33 17 -33 48q0 22 14.5 37.5t36.5 15.5q18 0 37 -11q87 -53 178 -53q85 0 135 50q37 37 59 114l10 35q-89 -84 -190 -84q-87 0 -149.5 53t-62.5 145
q0 133 92.5 225t210.5 92q124 0 183 -112z" />
    <glyph glyph-name="Hbar" unicode="&#x126;" horiz-adv-x="796" 
d="M263 423h351l29 108h-351zM637 55q-16 -61 -68 -61q-30 0 -44.5 21.5t-5.5 57.5l64 236h-350l-69 -254q-16 -61 -68 -61q-31 0 -45.5 21.5t-4.5 57.5l123 458h-24q-18 0 -31 13t-13 31t13 31t31 13h48l14 54q16 61 68 61q31 0 45.5 -21.5t4.5 -57.5l-10 -36h352l14 54
q16 61 68 61q31 0 45.5 -21.5t4.5 -57.5l-10 -36h24q19 0 32 -13t13 -31t-13 -31t-32 -13h-47z" />
    <glyph glyph-name="hbar" unicode="&#x127;" horiz-adv-x="652" 
d="M515 55q-16 -61 -67 -61q-31 0 -45 21.5t-4 56.5l62 233q8 27 8 55q0 43 -25.5 66.5t-72.5 23.5q-54 0 -96.5 -39t-59.5 -103l-68 -253q-16 -61 -67 -61q-30 0 -44 21.5t-4 56.5l148 555h-32q-15 0 -25.5 10.5t-10.5 25.5t10.5 26t25.5 11h51l1 4q16 61 67 61
q27 0 41.5 -17.5t10.5 -47.5h131q15 0 26 -11t11 -26t-11 -25.5t-26 -10.5h-150l-40 -151q81 83 169 83q76 0 121.5 -44.5t45.5 -119.5q0 -33 -16 -95z" />
    <glyph glyph-name="Imacron" unicode="&#x12a;" horiz-adv-x="337" 
d="M460 802h-276q-18 0 -31.5 13t-13.5 31t13.5 31t31.5 13h276q18 0 31 -13t13 -31q0 -19 -13 -31.5t-31 -12.5zM333 655l-162 -600q-16 -61 -68 -61q-31 0 -45.5 21.5t-4.5 57.5l161 600q17 61 69 61q30 0 44.5 -21.5t5.5 -57.5z" />
    <glyph glyph-name="imacron" unicode="&#x12b;" horiz-adv-x="305" 
d="M399 632h-276q-18 0 -31.5 13t-13.5 31t13.5 31t31.5 13h276q18 0 31 -13t13 -31q0 -19 -13 -31.5t-31 -12.5zM267 476l-113 -421q-16 -61 -67 -61q-31 0 -45 21.5t-4 56.5l113 421q15 60 68 60q30 0 44 -21t4 -56z" />
    <glyph glyph-name="Ibreve" unicode="&#x12c;" horiz-adv-x="337" 
d="M319 787q-65 0 -106 33.5t-41 80.5q0 20 12.5 32t31.5 12q29 0 39 -25q20 -48 76 -48q50 0 88 49q22 24 45 24q17 0 27 -9.5t10 -26.5q0 -15 -10 -29q-27 -41 -72 -67t-100 -26zM333 655l-162 -600q-16 -61 -68 -61q-31 0 -45.5 21.5t-4.5 57.5l161 600q17 61 69 61
q30 0 44.5 -21.5t5.5 -57.5z" />
    <glyph glyph-name="ibreve" unicode="&#x12d;" horiz-adv-x="305" 
d="M257 617q-65 0 -106 33.5t-41 80.5q0 20 12.5 32t31.5 12q29 0 39 -25q20 -48 76 -48q50 0 88 49q22 24 45 24q17 0 27 -9.5t10 -26.5q0 -15 -10 -29q-27 -41 -72 -67t-100 -26zM267 476l-113 -421q-16 -61 -67 -61q-31 0 -45 21.5t-4 56.5l113 421q15 60 68 60
q30 0 44 -21t4 -56z" />
    <glyph glyph-name="Iogonek" unicode="&#x12e;" horiz-adv-x="337" 
d="M85 -173q-51 0 -79.5 19t-28.5 50q0 49 85 115q-20 22 -9 62l161 600q17 61 69 61q30 0 44.5 -21.5t5.5 -57.5l-162 -600q-7 -28 -30 -49q-65 -56 -65 -85q0 -12 8.5 -19t30.5 -12q28 -9 27 -30q0 -33 -57 -33z" />
    <glyph glyph-name="iogonek" unicode="&#x12f;" horiz-adv-x="305" 
d="M333 687q-6 -26 -27.5 -41t-51.5 -15t-47 16.5t-12 41.5l3 12q6 26 27.5 41t51.5 15q29 0 46.5 -16.5t12.5 -40.5zM267 476l-113 -421q-8 -28 -30 -49q-64 -55 -64 -85q0 -12 8.5 -19t30.5 -12q28 -9 27 -30q0 -33 -57 -33q-51 0 -79.5 19t-28.5 50q0 52 86 115
q-13 16 -12 38q0 11 3 23l113 421q15 60 68 60q30 0 44 -21t4 -56z" />
    <glyph glyph-name="Idotaccent" unicode="&#x130;" horiz-adv-x="337" 
d="M388 841q-6 -27 -27 -42.5t-50 -15.5t-45.5 17t-10.5 43l4 15q6 26 27 42t49 16t45 -17.5t12 -42.5zM333 655l-162 -600q-16 -61 -68 -61q-31 0 -45.5 21.5t-4.5 57.5l161 600q17 61 69 61q30 0 44.5 -21.5t5.5 -57.5z" />
    <glyph glyph-name="dotlessi" unicode="&#x131;" horiz-adv-x="305" 
d="M267 476l-113 -421q-16 -61 -67 -61q-31 0 -45 21.5t-4 56.5l113 421q15 60 68 60q30 0 44 -21t4 -56z" />
    <glyph glyph-name="Kcommaaccent" unicode="&#x136;" horiz-adv-x="756" 
d="M201 193l-37 -138q-16 -61 -68 -61q-31 0 -45.5 21.5t-4.5 57.5l161 600q16 61 68 61q31 0 45.5 -21.5t4.5 -57.5l-81 -302l432 357q30 24 52 24q25 0 40 -16t15 -40q0 -27 -22 -46l-276 -223l153 -318q11 -24 11 -41q0 -24 -19 -40t-43 -16q-44 0 -62 44l-141 302z
M293 -166q-46 10 -46 45q0 26 19 45.5t49 19.5q28 0 43.5 -15.5t15.5 -43.5q0 -60 -47 -107q-52 -52 -118 -52q-23 0 -23 19q0 17 27 23q71 14 80 66z" />
    <glyph glyph-name="kcommaaccent" unicode="&#x137;" horiz-adv-x="613" 
d="M317 687l-104 -388l298 233q27 21 46 21q22 0 36.5 -13.5t14.5 -34.5q0 -27 -23 -42l-194 -148l104 -224q11 -25 11 -42q0 -25 -18.5 -40t-43.5 -15q-44 0 -62 44l-95 202l-114 -87l-26 -98q-16 -61 -67 -61q-30 0 -44 21.5t-4 56.5l169 632q16 61 68 61q30 0 44 -21.5
t4 -56.5zM204 -171q-46 10 -46 45q0 26 19 45.5t49 19.5q28 0 43.5 -15.5t15.5 -43.5q0 -60 -47 -107q-52 -52 -118 -52q-23 0 -23 19q0 17 27 23q71 14 80 66z" />
    <glyph glyph-name="Lacute" unicode="&#x139;" horiz-adv-x="652" 
d="M487 878l-90 -67q-37 -27 -74 -27q-33 0 -33 22q0 12 10 23l84 92q28 28 49 28q25 0 49 -13.5t24 -28.5t-19 -29zM500 0h-403q-31 0 -45.5 21t-4.5 56l160 596q16 61 68 61q31 0 45.5 -21.5t4.5 -57.5l-145 -543h320q23 0 39 -16.5t16 -39.5q0 -24 -16 -40t-39 -16z" />
    <glyph glyph-name="lacute" unicode="&#x13a;" horiz-adv-x="305" 
d="M469 897l-90 -67q-37 -27 -74 -27q-33 0 -33 22q0 12 10 23l84 92q28 28 49 28q25 0 49 -13.5t24 -28.5t-19 -29zM324 687l-170 -632q-16 -61 -67 -61q-31 0 -45 21.5t-4 56.5l170 632q16 61 67 61q31 0 45 -21.5t4 -56.5z" />
    <glyph glyph-name="Lcommaaccent" unicode="&#x13b;" horiz-adv-x="652" 
d="M500 0h-403q-31 0 -45.5 21t-4.5 56l160 596q16 61 68 61q31 0 45.5 -21.5t4.5 -57.5l-145 -543h320q23 0 39 -16.5t16 -39.5q0 -24 -16 -40t-39 -16zM232 -171q-46 10 -46 45q0 26 19 45.5t49 19.5q28 0 43.5 -15.5t15.5 -43.5q0 -60 -47 -107q-52 -52 -118 -52
q-23 0 -23 19q0 17 27 23q71 14 80 66z" />
    <glyph glyph-name="lcommaaccent" unicode="&#x13c;" horiz-adv-x="305" 
d="M324 687l-170 -632q-16 -61 -67 -61q-31 0 -45 21.5t-4 56.5l170 632q16 61 67 61q31 0 45 -21.5t4 -56.5zM44 -171q-46 10 -46 45q0 26 19 45.5t49 19.5q28 0 43.5 -15.5t15.5 -43.5q0 -60 -47 -107q-52 -52 -118 -52q-23 0 -23 19q0 17 27 23q71 14 80 66z" />
    <glyph glyph-name="Lcaron" unicode="&#x13d;" horiz-adv-x="652" 
d="M500 0h-403q-31 0 -45.5 21t-4.5 56l160 596q16 61 68 61q31 0 45.5 -21.5t4.5 -57.5l-145 -543h320q23 0 39 -16.5t16 -39.5q0 -24 -16 -40t-39 -16zM368 560l39 129q13 41 54 41h21q24 0 24 -20q0 -11 -11 -31l-72 -127q-14 -24 -35 -24q-22 0 -22 19q0 5 2 13z" />
    <glyph glyph-name="lcaron" unicode="&#x13e;" horiz-adv-x="305" 
d="M324 687l-170 -632q-16 -61 -67 -61q-31 0 -45 21.5t-4 56.5l170 632q16 61 67 61q31 0 45 -21.5t4 -56.5zM355 591l39 129q13 41 54 41h21q24 0 24 -20q0 -11 -11 -31l-72 -127q-14 -24 -35 -24q-22 0 -22 19q0 5 2 13z" />
    <glyph glyph-name="Ldot" unicode="&#x13f;" horiz-adv-x="652" 
d="M500 0h-403q-31 0 -45.5 21t-4.5 56l160 596q16 61 68 61q31 0 45.5 -21.5t4.5 -57.5l-145 -543h320q23 0 39 -16.5t16 -39.5q0 -24 -16 -40t-39 -16zM595 384q-5 -27 -26.5 -43t-50.5 -16q-30 0 -46.5 17.5t-10.5 43.5l3 12q6 27 27 42.5t50 15.5t46 -17.5t12 -42.5z
" />
    <glyph glyph-name="ldot" unicode="&#x140;" horiz-adv-x="388" 
d="M324 687l-170 -632q-16 -61 -67 -61q-31 0 -45 21.5t-4 56.5l170 632q16 61 67 61q31 0 45 -21.5t4 -56.5zM427 381q-12 -54 -63 -54q-25 0 -39.5 17t-9.5 41l3 13q12 53 63 53q26 0 40 -17t9 -41z" />
    <glyph glyph-name="Lslash" unicode="&#x141;" horiz-adv-x="691" 
d="M539 0h-403q-30 0 -44.5 21t-5.5 56l57 214l-3 -1q-21 -3 -22 -3q-23 0 -37 13.5t-14 36.5q0 39 42 51l65 18l72 267q16 61 67 61q29 0 43 -21.5t5 -57.5l-57 -212l142 40q21 3 24 3q23 0 37 -13t14 -36q0 -39 -42 -51l-206 -58l-58 -216h324q23 0 39 -16.5t16 -39.5
q0 -24 -16 -40t-39 -16z" />
    <glyph glyph-name="lslash" unicode="&#x142;" horiz-adv-x="365" 
d="M118 -6q-31 0 -45 21.5t-4 56.5l64 239l-8 -2q-16 -4 -22 -4q-21 0 -33 14t-12 36q0 41 44 53l62 17l75 279q16 61 67 61q31 0 45 -21.5t4 -56.5l-61 -226l10 3q12 3 22 3q21 0 33 -13.5t12 -35.5q0 -43 -44 -53l-63 -18l-79 -292q-16 -61 -67 -61z" />
    <glyph glyph-name="Nacute" unicode="&#x143;" horiz-adv-x="827" 
d="M723 878l-90 -67q-37 -27 -74 -27q-33 0 -33 22q0 12 10 23l84 92q28 28 49 28q25 0 49 -13.5t24 -28.5t-19 -29zM588 204l126 469q17 61 68 61q30 0 44 -21.5t4 -57.5l-162 -602q-14 -57 -64 -57h-3q-47 0 -69 47l-241 495l-129 -483q-16 -61 -67 -61q-31 0 -45 21.5
t-4 57.5l160 597q16 62 72 62h6q50 0 73 -51z" />
    <glyph glyph-name="nacute" unicode="&#x144;" horiz-adv-x="651" 
d="M583 708l-90 -67q-37 -27 -74 -27q-33 0 -33 22q0 12 10 23l84 92q28 28 49 28q25 0 49 -13.5t24 -28.5t-19 -29zM213 553q26 0 40.5 -15t12.5 -37l-6 -25q81 83 169 83q76 0 121.5 -44.5t45.5 -119.5q0 -33 -16 -95l-65 -245q-16 -61 -67 -61q-31 0 -45 21.5t-4 56.5
l62 233q8 27 8 55q0 43 -25.5 66.5t-72.5 23.5q-54 0 -96.5 -39t-59.5 -103l-68 -253q-16 -61 -67 -61q-30 0 -44 21.5t-4 56.5l112 421q15 60 69 60z" />
    <glyph glyph-name="Ncommaaccent" unicode="&#x145;" horiz-adv-x="827" 
d="M588 204l126 469q17 61 68 61q30 0 44 -21.5t4 -57.5l-162 -602q-14 -57 -64 -57h-3q-47 0 -69 47l-241 495l-129 -483q-16 -61 -67 -61q-31 0 -45 21.5t-4 57.5l160 597q16 62 72 62h6q50 0 73 -51zM306 -166q-46 10 -46 45q0 26 19 45.5t49 19.5q28 0 43.5 -15.5
t15.5 -43.5q0 -60 -47 -107q-52 -52 -118 -52q-23 0 -23 19q0 17 27 23q71 14 80 66z" />
    <glyph glyph-name="ncommaaccent" unicode="&#x146;" horiz-adv-x="651" 
d="M213 553q26 0 40.5 -15t12.5 -37l-6 -25q81 83 169 83q76 0 121.5 -44.5t45.5 -119.5q0 -33 -16 -95l-65 -245q-16 -61 -67 -61q-31 0 -45 21.5t-4 56.5l62 233q8 27 8 55q0 43 -25.5 66.5t-72.5 23.5q-54 0 -96.5 -39t-59.5 -103l-68 -253q-16 -61 -67 -61
q-30 0 -44 21.5t-4 56.5l112 421q15 60 69 60zM211 -171q-46 10 -46 45q0 26 19 45.5t49 19.5q28 0 43.5 -15.5t15.5 -43.5q0 -60 -47 -107q-52 -52 -118 -52q-23 0 -23 19q0 17 27 23q71 14 80 66z" />
    <glyph glyph-name="Ncaron" unicode="&#x147;" horiz-adv-x="827" 
d="M486 817l-44 81q-10 22 -10 27q0 19 28 19q25 0 40 -4.5t31 -22.5l40 -47l69 47q38 27 76 27q27 0 27 -19q0 -13 -15 -26l-89 -85q-30 -30 -65 -30h-32q-40 0 -56 33zM588 204l126 469q17 61 68 61q30 0 44 -21.5t4 -57.5l-162 -602q-14 -57 -64 -57h-3q-47 0 -69 47
l-241 495l-129 -483q-16 -61 -67 -61q-31 0 -45 21.5t-4 57.5l160 597q16 62 72 62h6q50 0 73 -51z" />
    <glyph glyph-name="ncaron" unicode="&#x148;" horiz-adv-x="651" 
d="M347 647l-44 81q-10 22 -10 27q0 19 28 19q25 0 40 -4.5t31 -22.5l40 -47l69 47q38 27 76 27q27 0 27 -19q0 -13 -15 -26l-89 -85q-30 -30 -65 -30h-32q-40 0 -56 33zM213 553q26 0 40.5 -15t12.5 -37l-6 -25q81 83 169 83q76 0 121.5 -44.5t45.5 -119.5q0 -33 -16 -95
l-65 -245q-16 -61 -67 -61q-31 0 -45 21.5t-4 56.5l62 233q8 27 8 55q0 43 -25.5 66.5t-72.5 23.5q-54 0 -96.5 -39t-59.5 -103l-68 -253q-16 -61 -67 -61q-30 0 -44 21.5t-4 56.5l112 421q15 60 69 60z" />
    <glyph glyph-name="Omacron" unicode="&#x14c;" horiz-adv-x="880" 
d="M724 812h-276q-18 0 -31.5 13t-13.5 31t13.5 31t31.5 13h276q18 0 31 -13t13 -31q0 -19 -13 -31.5t-31 -12.5zM411 -13q-144 0 -235 91t-91 228q0 82 32.5 161t89 139t138 97t172.5 37q144 0 235 -91t91 -228q0 -82 -32.5 -161t-89 -139t-138 -97t-172.5 -37zM424 100
q123 0 207 97.5t84 217.5q0 93 -57 152.5t-154 59.5q-123 0 -207 -97t-84 -217q0 -94 57 -153.5t154 -59.5z" />
    <glyph glyph-name="omacron" unicode="&#x14d;" horiz-adv-x="681" 
d="M582 632h-276q-18 0 -31.5 13t-13.5 31t13.5 31t31.5 13h276q18 0 31 -13t13 -31q0 -19 -13 -31.5t-31 -12.5zM309 -12q-116 0 -186.5 70t-70.5 179q0 127 95 224.5t225 97.5q116 0 186.5 -70t70.5 -180q0 -127 -95.5 -224t-224.5 -97zM316 92q79 0 136 67t57 147
q0 69 -39.5 108.5t-104.5 39.5q-79 0 -136 -67t-57 -146q0 -70 39 -109.5t105 -39.5z" />
    <glyph glyph-name="Obreve" unicode="&#x14e;" horiz-adv-x="880" 
d="M583 797q-65 0 -106 33.5t-41 80.5q0 20 12.5 32t31.5 12q29 0 39 -25q20 -48 76 -48q50 0 88 49q22 24 45 24q17 0 27 -9.5t10 -26.5q0 -15 -10 -29q-27 -41 -72 -67t-100 -26zM411 -13q-144 0 -235 91t-91 228q0 82 32.5 161t89 139t138 97t172.5 37q144 0 235 -91
t91 -228q0 -82 -32.5 -161t-89 -139t-138 -97t-172.5 -37zM424 100q123 0 207 97.5t84 217.5q0 93 -57 152.5t-154 59.5q-123 0 -207 -97t-84 -217q0 -94 57 -153.5t154 -59.5z" />
    <glyph glyph-name="obreve" unicode="&#x14f;" horiz-adv-x="681" 
d="M441 617q-65 0 -106 33.5t-41 80.5q0 20 12.5 32t31.5 12q29 0 39 -25q20 -48 76 -48q50 0 88 49q22 24 45 24q17 0 27 -9.5t10 -26.5q0 -15 -10 -29q-27 -41 -72 -67t-100 -26zM309 -12q-116 0 -186.5 70t-70.5 179q0 127 95 224.5t225 97.5q116 0 186.5 -70t70.5 -180
q0 -127 -95.5 -224t-224.5 -97zM316 92q79 0 136 67t57 147q0 69 -39.5 108.5t-104.5 39.5q-79 0 -136 -67t-57 -146q0 -70 39 -109.5t105 -39.5z" />
    <glyph glyph-name="Ohungarumlaut" unicode="&#x150;" horiz-adv-x="880" 
d="M757 959q23 0 40 -13t17 -29q0 -17 -19 -29l-87 -67q-37 -27 -67 -27q-28 0 -28 22q0 10 11 23l84 92q28 28 49 28zM569 959q23 0 40.5 -13t17.5 -29t-20 -29l-87 -67q-37 -27 -67 -27q-28 0 -28 22q0 10 11 23l84 92q28 28 49 28zM411 -13q-144 0 -235 91t-91 228
q0 82 32.5 161t89 139t138 97t172.5 37q144 0 235 -91t91 -228q0 -82 -32.5 -161t-89 -139t-138 -97t-172.5 -37zM424 100q123 0 207 97.5t84 217.5q0 93 -57 152.5t-154 59.5q-123 0 -207 -97t-84 -217q0 -94 57 -153.5t154 -59.5z" />
    <glyph glyph-name="ohungarumlaut" unicode="&#x151;" horiz-adv-x="681" 
d="M614 779q23 0 40 -13t17 -29q0 -17 -19 -29l-87 -67q-37 -27 -67 -27q-28 0 -28 22q0 10 11 23l84 92q28 28 49 28zM426 779q23 0 40.5 -13t17.5 -29t-20 -29l-87 -67q-37 -27 -67 -27q-28 0 -28 22q0 10 11 23l84 92q28 28 49 28zM309 -12q-116 0 -186.5 70t-70.5 179
q0 127 95 224.5t225 97.5q116 0 186.5 -70t70.5 -180q0 -127 -95.5 -224t-224.5 -97zM316 92q79 0 136 67t57 147q0 69 -39.5 108.5t-104.5 39.5q-79 0 -136 -67t-57 -146q0 -70 39 -109.5t105 -39.5z" />
    <glyph glyph-name="OE" unicode="&#x152;" horiz-adv-x="1154" 
d="M981 0h-534q-189 0 -287 98q-76 78 -76 208q0 167 117 286q138 136 378 136h563q22 0 38.5 -16t16.5 -39t-16 -39t-39 -16h-358l-52 -197h281q23 0 39 -16t16 -39q0 -22 -16 -38t-39 -16h-311l-54 -202h333q23 0 39.5 -16t16.5 -39t-16.5 -39t-39.5 -16zM457 111h68
l136 506h-97q-169 0 -271 -102q-81 -81 -81 -203q0 -88 51 -137q64 -64 194 -64z" />
    <glyph glyph-name="oe" unicode="&#x153;" horiz-adv-x="1086" 
d="M765 87q65 0 114 35q22 12 38 12q20 0 33.5 -13t13.5 -34q0 -25 -24 -42q-80 -57 -186 -57q-77 0 -132 32t-79 90q-91 -122 -234 -122q-115 0 -186 70t-71 179q0 128 94 225t225 97q80 0 136 -35.5t81 -95.5q90 131 239 131q103 0 160.5 -59.5t57.5 -152.5q0 -37 -7 -62
q-11 -53 -58 -53h-359v-12q2 -61 39.5 -97t104.5 -36zM634 312h292q5 25 5 39q0 48 -28 78.5t-84 30.5q-64 0 -114 -41.5t-71 -106.5zM315 92q80 0 137 65t57 146q0 69 -39.5 110t-103.5 41q-81 0 -137.5 -65t-56.5 -147q0 -68 39.5 -109t103.5 -41z" />
    <glyph glyph-name="Racute" unicode="&#x154;" horiz-adv-x="761" 
d="M657 878l-90 -67q-37 -27 -74 -27q-33 0 -33 22q0 12 10 23l84 92q28 28 49 28q25 0 49 -13.5t24 -28.5t-19 -29zM218 257l-54 -202q-16 -61 -68 -61q-31 0 -45.5 21.5t-4.5 57.5l159 593q7 29 26 45.5t43 16.5h211q149 0 219 -70q53 -53 53 -137q0 -99 -66 -165
q-62 -62 -179 -86l106 -178q14 -20 14 -41q0 -26 -18 -41.5t-42 -15.5q-46 0 -70 41l-127 222h-157zM248 366h169q117 0 175 56q37 39 37 89q0 42 -26 68q-38 38 -124 38h-164z" />
    <glyph glyph-name="racute" unicode="&#x155;" horiz-adv-x="437" 
d="M483 708l-90 -67q-37 -27 -74 -27q-33 0 -33 22q0 12 10 23l84 92q28 28 49 28q25 0 49 -13.5t24 -28.5t-19 -29zM260 482l-13 -52q35 60 79 92.5t89 32.5q24 0 38.5 -15t14.5 -40q0 -50 -58 -64q-171 -36 -222 -231l-41 -150q-17 -61 -68 -61q-30 0 -44 21.5t-4 56.5
l113 421q15 60 67 60q29 0 43 -19.5t6 -51.5z" />
    <glyph glyph-name="Rcommaaccent" unicode="&#x156;" horiz-adv-x="761" 
d="M218 257l-54 -202q-16 -61 -68 -61q-31 0 -45.5 21.5t-4.5 57.5l159 593q7 29 26 45.5t43 16.5h211q149 0 219 -70q53 -53 53 -137q0 -99 -66 -165q-62 -62 -179 -86l106 -178q14 -20 14 -41q0 -26 -18 -41.5t-42 -15.5q-46 0 -70 41l-127 222h-157zM248 366h169
q117 0 175 56q37 39 37 89q0 42 -26 68q-38 38 -124 38h-164zM263 -166q-46 10 -46 45q0 26 19 45.5t49 19.5q28 0 43.5 -15.5t15.5 -43.5q0 -60 -47 -107q-52 -52 -118 -52q-23 0 -23 19q0 17 27 23q71 14 80 66z" />
    <glyph glyph-name="rcommaaccent" unicode="&#x157;" horiz-adv-x="437" 
d="M260 482l-13 -52q35 60 79 92.5t89 32.5q24 0 38.5 -15t14.5 -40q0 -50 -58 -64q-171 -36 -222 -231l-41 -150q-17 -61 -68 -61q-30 0 -44 21.5t-4 56.5l113 421q15 60 67 60q29 0 43 -19.5t6 -51.5zM34 -171q-46 10 -46 45q0 26 19 45.5t49 19.5q28 0 43.5 -15.5
t15.5 -43.5q0 -60 -47 -107q-52 -52 -118 -52q-23 0 -23 19q0 17 27 23q71 14 80 66z" />
    <glyph glyph-name="Rcaron" unicode="&#x158;" horiz-adv-x="761" 
d="M420 817l-44 81q-10 22 -10 27q0 19 28 19q25 0 40 -4.5t31 -22.5l40 -47l69 47q38 27 76 27q27 0 27 -19q0 -13 -15 -26l-89 -85q-30 -30 -65 -30h-32q-40 0 -56 33zM218 257l-54 -202q-16 -61 -68 -61q-31 0 -45.5 21.5t-4.5 57.5l159 593q7 29 26 45.5t43 16.5h211
q149 0 219 -70q53 -53 53 -137q0 -99 -66 -165q-62 -62 -179 -86l106 -178q14 -20 14 -41q0 -26 -18 -41.5t-42 -15.5q-46 0 -70 41l-127 222h-157zM248 366h169q117 0 175 56q37 39 37 89q0 42 -26 68q-38 38 -124 38h-164z" />
    <glyph glyph-name="rcaron" unicode="&#x159;" horiz-adv-x="437" 
d="M246 647l-44 81q-10 22 -10 27q0 19 28 19q25 0 40 -4.5t31 -22.5l40 -47l69 47q38 27 76 27q27 0 27 -19q0 -13 -15 -26l-89 -85q-30 -30 -65 -30h-32q-40 0 -56 33zM260 482l-13 -52q35 60 79 92.5t89 32.5q24 0 38.5 -15t14.5 -40q0 -50 -58 -64q-171 -36 -222 -231
l-41 -150q-17 -61 -68 -61q-30 0 -44 21.5t-4 56.5l113 421q15 60 67 60q29 0 43 -19.5t6 -51.5z" />
    <glyph glyph-name="Sacute" unicode="&#x15a;" horiz-adv-x="672" 
d="M632 888l-90 -67q-37 -27 -74 -27q-33 0 -33 22q0 12 10 23l84 92q28 28 49 28q25 0 49 -13.5t24 -28.5t-19 -29zM320 98q63 0 104.5 29.5t41.5 75.5q0 34 -29 58.5t-107 55.5q-95 38 -142.5 81t-47.5 114q0 100 80 163t200 63q132 0 225 -73q29 -20 29 -51
q0 -25 -17.5 -42.5t-43.5 -17.5q-22 0 -36 13q-74 63 -167 63q-63 0 -101 -29.5t-38 -70.5q0 -35 30.5 -58t113.5 -56q92 -36 136.5 -80t44.5 -115q0 -103 -82 -167t-201 -64q-172 0 -271 95q-23 19 -23 51q0 26 17 44t42 18q22 0 41 -17q46 -44 92 -63.5t109 -19.5z" />
    <glyph glyph-name="sacute" unicode="&#x15b;" horiz-adv-x="528" 
d="M515 708l-90 -67q-37 -27 -74 -27q-33 0 -33 22q0 12 10 23l84 92q28 28 49 28q25 0 49 -13.5t24 -28.5t-19 -29zM240 83q39 0 65.5 18.5t26.5 49.5q0 21 -19.5 37.5t-63.5 33.5q-80 32 -118.5 65.5t-38.5 90.5q0 78 58.5 129.5t155.5 51.5q94 0 176 -52q28 -18 28 -47
q0 -22 -14.5 -37t-36.5 -15q-15 0 -32 12q-66 44 -130 44q-41 0 -64.5 -18.5t-23.5 -46.5q0 -21 20 -37t70 -37q74 -32 112 -65.5t38 -87.5q0 -83 -61.5 -133.5t-156.5 -50.5q-118 0 -212 71q-23 17 -23 44q0 21 14.5 36.5t35.5 15.5q18 0 35 -13q74 -59 159 -59z" />
    <glyph glyph-name="Scedilla" unicode="&#x15e;" horiz-adv-x="672" 
d="M221 -139q-17 -26 -42 -26q-19 0 -37.5 13.5t-18.5 29.5q0 15 14 30l86 90q-111 20 -181 87q-23 19 -23 51q0 26 17 44t42 18q22 0 41 -17q46 -44 92 -63.5t109 -19.5t104.5 29.5t41.5 75.5q0 34 -29 58.5t-107 55.5q-95 38 -142.5 81t-47.5 114q0 100 80 163t200 63
q132 0 225 -73q29 -20 29 -51q0 -25 -17.5 -42.5t-43.5 -17.5q-22 0 -36 13q-74 63 -167 63q-63 0 -101 -29.5t-38 -70.5q0 -35 30.5 -58t113.5 -56q92 -36 136.5 -80t44.5 -115q0 -103 -82 -167t-201 -64h-1z" />
    <glyph glyph-name="scedilla" unicode="&#x15f;" horiz-adv-x="528" 
d="M105 -165q-19 0 -37.5 13.5t-18.5 29.5q0 15 14 30l86 90q-71 16 -130 61q-23 17 -23 44q0 21 14.5 36.5t35.5 15.5q18 0 35 -13q74 -59 159 -59q39 0 65.5 18.5t26.5 49.5q0 21 -19.5 37.5t-63.5 33.5q-80 32 -118.5 65.5t-38.5 90.5q0 78 58.5 129.5t155.5 51.5
q94 0 176 -52q28 -18 28 -47q0 -22 -14.5 -37t-36.5 -15q-15 0 -32 12q-66 44 -130 44q-41 0 -64.5 -18.5t-23.5 -46.5q0 -21 20 -37t70 -37q74 -32 112 -65.5t38 -87.5q0 -82 -61 -133t-151 -51l-90 -127q-17 -26 -42 -26z" />
    <glyph glyph-name="Scaron" unicode="&#x160;" horiz-adv-x="672" 
d="M395 827l-44 81q-10 22 -10 27q0 19 28 19q25 0 40 -4.5t31 -22.5l40 -47l69 47q38 27 76 27q27 0 27 -19q0 -13 -15 -26l-89 -85q-30 -30 -65 -30h-32q-40 0 -56 33zM320 98q63 0 104.5 29.5t41.5 75.5q0 34 -29 58.5t-107 55.5q-95 38 -142.5 81t-47.5 114
q0 100 80 163t200 63q132 0 225 -73q29 -20 29 -51q0 -25 -17.5 -42.5t-43.5 -17.5q-22 0 -36 13q-74 63 -167 63q-63 0 -101 -29.5t-38 -70.5q0 -35 30.5 -58t113.5 -56q92 -36 136.5 -80t44.5 -115q0 -103 -82 -167t-201 -64q-172 0 -271 95q-23 19 -23 51q0 26 17 44
t42 18q22 0 41 -17q46 -44 92 -63.5t109 -19.5z" />
    <glyph glyph-name="scaron" unicode="&#x161;" horiz-adv-x="528" 
d="M279 647l-44 81q-10 22 -10 27q0 19 28 19q25 0 40 -4.5t31 -22.5l40 -47l69 47q38 27 76 27q27 0 27 -19q0 -13 -15 -26l-89 -85q-30 -30 -65 -30h-32q-40 0 -56 33zM240 83q39 0 65.5 18.5t26.5 49.5q0 21 -19.5 37.5t-63.5 33.5q-80 32 -118.5 65.5t-38.5 90.5
q0 78 58.5 129.5t155.5 51.5q94 0 176 -52q28 -18 28 -47q0 -22 -14.5 -37t-36.5 -15q-15 0 -32 12q-66 44 -130 44q-41 0 -64.5 -18.5t-23.5 -46.5q0 -21 20 -37t70 -37q74 -32 112 -65.5t38 -87.5q0 -83 -61.5 -133.5t-156.5 -50.5q-118 0 -212 71q-23 17 -23 44
q0 21 14.5 36.5t35.5 15.5q18 0 35 -13q74 -59 159 -59z" />
    <glyph glyph-name="Tcommaaccent" unicode="&#x162;" horiz-adv-x="653" 
d="M477 615l-151 -560q-16 -61 -68 -61q-31 0 -45.5 21.5t-4.5 57.5l146 542h-166q-23 0 -40 16.5t-17 39.5t17 40t40 17h485q23 0 40 -17t17 -40t-17 -39.5t-40 -16.5h-196zM215 -171q-46 10 -46 45q0 26 19 45.5t49 19.5q28 0 43.5 -15.5t15.5 -43.5q0 -60 -47 -107
q-52 -52 -118 -52q-23 0 -23 19q0 17 27 23q71 14 80 66z" />
    <glyph glyph-name="Tcommaaccent" unicode="&#x21a;" horiz-adv-x="653" 
d="M477 615l-151 -560q-16 -61 -68 -61q-31 0 -45.5 21.5t-4.5 57.5l146 542h-166q-23 0 -40 16.5t-17 39.5t17 40t40 17h485q23 0 40 -17t17 -40t-17 -39.5t-40 -16.5h-196zM215 -171q-46 10 -46 45q0 26 19 45.5t49 19.5q28 0 43.5 -15.5t15.5 -43.5q0 -60 -47 -107
q-52 -52 -118 -52q-23 0 -23 19q0 17 27 23q71 14 80 66z" />
    <glyph glyph-name="tcommaaccent" unicode="&#x163;" horiz-adv-x="435" 
d="M185 548l27 97q15 60 67 60q30 0 44 -21t5 -56l-22 -80h89q21 0 36 -15t15 -37t-15 -37t-36 -15h-117l-72 -271q-5 -17 -5 -32q0 -43 56 -43q17 0 23 2q22 2 35 -10t13 -35q0 -36 -34 -51q-32 -13 -83 -13q-65 0 -101.5 29t-36.5 78q0 26 9 64l75 282h-17q-18 2 -32 16
t-14 36t15 37t36 15h40zM136 -171q-46 10 -46 45q0 26 19 45.5t49 19.5q28 0 43.5 -15.5t15.5 -43.5q0 -60 -47 -107q-52 -52 -118 -52q-23 0 -23 19q0 17 27 23q71 14 80 66z" />
    <glyph glyph-name="tcommaaccent" unicode="&#x21b;" horiz-adv-x="435" 
d="M185 548l27 97q15 60 67 60q30 0 44 -21t5 -56l-22 -80h89q21 0 36 -15t15 -37t-15 -37t-36 -15h-117l-72 -271q-5 -17 -5 -32q0 -43 56 -43q17 0 23 2q22 2 35 -10t13 -35q0 -36 -34 -51q-32 -13 -83 -13q-65 0 -101.5 29t-36.5 78q0 26 9 64l75 282h-17q-18 2 -32 16
t-14 36t15 37t36 15h40zM136 -171q-46 10 -46 45q0 26 19 45.5t49 19.5q28 0 43.5 -15.5t15.5 -43.5q0 -60 -47 -107q-52 -52 -118 -52q-23 0 -23 19q0 17 27 23q71 14 80 66z" />
    <glyph glyph-name="Tcaron" unicode="&#x164;" horiz-adv-x="653" 
d="M396 817l-44 81q-10 22 -10 27q0 19 28 19q25 0 40 -4.5t31 -22.5l40 -47l69 47q38 27 76 27q27 0 27 -19q0 -13 -15 -26l-89 -85q-30 -30 -65 -30h-32q-40 0 -56 33zM477 615l-151 -560q-16 -61 -68 -61q-31 0 -45.5 21.5t-4.5 57.5l146 542h-166q-23 0 -40 16.5
t-17 39.5t17 40t40 17h485q23 0 40 -17t17 -40t-17 -39.5t-40 -16.5h-196z" />
    <glyph glyph-name="tcaron" unicode="&#x165;" horiz-adv-x="435" 
d="M401 641l39 129q13 41 54 41h21q24 0 24 -20q0 -11 -11 -31l-72 -127q-14 -24 -35 -24q-22 0 -22 19q0 5 2 13zM185 548l27 97q15 60 67 60q30 0 44 -21t5 -56l-22 -80h89q21 0 36 -15t15 -37t-15 -37t-36 -15h-117l-72 -271q-5 -17 -5 -32q0 -43 56 -43q17 0 23 2
q22 2 35 -10t13 -35q0 -36 -34 -51q-32 -13 -83 -13q-65 0 -101.5 29t-36.5 78q0 26 9 64l75 282h-17q-18 2 -32 16t-14 36t15 37t36 15h40z" />
    <glyph glyph-name="Umacron" unicode="&#x16a;" horiz-adv-x="802" 
d="M684 802h-276q-18 0 -31.5 13t-13.5 31t13.5 31t31.5 13h276q18 0 31 -13t13 -31q0 -19 -13 -31.5t-31 -12.5zM812 655l-97 -361q-37 -138 -114 -215q-89 -90 -237 -90q-127 0 -198 64t-71 175q0 53 16 115l88 330q17 61 69 61q30 0 44.5 -21.5t5.5 -57.5l-89 -330
q-10 -48 -10 -80q0 -65 40.5 -104t116.5 -39q81 0 139 56q54 52 82 155l96 360q17 61 69 61q30 0 44.5 -21.5t5.5 -57.5z" />
    <glyph glyph-name="umacron" unicode="&#x16b;" horiz-adv-x="652" 
d="M565 632h-276q-18 0 -31.5 13t-13.5 31t13.5 31t31.5 13h276q18 0 31 -13t13 -31q0 -19 -13 -31.5t-31 -12.5zM439 -6q-25 0 -39.5 15t-13.5 38l7 25q-83 -83 -169 -83q-77 0 -122.5 44.5t-45.5 119.5q0 33 16 95l65 245q15 60 68 60q30 0 44 -21t4 -56l-62 -233
q-8 -27 -8 -55q0 -43 26 -66.5t72 -23.5q54 0 96.5 39t59.5 103l68 253q15 60 67 60q31 0 45 -21t4 -56l-112 -421q-17 -61 -70 -61z" />
    <glyph glyph-name="Ubreve" unicode="&#x16c;" horiz-adv-x="802" 
d="M544 787q-65 0 -106 33.5t-41 80.5q0 20 12.5 32t31.5 12q29 0 39 -25q20 -48 76 -48q50 0 88 49q22 24 45 24q17 0 27 -9.5t10 -26.5q0 -15 -10 -29q-27 -41 -72 -67t-100 -26zM812 655l-97 -361q-37 -138 -114 -215q-89 -90 -237 -90q-127 0 -198 64t-71 175
q0 53 16 115l88 330q17 61 69 61q30 0 44.5 -21.5t5.5 -57.5l-89 -330q-10 -48 -10 -80q0 -65 40.5 -104t116.5 -39q81 0 139 56q54 52 82 155l96 360q17 61 69 61q30 0 44.5 -21.5t5.5 -57.5z" />
    <glyph glyph-name="ubreve" unicode="&#x16d;" horiz-adv-x="652" 
d="M425 617q-65 0 -106 33.5t-41 80.5q0 20 12.5 32t31.5 12q29 0 39 -25q20 -48 76 -48q50 0 88 49q22 24 45 24q17 0 27 -9.5t10 -26.5q0 -15 -10 -29q-27 -41 -72 -67t-100 -26zM439 -6q-25 0 -39.5 15t-13.5 38l7 25q-83 -83 -169 -83q-77 0 -122.5 44.5t-45.5 119.5
q0 33 16 95l65 245q15 60 68 60q30 0 44 -21t4 -56l-62 -233q-8 -27 -8 -55q0 -43 26 -66.5t72 -23.5q54 0 96.5 39t59.5 103l68 253q15 60 67 60q31 0 45 -21t4 -56l-112 -421q-17 -61 -70 -61z" />
    <glyph glyph-name="Uring" unicode="&#x16e;" horiz-adv-x="802" 
d="M547 780q-49 0 -78.5 28.5t-29.5 72.5q0 52 38.5 89.5t91.5 37.5q49 0 78.5 -28.5t29.5 -71.5q0 -52 -38.5 -90t-91.5 -38zM549 829q31 0 51.5 23.5t20.5 54.5q0 23 -14 37.5t-40 14.5q-31 0 -51.5 -23t-20.5 -54q0 -23 14.5 -38t39.5 -15zM812 655l-97 -361
q-37 -138 -114 -215q-89 -90 -237 -90q-127 0 -198 64t-71 175q0 53 16 115l88 330q17 61 69 61q30 0 44.5 -21.5t5.5 -57.5l-89 -330q-10 -48 -10 -80q0 -65 40.5 -104t116.5 -39q81 0 139 56q54 52 82 155l96 360q17 61 69 61q30 0 44.5 -21.5t5.5 -57.5z" />
    <glyph glyph-name="uring" unicode="&#x16f;" horiz-adv-x="652" 
d="M430 615q-49 0 -78.5 28.5t-29.5 72.5q0 52 38.5 89.5t91.5 37.5q49 0 78.5 -28.5t29.5 -71.5q0 -52 -38.5 -90t-91.5 -38zM432 664q31 0 51.5 23.5t20.5 54.5q0 23 -14 37.5t-40 14.5q-31 0 -51.5 -23t-20.5 -54q0 -23 14.5 -38t39.5 -15zM439 -6q-25 0 -39.5 15
t-13.5 38l7 25q-83 -83 -169 -83q-77 0 -122.5 44.5t-45.5 119.5q0 33 16 95l65 245q15 60 68 60q30 0 44 -21t4 -56l-62 -233q-8 -27 -8 -55q0 -43 26 -66.5t72 -23.5q54 0 96.5 39t59.5 103l68 253q15 60 67 60q31 0 45 -21t4 -56l-112 -421q-17 -61 -70 -61z" />
    <glyph glyph-name="Uhungarumlaut" unicode="&#x170;" horiz-adv-x="802" 
d="M717 949q23 0 40 -13t17 -29q0 -17 -19 -29l-87 -67q-37 -27 -67 -27q-28 0 -28 22q0 10 11 23l84 92q28 28 49 28zM529 949q23 0 40.5 -13t17.5 -29t-20 -29l-87 -67q-37 -27 -67 -27q-28 0 -28 22q0 10 11 23l84 92q28 28 49 28zM812 655l-97 -361q-37 -138 -114 -215
q-89 -90 -237 -90q-127 0 -198 64t-71 175q0 53 16 115l88 330q17 61 69 61q30 0 44.5 -21.5t5.5 -57.5l-89 -330q-10 -48 -10 -80q0 -65 40.5 -104t116.5 -39q81 0 139 56q54 52 82 155l96 360q17 61 69 61q30 0 44.5 -21.5t5.5 -57.5z" />
    <glyph glyph-name="uhungarumlaut" unicode="&#x171;" horiz-adv-x="652" 
d="M598 779q23 0 40 -13t17 -29q0 -17 -19 -29l-87 -67q-37 -27 -67 -27q-28 0 -28 22q0 10 11 23l84 92q28 28 49 28zM410 779q23 0 40.5 -13t17.5 -29t-20 -29l-87 -67q-37 -27 -67 -27q-28 0 -28 22q0 10 11 23l84 92q28 28 49 28zM439 -6q-25 0 -39.5 15t-13.5 38l7 25
q-83 -83 -169 -83q-77 0 -122.5 44.5t-45.5 119.5q0 33 16 95l65 245q15 60 68 60q30 0 44 -21t4 -56l-62 -233q-8 -27 -8 -55q0 -43 26 -66.5t72 -23.5q54 0 96.5 39t59.5 103l68 253q15 60 67 60q31 0 45 -21t4 -56l-112 -421q-17 -61 -70 -61z" />
    <glyph glyph-name="Uogonek" unicode="&#x172;" horiz-adv-x="802" 
d="M334 -173q-50 0 -78.5 19t-28.5 50q0 46 65 99q-94 17 -145.5 78.5t-51.5 154.5q0 53 16 115l88 330q17 61 69 61q30 0 44.5 -21.5t5.5 -57.5l-89 -330q-10 -48 -10 -80q0 -65 40.5 -104t116.5 -39q81 0 139 56q54 52 82 155l96 360q17 61 69 61q30 0 44.5 -21.5
t5.5 -57.5l-97 -361q-37 -138 -114 -215q-87 -89 -230 -90q-46 -42 -46 -68q0 -12 8.5 -19t30.5 -12q29 -9 28 -30q-2 -33 -58 -33z" />
    <glyph glyph-name="uogonek" unicode="&#x173;" horiz-adv-x="652" 
d="M621 476l-112 -421q-8 -28 -30 -49q-65 -55 -65 -85q0 -12 8.5 -19t30.5 -12q29 -9 28 -30q-2 -33 -58 -33q-50 0 -78.5 19t-28.5 50q0 53 85 115q-15 13 -15 36l7 25q-83 -83 -169 -83q-77 0 -122.5 44.5t-45.5 119.5q0 33 16 95l65 245q15 60 68 60q30 0 44 -21t4 -56
l-62 -233q-8 -27 -8 -55q0 -43 26 -66.5t72 -23.5q54 0 96.5 39t59.5 103l68 253q15 60 67 60q31 0 45 -21t4 -56z" />
    <glyph glyph-name="Wcircumflex" unicode="&#x174;" horiz-adv-x="1150" 
d="M806 912l43 -82q11 -22 11 -26q0 -20 -29 -20q-24 0 -39.5 4.5t-31.5 22.5l-40 47l-68 -47q-39 -27 -77 -27q-26 0 -26 19q0 11 14 27l90 84q28 30 64 30h32q39 0 57 -32zM1194 649l-381 -608q-31 -51 -82 -51h-5q-54 0 -56 55l-35 475l-291 -479q-32 -51 -80 -51h-5
q-52 0 -57 55l-55 602q0 4 -0.5 14.5t-0.5 14.5q0 25 17.5 41.5t45.5 16.5t44.5 -14.5t17.5 -39.5l36 -499l301 506q27 48 70 48h6q51 0 56 -49l32 -505l310 511q25 42 67 42q25 0 40.5 -14t15.5 -36q0 -18 -11 -35z" />
    <glyph glyph-name="wcircumflex" unicode="&#x175;" horiz-adv-x="897" 
d="M638 742l43 -82q11 -22 11 -26q0 -20 -29 -20q-24 0 -39.5 4.5t-31.5 22.5l-40 47l-68 -47q-39 -27 -77 -27q-26 0 -26 19q0 11 14 27l90 84q28 30 64 30h32q39 0 57 -32zM129 47l-31 419q0 4 -0.5 14.5t-0.5 15.5q0 24 18.5 40.5t43.5 16.5q27 0 43 -14t17 -39l17 -333
l201 339q29 48 71 48h6q51 0 54 -49l20 -339l207 350q23 37 58 37q23 0 36 -12t13 -33q0 -18 -11 -35l-265 -433q-28 -49 -77 -49h-4q-53 0 -56 56l-21 330l-202 -337q-28 -49 -78 -49h-3q-53 0 -56 56z" />
    <glyph glyph-name="Ycircumflex" unicode="&#x176;" horiz-adv-x="693" 
d="M575 912l43 -82q11 -22 11 -26q0 -20 -29 -20q-24 0 -39.5 4.5t-31.5 22.5l-40 47l-68 -47q-39 -27 -77 -27q-26 0 -26 19q0 11 14 27l90 84q28 30 64 30h32q39 0 57 -32zM400 272l-58 -217q-16 -61 -68 -61q-31 0 -45.5 21.5t-4.5 57.5l57 213l-146 343q-11 26 -11 46
q0 25 18 42t47 17q43 0 60 -49l116 -293l287 307q33 35 66 35q24 0 38 -13.5t14 -36.5q0 -28 -22 -50z" />
    <glyph glyph-name="ycircumflex" unicode="&#x177;" horiz-adv-x="617" 
d="M487 742l43 -82q11 -22 11 -26q0 -20 -29 -20q-24 0 -39.5 4.5t-31.5 22.5l-40 47l-68 -47q-39 -27 -77 -27q-26 0 -26 19q0 11 14 27l90 84q28 30 64 30h32q39 0 57 -32zM30 -54q33 -12 57 -12q48 0 94 65l-78 467q-3 13 -3 30q0 24 17.5 40.5t42.5 16.5q26 0 42 -14
t18 -39l52 -367l235 381q21 39 62 39q24 0 38.5 -12.5t14.5 -34.5q0 -16 -16 -42l-311 -479q-54 -84 -106 -119.5t-117 -35.5q-48 0 -81 17q-37 16 -37 52q0 22 15 37.5t34 15.5q9 0 27 -6z" />
    <glyph glyph-name="Ydieresis" unicode="&#x178;" horiz-adv-x="693" 
d="M650 841q-6 -27 -26.5 -42.5t-48.5 -15.5q-30 0 -46 17t-9 43l4 15q6 27 26.5 42.5t48.5 15.5t44 -17.5t11 -42.5zM446 841q-6 -27 -26.5 -42.5t-48.5 -15.5q-30 0 -46 17t-9 43l4 15q6 27 26.5 42.5t48.5 15.5t44 -17.5t11 -42.5zM400 272l-58 -217q-16 -61 -68 -61
q-31 0 -45.5 21.5t-4.5 57.5l57 213l-146 343q-11 26 -11 46q0 25 18 42t47 17q43 0 60 -49l116 -293l287 307q33 35 66 35q24 0 38 -13.5t14 -36.5q0 -28 -22 -50z" />
    <glyph glyph-name="Zacute" unicode="&#x179;" horiz-adv-x="717" 
d="M651 878l-90 -67q-37 -27 -74 -27q-33 0 -33 22q0 12 10 23l84 92q28 28 49 28q25 0 49 -13.5t24 -28.5t-19 -29zM30 110l543 510h-344q-22 0 -38 15.5t-16 37.5q0 23 16 39t38 16h479q24 0 38.5 -12.5t14.5 -34.5v-1q0 -30 -34 -62l-543 -510h362q23 0 39 -16t16 -38
t-16 -38t-39 -16h-496q-25 0 -39 12.5t-14 34.5v1q0 29 33 62z" />
    <glyph glyph-name="zacute" unicode="&#x17a;" horiz-adv-x="585" 
d="M538 708l-90 -67q-37 -27 -74 -27q-33 0 -33 22q0 12 10 23l84 92q28 28 49 28q25 0 49 -13.5t24 -28.5t-19 -29zM170 548h364q25 0 39.5 -12t14.5 -32v-1q0 -29 -29 -54l-392 -350h257q21 0 35.5 -14.5t14.5 -35.5q0 -20 -14.5 -34.5t-35.5 -14.5h-377q-25 0 -39.5 12
t-14.5 32v1q0 29 29 54l391 350h-243q-20 0 -35 14.5t-15 34.5t15 35t35 15z" />
    <glyph glyph-name="Zdotaccent" unicode="&#x17b;" horiz-adv-x="717" 
d="M560 841q-6 -27 -27 -42.5t-50 -15.5t-45.5 17t-10.5 43l4 15q6 26 27 42t49 16t45 -17.5t12 -42.5zM30 110l543 510h-344q-22 0 -38 15.5t-16 37.5q0 23 16 39t38 16h479q24 0 38.5 -12.5t14.5 -34.5v-1q0 -30 -34 -62l-543 -510h362q23 0 39 -16t16 -38t-16 -38
t-39 -16h-496q-25 0 -39 12.5t-14 34.5v1q0 29 33 62z" />
    <glyph glyph-name="zdotaccent" unicode="&#x17c;" horiz-adv-x="585" 
d="M448 671q-6 -27 -27 -42.5t-50 -15.5t-45.5 17t-10.5 43l4 15q6 26 27 42t49 16t45 -17.5t12 -42.5zM170 548h364q25 0 39.5 -12t14.5 -32v-1q0 -29 -29 -54l-392 -350h257q21 0 35.5 -14.5t14.5 -35.5q0 -20 -14.5 -34.5t-35.5 -14.5h-377q-25 0 -39.5 12t-14.5 32v1
q0 29 29 54l391 350h-243q-20 0 -35 14.5t-15 34.5t15 35t35 15z" />
    <glyph glyph-name="Zcaron" unicode="&#x17d;" horiz-adv-x="717" 
d="M414 817l-44 81q-10 22 -10 27q0 19 28 19q25 0 40 -4.5t31 -22.5l40 -47l69 47q38 27 76 27q27 0 27 -19q0 -13 -15 -26l-89 -85q-30 -30 -65 -30h-32q-40 0 -56 33zM30 110l543 510h-344q-22 0 -38 15.5t-16 37.5q0 23 16 39t38 16h479q24 0 38.5 -12.5t14.5 -34.5v-1
q0 -30 -34 -62l-543 -510h362q23 0 39 -16t16 -38t-16 -38t-39 -16h-496q-25 0 -39 12.5t-14 34.5v1q0 29 33 62z" />
    <glyph glyph-name="zcaron" unicode="&#x17e;" horiz-adv-x="585" 
d="M302 647l-44 81q-10 22 -10 27q0 19 28 19q25 0 40 -4.5t31 -22.5l40 -47l69 47q38 27 76 27q27 0 27 -19q0 -13 -15 -26l-89 -85q-30 -30 -65 -30h-32q-40 0 -56 33zM170 548h364q25 0 39.5 -12t14.5 -32v-1q0 -29 -29 -54l-392 -350h257q21 0 35.5 -14.5t14.5 -35.5
q0 -20 -14.5 -34.5t-35.5 -14.5h-377q-25 0 -39.5 12t-14.5 32v1q0 29 29 54l391 350h-243q-20 0 -35 14.5t-15 34.5t15 35t35 15z" />
    <glyph glyph-name="florin" unicode="&#x192;" horiz-adv-x="569" 
d="M59 -12q-30 0 -49 13t-19 39q0 24 17 36.5t41 12.5q60 1 95 83l89 200h-31q-19 0 -33.5 14.5t-14.5 35.5q0 22 15 36.5t36 14.5h73l47 107q34 78 88.5 118.5t123.5 40.5q34 0 56 -6q42 -11 42 -49q0 -24 -16 -38.5t-36 -12.5q-3 0 -18 2t-25 2q-71 0 -111 -91l-33 -73h80
q21 0 36 -15t15 -36t-15 -35.5t-36 -14.5h-125l-104 -236q-66 -148 -188 -148z" />
    <glyph glyph-name="Aringacute" unicode="&#x1fa;" horiz-adv-x="797" 
d="M751 1034l-90 -67q-37 -27 -74 -27q-33 0 -33 22q0 12 10 23l84 92q28 28 49 28q25 0 49 -13.5t24 -28.5t-19 -29zM42 -6q-23 0 -37 13.5t-14 35.5q0 20 15 40l455 632q-35 26 -35 75q0 52 37.5 89.5t91.5 37.5q49 0 79 -28.5t30 -71.5q0 -35 -19.5 -65.5t-50.5 -45.5
l114 -620q4 -22 4 -33q0 -24 -18 -41.5t-44 -17.5q-52 0 -61 51l-22 132h-360l-102 -143q-29 -40 -63 -40zM536 738q31 0 51.5 23.5t20.5 54.5q0 23 -14.5 37.5t-40.5 14.5q-31 0 -51 -23t-20 -55q0 -22 14.5 -37t39.5 -15zM283 287h265l-52 303z" />
    <glyph glyph-name="aringacute" unicode="&#x1fb;" horiz-adv-x="615" 
d="M613 970l-90 -67q-37 -27 -74 -27q-33 0 -33 22q0 12 10 23l84 92q28 28 49 28q25 0 49 -13.5t24 -28.5t-19 -29zM407 617q-49 0 -78.5 28.5t-29.5 72.5q0 52 38.5 89.5t91.5 37.5q49 0 78.5 -28.5t29.5 -71.5q0 -52 -38.5 -90t-91.5 -38zM409 666q31 0 51.5 23.5
t20.5 54.5q0 23 -14 37.5t-40 14.5q-31 0 -51.5 -23t-20.5 -54q0 -23 14.5 -38t39.5 -15zM232 76q58 0 107.5 38.5t66.5 95.5l7 26q-68 22 -138 22q-60 0 -98 -29t-38 -77q0 -34 25.5 -55t67.5 -21zM412 -6q-31 0 -42.5 17t-8.5 40l6 23q-77 -85 -183 -85q-71 0 -118.5 41
t-47.5 108q0 92 67.5 145t172.5 53q85 0 173 -27l3 10q7 24 7 46q0 86 -125 86q-57 0 -109 -16q-2 0 -10.5 -1.5t-11.5 -1.5q-20 0 -34 14t-14 35q0 36 38 48q78 26 165 26q106 0 162 -44.5t56 -124.5q0 -30 -11 -80l-68 -251q-16 -61 -67 -61z" />
    <glyph glyph-name="AEacute" unicode="&#x1fc;" horiz-adv-x="1114" 
d="M941 878l-90 -67q-37 -27 -74 -27q-33 0 -33 22q0 12 10 23l84 92q28 28 49 28q25 0 49 -13.5t24 -28.5t-19 -29zM323 287h210l89 334h-22zM602 728h500q22 0 38.5 -16t16.5 -39t-16 -39t-39 -16h-358l-53 -197h282q23 0 39 -16t16 -39q0 -22 -16 -38t-39 -16h-311
l-55 -202h334q23 0 39.5 -16t16.5 -39t-16.5 -39t-39.5 -16h-415q-31 0 -45.5 21t-4.5 56l27 100h-269l-121 -145q-30 -38 -61 -38q-22 0 -35 12.5t-13 32.5q0 25 19 48l495 594q40 47 84 47z" />
    <glyph glyph-name="aeacute" unicode="&#x1fd;" horiz-adv-x="997" 
d="M745 708l-90 -67q-37 -27 -74 -27q-33 0 -33 22q0 12 10 23l84 92q28 28 49 28q25 0 49 -13.5t24 -28.5t-19 -29zM545 312h292q5 25 5 39q0 48 -28 78.5t-84 30.5q-64 0 -114 -41.5t-71 -106.5zM956 347q0 -35 -6 -61q-12 -54 -60 -54h-358v-12q2 -61 39.5 -97t104.5 -36
q65 0 114 35q22 12 38 12q20 0 33.5 -13t13.5 -34q0 -25 -24 -42q-79 -57 -186 -57q-151 0 -212 115q-109 -114 -255 -114q-83 0 -131.5 40.5t-48.5 110.5q0 91 68 143.5t173 52.5q86 0 172 -27l3 10q7 24 7 46q0 86 -125 86q-59 0 -109 -16q-2 0 -10.5 -1.5t-11.5 -1.5
q-20 0 -34 14t-14 35q0 36 38 48q76 26 165 26q149 0 189 -98q90 102 213 102q100 0 157 -60t57 -152zM276 258q-60 0 -98.5 -29t-38.5 -75q0 -36 26 -57t75 -21q48 0 98.5 24t92.5 67q-4 22 -6 49q0 2 0.5 7t0.5 8q-68 27 -150 27z" />
    <glyph glyph-name="Oslashacute" unicode="&#x1fe;" horiz-adv-x="880" 
d="M752 888l-90 -67q-37 -27 -74 -27q-33 0 -33 22q0 12 10 23l84 92q28 28 49 28q25 0 49 -13.5t24 -28.5t-19 -29zM182 73l-77 -64q-22 -20 -42 -20q-17 0 -27.5 10.5t-10.5 25.5q0 19 25 42l81 68q-46 75 -46 171q0 82 32.5 161t89 139t138 97t172.5 37q141 0 232 -88
l80 67q22 20 42 20q17 0 27.5 -10.5t10.5 -25.5q0 -19 -25 -42l-85 -73q44 -75 44 -167q0 -82 -32.5 -161t-89 -139t-138 -97t-172.5 -37q-137 0 -229 86zM209 313q0 -58 20 -99l428 360q-58 58 -153 58q-123 0 -209 -99.5t-86 -219.5zM424 96q123 0 209 99.5t86 219.5
q0 52 -19 93l-426 -357q55 -55 150 -55z" />
    <glyph glyph-name="oslashacute" unicode="&#x1ff;" horiz-adv-x="681" 
d="M602 708l-90 -67q-37 -27 -74 -27q-33 0 -33 22q0 12 10 23l84 92q28 28 49 28q25 0 49 -13.5t24 -28.5t-19 -29zM141 43l-41 -36q-22 -18 -41 -18q-16 0 -26.5 10t-10.5 25q0 18 20 38l46 39q-36 57 -36 136q0 127 95 224.5t225 97.5q99 0 163 -53l41 36q21 17 41 17
q16 0 26.5 -9.5t10.5 -24.5q0 -18 -20 -38l-44 -37q39 -62 39 -141q0 -127 -95.5 -224t-224.5 -97q-100 0 -168 55zM169 241q0 -34 9 -59l278 248q-36 28 -91 28q-80 0 -138 -68t-58 -149zM316 89q79 0 137.5 67.5t58.5 149.5q0 31 -10 63l-281 -251q37 -29 95 -29z" />
    <glyph glyph-name="Scommaaccent" unicode="&#x218;" horiz-adv-x="672" 
d="M320 98q63 0 104.5 29.5t41.5 75.5q0 34 -29 58.5t-107 55.5q-95 38 -142.5 81t-47.5 114q0 100 80 163t200 63q132 0 225 -73q29 -20 29 -51q0 -25 -17.5 -42.5t-43.5 -17.5q-22 0 -36 13q-74 63 -167 63q-63 0 -101 -29.5t-38 -70.5q0 -35 30.5 -58t113.5 -56
q92 -36 136.5 -80t44.5 -115q0 -103 -82 -167t-201 -64q-172 0 -271 95q-23 19 -23 51q0 26 17 44t42 18q22 0 41 -17q46 -44 92 -63.5t109 -19.5zM214 -174q-46 10 -46 45q0 26 19 45.5t49 19.5q28 0 43.5 -15.5t15.5 -43.5q0 -60 -47 -107q-52 -52 -118 -52q-23 0 -23 19
q0 17 27 23q71 14 80 66z" />
    <glyph glyph-name="scommaaccent" unicode="&#x219;" horiz-adv-x="528" 
d="M240 83q39 0 65.5 18.5t26.5 49.5q0 21 -19.5 37.5t-63.5 33.5q-80 32 -118.5 65.5t-38.5 90.5q0 78 58.5 129.5t155.5 51.5q94 0 176 -52q28 -18 28 -47q0 -22 -14.5 -37t-36.5 -15q-15 0 -32 12q-66 44 -130 44q-41 0 -64.5 -18.5t-23.5 -46.5q0 -21 20 -37t70 -37
q74 -32 112 -65.5t38 -87.5q0 -83 -61.5 -133.5t-156.5 -50.5q-118 0 -212 71q-23 17 -23 44q0 21 14.5 36.5t35.5 15.5q18 0 35 -13q74 -59 159 -59zM140 -171q-46 10 -46 45q0 26 19 45.5t49 19.5q28 0 43.5 -15.5t15.5 -43.5q0 -60 -47 -107q-52 -52 -118 -52
q-23 0 -23 19q0 17 27 23q71 14 80 66z" />
    <glyph glyph-name="schwa" unicode="&#x259;" horiz-adv-x="633" 
d="M322 461q-66 0 -115 -35q-22 -12 -38 -12q-20 0 -33 13t-13 34q0 26 23 42q79 57 187 57q114 0 181.5 -64.5t67.5 -173.5q0 -128 -93 -230.5t-230 -102.5q-102 0 -160 60t-58 152q0 31 7 61q11 54 60 54h357q0 2 0.5 6t0.5 6q-3 61 -40.5 97t-103.5 36zM453 236h-292
q-5 -17 -5 -39q0 -48 28 -78.5t84 -30.5q64 0 113.5 41.5t71.5 106.5z" />
    <glyph glyph-name="circumflex" unicode="&#x2c6;" 
d="M469 742l43 -82q11 -22 11 -26q0 -20 -29 -20q-24 0 -39.5 4.5t-31.5 22.5l-40 47l-68 -47q-39 -27 -77 -27q-26 0 -26 19q0 11 14 27l90 84q28 30 64 30h32q39 0 57 -32z" />
    <glyph glyph-name="caron" unicode="&#x2c7;" 
d="M285 647l-44 81q-10 22 -10 27q0 19 28 19q25 0 40 -4.5t31 -22.5l40 -47l69 47q38 27 76 27q27 0 27 -19q0 -13 -15 -26l-89 -85q-30 -30 -65 -30h-32q-40 0 -56 33z" />
    <glyph glyph-name="breve" unicode="&#x2d8;" 
d="M371 617q-65 0 -106 33.5t-41 80.5q0 20 12.5 32t31.5 12q29 0 39 -25q20 -48 76 -48q50 0 88 49q22 24 45 24q17 0 27 -9.5t10 -26.5q0 -15 -10 -29q-27 -41 -72 -67t-100 -26z" />
    <glyph glyph-name="dotaccent" unicode="&#x2d9;" 
d="M439 671q-6 -27 -27 -42.5t-50 -15.5t-45.5 17t-10.5 43l4 15q6 26 27 42t49 16t45 -17.5t12 -42.5z" />
    <glyph glyph-name="ring" unicode="&#x2da;" 
d="M376 617q-49 0 -78.5 28.5t-29.5 72.5q0 52 38.5 89.5t91.5 37.5q49 0 78.5 -28.5t29.5 -71.5q0 -52 -38.5 -90t-91.5 -38zM378 666q31 0 51.5 23.5t20.5 54.5q0 23 -14 37.5t-40 14.5q-31 0 -51.5 -23t-20.5 -54q0 -23 14.5 -38t39.5 -15z" />
    <glyph glyph-name="ogonek" unicode="&#x2db;" 
d="M206 -173q-50 0 -78.5 19t-28.5 50q0 52 88 117l77 -6q-67 -55 -67 -86q0 -12 8.5 -19t30.5 -12q29 -9 28 -30q-2 -33 -58 -33z" />
    <glyph glyph-name="tilde" unicode="&#x2dc;" 
d="M214 615q-15 0 -25.5 9.5t-10.5 24.5q0 13 8 27q54 95 126 95q36 0 78 -33q35 -28 53 -28q28 0 55 39q18 21 38 21q15 0 25.5 -9.5t10.5 -24.5q0 -13 -8 -27q-54 -95 -126 -95q-37 0 -77 33q-36 28 -54 28q-28 0 -55 -39q-18 -21 -38 -21z" />
    <glyph glyph-name="hungarumlaut" unicode="&#x2dd;" 
d="M515 779q23 0 40 -13t17 -29q0 -17 -19 -29l-87 -67q-37 -27 -67 -27q-28 0 -28 22q0 10 11 23l84 92q28 28 49 28zM327 779q23 0 40.5 -13t17.5 -29t-20 -29l-87 -67q-37 -27 -67 -27q-28 0 -28 22q0 10 11 23l84 92q28 28 49 28z" />
    <glyph glyph-name="commaaccent" unicode="&#x326;" 
d="M143 -171q-46 10 -46 45q0 26 19 45.5t49 19.5q28 0 43.5 -15.5t15.5 -43.5q0 -60 -47 -107q-52 -52 -118 -52q-23 0 -23 19q0 17 27 23q71 14 80 66z" />
    <glyph glyph-name="Wgrave" unicode="&#x1e80;" horiz-adv-x="1150" 
d="M634 810l-53 69q-12 15 -12 27q0 15 23 28.5t48 13.5q34 0 46 -31l33 -89q4 -9 4 -19q0 -25 -37 -25q-19 0 -29.5 5t-22.5 21zM1194 649l-381 -608q-31 -51 -82 -51h-5q-54 0 -56 55l-35 475l-291 -479q-32 -51 -80 -51h-5q-52 0 -57 55l-55 602q0 4 -0.5 14.5t-0.5 14.5
q0 25 17.5 41.5t45.5 16.5t44.5 -14.5t17.5 -39.5l36 -499l301 506q27 48 70 48h6q51 0 56 -49l32 -505l310 511q25 42 67 42q25 0 40.5 -14t15.5 -36q0 -18 -11 -35z" />
    <glyph glyph-name="wgrave" unicode="&#x1e81;" horiz-adv-x="897" 
d="M465 640l-53 69q-12 15 -12 27q0 15 23 28.5t48 13.5q34 0 46 -31l33 -89q4 -9 4 -19q0 -25 -37 -25q-19 0 -29.5 5t-22.5 21zM129 47l-31 419q0 4 -0.5 14.5t-0.5 15.5q0 24 18.5 40.5t43.5 16.5q27 0 43 -14t17 -39l17 -333l201 339q29 48 71 48h6q51 0 54 -49l20 -339
l207 350q23 37 58 37q23 0 36 -12t13 -33q0 -18 -11 -35l-265 -433q-28 -49 -77 -49h-4q-53 0 -56 56l-21 330l-202 -337q-28 -49 -78 -49h-3q-53 0 -56 56z" />
    <glyph glyph-name="Wacute" unicode="&#x1e82;" horiz-adv-x="1150" 
d="M872 878l-90 -67q-37 -27 -74 -27q-33 0 -33 22q0 12 10 23l84 92q28 28 49 28q25 0 49 -13.5t24 -28.5t-19 -29zM1194 649l-381 -608q-31 -51 -82 -51h-5q-54 0 -56 55l-35 475l-291 -479q-32 -51 -80 -51h-5q-52 0 -57 55l-55 602q0 4 -0.5 14.5t-0.5 14.5
q0 25 17.5 41.5t45.5 16.5t44.5 -14.5t17.5 -39.5l36 -499l301 506q27 48 70 48h6q51 0 56 -49l32 -505l310 511q25 42 67 42q25 0 40.5 -14t15.5 -36q0 -18 -11 -35z" />
    <glyph glyph-name="wacute" unicode="&#x1e83;" horiz-adv-x="897" 
d="M703 708l-90 -67q-37 -27 -74 -27q-33 0 -33 22q0 12 10 23l84 92q28 28 49 28q25 0 49 -13.5t24 -28.5t-19 -29zM129 47l-31 419q0 4 -0.5 14.5t-0.5 15.5q0 24 18.5 40.5t43.5 16.5q27 0 43 -14t17 -39l17 -333l201 339q29 48 71 48h6q51 0 54 -49l20 -339l207 350
q23 37 58 37q23 0 36 -12t13 -33q0 -18 -11 -35l-265 -433q-28 -49 -77 -49h-4q-53 0 -56 56l-21 330l-202 -337q-28 -49 -78 -49h-3q-53 0 -56 56z" />
    <glyph glyph-name="Wdieresis" unicode="&#x1e84;" horiz-adv-x="1150" 
d="M882 841q-6 -27 -26.5 -42.5t-48.5 -15.5q-30 0 -46 17t-9 43l4 15q6 27 26.5 42.5t48.5 15.5t44 -17.5t11 -42.5zM678 841q-6 -27 -26.5 -42.5t-48.5 -15.5q-30 0 -46 17t-9 43l4 15q6 27 26.5 42.5t48.5 15.5t44 -17.5t11 -42.5zM1194 649l-381 -608q-31 -51 -82 -51
h-5q-54 0 -56 55l-35 475l-291 -479q-32 -51 -80 -51h-5q-52 0 -57 55l-55 602q0 4 -0.5 14.5t-0.5 14.5q0 25 17.5 41.5t45.5 16.5t44.5 -14.5t17.5 -39.5l36 -499l301 506q27 48 70 48h6q51 0 56 -49l32 -505l310 511q25 42 67 42q25 0 40.5 -14t15.5 -36q0 -18 -11 -35z
" />
    <glyph glyph-name="wdieresis" unicode="&#x1e85;" horiz-adv-x="897" 
d="M714 671q-6 -27 -26.5 -42.5t-48.5 -15.5q-30 0 -46 17t-9 43l4 15q6 27 26.5 42.5t48.5 15.5t44 -17.5t11 -42.5zM510 671q-6 -27 -26.5 -42.5t-48.5 -15.5q-30 0 -46 17t-9 43l4 15q6 27 26.5 42.5t48.5 15.5t44 -17.5t11 -42.5zM129 47l-31 419q0 4 -0.5 14.5
t-0.5 15.5q0 24 18.5 40.5t43.5 16.5q27 0 43 -14t17 -39l17 -333l201 339q29 48 71 48h6q51 0 54 -49l20 -339l207 350q23 37 58 37q23 0 36 -12t13 -33q0 -18 -11 -35l-265 -433q-28 -49 -77 -49h-4q-53 0 -56 56l-21 330l-202 -337q-28 -49 -78 -49h-3q-53 0 -56 56z" />
    <glyph glyph-name="Ygrave" unicode="&#x1ef2;" horiz-adv-x="693" 
d="M402 810l-53 69q-12 15 -12 27q0 15 23 28.5t48 13.5q34 0 46 -31l33 -89q4 -9 4 -19q0 -25 -37 -25q-19 0 -29.5 5t-22.5 21zM400 272l-58 -217q-16 -61 -68 -61q-31 0 -45.5 21.5t-4.5 57.5l57 213l-146 343q-11 26 -11 46q0 25 18 42t47 17q43 0 60 -49l116 -293
l287 307q33 35 66 35q24 0 38 -13.5t14 -36.5q0 -28 -22 -50z" />
    <glyph glyph-name="ygrave" unicode="&#x1ef3;" horiz-adv-x="617" 
d="M315 640l-53 69q-12 15 -12 27q0 15 23 28.5t48 13.5q34 0 46 -31l33 -89q4 -9 4 -19q0 -25 -37 -25q-19 0 -29.5 5t-22.5 21zM30 -54q33 -12 57 -12q48 0 94 65l-78 467q-3 13 -3 30q0 24 17.5 40.5t42.5 16.5q26 0 42 -14t18 -39l52 -367l235 381q21 39 62 39
q24 0 38.5 -12.5t14.5 -34.5q0 -16 -16 -42l-311 -479q-54 -84 -106 -119.5t-117 -35.5q-48 0 -81 17q-37 16 -37 52q0 22 15 37.5t34 15.5q9 0 27 -6z" />
    <glyph glyph-name="enspace" unicode="&#x2002;" horiz-adv-x="500" 
 />
    <glyph glyph-name="emspace" unicode="&#x2003;" horiz-adv-x="1000" 
 />
    <glyph glyph-name="threeperemspace" unicode="&#x2004;" horiz-adv-x="333" 
 />
    <glyph glyph-name="fourperemspace" unicode="&#x2005;" horiz-adv-x="250" 
 />
    <glyph glyph-name="thinspace" unicode="&#x2009;" horiz-adv-x="133" 
 />
    <glyph glyph-name="hairspace" unicode="&#x200a;" horiz-adv-x="75" 
 />
    <glyph glyph-name="endash" unicode="&#x2013;" horiz-adv-x="561" 
d="M131 260q-24 0 -41.5 17t-17.5 41t17.5 40.5t41.5 16.5h323q24 0 41.5 -16.5t17.5 -40.5t-17.5 -41t-41.5 -17h-323z" />
    <glyph glyph-name="emdash" unicode="&#x2014;" horiz-adv-x="946" 
d="M131 260q-24 0 -41.5 17t-17.5 41t17.5 40.5t41.5 16.5h708q24 0 41.5 -16.5t17.5 -40.5t-17.5 -41t-41.5 -17h-708z" />
    <glyph glyph-name="quoteleft" unicode="&#x2018;" horiz-adv-x="310" 
d="M335 678q-87 -24 -96 -93q50 -12 39 -65l-4 -15q-7 -29 -27.5 -46.5t-48.5 -17.5q-35 0 -50.5 23.5t-7.5 64.5l5 19q18 86 79 137q46 42 107 47q31 3 31 -26q0 -22 -27 -28z" />
    <glyph glyph-name="quoteright" unicode="&#x2019;" horiz-adv-x="310" 
d="M124 497q87 23 96 92q-50 12 -39 65l4 15q6 30 26.5 47.5t49.5 17.5q35 0 50.5 -24t7.5 -64l-5 -20q-19 -87 -79 -137q-48 -42 -107 -47q-31 -3 -31 26q0 21 27 29z" />
    <glyph glyph-name="quotesinglbase" unicode="&#x201a;" horiz-adv-x="310" 
d="M-28 -92q87 22 97 92q-51 11 -40 65l4 15q7 30 27.5 47.5t48.5 17.5q35 0 51 -24t7 -64l-5 -20q-19 -86 -78 -137q-50 -42 -108 -47q-31 -1 -31 26q0 21 27 29z" />
    <glyph glyph-name="quotedblleft" unicode="&#x201c;" horiz-adv-x="547" 
d="M199 440q-35 0 -50.5 23.5t-7.5 64.5l5 20q18 85 79 136q46 41 107 48q31 1 31 -27q0 -20 -27 -28q-87 -23 -96 -92q50 -13 39 -65l-4 -16q-7 -29 -27.5 -46.5t-48.5 -17.5zM436 440q-35 0 -50.5 23.5t-7.5 64.5l5 20q18 85 79 136q46 41 107 48q31 1 31 -27
q0 -20 -27 -28q-87 -23 -96 -92q50 -13 39 -65l-4 -16q-6 -29 -26.5 -46.5t-49.5 -17.5z" />
    <glyph glyph-name="quotedblright" unicode="&#x201d;" horiz-adv-x="547" 
d="M361 497q87 23 96 92q-50 12 -39 65l4 15q6 30 26.5 47.5t49.5 17.5q35 0 50.5 -24t7.5 -64l-5 -20q-19 -87 -79 -137q-50 -42 -107 -47q-31 -3 -31 26q0 22 27 29zM124 497q86 23 96 92q-51 11 -40 65l4 15q7 30 27.5 47.5t48.5 17.5q35 0 51 -24t8 -64l-6 -20
q-19 -86 -78 -137q-50 -42 -107 -47q-32 -3 -32 26q0 21 28 29z" />
    <glyph glyph-name="quotedblbase" unicode="&#x201e;" horiz-adv-x="547" 
d="M210 -92q87 23 96 92q-21 5 -33 21.5t-7 43.5l4 15q7 30 27.5 47.5t48.5 17.5q35 0 51 -24t8 -64l-5 -20q-20 -86 -79 -137q-50 -42 -107 -47q-32 -1 -32 26q0 21 28 29zM-28 -92q87 22 97 92q-51 11 -40 65l4 15q7 30 27.5 47.5t48.5 17.5q35 0 51 -24t7 -64l-5 -20
q-19 -86 -78 -137q-50 -42 -108 -47q-31 -1 -31 26q0 21 27 29z" />
    <glyph glyph-name="dagger" unicode="&#x2020;" horiz-adv-x="438" 
d="M358 683l-33 -95l88 6q15 1 25.5 -9t10.5 -24q0 -15 -10.5 -25t-26.5 -9l-103 7l-61 -257q-8 -35 -39 -35q-18 0 -26.5 12.5t-2.5 32.5l74 247l-87 -6q-16 -1 -27 9t-11 25q0 14 10.5 24.5t26.5 9.5l101 -8l21 106q6 40 41 40q21 0 29 -14t0 -37z" />
    <glyph glyph-name="daggerdbl" unicode="&#x2021;" horiz-adv-x="445" 
d="M276 364l-54 -170l87 6q16 1 26.5 -9t10.5 -25t-10.5 -25t-26.5 -9l-100 8l-21 -106q-8 -40 -41 -40q-21 0 -29.5 14t0.5 37l33 95l-88 -6q-15 -1 -26 8.5t-11 24.5t11 25t27 9l101 -7l39 170l53 170l-87 -6q-16 -1 -26.5 9t-10.5 25q0 14 10.5 24.5t26.5 9.5l101 -8
l20 106q8 40 42 40q21 0 29 -14t-1 -37l-32 -95l87 6q15 1 26 -8.5t11 -24.5t-11 -25t-27 -9l-101 7z" />
    <glyph glyph-name="bullet" unicode="&#x2022;" horiz-adv-x="519" 
d="M256 216q-54 0 -85.5 32t-31.5 86q0 71 48 127.5t118 56.5q53 0 84.5 -32.5t31.5 -86.5q0 -71 -48 -127t-117 -56z" />
    <glyph glyph-name="ellipsis" unicode="&#x2026;" horiz-adv-x="848" 
d="M709 58q-4 -28 -26.5 -46t-53.5 -18t-48 18.5t-12 47.5l4 18q6 29 27.5 46.5t52.5 17.5q32 0 49 -19t12 -47zM439 58q-5 -29 -27 -46.5t-53 -17.5q-32 0 -49 19t-12 47l4 18q6 29 27.5 46.5t52.5 17.5q32 0 49 -19t12 -47zM168 58q-5 -29 -27 -46.5t-53 -17.5
q-32 0 -49 19t-12 47l4 18q6 29 27.5 46.5t52.5 17.5q32 0 49 -19t12 -47z" />
    <glyph glyph-name="perthousand" unicode="&#x2030;" horiz-adv-x="1319" 
d="M250 360q-69 0 -111.5 44t-42.5 112q0 86 57.5 153t142.5 67q69 0 111.5 -44t42.5 -112q0 -86 -57.5 -153t-142.5 -67zM820 664l-628 -651q-19 -19 -37 -19q-17 0 -28 11t-11 27q0 17 16 33l628 650q17 19 37 19q17 0 28 -10.5t11 -26.5q0 -17 -16 -33zM255 434
q47 0 79 44.5t32 97.5q0 39 -20 62.5t-55 23.5q-47 0 -79 -44.5t-32 -96.5q0 -40 20 -63.5t55 -23.5zM1070 -8q-68 0 -111 44t-43 112q0 87 57.5 154t143.5 67q69 0 111.5 -44t42.5 -113q0 -86 -58 -153t-143 -67zM655 -8q-68 0 -111 44t-43 112q0 87 57.5 154t143.5 67
q69 0 111.5 -44t42.5 -113q0 -86 -58 -153t-143 -67zM1075 67q47 0 79 44t32 97q0 40 -20 63t-55 23q-47 0 -79 -44.5t-32 -96.5q0 -40 20 -63t55 -23zM661 67q47 0 79 44.5t32 96.5q0 40 -20.5 63t-55.5 23q-47 0 -79 -44.5t-32 -96.5q0 -40 20 -63t56 -23z" />
    <glyph glyph-name="guilsinglleft" unicode="&#x2039;" horiz-adv-x="375" 
d="M74 292l184 179q28 26 49 26t33.5 -12t12.5 -33q0 -23 -17 -38l-164 -158l68 -138q8 -16 8 -32q0 -21 -15 -35t-36 -14q-33 0 -48 31l-78 155q-13 26 -13 36q0 17 16 33z" />
    <glyph glyph-name="guilsinglright" unicode="&#x203a;" horiz-adv-x="375" 
d="M299 249l-184 -180q-28 -26 -49 -26t-33.5 12.5t-12.5 33.5q0 23 17 38l164 158l-68 137q-9 18 -9 33q0 21 15.5 35t36.5 14q32 0 48 -31l78 -156q13 -24 13 -35q0 -17 -16 -33z" />
    <glyph glyph-name="fraction" unicode="&#x2044;" horiz-adv-x="562" 
d="M653 709l-637 -784q-27 -32 -52 -32q-17 0 -28 10.5t-11 29.5q0 20 21 45l637 783q26 33 51 33q17 0 28.5 -10.5t11.5 -29.5t-21 -45z" />
    <glyph glyph-name="Euro" unicode="&#x20ac;" horiz-adv-x="746" 
d="M317 498h191q17 0 30 -12.5t13 -30.5t-13 -30.5t-30 -12.5h-224q-15 -48 -19 -90h196q18 0 30.5 -13t12.5 -31q0 -17 -12.5 -29.5t-30.5 -12.5h-197q8 -64 47 -100.5t99 -36.5q83 0 149 63q19 17 41 17q24 0 40.5 -15t16.5 -38q0 -25 -24 -47q-100 -91 -225 -91
q-114 0 -188 67t-84 181h-52q-18 0 -30.5 12.5t-12.5 29.5q0 18 12.5 31t30.5 13h53q4 44 17 90h-23q-18 0 -31 12.5t-13 30.5t13 30.5t31 12.5h49q47 109 136 175.5t204 66.5q155 0 227 -118q16 -24 16 -44q0 -26 -17.5 -42.5t-44.5 -16.5q-31 0 -47 26q-24 41 -54.5 62.5
t-88.5 21.5q-62 0 -112 -35t-82 -96z" />
    <glyph glyph-name="published" unicode="&#x2117;" horiz-adv-x="873" 
d="M459 -12q-157 0 -266.5 109.5t-109.5 264.5v2q0 155 110.5 265.5t267.5 110.5t266 -109.5t109 -264.5v-2q0 -155 -110 -265.5t-267 -110.5zM459 25q143 0 240.5 99t97.5 240v2q0 141 -96.5 239t-239.5 98t-240.5 -99t-97.5 -240v-2q0 -141 96.5 -239t239.5 -98zM327 206
v325q0 16 10.5 26.5t26.5 10.5h121q70 0 111 -35.5t41 -96.5v-2q0 -64 -45.5 -99t-114.5 -35h-76v-94q0 -15 -11 -26t-26 -11q-16 0 -26.5 11t-10.5 26zM401 365h78q38 0 60.5 18.5t22.5 49.5v2q0 32 -22.5 49.5t-61.5 17.5h-77v-137z" />
    <glyph glyph-name="servicemark" unicode="&#x2120;" horiz-adv-x="743" 
d="M764 731h5q14 0 20.5 -10.5t2.5 -28.5l-72 -260q-8 -28 -32 -28q-14 0 -20.5 10t-2.5 27l49 177l-105 -113q-16 -16 -32 -16q-18 0 -26 19l-43 111l-53 -187q-8 -28 -32 -28q-15 0 -21 9.5t-1 27.5l71 259q8 31 32 31h5q18 0 27 -24l59 -150l133 154q18 20 36 20z
M111 496q10 0 21 -9q39 -37 89 -37q27 0 45 13t18 34q0 15 -12.5 25.5t-48.5 24.5q-45 18 -64.5 37t-19.5 49q0 45 35.5 73t89.5 28q61 0 101 -34q13 -10 13 -23q0 -11 -7.5 -19t-18.5 -8q-12 0 -21 9q-33 26 -73 26q-28 0 -45 -12.5t-17 -30.5q0 -15 13.5 -26t51.5 -26
q43 -16 61.5 -35t18.5 -49q0 -47 -36 -75.5t-90 -28.5q-70 0 -121 44q-11 13 -11 23q0 11 8.5 19t19.5 8z" />
    <glyph glyph-name="trademark" unicode="&#x2122;" horiz-adv-x="734" 
d="M756 731h4q15 0 21 -10.5t2 -28.5l-72 -260q-8 -28 -32 -28q-14 0 -20.5 10t-1.5 27l49 177l-106 -113q-14 -16 -31 -16q-18 0 -26 19l-44 111l-52 -187q-9 -28 -32 -28q-15 0 -21.5 10t-1.5 27l72 259q7 31 32 31h4q17 0 28 -24l58 -150l134 154q18 20 36 20zM287 674
l-66 -243q-8 -29 -34 -29q-15 0 -21.5 10t-2.5 28l64 234h-68q-12 0 -20 7.5t-8 18.5q0 12 8 20t20 8h212q12 0 20 -8t8 -19q0 -12 -8 -19.5t-20 -7.5h-84z" />
    <glyph glyph-name="minus" unicode="&#x2212;" horiz-adv-x="668" 
d="M565 309h-414q-24 0 -40.5 16.5t-16.5 39.5q0 24 16.5 41t40.5 17h414q24 0 40.5 -17t16.5 -41q0 -23 -16.5 -39.5t-40.5 -16.5z" />
    <glyph glyph-name="Q.alt" horiz-adv-x="880" 
d="M652 -2l-35 44q-93 -55 -206 -55q-144 0 -235 91t-91 228q0 82 32.5 161t89 139t138 97t172.5 37q144 0 235 -91t91 -228q0 -86 -35.5 -167.5t-98.5 -143.5l30 -34q20 -23 20 -48q0 -24 -16.5 -40.5t-41.5 -16.5q-32 0 -49 27zM571 300l67 -91q77 91 77 206
q0 93 -57 152.5t-154 59.5q-123 0 -207 -97t-84 -217q0 -94 57 -153.5t154 -59.5q66 0 128 35l-64 79q-23 31 -23 51q0 25 17.5 42.5t42.5 17.5q30 0 46 -25z" />
    <glyph glyph-name="registered.alt" horiz-adv-x="873" 
d="M459 -12q-157 0 -266.5 109.5t-109.5 264.5v2q0 155 110.5 265.5t267.5 110.5t266 -109.5t109 -264.5v-2q0 -155 -110 -265.5t-267 -110.5zM459 25q143 0 240.5 99t97.5 240v2q0 141 -96.5 239t-239.5 98t-240.5 -99t-97.5 -240v-2q0 -141 96.5 -239t239.5 -98zM309 209
v326q0 15 10.5 25.5t25.5 10.5h139q78 0 119 -41q32 -32 32 -82v-2q0 -89 -89 -117l77 -96q10 -11 10 -25q0 -15 -10 -25.5t-24 -10.5q-18 0 -32 17l-100 126h-85v-106q0 -15 -11 -26t-26 -11t-25.5 11t-10.5 26zM382 379h99q37 0 58.5 17t21.5 46v2q0 30 -21.5 46t-58.5 16
h-99v-127z" />
    <glyph glyph-name="i.dot" horiz-adv-x="305" 
d="M333 687q-6 -26 -27.5 -41t-51.5 -15t-47 16.5t-12 41.5l3 12q6 26 27.5 41t51.5 15q29 0 46.5 -16.5t12.5 -40.5zM267 476l-113 -421q-16 -61 -67 -61q-31 0 -45 21.5t-4 56.5l113 421q15 60 68 60q30 0 44 -21t4 -56z" />
    <glyph glyph-name="caron.alt" 
d="M306 591l39 129q13 41 54 41h21q24 0 24 -20q0 -11 -11 -31l-72 -127q-14 -24 -35 -24q-22 0 -22 19q0 5 2 13z" />
    <glyph glyph-name="acute.cap" 
d="M461 708l-90 -67q-37 -27 -74 -27q-33 0 -33 22q0 12 10 23l84 92q28 28 49 28q25 0 49 -13.5t24 -28.5t-19 -29z" />
    <glyph glyph-name="hungarumlaut.cap" 
d="M515 779q23 0 40 -13t17 -29q0 -17 -19 -29l-87 -67q-37 -27 -67 -27q-28 0 -28 22q0 10 11 23l84 92q28 28 49 28zM327 779q23 0 40.5 -13t17.5 -29t-20 -29l-87 -67q-37 -27 -67 -27q-28 0 -28 22q0 10 11 23l84 92q28 28 49 28z" />
    <glyph glyph-name="caron.alt.cap" 
d="M306 591l39 129q13 41 54 41h21q24 0 24 -20q0 -11 -11 -31l-72 -127q-14 -24 -35 -24q-22 0 -22 19q0 5 2 13z" />
    <glyph glyph-name="grave.cap" 
d="M356 640l-53 69q-12 15 -12 27q0 15 23 28.5t48 13.5q34 0 46 -31l33 -89q4 -9 4 -19q0 -25 -37 -25q-19 0 -29.5 5t-22.5 21z" />
    <glyph glyph-name="circumflex.cap" 
d="M469 742l43 -82q11 -22 11 -26q0 -20 -29 -20q-24 0 -39.5 4.5t-31.5 22.5l-40 47l-68 -47q-39 -27 -77 -27q-26 0 -26 19q0 11 14 27l90 84q28 30 64 30h32q39 0 57 -32z" />
    <glyph glyph-name="caron.cap" 
d="M285 647l-44 81q-10 22 -10 27q0 19 28 19q25 0 40 -4.5t31 -22.5l40 -47l69 47q38 27 76 27q27 0 27 -19q0 -13 -15 -26l-89 -85q-30 -30 -65 -30h-32q-40 0 -56 33z" />
    <glyph glyph-name="breve.cap" 
d="M371 617q-65 0 -106 33.5t-41 80.5q0 20 12.5 32t31.5 12q29 0 39 -25q20 -48 76 -48q50 0 88 49q22 24 45 24q17 0 27 -9.5t10 -26.5q0 -15 -10 -29q-27 -41 -72 -67t-100 -26z" />
    <glyph glyph-name="tilde.cap" 
d="M214 615q-15 0 -25.5 9.5t-10.5 24.5q0 13 8 27q54 95 126 95q36 0 78 -33q35 -28 53 -28q28 0 55 39q18 21 38 21q15 0 25.5 -9.5t10.5 -24.5q0 -13 -8 -27q-54 -95 -126 -95q-37 0 -77 33q-36 28 -54 28q-28 0 -55 -39q-18 -21 -38 -21z" />
    <glyph glyph-name="macron.cap" 
d="M511 632h-276q-18 0 -31.5 13t-13.5 31t13.5 31t31.5 13h276q18 0 31 -13t13 -31q0 -19 -13 -31.5t-31 -12.5z" />
    <glyph glyph-name="dieresis.cap" 
d="M534 671q-6 -27 -26.5 -42.5t-48.5 -15.5q-30 0 -46 17t-9 43l4 15q6 27 26.5 42.5t48.5 15.5t44 -17.5t11 -42.5zM330 671q-6 -27 -26.5 -42.5t-48.5 -15.5q-30 0 -46 17t-9 43l4 15q6 27 26.5 42.5t48.5 15.5t44 -17.5t11 -42.5z" />
    <glyph glyph-name="dotaccent.cap" 
d="M439 671q-6 -27 -27 -42.5t-50 -15.5t-45.5 17t-10.5 43l4 15q6 26 27 42t49 16t45 -17.5t12 -42.5z" />
    <glyph glyph-name="ring.cap" 
d="M376 617q-49 0 -78.5 28.5t-29.5 72.5q0 52 38.5 89.5t91.5 37.5q49 0 78.5 -28.5t29.5 -71.5q0 -52 -38.5 -90t-91.5 -38zM378 666q31 0 51.5 23.5t20.5 54.5q0 23 -14 37.5t-40 14.5q-31 0 -51.5 -23t-20.5 -54q0 -23 14.5 -38t39.5 -15z" />
    <glyph glyph-name="commaaccent.cap" 
d="M143 -171q-46 10 -46 45q0 26 19 45.5t49 19.5q28 0 43.5 -15.5t15.5 -43.5q0 -60 -47 -107q-52 -52 -118 -52q-23 0 -23 19q0 17 27 23q71 14 80 66z" />
    <glyph glyph-name="cedilla.cap" 
d="M281 10l-105 -149q-17 -26 -42 -26q-19 0 -37.5 13.5t-18.5 29.5q0 15 14 30l98 102h91z" />
    <glyph glyph-name="ogonek.cap" 
d="M206 -173q-50 0 -78.5 19t-28.5 50q0 52 88 117l77 -6q-67 -55 -67 -86q0 -12 8.5 -19t30.5 -12q29 -9 28 -30q-2 -33 -58 -33z" />
    <glyph glyph-name="NUL" horiz-adv-x="0" 
 />
    <glyph glyph-name="aacute.alt" horiz-adv-x="704" 
d="M610 708l-90 -67q-37 -27 -74 -27q-33 0 -33 22q0 12 10 23l84 92q28 28 49 28q25 0 49 -13.5t24 -28.5t-19 -29zM310 92q78 0 140.5 67t62.5 155q0 62 -40 102t-102 40q-80 0 -137 -66t-57 -159q0 -63 36.5 -101t96.5 -38zM544 448l12 45q16 60 67 60q31 0 44.5 -21
t3.5 -56l-112 -421q-16 -61 -69 -61q-26 0 -40 15t-12 39l6 27q-83 -86 -178 -86q-93 0 -153.5 63.5t-60.5 169.5q0 143 91.5 240t213.5 97q128 0 187 -111z" />
    <glyph glyph-name="aringacute.alt2" horiz-adv-x="615" 
d="M588 856l-90 -67q-37 -27 -74 -27q-33 0 -33 22q0 12 10 23l84 92q28 28 49 28q25 0 49 -13.5t24 -28.5t-19 -29zM384 553q31 0 51.5 23t20.5 55q0 23 -14.5 37.5t-39.5 14.5q-30 0 -51 -23.5t-21 -54.5q0 -23 14.5 -37.5t39.5 -14.5zM232 76q58 0 107.5 38.5t66.5 95.5
l7 26q-68 22 -138 22q-60 0 -98 -29t-38 -77q0 -34 25.5 -55t67.5 -21zM412 -6q-31 0 -42.5 17t-8.5 40l6 23q-77 -85 -183 -85q-71 0 -118.5 41t-47.5 108q0 92 67.5 145t172.5 53q85 0 173 -27l3 10q7 24 7 46q0 86 -125 86q-57 0 -109 -16q-2 0 -10.5 -1.5t-11.5 -1.5
q-20 0 -34 14t-14 35q0 36 38 48q57 18 114 24q-15 21 -15 51q0 52 38.5 90t91.5 38q49 0 78.5 -28.5t29.5 -71.5q0 -62 -52 -98q98 -41 98 -148q0 -30 -11 -80l-68 -251q-16 -61 -67 -61z" />
    <glyph glyph-name="aogonek.alt" horiz-adv-x="704" 
d="M544 448l12 45q16 60 67 60q31 0 44.5 -21t3.5 -56l-112 -421q-6 -28 -29 -49q-65 -55 -65 -85q0 -12 8.5 -19t30.5 -12q28 -9 28 -30q-2 -33 -58 -33q-50 0 -78.5 19t-28.5 50q0 52 84 115q-14 14 -13 37l6 27q-83 -86 -178 -86q-93 0 -153.5 63.5t-60.5 169.5
q0 143 91.5 240t213.5 97q128 0 187 -111zM310 92q78 0 140.5 67t62.5 155q0 62 -40 102t-102 40q-80 0 -137 -66t-57 -159q0 -63 36.5 -101t96.5 -38z" />
    <glyph glyph-name="acircumflex.alt" horiz-adv-x="704" 
d="M545 742l43 -82q11 -22 11 -26q0 -20 -29 -20q-24 0 -39.5 4.5t-31.5 22.5l-40 47l-68 -47q-39 -27 -77 -27q-26 0 -26 19q0 11 14 27l90 84q28 30 64 30h32q39 0 57 -32zM310 92q78 0 140.5 67t62.5 155q0 62 -40 102t-102 40q-80 0 -137 -66t-57 -159q0 -63 36.5 -101
t96.5 -38zM544 448l12 45q16 60 67 60q31 0 44.5 -21t3.5 -56l-112 -421q-16 -61 -69 -61q-26 0 -40 15t-12 39l6 27q-83 -86 -178 -86q-93 0 -153.5 63.5t-60.5 169.5q0 143 91.5 240t213.5 97q128 0 187 -111z" />
    <glyph glyph-name="hcoslug" horiz-adv-x="694" 
d="M644 700v-800h-594v800h594zM247 428q0 13 7.5 21t19.5 8q13 0 21 -10.5t8 -27.5q0 -22 -18 -50q-15 14 -21 20.5t-11.5 17t-5.5 21.5zM312 342q30 20 42 34q29 -29 -1 -80q-33 38 -41 46zM261 219q-22 0 -37 15.5t-15 38.5q0 24 16 40q34 -32 74 -82q-15 -12 -38 -12z
M382 264q20 26 46 42q15 -25 43 -25q21 0 35.5 15.5t14.5 38.5t-14.5 37.5t-35.5 14.5q-35 0 -60 -38q-3 39 -49 37q9 15 9 34q0 29 -25.5 51.5t-69.5 22.5q-48 0 -78.5 -25.5t-30.5 -59.5q0 -37 31 -69q-82 -28 -82 -91q0 -39 32 -66t77 -27q63 0 104 45q44 -45 85 -45
q33 0 56 25.5t24 68.5l-7 2q-17 -29 -43 -29q-27 0 -62 41zM286 124l-12 -2v-9h-7v-7h7v-20q0 -13 12 -13q11 0 14 13l-5 2q-1 -7 -5 -7t-4 5v20h13v7h-13v11zM174 94q0 -21 21 -21q9 0 15 6t6 15q0 20 -21 20t-21 -20zM203 94q0 -16 -8 -16t-8 16q0 15 8 15t8 -15zM219 81
v-7h22v7h-4v15q0 10 7 10q6 0 6 -7v-18h-4v-7h22v7h-6v19q0 14 -12 14q-9 0 -14 -11v10h-17v-7h6v-25h-6zM379 93q0 -13 -7 -13q-8 0 -8 13t8 13q7 0 7 -13zM125 81v-7h30v7h-10v16h4q5 0 6 -8h7v23h-7q-1 -8 -6 -8h-4v18h12q9 0 11 -13h8v20h-51v-7h7v-41h-7zM302 88v-14h7
l1 4q7 -5 13 -5q14 0 14 13q0 9 -12 12t-12 6q0 4 5 4t10 -7h7v13h-6l-2 -5q-3 5 -11 5q-14 0 -14 -12q0 -9 12 -12.5t12 -6.5q0 -4 -5 -4q-6 0 -12 9h-7zM352 125v-52h6l4 8q5 -8 14 -8q16 0 16 21q0 20 -15 20q-10 0 -13 -9v27h-18v-7h6zM405 65q3 2 1.5 6t-6.5 4
q-7 0 -7 -7q0 -9 11 -9q12 0 18 16l13 31h5v7h-17v-7h5l-8 -20l-9 20h6v7h-25v-7h5q12 -23 16 -33q-2 -8 -8 -8zM294 39v3q0 12 6 12l3 -1q-1 -1 -1 -3q0 -6 6 -6v-5h-14zM464 33h-18v-7h6q-2 -5 -6 -9q-2 2 -5.5 6t-6.5 7q11 5 11 12q0 12 -14 12q-17 0 -17 -14q0 -6 6 -12
q-13 -4 -13 -15q0 -14 18 -14q9 0 15 6q5 -6 12 -6q10 0 13 12l-5 1q-1 -5 -4 -5t-6 5q6 8 9 14h5v7zM469 27q0 -28 29 -28q22 0 24 23h-8q-2 -16 -14 -16q-16 0 -16 22t14 22q10 0 15 -16h8v22h-8l-1 -6q-7 7 -16 7q-11 0 -19 -8.5t-8 -21.5zM431 33q-6 6 -6 10q0 5 5 5
q6 0 6 -6t-5 -9zM340 18h26q2 22 -19 22q-8 0 -14 -6t-6 -15q0 -20 21 -20q14 0 18 14h-7q-1 -7 -9 -7q-10 0 -10 12zM525 20q0 -21 21 -21q9 0 15 6t6 15q0 20 -21 20t-21 -20zM189 20q0 -21 21 -21q9 0 15 6t6 15q0 20 -21 20t-21 -20zM247 18h26q2 22 -19 22q-8 0 -14 -6
t-6 -15q0 -20 21 -20q15 0 18 14h-7q-1 -7 -9 -7q-10 0 -10 12zM340 23q0 12 7 12t7 -12h-14zM554 20q0 -16 -8 -16t-8 16q0 15 8 15t8 -15zM218 20q0 -16 -8 -16t-8 16q0 15 8 15t8 -15zM247 23q0 12 7 12t7 -12h-14zM368 7v-7h26v7h-8v16q4 9 7 9v-1q0 -6 6 -6q7 0 7 7
q0 8 -8 8t-12 -11v10h-18v-7h6v-25h-6zM276 7v-7h23v7h-5v25h14v-25h-5v-7h23v7h-6v52l-10 -2q-4 2 -9 2q-19 0 -19 -19v-1h-7v-7h7v-25h-6zM124 7v-7h29v7h-8v18h22v-18h-8v-7h29v7h-8v41h8v7h-29v-7h8v-16h-22v16h8v7h-29v-7h8v-41h-8zM437 9q-5 -3 -8 -3q-10 0 -10 10
q0 5 4 9q4 -4 14 -16zM583 6q0 7 -7 7t-7 -7t7 -7t7 7z" />
    <glyph glyph-name="atilde.alt" horiz-adv-x="704" 
d="M295 615q-15 0 -25.5 9.5t-10.5 24.5q0 13 8 27q54 95 126 95q36 0 78 -33q35 -28 53 -28q28 0 55 39q17 21 38 21q15 0 25.5 -9.5t10.5 -24.5q0 -13 -8 -27q-54 -95 -126 -95q-37 0 -77 33q-36 28 -54 28q-28 0 -55 -39q-17 -21 -38 -21zM310 92q78 0 140.5 67t62.5 155
q0 62 -40 102t-102 40q-80 0 -137 -66t-57 -159q0 -63 36.5 -101t96.5 -38zM544 448l12 45q16 60 67 60q31 0 44.5 -21t3.5 -56l-112 -421q-16 -61 -69 -61q-26 0 -40 15t-12 39l6 27q-83 -86 -178 -86q-93 0 -153.5 63.5t-60.5 169.5q0 143 91.5 240t213.5 97
q128 0 187 -111z" />
    <glyph glyph-name="agrave.alt" horiz-adv-x="704" 
d="M372 640l-53 69q-12 15 -12 27q0 15 23 28.5t48 13.5q34 0 46 -31l33 -89q4 -9 4 -19q0 -25 -37 -25q-19 0 -29.5 5t-22.5 21zM310 92q78 0 140.5 67t62.5 155q0 62 -40 102t-102 40q-80 0 -137 -66t-57 -159q0 -63 36.5 -101t96.5 -38zM544 448l12 45q16 60 67 60
q31 0 44.5 -21t3.5 -56l-112 -421q-16 -61 -69 -61q-26 0 -40 15t-12 39l6 27q-83 -86 -178 -86q-93 0 -153.5 63.5t-60.5 169.5q0 143 91.5 240t213.5 97q128 0 187 -111z" />
    <glyph glyph-name="three.alt" horiz-adv-x="648" 
d="M114 167q66 -69 167 -69q73 0 116.5 34.5t43.5 82.5q0 50 -40.5 75.5t-112.5 25.5h-2q-24 0 -39.5 15t-15.5 36q0 22 15.5 37t36.5 15h37q83 0 134.5 31.5t51.5 85.5q0 42 -34.5 67.5t-87.5 25.5q-76 0 -142 -48q-24 -16 -42 -16q-23 0 -38 14.5t-15 36.5q0 25 20 42
q53 41 101.5 60t127.5 22q105 3 170.5 -50.5t65.5 -135.5q0 -72 -47 -120.5t-135 -69.5q50 -17 82.5 -55.5t32.5 -94.5q0 -97 -82 -161.5t-210 -64.5q-155 0 -240 93q-21 21 -21 46t16.5 42t40.5 17q26 0 45 -19z" />
    <glyph glyph-name="aringacute.alt" horiz-adv-x="704" 
d="M664 970l-90 -67q-37 -27 -74 -27q-33 0 -33 22q0 12 10 23l84 92q28 28 49 28q25 0 49 -13.5t24 -28.5t-19 -29zM458 617q-49 0 -78.5 28.5t-29.5 72.5q0 52 38.5 89.5t91.5 37.5q49 0 78.5 -28.5t29.5 -71.5q0 -52 -38.5 -90t-91.5 -38zM460 666q31 0 51.5 23.5
t20.5 54.5q0 23 -14 37.5t-40 14.5q-31 0 -51.5 -23t-20.5 -54q0 -23 14.5 -38t39.5 -15zM310 92q78 0 140.5 67t62.5 155q0 62 -40 102t-102 40q-80 0 -137 -66t-57 -159q0 -63 36.5 -101t96.5 -38zM544 448l12 45q16 60 67 60q31 0 44.5 -21t3.5 -56l-112 -421
q-16 -61 -69 -61q-26 0 -40 15t-12 39l6 27q-83 -86 -178 -86q-93 0 -153.5 63.5t-60.5 169.5q0 143 91.5 240t213.5 97q128 0 187 -111z" />
    <glyph glyph-name="adieresis.alt" horiz-adv-x="704" 
d="M620 671q-6 -27 -26.5 -42.5t-48.5 -15.5q-30 0 -46 17t-9 43l4 15q6 27 26.5 42.5t48.5 15.5t44 -17.5t11 -42.5zM416 671q-6 -27 -26.5 -42.5t-48.5 -15.5q-30 0 -46 17t-9 43l4 15q6 27 26.5 42.5t48.5 15.5t44 -17.5t11 -42.5zM310 92q78 0 140.5 67t62.5 155
q0 62 -40 102t-102 40q-80 0 -137 -66t-57 -159q0 -63 36.5 -101t96.5 -38zM544 448l12 45q16 60 67 60q31 0 44.5 -21t3.5 -56l-112 -421q-16 -61 -69 -61q-26 0 -40 15t-12 39l6 27q-83 -86 -178 -86q-93 0 -153.5 63.5t-60.5 169.5q0 143 91.5 240t213.5 97
q128 0 187 -111z" />
    <glyph glyph-name="a.alt" horiz-adv-x="704" 
d="M310 92q78 0 140.5 67t62.5 155q0 62 -40 102t-102 40q-80 0 -137 -66t-57 -159q0 -63 36.5 -101t96.5 -38zM544 448l12 45q16 60 67 60q31 0 44.5 -21t3.5 -56l-112 -421q-16 -61 -69 -61q-26 0 -40 15t-12 39l6 27q-83 -86 -178 -86q-93 0 -153.5 63.5t-60.5 169.5
q0 143 91.5 240t213.5 97q128 0 187 -111z" />
    <glyph glyph-name="aring.alt2" horiz-adv-x="615" 
d="M384 553q31 0 51.5 23t20.5 55q0 23 -14.5 37.5t-39.5 14.5q-30 0 -51 -23.5t-21 -54.5q0 -23 14.5 -37.5t39.5 -14.5zM232 76q58 0 107.5 38.5t66.5 95.5l7 26q-68 22 -138 22q-60 0 -98 -29t-38 -77q0 -34 25.5 -55t67.5 -21zM412 -6q-31 0 -42.5 17t-8.5 40l6 23
q-77 -85 -183 -85q-71 0 -118.5 41t-47.5 108q0 92 67.5 145t172.5 53q85 0 173 -27l3 10q7 24 7 46q0 86 -125 86q-57 0 -109 -16q-2 0 -10.5 -1.5t-11.5 -1.5q-20 0 -34 14t-14 35q0 36 38 48q57 18 114 24q-15 21 -15 51q0 52 38.5 90t91.5 38q49 0 78.5 -28.5
t29.5 -71.5q0 -62 -52 -98q98 -41 98 -148q0 -30 -11 -80l-68 -251q-16 -61 -67 -61z" />
    <glyph glyph-name="aring.alt" horiz-adv-x="704" 
d="M458 617q-49 0 -78.5 28.5t-29.5 72.5q0 52 38.5 89.5t91.5 37.5q49 0 78.5 -28.5t29.5 -71.5q0 -52 -38.5 -90t-91.5 -38zM460 666q31 0 51.5 23.5t20.5 54.5q0 23 -14 37.5t-40 14.5q-31 0 -51.5 -23t-20.5 -54q0 -23 14.5 -38t39.5 -15zM310 92q78 0 140.5 67
t62.5 155q0 62 -40 102t-102 40q-80 0 -137 -66t-57 -159q0 -63 36.5 -101t96.5 -38zM544 448l12 45q16 60 67 60q31 0 44.5 -21t3.5 -56l-112 -421q-16 -61 -69 -61q-26 0 -40 15t-12 39l6 27q-83 -86 -178 -86q-93 0 -153.5 63.5t-60.5 169.5q0 143 91.5 240t213.5 97
q128 0 187 -111z" />
    <glyph glyph-name="amacron.alt" horiz-adv-x="704" 
d="M593 632h-276q-18 0 -31.5 13t-13.5 31t13.5 31t31.5 13h276q18 0 31 -13t13 -31q0 -19 -13 -31.5t-31 -12.5zM310 92q78 0 140.5 67t62.5 155q0 62 -40 102t-102 40q-80 0 -137 -66t-57 -159q0 -63 36.5 -101t96.5 -38zM544 448l12 45q16 60 67 60q31 0 44.5 -21
t3.5 -56l-112 -421q-16 -61 -69 -61q-26 0 -40 15t-12 39l6 27q-83 -86 -178 -86q-93 0 -153.5 63.5t-60.5 169.5q0 143 91.5 240t213.5 97q128 0 187 -111z" />
    <glyph glyph-name="abreve.alt" horiz-adv-x="704" 
d="M451 617q-65 0 -106 33.5t-41 80.5q0 20 12.5 32t31.5 12q29 0 39 -25q20 -48 76 -48q50 0 88 49q22 24 45 24q17 0 27 -9.5t10 -26.5q0 -15 -10 -29q-27 -41 -72 -67t-100 -26zM310 92q78 0 140.5 67t62.5 155q0 62 -40 102t-102 40q-80 0 -137 -66t-57 -159
q0 -63 36.5 -101t96.5 -38zM544 448l12 45q16 60 67 60q31 0 44.5 -21t3.5 -56l-112 -421q-16 -61 -69 -61q-26 0 -40 15t-12 39l6 27q-83 -86 -178 -86q-93 0 -153.5 63.5t-60.5 169.5q0 143 91.5 240t213.5 97q128 0 187 -111z" />
    </font>
</defs>
</svg>
