<svg xmlns="http://www.w3.org/2000/svg" width="183" height="43" viewBox="0 0 183 43"><g><g><path fill="#00af3f" d="M110.64 28.79c-.296-.314-.76-.61-.844-1.838-.549-8.055 1.235-20.98 1.253-21.11a2.982 2.982 0 0 0-2.538-3.362 2.983 2.983 0 0 0-3.36 2.538c-.195 1.39-1.879 13.824-1.298 22.34.203 2.984 1.442 5.294 3.487 6.505a2.976 2.976 0 0 0 4.08-1.046c.406-.684.52-1.485.323-2.257-.198-.77-.553-1.188-1.103-1.77z"/></g><g><path fill="#00af3f" d="M94.327 12.868c2.313.405 4.324 1.735 5.663 3.746 1.551 2.328 2.045 5.354 1.355 8.303-.61 2.608-2.074 4.915-4.122 6.495-1.742 1.344-3.745 2.05-5.765 2.05a8.66 8.66 0 0 1-1.495-.13c-2.313-.406-4.324-1.736-5.663-3.746-1.55-2.329-2.045-5.355-1.355-8.303.61-2.608 2.074-4.915 4.122-6.495 2.172-1.677 4.751-2.359 7.26-1.92zM95.78 23.53c.33-1.409.137-2.79-.529-3.789-.314-.472-.885-1.068-1.82-1.232a2.873 2.873 0 0 0-.507-.043c-1.905 0-3.85 1.802-4.412 4.204-.33 1.408-.137 2.79.53 3.788.313.472.884 1.07 1.821 1.232 2.053.36 4.305-1.546 4.917-4.16z"/></g><g><path fill="#00af3f" d="M80.718 28.874a2.888 2.888 0 0 1-3.133 4.852 6.803 6.803 0 0 1-2.583-3.05l-.044.04c-1.718 1.471-3.756 2.251-5.828 2.251-.341 0-.684-.02-1.026-.063-2.22-.278-4.19-1.452-5.547-3.308-1.566-2.138-2.163-4.988-1.641-7.819.464-2.515 1.753-4.784 3.629-6.39 2.002-1.714 4.435-2.492 6.854-2.189a7.96 7.96 0 0 1 3.36 1.23c.358-3.909.789-6.749.825-6.98a2.888 2.888 0 1 1 5.709.878c-.021.133-1.66 10.966-1.135 19.388.046.731.296.99.56 1.16zm-7.811-5.597c.235-1.274.009-2.499-.622-3.359-.29-.396-.802-.888-1.603-.989a2.583 2.583 0 0 0-.304-.018c-1.688 0-3.375 1.712-3.782 3.914-.235 1.274-.008 2.5.622 3.36.289.395.802.887 1.603.988 1.785.223 3.655-1.56 4.086-3.896z"/></g><g><path fill="#00af3f" d="M148.973 25.691c-.328-4.075-4.236-4.96-6.34-5.437a38.52 38.52 0 0 0-1.203-.228c-1.196-.199-2.318-.546-2.222-1.26.058-.429.902-.78 2.026-.68 1.334.115 1.96.346 3.377.862 1.416.515 2.817.096 3.514-1.13.756-1.33.25-3.02-1.117-3.725a13.9 13.9 0 0 0-1.05-.5c-1.157-.466-2.959-.909-5.342-.65-1.15.123-4.026.641-5.862 2.775-1.05 1.221-1.529 2.721-1.382 4.337.346 3.814 4.145 4.691 6.185 5.13 0 0 .755.148 1.64.4.443.126 1.47.33 1.81.861.312.492.016 1.23-.974 1.474-.505.125-1.349.143-1.935.028-.942-.185-1.879-.402-3.252-1.08-1.372-.679-2.898-.258-3.652.987a2.698 2.698 0 0 0 .934 3.718s.672.404 1.066.585a13.314 13.314 0 0 0 5.31 1.175c2.915.025 5.213-.94 6.83-2.699 1.225-1.334 1.792-3.043 1.64-4.943z"/></g><g><path fill="#00af3f" d="M127.653 14.018c1.91 1.062 3.174 2.75 3.656 4.885.46 2.028.243 3.6-.644 4.67-1.593 1.927-5.593 2.26-7.239 2.313-1.145.035-3.95-.102-5.309-.725.078.165.181.372.267.515.526.881 1.585 1.981 3.638 2.227 1.68.2 3.416-.2 4.372-.746a2.475 2.475 0 0 1 1.961-.227c.66.197 1.202.65 1.528 1.275.674 1.288.208 2.914-1.038 3.625-1.523.87-3.463 1.368-5.515 1.45a12.906 12.906 0 0 1-1.94-.073c-3.416-.409-5.46-2.136-6.573-3.512-1.235-1.527-1.977-3.552-2.035-5.554-.13-4.48 1.817-7.955 5.631-10.049 2.82-1.548 6.532-1.577 9.24-.074zm-2.052 6.435c.591-.23.645-.51.54-1.014-.2-.95-1.345-1.324-2.264-1.356-1.165-.04-2.322.202-3.106.648-.827.473-1.342.985-1.64 1.358.982.462 2.431.71 3.997.676.816-.016 1.953-.108 2.473-.312z"/></g><g><path fill="#00af3f" d="M9.199 14.231c.065-.004.13-.008.196-.014a2.595 2.595 0 0 0 2.366-2.812 2.58 2.58 0 0 0-.916-1.765 2.576 2.576 0 0 0-1.896-.6 1.346 1.346 0 0 1-1.143-2.204c.228-.27.56-.443.913-.472a2.607 2.607 0 0 0 2.365-2.812 2.599 2.599 0 0 0-2.812-2.366 6.495 6.495 0 0 0-4.443 2.305 6.496 6.496 0 0 0-1.512 4.772 6.549 6.549 0 0 0 6.882 5.968z"/></g><g><path fill="#00af3f" d="M55.513 14.018c1.909 1.062 3.174 2.75 3.656 4.885.459 2.028.243 3.6-.644 4.67-1.593 1.927-5.593 2.26-7.24 2.313-1.144.035-3.95-.102-5.308-.725.078.165.18.372.267.515.526.881 1.585 1.981 3.638 2.227 1.68.2 3.416-.2 4.372-.746a2.475 2.475 0 0 1 1.96-.227c.66.197 1.203.65 1.529 1.275.674 1.288.208 2.914-1.038 3.625-1.523.87-3.463 1.368-5.515 1.45a12.906 12.906 0 0 1-1.94-.073c-3.416-.409-5.46-2.136-6.573-3.512-1.235-1.527-1.977-3.552-2.035-5.554-.13-4.48 1.817-7.955 5.63-10.049 2.82-1.548 6.533-1.577 9.24-.074zm-2.052 6.435c.59-.23.645-.51.539-1.014-.2-.95-1.344-1.324-2.263-1.356-1.165-.04-2.322.202-3.106.648-.827.473-1.341.985-1.641 1.358.983.462 2.432.71 3.998.676.816-.016 1.953-.108 2.473-.312z"/></g><g><path fill="#00af3f" d="M26.34.585a3.044 3.044 0 0 0-2.35.069 3.05 3.05 0 0 0-1.612 1.708c-.291.766-.267 1.6.069 2.35a3.05 3.05 0 0 0 1.709 1.612c6.22 2.367 9.43 8.192 7.987 14.493-.763 3.335-2.496 5.842-5.15 7.453l-.12.07c-1.784-1.868-4.364-3.836-7.456-5.019 1.762-6.458 1.798-13.164.154-20.613A3.048 3.048 0 0 0 18.225.781a3.065 3.065 0 0 0-2.315-.41 3.075 3.075 0 0 0-2.336 3.661c1.457 6.605 1.386 12.519-.261 18.213a13.29 13.29 0 0 0-4.783 1.08c-.785.337-1.658.616-2.226.536a1.342 1.342 0 1 1 .383-2.658 2.608 2.608 0 0 0 2.942-2.202 2.6 2.6 0 0 0-2.202-2.942 6.497 6.497 0 0 0-4.85 1.237 6.496 6.496 0 0 0-2.555 4.305 6.547 6.547 0 0 0 2.653 6.237c-.29.366-.57.762-.826 1.184C.42 31.444.062 34.175.914 36.731c1.06 3.181 3.775 5.491 6.915 5.883.463.058.905.085 1.33.085 4.565 0 7.048-3.176 9.26-6.005.049-.063.1-.122.152-.181 4.337-.007 8.4-1.044 11.607-2.991 4.07-2.47 6.82-6.39 7.952-11.335C40.286 12.769 35.548 4.088 26.34.585z"/></g><g><path fill="#fff" d="M14.697 33.784c-2.546 3.258-3.748 4.46-6.282 4.142-1.324-.165-2.538-1.246-3.02-2.69-.595-1.787.03-3.69 1.76-5.362 2.006-1.938 4.244-2.914 6.668-2.914.439 0 .885.032 1.336.096.325.046.646.11.964.184-2.344.372-5.05 1.535-7.378 4.456a1.653 1.653 0 0 0 2.586 2.062c2.51-3.148 5.584-3.555 7.817-3.298a10.444 10.444 0 0 0-4.451 3.324z"/></g><g><path fill="#00af3f" d="M152.582 28.03c-1.583 0-2.775 1.17-2.775 2.72v.055c0 1.55 1.192 2.72 2.775 2.72 1.582 0 2.775-1.17 2.775-2.72v-.056c0-1.55-1.193-2.719-2.775-2.719z"/></g><g><path fill="#00af3f" d="M164.389 17.363c2.363 0 4.163.604 5.352 1.792 1.152 1.153 1.736 2.858 1.736 5.07v6.921c0 1.333-1.057 2.378-2.407 2.378-1.191 0-1.998-.68-2.273-1.48-1.165 1.071-2.608 1.595-4.394 1.595-3.306 0-5.527-1.994-5.527-4.96v-.057c0-3.278 2.345-5.159 6.435-5.159 1.469 0 2.545.238 3.405.506-.067-1.528-1.06-2.303-2.951-2.303-1.05 0-1.995.135-2.887.412a2.117 2.117 0 0 1-.716.127c-1.175 0-2.094-.907-2.094-2.066 0-.868.547-1.656 1.362-1.96 1.5-.565 3.03-.816 4.959-.816zm2.388 9.757c-.72-.298-1.58-.46-2.444-.46-.998 0-2.672.232-2.672 1.791v.057c0 1.133 1.057 1.537 2.047 1.537 1.836 0 3.069-.948 3.069-2.36z"/></g><g><path fill="#00af3f" d="M180.779 29.165c-.042 0-.125.006-.22.013a5.06 5.06 0 0 1-.291.015c-.78 0-1.083-.327-1.083-1.168v-6.188h1.594a2.154 2.154 0 0 0 2.15-2.151 2.154 2.154 0 0 0-2.15-2.152h-1.594V15.94a2.466 2.466 0 0 0-2.463-2.463 2.466 2.466 0 0 0-2.464 2.463v1.6a2.154 2.154 0 0 0-1.985 2.146c0 1.129.876 2.059 1.985 2.144v6.905c0 3.281 1.549 4.874 4.733 4.874 1.012 0 1.784-.132 2.578-.445a2.07 2.07 0 0 0 1.304-1.904 2.097 2.097 0 0 0-2.094-2.095z"/></g></g></svg>