<svg xmlns="http://www.w3.org/2000/svg" width="192" height="43" viewBox="0 0 192 43"><g><g><path fill="#00af3f" d="M111.355 28.79c-.297-.314-.762-.61-.845-1.838-.548-8.055 1.236-20.98 1.254-21.11a2.982 2.982 0 0 0-2.538-3.362 2.983 2.983 0 0 0-3.361 2.538c-.194 1.39-1.877 13.824-1.297 22.34.204 2.984 1.442 5.294 3.487 6.505.46.272.983.416 1.514.416a2.99 2.99 0 0 0 2.566-1.462c.405-.684.52-1.485.322-2.257-.197-.77-.552-1.188-1.102-1.77z"/></g><g><path fill="#00af3f" d="M95.042 12.868c2.313.405 4.324 1.735 5.663 3.746 1.55 2.328 2.045 5.354 1.355 8.303-.61 2.608-2.074 4.915-4.122 6.495-1.742 1.344-3.745 2.05-5.765 2.05a8.66 8.66 0 0 1-1.495-.13c-2.313-.406-4.324-1.736-5.663-3.746-1.551-2.329-2.045-5.355-1.355-8.303.61-2.608 2.074-4.915 4.122-6.495 2.172-1.677 4.75-2.359 7.26-1.92zm1.452 10.662c.33-1.409.137-2.79-.53-3.789-.313-.472-.884-1.068-1.82-1.232a2.873 2.873 0 0 0-.506-.043c-1.905 0-3.85 1.802-4.412 4.204-.33 1.408-.137 2.79.529 3.788.314.472.885 1.07 1.822 1.232 2.054.36 4.305-1.546 4.917-4.16z"/></g><g><path fill="#00af3f" d="M81.432 28.874a2.887 2.887 0 1 1-3.133 4.852 6.803 6.803 0 0 1-2.583-3.05l-.044.04c-1.718 1.471-3.755 2.251-5.827 2.251-.342 0-.684-.02-1.027-.063-2.219-.278-4.189-1.452-5.547-3.308-1.565-2.138-2.163-4.988-1.64-7.819.463-2.515 1.752-4.784 3.628-6.39 2.002-1.714 4.435-2.492 6.854-2.189a7.96 7.96 0 0 1 3.361 1.23c.357-3.909.788-6.749.824-6.98a2.888 2.888 0 1 1 5.71.878c-.022.133-1.66 10.966-1.136 19.388.046.731.296.99.56 1.16zm-7.81-5.597c.234-1.274.008-2.499-.622-3.359-.29-.396-.803-.888-1.604-.989a2.583 2.583 0 0 0-.304-.018c-1.688 0-3.375 1.712-3.782 3.914-.235 1.274-.008 2.5.622 3.36.29.395.802.887 1.604.988 1.784.223 3.654-1.56 4.085-3.896z"/></g><g><path fill="#00af3f" d="M149.688 25.691c-.328-4.075-4.236-4.96-6.34-5.437a38.52 38.52 0 0 0-1.204-.228c-1.196-.199-2.318-.546-2.222-1.26.058-.429.902-.78 2.026-.68 1.334.115 1.96.346 3.377.862 1.417.515 2.818.096 3.515-1.13.756-1.33.25-3.02-1.117-3.725a13.9 13.9 0 0 0-1.05-.5c-1.157-.466-2.96-.909-5.342-.65-1.151.123-4.026.641-5.862 2.775-1.051 1.221-1.528 2.721-1.382 4.337.346 3.814 4.145 4.691 6.185 5.13 0 0 .755.148 1.639.4.444.126 1.47.33 1.81.861.313.492.017 1.23-.973 1.474-.505.125-1.35.143-1.935.028-.942-.185-1.88-.402-3.252-1.08-1.372-.679-2.898-.258-3.652.987a2.698 2.698 0 0 0 .934 3.718s.672.404 1.066.585a13.318 13.318 0 0 0 5.309 1.175c2.916.025 5.214-.94 6.83-2.699 1.226-1.334 1.793-3.043 1.64-4.943z"/></g><g><path fill="#00af3f" d="M128.367 14.018c1.91 1.062 3.174 2.75 3.656 4.885.46 2.028.243 3.6-.644 4.67-1.593 1.927-5.593 2.26-7.239 2.313-1.145.035-3.95-.102-5.309-.725.078.165.181.372.267.515.526.881 1.585 1.981 3.638 2.227 1.68.2 3.416-.2 4.372-.746a2.48 2.48 0 0 1 1.961-.228 2.542 2.542 0 0 1 1.528 1.276c.674 1.288.208 2.914-1.038 3.625-1.523.87-3.463 1.368-5.515 1.45a12.906 12.906 0 0 1-1.94-.073c-3.416-.409-5.46-2.136-6.573-3.512-1.235-1.527-1.977-3.552-2.035-5.554-.13-4.48 1.817-7.955 5.631-10.049 2.82-1.548 6.532-1.577 9.24-.074zm-2.052 6.435c.591-.23.645-.51.54-1.014-.2-.95-1.345-1.324-2.264-1.356-1.165-.04-2.322.202-3.106.648-.827.473-1.34.985-1.64 1.358.982.462 2.431.71 3.997.676.816-.016 1.953-.108 2.473-.312z"/></g><g><path fill="#00af3f" d="M9.913 14.231c.065-.004.13-.008.196-.014a2.595 2.595 0 0 0 2.366-2.812 2.58 2.58 0 0 0-.916-1.765 2.576 2.576 0 0 0-1.896-.6A1.346 1.346 0 0 1 8.52 6.836c.228-.27.56-.443.913-.472a2.606 2.606 0 0 0 2.365-2.812 2.599 2.599 0 0 0-2.812-2.366 6.497 6.497 0 0 0-4.443 2.305 6.495 6.495 0 0 0-1.51 4.772 6.547 6.547 0 0 0 6.88 5.968z"/></g><g><path fill="#00af3f" d="M56.227 14.018c1.91 1.062 3.175 2.75 3.657 4.885.459 2.028.242 3.6-.644 4.67-1.594 1.927-5.593 2.26-7.24 2.313-1.145.035-3.95-.102-5.31-.725.079.165.183.372.269.515.526.881 1.584 1.981 3.638 2.227 1.679.2 3.416-.2 4.372-.746a2.477 2.477 0 0 1 1.96-.228 2.547 2.547 0 0 1 1.529 1.276c.674 1.288.208 2.914-1.038 3.625-1.523.87-3.463 1.368-5.515 1.45a12.906 12.906 0 0 1-1.941-.073c-3.416-.409-5.46-2.136-6.572-3.512-1.236-1.527-1.978-3.552-2.035-5.554-.13-4.48 1.817-7.955 5.63-10.049 2.819-1.548 6.533-1.577 9.24-.074zm-2.051 6.435c.59-.23.645-.51.539-1.014-.2-.95-1.344-1.324-2.263-1.356-1.166-.04-2.323.202-3.106.648-.827.473-1.342.985-1.642 1.358.984.462 2.433.71 3.998.676.816-.016 1.953-.108 2.474-.312z"/></g><g><path fill="#00af3f" d="M27.054.585a3.048 3.048 0 0 0-2.349.069 3.05 3.05 0 0 0-1.613 1.708 3.05 3.05 0 0 0 .07 2.35 3.044 3.044 0 0 0 1.708 1.612c6.22 2.367 9.43 8.192 7.987 14.493-.763 3.335-2.496 5.842-5.15 7.453l-.119.07c-1.785-1.868-4.365-3.836-7.457-5.019 1.763-6.458 1.798-13.164.155-20.613A3.068 3.068 0 0 0 16.624.371a3.075 3.075 0 0 0-2.336 3.661c1.458 6.605 1.386 12.519-.26 18.213a13.29 13.29 0 0 0-4.784 1.08c-.785.337-1.657.616-2.226.536a1.342 1.342 0 1 1 .383-2.658 2.607 2.607 0 0 0 2.942-2.202 2.6 2.6 0 0 0-2.202-2.942 6.498 6.498 0 0 0-4.85 1.237 6.496 6.496 0 0 0-2.555 4.305 6.547 6.547 0 0 0 2.653 6.237c-.288.366-.569.762-.826 1.184-1.428 2.422-1.787 5.153-.935 7.709 1.061 3.181 3.775 5.491 6.915 5.883.463.058.905.085 1.33.085 4.565 0 7.048-3.176 9.26-6.005.05-.063.102-.122.152-.181 4.337-.007 8.4-1.044 11.608-2.991 4.07-2.47 6.82-6.39 7.952-11.335C41 12.769 36.262 4.088 27.055.585z"/></g><g><path fill="#fff" d="M15.411 33.784c-2.546 3.258-3.747 4.46-6.28 4.142-1.326-.165-2.54-1.246-3.02-2.69-.596-1.787.028-3.69 1.758-5.362 2.006-1.938 4.244-2.914 6.668-2.914.44 0 .885.032 1.336.096.326.046.647.11.964.184-2.344.372-5.049 1.535-7.377 4.456a1.652 1.652 0 0 0 1.291 2.685c.487 0 .968-.214 1.295-.623 2.51-3.149 5.583-3.555 7.816-3.298a10.444 10.444 0 0 0-4.45 3.324z"/></g><g><path fill="#00af3f" d="M153.295 28.338c1.42 0 2.468 1.05 2.468 2.41v.058c0 1.362-1.049 2.412-2.468 2.412-1.418 0-2.468-1.05-2.468-2.412v-.057c0-1.361 1.05-2.411 2.468-2.411z"/></g><g><path fill="#00af3f" d="M150.503 30.806v-.057c0-1.56 1.2-2.735 2.792-2.735 1.592 0 2.792 1.175 2.792 2.735v.057c0 1.56-1.2 2.736-2.792 2.736-1.592 0-2.792-1.177-2.792-2.736zm.648-.057v.057c0 1.19.922 2.087 2.144 2.087 1.223 0 2.144-.897 2.144-2.087v-.057c0-1.19-.92-2.087-2.144-2.087-1.222 0-2.144.897-2.144 2.087z"/></g><g><path fill="#00af3f" d="M158.652 14.324a2.156 2.156 0 1 1 4.312 0v5.702c1.05-1.42 2.497-2.47 4.738-2.47 3.546 0 6.922 2.78 6.922 7.86v.057c0 5.078-3.319 7.858-6.922 7.858-2.298 0-3.717-1.05-4.738-2.27v.029c0 1.163-.965 2.128-2.156 2.128a2.155 2.155 0 0 1-2.156-2.157zm11.66 11.092c0-2.525-1.702-4.2-3.716-4.2-2.015 0-3.689 1.675-3.689 4.2v.057c0 2.524 1.674 4.198 3.689 4.198 2.014 0 3.716-1.645 3.716-4.198z"/></g><g><path fill="#00af3f" d="M163.182 31.783a2.473 2.473 0 0 1-2.374 1.759 2.484 2.484 0 0 1-2.48-2.481V14.323a2.483 2.483 0 0 1 2.48-2.48 2.482 2.482 0 0 1 2.48 2.48v4.805c1.194-1.274 2.645-1.895 4.414-1.895 3.6 0 7.247 2.811 7.247 8.183v.057c0 4.066-2.49 8.182-7.247 8.182-1.811 0-3.263-.597-4.52-1.872zm-.542-1.586l.573.657c1.23 1.468 2.656 2.153 4.489 2.153 3.178 0 6.599-2.358 6.599-7.534v-.057c0-4.946-3.32-7.535-6.6-7.535-1.873 0-3.296.743-4.476 2.337l-.585.79v-6.685a1.834 1.834 0 0 0-1.832-1.833c-1.01 0-1.832.822-1.832 1.833v16.738c0 1.01.822 1.833 1.832 1.833 1.01 0 1.832-.81 1.832-1.804zm-.056-4.724v-.057c0-2.579 1.724-4.523 4.012-4.523 2.303 0 4.04 1.944 4.04 4.523v.057c0 2.578-1.737 4.522-4.04 4.522-2.288 0-4.012-1.944-4.012-4.522zm.648-.057v.057c0 2.245 1.414 3.874 3.364 3.874 1.965 0 3.392-1.629 3.392-3.874v-.057c0-2.209-1.458-3.875-3.392-3.875-1.95 0-3.364 1.629-3.364 3.875z"/></g><g><path fill="#00af3f" d="M176.232 25.529v-.056c0-4.341 3.093-7.916 7.518-7.916 5.08 0 7.32 4.17 7.32 7.32 0 1.248-.88 2.07-2.014 2.07h-8.54c.426 1.958 1.788 2.98 3.716 2.98 1.192 0 2.185-.37 3.064-1.022.312-.227.597-.34 1.05-.34.965 0 1.674.738 1.674 1.702 0 .567-.255.993-.567 1.277-1.333 1.135-3.064 1.844-5.277 1.844-4.567 0-7.943-3.206-7.943-7.86zm10.725-1.276c-.255-1.93-1.39-3.235-3.206-3.235-1.787 0-2.95 1.277-3.291 3.235z"/></g><g><path fill="#00af3f" d="M175.909 25.53v-.057c0-4.697 3.37-8.24 7.842-8.24 5.568 0 7.644 4.689 7.644 7.644 0 1.388-.984 2.395-2.34 2.395h-8.118c.469 1.508 1.626 2.33 3.296 2.33 1.063 0 2.002-.313 2.87-.957a1.946 1.946 0 0 1 1.244-.404c1.139 0 1.998.87 1.998 2.026 0 .583-.24 1.122-.674 1.516-1.505 1.283-3.352 1.929-5.495 1.929-4.79 0-8.267-3.441-8.267-8.182zm.648-.057v.057c0 4.435 3.133 7.534 7.619 7.534 1.985 0 3.69-.595 5.067-1.767.203-.184.454-.52.454-1.03 0-.798-.568-1.378-1.35-1.378-.4 0-.617.102-.86.278-.981.729-2.046 1.084-3.254 1.084-2.116 0-3.586-1.18-4.033-3.234l-.085-.393h8.94c.996 0 1.69-.718 1.69-1.747 0-2.705-1.898-6.996-6.994-6.996-4.101 0-7.194 3.264-7.194 7.592zm10.77-.897h-7.253l.067-.378c.38-2.194 1.73-3.503 3.61-3.503 1.888 0 3.24 1.346 3.527 3.515zm-.753-.647c-.332-1.628-1.368-2.587-2.823-2.587-1.453 0-2.492.938-2.893 2.587z"/></g></g></svg>