<svg xmlns="http://www.w3.org/2000/svg" width="193" height="43" viewBox="0 0 193 43"><g><g><path fill="#00af3f" d="M111.087 28.79c-.295-.314-.76-.61-.844-1.838-.55-8.055 1.236-20.98 1.254-21.11a2.983 2.983 0 0 0-2.538-3.362 2.984 2.984 0 0 0-3.362 2.538c-.194 1.39-1.877 13.824-1.297 22.34.204 2.984 1.442 5.294 3.488 6.505a2.973 2.973 0 0 0 4.079-1.046c.406-.684.52-1.485.323-2.257-.198-.77-.552-1.188-1.103-1.77z"/></g><g><path fill="#00af3f" d="M94.775 12.868c2.313.405 4.324 1.735 5.663 3.746 1.55 2.328 2.045 5.354 1.355 8.303-.61 2.608-2.074 4.915-4.122 6.495-1.742 1.344-3.745 2.05-5.765 2.05a8.66 8.66 0 0 1-1.495-.13c-2.313-.406-4.324-1.736-5.663-3.746-1.551-2.329-2.045-5.355-1.355-8.303.61-2.608 2.074-4.915 4.122-6.495 2.172-1.677 4.75-2.359 7.26-1.92zm1.452 10.662c.33-1.409.137-2.79-.53-3.789-.313-.472-.884-1.068-1.821-1.232a2.854 2.854 0 0 0-.505-.043c-1.905 0-3.85 1.802-4.412 4.204-.33 1.408-.137 2.79.529 3.788.314.472.885 1.07 1.822 1.232 2.053.36 4.305-1.546 4.917-4.16z"/></g><g><path fill="#00af3f" d="M81.165 28.874a2.888 2.888 0 0 1-3.133 4.852 6.803 6.803 0 0 1-2.583-3.05l-.044.04c-1.718 1.471-3.756 2.251-5.828 2.251-.342 0-.684-.02-1.026-.063-2.219-.278-4.189-1.452-5.547-3.308-1.566-2.138-2.164-4.988-1.641-7.819.464-2.515 1.753-4.784 3.629-6.39 2.002-1.714 4.435-2.492 6.854-2.189a7.965 7.965 0 0 1 3.361 1.23c.357-3.909.788-6.749.824-6.98a2.888 2.888 0 1 1 5.709.878c-.021.133-1.66 10.966-1.135 19.388.046.731.296.99.56 1.16zm-7.811-5.597c.235-1.274.009-2.499-.622-3.359-.289-.396-.802-.888-1.603-.989a2.587 2.587 0 0 0-.305-.018c-1.687 0-3.375 1.712-3.781 3.914-.235 1.274-.008 2.5.622 3.36.289.395.802.887 1.603.988 1.785.223 3.655-1.56 4.086-3.896z"/></g><g><path fill="#00af3f" d="M149.42 25.691c-.328-4.075-4.236-4.96-6.34-5.437a38.173 38.173 0 0 0-1.204-.228c-1.195-.199-2.317-.546-2.22-1.26.057-.429.901-.78 2.025-.68 1.334.115 1.96.346 3.377.862 1.416.515 2.817.096 3.513-1.13a2.692 2.692 0 0 0-1.116-3.725 13.9 13.9 0 0 0-1.05-.5c-1.158-.466-2.959-.909-5.342-.65-1.15.123-4.026.641-5.862 2.775-1.05 1.221-1.529 2.721-1.382 4.337.346 3.814 4.145 4.691 6.185 5.13 0 0 .755.148 1.64.4.443.126 1.47.33 1.81.861.312.492.016 1.23-.974 1.474-.505.125-1.35.143-1.935.028-.942-.185-1.879-.402-3.252-1.08-1.373-.679-2.898-.258-3.653.987a2.699 2.699 0 0 0 .935 3.718s.672.404 1.066.585a13.314 13.314 0 0 0 5.31 1.175c2.915.025 5.213-.94 6.83-2.699 1.225-1.334 1.792-3.043 1.64-4.943z"/></g><g><path fill="#00af3f" d="M128.1 14.018c1.91 1.062 3.174 2.75 3.656 4.885.46 2.028.243 3.6-.644 4.67-1.593 1.927-5.593 2.26-7.239 2.313-1.146.035-3.95-.102-5.309-.725.078.165.181.372.267.515.526.881 1.585 1.981 3.638 2.227 1.68.2 3.416-.2 4.372-.746a2.472 2.472 0 0 1 1.96-.227c.66.197 1.203.65 1.53 1.275.673 1.288.207 2.914-1.039 3.625-1.523.87-3.463 1.368-5.515 1.45a12.906 12.906 0 0 1-1.94-.073c-3.416-.409-5.46-2.136-6.573-3.512-1.236-1.527-1.977-3.552-2.035-5.554-.13-4.48 1.817-7.955 5.631-10.049 2.818-1.548 6.532-1.577 9.24-.074zm-2.052 6.435c.591-.23.645-.51.54-1.014-.2-.95-1.345-1.324-2.264-1.356-1.165-.04-2.322.202-3.106.648-.827.473-1.342.985-1.64 1.358.982.462 2.431.71 3.997.676.816-.016 1.953-.108 2.473-.312z"/></g><g><path fill="#00af3f" d="M9.646 14.231c.065-.004.13-.008.196-.014a2.595 2.595 0 0 0 2.366-2.812 2.58 2.58 0 0 0-.916-1.765 2.576 2.576 0 0 0-1.896-.6 1.346 1.346 0 0 1-1.143-2.204c.228-.27.56-.443.913-.472a2.607 2.607 0 0 0 2.365-2.812 2.599 2.599 0 0 0-2.812-2.366 6.495 6.495 0 0 0-4.443 2.305 6.496 6.496 0 0 0-1.512 4.772 6.549 6.549 0 0 0 6.882 5.968z"/></g><g><path fill="#00af3f" d="M55.96 14.018c1.91 1.062 3.174 2.75 3.656 4.885.46 2.028.243 3.6-.644 4.67-1.593 1.927-5.593 2.26-7.239 2.313-1.146.035-3.95-.102-5.309-.725.078.165.181.372.267.515.526.881 1.585 1.981 3.638 2.227 1.68.2 3.416-.2 4.372-.746a2.473 2.473 0 0 1 1.96-.227c.66.197 1.203.65 1.53 1.275.673 1.288.207 2.914-1.039 3.625-1.523.87-3.463 1.368-5.515 1.45a12.906 12.906 0 0 1-1.94-.073c-3.416-.409-5.46-2.136-6.573-3.512-1.236-1.527-1.977-3.552-2.035-5.554-.13-4.48 1.817-7.955 5.631-10.049 2.82-1.548 6.532-1.577 9.24-.074zm-2.052 6.435c.591-.23.645-.51.54-1.014-.2-.95-1.345-1.324-2.264-1.356-1.165-.04-2.322.202-3.106.648-.827.473-1.342.985-1.64 1.358.982.462 2.431.71 3.997.676.816-.016 1.953-.108 2.473-.312z"/></g><g><path fill="#00af3f" d="M26.787.585a3.044 3.044 0 0 0-2.349.069 3.046 3.046 0 0 0-1.613 1.708c-.29.766-.267 1.6.07 2.35a3.05 3.05 0 0 0 1.708 1.612c6.22 2.367 9.43 8.192 7.987 14.493-.763 3.335-2.496 5.842-5.15 7.453l-.119.07c-1.785-1.868-4.365-3.836-7.457-5.019 1.762-6.458 1.798-13.164.154-20.613A3.048 3.048 0 0 0 18.672.781a3.065 3.065 0 0 0-2.315-.41 3.076 3.076 0 0 0-2.337 3.661c1.458 6.605 1.387 12.519-.26 18.213a13.29 13.29 0 0 0-4.783 1.08c-.785.337-1.658.616-2.227.536a1.342 1.342 0 1 1 .384-2.658 2.608 2.608 0 0 0 2.942-2.202 2.6 2.6 0 0 0-2.202-2.942 6.497 6.497 0 0 0-4.85 1.237A6.496 6.496 0 0 0 .47 21.601a6.545 6.545 0 0 0 2.653 6.237c-.289.366-.569.762-.826 1.184-1.428 2.422-1.787 5.153-.935 7.709 1.061 3.181 3.775 5.491 6.915 5.883.463.058.905.085 1.33.085 4.565 0 7.048-3.176 9.26-6.005.05-.063.101-.122.152-.181 4.337-.007 8.4-1.044 11.607-2.991 4.071-2.47 6.821-6.39 7.952-11.335 2.156-9.418-2.582-18.099-11.79-21.602z"/></g><g><path fill="#fff" d="M15.144 33.784c-2.546 3.258-3.748 4.46-6.282 4.142-1.324-.165-2.538-1.246-3.019-2.69-.596-1.787.029-3.69 1.759-5.362 2.006-1.938 4.244-2.914 6.668-2.914.439 0 .885.032 1.336.096.325.046.646.11.964.184-2.344.372-5.049 1.535-7.378 4.456a1.653 1.653 0 0 0 2.586 2.062c2.51-3.148 5.584-3.555 7.817-3.298a10.444 10.444 0 0 0-4.451 3.324z"/></g><g><path fill="#00af3f" d="M153.028 28.03c-1.582 0-2.775 1.17-2.775 2.72v.055c0 1.551 1.193 2.72 2.775 2.72 1.583 0 2.776-1.169 2.776-2.72v-.056c0-1.55-1.193-2.719-2.776-2.719z"/></g><g><path fill="#00af3f" d="M167.41 17.25c3.592 0 7.229 2.805 7.229 8.166v.057c0 4.058-2.483 8.166-7.23 8.166-1.815 0-3.27-.603-4.527-1.887a2.458 2.458 0 0 1-2.366 1.773 2.466 2.466 0 0 1-2.464-2.463V14.324a2.465 2.465 0 0 1 2.464-2.463 2.465 2.465 0 0 1 2.463 2.463v4.847c1.195-1.291 2.652-1.921 4.43-1.921zm2.302 8.166c0-2.218-1.465-3.891-3.41-3.891-1.958 0-3.38 1.636-3.38 3.89v.058c0 2.255 1.422 3.892 3.38 3.892 1.976 0 3.41-1.637 3.41-3.892z"/></g><g><path fill="#00af3f" d="M189.68 17.363a2.467 2.467 0 0 1 2.463 2.464v9.787c0 2.777-.68 4.864-2.02 6.203-1.434 1.436-3.65 2.133-6.77 2.133-2.028 0-3.83-.34-5.672-1.07-.886-.342-1.415-1.074-1.415-1.96 0-1.14.927-2.066 2.066-2.066.297 0 .569.054.83.166a9.53 9.53 0 0 0 4.078.883c2.729 0 4.012-1.199 4.033-3.77-1.343 1.376-2.774 1.973-4.657 1.973-3.508 0-7.06-2.542-7.06-7.399v-.058c0-4.857 3.552-7.399 7.06-7.399 2.276 0 3.666.903 4.69 1.908a2.46 2.46 0 0 1 2.374-1.795zm-5.816 10.554c1.976 0 3.409-1.351 3.409-3.21v-.058c0-1.86-1.433-3.21-3.41-3.21-1.958 0-3.38 1.35-3.38 3.21v.058c0 1.89 1.39 3.21 3.38 3.21z"/></g></g></svg>