<svg xmlns="http://www.w3.org/2000/svg" width="229" height="43" viewBox="0 0 229 43"><g><g><path fill="#00af3f" d="M111.018 28.976c-.295-.313-.76-.61-.844-1.837-.549-8.055 1.236-20.98 1.254-21.11a2.984 2.984 0 0 0-2.539-3.362 2.983 2.983 0 0 0-3.36 2.538c-.195 1.39-1.878 13.824-1.298 22.339.204 2.985 1.442 5.295 3.487 6.506.46.273.984.416 1.515.416a2.99 2.99 0 0 0 2.565-1.461c.406-.684.52-1.486.323-2.257-.198-.77-.552-1.19-1.103-1.772z"/></g><g><path fill="#00af3f" d="M94.706 13.056c2.312.404 4.324 1.734 5.663 3.745 1.551 2.328 2.044 5.354 1.354 8.303-.61 2.608-2.074 4.915-4.12 6.495-1.743 1.345-3.747 2.049-5.767 2.049a8.57 8.57 0 0 1-1.495-.13c-2.312-.405-4.324-1.735-5.663-3.745-1.55-2.328-2.044-5.355-1.354-8.303.61-2.608 2.074-4.915 4.121-6.495 2.172-1.677 4.751-2.36 7.261-1.92zm1.451 10.66c.33-1.407.137-2.788-.528-3.788-.315-.472-.886-1.068-1.822-1.232a2.969 2.969 0 0 0-.505-.043c-1.905 0-3.85 1.802-4.413 4.204-.329 1.408-.136 2.79.53 3.789.313.47.884 1.068 1.821 1.232 2.054.359 4.305-1.547 4.917-4.161z"/></g><g><path fill="#00af3f" d="M81.095 29.06a2.889 2.889 0 1 1-3.132 4.854 6.805 6.805 0 0 1-2.583-3.051c-.015.014-.029.028-.044.04-1.718 1.47-3.756 2.252-5.828 2.252-.342 0-.684-.021-1.026-.064-2.219-.277-4.189-1.452-5.548-3.308-1.565-2.137-2.163-4.988-1.64-7.82.464-2.514 1.753-4.783 3.63-6.39 2-1.713 4.434-2.49 6.853-2.187a7.95 7.95 0 0 1 3.361 1.228c.356-3.908.788-6.748.823-6.98a2.888 2.888 0 0 1 5.71.879c-.02.134-1.66 10.966-1.135 19.388.046.732.296.99.56 1.16zm-7.81-5.595c.235-1.274.008-2.5-.622-3.36-.289-.395-.802-.888-1.603-.988a2.601 2.601 0 0 0-.305-.02c-1.687 0-3.375 1.713-3.78 3.915-.236 1.274-.01 2.499.621 3.359.29.396.802.888 1.603.989 1.785.223 3.655-1.561 4.086-3.895z"/></g><g><path fill="#00af3f" d="M149.352 25.878c-.328-4.074-4.236-4.961-6.34-5.437a42.15 42.15 0 0 0-1.204-.228c-1.195-.2-2.317-.546-2.221-1.26.057-.43.902-.78 2.026-.681 1.334.116 1.96.348 3.377.864 1.416.515 2.817.095 3.513-1.13a2.693 2.693 0 0 0-1.116-3.726c-.413-.212-.79-.396-1.05-.501-1.158-.465-2.96-.908-5.342-.65-1.151.124-4.026.643-5.862 2.776-1.051 1.222-1.53 2.72-1.382 4.337.346 3.815 4.145 4.69 6.185 5.129 0 0 .755.149 1.639.4.444.127 1.47.33 1.81.863.313.49.017 1.228-.973 1.473-.505.125-1.35.144-1.935.029-.942-.186-1.88-.403-3.252-1.081-1.373-.678-2.9-.258-3.653.988a2.698 2.698 0 0 0 .935 3.717s.672.404 1.066.586a13.332 13.332 0 0 0 5.309 1.174c2.916.026 5.214-.94 6.83-2.7 1.226-1.332 1.793-3.042 1.64-4.942z"/></g><g><path fill="#00af3f" d="M128.03 14.206c1.91 1.06 3.175 2.75 3.657 4.884.46 2.028.243 3.599-.644 4.67-1.594 1.927-5.593 2.259-7.239 2.313-1.146.036-3.95-.101-5.31-.725.08.165.182.372.268.516.526.88 1.584 1.98 3.638 2.226 1.68.2 3.416-.2 4.372-.746a2.477 2.477 0 0 1 1.96-.227c.66.198 1.202.65 1.53 1.275.673 1.288.207 2.914-1.039 3.625-1.523.87-3.463 1.369-5.515 1.449a11.929 11.929 0 0 1-1.94-.072c-3.417-.41-5.46-2.135-6.573-3.511-1.236-1.528-1.977-3.553-2.035-5.554-.13-4.48 1.817-7.956 5.631-10.05 2.818-1.548 6.532-1.577 9.24-.073zm-2.05 6.435c.59-.231.644-.512.538-1.015-.2-.95-1.343-1.324-2.262-1.356-1.167-.041-2.323.202-3.107.649-.826.472-1.341.984-1.641 1.357.984.462 2.433.71 3.999.677.815-.017 1.952-.11 2.472-.312z"/></g><g><path fill="#00af3f" d="M9.577 14.418c.065-.003.13-.008.195-.014h.001l.127-.013a2.596 2.596 0 0 0 2.24-2.798 2.582 2.582 0 0 0-.917-1.766 2.576 2.576 0 0 0-1.896-.6 1.345 1.345 0 0 1-1.143-2.203c.228-.271.56-.444.912-.473a2.608 2.608 0 0 0 2.366-2.812A2.6 2.6 0 0 0 8.65 1.373a6.5 6.5 0 0 0-4.443 2.305A6.497 6.497 0 0 0 2.695 8.45a6.549 6.549 0 0 0 6.882 5.968z"/></g><g><path fill="#00af3f" d="M55.89 14.206c1.91 1.06 3.175 2.75 3.657 4.884.46 2.028.243 3.599-.644 4.67-1.593 1.927-5.593 2.259-7.239 2.313-1.146.036-3.95-.101-5.309-.725.078.165.181.372.267.516.526.88 1.584 1.98 3.638 2.226 1.68.2 3.416-.2 4.372-.746a2.477 2.477 0 0 1 1.96-.227c.66.198 1.202.65 1.53 1.275.673 1.288.207 2.914-1.039 3.625-1.523.87-3.463 1.369-5.515 1.449a11.929 11.929 0 0 1-1.94-.072c-3.416-.41-5.46-2.135-6.573-3.511-1.236-1.528-1.977-3.553-2.035-5.554-.13-4.48 1.817-7.956 5.631-10.05 2.818-1.548 6.532-1.577 9.24-.073zm-2.05 6.435c.59-.231.644-.512.538-1.015-.2-.95-1.344-1.324-2.263-1.356-1.166-.041-2.322.202-3.106.649-.827.472-1.342.984-1.642 1.357.984.462 2.433.71 4 .677.815-.017 1.952-.11 2.472-.312z"/></g><g><path fill="#00af3f" d="M26.718.771a3.053 3.053 0 0 0-2.35.07 3.054 3.054 0 0 0-1.612 1.709c-.291.765-.267 1.6.07 2.349a3.05 3.05 0 0 0 1.708 1.613c6.22 2.366 9.43 8.19 7.987 14.492-.763 3.335-2.496 5.843-5.15 7.454l-.12.069c-1.783-1.868-4.364-3.835-7.455-5.02 1.762-6.458 1.798-13.164.154-20.613a3.071 3.071 0 0 0-5.998 1.324c1.458 6.606 1.386 12.52-.261 18.214a13.29 13.29 0 0 0-4.783 1.08c-.785.336-1.657.616-2.226.535a1.342 1.342 0 1 1 .383-2.658 2.606 2.606 0 0 0 2.942-2.2 2.598 2.598 0 0 0-2.202-2.943 6.498 6.498 0 0 0-4.85 1.236A6.496 6.496 0 0 0 .4 21.787a6.546 6.546 0 0 0 2.654 6.237c-.29.367-.57.763-.826 1.184C.8 31.631.44 34.361 1.292 36.918c1.06 3.18 3.776 5.49 6.916 5.882.462.059.904.087 1.329.087 4.566-.002 7.049-3.177 9.26-6.007.05-.063.102-.12.152-.18 4.337-.007 8.4-1.045 11.608-2.992 4.07-2.47 6.82-6.388 7.952-11.334 2.155-9.417-2.583-18.1-11.791-21.602z"/></g><g><path fill="#fff" d="M15.075 33.97c-2.546 3.259-3.748 4.46-6.282 4.144-1.324-.166-2.538-1.247-3.019-2.691-.596-1.787.03-3.691 1.76-5.362 2.005-1.937 4.243-2.913 6.667-2.913a9.657 9.657 0 0 1 2.3.28c-2.344.37-5.049 1.534-7.378 4.455a1.653 1.653 0 0 0 2.586 2.062c2.51-3.148 5.584-3.555 7.817-3.297a10.444 10.444 0 0 0-4.45 3.323z"/></g><g><path fill="#00af3f" d="M152.96 28.217c-1.583 0-2.776 1.169-2.776 2.719v.057c0 1.55 1.193 2.718 2.775 2.718 1.583 0 2.775-1.168 2.775-2.718v-.057c0-1.55-1.192-2.72-2.775-2.72z"/></g><g><path fill="#00af3f" d="M169.048 28.104c-.664 0-1.164.32-1.354.464-.857.68-1.673.982-2.646.982-2.09 0-3.551-1.6-3.551-3.89v-.057c0-2.15 1.485-3.835 3.38-3.835.947 0 1.696.27 2.507.9.236.183.736.49 1.437.49 1.249 0 2.265-1.003 2.265-2.237a2.23 2.23 0 0 0-.79-1.71c-1.434-1.21-3.146-1.774-5.39-1.774-4.72 0-8.28 3.535-8.28 8.223v.056c0 4.579 3.613 8.166 8.224 8.166 2.293 0 4.07-.647 5.598-2.04.473-.435.723-.984.723-1.587 0-1.206-.933-2.151-2.123-2.151z"/></g><g><path fill="#00af3f" d="M180.198 17.436c4.77 0 8.506 3.587 8.506 8.166v.057c0 4.611-3.761 8.222-8.563 8.222-4.77 0-8.506-3.587-8.506-8.166v-.056c0-4.61 3.76-8.223 8.563-8.223zm-3.693 8.224c0 2.218 1.588 3.89 3.693 3.89 2.14 0 3.636-1.577 3.636-3.835v-.056c0-2.219-1.587-3.892-3.693-3.892-2.14 0-3.636 1.577-3.636 3.835z"/></g><g><path fill="#00af3f" d="M192.33 28.217c-1.584 0-2.776 1.169-2.776 2.719v.057c0 1.55 1.192 2.718 2.775 2.718 1.582 0 2.775-1.168 2.775-2.718v-.057c0-1.55-1.193-2.72-2.775-2.72z"/></g><g><path fill="#00af3f" d="M209.014 17.55a2.465 2.465 0 0 0-2.463 2.464v6.497c0 1.796-.85 2.785-2.388 2.785-1.903 0-2.303-1.515-2.303-2.785v-6.497a2.465 2.465 0 0 0-2.464-2.463 2.465 2.465 0 0 0-2.463 2.463v7.858c0 3.672 2.096 5.953 5.47 5.953 2.018 0 3.309-.967 4.22-1.983a2.467 2.467 0 0 0 2.39 1.869 2.465 2.465 0 0 0 2.464-2.463V20.014a2.465 2.465 0 0 0-2.463-2.463z"/></g><g><path fill="#00af3f" d="M227.664 29.874l-3.887-5.246 3.2-2.746c.538-.513 1.088-1.162 1.088-2.095 0-1.1-.826-2.236-2.208-2.236-.848 0-1.417.385-2.112 1.049l-4.872 4.614V14.51a2.465 2.465 0 0 0-2.463-2.463 2.465 2.465 0 0 0-2.464 2.463v16.738a2.466 2.466 0 0 0 2.464 2.463 2.466 2.466 0 0 0 2.463-2.463v-2.331l1.375-1.24 3.572 4.914c.573.796 1.188 1.12 2.122 1.12 1.302 0 2.321-.994 2.321-2.265 0-.527-.173-.982-.599-1.572z"/></g></g></svg>