<svg xmlns="http://www.w3.org/2000/svg" width="214" height="43" viewBox="0 0 214 43"><g><g><path fill="#00af3f" d="M110.817 28.976c-.295-.313-.76-.61-.844-1.837-.549-8.055 1.236-20.98 1.254-21.11a2.984 2.984 0 0 0-2.539-3.362 2.983 2.983 0 0 0-3.36 2.538c-.195 1.39-1.878 13.824-1.298 22.339.204 2.985 1.442 5.295 3.487 6.506.46.273.984.416 1.515.416a2.99 2.99 0 0 0 2.565-1.461c.406-.684.52-1.486.323-2.257-.198-.77-.552-1.19-1.103-1.772z"/></g><g><path fill="#00af3f" d="M94.505 13.056c2.313.404 4.325 1.734 5.663 3.745 1.551 2.328 2.044 5.354 1.354 8.303-.61 2.608-2.073 4.915-4.121 6.495-1.742 1.345-3.745 2.049-5.765 2.049a8.57 8.57 0 0 1-1.495-.13c-2.314-.405-4.325-1.735-5.664-3.745-1.55-2.328-2.043-5.355-1.353-8.303.61-2.608 2.073-4.915 4.12-6.495 2.173-1.677 4.752-2.36 7.262-1.92zm1.452 10.66c.33-1.407.137-2.788-.528-3.788-.316-.472-.887-1.068-1.823-1.232a2.972 2.972 0 0 0-.505-.043c-1.905 0-3.85 1.802-4.413 4.204-.329 1.408-.136 2.79.53 3.789.313.47.884 1.068 1.821 1.232 2.054.359 4.305-1.547 4.917-4.161z"/></g><g><path fill="#00af3f" d="M80.894 29.06a2.889 2.889 0 1 1-3.132 4.854 6.799 6.799 0 0 1-2.583-3.051c-.015.014-.029.028-.044.04-1.718 1.47-3.756 2.252-5.828 2.252-.342 0-.684-.021-1.026-.064-2.219-.277-4.189-1.452-5.548-3.308-1.565-2.137-2.163-4.988-1.64-7.82.464-2.514 1.753-4.783 3.63-6.39 2-1.713 4.434-2.49 6.853-2.187a7.95 7.95 0 0 1 3.362 1.228c.355-3.908.787-6.748.822-6.98a2.888 2.888 0 0 1 5.71.879c-.02.134-1.66 10.966-1.135 19.388.047.732.297.99.56 1.16zm-7.81-5.595c.236-1.274.009-2.5-.621-3.36-.29-.395-.802-.888-1.603-.988a2.601 2.601 0 0 0-.305-.02c-1.688 0-3.376 1.713-3.782 3.915-.234 1.274-.008 2.499.622 3.359.29.396.802.888 1.603.989 1.785.223 3.655-1.561 4.086-3.895z"/></g><g><path fill="#00af3f" d="M149.15 25.878c-.327-4.074-4.235-4.961-6.34-5.437a42.15 42.15 0 0 0-1.203-.228c-1.195-.2-2.317-.546-2.221-1.26.057-.43.902-.78 2.026-.681 1.334.116 1.96.348 3.377.864 1.416.515 2.817.095 3.513-1.13a2.693 2.693 0 0 0-1.116-3.726c-.413-.212-.79-.396-1.05-.501-1.158-.465-2.96-.908-5.342-.65-1.151.124-4.026.643-5.862 2.776-1.051 1.222-1.53 2.72-1.382 4.337.346 3.815 4.144 4.69 6.185 5.129 0 0 .755.149 1.638.4.445.127 1.472.33 1.81.863.314.49.018 1.228-.972 1.473-.505.125-1.35.144-1.935.029-.942-.186-1.88-.403-3.252-1.081-1.373-.678-2.9-.258-3.653.988a2.698 2.698 0 0 0 .934 3.717s.673.404 1.066.586a13.342 13.342 0 0 0 5.31 1.174c2.916.026 5.214-.94 6.83-2.7 1.226-1.332 1.793-3.042 1.64-4.942z"/></g><g><path fill="#00af3f" d="M127.83 14.206c1.91 1.06 3.175 2.75 3.657 4.884.459 2.028.242 3.599-.644 4.67-1.594 1.927-5.593 2.259-7.24 2.313-1.145.036-3.95-.101-5.31-.725.08.165.183.372.269.516.526.88 1.584 1.98 3.638 2.226 1.679.2 3.416-.2 4.372-.746a2.477 2.477 0 0 1 1.96-.227c.66.198 1.202.65 1.529 1.275.674 1.288.208 2.914-1.038 3.625-1.523.87-3.463 1.369-5.515 1.449a11.917 11.917 0 0 1-1.94-.072c-3.417-.41-5.46-2.135-6.573-3.511-1.236-1.528-1.978-3.553-2.035-5.554-.13-4.48 1.817-7.956 5.63-10.05 2.819-1.548 6.533-1.577 9.24-.073zm-2.051 6.435c.59-.231.645-.512.539-1.015-.2-.95-1.344-1.324-2.263-1.356-1.166-.041-2.322.202-3.106.649-.827.472-1.342.984-1.642 1.357.984.462 2.433.71 3.998.677.817-.017 1.954-.11 2.474-.312z"/></g><g><path fill="#00af3f" d="M9.377 14.418c.064-.003.13-.008.194-.014h.002l.125-.013a2.596 2.596 0 0 0 2.24-2.798 2.586 2.586 0 0 0-.916-1.766 2.576 2.576 0 0 0-1.896-.6 1.345 1.345 0 0 1-1.143-2.203c.228-.271.56-.444.913-.473a2.608 2.608 0 0 0 2.365-2.812A2.6 2.6 0 0 0 8.45 1.373a6.5 6.5 0 0 0-4.443 2.305A6.497 6.497 0 0 0 2.495 8.45a6.548 6.548 0 0 0 6.882 5.968z"/></g><g><path fill="#00af3f" d="M55.69 14.206c1.91 1.06 3.175 2.75 3.657 4.884.459 2.028.243 3.599-.644 4.67-1.594 1.927-5.593 2.259-7.24 2.313-1.145.036-3.95-.101-5.31-.725.08.165.183.372.269.516.526.88 1.584 1.98 3.638 2.226 1.679.2 3.416-.2 4.372-.746a2.477 2.477 0 0 1 1.96-.227c.66.198 1.202.65 1.529 1.275.674 1.288.208 2.914-1.038 3.625-1.523.87-3.463 1.369-5.515 1.449a11.929 11.929 0 0 1-1.94-.072c-3.417-.41-5.46-2.135-6.573-3.511-1.236-1.528-1.977-3.553-2.035-5.554-.13-4.48 1.817-7.956 5.63-10.05 2.819-1.548 6.533-1.577 9.24-.073zm-2.051 6.435c.59-.231.645-.512.539-1.015-.2-.95-1.344-1.324-2.263-1.356-1.166-.041-2.322.202-3.106.649-.827.472-1.342.984-1.642 1.357.984.462 2.433.71 3.999.677.816-.017 1.953-.11 2.473-.312z"/></g><g><path fill="#00af3f" d="M26.517.771a3.053 3.053 0 0 0-2.349.07 3.054 3.054 0 0 0-1.613 1.709c-.29.765-.267 1.6.07 2.349a3.05 3.05 0 0 0 1.708 1.613c6.22 2.366 9.43 8.19 7.987 14.492-.763 3.335-2.496 5.843-5.15 7.454l-.119.069c-1.784-1.868-4.365-3.835-7.456-5.02 1.762-6.458 1.797-13.164.154-20.613A3.073 3.073 0 0 0 16.087.558a3.076 3.076 0 0 0-2.336 3.662c1.458 6.605 1.386 12.52-.26 18.213a13.29 13.29 0 0 0-4.784 1.08c-.785.336-1.657.616-2.226.535a1.342 1.342 0 1 1 .383-2.658 2.606 2.606 0 0 0 2.942-2.2 2.598 2.598 0 0 0-2.202-2.943 6.498 6.498 0 0 0-4.85 1.236A6.496 6.496 0 0 0 .2 21.787a6.547 6.547 0 0 0 2.653 6.237 12.16 12.16 0 0 0-.825 1.184C.6 31.631.24 34.361 1.091 36.918c1.061 3.18 3.776 5.49 6.916 5.882.462.059.904.087 1.33.087 4.565-.002 7.047-3.177 9.26-6.007.05-.063.101-.12.151-.18 4.337-.007 8.4-1.045 11.608-2.992 4.07-2.47 6.82-6.388 7.952-11.334 2.155-9.417-2.583-18.1-11.79-21.602z"/></g><g><path fill="#fff" d="M14.874 33.97c-2.546 3.259-3.748 4.46-6.282 4.144-1.324-.166-2.538-1.247-3.019-2.691-.596-1.787.03-3.691 1.76-5.362 2.005-1.937 4.243-2.913 6.667-2.913a9.657 9.657 0 0 1 2.3.28c-2.344.37-5.049 1.534-7.378 4.455a1.653 1.653 0 0 0 2.586 2.062c2.51-3.148 5.585-3.555 7.818-3.297a10.438 10.438 0 0 0-4.452 3.323z"/></g><g><path fill="#00af3f" d="M152.759 28.218c-1.582 0-2.775 1.168-2.775 2.719v.056c0 1.55 1.193 2.719 2.775 2.719 1.583 0 2.775-1.17 2.775-2.72v-.055c0-1.551-1.192-2.72-2.775-2.72z"/></g><g><path fill="#00af3f" d="M168.847 28.104c-.664 0-1.164.32-1.354.464-.857.68-1.673.982-2.646.982-2.09 0-3.55-1.6-3.55-3.89v-.057c0-2.15 1.484-3.835 3.38-3.835.946 0 1.696.27 2.506.9.236.184.735.49 1.437.49 1.25 0 2.265-1.004 2.265-2.237 0-.795-.41-1.407-.789-1.71-1.435-1.21-3.147-1.774-5.39-1.774-4.72 0-8.28 3.535-8.28 8.223v.056c0 4.579 3.612 8.166 8.223 8.166 2.293 0 4.071-.647 5.598-2.04.473-.435.723-.984.723-1.587 0-1.206-.933-2.151-2.123-2.151z"/></g><g><path fill="#00af3f" d="M179.997 17.436c4.77 0 8.506 3.587 8.506 8.166v.057c0 4.61-3.76 8.222-8.563 8.222-4.769 0-8.506-3.587-8.506-8.166v-.056c0-4.61 3.761-8.223 8.563-8.223zm-3.693 8.224c0 2.218 1.588 3.89 3.693 3.89 2.141 0 3.636-1.577 3.636-3.835v-.056c0-2.219-1.587-3.892-3.693-3.892-2.14 0-3.636 1.577-3.636 3.835z"/></g><g><path fill="#00af3f" d="M208.49 17.436c-1.934 0-3.554.72-4.939 2.197-.903-1.42-2.426-2.197-4.339-2.197-2.039 0-3.335.968-4.247 1.984a2.468 2.468 0 0 0-2.392-1.87 2.466 2.466 0 0 0-2.463 2.463v11.235a2.466 2.466 0 0 0 2.463 2.463 2.466 2.466 0 0 0 2.464-2.463V24.75c0-1.269.4-2.784 2.303-2.784 1.471 0 2.217.937 2.217 2.784v6.498a2.466 2.466 0 0 0 2.464 2.463 2.466 2.466 0 0 0 2.463-2.463V24.75c0-1.269.4-2.784 2.303-2.784 1.471 0 2.217.937 2.217 2.784v6.498a2.466 2.466 0 0 0 2.464 2.463 2.466 2.466 0 0 0 2.463-2.463v-7.916c0-3.747-1.984-5.896-5.442-5.896z"/></g></g></svg>