<svg xmlns="http://www.w3.org/2000/svg" width="186" height="43" viewBox="0 0 186 43"><g><g><path fill="#00af3f" d="M110.987 28.976c-.296-.313-.76-.61-.844-1.837-.549-8.055 1.235-20.98 1.254-21.11a2.984 2.984 0 0 0-2.539-3.362 2.983 2.983 0 0 0-3.36 2.538c-.195 1.39-1.878 13.824-1.298 22.339.204 2.985 1.442 5.295 3.487 6.506.46.273.984.416 1.515.416a2.99 2.99 0 0 0 2.565-1.461c.406-.684.52-1.486.323-2.257-.198-.77-.553-1.19-1.103-1.772z"/></g><g><path fill="#00af3f" d="M94.675 13.056c2.313.404 4.324 1.734 5.663 3.745 1.55 2.328 2.045 5.354 1.355 8.303-.61 2.608-2.074 4.915-4.122 6.495-1.742 1.345-3.745 2.049-5.765 2.049-.5 0-.998-.042-1.495-.13-2.314-.405-4.325-1.735-5.664-3.745-1.55-2.328-2.044-5.355-1.354-8.303.61-2.608 2.073-4.915 4.121-6.495 2.173-1.677 4.752-2.36 7.262-1.92zm1.451 10.66c.33-1.407.137-2.788-.529-3.788-.313-.472-.884-1.068-1.82-1.232a2.972 2.972 0 0 0-.507-.043c-1.904 0-3.85 1.802-4.411 4.204-.33 1.408-.138 2.79.528 3.789.314.47.885 1.068 1.822 1.232 2.054.359 4.305-1.547 4.917-4.161z"/></g><g><path fill="#00af3f" d="M81.065 29.06a2.888 2.888 0 0 1-3.133 4.854 6.811 6.811 0 0 1-2.583-3.051l-.044.04c-1.718 1.47-3.755 2.252-5.827 2.252-.342 0-.684-.021-1.027-.064-2.218-.277-4.19-1.452-5.547-3.308-1.565-2.137-2.163-4.988-1.641-7.82.464-2.514 1.753-4.783 3.629-6.39 2.002-1.713 4.435-2.49 6.854-2.187a7.94 7.94 0 0 1 3.36 1.228c.358-3.908.789-6.748.825-6.98a2.888 2.888 0 1 1 5.709.878c-.021.135-1.66 10.967-1.135 19.389.046.732.296.99.56 1.16zm-7.811-5.595c.235-1.274.009-2.5-.621-3.36-.29-.395-.803-.888-1.604-.988a2.584 2.584 0 0 0-.304-.02c-1.688 0-3.375 1.713-3.782 3.915-.235 1.274-.008 2.499.622 3.359.289.396.803.888 1.604.989 1.784.223 3.654-1.561 4.085-3.895z"/></g><g><path fill="#00af3f" d="M149.32 25.878c-.327-4.074-4.236-4.961-6.34-5.437a41.865 41.865 0 0 0-1.203-.228c-1.196-.2-2.318-.546-2.222-1.26.058-.43.902-.78 2.026-.681 1.334.116 1.96.348 3.377.864 1.416.515 2.817.095 3.514-1.13a2.694 2.694 0 0 0-1.117-3.726c-.412-.212-.79-.396-1.049-.501-1.158-.465-2.96-.908-5.343-.65-1.15.124-4.026.643-5.862 2.776-1.05 1.222-1.528 2.72-1.382 4.337.346 3.815 4.145 4.69 6.185 5.129 0 0 .755.149 1.64.4.443.127 1.47.33 1.81.863.313.49.016 1.228-.974 1.473-.504.125-1.349.144-1.935.029-.942-.186-1.879-.403-3.25-1.081-1.374-.678-2.9-.258-3.654.988a2.696 2.696 0 0 0 .934 3.717s.672.404 1.066.586a13.336 13.336 0 0 0 5.31 1.174c2.915.026 5.213-.94 6.83-2.7 1.225-1.332 1.792-3.042 1.64-4.942z"/></g><g><path fill="#00af3f" d="M128 14.206c1.91 1.06 3.175 2.75 3.657 4.884.459 2.028.242 3.599-.644 4.67-1.594 1.927-5.593 2.259-7.24 2.313-1.145.036-3.95-.101-5.31-.725.079.165.183.372.269.516.526.88 1.584 1.98 3.638 2.226 1.679.2 3.416-.2 4.372-.746a2.476 2.476 0 0 1 1.96-.227c.659.198 1.202.65 1.529 1.275.674 1.288.208 2.914-1.038 3.625-1.523.87-3.463 1.369-5.515 1.449a11.946 11.946 0 0 1-1.941-.072c-3.416-.41-5.46-2.135-6.572-3.511-1.236-1.528-1.978-3.553-2.035-5.554-.13-4.48 1.817-7.956 5.63-10.05 2.819-1.548 6.533-1.577 9.24-.073zm-2.051 6.435c.59-.231.645-.512.539-1.015-.2-.95-1.344-1.324-2.263-1.356-1.166-.041-2.323.202-3.106.649-.827.472-1.342.984-1.642 1.357.984.462 2.433.71 3.998.677.816-.017 1.953-.11 2.474-.312z"/></g><g><path fill="#00af3f" d="M9.546 14.418a4.954 4.954 0 0 0 .323-.027 2.596 2.596 0 0 0 2.239-2.798 2.582 2.582 0 0 0-.916-1.766 2.576 2.576 0 0 0-1.896-.6 1.345 1.345 0 0 1-1.143-2.203c.228-.271.56-.444.913-.473a2.606 2.606 0 0 0 2.365-2.812 2.6 2.6 0 0 0-2.812-2.366 6.501 6.501 0 0 0-4.443 2.305A6.497 6.497 0 0 0 2.665 8.45a6.547 6.547 0 0 0 6.88 5.968z"/></g><g><path fill="#00af3f" d="M55.86 14.206c1.91 1.06 3.175 2.75 3.657 4.884.459 2.028.242 3.599-.644 4.67-1.594 1.927-5.593 2.259-7.24 2.313-1.145.036-3.95-.101-5.31-.725.08.165.183.372.269.516.526.88 1.584 1.98 3.638 2.226 1.679.2 3.416-.2 4.372-.746a2.477 2.477 0 0 1 1.96-.227c.66.198 1.202.65 1.529 1.275.674 1.288.208 2.914-1.038 3.625-1.523.87-3.463 1.369-5.515 1.449a11.946 11.946 0 0 1-1.941-.072c-3.416-.41-5.46-2.135-6.572-3.511-1.236-1.528-1.978-3.553-2.035-5.554-.13-4.48 1.817-7.956 5.63-10.05 2.819-1.548 6.533-1.577 9.24-.073zm-2.051 6.435c.59-.231.645-.512.539-1.015-.2-.95-1.344-1.324-2.263-1.356-1.166-.041-2.323.202-3.106.649-.827.472-1.342.984-1.642 1.357.984.462 2.433.71 3.998.677.816-.017 1.953-.11 2.474-.312z"/></g><g><path fill="#00af3f" d="M26.687.771a3.053 3.053 0 0 0-2.349.07 3.054 3.054 0 0 0-1.613 1.709c-.291.765-.267 1.6.07 2.349a3.046 3.046 0 0 0 1.708 1.613c6.22 2.366 9.43 8.19 7.987 14.492-.763 3.335-2.496 5.843-5.15 7.454-.04.023-.08.045-.119.069-1.785-1.868-4.365-3.835-7.457-5.02 1.763-6.458 1.798-13.164.155-20.613A3.073 3.073 0 0 0 16.257.558a3.076 3.076 0 0 0-2.336 3.662c1.458 6.605 1.386 12.52-.261 18.213a13.29 13.29 0 0 0-4.783 1.08c-.785.336-1.657.616-2.226.535a1.341 1.341 0 0 1-.613-2.404c.283-.213.646-.305.996-.254a2.606 2.606 0 0 0 2.942-2.2 2.599 2.599 0 0 0-2.202-2.943 6.498 6.498 0 0 0-4.85 1.236 6.496 6.496 0 0 0-2.555 4.305 6.547 6.547 0 0 0 2.653 6.237 12.16 12.16 0 0 0-.825 1.184c-1.428 2.423-1.788 5.153-.936 7.71 1.061 3.18 3.775 5.49 6.915 5.882.463.059.905.087 1.33.087 4.565-.002 7.048-3.177 9.261-6.007.048-.063.101-.12.151-.18 4.337-.007 8.4-1.045 11.608-2.992 4.07-2.47 6.82-6.388 7.952-11.334 2.155-9.417-2.583-18.1-11.791-21.602z"/></g><g><path fill="#00af3f" d="M152.929 28.218c-1.583 0-2.775 1.168-2.775 2.719v.056c0 1.55 1.192 2.719 2.775 2.719 1.582 0 2.775-1.17 2.775-2.72v-.055c0-1.551-1.193-2.72-2.775-2.72z"/></g><g><path fill="#00af3f" d="M169.017 28.104c-.664 0-1.164.32-1.354.464-.857.68-1.673.982-2.646.982-2.09 0-3.55-1.6-3.55-3.89v-.057c0-2.15 1.484-3.835 3.38-3.835.946 0 1.695.27 2.506.9.236.184.735.49 1.437.49 1.25 0 2.265-1.003 2.265-2.237 0-.794-.41-1.406-.79-1.71-1.434-1.21-3.147-1.774-5.39-1.774-4.72 0-8.279 3.535-8.279 8.223v.056c0 4.579 3.612 8.166 8.222 8.166 2.294 0 4.072-.647 5.6-2.04.472-.435.722-.984.722-1.587 0-1.206-.933-2.151-2.123-2.151z"/></g><g><path fill="#00af3f" d="M186.046 19.844v-.085c0-1.181-1.012-2.038-2.407-2.038h-9.447a2.069 2.069 0 0 0-2.066 2.066c0 1.123.927 2.038 2.066 2.038h5.322l-6.597 7.286c-.663.717-1.046 1.325-1.046 2.307v.086c0 1.18 1.011 2.037 2.406 2.037h9.703c1.14 0 2.066-.914 2.066-2.037a2.069 2.069 0 0 0-2.066-2.066h-5.604L185 22.152c.662-.718 1.046-1.326 1.046-2.308z"/></g><g><path fill="#fff" d="M15.044 33.97c-2.546 3.259-3.747 4.46-6.281 4.144-1.325-.166-2.54-1.247-3.02-2.691-.595-1.787.029-3.691 1.759-5.362 2.006-1.937 4.244-2.913 6.668-2.913a9.657 9.657 0 0 1 2.3.28c-2.344.37-5.05 1.534-7.377 4.455a1.653 1.653 0 1 0 2.586 2.062c2.509-3.148 5.583-3.555 7.816-3.297a10.45 10.45 0 0 0-4.451 3.323z"/></g></g></svg>