<svg xmlns="http://www.w3.org/2000/svg" width="191" height="43" viewBox="0 0 191 43"><g><g><path fill="#00af3f" d="M110.93 28.492c-.295-.313-.76-.61-.844-1.837-.55-8.055 1.236-20.98 1.254-21.11a2.983 2.983 0 0 0-2.54-3.362 2.983 2.983 0 0 0-3.36 2.538c-.194 1.39-1.877 13.824-1.297 22.34.204 2.984 1.442 5.294 3.487 6.505.46.272.984.416 1.515.416a2.99 2.99 0 0 0 2.565-1.462c.406-.684.52-1.485.323-2.257-.198-.77-.552-1.188-1.103-1.77z"/></g><g><path fill="#00af3f" d="M94.617 12.571c2.313.405 4.324 1.735 5.663 3.746 1.551 2.328 2.045 5.354 1.355 8.303-.61 2.608-2.074 4.914-4.122 6.495-1.742 1.344-3.745 2.05-5.765 2.05a8.66 8.66 0 0 1-1.495-.13c-2.313-.406-4.324-1.736-5.663-3.746-1.55-2.329-2.045-5.355-1.355-8.304.61-2.607 2.074-4.914 4.122-6.494 2.172-1.677 4.751-2.359 7.26-1.92zm1.452 10.662c.33-1.409.137-2.79-.529-3.789-.314-.472-.885-1.068-1.822-1.232a2.854 2.854 0 0 0-.505-.043c-1.905 0-3.85 1.802-4.412 4.204-.33 1.408-.137 2.79.53 3.788.313.471.884 1.07 1.821 1.232 2.053.36 4.305-1.546 4.917-4.16z"/></g><g><path fill="#00af3f" d="M81.008 28.578a2.888 2.888 0 0 1-3.133 4.851 6.803 6.803 0 0 1-2.583-3.05l-.044.04c-1.718 1.471-3.756 2.251-5.828 2.251-.342 0-.684-.02-1.026-.063-2.22-.278-4.19-1.452-5.547-3.308-1.566-2.138-2.164-4.988-1.641-7.819.464-2.515 1.753-4.784 3.629-6.39 2.002-1.714 4.435-2.492 6.854-2.189a7.965 7.965 0 0 1 3.36 1.23c.358-3.909.789-6.749.824-6.98a2.889 2.889 0 0 1 5.71.878c-.021.133-1.66 10.966-1.135 19.388.046.731.296.99.56 1.16zm-7.811-5.598c.235-1.274.009-2.499-.622-3.359-.29-.396-.802-.888-1.603-.989a2.587 2.587 0 0 0-.305-.018c-1.687 0-3.375 1.712-3.781 3.914-.235 1.274-.008 2.498.622 3.36.289.395.802.887 1.603.988 1.785.223 3.655-1.56 4.086-3.896z"/></g><g><path fill="#00af3f" d="M149.263 25.395c-.328-4.075-4.236-4.961-6.34-5.437a38.173 38.173 0 0 0-1.204-.228c-1.195-.2-2.317-.547-2.22-1.26.057-.43.901-.78 2.025-.683 1.334.117 1.96.348 3.377.864 1.416.515 2.817.096 3.513-1.13a2.691 2.691 0 0 0-1.116-3.725 13.9 13.9 0 0 0-1.05-.5c-1.158-.465-2.959-.908-5.342-.65-1.15.123-4.026.641-5.862 2.775-1.05 1.222-1.529 2.722-1.382 4.338.346 3.813 4.145 4.69 6.185 5.128 0 0 .755.15 1.64.4.443.127 1.47.33 1.81.862.312.491.016 1.228-.974 1.474-.505.125-1.35.143-1.935.028-.942-.185-1.879-.402-3.252-1.08-1.373-.679-2.898-.258-3.653.987a2.699 2.699 0 0 0 .935 3.718s.672.404 1.066.585a13.314 13.314 0 0 0 5.31 1.175c2.915.025 5.213-.94 6.83-2.699 1.225-1.334 1.792-3.043 1.64-4.943z"/></g><g><path fill="#00af3f" d="M127.942 13.721c1.91 1.062 3.175 2.75 3.657 4.884.46 2.03.243 3.6-.644 4.67-1.593 1.928-5.593 2.26-7.239 2.314-1.146.035-3.95-.102-5.309-.725.078.165.181.372.267.515.526.881 1.585 1.981 3.638 2.227 1.68.2 3.416-.2 4.372-.746a2.473 2.473 0 0 1 1.96-.228c.66.198 1.203.651 1.53 1.276.673 1.288.207 2.914-1.039 3.625-1.523.87-3.463 1.368-5.515 1.45a12.906 12.906 0 0 1-1.94-.073c-3.416-.409-5.46-2.136-6.573-3.512-1.236-1.527-1.977-3.552-2.035-5.554-.13-4.48 1.817-7.955 5.631-10.049 2.818-1.548 6.532-1.577 9.24-.074zm-2.05 6.435c.59-.23.644-.51.538-1.014-.2-.95-1.344-1.324-2.263-1.356-1.165-.042-2.322.202-3.106.648-.827.473-1.342.985-1.64 1.358.982.462 2.431.71 3.997.676.816-.016 1.953-.108 2.473-.312z"/></g><g><path fill="#00af3f" d="M9.489 13.935c.065-.004.13-.008.196-.014a2.595 2.595 0 0 0 2.366-2.812 2.58 2.58 0 0 0-.916-1.765 2.576 2.576 0 0 0-1.896-.6A1.346 1.346 0 0 1 8.096 6.54c.228-.271.56-.443.912-.472a2.607 2.607 0 0 0 2.366-2.812A2.599 2.599 0 0 0 8.562.89a6.495 6.495 0 0 0-4.443 2.305 6.496 6.496 0 0 0-1.512 4.772 6.549 6.549 0 0 0 6.882 5.968z"/></g><g><path fill="#00af3f" d="M55.802 13.721c1.91 1.062 3.175 2.75 3.657 4.884.459 2.03.243 3.6-.644 4.67-1.593 1.928-5.593 2.26-7.239 2.314-1.146.035-3.951-.102-5.309-.725.078.165.181.372.267.515.526.881 1.585 1.981 3.638 2.227 1.68.2 3.416-.2 4.372-.746a2.473 2.473 0 0 1 1.96-.228c.66.198 1.203.651 1.529 1.276.674 1.288.208 2.914-1.038 3.625-1.523.87-3.463 1.368-5.515 1.45a12.906 12.906 0 0 1-1.94-.073c-3.416-.409-5.46-2.136-6.573-3.512-1.236-1.527-1.977-3.552-2.035-5.554-.13-4.48 1.817-7.955 5.631-10.049 2.818-1.548 6.532-1.577 9.239-.074zm-2.051 6.435c.591-.23.645-.51.539-1.014-.2-.95-1.344-1.324-2.263-1.356-1.165-.042-2.322.202-3.106.648-.827.473-1.342.985-1.641 1.358.983.462 2.432.71 3.998.676.816-.016 1.953-.108 2.473-.312z"/></g><g><path fill="#00af3f" d="M26.63.288a3.044 3.044 0 0 0-2.35.07 3.046 3.046 0 0 0-1.612 1.707c-.291.766-.267 1.6.069 2.35a3.05 3.05 0 0 0 1.709 1.612c6.22 2.367 9.43 8.191 7.987 14.493-.763 3.335-2.496 5.842-5.15 7.453l-.12.07c-1.784-1.868-4.364-3.836-7.456-5.019 1.762-6.459 1.798-13.164.154-20.613A3.048 3.048 0 0 0 18.515.484 3.065 3.065 0 0 0 16.2.074a3.076 3.076 0 0 0-2.337 3.661c1.458 6.605 1.387 12.52-.26 18.213a13.295 13.295 0 0 0-4.784 1.08c-.784.337-1.657.616-2.226.536a1.342 1.342 0 1 1 .384-2.658 2.608 2.608 0 0 0 2.942-2.202 2.6 2.6 0 0 0-2.202-2.942A6.5 6.5 0 0 0 2.866 17a6.499 6.499 0 0 0-2.554 4.305 6.545 6.545 0 0 0 2.653 6.237c-.29.366-.57.762-.826 1.184-1.428 2.422-1.787 5.153-.935 7.71 1.06 3.18 3.775 5.49 6.915 5.882.463.058.905.085 1.33.085 4.565 0 7.048-3.176 9.26-6.005.049-.063.1-.122.152-.18 4.337-.008 8.4-1.045 11.607-2.992 4.07-2.47 6.82-6.39 7.952-11.335C40.576 12.472 35.838 3.791 26.63.288z"/></g><g><path fill="#fff" d="M14.987 33.487c-2.546 3.258-3.748 4.46-6.282 4.142-1.324-.165-2.538-1.246-3.02-2.69-.595-1.787.03-3.69 1.76-5.362 2.006-1.938 4.244-2.914 6.668-2.914.439 0 .885.032 1.336.096.325.046.646.11.964.184-2.344.372-5.05 1.535-7.378 4.456a1.653 1.653 0 0 0 2.586 2.062c2.51-3.149 5.584-3.555 7.817-3.298a10.438 10.438 0 0 0-4.451 3.324z"/></g><g><path fill="#00af3f" d="M152.871 27.733c-1.582 0-2.775 1.17-2.775 2.72v.055c0 1.55 1.193 2.72 2.775 2.72 1.583 0 2.776-1.17 2.776-2.72v-.056c0-1.55-1.193-2.719-2.776-2.719z"/></g><g><path fill="#00af3f" d="M170.772 11.563a2.466 2.466 0 0 1 2.464 2.463v16.74a2.465 2.465 0 0 1-4.858.58c-1.208 1.34-2.687 1.996-4.499 1.996-3.593 0-7.23-2.806-7.23-8.166v-.057c0-4.059 2.484-8.166 7.23-8.166 1.768 0 3.195.572 4.43 1.79v-4.717a2.466 2.466 0 0 1 2.463-2.463zm-9.196 13.613c0 2.218 1.465 3.891 3.41 3.891 1.958 0 3.38-1.636 3.38-3.89v-.058c0-2.255-1.422-3.892-3.38-3.892-1.976 0-3.41 1.637-3.41 3.892z"/></g><g><path fill="#00af3f" d="M190.351 24.58c0 1.378-.976 2.378-2.32 2.378h-8.143c.467 1.53 1.632 2.364 3.32 2.364 1.066 0 2.01-.314 2.88-.96.392-.286.75-.4 1.233-.4 1.13 0 1.981.862 1.981 2.007 0 .58-.237 1.114-.668 1.505-1.502 1.28-3.345 1.923-5.483 1.923-4.78 0-8.25-3.433-8.25-8.165v-.057c0-4.687 3.363-8.222 7.824-8.222 5.556 0 7.626 4.678 7.626 7.627zm-7.626-3.55c-1.467 0-2.515.947-2.914 2.618h5.758c-.33-1.647-1.374-2.619-2.844-2.619z"/></g></g></svg>