<svg xmlns="http://www.w3.org/2000/svg" width="178" height="43" viewBox="0 0 178 43"><g><g><path fill="#00af3f" d="M110.723 28.945c-.295-.312-.76-.609-.844-1.836-.549-8.056 1.236-20.98 1.254-21.11a2.983 2.983 0 0 0-2.539-3.362 2.982 2.982 0 0 0-3.36 2.538c-.195 1.39-1.878 13.823-1.298 22.338.204 2.985 1.442 5.295 3.487 6.506.46.273.984.416 1.515.416a2.99 2.99 0 0 0 2.565-1.46c.406-.685.52-1.487.323-2.258-.198-.77-.552-1.188-1.103-1.772z"/></g><g><path fill="#00af3f" d="M94.41 13.025c2.314.404 4.325 1.734 5.664 3.745 1.55 2.33 2.045 5.355 1.355 8.304-.61 2.607-2.074 4.914-4.122 6.494-1.742 1.345-3.745 2.05-5.765 2.05a8.66 8.66 0 0 1-1.495-.13c-2.313-.405-4.324-1.735-5.663-3.746-1.551-2.328-2.045-5.355-1.355-8.303.61-2.607 2.074-4.914 4.122-6.495 2.172-1.676 4.75-2.359 7.26-1.919zm1.453 10.661c.33-1.408.137-2.789-.53-3.788-.313-.472-.884-1.068-1.821-1.233a2.951 2.951 0 0 0-.505-.043c-1.905 0-3.85 1.803-4.412 4.204-.33 1.41-.137 2.79.529 3.79.314.47.885 1.068 1.82 1.232 2.055.359 4.307-1.546 4.919-4.161z"/></g><g><path fill="#00af3f" d="M80.801 29.03a2.89 2.89 0 0 1-3.133 4.854 6.809 6.809 0 0 1-2.583-3.05l-.044.039c-1.718 1.47-3.756 2.252-5.828 2.252-.342 0-.684-.021-1.026-.064-2.219-.277-4.189-1.452-5.547-3.308-1.566-2.137-2.164-4.987-1.64-7.82.463-2.514 1.752-4.783 3.628-6.39 2.002-1.712 4.435-2.49 6.854-2.187a7.963 7.963 0 0 1 3.361 1.228c.357-3.907.788-6.747.823-6.98a2.889 2.889 0 0 1 5.71.88c-.02.133-1.66 10.965-1.135 19.387.046.732.296.99.56 1.16zm-7.81-5.595c.234-1.274.008-2.5-.623-3.36-.289-.395-.802-.888-1.603-.988a2.587 2.587 0 0 0-.305-.018c-1.687 0-3.375 1.71-3.78 3.913-.236 1.274-.01 2.499.621 3.359.29.396.802.889 1.603.989 1.785.223 3.655-1.561 4.086-3.895z"/></g><g><path fill="#00af3f" d="M149.057 25.848c-.328-4.074-4.236-4.96-6.34-5.437-.038-.007-.793-.161-1.204-.228-1.195-.198-2.317-.545-2.221-1.26.057-.43.902-.78 2.026-.681 1.334.116 1.96.348 3.377.864 1.416.515 2.817.095 3.513-1.13a2.691 2.691 0 0 0-1.116-3.725 13.9 13.9 0 0 0-1.05-.501c-1.158-.466-2.96-.908-5.342-.65-1.151.124-4.026.642-5.862 2.776-1.051 1.22-1.53 2.72-1.382 4.336.346 3.815 4.145 4.69 6.185 5.129 0 0 .755.149 1.639.4.444.128 1.47.33 1.81.863.313.49.017 1.228-.973 1.473-.505.125-1.35.144-1.935.029-.942-.185-1.88-.403-3.252-1.08-1.373-.68-2.898-.26-3.653.987a2.698 2.698 0 0 0 .935 3.717s.672.405 1.066.586a13.315 13.315 0 0 0 5.309 1.174c2.916.026 5.214-.94 6.83-2.7 1.226-1.332 1.793-3.042 1.64-4.942z"/></g><g><path fill="#00af3f" d="M127.736 14.175c1.91 1.062 3.175 2.75 3.657 4.884.459 2.028.243 3.6-.644 4.67-1.593 1.928-5.593 2.26-7.24 2.313-1.145.036-3.95-.1-5.308-.724.078.165.18.372.267.515.526.88 1.584 1.98 3.638 2.227 1.68.2 3.416-.2 4.372-.746a2.473 2.473 0 0 1 1.96-.228c.66.198 1.202.651 1.529 1.276.674 1.287.208 2.914-1.038 3.625-1.523.87-3.463 1.368-5.515 1.45a12.906 12.906 0 0 1-1.94-.073c-3.416-.41-5.46-2.136-6.573-3.512-1.236-1.528-1.977-3.553-2.035-5.554-.13-4.48 1.817-7.956 5.63-10.049 2.819-1.549 6.533-1.578 9.24-.074zm-2.051 6.435c.59-.23.645-.512.539-1.015-.2-.949-1.344-1.324-2.263-1.356-1.166-.04-2.322.203-3.106.65-.827.471-1.342.983-1.642 1.357.984.462 2.433.71 3.999.676.816-.017 1.953-.108 2.473-.312z"/></g><g><path fill="#00af3f" d="M9.282 14.389a6.716 6.716 0 0 0 .323-.028 2.596 2.596 0 0 0 2.24-2.798 2.584 2.584 0 0 0-.917-1.766 2.58 2.58 0 0 0-1.896-.6A1.344 1.344 0 0 1 7.89 6.994c.228-.271.56-.443.912-.472a2.609 2.609 0 0 0 2.366-2.813 2.6 2.6 0 0 0-2.812-2.366 6.497 6.497 0 0 0-4.443 2.306A6.496 6.496 0 0 0 2.4 8.42a6.55 6.55 0 0 0 6.882 5.968z"/></g><g><path fill="#00af3f" d="M55.595 14.175c1.91 1.062 3.175 2.75 3.657 4.884.46 2.028.243 3.6-.644 4.67-1.593 1.928-5.593 2.26-7.239 2.313-1.146.036-3.95-.1-5.309-.724.078.165.181.372.267.515.526.88 1.585 1.98 3.638 2.227 1.68.2 3.416-.2 4.372-.746a2.473 2.473 0 0 1 1.96-.228c.66.198 1.203.651 1.53 1.276.673 1.287.207 2.914-1.039 3.625-1.523.87-3.463 1.368-5.515 1.45a12.906 12.906 0 0 1-1.94-.073c-3.416-.41-5.46-2.136-6.573-3.512-1.236-1.528-1.977-3.553-2.035-5.554-.13-4.48 1.817-7.956 5.631-10.049 2.818-1.549 6.532-1.578 9.24-.074zm-2.05 6.435c.59-.23.644-.512.538-1.015-.2-.949-1.344-1.324-2.263-1.356-1.165-.04-2.322.203-3.106.65-.827.471-1.342.983-1.64 1.357.982.462 2.431.71 3.997.676.816-.017 1.953-.108 2.473-.312z"/></g><g><path fill="#00af3f" d="M26.423.741a3.05 3.05 0 0 0-2.35.07 3.048 3.048 0 0 0-1.612 1.708c-.29.766-.267 1.6.07 2.35a3.051 3.051 0 0 0 1.708 1.612c6.22 2.366 9.43 8.191 7.987 14.492-.763 3.335-2.496 5.843-5.15 7.454l-.119.07c-1.785-1.869-4.365-3.836-7.457-5.019 1.762-6.459 1.798-13.165.154-20.614A3.046 3.046 0 0 0 18.308.938a3.065 3.065 0 0 0-2.315-.41 3.076 3.076 0 0 0-2.337 3.661c1.458 6.604 1.387 12.52-.26 18.212a13.337 13.337 0 0 0-4.784 1.08c-.784.337-1.657.617-2.226.536a1.34 1.34 0 0 1-.612-2.404c.283-.212.646-.305.995-.254a2.607 2.607 0 0 0 2.943-2.2 2.6 2.6 0 0 0-2.202-2.943 6.5 6.5 0 0 0-4.85 1.236 6.497 6.497 0 0 0-2.555 4.306 6.544 6.544 0 0 0 2.653 6.236c-.289.367-.569.763-.826 1.184-1.428 2.423-1.787 5.154-.935 7.71 1.06 3.181 3.775 5.491 6.915 5.883.463.058.905.085 1.33.085 4.565 0 7.048-3.176 9.26-6.006.05-.062.101-.12.152-.18 4.337-.007 8.4-1.044 11.607-2.99 4.071-2.472 6.821-6.39 7.952-11.336 2.156-9.418-2.582-18.1-11.79-21.603z"/></g><g><path fill="#fff" d="M14.78 33.941c-2.546 3.257-3.748 4.458-6.282 4.142-1.324-.166-2.538-1.247-3.019-2.69-.596-1.787.03-3.69 1.76-5.362 2.005-1.938 4.243-2.914 6.667-2.914.44 0 .885.032 1.336.096.325.046.646.11.964.184-2.344.372-5.049 1.534-7.378 4.455a1.654 1.654 0 0 0 2.586 2.062c2.51-3.148 5.584-3.555 7.817-3.297a10.438 10.438 0 0 0-4.45 3.324z"/></g><g><path fill="#00af3f" d="M152.665 28.188c-1.582 0-2.775 1.169-2.775 2.719v.056c0 1.55 1.193 2.719 2.775 2.719 1.583 0 2.775-1.17 2.775-2.72v-.056c0-1.55-1.192-2.719-2.775-2.719z"/></g><g><path fill="#00af3f" d="M164.1 16.234h.37c1.12 0 2.066-.959 2.066-2.095 0-1.147-.894-1.905-1.73-2.033-.455-.08-1.032-.118-1.811-.118-1.61 0-2.857.431-3.707 1.281-.87.87-1.31 2.184-1.31 3.906v.662a2.097 2.097 0 0 0-1.958 2.09c0 1.113.85 1.994 1.958 2.062v9.228a2.466 2.466 0 0 0 2.463 2.464 2.466 2.466 0 0 0 2.464-2.464v-9.224h1.508c1.175 0 2.095-.907 2.095-2.067 0-1.158-.92-2.066-2.095-2.066h-1.565v-.288c0-.925.386-1.338 1.253-1.338z"/></g><g><path fill="#00af3f" d="M175.62 17.52c-.976 0-1.916.7-2.668 1.956a2.469 2.469 0 0 0-2.412-1.956 2.466 2.466 0 0 0-2.463 2.463v11.234a2.466 2.466 0 0 0 2.463 2.465 2.466 2.466 0 0 0 2.464-2.465V27.19c0-2.832 1.036-4.451 3.165-4.948 1.145-.26 1.856-1.146 1.856-2.315 0-1.44-.967-2.406-2.406-2.406z"/></g></g></svg>