<svg xmlns="http://www.w3.org/2000/svg" width="185" height="43" viewBox="0 0 185 43"><g><g><path fill="#00af3f" d="M110.707 28.945c-.295-.312-.76-.609-.844-1.836-.549-8.056 1.236-20.98 1.254-21.11a2.983 2.983 0 0 0-2.539-3.362 2.982 2.982 0 0 0-3.361 2.538c-.194 1.39-1.877 13.823-1.297 22.338.204 2.985 1.442 5.295 3.487 6.506.46.273.984.416 1.515.416a2.99 2.99 0 0 0 2.565-1.46c.406-.685.52-1.487.323-2.258-.198-.77-.552-1.188-1.103-1.772z"/></g><g><path fill="#00af3f" d="M94.395 13.025c2.312.404 4.324 1.734 5.663 3.745 1.551 2.33 2.044 5.355 1.354 8.304-.61 2.607-2.074 4.914-4.12 6.494-1.743 1.345-3.747 2.05-5.767 2.05-.498 0-.998-.043-1.495-.13-2.312-.405-4.324-1.735-5.663-3.746-1.55-2.328-2.044-5.355-1.354-8.303.61-2.607 2.074-4.914 4.121-6.495 2.172-1.676 4.751-2.359 7.261-1.919zm1.451 10.661c.33-1.408.137-2.789-.528-3.788-.315-.472-.886-1.068-1.822-1.233a2.969 2.969 0 0 0-.505-.043c-1.905 0-3.85 1.803-4.413 4.204-.329 1.41-.136 2.79.53 3.79.313.47.884 1.068 1.821 1.232 2.054.359 4.305-1.546 4.917-4.161z"/></g><g><path fill="#00af3f" d="M80.784 29.03a2.889 2.889 0 0 1-3.132 4.854 6.802 6.802 0 0 1-2.583-3.05l-.044.039c-1.718 1.47-3.756 2.252-5.828 2.252-.342 0-.684-.021-1.026-.064-2.219-.277-4.189-1.452-5.548-3.308-1.565-2.137-2.163-4.987-1.64-7.82.464-2.514 1.753-4.783 3.63-6.39 2-1.712 4.434-2.49 6.853-2.187a7.963 7.963 0 0 1 3.361 1.228c.356-3.907.788-6.747.823-6.98a2.889 2.889 0 0 1 5.71.88c-.02.133-1.66 10.965-1.135 19.387.046.732.296.99.56 1.16zm-7.81-5.595c.235-1.274.008-2.5-.622-3.36-.289-.395-.802-.888-1.603-.988a2.6 2.6 0 0 0-.305-.018c-1.687 0-3.375 1.71-3.78 3.913-.236 1.274-.01 2.499.621 3.359.29.396.802.889 1.603.989 1.785.223 3.655-1.561 4.086-3.895z"/></g><g><path fill="#00af3f" d="M149.04 25.848c-.327-4.074-4.235-4.96-6.34-5.437-.037-.007-.793-.161-1.203-.228-1.196-.198-2.318-.545-2.222-1.26.057-.43.902-.78 2.026-.681 1.335.116 1.96.348 3.378.864 1.416.515 2.817.095 3.513-1.13a2.691 2.691 0 0 0-1.116-3.725c-.413-.213-.79-.396-1.05-.501-1.159-.466-2.96-.908-5.343-.65-1.15.124-4.026.642-5.862 2.776-1.05 1.22-1.529 2.72-1.382 4.336.346 3.815 4.145 4.69 6.185 5.129 0 0 .755.149 1.64.4.443.128 1.47.33 1.81.863.312.49.016 1.228-.974 1.473-.505.125-1.35.144-1.935.029-.942-.185-1.88-.403-3.252-1.08-1.373-.68-2.899-.26-3.653.987a2.698 2.698 0 0 0 .935 3.717s.672.405 1.066.586a13.315 13.315 0 0 0 5.31 1.174c2.915.026 5.213-.94 6.83-2.7 1.225-1.332 1.792-3.042 1.64-4.942z"/></g><g><path fill="#00af3f" d="M127.72 14.175c1.91 1.062 3.174 2.75 3.656 4.884.46 2.028.243 3.6-.644 4.67-1.594 1.928-5.593 2.26-7.239 2.313-1.146.036-3.95-.1-5.31-.724.08.165.182.372.268.515.526.88 1.584 1.98 3.638 2.227 1.68.2 3.416-.2 4.372-.746a2.473 2.473 0 0 1 1.96-.228c.66.198 1.202.651 1.53 1.276.673 1.287.207 2.914-1.039 3.625-1.523.87-3.463 1.368-5.515 1.45a12.906 12.906 0 0 1-1.94-.073c-3.417-.41-5.46-2.136-6.573-3.512-1.236-1.528-1.977-3.553-2.035-5.554-.13-4.48 1.817-7.956 5.631-10.049 2.818-1.549 6.532-1.578 9.24-.074zm-2.052 6.435c.591-.23.645-.512.54-1.015-.2-.949-1.345-1.324-2.264-1.356-1.166-.04-2.322.203-3.106.65-.826.471-1.341.983-1.641 1.357.983.462 2.432.71 3.998.676.817-.017 1.954-.108 2.474-.312z"/></g><g><path fill="#00af3f" d="M9.266 14.389l.195-.015h.001a2.596 2.596 0 0 0 2.366-2.811 2.584 2.584 0 0 0-.916-1.766 2.58 2.58 0 0 0-1.896-.6 1.344 1.344 0 0 1-1.143-2.203c.228-.271.56-.443.912-.472a2.609 2.609 0 0 0 2.366-2.813A2.6 2.6 0 0 0 8.34 1.343a6.497 6.497 0 0 0-4.443 2.306A6.496 6.496 0 0 0 2.384 8.42a6.55 6.55 0 0 0 6.882 5.968z"/></g><g><path fill="#00af3f" d="M55.58 14.175c1.91 1.062 3.174 2.75 3.656 4.884.46 2.028.243 3.6-.644 4.67C57 25.657 53 25.99 51.353 26.042c-1.146.036-3.95-.1-5.309-.724.078.165.181.372.267.515.526.88 1.584 1.98 3.638 2.227 1.68.2 3.416-.2 4.372-.746a2.473 2.473 0 0 1 1.96-.228c.66.198 1.202.651 1.53 1.276.673 1.287.207 2.914-1.039 3.625-1.523.87-3.463 1.368-5.515 1.45a12.906 12.906 0 0 1-1.94-.073c-3.416-.41-5.46-2.136-6.573-3.512-1.236-1.528-1.977-3.553-2.035-5.554-.13-4.48 1.817-7.956 5.631-10.049 2.818-1.549 6.532-1.578 9.24-.074zm-2.052 6.435c.591-.23.645-.512.54-1.015-.2-.949-1.345-1.324-2.264-1.356-1.166-.04-2.322.203-3.106.65-.827.471-1.342.983-1.642 1.357.984.462 2.433.71 4 .676.815-.017 1.952-.108 2.472-.312z"/></g><g><path fill="#00af3f" d="M26.407.741a3.048 3.048 0 0 0-2.35.07 3.05 3.05 0 0 0-1.612 1.708c-.291.766-.267 1.6.07 2.35a3.05 3.05 0 0 0 1.708 1.612c6.22 2.366 9.43 8.191 7.987 14.492-.763 3.335-2.496 5.843-5.15 7.454l-.12.07c-1.783-1.869-4.364-3.836-7.455-5.019 1.762-6.459 1.798-13.165.154-20.614A3.067 3.067 0 0 0 15.978.528 3.075 3.075 0 0 0 13.64 4.19c1.458 6.604 1.386 12.52-.261 18.212a13.332 13.332 0 0 0-4.783 1.08c-.785.337-1.657.617-2.226.536a1.341 1.341 0 0 1-.613-2.404 1.35 1.35 0 0 1 .996-.254 2.606 2.606 0 0 0 2.942-2.2 2.598 2.598 0 0 0-2.202-2.943 6.498 6.498 0 0 0-4.85 1.236 6.499 6.499 0 0 0-2.555 4.306 6.544 6.544 0 0 0 2.654 6.236c-.29.367-.57.763-.826 1.184C.489 31.601.129 34.332.98 36.888c1.06 3.181 3.776 5.491 6.916 5.883.462.058.904.085 1.329.085 4.566 0 7.049-3.176 9.26-6.006.05-.062.102-.12.152-.18 4.337-.007 8.4-1.044 11.608-2.99 4.07-2.472 6.82-6.39 7.952-11.336 2.155-9.418-2.583-18.1-11.791-21.603z"/></g><g><path fill="#00af3f" d="M152.648 28.188c-1.582 0-2.775 1.169-2.775 2.719v.056c0 1.55 1.193 2.719 2.775 2.719 1.583 0 2.775-1.17 2.775-2.72v-.056c0-1.55-1.192-2.719-2.775-2.719z"/></g><g><path fill="#00af3f" d="M166.746 17.407c-1.965 0-3.24.917-4.146 1.903v-4.83a2.467 2.467 0 0 0-2.464-2.464 2.467 2.467 0 0 0-2.464 2.464v16.738a2.466 2.466 0 0 0 2.464 2.463 2.466 2.466 0 0 0 2.464-2.463v-6.497c0-1.795.848-2.785 2.387-2.785 1.904 0 2.303 1.515 2.303 2.785v6.497a2.466 2.466 0 0 0 2.463 2.463 2.466 2.466 0 0 0 2.464-2.463V23.36c0-3.672-2.096-5.952-5.471-5.952z"/></g><g><path fill="#00af3f" d="M182.117 17.52c-.975 0-1.915.7-2.667 1.955a2.468 2.468 0 0 0-2.411-1.955 2.465 2.465 0 0 0-2.464 2.463v11.234a2.466 2.466 0 0 0 2.464 2.465 2.466 2.466 0 0 0 2.463-2.465V27.19c0-2.832 1.036-4.451 3.165-4.948 1.145-.26 1.856-1.146 1.856-2.315 0-1.44-.967-2.406-2.406-2.406z"/></g><g><path fill="#fff" d="M14.764 33.941c-2.546 3.257-3.748 4.458-6.282 4.142-1.324-.166-2.538-1.247-3.019-2.69-.596-1.787.03-3.69 1.76-5.362 2.005-1.938 4.243-2.914 6.667-2.914.44 0 .885.032 1.336.096.325.046.646.11.964.184-2.344.372-5.049 1.534-7.378 4.455a1.653 1.653 0 0 0 2.586 2.062c2.51-3.148 5.584-3.555 7.817-3.297a10.438 10.438 0 0 0-4.45 3.324z"/></g></g></svg>