<svg xmlns="http://www.w3.org/2000/svg" width="190" height="43" viewBox="0 0 190 43"><g><g><path fill="#00af3f" d="M111.501 29.094c-.296-.313-.76-.61-.844-1.837-.548-8.055 1.237-20.98 1.255-21.11a2.984 2.984 0 0 0-2.54-3.362 2.983 2.983 0 0 0-3.36 2.538c-.195 1.39-1.878 13.824-1.298 22.339.205 2.985 1.443 5.295 3.488 6.506.46.273.983.416 1.514.416a2.99 2.99 0 0 0 2.566-1.462c.405-.684.52-1.485.322-2.256-.198-.77-.552-1.19-1.103-1.772z"/></g><g><path fill="#00af3f" d="M95.19 13.174c2.312.404 4.324 1.734 5.662 3.745 1.55 2.328 2.045 5.354 1.355 8.303-.61 2.608-2.074 4.915-4.122 6.495-1.742 1.345-3.745 2.049-5.765 2.049-.498 0-.998-.043-1.495-.13-2.313-.405-4.324-1.735-5.663-3.745-1.551-2.328-2.044-5.355-1.355-8.303.61-2.608 2.074-4.915 4.122-6.495 2.172-1.677 4.75-2.359 7.26-1.919zm1.45 10.661c.33-1.408.138-2.789-.528-3.789-.314-.472-.885-1.068-1.821-1.232a2.972 2.972 0 0 0-.506-.043c-1.905 0-3.85 1.802-4.412 4.204-.33 1.408-.136 2.789.529 3.789.314.471.885 1.068 1.822 1.231 2.054.36 4.305-1.546 4.917-4.16z"/></g><g><path fill="#00af3f" d="M81.58 29.179a2.887 2.887 0 0 1-1.57 5.315 2.873 2.873 0 0 1-1.564-.462 6.811 6.811 0 0 1-2.583-3.051c-.014.013-.029.028-.044.04-1.718 1.471-3.755 2.251-5.827 2.251-.342 0-.684-.02-1.027-.063-2.218-.277-4.189-1.452-5.547-3.308-1.565-2.137-2.163-4.988-1.64-7.819.463-2.515 1.752-4.784 3.63-6.391 2-1.713 4.433-2.49 6.853-2.188a7.956 7.956 0 0 1 3.36 1.229c.357-3.908.788-6.748.824-6.979a2.888 2.888 0 1 1 5.709.878c-.02.134-1.66 10.966-1.135 19.388.046.732.296.99.56 1.16zm-7.812-5.596c.235-1.274.01-2.499-.62-3.36-.29-.396-.804-.888-1.605-.989a2.583 2.583 0 0 0-.304-.018c-1.688 0-3.375 1.712-3.782 3.914-.235 1.274-.008 2.499.622 3.359.29.396.803.888 1.604.989 1.784.223 3.654-1.561 4.085-3.895z"/></g><g><path fill="#00af3f" d="M149.835 25.996c-.328-4.074-4.236-4.96-6.341-5.437a41.865 41.865 0 0 0-1.203-.228c-1.195-.199-2.317-.546-2.221-1.26.057-.429.902-.78 2.026-.68 1.334.115 1.96.346 3.376.862 1.417.516 2.818.096 3.514-1.129a2.693 2.693 0 0 0-1.116-3.726c-.413-.212-.79-.396-1.05-.5-1.158-.466-2.959-.909-5.342-.65-1.151.123-4.027.642-5.862 2.775-1.051 1.221-1.529 2.721-1.383 4.337.347 3.815 4.145 4.691 6.186 5.13 0 0 .755.148 1.638.4.445.126 1.472.33 1.811.861.313.492.017 1.23-.973 1.474-.505.125-1.35.144-1.935.03-.942-.187-1.88-.404-3.252-1.082-1.373-.678-2.899-.258-3.653.988a2.698 2.698 0 0 0 .934 3.717s.672.404 1.066.586a13.342 13.342 0 0 0 5.31 1.174c2.916.026 5.214-.94 6.83-2.699 1.225-1.334 1.793-3.043 1.64-4.943z"/></g><g><path fill="#00af3f" d="M128.514 14.324c1.91 1.06 3.175 2.75 3.657 4.884.459 2.028.242 3.599-.644 4.67-1.594 1.927-5.593 2.259-7.24 2.313-1.145.035-3.95-.101-5.31-.725.08.165.183.372.269.516.526.88 1.584 1.98 3.638 2.226 1.679.2 3.416-.2 4.372-.746a2.477 2.477 0 0 1 1.96-.227c.659.197 1.202.65 1.529 1.275.674 1.288.208 2.914-1.038 3.625-1.523.87-3.463 1.369-5.515 1.449a11.946 11.946 0 0 1-1.941-.072c-3.416-.41-5.46-2.135-6.572-3.511-1.236-1.528-1.978-3.553-2.035-5.554-.13-4.48 1.817-7.956 5.63-10.05 2.819-1.548 6.533-1.577 9.24-.073zm-2.051 6.435c.59-.231.645-.512.539-1.015-.2-.95-1.344-1.324-2.263-1.356-1.166-.041-2.323.202-3.106.649-.827.472-1.342.984-1.642 1.357.984.462 2.433.71 3.998.676.816-.016 1.953-.108 2.474-.311z"/></g><g><path fill="#00af3f" d="M10.06 14.536a4.954 4.954 0 0 0 .323-.027 2.597 2.597 0 0 0 2.24-2.799 2.58 2.58 0 0 0-.917-1.765 2.576 2.576 0 0 0-1.896-.6 1.346 1.346 0 0 1-1.454-1.223A1.34 1.34 0 0 1 9.58 6.67a2.606 2.606 0 0 0 2.365-2.812 2.599 2.599 0 0 0-2.812-2.366A6.501 6.501 0 0 0 4.69 3.796a6.5 6.5 0 0 0-1.51 4.772 6.547 6.547 0 0 0 6.88 5.968z"/></g><g><path fill="#00af3f" d="M56.374 14.324c1.91 1.06 3.175 2.75 3.657 4.884.459 2.028.242 3.599-.644 4.67-1.594 1.927-5.593 2.259-7.24 2.313-1.145.035-3.95-.101-5.31-.725.08.165.183.372.269.516.526.88 1.584 1.98 3.638 2.226 1.679.2 3.416-.2 4.372-.746a2.477 2.477 0 0 1 1.96-.227 2.54 2.54 0 0 1 1.529 1.275c.674 1.288.208 2.914-1.038 3.625-1.523.87-3.463 1.369-5.515 1.449a11.946 11.946 0 0 1-1.941-.072c-3.416-.41-5.46-2.135-6.572-3.511-1.236-1.528-1.978-3.553-2.035-5.554-.13-4.48 1.817-7.956 5.63-10.05 2.819-1.548 6.533-1.577 9.24-.073zm-2.051 6.435c.59-.231.645-.512.539-1.015-.2-.95-1.344-1.324-2.263-1.356-1.166-.041-2.323.202-3.106.649-.827.472-1.342.984-1.642 1.357.984.462 2.433.71 3.998.676.816-.016 1.954-.108 2.474-.311z"/></g><g><path fill="#00af3f" d="M27.201.89a3.048 3.048 0 0 0-2.349.069 3.052 3.052 0 0 0-1.613 1.708 3.05 3.05 0 0 0 .07 2.35 3.05 3.05 0 0 0 1.708 1.613c6.22 2.366 9.43 8.19 7.987 14.492-.763 3.335-2.496 5.843-5.15 7.454l-.119.069c-1.785-1.868-4.365-3.835-7.456-5.02 1.762-6.457 1.797-13.163.154-20.612A3.068 3.068 0 0 0 16.771.676a3.075 3.075 0 0 0-2.336 3.66c1.458 6.606 1.386 12.52-.26 18.214a13.29 13.29 0 0 0-4.784 1.08c-.785.337-1.657.616-2.226.536a1.343 1.343 0 1 1 .383-2.658 2.607 2.607 0 0 0 2.942-2.202 2.598 2.598 0 0 0-2.202-2.941 6.498 6.498 0 0 0-4.85 1.236 6.496 6.496 0 0 0-2.555 4.305 6.547 6.547 0 0 0 2.653 6.237 12.16 12.16 0 0 0-.825 1.184c-1.428 2.422-1.788 5.153-.936 7.709 1.061 3.18 3.775 5.49 6.915 5.883.463.058.905.085 1.33.085 4.566 0 7.048-3.175 9.261-6.005.05-.063.101-.121.151-.181 4.337-.006 8.4-1.044 11.608-2.991 4.07-2.47 6.82-6.39 7.952-11.335 2.155-9.418-2.583-18.1-11.79-21.602z"/></g><g><path fill="#fff" d="M15.559 34.089c-2.547 3.258-3.748 4.459-6.282 4.143-1.325-.166-2.538-1.247-3.02-2.691-.595-1.787.03-3.691 1.76-5.362 2.006-1.937 4.244-2.913 6.668-2.913.439 0 .885.03 1.336.095.325.047.646.11.964.185-2.344.37-5.05 1.534-7.378 4.455a1.653 1.653 0 0 0 2.586 2.062c2.51-3.148 5.584-3.555 7.817-3.297a10.438 10.438 0 0 0-4.451 3.323z"/></g><g><path fill="#00af3f" d="M153.443 28.336c-1.582 0-2.775 1.168-2.775 2.719v.056c0 1.55 1.193 2.719 2.775 2.719 1.582 0 2.775-1.17 2.775-2.72v-.055c0-1.551-1.193-2.72-2.775-2.72z"/></g><g><path fill="#00af3f" d="M167.54 17.555c-1.965 0-3.24.917-4.146 1.904v-4.831a2.466 2.466 0 0 0-2.464-2.463 2.466 2.466 0 0 0-2.464 2.463v16.739a2.466 2.466 0 0 0 2.464 2.463 2.466 2.466 0 0 0 2.464-2.463v-6.498c0-1.795.847-2.784 2.387-2.784 1.903 0 2.302 1.514 2.302 2.784v6.498a2.467 2.467 0 0 0 2.464 2.463 2.466 2.466 0 0 0 2.464-2.463v-7.86c0-3.671-2.096-5.952-5.471-5.952z"/></g><g><path fill="#00af3f" d="M187.316 17.668a2.466 2.466 0 0 0-2.463 2.464v6.497c0 1.796-.848 2.784-2.388 2.784-1.903 0-2.303-1.514-2.303-2.784v-6.497a2.466 2.466 0 0 0-2.463-2.464 2.466 2.466 0 0 0-2.464 2.464v7.858c0 3.672 2.097 5.953 5.471 5.953 2.018 0 3.31-.967 4.22-1.983a2.469 2.469 0 0 0 2.39 1.87 2.466 2.466 0 0 0 2.464-2.464V20.132a2.466 2.466 0 0 0-2.464-2.464z"/></g></g></svg>