<svg xmlns="http://www.w3.org/2000/svg" width="180" height="43" viewBox="0 0 180 43"><g><g><path fill="#00af3f" d="M110.775 29.094c-.295-.313-.76-.61-.844-1.837-.549-8.055 1.236-20.98 1.254-21.11a2.984 2.984 0 0 0-2.539-3.362 2.983 2.983 0 0 0-3.36 2.538c-.195 1.39-1.878 13.824-1.298 22.339.204 2.985 1.442 5.295 3.487 6.506.46.273.984.416 1.515.416a2.99 2.99 0 0 0 2.565-1.462c.406-.684.52-1.485.323-2.256-.198-.77-.552-1.19-1.103-1.772z"/></g><g><path fill="#00af3f" d="M94.463 13.174c2.313.404 4.324 1.734 5.663 3.745 1.551 2.328 2.045 5.354 1.355 8.303-.61 2.608-2.074 4.915-4.122 6.495-1.742 1.345-3.745 2.049-5.765 2.049a8.66 8.66 0 0 1-1.495-.13c-2.313-.405-4.324-1.735-5.663-3.745-1.551-2.328-2.045-5.355-1.355-8.303.61-2.608 2.074-4.915 4.122-6.495 2.172-1.677 4.751-2.359 7.26-1.919zm1.452 10.661c.329-1.408.137-2.789-.529-3.789-.314-.472-.885-1.068-1.822-1.232a2.951 2.951 0 0 0-.505-.043c-1.905 0-3.85 1.802-4.412 4.204-.33 1.408-.137 2.789.529 3.789.314.471.885 1.068 1.821 1.231 2.054.36 4.306-1.546 4.918-4.16z"/></g><g><path fill="#00af3f" d="M80.853 29.179a2.888 2.888 0 0 1-3.133 4.853 6.811 6.811 0 0 1-2.583-3.051c-.015.013-.029.028-.044.04-1.718 1.471-3.756 2.251-5.828 2.251-.342 0-.684-.02-1.026-.063-2.219-.277-4.189-1.452-5.547-3.308-1.566-2.137-2.164-4.988-1.64-7.819.463-2.515 1.752-4.784 3.628-6.391 2.002-1.713 4.435-2.49 6.854-2.188a7.965 7.965 0 0 1 3.361 1.229c.358-3.908.789-6.748.824-6.979a2.888 2.888 0 0 1 5.709.878c-.02.134-1.66 10.966-1.135 19.388.046.732.296.99.56 1.16zm-7.81-5.596c.234-1.274.007-2.499-.623-3.36-.288-.396-.801-.888-1.602-.989a2.587 2.587 0 0 0-.305-.018c-1.688 0-3.376 1.712-3.782 3.914-.234 1.274-.008 2.499.623 3.359.288.396.801.888 1.602.989 1.785.223 3.655-1.561 4.086-3.895z"/></g><g><path fill="#00af3f" d="M149.109 25.996c-.328-4.074-4.236-4.96-6.34-5.437a41.451 41.451 0 0 0-1.204-.228c-1.195-.199-2.317-.546-2.221-1.26.057-.429.902-.78 2.026-.68 1.334.115 1.96.346 3.377.862 1.416.516 2.817.096 3.513-1.129a2.693 2.693 0 0 0-1.116-3.726c-.412-.212-.79-.396-1.05-.5-1.158-.466-2.96-.909-5.342-.65-1.151.123-4.026.642-5.862 2.775-1.051 1.221-1.53 2.721-1.382 4.337.346 3.815 4.145 4.691 6.185 5.13 0 0 .755.148 1.639.4.444.126 1.47.33 1.81.861.313.492.017 1.23-.973 1.474-.505.125-1.35.144-1.935.03-.942-.187-1.88-.404-3.252-1.082-1.373-.678-2.898-.258-3.653.988a2.698 2.698 0 0 0 .935 3.717s.672.404 1.066.586a13.332 13.332 0 0 0 5.309 1.174c2.916.026 5.214-.94 6.83-2.699 1.226-1.334 1.793-3.043 1.64-4.943z"/></g><g><path fill="#00af3f" d="M127.788 14.324c1.91 1.06 3.175 2.75 3.657 4.884.459 2.028.243 3.599-.644 4.67-1.593 1.927-5.593 2.259-7.24 2.313-1.145.035-3.95-.101-5.308-.725.078.165.18.372.267.516.526.88 1.584 1.98 3.638 2.226 1.68.2 3.416-.2 4.372-.746a2.477 2.477 0 0 1 1.96-.227 2.54 2.54 0 0 1 1.529 1.275c.674 1.288.208 2.914-1.038 3.625-1.523.87-3.463 1.369-5.515 1.449a11.929 11.929 0 0 1-1.94-.072c-3.416-.41-5.46-2.135-6.573-3.511-1.236-1.528-1.977-3.553-2.035-5.554-.13-4.48 1.817-7.956 5.63-10.05 2.819-1.548 6.533-1.577 9.24-.073zm-2.051 6.435c.59-.231.645-.512.539-1.015-.2-.95-1.344-1.324-2.263-1.356-1.166-.041-2.322.202-3.106.649-.827.472-1.342.984-1.642 1.357.984.462 2.433.71 3.999.676.816-.016 1.953-.108 2.473-.311z"/></g><g><path fill="#00af3f" d="M9.335 14.536a4.407 4.407 0 0 0 .322-.027 2.597 2.597 0 0 0 2.24-2.799 2.58 2.58 0 0 0-.917-1.765 2.576 2.576 0 0 0-1.896-.6A1.345 1.345 0 0 1 7.63 8.122 1.345 1.345 0 0 1 8.853 6.67a2.608 2.608 0 0 0 2.366-2.812 2.599 2.599 0 0 0-2.812-2.366 6.5 6.5 0 0 0-4.443 2.305 6.497 6.497 0 0 0-1.512 4.772 6.549 6.549 0 0 0 6.882 5.968z"/></g><g><path fill="#00af3f" d="M55.648 14.324c1.91 1.06 3.175 2.75 3.657 4.884.459 2.028.243 3.599-.644 4.67-1.593 1.927-5.593 2.259-7.24 2.313-1.145.035-3.95-.101-5.308-.725.078.165.18.372.267.516.526.88 1.585 1.98 3.638 2.226 1.68.2 3.416-.2 4.372-.746a2.477 2.477 0 0 1 1.96-.227 2.54 2.54 0 0 1 1.529 1.275c.674 1.288.208 2.914-1.038 3.625-1.523.87-3.463 1.369-5.515 1.449a11.929 11.929 0 0 1-1.94-.072c-3.416-.41-5.46-2.135-6.573-3.511-1.236-1.528-1.977-3.553-2.035-5.554-.13-4.48 1.817-7.956 5.63-10.05 2.819-1.548 6.533-1.577 9.24-.073zm-2.051 6.435c.59-.231.645-.512.539-1.015-.2-.95-1.344-1.324-2.263-1.356-1.166-.041-2.322.202-3.106.649-.827.472-1.342.984-1.641 1.357.983.462 2.432.71 3.998.676.816-.016 1.953-.108 2.473-.311z"/></g><g><path fill="#00af3f" d="M26.475.89a3.048 3.048 0 0 0-2.349.069 3.052 3.052 0 0 0-1.613 1.708 3.055 3.055 0 0 0 .07 2.35 3.05 3.05 0 0 0 1.708 1.613c6.22 2.366 9.43 8.19 7.988 14.492-.764 3.335-2.497 5.843-5.15 7.454l-.12.069c-1.784-1.868-4.365-3.835-7.456-5.02 1.762-6.457 1.798-13.163.154-20.612A3.067 3.067 0 0 0 16.046.676a3.075 3.075 0 0 0-2.337 3.66c1.458 6.606 1.386 12.52-.26 18.214a13.29 13.29 0 0 0-4.784 1.08c-.785.337-1.657.616-2.226.536a1.343 1.343 0 1 1 .383-2.658 2.607 2.607 0 0 0 2.942-2.202 2.597 2.597 0 0 0-2.202-2.941 6.498 6.498 0 0 0-4.85 1.236 6.496 6.496 0 0 0-2.555 4.305 6.546 6.546 0 0 0 2.654 6.237c-.289.367-.57.763-.826 1.184C.557 31.749.197 34.48 1.05 37.036c1.061 3.18 3.776 5.49 6.916 5.883.462.058.905.085 1.33.085 4.565 0 7.048-3.175 9.26-6.005.05-.063.101-.121.151-.181 4.337-.006 8.4-1.044 11.608-2.991 4.07-2.47 6.82-6.39 7.952-11.335 2.155-9.418-2.583-18.1-11.79-21.602z"/></g><g><path fill="#fff" d="M14.832 34.089c-2.546 3.258-3.748 4.459-6.282 4.143-1.324-.166-2.538-1.247-3.019-2.691-.596-1.787.03-3.691 1.76-5.362 2.005-1.937 4.243-2.913 6.667-2.913.44 0 .886.03 1.337.095.325.047.646.11.964.185-2.344.37-5.05 1.534-7.378 4.455a1.654 1.654 0 0 0 2.586 2.062c2.51-3.148 5.584-3.555 7.817-3.297a10.444 10.444 0 0 0-4.451 3.323z"/></g><g><path fill="#00af3f" d="M152.717 28.336c-1.582 0-2.775 1.168-2.775 2.718v.057c0 1.55 1.193 2.718 2.775 2.718 1.583 0 2.775-1.168 2.775-2.718v-.057c0-1.55-1.192-2.718-2.775-2.718z"/></g><g><path fill="#00af3f" d="M166.814 17.555c-2.018 0-3.309.968-4.219 1.983a2.467 2.467 0 0 0-2.391-1.87 2.466 2.466 0 0 0-2.463 2.464v11.235a2.465 2.465 0 0 0 2.463 2.462 2.465 2.465 0 0 0 2.464-2.462v-6.498c0-1.795.848-2.784 2.387-2.784 1.904 0 2.303 1.514 2.303 2.784v6.498a2.465 2.465 0 0 0 2.463 2.462 2.465 2.465 0 0 0 2.464-2.462v-7.86c0-3.671-2.096-5.952-5.471-5.952z"/></g><g><path fill="#00af3f" d="M177.51 12.165a2.465 2.465 0 0 0-2.463 2.463v16.738a2.465 2.465 0 0 0 2.463 2.463 2.465 2.465 0 0 0 2.463-2.463V14.628a2.465 2.465 0 0 0-2.463-2.463z"/></g></g></svg>