<svg xmlns="http://www.w3.org/2000/svg" width="182" height="43" viewBox="0 0 182 43"><g><g><path fill="#00af3f" d="M111.402 29.094c-.296-.313-.76-.61-.844-1.837-.549-8.055 1.235-20.98 1.253-21.11a2.983 2.983 0 0 0-2.538-3.362 2.983 2.983 0 0 0-3.36 2.538c-.195 1.39-1.879 13.824-1.298 22.339.203 2.985 1.442 5.295 3.487 6.506.46.273.983.416 1.514.416 1.05 0 2.033-.56 2.566-1.462.406-.684.52-1.485.323-2.256-.198-.77-.553-1.19-1.103-1.772z"/></g><g><path fill="#00af3f" d="M95.09 13.174c2.312.404 4.323 1.734 5.662 3.745 1.552 2.328 2.046 5.354 1.356 8.303-.61 2.608-2.075 4.915-4.123 6.495-1.741 1.345-3.744 2.049-5.764 2.049a8.66 8.66 0 0 1-1.496-.13c-2.312-.405-4.323-1.735-5.662-3.745-1.552-2.328-2.046-5.355-1.356-8.303.61-2.608 2.075-4.915 4.123-6.495 2.171-1.677 4.75-2.359 7.26-1.919zm1.451 10.661c.33-1.408.138-2.789-.528-3.789-.315-.472-.886-1.068-1.822-1.232a2.972 2.972 0 0 0-.505-.043c-1.906 0-3.85 1.802-4.413 4.204-.33 1.408-.136 2.789.53 3.789.313.471.884 1.068 1.821 1.231 2.054.36 4.306-1.546 4.918-4.16z"/></g><g><path fill="#00af3f" d="M81.48 29.179a2.887 2.887 0 1 1-3.133 4.853 6.811 6.811 0 0 1-2.583-3.051l-.044.04c-1.718 1.471-3.755 2.251-5.827 2.251a8.23 8.23 0 0 1-1.027-.063c-2.22-.277-4.19-1.452-5.547-3.308-1.566-2.137-2.163-4.988-1.641-7.819.464-2.515 1.753-4.784 3.629-6.391 2.002-1.713 4.435-2.49 6.854-2.188a7.96 7.96 0 0 1 3.36 1.229c.358-3.908.789-6.748.825-6.979a2.889 2.889 0 0 1 5.709.878c-.021.134-1.66 10.966-1.135 19.388.046.732.296.99.56 1.16zm-7.811-5.596c.235-1.274.009-2.499-.622-3.36-.29-.396-.802-.888-1.603-.989a2.583 2.583 0 0 0-.304-.018c-1.688 0-3.375 1.712-3.782 3.914-.235 1.274-.008 2.499.622 3.359.289.396.802.888 1.603.989 1.785.223 3.655-1.561 4.086-3.895z"/></g><g><path fill="#00af3f" d="M149.735 25.996c-.328-4.074-4.236-4.96-6.34-5.437a41.865 41.865 0 0 0-1.203-.228c-1.196-.199-2.318-.546-2.222-1.26.058-.429.902-.78 2.026-.68 1.334.115 1.96.346 3.377.862 1.416.516 2.817.096 3.513-1.129a2.693 2.693 0 0 0-1.116-3.726c-.412-.212-.79-.396-1.05-.5-1.157-.466-2.959-.909-5.342-.65-1.15.123-4.026.642-5.862 2.775-1.05 1.221-1.529 2.721-1.382 4.337.346 3.815 4.145 4.691 6.185 5.13 0 0 .755.148 1.64.4.443.126 1.47.33 1.81.861.312.492.016 1.23-.974 1.474-.505.125-1.35.144-1.935.03-.942-.187-1.879-.404-3.252-1.082-1.372-.678-2.898-.258-3.652.988a2.696 2.696 0 0 0 .934 3.717s.672.404 1.066.586a13.332 13.332 0 0 0 5.31 1.174c2.915.026 5.213-.94 6.83-2.699 1.225-1.334 1.792-3.043 1.64-4.943z"/></g><g><path fill="#00af3f" d="M128.415 14.324c1.91 1.06 3.174 2.75 3.656 4.884.46 2.028.243 3.599-.644 4.67-1.593 1.927-5.593 2.259-7.239 2.313-1.146.035-3.95-.101-5.309-.725.078.165.181.372.267.516.526.88 1.585 1.98 3.638 2.226 1.68.2 3.416-.2 4.372-.746a2.479 2.479 0 0 1 1.961-.227c.66.197 1.202.65 1.528 1.275.674 1.288.208 2.914-1.038 3.625-1.523.87-3.463 1.369-5.515 1.449a11.929 11.929 0 0 1-1.94-.072c-3.416-.41-5.46-2.135-6.573-3.511-1.235-1.528-1.977-3.553-2.035-5.554-.13-4.48 1.817-7.956 5.631-10.05 2.82-1.548 6.532-1.577 9.24-.073zm-2.052 6.435c.591-.231.645-.512.54-1.015-.2-.95-1.345-1.324-2.264-1.356-1.165-.041-2.322.202-3.106.649-.827.472-1.342.984-1.64 1.357.982.462 2.431.71 3.997.676.816-.016 1.953-.108 2.473-.311z"/></g><g><path fill="#00af3f" d="M9.96 14.536a4.407 4.407 0 0 0 .324-.027 2.597 2.597 0 0 0 2.239-2.799 2.58 2.58 0 0 0-.916-1.765 2.576 2.576 0 0 0-1.896-.6 1.346 1.346 0 0 1-1.454-1.223A1.345 1.345 0 0 1 9.48 6.67a2.606 2.606 0 0 0 2.365-2.812 2.599 2.599 0 0 0-2.812-2.366A6.5 6.5 0 0 0 4.59 3.796 6.497 6.497 0 0 0 3.08 8.568a6.547 6.547 0 0 0 6.88 5.968z"/></g><g><path fill="#00af3f" d="M56.275 14.324c1.91 1.06 3.175 2.75 3.657 4.884.459 2.028.242 3.599-.644 4.67-1.594 1.927-5.594 2.259-7.24 2.313-1.145.035-3.95-.101-5.31-.725.079.165.183.372.269.516.526.88 1.584 1.98 3.637 2.226 1.68.2 3.417-.2 4.373-.746a2.476 2.476 0 0 1 1.96-.227c.659.197 1.202.65 1.529 1.275.674 1.288.208 2.914-1.038 3.625-1.523.87-3.463 1.369-5.515 1.449a11.946 11.946 0 0 1-1.941-.072c-3.416-.41-5.46-2.135-6.572-3.511-1.236-1.528-1.978-3.553-2.036-5.554-.13-4.48 1.818-7.956 5.632-10.05 2.818-1.548 6.532-1.577 9.239-.073zm-2.051 6.435c.59-.231.645-.512.539-1.015-.2-.95-1.344-1.324-2.263-1.356-1.166-.041-2.323.202-3.106.649-.827.472-1.342.984-1.642 1.357.984.462 2.433.71 3.998.676.816-.016 1.953-.108 2.474-.311z"/></g><g><path fill="#00af3f" d="M27.102.89a3.048 3.048 0 0 0-2.349.069 3.052 3.052 0 0 0-1.613 1.708 3.055 3.055 0 0 0 .07 2.35 3.051 3.051 0 0 0 1.708 1.613c6.22 2.366 9.43 8.19 7.987 14.492-.763 3.335-2.496 5.843-5.15 7.454-.04.023-.08.045-.119.069-1.785-1.868-4.365-3.835-7.457-5.02 1.763-6.457 1.798-13.163.154-20.612a3.048 3.048 0 0 0-1.346-1.927 3.065 3.065 0 0 0-2.315-.41 3.075 3.075 0 0 0-2.336 3.66c1.457 6.606 1.386 12.52-.26 18.214a13.29 13.29 0 0 0-4.784 1.08c-.785.337-1.657.616-2.226.536a1.342 1.342 0 1 1 .383-2.658 2.608 2.608 0 0 0 2.942-2.202 2.598 2.598 0 0 0-2.202-2.941A6.497 6.497 0 0 0 3.34 17.6a6.496 6.496 0 0 0-2.555 4.305 6.547 6.547 0 0 0 2.653 6.237c-.289.367-.569.763-.826 1.184-1.428 2.422-1.787 5.153-.935 7.709 1.061 3.18 3.775 5.49 6.915 5.883.463.058.905.085 1.33.085 4.565 0 7.048-3.175 9.26-6.005.05-.063.101-.121.152-.181 4.337-.006 8.4-1.044 11.607-2.991 4.071-2.47 6.821-6.39 7.952-11.335 2.156-9.418-2.582-18.1-11.79-21.602z"/></g><g><path fill="#fff" d="M15.459 34.089c-2.546 3.258-3.747 4.459-6.282 4.143-1.324-.166-2.538-1.247-3.019-2.691-.596-1.787.029-3.691 1.759-5.362 2.006-1.937 4.244-2.913 6.668-2.913.439 0 .885.03 1.336.095.325.047.647.11.964.185-2.344.37-5.049 1.534-7.378 4.455a1.654 1.654 0 0 0 2.587 2.062c2.509-3.148 5.583-3.555 7.816-3.297a10.45 10.45 0 0 0-4.451 3.323z"/></g><g><path fill="#00af3f" d="M153.344 28.335c-1.583 0-2.776 1.169-2.776 2.719v.057c0 1.55 1.193 2.718 2.776 2.718 1.582 0 2.775-1.168 2.775-2.718v-.057c0-1.55-1.193-2.719-2.775-2.719z"/></g><g><path fill="#00af3f" d="M167.784 17.554c3.592 0 7.23 2.806 7.23 8.166v.057c0 4.058-2.484 8.166-7.23 8.166-1.769 0-3.195-.572-4.43-1.789v3.751a2.466 2.466 0 0 1-2.464 2.463 2.466 2.466 0 0 1-2.464-2.463V20.131a2.465 2.465 0 0 1 4.858-.58c1.208-1.342 2.687-1.997 4.5-1.997zm2.302 8.166c0-2.218-1.465-3.89-3.409-3.89-1.959 0-3.38 1.635-3.38 3.89v.057c0 2.255 1.421 3.892 3.38 3.892 1.975 0 3.41-1.637 3.41-3.892z"/></g><g><path fill="#00af3f" d="M179.31 12.165a2.465 2.465 0 0 0-2.463 2.463v16.738a2.465 2.465 0 0 0 2.463 2.463 2.465 2.465 0 0 0 2.464-2.463V14.628a2.465 2.465 0 0 0-2.464-2.463z"/></g></g></svg>