<svg xmlns="http://www.w3.org/2000/svg" width="185" height="43" viewBox="0 0 185 43"><g><g><path fill="#00af3f" d="M110.785 28.837c-.295-.312-.76-.61-.844-1.836-.549-8.056 1.236-20.981 1.254-21.111a2.983 2.983 0 0 0-2.539-3.361 2.982 2.982 0 0 0-3.36 2.538c-.195 1.39-1.878 13.823-1.298 22.338.204 2.985 1.442 5.295 3.487 6.506.46.273.984.416 1.515.416a2.99 2.99 0 0 0 2.565-1.461c.406-.684.52-1.486.323-2.257-.198-.77-.552-1.188-1.103-1.772z"/></g><g><path fill="#00af3f" d="M94.473 12.917c2.312.404 4.324 1.734 5.662 3.745 1.552 2.33 2.045 5.355 1.355 8.304-.61 2.607-2.074 4.914-4.122 6.494-1.742 1.345-3.745 2.05-5.765 2.05-.498 0-.998-.043-1.495-.13-2.313-.405-4.324-1.736-5.663-3.746-1.55-2.328-2.044-5.355-1.354-8.303.61-2.608 2.073-4.914 4.121-6.495 2.172-1.676 4.751-2.359 7.261-1.919zm1.451 10.661c.33-1.408.137-2.789-.528-3.788-.315-.472-.886-1.068-1.822-1.233a2.972 2.972 0 0 0-.506-.043c-1.904 0-3.85 1.802-4.412 4.204-.329 1.41-.136 2.79.53 3.79.313.47.884 1.067 1.821 1.231 2.054.36 4.305-1.547 4.917-4.16z"/></g><g><path fill="#00af3f" d="M80.862 28.922a2.889 2.889 0 0 1-3.132 4.853 6.796 6.796 0 0 1-2.583-3.05l-.044.04c-1.718 1.47-3.756 2.251-5.828 2.251-.342 0-.684-.02-1.026-.064-2.219-.277-4.189-1.452-5.548-3.308-1.565-2.137-2.163-4.988-1.64-7.819.464-2.515 1.753-4.784 3.63-6.39 2-1.713 4.434-2.49 6.853-2.188a7.95 7.95 0 0 1 3.361 1.228c.356-3.907.788-6.747.823-6.979a2.889 2.889 0 0 1 5.71.878c-.02.134-1.66 10.966-1.135 19.388.046.732.296.99.56 1.16zm-7.81-5.596c.235-1.274.008-2.499-.622-3.359-.289-.396-.802-.889-1.603-.989a2.6 2.6 0 0 0-.305-.018c-1.687 0-3.375 1.711-3.78 3.913-.236 1.274-.01 2.5.62 3.36.29.395.803.888 1.604.988 1.785.223 3.655-1.56 4.086-3.895z"/></g><g><path fill="#00af3f" d="M149.119 25.74c-.328-4.075-4.236-4.96-6.34-5.438a42.15 42.15 0 0 0-1.204-.228c-1.195-.198-2.317-.545-2.221-1.259.057-.43.902-.78 2.026-.682 1.334.116 1.96.348 3.377.864 1.416.515 2.817.095 3.513-1.13a2.691 2.691 0 0 0-1.116-3.725c-.413-.213-.79-.396-1.05-.5-1.158-.467-2.96-.909-5.342-.65-1.151.123-4.026.641-5.862 2.775-1.051 1.221-1.53 2.72-1.382 4.336.346 3.815 4.144 4.691 6.185 5.13 0 0 .755.148 1.638.4.445.127 1.472.33 1.81.862.314.491.018 1.228-.972 1.473-.505.125-1.35.144-1.935.03-.942-.187-1.88-.404-3.252-1.08-1.373-.68-2.9-.26-3.653.986a2.698 2.698 0 0 0 .934 3.717s.673.405 1.066.586a13.324 13.324 0 0 0 5.31 1.174c2.916.026 5.214-.939 6.83-2.699 1.226-1.333 1.793-3.043 1.64-4.943z"/></g><g><path fill="#00af3f" d="M127.798 14.067c1.91 1.062 3.175 2.75 3.657 4.884.459 2.028.242 3.599-.644 4.67-1.594 1.928-5.593 2.259-7.24 2.313-1.145.036-3.95-.101-5.31-.724.08.165.183.372.269.515.526.88 1.584 1.98 3.638 2.226 1.679.2 3.416-.2 4.372-.745a2.473 2.473 0 0 1 1.96-.228c.66.198 1.202.651 1.529 1.276.674 1.287.208 2.913-1.038 3.625-1.523.869-3.463 1.368-5.515 1.448a11.71 11.71 0 0 1-1.94-.072c-3.417-.409-5.46-2.135-6.573-3.511-1.236-1.528-1.978-3.553-2.035-5.554-.13-4.48 1.817-7.956 5.63-10.049 2.819-1.549 6.533-1.578 9.24-.074zm-2.051 6.435c.59-.231.645-.512.539-1.015-.2-.949-1.344-1.324-2.263-1.356-1.166-.041-2.322.202-3.106.649-.827.472-1.342.984-1.642 1.358.984.461 2.433.71 3.998.676.817-.017 1.954-.108 2.474-.312z"/></g><g><path fill="#00af3f" d="M9.344 14.28l.195-.015h.001c.043-.004.084-.007.126-.013a2.596 2.596 0 0 0 2.24-2.798 2.588 2.588 0 0 0-.916-1.766 2.58 2.58 0 0 0-1.896-.6 1.344 1.344 0 0 1-.23-2.676A2.607 2.607 0 0 0 11.228 3.6a2.6 2.6 0 0 0-2.812-2.366A6.497 6.497 0 0 0 3.974 3.54a6.496 6.496 0 0 0-1.512 4.772c.304 3.527 3.37 6.165 6.882 5.968z"/></g><g><path fill="#00af3f" d="M55.657 14.067c1.91 1.062 3.175 2.75 3.657 4.884.46 2.028.243 3.599-.644 4.67-1.594 1.928-5.593 2.259-7.239 2.313-1.146.036-3.95-.101-5.31-.724.08.165.182.372.268.515.526.88 1.584 1.98 3.638 2.226 1.68.2 3.416-.2 4.372-.745a2.473 2.473 0 0 1 1.96-.228c.66.198 1.202.651 1.53 1.276.673 1.287.207 2.913-1.039 3.625-1.523.869-3.463 1.368-5.515 1.448a11.723 11.723 0 0 1-1.94-.072c-3.417-.409-5.46-2.135-6.573-3.511-1.236-1.528-1.977-3.553-2.035-5.554-.13-4.48 1.817-7.956 5.631-10.049 2.818-1.549 6.532-1.578 9.24-.074zm-2.05 6.435c.59-.231.644-.512.538-1.015-.2-.949-1.344-1.324-2.263-1.356-1.166-.041-2.322.202-3.106.649-.827.472-1.342.984-1.642 1.358.984.461 2.433.71 4 .676.815-.017 1.952-.108 2.472-.312z"/></g><g><path fill="#00af3f" d="M26.485.633a3.048 3.048 0 0 0-2.35.07 3.05 3.05 0 0 0-1.612 1.708c-.291.766-.267 1.6.07 2.349A3.05 3.05 0 0 0 24.3 6.373c6.22 2.366 9.43 8.19 7.987 14.492-.763 3.335-2.496 5.843-5.15 7.454l-.12.069c-1.783-1.868-4.364-3.835-7.455-5.018 1.762-6.46 1.797-13.165.154-20.614a3.072 3.072 0 0 0-5.998 1.325c1.458 6.604 1.386 12.519-.261 18.212a13.332 13.332 0 0 0-4.783 1.08c-.785.337-1.657.617-2.226.536a1.341 1.341 0 0 1-.613-2.404c.283-.213.646-.305.996-.254a2.606 2.606 0 0 0 2.942-2.201 2.598 2.598 0 0 0-2.202-2.942 6.498 6.498 0 0 0-4.85 1.236A6.499 6.499 0 0 0 .167 21.65a6.546 6.546 0 0 0 2.653 6.236 12.16 12.16 0 0 0-.825 1.184c-1.428 2.423-1.788 5.154-.936 7.709 1.06 3.18 3.776 5.492 6.916 5.883.462.059.904.086 1.329.086 4.566-.001 7.048-3.176 9.26-6.006.05-.062.102-.121.152-.18 4.337-.007 8.4-1.044 11.608-2.991 4.07-2.471 6.82-6.39 7.952-11.335 2.155-9.418-2.583-18.1-11.791-21.603z"/></g><g><path fill="#fff" d="M14.842 33.833c-2.546 3.257-3.748 4.458-6.282 4.142-1.324-.166-2.538-1.247-3.019-2.691-.596-1.786.03-3.69 1.76-5.361 2.005-1.938 4.243-2.914 6.667-2.914a9.657 9.657 0 0 1 2.3.28c-2.344.371-5.049 1.534-7.378 4.455a1.653 1.653 0 0 0 2.586 2.062c2.51-3.148 5.584-3.555 7.817-3.297a10.432 10.432 0 0 0-4.45 3.324z"/></g><g><path fill="#00af3f" d="M152.727 28.08c-1.582 0-2.775 1.168-2.775 2.718v.056c0 1.55 1.193 2.72 2.775 2.72 1.583 0 2.775-1.17 2.775-2.72v-.056c0-1.55-1.192-2.719-2.775-2.719z"/></g><g><path fill="#00af3f" d="M165.292 17.412c-.975 0-1.915.7-2.667 1.955a2.468 2.468 0 0 0-2.411-1.955 2.466 2.466 0 0 0-2.464 2.463V31.11a2.466 2.466 0 0 0 2.464 2.464 2.466 2.466 0 0 0 2.463-2.464v-4.028c0-2.832 1.036-4.45 3.165-4.948 1.145-.259 1.856-1.146 1.856-2.315 0-1.439-.967-2.406-2.406-2.406z"/></g><g><path fill="#00af3f" d="M175.99 17.299c4.77 0 8.506 3.586 8.506 8.165v.057c0 4.61-3.76 8.222-8.563 8.222-4.769 0-8.506-3.587-8.506-8.165v-.057c0-4.611 3.761-8.222 8.563-8.222zm-3.693 8.222c0 2.218 1.588 3.89 3.693 3.89 2.141 0 3.636-1.575 3.636-3.833v-.057c0-2.218-1.587-3.891-3.693-3.891-2.14 0-3.636 1.576-3.636 3.834z"/></g></g></svg>