<svg xmlns="http://www.w3.org/2000/svg" width="177" height="43" viewBox="0 0 177 43"><g><g><path fill="#00af3f" d="M110.603 28.389c-.294-.312-.76-.61-.843-1.836-.55-8.056 1.235-20.981 1.253-21.111a2.983 2.983 0 0 0-2.538-3.361 2.982 2.982 0 0 0-3.361 2.538c-.195 1.39-1.878 13.823-1.298 22.338.205 2.985 1.443 5.295 3.488 6.506.46.273.983.416 1.514.416a2.99 2.99 0 0 0 2.566-1.461c.405-.684.52-1.486.322-2.257-.198-.77-.552-1.188-1.103-1.772z"/></g><g><path fill="#00af3f" d="M94.292 12.469c2.312.404 4.324 1.734 5.662 3.745 1.552 2.329 2.045 5.355 1.355 8.304-.61 2.607-2.074 4.914-4.122 6.494-1.742 1.345-3.745 2.05-5.765 2.05-.498 0-.998-.043-1.495-.13-2.313-.405-4.324-1.736-5.663-3.746-1.551-2.328-2.044-5.355-1.354-8.303.61-2.608 2.073-4.914 4.12-6.495 2.173-1.677 4.752-2.36 7.262-1.92zm1.45 10.66c.33-1.407.138-2.788-.527-3.787-.315-.472-.886-1.07-1.822-1.233a2.972 2.972 0 0 0-.506-.043c-1.904 0-3.85 1.802-4.412 4.204-.33 1.409-.136 2.79.529 3.789.314.47.885 1.068 1.822 1.232 2.054.359 4.305-1.547 4.917-4.161z"/></g><g><path fill="#00af3f" d="M80.68 28.474a2.889 2.889 0 1 1-3.131 4.853 6.801 6.801 0 0 1-2.583-3.05l-.044.039c-1.718 1.47-3.756 2.252-5.828 2.252-.342 0-.684-.021-1.026-.064-2.22-.277-4.19-1.452-5.548-3.308-1.565-2.137-2.163-4.988-1.64-7.82.464-2.514 1.753-4.783 3.629-6.39 2-1.712 4.435-2.49 6.854-2.187a7.95 7.95 0 0 1 3.36 1.228c.357-3.907.789-6.747.824-6.98a2.889 2.889 0 0 1 5.709.879c-.02.134-1.66 10.966-1.134 19.388.046.732.296.99.559 1.16zm-7.81-5.596c.236-1.274.009-2.5-.621-3.36-.29-.395-.802-.888-1.603-.988a2.601 2.601 0 0 0-.305-.02c-1.687 0-3.375 1.713-3.781 3.915-.235 1.274-.01 2.499.62 3.359.29.396.804.889 1.605.989 1.785.223 3.655-1.561 4.086-3.895z"/></g><g><path fill="#00af3f" d="M148.937 25.291c-.328-4.074-4.236-4.96-6.34-5.437a42.15 42.15 0 0 0-1.204-.228c-1.195-.198-2.317-.546-2.221-1.259.057-.43.902-.78 2.026-.682 1.334.116 1.96.348 3.377.864 1.416.515 2.817.095 3.513-1.13a2.691 2.691 0 0 0-1.116-3.725c-.413-.213-.79-.397-1.05-.501-1.158-.466-2.959-.909-5.342-.65-1.151.124-4.026.642-5.862 2.775-1.051 1.222-1.529 2.721-1.382 4.337.346 3.815 4.144 4.691 6.185 5.129 0 0 .755.149 1.638.401.445.127 1.472.33 1.811.862.313.491.017 1.228-.973 1.473-.505.125-1.35.144-1.935.029-.942-.186-1.88-.403-3.252-1.08-1.373-.679-2.899-.259-3.653.987a2.698 2.698 0 0 0 .934 3.717s.673.405 1.066.586a13.324 13.324 0 0 0 5.31 1.174c2.916.026 5.214-.939 6.83-2.699 1.226-1.333 1.793-3.043 1.64-4.943z"/></g><g><path fill="#00af3f" d="M127.616 13.619c1.91 1.06 3.175 2.75 3.657 4.884.459 2.028.242 3.599-.644 4.67-1.594 1.927-5.593 2.259-7.24 2.313-1.145.036-3.95-.101-5.31-.724.08.165.183.372.269.515.526.88 1.584 1.98 3.638 2.226 1.679.2 3.416-.2 4.372-.746a2.477 2.477 0 0 1 1.96-.227c.66.198 1.202.65 1.529 1.275.674 1.288.208 2.914-1.038 3.626-1.523.869-3.463 1.368-5.515 1.448-.174.007-.347.01-.52.01-.487 0-.963-.026-1.42-.082-3.417-.41-5.46-2.135-6.573-3.511-1.236-1.528-1.978-3.553-2.035-5.554-.13-4.48 1.817-7.956 5.63-10.05 2.819-1.548 6.533-1.577 9.24-.073zm-2.051 6.435c.59-.231.645-.512.539-1.015-.2-.95-1.344-1.324-2.263-1.356-1.166-.041-2.322.202-3.106.649-.827.472-1.342.984-1.642 1.358.984.46 2.433.71 3.998.676.817-.017 1.954-.108 2.474-.312z"/></g><g><path fill="#00af3f" d="M9.163 13.832l.195-.015c.044-.004.085-.007.127-.013a2.596 2.596 0 0 0 2.24-2.798 2.588 2.588 0 0 0-.916-1.766 2.58 2.58 0 0 0-1.896-.6 1.344 1.344 0 0 1-.231-2.676 2.607 2.607 0 0 0 2.366-2.812A2.6 2.6 0 0 0 8.236.786a6.497 6.497 0 0 0-4.443 2.306A6.494 6.494 0 0 0 2.28 7.863a6.55 6.55 0 0 0 6.882 5.969z"/></g><g><path fill="#00af3f" d="M55.476 13.619c1.91 1.06 3.175 2.75 3.657 4.884.459 2.028.243 3.599-.644 4.67-1.594 1.927-5.593 2.259-7.24 2.313-1.145.036-3.95-.101-5.308-.724.078.165.18.372.267.515.526.88 1.584 1.98 3.638 2.226 1.679.2 3.416-.2 4.372-.746a2.477 2.477 0 0 1 1.96-.227c.66.198 1.202.65 1.529 1.275.674 1.288.208 2.914-1.038 3.626-1.523.869-3.463 1.368-5.515 1.448-.174.007-.347.01-.52.01-.486 0-.963-.026-1.42-.082-3.417-.41-5.46-2.135-6.573-3.511-1.236-1.528-1.977-3.553-2.035-5.554-.13-4.48 1.817-7.956 5.63-10.05 2.819-1.548 6.533-1.577 9.24-.073zm-2.051 6.435c.59-.231.645-.512.539-1.015-.2-.95-1.344-1.324-2.263-1.356-1.166-.041-2.322.202-3.106.649-.827.472-1.342.984-1.642 1.358.984.46 2.433.71 3.999.676.816-.017 1.953-.108 2.473-.312z"/></g><g><path fill="#00af3f" d="M26.303.185a3.053 3.053 0 0 0-2.349.069 3.054 3.054 0 0 0-1.613 1.709c-.29.766-.267 1.6.07 2.349a3.05 3.05 0 0 0 1.708 1.613c6.22 2.366 9.43 8.19 7.987 14.492-.763 3.335-2.496 5.843-5.15 7.454-.039.024-.079.045-.119.069-1.784-1.868-4.365-3.835-7.456-5.018 1.762-6.46 1.797-13.165.154-20.614a3.072 3.072 0 0 0-5.998 1.325c1.458 6.604 1.386 12.519-.26 18.212a13.29 13.29 0 0 0-4.784 1.08c-.785.337-1.657.617-2.226.536a1.341 1.341 0 0 1-.613-2.404c.283-.213.646-.305.996-.254a2.606 2.606 0 0 0 2.942-2.201A2.598 2.598 0 0 0 7.39 15.66a6.498 6.498 0 0 0-4.85 1.236A6.499 6.499 0 0 0-.015 21.2a6.547 6.547 0 0 0 2.653 6.237 12.16 12.16 0 0 0-.825 1.184C.385 31.045.025 33.776.877 36.33c1.061 3.18 3.776 5.49 6.916 5.883.462.059.904.086 1.33.086 4.565-.001 7.047-3.176 9.26-6.006.05-.062.101-.121.151-.18 4.337-.007 8.4-1.044 11.608-2.991 4.07-2.471 6.82-6.39 7.952-11.335 2.155-9.418-2.583-18.1-11.79-21.603z"/></g><g><path fill="#fff" d="M14.66 33.385c-2.545 3.257-3.747 4.458-6.281 4.142-1.324-.166-2.538-1.247-3.02-2.691-.595-1.787.03-3.69 1.76-5.361 2.006-1.938 4.244-2.914 6.668-2.914a9.657 9.657 0 0 1 2.3.28c-2.344.37-5.05 1.534-7.378 4.455a1.653 1.653 0 0 0 2.586 2.062c2.51-3.148 5.584-3.555 7.817-3.297a10.432 10.432 0 0 0-4.451 3.324z"/></g><g><path fill="#00af3f" d="M152.545 27.63c-1.582 0-2.775 1.17-2.775 2.72v.056c0 1.55 1.193 2.719 2.775 2.719 1.583 0 2.775-1.17 2.775-2.72v-.055c0-1.55-1.192-2.72-2.775-2.72z"/></g><g><path fill="#00af3f" d="M164.98 23.165l-.48-.164c-1.236-.418-2.404-.814-2.404-1.361v-.057c0-.458.49-.742 1.28-.742.815 0 1.907.322 3.155.932.34.17.585.231.93.231 1.144 0 2.04-.883 2.04-2.01 0-.823-.435-1.513-1.192-1.891-1.564-.783-3.24-1.196-4.847-1.196-3.51 0-5.868 2.062-5.868 5.13v.057c0 3.054 2.407 4.172 4.757 4.861.196.06.39.117.578.173 1.263.373 2.354.695 2.354 1.292v.057c0 .684-.821.828-1.51.828-1.195 0-2.598-.467-3.95-1.316a1.962 1.962 0 0 0-1.013-.273c-1.127 0-2.01.883-2.01 2.01 0 .717.352 1.35.965 1.734 1.802 1.164 3.84 1.778 5.896 1.778 3.834 0 6.123-1.949 6.123-5.215v-.056c0-3.201-3.126-4.243-4.803-4.802z"/></g><g><path fill="#00af3f" d="M173.996 16.964a2.465 2.465 0 0 0-2.463 2.463V30.66a2.466 2.466 0 0 0 2.463 2.464 2.466 2.466 0 0 0 2.463-2.464V19.427a2.465 2.465 0 0 0-2.463-2.463z"/></g><g><path fill="#00af3f" d="M173.996 11.488c-1.6 0-2.719.955-2.719 2.321v.058c0 1.383 1.118 2.35 2.72 2.35 1.6 0 2.717-.967 2.717-2.35v-.058c0-1.366-1.117-2.32-2.718-2.32z"/></g></g></svg>