<svg xmlns="http://www.w3.org/2000/svg" width="187" height="43" viewBox="0 0 187 43"><g><g><path fill="#00af3f" d="M110.997 28.389c-.296-.312-.761-.61-.844-1.836-.55-8.056 1.235-20.981 1.253-21.111a2.982 2.982 0 0 0-2.538-3.361 2.982 2.982 0 0 0-3.361 2.538c-.194 1.39-1.878 13.823-1.297 22.338.203 2.985 1.442 5.295 3.487 6.506.46.273.983.416 1.514.416a2.992 2.992 0 0 0 2.566-1.461c.406-.684.52-1.486.323-2.257-.198-.77-.553-1.188-1.103-1.772z"/></g><g><path fill="#00af3f" d="M94.684 12.469c2.313.404 4.324 1.734 5.663 3.745 1.55 2.329 2.045 5.355 1.355 8.304-.61 2.607-2.074 4.914-4.122 6.494-1.742 1.345-3.745 2.05-5.765 2.05a8.66 8.66 0 0 1-1.495-.13c-2.313-.405-4.324-1.736-5.663-3.746-1.551-2.328-2.045-5.355-1.355-8.303.61-2.608 2.074-4.914 4.122-6.495 2.172-1.677 4.75-2.36 7.26-1.92zm1.452 10.66c.33-1.407.137-2.788-.53-3.787-.313-.472-.884-1.07-1.82-1.233a2.972 2.972 0 0 0-.506-.043c-1.905 0-3.85 1.802-4.412 4.204-.33 1.409-.137 2.79.529 3.789.314.47.885 1.068 1.822 1.232 2.053.359 4.305-1.547 4.917-4.161z"/></g><g><path fill="#00af3f" d="M81.074 28.474a2.89 2.89 0 0 1-3.133 4.853 6.814 6.814 0 0 1-2.583-3.05l-.044.039c-1.718 1.47-3.756 2.252-5.828 2.252-.34 0-.684-.021-1.026-.064-2.219-.277-4.189-1.452-5.547-3.308-1.566-2.137-2.163-4.988-1.64-7.82.463-2.514 1.752-4.783 3.628-6.39 2.002-1.712 4.435-2.49 6.854-2.187a7.945 7.945 0 0 1 3.361 1.228c.357-3.907.788-6.747.824-6.98a2.887 2.887 0 1 1 5.71.879c-.022.134-1.66 10.966-1.136 19.388.046.732.296.99.56 1.16zm-7.81-5.596c.234-1.274.008-2.5-.623-3.36-.289-.395-.802-.888-1.603-.988a2.584 2.584 0 0 0-.304-.02c-1.688 0-3.375 1.713-3.782 3.915-.235 1.274-.008 2.499.622 3.359.29.396.802.889 1.603.989 1.785.223 3.655-1.561 4.086-3.895z"/></g><g><path fill="#00af3f" d="M149.33 25.291c-.328-4.074-4.236-4.96-6.34-5.437a41.865 41.865 0 0 0-1.203-.228c-1.196-.198-2.318-.546-2.222-1.259.058-.43.902-.78 2.026-.682 1.334.116 1.96.348 3.377.864 1.416.515 2.817.095 3.513-1.13a2.691 2.691 0 0 0-1.116-3.725c-.412-.213-.79-.397-1.05-.501-1.157-.466-2.96-.909-5.342-.65-1.151.124-4.026.642-5.862 2.775-1.051 1.222-1.53 2.721-1.382 4.337.346 3.815 4.145 4.691 6.185 5.129 0 0 .755.149 1.639.401.444.127 1.47.33 1.81.862.313.491.017 1.228-.973 1.473-.505.125-1.35.144-1.935.029-.942-.186-1.88-.403-3.252-1.08-1.372-.679-2.898-.259-3.652.987a2.696 2.696 0 0 0 .934 3.717s.672.405 1.066.586a13.315 13.315 0 0 0 5.309 1.174c2.916.026 5.214-.939 6.83-2.699 1.226-1.333 1.793-3.043 1.64-4.943z"/></g><g><path fill="#00af3f" d="M128.01 13.619c1.909 1.06 3.174 2.75 3.656 4.884.459 2.028.243 3.599-.644 4.67-1.593 1.927-5.593 2.259-7.24 2.313-1.145.036-3.95-.101-5.308-.724.077.165.18.372.266.515.527.88 1.586 1.98 3.639 2.226 1.68.2 3.415-.2 4.371-.746a2.479 2.479 0 0 1 1.962-.227 2.544 2.544 0 0 1 1.528 1.275c.673 1.288.207 2.914-1.039 3.626-1.523.869-3.463 1.368-5.515 1.448-.174.007-.347.01-.519.01-.487 0-.964-.026-1.42-.082-3.417-.41-5.46-2.135-6.574-3.511-1.235-1.528-1.977-3.553-2.035-5.554-.13-4.48 1.817-7.956 5.631-10.05 2.82-1.548 6.532-1.577 9.24-.073zm-2.052 6.435c.59-.231.644-.512.538-1.015-.2-.95-1.343-1.324-2.262-1.356-1.166-.041-2.323.202-3.107.649-.826.472-1.341.984-1.64 1.358.982.46 2.431.71 3.997.676.817-.017 1.954-.108 2.474-.312z"/></g><g><path fill="#00af3f" d="M9.555 13.832l.196-.015c.043-.004.085-.007.127-.013a2.596 2.596 0 0 0 2.24-2.798A2.584 2.584 0 0 0 11.2 9.24a2.58 2.58 0 0 0-1.896-.6 1.345 1.345 0 0 1-1.143-2.203c.228-.271.56-.444.913-.473a2.606 2.606 0 0 0 2.365-2.812A2.6 2.6 0 0 0 8.628.786a6.497 6.497 0 0 0-4.443 2.306 6.494 6.494 0 0 0-1.512 4.771 6.55 6.55 0 0 0 6.882 5.969z"/></g><g><path fill="#00af3f" d="M55.87 13.619c1.908 1.06 3.173 2.75 3.655 4.884.46 2.028.243 3.599-.644 4.67-1.593 1.927-5.593 2.259-7.239 2.313-1.145.036-3.95-.101-5.309-.724.078.165.181.372.267.515.526.88 1.585 1.98 3.638 2.226 1.68.2 3.416-.2 4.372-.746a2.479 2.479 0 0 1 1.961-.227 2.544 2.544 0 0 1 1.528 1.275c.674 1.288.208 2.914-1.038 3.626-1.523.869-3.463 1.368-5.515 1.448-.174.007-.347.01-.519.01-.487 0-.964-.026-1.42-.082-3.417-.41-5.46-2.135-6.574-3.511-1.235-1.528-1.977-3.553-2.035-5.554-.13-4.48 1.817-7.956 5.631-10.05 2.82-1.548 6.532-1.577 9.24-.073zm-2.053 6.435c.591-.231.645-.512.54-1.015-.2-.95-1.345-1.324-2.264-1.356-1.165-.041-2.322.202-3.106.649-.827.472-1.342.984-1.64 1.358.982.46 2.431.71 3.997.676.816-.017 1.953-.108 2.473-.312z"/></g><g><path fill="#00af3f" d="M26.696.185a3.053 3.053 0 0 0-2.349.069 3.054 3.054 0 0 0-1.613 1.709c-.29.766-.267 1.6.07 2.349a3.051 3.051 0 0 0 1.708 1.613c6.22 2.366 9.43 8.19 7.987 14.492-.763 3.335-2.496 5.843-5.15 7.454-.04.024-.08.045-.119.069-1.785-1.868-4.365-3.835-7.457-5.018 1.762-6.46 1.798-13.165.154-20.614a3.07 3.07 0 0 0-3.661-2.336 3.075 3.075 0 0 0-2.336 3.66c1.457 6.605 1.386 12.52-.26 18.213a13.29 13.29 0 0 0-4.784 1.08c-.785.337-1.658.617-2.226.536a1.34 1.34 0 0 1-.613-2.404c.283-.213.646-.305.996-.254a2.607 2.607 0 0 0 2.942-2.201 2.6 2.6 0 0 0-2.202-2.942 6.497 6.497 0 0 0-4.85 1.236A6.499 6.499 0 0 0 .378 21.2a6.547 6.547 0 0 0 2.653 6.237c-.289.367-.569.763-.826 1.184C.777 31.045.418 33.776 1.27 36.33c1.061 3.18 3.775 5.49 6.915 5.883.463.059.905.086 1.33.086 4.565-.001 7.048-3.176 9.26-6.006.05-.062.101-.121.152-.18 4.337-.007 8.4-1.044 11.607-2.991 4.071-2.471 6.821-6.39 7.952-11.335 2.156-9.418-2.582-18.1-11.79-21.603z"/></g><g><path fill="#fff" d="M15.053 33.385c-2.546 3.257-3.748 4.458-6.282 4.142-1.324-.166-2.538-1.247-3.019-2.691-.596-1.787.03-3.69 1.76-5.361 2.005-1.938 4.243-2.914 6.667-2.914a9.657 9.657 0 0 1 2.3.28c-2.344.37-5.049 1.534-7.378 4.455a1.654 1.654 0 0 0 2.586 2.062c2.51-3.148 5.584-3.555 7.817-3.297a10.444 10.444 0 0 0-4.45 3.324z"/></g><g><path fill="#00af3f" d="M152.938 27.63c-1.583 0-2.776 1.17-2.776 2.72v.056c0 1.55 1.193 2.719 2.776 2.719 1.582 0 2.775-1.17 2.775-2.72v-.055c0-1.55-1.193-2.72-2.775-2.72z"/></g><g><path fill="#00af3f" d="M165.373 23.165l-.48-.164c-1.237-.419-2.405-.815-2.405-1.361v-.057c0-.458.491-.742 1.281-.742.814 0 1.906.322 3.154.932.341.17.585.231.931.231 1.144 0 2.039-.883 2.039-2.01 0-.823-.435-1.513-1.192-1.891-1.564-.783-3.24-1.196-4.847-1.196-3.509 0-5.867 2.062-5.867 5.13v.057c0 3.054 2.406 4.172 4.757 4.861.195.06.389.117.578.173 1.262.373 2.353.695 2.353 1.292v.057c0 .684-.821.828-1.509.828-1.195 0-2.599-.467-3.95-1.316a1.962 1.962 0 0 0-1.014-.273c-1.127 0-2.01.883-2.01 2.01 0 .717.352 1.349.966 1.734 1.801 1.163 3.84 1.778 5.895 1.778 3.834 0 6.123-1.949 6.123-5.216v-.055c0-3.201-3.126-4.243-4.803-4.802z"/></g><g><path fill="#00af3f" d="M185.634 29.287l-3.886-5.246 3.2-2.746c.537-.512 1.087-1.162 1.087-2.095 0-1.1-.826-2.236-2.208-2.236-.848 0-1.417.385-2.112 1.05l-4.872 4.614v-8.705a2.466 2.466 0 0 0-2.463-2.463 2.466 2.466 0 0 0-2.464 2.463v16.738a2.467 2.467 0 0 0 2.464 2.464 2.467 2.467 0 0 0 2.463-2.464v-2.33l1.376-1.24 3.571 4.913c.573.796 1.188 1.121 2.122 1.121 1.302 0 2.322-.995 2.322-2.265 0-.528-.173-.983-.6-1.573z"/></g></g></svg>