<svg xmlns="http://www.w3.org/2000/svg" width="302" height="302" viewBox="0 0 302 302"><g><g><path fill="#fff" d="M151 301.5C68.014 301.5.5 233.986.5 151S68.014.5 151 .5 301.5 68.014 301.5 151 233.986 301.5 151 301.5z"/></g><g><path fill="#e5e5e5" d="M301 151c0 82.843-67.157 150-150 150S1 233.843 1 151 68.157 1 151 1s150 67.157 150 150zM44.228 44.227C15.707 72.747 0 110.667 0 151s15.707 78.253 44.228 106.773C72.747 286.293 110.667 302 151 302c40.334 0 78.253-15.707 106.773-44.227C286.294 229.253 302 191.333 302 151s-15.706-78.253-44.227-106.773C229.253 15.707 191.334 0 151 0 110.667 0 72.747 15.707 44.228 44.227z"/></g></g></svg>