<svg xmlns="http://www.w3.org/2000/svg" width="570" height="270" viewBox="0 0 570 270"><g><g><path fill="#f7f9f9" d="M570 270H0V0h570z"/></g><g><path d="M227.42 112.408a51.5 51.5 0 0 0 .96-.048h.002c.21-.013.415-.027.622-.045 6.746-.584 11.545-4.11 10.927-8.027-.31-1.958-1.922-3.723-4.541-4.968-2.62-1.245-5.931-1.824-9.324-1.623-3.632.209-6.836-1.318-7.167-3.407-.16-1.011.374-2.002 1.503-2.791 1.113-.78 2.74-1.282 4.469-1.38 7.005-.42 12.186-4.041 11.549-8.071-.64-4.043-6.85-7.008-13.864-6.593-8.544.498-16.273 2.885-21.763 6.72-5.49 3.838-8.086 8.667-7.31 13.596 1.58 9.99 16.7 17.345 33.937 16.637z"/></g><g><path d="M311.264 72.998c45.298 9.55 68.774 33.97 58.416 60.764-5.438 14.071-18.847 25.3-38.776 32.472-15.705 5.656-35.631 8.766-56.925 8.965-.25.172-.502.34-.743.52-10.795 8.117-22.91 17.224-45.33 17.415a90.829 90.829 0 0 1-6.53-.186c-15.43-.983-28.815-7.42-34.1-16.398-4.244-7.21-2.546-14.968 4.409-21.898a41.907 41.907 0 0 1 4.028-3.391c-9.411-3.833-14.88-10.502-13.181-17.575 1.18-4.915 5.6-9.288 12.443-12.314 6.842-3.025 15.29-4.342 23.788-3.708 6.979.514 11.849 4.222 10.88 8.252-.964 4.018-7.421 6.873-14.392 6.365-1.72-.131-3.497.146-4.885.76-1.407.624-2.315 1.52-2.557 2.529-.5 2.083 2.012 3.999 5.625 4.264 2.795.205 7.073-.625 10.919-1.613 7.472-1.921 15.332-3.02 23.459-3.261 7.952-16.213 8.163-32.988.846-51.655-1.832-4.673 3.277-9.373 11.386-10.478 3.948-.53 7.987-.151 11.379 1.066 3.404 1.223 5.768 3.143 6.656 5.407 8.25 21.055 8.236 40.072-.263 58.459 15.21 3.226 27.926 8.697 36.735 13.92.195-.068.39-.133.583-.202 12.995-4.678 21.444-11.86 25.112-21.35 6.932-17.928-8.97-34.31-39.57-40.761-3.765-.794-6.758-2.393-8.426-4.504-1.67-2.11-1.811-4.475-.4-6.657 1.412-2.183 4.21-3.927 7.88-4.912 3.672-.985 7.768-1.09 11.534-.295zm-56.376 94.626c6.347-4.771 14.012-7.767 21.777-9.61-10.971-.638-26.058.644-38.304 9.674-1.594 1.175-3.953 1.8-6.34 1.82-1.775.015-3.564-.304-5.065-.98-3.521-1.584-4.122-4.53-1.343-6.578 11.363-8.38 24.619-11.79 36.12-12.941a89.705 89.705 0 0 0-4.738-.482 80.33 80.33 0 0 0-6.561-.217c-11.905.1-22.87 2.963-32.674 8.54-8.456 4.81-11.48 10.235-8.511 15.276 2.398 4.074 8.383 7.089 14.892 7.504 12.453.792 18.32-2.663 30.747-12.006z"/></g><g><path fill="none" stroke="#e5007e" stroke-miterlimit="20" stroke-width="4" d="M376.026 36.269L179.816 237.12"/></g></g></svg>