<svg xmlns="http://www.w3.org/2000/svg" width="138" height="169" viewBox="0 0 138 169"><g><g><path d="M84.16 2.191a13.475 13.475 0 0 0-10.377.308 13.47 13.47 0 0 0-7.126 7.547 13.476 13.476 0 0 0 .31 10.377 13.468 13.468 0 0 0 7.546 7.127c26.488 10.077 40.16 34.875 34.016 61.707-3.25 14.198-10.622 24.87-21.913 31.72-14.866 9.025-33.01 9.337-42.87 8.652C61.276 92.6 64.97 55.073 55.372 11.582a13.492 13.492 0 0 0-5.947-8.512C46.384 1.13 42.752.488 39.2 1.26c-7.305 1.615-11.935 8.87-10.322 16.173 8.228 37.276 5.085 69.37-9.893 100.963a13.49 13.49 0 0 0-8.757-.197c-7.122 2.285-11.057 9.94-8.773 17.063.688 2.145 7.125 21.231 20.83 30.79a13.494 13.494 0 0 0 8.813 2.398 13.532 13.532 0 0 0 10.077-5.764 13.454 13.454 0 0 0 2.27-5.828c21.353 1.272 41.67-3.226 57.246-12.68 17.553-10.653 29.41-27.55 34.288-48.87C144.27 54.71 123.848 17.29 84.16 2.19z"/></g></g></svg>