<svg xmlns="http://www.w3.org/2000/svg" width="174" height="169" viewBox="0 0 174 169"><g><g><path d="M120.775 2.191a13.475 13.475 0 0 0-10.377.308 13.464 13.464 0 0 0-7.125 7.547 13.471 13.471 0 0 0 .308 10.377 13.471 13.471 0 0 0 7.547 7.127c26.49 10.077 40.16 34.875 34.016 61.707-3.249 14.198-10.622 24.87-21.913 31.72-14.866 9.025-33.01 9.337-42.87 8.652C97.891 92.6 101.584 55.073 91.987 11.582a13.49 13.49 0 0 0-5.946-8.512C83 1.13 79.367.488 75.814 1.26 68.51 2.875 63.88 10.13 65.492 17.433c8.228 37.276 5.085 69.37-9.892 100.963a13.494 13.494 0 0 0-8.758-.197c-7.12 2.285-11.057 9.94-8.773 17.063.688 2.145 7.125 21.231 20.83 30.79a13.497 13.497 0 0 0 8.813 2.398 13.532 13.532 0 0 0 10.077-5.764 13.441 13.441 0 0 0 2.27-5.828c21.353 1.272 41.67-3.226 57.246-12.68 17.554-10.653 29.41-27.55 34.288-48.87 9.291-40.597-11.13-78.018-50.818-93.117z"/></g><g><path d="M42.988 63.172c.282-.007.566-.019.855-.034a11.525 11.525 0 0 0 10.88-12.162 11.464 11.464 0 0 0-3.827-7.96c-2.298-2.055-5.26-3.076-8.338-2.923a5.274 5.274 0 0 1-3.85-1.334 5.349 5.349 0 0 1-1.802-3.726 5.328 5.328 0 0 1 1.36-3.876 5.372 5.372 0 0 1 3.704-1.778c6.351-.373 11.232-5.828 10.88-12.162-.35-6.339-5.823-11.248-12.159-10.884-7.588.422-14.557 3.772-19.623 9.432-5.068 5.661-7.627 12.96-7.207 20.547.846 15.204 13.912 27.253 29.127 26.86z"/></g><g><path d="M31.388 98.798a11.463 11.463 0 0 0 8.742 1.266 11.467 11.467 0 0 0 7.074-5.288c3.25-5.47 1.446-12.565-4.023-15.816-6.518-3.877-14.168-4.98-21.54-3.107-7.373 1.875-13.568 6.5-17.446 13.02-3.884 6.53-4.993 14.183-3.12 21.547 1.873 7.365 6.5 13.56 13.03 17.441a11.468 11.468 0 0 0 4.82 1.572c4.415.411 8.733-1.784 10.998-5.594 3.25-5.469 1.446-12.564-4.022-15.816a5.324 5.324 0 0 1-2.458-3.288 5.335 5.335 0 0 1 .588-4.066 5.376 5.376 0 0 1 7.357-1.87z"/></g></g></svg>