<svg xmlns="http://www.w3.org/2000/svg" width="168" height="182" viewBox="0 0 168 182"><g><g><path d="M40.627 59.792c.279-.016.561-.036.841-.06h.001a11.142 11.142 0 0 0 10.157-12.075 11.08 11.08 0 0 0-3.933-7.58 11.062 11.062 0 0 0-8.141-2.578 5.77 5.77 0 0 1-6.241-5.25 5.725 5.725 0 0 1 1.334-4.208 5.774 5.774 0 0 1 3.919-2.032c6.127-.546 10.684-5.962 10.158-12.074-.53-6.129-5.938-10.699-12.074-10.16-7.475.644-14.25 4.16-19.08 9.898-4.829 5.74-7.134 13.018-6.491 20.493 1.308 15.146 14.473 26.477 29.55 25.626z"/></g><g><path d="M114.231 1.191c39.538 15.042 59.885 52.32 50.63 92.76-4.86 21.236-16.667 38.067-34.146 48.673-13.775 8.361-31.22 12.816-49.842 12.844-.22.258-.442.508-.654.78-9.499 12.15-20.16 25.785-39.764 25.786-1.824 0-3.723-.117-5.709-.366-13.485-1.686-25.14-11.603-29.696-25.267-3.658-10.97-2.115-22.696 4.018-33.1a51.423 51.423 0 0 1 3.547-5.084c-8.2-5.925-12.934-16.093-11.397-26.782 1.07-7.427 4.967-13.99 10.972-18.486 6.005-4.492 13.401-6.379 20.828-5.31 6.1.867 10.33 6.545 9.453 12.634-.874 6.072-6.54 10.313-12.632 9.454a5.778 5.778 0 0 0-4.278 1.09 5.731 5.731 0 0 0-2.254 3.795c-.452 3.147 1.73 6.082 4.887 6.53 2.442.345 6.19-.856 9.56-2.304 6.547-2.812 13.428-4.376 20.537-4.637 7.073-24.449 7.382-49.846 1.122-78.205C57.845 8.897 62.347 1.844 69.446.274c3.456-.75 6.984-.125 9.941 1.761a13.11 13.11 0 0 1 5.781 8.273c7.058 31.987 6.905 60.782-.663 88.515 13.276 5.081 24.355 13.527 32.018 21.55.171-.1.343-.196.511-.3 11.397-6.915 18.84-17.683 22.116-32.003 6.194-27.06-7.589-52.069-34.298-62.23a13.096 13.096 0 0 1-7.335-6.928 13.1 13.1 0 0 1-.299-10.086 13.094 13.094 0 0 1 6.925-7.336 13.095 13.095 0 0 1 10.088-.299zM64.236 143.752c5.585-7.144 12.31-11.58 19.113-14.273-9.59-1.106-22.79.642-33.565 14.16a7.087 7.087 0 0 1-5.557 2.673 7.102 7.102 0 0 1-5.548-11.527c10-12.542 21.615-17.536 31.681-19.132a47.079 47.079 0 0 0-4.14-.79 40.644 40.644 0 0 0-5.736-.413c-10.41 0-20.019 4.193-28.633 12.511-7.429 7.176-10.113 15.352-7.555 23.023 2.066 6.2 7.277 10.842 12.966 11.554 10.882 1.36 16.04-3.798 26.974-17.786z"/></g></g></svg>