<svg xmlns="http://www.w3.org/2000/svg" width="570" height="270" viewBox="0 0 570 270"><g><g><path fill="#f7f9f9" d="M570 270H0V0h570z"/></g><g><path d="M312.764 52.475a13.475 13.475 0 0 0-10.377.308 13.467 13.467 0 0 0-7.125 7.547 13.476 13.476 0 0 0 .307 10.377 13.473 13.473 0 0 0 7.548 7.127c26.488 10.077 40.158 34.875 34.016 61.707-3.25 14.198-10.622 24.87-21.913 31.72-14.867 9.025-33.011 9.338-42.872 8.652 17.533-37.03 21.226-74.556 11.629-118.046a13.491 13.491 0 0 0-5.947-8.513c-3.042-1.94-6.674-2.582-10.227-1.81-7.304 1.615-11.935 8.87-10.323 16.173 8.229 37.276 5.086 69.37-9.891 100.963a13.494 13.494 0 0 0-8.758-.197c-7.121 2.285-11.058 9.939-8.774 17.064.689 2.144 7.126 21.23 20.83 30.789a13.494 13.494 0 0 0 8.814 2.398 13.528 13.528 0 0 0 10.076-5.764 13.443 13.443 0 0 0 2.27-5.828c21.354 1.272 41.67-3.226 57.247-12.681 17.553-10.652 29.409-27.55 34.288-48.87 9.29-40.596-11.13-78.016-50.818-93.116z"/></g><g><path d="M235.714 111.075c-5.351 0-10.46-3.084-12.787-8.285l-11.643-26.02c-3.158-7.057.003-15.34 7.06-18.497 7.056-3.158 15.339.002 18.498 7.06l11.643 26.02c3.158 7.058-.003 15.34-7.061 18.497a13.947 13.947 0 0 1-5.71 1.225z"/></g><g><path d="M208.192 177.559a13.943 13.943 0 0 1-9.123-3.386c-5.862-5.041-6.527-13.881-1.485-19.743l18.587-21.612c5.042-5.862 13.882-6.526 19.744-1.485 5.862 5.04 6.527 13.88 1.485 19.743l-18.587 21.612a13.971 13.971 0 0 1-10.621 4.87z"/></g><g><path fill="none" stroke="#e5007e" stroke-miterlimit="20" stroke-width="4" d="M374.532 34.574L178.323 235.426"/></g></g></svg>