<svg xmlns="http://www.w3.org/2000/svg" width="570" height="270" viewBox="0 0 570 270"><g><g><path fill="#f7f9f9" d="M570 270H0V0h570z"/></g><g><path fill="#00af3f" d="M367.72 75.693c-11.023-20.196-28.972-35.482-51.907-44.208a35.766 35.766 0 0 0-12.764-2.352 35.693 35.693 0 0 0-14.707 3.158 37.2 37.2 0 0 0-1.798.867 35.824 35.824 0 0 0-17.113-4.349h-.001a36.29 36.29 0 0 0-7.682.827l-.043.01-.042.01a35.738 35.738 0 0 0-11.511 4.756 33.967 33.967 0 0 0-15.017-2.072c-13.098 1.13-25.005 7.307-33.492 17.392-8.488 10.09-12.54 22.88-11.41 36.014a49.254 49.254 0 0 0 5.272 18.295c-7.561 7.504-12.47 17.204-14.014 27.931-1.525 10.6.428 21.134 5.272 30.218-4.807 12.825-5.143 26.501-.826 39.45 7.018 21.05 25.31 36.372 46.6 39.034 2.74.342 5.476.516 8.133.516 23.586-.002 38.485-13.092 48.362-24.545 16.84-1.588 32.418-6.53 45.583-14.52 21.456-13.02 35.9-33.46 41.769-59.108 5.427-23.714 2.432-46.995-8.664-67.324z"/></g><g><path fill="#fff" d="M262.14 182.627c-9.872 12.63-14.528 17.285-24.353 16.058-5.136-.642-9.84-4.834-11.707-10.43-2.309-6.927.113-14.309 6.821-20.788 7.777-7.51 16.453-11.296 25.852-11.296 1.702 0 3.43.125 5.18.373 1.26.18 2.505.423 3.736.714-9.089 1.441-19.575 5.95-28.603 17.273a6.412 6.412 0 1 0 10.026 7.992c9.73-12.203 21.647-13.78 30.304-12.783-6.143 2.431-12.214 6.437-17.256 12.887z"/></g><g><path fill="#f9e300" d="M240.825 106.824c.252-.015.506-.032.759-.055a10.063 10.063 0 0 0 9.171-10.902 10.005 10.005 0 0 0-3.551-6.843 9.993 9.993 0 0 0-7.35-2.328 5.209 5.209 0 0 1-5.634-4.74 5.172 5.172 0 0 1 1.204-3.799 5.213 5.213 0 0 1 3.538-1.834c5.532-.493 9.646-5.383 9.17-10.9-.476-5.535-5.36-9.66-10.9-9.174-6.748.582-12.866 3.756-17.225 8.936-4.361 5.183-6.442 11.753-5.861 18.502 1.18 13.675 13.066 23.905 26.679 23.137z"/></g><g><path fill="#f9e300" d="M307.278 53.916c35.696 13.581 54.067 47.237 45.71 83.748-4.387 19.173-15.047 34.37-30.828 43.944-12.436 7.55-28.188 11.572-44.999 11.597-.199.232-.399.458-.59.703-8.577 10.97-18.202 23.281-35.902 23.282-1.647 0-3.36-.106-5.154-.33-12.174-1.523-22.698-10.477-26.81-22.813-3.303-9.905-1.91-20.49 3.626-29.884a46.533 46.533 0 0 1 3.203-4.59c-7.404-5.35-11.677-14.53-10.289-24.18.965-6.705 4.484-12.632 9.906-16.69 5.421-4.056 12.1-5.76 18.804-4.795 5.506.783 9.326 5.91 8.535 11.407-.789 5.482-5.905 9.311-11.406 8.536a5.207 5.207 0 0 0-3.86.984 5.167 5.167 0 0 0-2.036 3.426c-.408 2.842 1.561 5.491 4.412 5.895 2.205.312 5.588-.773 8.63-2.079 5.912-2.539 12.125-3.95 18.542-4.187 6.386-22.074 6.665-45.004 1.013-70.607-1.415-6.41 2.65-12.777 9.06-14.194 3.12-.678 6.305-.113 8.974 1.59a11.833 11.833 0 0 1 5.22 7.47c6.372 28.878 6.233 54.875-.599 79.915 11.986 4.586 21.988 12.212 28.907 19.455.154-.09.31-.177.462-.27 10.29-6.244 17.008-15.965 19.967-28.894 5.593-24.432-6.852-47.01-30.966-56.186a11.818 11.818 0 0 1-6.622-6.253 11.825 11.825 0 0 1-.27-9.107 11.821 11.821 0 0 1 6.252-6.623 11.828 11.828 0 0 1 9.108-.27zM262.14 182.627c5.042-6.45 11.113-10.456 17.256-12.887-8.657-.998-20.575.58-30.304 12.783a6.4 6.4 0 0 1-5.017 2.416 6.412 6.412 0 0 1-5.009-10.408c9.028-11.323 19.514-15.832 28.603-17.273a42.172 42.172 0 0 0-3.737-.714 36.888 36.888 0 0 0-5.179-.373c-9.399 0-18.075 3.786-25.852 11.296-6.708 6.48-9.13 13.861-6.82 20.787 1.865 5.597 6.57 9.79 11.706 10.431 9.825 1.227 14.481-3.429 24.353-16.058z"/></g><g><path fill="none" stroke="#e5007e" stroke-miterlimit="20" stroke-width="4" d="M374.532 36.269L178.323 237.12"/></g></g></svg>