<svg xmlns="http://www.w3.org/2000/svg" width="580" height="460" viewBox="0 0 580 460"><g><g><path fill="#f7f9f9" d="M574.999 455H5.002V5h569.997z"/></g><g><path fill="none" stroke="#7c878e" stroke-miterlimit="20" d="M574.651 230H5.345"/></g><g><path fill="none" stroke="#7c878e" stroke-miterlimit="20" stroke-width=".89" d="M289.998 455V5"/></g><g><path fill="#e8edee" d="M125 230c0-91.127 73.873-165 165-165s165 73.873 165 165-73.873 165-165 165-165-73.873-165-165zM5.002 455h569.997V5H5.002z"/></g><g><path d="M241.97 209.626c.297-.017.595-.038.893-.064h.001a11.844 11.844 0 0 0 10.797-12.835 11.781 11.781 0 0 0-4.18-8.058 11.767 11.767 0 0 0-8.655-2.74 6.134 6.134 0 0 1-6.633-5.581 6.083 6.083 0 0 1 1.418-4.472 6.137 6.137 0 0 1 4.165-2.16c6.514-.58 11.358-6.338 10.798-12.834-.562-6.515-6.31-11.373-12.834-10.8-7.945.685-15.148 4.422-20.28 10.521-5.134 6.102-7.585 13.837-6.9 21.783 1.39 16.099 15.383 28.144 31.41 27.24z"/></g><g><path d="M320.207 147.336a13.92 13.92 0 0 0-10.722.318 13.916 13.916 0 0 0-7.36 7.797 13.92 13.92 0 0 0 .317 10.722 13.923 13.923 0 0 0 7.797 7.363c28.39 10.8 43.042 37.384 36.457 66.148-3.483 15.222-11.393 26.668-23.508 34.019-.18.109-.362.21-.543.318-8.146-8.528-19.922-17.506-34.034-22.906 8.044-29.48 8.207-60.087.704-94.088a13.931 13.931 0 0 0-6.144-8.794c-3.143-2.004-6.894-2.67-10.567-1.871-7.546 1.668-12.331 9.165-10.666 16.71 6.655 30.145 6.327 57.14-1.191 83.13-7.557.277-14.871 1.94-21.831 4.929-3.582 1.538-7.564 2.815-10.161 2.448-3.356-.476-5.675-3.595-5.194-6.94a6.081 6.081 0 0 1 2.396-4.034 6.134 6.134 0 0 1 4.546-1.16c6.476.913 12.499-3.594 13.428-10.048.93-6.473-3.565-12.508-10.05-13.43-7.892-1.136-15.755.869-22.137 5.644-6.384 4.778-10.526 11.756-11.662 19.65-1.634 11.362 3.396 22.17 12.113 28.468a54.608 54.608 0 0 0-3.771 5.404c-6.518 11.059-8.158 23.522-4.27 35.184 4.842 14.524 17.232 25.066 31.565 26.858 2.11.264 4.129.389 6.069.389 20.838-.001 32.17-14.495 42.268-27.411.224-.288.46-.554.694-.827 19.793-.03 38.338-4.765 52.979-13.654 18.58-11.273 31.13-29.163 36.295-51.736 9.838-42.987-11.79-82.611-53.816-98.6z"/></g><g><path fill="#fff" d="M267.065 298.872c-11.623 14.868-17.104 20.35-28.672 18.905-6.047-.756-11.586-5.692-13.783-12.28-2.718-8.155.134-16.846 8.032-24.473 9.155-8.842 19.37-13.299 30.435-13.299 2.005 0 4.037.146 6.097.44 1.484.21 2.951.497 4.4.84-10.7 1.695-23.046 7.003-33.675 20.335a7.549 7.549 0 0 0 11.804 9.41c11.453-14.367 25.486-16.225 35.678-15.05-7.232 2.861-14.38 7.578-20.316 15.172z"/></g></g></svg>