<svg xmlns="http://www.w3.org/2000/svg" width="580" height="410" viewBox="0 0 580 410"><g><g><path fill="#e8edee" d="M574.998 204.987L290 204.883l284.998 199.663z"/></g><g><path fill="#e8edee" d="M5.002 204.78l284.998.103L5.002 5.22z"/></g><g><path fill="none" stroke="#7c878e" stroke-miterlimit="20" d="M574.998 204.987h-570"/></g><g><path fill="none" stroke="#7c878e" stroke-miterlimit="20" d="M574.317 404.07L5.382 5.697"/></g><g><path d="M276.974 160.305c.272.168.548.333.827.495l.001.001c.183.105.364.204.55.3 6.052 3.124 13.47.95 16.886-4.949a12.677 12.677 0 0 0 1.288-9.68 12.658 12.658 0 0 0-5.936-7.757 6.6 6.6 0 0 1-2.403-9.012 6.551 6.551 0 0 1 4.01-3.066 6.604 6.604 0 0 1 5.003.666c6.1 3.508 13.921 1.423 17.436-4.647 3.526-6.089 1.457-13.917-4.646-17.438-7.425-4.299-16.079-5.45-24.366-3.243-8.289 2.21-15.222 7.516-19.523 14.94-8.71 15.046-3.81 34.296 10.873 43.39z"/></g><g><path d="M384.365 153.69c27.171 40.025 21.78 88.292-13.417 120.105-18.482 16.706-40.583 24.728-63.914 23.198-18.389-1.202-37.655-8.472-55.117-20.66-.374.096-.746.185-1.122.3-16.869 5.152-35.8 10.932-54.167-1.926a52.587 52.587 0 0 1-5.107-4.088c-11.526-10.424-15.94-27.36-11.245-43.148 3.77-12.678 12.906-22.649 25.475-28.373a58.809 58.809 0 0 1 6.658-2.436c-3.796-10.93-1.559-23.559 6.892-32.564 5.873-6.256 13.83-9.849 22.403-10.12 8.572-.27 16.74 2.815 22.995 8.686 5.145 4.814 5.383 12.907.568 18.037-4.8 5.115-12.892 5.371-18.035.57a6.603 6.603 0 0 0-4.722-1.784 6.549 6.549 0 0 0-4.6 2.077c-2.489 2.651-2.37 6.832.295 9.321 2.061 1.927 6.36 3.26 10.465 4.113 7.98 1.661 15.451 4.71 22.281 9.128 22.663-18.265 39.611-41.854 52.35-72.527 3.187-7.678 12.03-11.332 19.71-8.146 3.73 1.564 6.626 4.465 8.158 8.171a14.986 14.986 0 0 1-.01 11.542c-14.37 34.595-33.403 61.468-58.683 82.485 9.104 13.467 13.942 28.647 15.86 41.19.224.017.448.04.674.054 15.213.998 29.247-4.208 41.71-15.474 23.553-21.287 27.046-53.755 8.691-80.794a14.975 14.975 0 0 1-2.328-11.3 14.979 14.979 0 0 1 6.336-9.646 14.975 14.975 0 0 1 11.3-2.329 14.98 14.98 0 0 1 9.646 6.337zM244.017 254.443c9.918-3.029 19.128-2.775 27.268-.834-8.258-7.326-21.77-14.347-40.73-8.753a8.102 8.102 0 0 1-6.96-1.14 8.076 8.076 0 0 1-3.127-4.35 8.119 8.119 0 0 1 5.49-10.087c17.594-5.19 31.75-2.25 42.227 2.858a53.38 53.38 0 0 0-3.359-3.456 46.59 46.59 0 0 0-5.103-4.149c-9.752-6.829-21.504-9.204-35.03-7.06-11.666 1.847-19.543 7.747-22.179 16.611-2.13 7.162-.294 14.93 4.568 19.328 9.303 8.412 17.517 6.963 36.935 1.032z"/></g><g><path fill="none" stroke="#7c878e" stroke-miterlimit="20" stroke-width="1.24" d="M290 59.961c51.924 0 97.563 26.908 123.734 67.54"/></g><g><path fill="#7c878e" d="M409.31 127.311l10.01 9.621-3.859-13.339z"/></g><g><path fill="none" stroke="#7c878e" stroke-miterlimit="20" stroke-width="1.24" d="M290 354.106c-53.98 0-101.168-29.081-126.751-72.431"/></g><g><path fill="#7c878e" d="M167.66 282.041l-9.624-10.009 3.33 13.481z"/></g></g></svg>