<svg xmlns="http://www.w3.org/2000/svg" width="570" height="270" viewBox="0 0 570 270"><g><g><path fill="#f7f9f9" d="M570 270H0V0h570z"/></g><g><path d="M300.159 52.475a13.475 13.475 0 0 0-10.377.308 13.472 13.472 0 0 0-7.126 7.547 13.48 13.48 0 0 0 .308 10.377 13.468 13.468 0 0 0 7.547 7.127C317 87.91 330.67 112.709 324.528 139.54c-3.25 14.198-10.622 24.87-21.913 31.72-14.867 9.025-33.011 9.338-42.872 8.652 17.533-37.03 21.226-74.556 11.628-118.046a13.486 13.486 0 0 0-5.946-8.513c-3.042-1.94-6.675-2.582-10.227-1.81-7.305 1.615-11.935 8.87-10.323 16.173 8.229 37.276 5.086 69.37-9.892 100.963a13.491 13.491 0 0 0-8.757-.197c-7.122 2.285-11.058 9.939-8.774 17.064.689 2.144 7.125 21.23 20.83 30.789a13.492 13.492 0 0 0 8.814 2.398 13.53 13.53 0 0 0 10.076-5.764 13.443 13.443 0 0 0 2.27-5.828c21.354 1.272 41.67-3.226 57.247-12.681 17.553-10.652 29.409-27.55 34.288-48.87 9.29-40.596-11.131-78.016-50.818-93.116z"/></g><g><path fill="none" stroke="#e5007e" stroke-miterlimit="20" stroke-width="4" d="M376.477 34.79L180.268 235.641"/></g></g></svg>