<svg xmlns="http://www.w3.org/2000/svg" width="580" height="210" viewBox="0 0 580 210"><g><g><path fill="none" stroke="#7c878e" stroke-miterlimit="20" d="M574.653 104.987H5.347"/></g><g><path d="M240.398 69.298c.32-.018.641-.041.961-.07h.001c.211-.017.416-.04.622-.067 6.751-.913 11.58-6.95 10.995-13.741a12.678 12.678 0 0 0-4.498-8.67 12.658 12.658 0 0 0-9.31-2.947 6.6 6.6 0 0 1-7.138-6.004 6.547 6.547 0 0 1 1.526-4.812 6.604 6.604 0 0 1 4.481-2.324c7.008-.624 12.22-6.818 11.616-13.807-.604-7.01-6.789-12.236-13.807-11.62-8.548.737-16.297 4.758-21.819 11.32-5.523 6.564-8.16 14.887-7.424 23.435 1.495 17.32 16.551 30.28 33.794 29.307z"/></g><g><path d="M324.572 2.281c45.216 17.202 68.485 59.833 57.9 106.081-5.557 24.286-19.06 43.534-39.05 55.662-15.752 9.563-35.704 14.658-56.999 14.69-.25.294-.505.58-.747.89-10.863 13.896-23.055 29.49-45.475 29.491-2.087 0-4.258-.135-6.529-.419-15.42-1.928-28.75-13.27-33.96-28.895-4.183-12.548-2.419-25.956 4.595-37.854a58.623 58.623 0 0 1 4.056-5.814c-9.379-6.777-14.79-18.404-13.032-30.629 1.222-8.492 5.68-15.999 12.547-21.14 6.867-5.137 15.326-7.295 23.818-6.073 6.975.992 11.813 7.485 10.811 14.45-.999 6.943-7.48 11.793-14.446 10.811a6.6 6.6 0 0 0-4.892 1.247 6.548 6.548 0 0 0-2.578 4.34c-.517 3.6 1.978 6.955 5.59 7.466 2.792.396 7.077-.978 10.931-2.633 7.49-3.217 15.357-5.005 23.487-5.304 8.088-27.959 8.441-57.005 1.282-89.436-1.792-8.119 3.356-16.184 11.474-17.979 3.953-.858 7.988-.143 11.37 2.014a14.988 14.988 0 0 1 6.61 9.461c8.073 36.581 7.896 69.511-.758 101.227 15.183 5.81 27.852 15.47 36.616 24.643.196-.115.392-.224.585-.342 13.034-7.908 21.544-20.223 25.291-36.599 7.084-30.947-8.678-59.547-39.222-71.168a14.97 14.97 0 0 1-8.388-7.922 14.977 14.977 0 0 1-.343-11.535 14.967 14.967 0 0 1 7.92-8.388 14.975 14.975 0 0 1 11.536-.343zm-57.175 163.034c6.387-8.17 14.077-13.244 21.858-16.323-10.966-1.264-26.063.735-38.385 16.192a8.106 8.106 0 0 1-6.355 3.06 8.083 8.083 0 0 1-5.055-1.772 8.12 8.12 0 0 1-1.289-11.41c11.434-14.345 24.718-20.056 36.23-21.88a53.242 53.242 0 0 0-4.734-.905 46.598 46.598 0 0 0-6.56-.472c-11.905 0-22.895 4.795-32.745 14.308-8.497 8.206-11.565 17.556-8.64 26.33 2.363 7.088 8.322 12.398 14.828 13.211 12.445 1.556 18.343-4.342 30.847-20.339z"/></g></g></svg>