<svg xmlns="http://www.w3.org/2000/svg" width="580" height="460" viewBox="0 0 580 460"><g><g><path fill="#f7f9f9" d="M575 455H5.003V5H575z"/></g><g><path fill="none" stroke="#7c878e" stroke-miterlimit="20" d="M574.653 230H5.347"/></g><g><path fill="none" stroke="#7c878e" stroke-miterlimit="20" stroke-width=".89" d="M290 455V5"/></g><g><path fill="#f7f9f9" d="M574 454H6.003V6H574zm1-449H5.003v450H575z"/></g><g><path fill="#e8edee" d="M125.002 230c0-91.127 73.873-165 165-165s165 73.873 165 165-73.873 165-165 165-165-73.873-165-165zM5.003 455H575V5H5.003z"/></g><g><path d="M243.897 196.828c.297-.017.595-.038.893-.064h.002c.195-.017.386-.04.578-.063a11.845 11.845 0 0 0 10.218-12.772 11.781 11.781 0 0 0-4.18-8.058 11.767 11.767 0 0 0-8.655-2.74 6.134 6.134 0 0 1-6.633-5.581 6.084 6.084 0 0 1 1.418-4.472 6.137 6.137 0 0 1 4.165-2.16c6.514-.58 11.358-6.338 10.798-12.834-.562-6.515-6.311-11.373-12.834-10.8-7.945.685-15.148 4.422-20.281 10.52-5.133 6.103-7.584 13.838-6.9 21.784 1.39 16.099 15.384 28.144 31.411 27.24z"/></g><g><path d="M322.135 134.538a13.922 13.922 0 0 0-10.723.318 13.92 13.92 0 0 0-7.361 7.797 13.92 13.92 0 0 0 .318 10.722 13.92 13.92 0 0 0 7.797 7.363c28.39 10.8 43.04 37.384 36.457 66.149-3.484 15.22-11.393 26.667-23.508 34.018-.18.109-.363.21-.544.318-8.145-8.528-19.921-17.506-34.034-22.906 8.044-29.48 8.208-60.087.705-94.088a13.932 13.932 0 0 0-6.145-8.794c-3.142-2.004-6.893-2.67-10.566-1.871-7.546 1.668-12.332 9.165-10.666 16.71 6.654 30.145 6.326 57.14-1.192 83.13-7.556.277-14.87 1.94-21.83 4.929-3.582 1.538-7.565 2.815-10.161 2.448-3.356-.475-5.675-3.595-5.194-6.94a6.081 6.081 0 0 1 2.396-4.034 6.132 6.132 0 0 1 4.545-1.16c6.477.914 12.5-3.594 13.429-10.048.93-6.473-3.566-12.508-10.05-13.43-7.892-1.136-15.755.869-22.137 5.645-6.384 4.777-10.526 11.755-11.663 19.649-1.634 11.362 3.396 22.17 12.113 28.468a54.601 54.601 0 0 0-3.77 5.404c-6.52 11.059-8.158 23.522-4.27 35.184 4.842 14.524 17.232 25.066 31.565 26.858 2.11.264 4.129.389 6.068.389 20.839-.001 32.17-14.495 42.268-27.411.225-.288.462-.554.694-.827 19.793-.03 38.339-4.765 52.98-13.654 18.579-11.273 31.13-29.163 36.294-51.736 9.839-42.987-11.788-82.611-53.815-98.6z"/></g><g><path fill="#fff" d="M268.992 286.074c-11.623 14.868-17.104 20.35-28.672 18.905-6.047-.756-11.586-5.691-13.783-12.28-2.718-8.155.134-16.846 8.032-24.473 9.155-8.842 19.37-13.3 30.435-13.3 2.005 0 4.037.147 6.097.44 1.484.21 2.951.498 4.4.84-10.699 1.696-23.046 7.005-33.674 20.337a7.547 7.547 0 0 0 5.896 12.252 7.532 7.532 0 0 0 5.907-2.843c11.454-14.367 25.486-16.225 35.678-15.05-7.232 2.86-14.38 7.578-20.316 15.172z"/></g><g><path fill="none" stroke="#e5007e" stroke-miterlimit="20" stroke-width="4" d="M440.961 76.72L139.042 383.28"/></g></g></svg>