<svg xmlns="http://www.w3.org/2000/svg" width="570" height="271" viewBox="0 0 570 271"><g><g><path fill="#f7f9f9" d="M570 270.216H0v-270h570z"/></g><g><path d="M242.074 99.526c.32-.019.64-.04.961-.069h.001a12.743 12.743 0 0 0 11.617-13.809 12.68 12.68 0 0 0-4.498-8.669 12.663 12.663 0 0 0-9.31-2.949 6.599 6.599 0 0 1-7.138-6.004 6.545 6.545 0 0 1 1.526-4.81 6.598 6.598 0 0 1 4.481-2.325c7.007-.624 12.22-6.819 11.616-13.808-.604-7.009-6.789-12.235-13.807-11.619-8.548.737-16.297 4.758-21.819 11.32-5.523 6.564-8.16 14.887-7.424 23.435 1.495 17.321 16.551 30.28 33.794 29.307z"/></g><g><path d="M326.249 32.51c45.216 17.203 68.484 59.833 57.899 106.08-5.556 24.287-19.06 43.534-39.05 55.664-15.751 9.562-35.703 14.657-57 14.689-.25.293-.503.58-.745.89-10.863 13.896-23.056 29.489-45.475 29.49-2.087 0-4.258-.134-6.53-.418-15.42-1.928-28.75-13.27-33.96-28.896-4.183-12.546-2.418-25.955 4.595-37.854a59.199 59.199 0 0 1 4.056-5.814c-9.378-6.775-14.79-18.403-13.032-30.628 1.223-8.492 5.679-16 12.548-21.14 6.866-5.137 15.325-7.295 23.817-6.073 6.976.992 11.813 7.485 10.81 14.449-.997 6.944-7.478 11.794-14.445 10.812a6.601 6.601 0 0 0-4.891 1.246 6.546 6.546 0 0 0-2.578 4.34c-.517 3.599 1.978 6.955 5.589 7.467 2.793.396 7.078-.98 10.93-2.634 7.49-3.216 15.359-5.005 23.488-5.302 8.089-27.961 8.442-57.006 1.282-89.437-1.792-8.12 3.357-16.184 11.475-17.98 3.952-.857 7.988-.143 11.369 2.014a14.994 14.994 0 0 1 6.61 9.462 267.53 267.53 0 0 1 3.452 18.794c4.945 1.579 11.08 4.095 16.016 6.703 18.763 9.915 22.76 21.1 22.812 28.739.093 14.01-8.554 22.715-18.901 27.82 4.145 3.936 7.783 8.825 9.756 14.775 1.887 5.692 2.762 14.154-2.068 24.357a101.537 101.537 0 0 1 4.792 4.682c.195-.115.392-.224.584-.342 13.034-7.91 21.544-20.223 25.292-36.6 7.084-30.946-8.68-59.546-39.223-71.168a14.971 14.971 0 0 1-8.388-7.921 14.977 14.977 0 0 1-.342-11.535 14.973 14.973 0 0 1 7.919-8.39 14.977 14.977 0 0 1 11.537-.341zM315.29 97.306c-.028-4.245-8.56-9.675-16.64-13.372a200.23 200.23 0 0 1-.428 26.234c7.29-1.501 17.12-4.985 17.068-12.862zm-46.217 98.238c6.386-8.17 14.077-13.245 21.857-16.323-10.965-1.264-26.062.734-38.384 16.192a8.11 8.11 0 0 1-6.355 3.059 8.12 8.12 0 0 1-6.344-13.183c11.434-14.343 24.717-20.055 36.229-21.88a53.626 53.626 0 0 0-4.734-.903 46.573 46.573 0 0 0-6.56-.472c-11.905 0-22.894 4.795-32.745 14.308-8.496 8.205-11.565 17.557-8.64 26.33 2.364 7.088 8.323 12.398 14.828 13.21 12.446 1.556 18.343-4.342 30.848-20.338zm25.649-61.622a187.745 187.745 0 0 1-2.47 10.24c5.389 2.063 10.454 4.616 15.147 7.454.625-2.92.036-4.73-.238-5.554-1.71-5.156-7.496-9.4-12.44-12.14z"/></g><g><path d="M204.978 86.083c-.12-.182-12.106-18.501-11.643-44.479.1-5.521-4.298-10.078-9.82-10.176-5.507-.071-10.077 4.299-10.176 9.82-.58 32.56 14.422 55.079 15.06 56.021a9.952 9.952 0 0 0 8.263 4.378 9.973 9.973 0 0 0 5.579-1.705c4.57-3.069 5.788-9.275 2.738-13.859z"/></g><g><path fill="none" stroke="#e5007e" stroke-miterlimit="20" stroke-width="4" d="M374.532 34.79L178.323 235.641"/></g></g></svg>