<svg xmlns="http://www.w3.org/2000/svg" width="570" height="270" viewBox="0 0 570 270"><g><g><path fill="#f7f9f9" d="M570 270H0V0h570z"/></g><g><path d="M322.147 99.31c-.32-.017-.64-.04-.96-.068h-.002a12.745 12.745 0 0 1-11.617-13.809 12.676 12.676 0 0 1 4.498-8.67 12.658 12.658 0 0 1 9.311-2.947 6.6 6.6 0 0 0 7.137-6.004A6.547 6.547 0 0 0 328.988 63a6.6 6.6 0 0 0-4.48-2.324c-7.009-.624-12.22-6.818-11.617-13.807.604-7.01 6.79-12.236 13.807-11.62 8.548.737 16.297 4.758 21.82 11.32 5.523 6.564 8.16 14.887 7.424 23.435-1.496 17.32-16.552 30.28-33.795 29.307z"/></g><g><path d="M180.074 138.375c-10.585-46.248 12.683-88.879 57.899-106.08a14.977 14.977 0 0 1 11.537.341 14.973 14.973 0 0 1 7.919 8.39 14.977 14.977 0 0 1-.342 11.534 14.976 14.976 0 0 1-8.388 7.922c-30.545 11.621-46.307 40.221-39.223 71.168 3.748 16.376 12.257 28.69 25.292 36.6.192.117.389.226.584.341 8.764-9.175 21.433-18.834 36.616-24.644-8.654-31.715-8.83-64.646-.758-101.227a14.988 14.988 0 0 1 6.611-9.46c3.381-2.157 7.417-2.873 11.369-2.014 8.118 1.795 13.267 9.86 11.474 17.98-7.159 32.43-6.806 61.475 1.283 89.435 8.129.3 15.998 2.087 23.487 5.303 3.853 1.655 8.138 3.03 10.931 2.634 3.611-.51 6.106-3.868 5.589-7.467a6.542 6.542 0 0 0-2.578-4.339 6.593 6.593 0 0 0-4.891-1.247c-6.967.981-13.448-3.869-14.446-10.812-1.003-6.964 3.835-13.457 10.81-14.449 8.492-1.222 16.952.935 23.818 6.073 6.869 5.14 11.325 12.648 12.548 21.14 1.758 12.225-3.654 23.852-13.033 30.628a58.932 58.932 0 0 1 4.057 5.815c7.013 11.898 8.778 25.306 4.594 37.854-5.209 15.625-18.54 26.967-33.96 28.895a52.735 52.735 0 0 1-6.529.418c-22.42 0-34.612-15.594-45.475-29.49-.242-.31-.496-.596-.747-.89-21.295-.033-41.247-5.127-56.999-14.69-19.989-12.129-33.493-31.376-39.049-55.662zm93.216 40.63c7.781 3.078 15.471 8.153 21.858 16.323 12.505 15.996 18.402 21.894 30.847 20.34 6.506-.814 12.465-6.124 14.829-13.213 2.924-8.773-.144-18.123-8.64-26.329-9.851-9.513-20.84-14.308-32.746-14.308a46.57 46.57 0 0 0-6.559.472 53.196 53.196 0 0 0-4.734.904c11.512 1.825 24.795 7.536 36.229 21.88a8.119 8.119 0 0 1-1.287 11.41 8.082 8.082 0 0 1-5.057 1.771 8.107 8.107 0 0 1-6.355-3.058c-12.323-15.458-27.419-17.457-38.385-16.192z"/></g><g><path fill="none" stroke="#e5007e" stroke-miterlimit="20" stroke-width="4" d="M383.104 34.574L186.895 235.426"/></g></g></svg>