<svg xmlns="http://www.w3.org/2000/svg" width="374" height="210" viewBox="0 0 374 210"><g><g><path fill="#00af3f" d="M.389 209.78h372.944V0H.389z"/></g><g><g><text dominant-baseline="text-before-edge" transform="translate(318 195)"><tspan fill="#00af45" font-family="'Gotham Rounded Book','GothamRounded-Book'" font-size="3.89">Dedoles, Máj 2020</tspan></text></g></g><g><path fill="#f9e300" d="M288.889 215.185c6.235-6.664 9.759-15.327 10.19-25.051a14.191 14.191 0 0 0-.702-5.1 14.176 14.176 0 0 0-3.57-5.715 14.203 14.203 0 0 0-.492-6.987v-.001a14.387 14.387 0 0 0-1.267-2.79l-.01-.015-.008-.015a14.156 14.156 0 0 0-3.224-3.743 13.476 13.476 0 0 0-1.09-5.914A19.44 19.44 0 0 0 278 149.404a19.452 19.452 0 0 0-14.984.185 19.537 19.537 0 0 0-6.234 4.262 19.433 19.433 0 0 0-12.264-1.803 19.526 19.526 0 0 0-10.725 5.747c-5.43-.214-10.621 1.36-14.961 4.598-7.055 5.263-10.55 14.06-8.902 22.409.212 1.074.487 2.126.817 3.127 2.936 8.883 9.72 12.866 15.263 15.16 2.694 6.146 6.494 11.398 11.142 15.362 7.573 6.46 17.069 9.357 27.46 8.376 9.607-.908 18.002-4.933 24.278-11.642z"/></g><g><path fill="#fff" d="M235.475 188.727c-5.985-2.146-8.318-3.32-9.078-7.174-.398-2.014.596-4.307 2.47-5.707 2.323-1.73 5.404-1.738 8.679-.017 3.796 1.994 6.302 4.79 7.47 8.33.213.642.382 1.308.506 1.998.089.497.152.997.196 1.497-1.674-3.244-4.677-6.633-10.065-8.623a2.542 2.542 0 1 0-1.763 4.77c5.807 2.145 7.885 6.438 8.586 9.823a16.062 16.062 0 0 0-7.001-4.896z"/></g><g><path fill="#e5352b" d="M261.373 171.266c.037.094.075.187.115.279a3.988 3.988 0 0 0 5.247 2.097 3.964 3.964 0 0 0 2.136-2.188 3.964 3.964 0 0 0-.038-3.058 2.067 2.067 0 0 1 2.665-2.732c.506.203.918.605 1.13 1.105.875 2.022 3.229 2.964 5.248 2.098a3.996 3.996 0 0 0 2.098-5.247 9.993 9.993 0 0 0-5.51-5.376 9.99 9.99 0 0 0-7.697.095c-5.003 2.146-7.377 7.896-5.394 12.927z"/></g><g><path fill="#e5352b" d="M289.569 189.71c-.672 15.135-11.062 26.242-25.854 27.638-7.767.733-14.817-1.39-20.387-6.142-4.391-3.744-7.866-9.175-9.968-15.504-.112-.046-.222-.093-.338-.135-5.2-1.865-11.033-3.958-13.236-10.624a16.328 16.328 0 0 1-.517-1.983c-.942-4.774 1.12-9.852 5.255-12.936 3.32-2.478 7.48-3.27 11.707-2.354.739.17 1.452.39 2.127.635 1.094-3.455 4.019-6.206 7.827-6.885a10 10 0 0 1 7.519 1.656 9.998 9.998 0 0 1 4.146 6.485 3.997 3.997 0 0 1-3.235 4.634c-2.162.386-4.241-1.066-4.634-3.234a2.069 2.069 0 0 0-.851-1.333 2.064 2.064 0 0 0-3.215 2.056c.157.87.987 2.009 1.857 2.992a20.43 20.43 0 0 1 3.884 6.463c9.109-.342 17.78-3.091 26.72-8.405a4.729 4.729 0 0 1 6.473 1.645 4.713 4.713 0 0 1 .518 3.578 4.696 4.696 0 0 1-2.163 2.896c-10.084 5.994-19.893 9.177-30.174 9.72-.236 5.085-1.863 9.8-3.73 13.308.053.047.105.094.159.14 3.632 3.099 8.13 4.42 13.367 3.925 9.898-.934 16.853-8.431 17.308-18.655a4.69 4.69 0 0 1 1.53-3.272 4.69 4.69 0 0 1 3.398-1.235 4.685 4.685 0 0 1 3.272 1.53 4.692 4.692 0 0 1 1.235 3.397zm-54.094-.983a16.062 16.062 0 0 1 7 4.896c-.7-3.385-2.778-7.678-8.585-9.823a2.542 2.542 0 0 1-1.504-3.266 2.542 2.542 0 0 1 3.267-1.504c5.388 1.99 8.39 5.38 10.065 8.623-.044-.5-.107-1-.196-1.497a14.549 14.549 0 0 0-.505-1.997c-1.17-3.54-3.675-6.336-7.471-8.33-3.275-1.72-6.356-1.714-8.678.017-1.875 1.4-2.87 3.693-2.471 5.707.76 3.854 3.093 5.028 9.078 7.174z"/></g><g><path fill="#f9e300" d="M389.589 209.016c7.723-4.862 13.332-12.346 16.22-21.641.517-1.661.724-3.381.616-5.111a14.135 14.135 0 0 0-1.613-5.744 14.576 14.576 0 0 0-.387-.692c1-2.15 1.447-4.507 1.299-6.881a14.459 14.459 0 0 0-.517-3.022l-.005-.016-.005-.017a14.16 14.16 0 0 0-2.167-4.44 13.482 13.482 0 0 0 .449-5.996 19.445 19.445 0 0 0-7.711-12.83 19.462 19.462 0 0 0-14.54-3.628 19.542 19.542 0 0 0-7.112 2.539 19.437 19.437 0 0 0-11.404-4.86 19.53 19.53 0 0 0-11.833 2.834c-5.196-1.586-10.62-1.382-15.638.648-8.161 3.297-13.775 10.918-14.303 19.412a26.212 26.212 0 0 0-.004 3.232c.583 9.337 6.133 14.912 10.91 18.54 1.046 6.628 3.386 12.673 6.875 17.688 5.683 8.173 14.132 13.386 24.43 15.077 9.523 1.563 18.666-.197 26.44-5.092z"/></g><g><path fill="#fff" d="M344.649 169.862c-5.243-3.596-7.202-5.324-6.958-9.244.127-2.05 1.67-4.016 3.84-4.893 2.685-1.085 5.668-.307 8.398 2.188 3.165 2.893 4.878 6.234 5.11 9.956.042.674.035 1.36-.02 2.058a16.98 16.98 0 0 1-.19 1.498c-.795-3.562-2.84-7.603-7.545-10.897a2.542 2.542 0 1 0-2.916 4.166c5.07 3.551 5.99 8.23 5.809 11.682a16.058 16.058 0 0 0-5.528-6.514z"/></g><g><path fill="#0081b4" d="M396.719 184.555c-4.496 14.467-17.366 22.571-32.027 20.163-7.7-1.263-13.978-5.108-18.158-11.12-3.296-4.736-5.277-10.873-5.702-17.528-.097-.072-.191-.146-.293-.216-4.555-3.125-9.666-6.632-10.103-13.638a16.304 16.304 0 0 1 .004-2.049c.302-4.858 3.586-9.244 8.369-11.177 3.84-1.553 8.065-1.262 11.92.698.672.353 1.306.746 1.897 1.154 1.935-3.063 5.463-4.98 9.318-4.669a9.986 9.986 0 0 1 6.852 3.51 9.994 9.994 0 0 1 2.363 7.325 3.999 3.999 0 0 1-4.306 3.661c-2.19-.177-3.832-2.109-3.661-4.305a2.068 2.068 0 0 0-1.891-2.226 2.065 2.065 0 0 0-2.225 1.893c-.07.88.444 2.192 1.036 3.365a20.4 20.4 0 0 1 2.115 7.237c8.897 1.984 17.982 1.528 27.978-1.34a4.729 4.729 0 0 1 5.843 3.234 4.713 4.713 0 0 1-.407 3.593 4.7 4.7 0 0 1-2.83 2.251c-11.275 3.235-21.57 3.822-31.652 1.735-1.52 4.86-4.291 9.006-6.988 11.924.04.06.077.118.118.177 2.726 3.92 6.74 6.34 11.932 7.191 9.81 1.611 18.442-3.873 21.479-13.645a4.69 4.69 0 0 1 2.312-2.777 4.69 4.69 0 0 1 3.599-.332 4.691 4.691 0 0 1 2.776 2.312 4.69 4.69 0 0 1 .332 3.6zm-52.07-14.693a16.058 16.058 0 0 1 5.528 6.514c.18-3.452-.738-8.13-5.81-11.682a2.54 2.54 0 0 1-.624-3.54 2.542 2.542 0 0 1 3.54-.626c4.707 3.294 6.75 7.335 7.546 10.897.084-.495.15-.994.19-1.498.055-.698.062-1.384.02-2.058-.232-3.722-1.945-7.063-5.11-9.956-2.73-2.495-5.713-3.273-8.398-2.188-2.17.877-3.713 2.843-3.84 4.893-.244 3.92 1.715 5.648 6.958 9.244z"/></g><g><path fill="#f9e300" d="M329.832 248.61c6.666-6.233 10.76-14.642 11.84-24.315a14.182 14.182 0 0 0-.36-5.135 14.157 14.157 0 0 0-3.18-5.942c.576-2.3.569-4.7-.024-7.004a14.373 14.373 0 0 0-1.08-2.869l-.007-.015-.008-.015a14.193 14.193 0 0 0-2.966-3.95 13.475 13.475 0 0 0-.692-5.974 19.44 19.44 0 0 0-9.996-11.142 19.455 19.455 0 0 0-14.963-.817 19.553 19.553 0 0 0-6.505 3.836 19.432 19.432 0 0 0-12.116-2.617 19.532 19.532 0 0 0-11.085 5.018c-5.402-.577-10.688.648-15.234 3.588-7.391 4.781-11.465 13.324-10.38 21.766.14 1.085.345 2.153.608 3.174 2.336 9.06 8.839 13.486 14.216 16.145 2.278 6.312 5.718 11.806 10.09 16.071 7.127 6.953 16.408 10.477 26.84 10.191 9.647-.264 18.292-3.72 25.002-9.994z"/></g><g><path fill="#fff" d="M278.303 218.645c-5.828-2.54-8.078-3.869-8.579-7.765-.262-2.035.882-4.256 2.847-5.528 2.432-1.572 5.507-1.373 8.66.563 3.655 2.243 5.968 5.2 6.898 8.81.17.654.292 1.33.37 2.026.056.502.085 1.005.096 1.506-1.453-3.347-4.224-6.93-9.467-9.275a2.543 2.543 0 1 0-2.076 4.642c5.65 2.528 7.437 6.95 7.91 10.375a16.04 16.04 0 0 0-6.658-5.353z"/></g><g><path fill="#00af3f" d="M305.31 202.952a9.594 9.594 0 0 0 .164.47 3.991 3.991 0 0 0 5.027 2.26 3.972 3.972 0 0 0 2.277-2.043 3.962 3.962 0 0 0 .166-3.053 2.065 2.065 0 0 1 3.896-1.37c.737 2.077 3.023 3.173 5.095 2.443a3.996 3.996 0 0 0 2.444-5.095 9.989 9.989 0 0 0-5.138-5.73 9.994 9.994 0 0 0-7.687-.42c-5.135 1.807-7.888 7.386-6.245 12.538z"/></g><g><path fill="#00af3f" d="M332.212 223.238c-1.682 15.055-12.79 25.444-27.642 25.85-7.8.213-14.691-2.377-19.932-7.49-4.131-4.029-7.235-9.682-8.91-16.137-.109-.052-.216-.107-.329-.156-5.063-2.208-10.744-4.686-12.498-11.484a16.413 16.413 0 0 1-.383-2.013c-.62-4.827 1.777-9.756 6.108-12.558 3.478-2.249 7.682-2.76 11.838-1.565.726.22 1.423.486 2.08.775 1.322-3.373 4.425-5.923 8.27-6.345a9.989 9.989 0 0 1 7.39 2.151 9.993 9.993 0 0 1 3.704 6.748 3.995 3.995 0 0 1-3.536 4.408c-2.184.241-4.161-1.346-4.408-3.536a2.064 2.064 0 1 0-4.105.45c.098.878.85 2.071 1.653 3.11a20.414 20.414 0 0 1 3.444 6.708c9.11.266 17.946-1.897 27.22-6.603a4.73 4.73 0 0 1 6.35 2.073 4.718 4.718 0 0 1 .278 3.606 4.695 4.695 0 0 1-2.352 2.744c-10.462 5.308-20.461 7.828-30.755 7.684-.575 5.057-2.514 9.655-4.611 13.03.05.05.099.101.15.15 3.417 3.334 7.816 4.952 13.075 4.808 9.938-.27 17.378-7.286 18.515-17.457a4.686 4.686 0 0 1 1.746-3.163 4.688 4.688 0 0 1 3.47-1.005 4.685 4.685 0 0 1 3.164 1.745 4.69 4.69 0 0 1 1.006 3.472zm-53.909-4.593a16.04 16.04 0 0 1 6.658 5.353c-.473-3.424-2.26-7.846-7.91-10.374a2.54 2.54 0 0 1-1.283-3.36 2.543 2.543 0 0 1 3.36-1.282c5.243 2.346 8.014 5.928 9.467 9.275a16.935 16.935 0 0 0-.096-1.506 14.583 14.583 0 0 0-.37-2.026c-.93-3.61-3.243-6.567-6.898-8.81-3.153-1.936-6.228-2.135-8.66-.563-1.965 1.272-3.109 3.493-2.847 5.529.501 3.896 2.751 5.224 8.58 7.765z"/></g><g><path fill="#f9e300" d="M311.15 89.559c.154-9.125-3.043-17.913-9.246-25.415a14.17 14.17 0 0 0-3.942-3.311 14.165 14.165 0 0 0-6.481-1.844 14.216 14.216 0 0 0-5.051-4.852 14.443 14.443 0 0 0-2.812-1.22l-.017-.004-.016-.005a14.181 14.181 0 0 0-4.903-.614 13.46 13.46 0 0 0-4.774-3.656 19.438 19.438 0 0 0-14.958-.56 19.45 19.45 0 0 0-10.99 10.188 19.53 19.53 0 0 0-1.765 7.343 19.434 19.434 0 0 0-10.304 6.889 19.533 19.533 0 0 0-4.1 11.457c-4.17 3.482-6.964 8.133-8.011 13.445-1.702 8.637 1.607 17.504 8.43 22.592.878.655 1.787 1.25 2.704 1.77 8.136 4.619 15.839 3.023 21.489 1.006 6.12 2.75 12.46 4.097 18.567 3.918 9.95-.288 18.937-4.51 25.984-12.207 6.517-7.117 10.043-15.734 10.197-24.92z"/></g><g><path fill="#fff" d="M253.794 105.77c-5.878 2.422-8.396 3.116-11.545.77-1.646-1.229-2.448-3.596-1.995-5.892.56-2.842 2.84-4.914 6.424-5.834 4.153-1.068 7.887-.675 11.129 1.166.587.334 1.159.715 1.713 1.143.4.31.782.637 1.15.978-3.417-1.283-7.918-1.78-13.25.356a2.543 2.543 0 1 0 1.894 4.721c5.745-2.305 10.166-.514 12.956 1.526a16.054 16.054 0 0 0-8.476 1.065z"/></g><g><path fill="#ef9020" d="M261.288 75.447c.09.045.18.088.272.13a3.991 3.991 0 0 0 5.298-1.964c.447-.97.488-2.056.117-3.057a3.962 3.962 0 0 0-2.08-2.242 2.066 2.066 0 0 1 1.724-3.753c2.005.913 4.382.032 5.298-1.964a3.995 3.995 0 0 0-1.963-5.298 9.99 9.99 0 0 0-7.692-.292 9.995 9.995 0 0 0-5.645 5.234c-2.271 4.948-.175 10.805 4.67 13.206z"/></g><g><path fill="#ef9020" d="M294.572 70.213c9.654 11.676 9.399 26.883-.635 37.84-5.268 5.755-11.921 8.908-19.24 9.12-5.768.169-11.99-1.53-17.793-4.812-.114.04-.228.08-.341.127-5.107 2.104-10.84 4.465-16.944.999a16.553 16.553 0 0 1-1.713-1.123c-3.902-2.91-5.778-8.06-4.78-13.12.8-4.065 3.354-7.444 7.104-9.599a18.312 18.312 0 0 1 2.003-.955c-1.506-3.297-1.182-7.3 1.187-10.357a9.992 9.992 0 0 1 6.686-3.816 9.995 9.995 0 0 1 7.425 2.029 3.998 3.998 0 0 1 .71 5.606 4.009 4.009 0 0 1-5.606.71 2.07 2.07 0 0 0-1.525-.416 2.063 2.063 0 0 0-1.005 3.68c.699.54 2.078.829 3.384.974a20.42 20.42 0 0 1 7.215 2.188c6.526-6.364 11.113-14.22 14.178-24.158a4.73 4.73 0 0 1 5.905-3.122 4.722 4.722 0 0 1 2.785 2.307 4.693 4.693 0 0 1 .337 3.599c-3.458 11.21-8.597 20.149-15.858 27.448 3.236 3.929 5.193 8.519 6.16 12.373l.213-.003c4.772-.14 8.994-2.176 12.546-6.057 6.714-7.332 6.844-17.556.323-25.444a4.688 4.688 0 0 1-1.06-3.454 4.69 4.69 0 0 1 1.69-3.195 4.69 4.69 0 0 1 3.455-1.06 4.687 4.687 0 0 1 3.194 1.69zm-40.778 35.556a16.054 16.054 0 0 1 8.476-1.065c-2.79-2.04-7.211-3.83-12.956-1.525a2.539 2.539 0 0 1-3.307-1.415 2.543 2.543 0 0 1 1.414-3.306c5.33-2.138 9.832-1.64 13.249-.357a16.85 16.85 0 0 0-1.15-.977 14.664 14.664 0 0 0-1.713-1.143c-3.242-1.841-6.976-2.234-11.13-1.166-3.582.92-5.863 2.992-6.423 5.834-.453 2.296.349 4.663 1.995 5.89 3.149 2.348 5.667 1.654 11.545-.77z"/></g><g><path fill="#f9e300" d="M344.769 119.586c9.125-.174 17.793-3.684 25.068-10.15a14.208 14.208 0 0 0 4.779-10.602 14.199 14.199 0 0 0 4.668-5.221v-.001c.472-.904.848-1.864 1.118-2.853l.004-.017.005-.016c.444-1.65.577-3.311.438-4.921a13.498 13.498 0 0 0 3.482-4.903 19.438 19.438 0 0 0 .025-14.968 19.458 19.458 0 0 0-10.575-10.618 19.541 19.541 0 0 0-7.401-1.501 19.428 19.428 0 0 0-7.255-10.051 19.52 19.52 0 0 0-11.595-3.688c-3.63-4.042-8.378-6.668-13.723-7.524-8.692-1.392-17.435 2.232-22.276 9.232a26.19 26.19 0 0 0-1.673 2.766c-4.324 8.296-2.453 15.937-.235 21.512-2.53 6.213-3.65 12.599-3.252 18.695.644 9.933 5.185 18.763 13.129 25.53 7.346 6.258 16.084 9.474 25.269 9.299z"/></g><g><path fill="#fff" d="M326.519 62.84c-2.631-5.787-3.415-8.278-1.182-11.51 1.168-1.688 3.505-2.574 5.816-2.204 2.859.458 5.012 2.664 6.06 6.21 1.215 4.113.956 7.859-.768 11.165a14.399 14.399 0 0 1-1.081 1.753c-.294.41-.608.805-.936 1.184 1.16-3.46 1.497-7.976-.83-13.228a2.544 2.544 0 0 0-4.65 2.06c2.508 5.66.878 10.14-1.061 13.004a16.051 16.051 0 0 0-1.368-8.433z"/></g><g><path fill="#f47b7b" d="M357.09 69.245c-.041.091-.081.184-.12.276v.001a3.99 3.99 0 0 0 2.153 5.225c.985.41 2.07.412 3.058.006a3.964 3.964 0 0 0 2.167-2.158 2.066 2.066 0 0 1 3.812 1.587c-.841 2.038.124 4.381 2.152 5.225a3.996 3.996 0 0 0 5.226-2.15 9.998 9.998 0 0 0 .015-7.699 9.994 9.994 0 0 0-5.432-5.454c-5.027-2.092-10.804.212-13.031 5.141z"/></g><g><path fill="#f47b7b" d="M363.512 102.32c-11.323 10.066-26.53 10.355-37.838.72-5.94-5.058-9.33-11.595-9.803-18.901-.375-5.76 1.099-12.037 4.173-17.954-.045-.113-.088-.225-.14-.337-2.285-5.028-4.85-10.671-1.604-16.897a16.54 16.54 0 0 1 1.06-1.753c2.769-4.003 7.848-6.061 12.94-5.246 4.09.655 7.559 3.086 9.848 6.756.392.65.732 1.314 1.027 1.969 3.239-1.624 7.25-1.443 10.39.815a9.99 9.99 0 0 1 4.055 6.544 9.993 9.993 0 0 1-1.762 7.493 3.997 3.997 0 0 1-5.577.91c-1.784-1.282-2.192-3.784-.911-5.577a2.066 2.066 0 0 0-.47-2.882 2.065 2.065 0 0 0-2.882.47c-.515.719-.753 2.108-.852 3.417a20.428 20.428 0 0 1-1.928 7.29c6.593 6.294 14.607 10.597 24.649 13.305a4.73 4.73 0 0 1 3.33 5.789 4.713 4.713 0 0 1-2.204 2.865 4.692 4.692 0 0 1-3.584.466c-11.326-3.054-20.445-7.871-28-14.866-3.81 3.375-8.326 5.495-12.143 6.6l.01.212c.31 4.764 2.497 8.91 6.502 12.322 7.567 6.447 17.79 6.21 25.44-.588a4.69 4.69 0 0 1 3.414-1.183 4.693 4.693 0 0 1 3.253 1.575 4.69 4.69 0 0 1 1.183 3.414 4.69 4.69 0 0 1-1.576 3.252zm-36.993-39.48a16.051 16.051 0 0 1 1.368 8.434c1.939-2.863 3.569-7.343 1.06-13.003a2.537 2.537 0 0 1 .072-2.207 2.544 2.544 0 0 1 4.579.146c2.327 5.252 1.99 9.768.83 13.228.328-.38.642-.774.936-1.184.409-.57.769-1.154 1.08-1.753 1.725-3.306 1.984-7.052.769-11.164-1.048-3.547-3.201-5.753-6.06-6.211-2.311-.37-4.648.516-5.816 2.205-2.233 3.23-1.45 5.722 1.182 11.51z"/></g><g><path fill="#f9e300" d="M347.27 142.695c1.951-8.915.551-18.16-4.048-26.74a14.196 14.196 0 0 0-3.212-4.024 14.139 14.139 0 0 0-5.99-3.087 14.19 14.19 0 0 0-3.994-5.753 14.34 14.34 0 0 0-2.516-1.75l-.015-.009-.015-.008a14.155 14.155 0 0 0-4.685-1.569 13.464 13.464 0 0 0-3.959-4.526 19.443 19.443 0 0 0-14.553-3.502 19.45 19.45 0 0 0-12.784 7.82 19.537 19.537 0 0 0-3.179 6.85 19.423 19.423 0 0 0-11.462 4.72 19.52 19.52 0 0 0-6.28 10.421c-4.775 2.591-8.433 6.6-10.507 11.6-3.374 8.13-1.88 17.476 3.804 23.811a26.137 26.137 0 0 0 2.301 2.268c7.065 6.134 14.931 6.09 20.868 5.228 5.457 3.903 11.408 6.476 17.429 7.506 9.812 1.681 19.454-.684 27.882-6.839 7.793-5.69 12.951-13.442 14.915-22.417z"/></g><g><path fill="#fff" d="M287.838 147.263c-6.241 1.215-8.846 1.398-11.47-1.524-1.371-1.53-1.69-4.007-.793-6.17 1.11-2.674 3.755-4.255 7.449-4.451 4.282-.226 7.865.897 10.68 3.34.51.444.995.93 1.454 1.459.33.382.64.779.934 1.186-3.097-1.932-7.41-3.31-13.06-2.266a2.543 2.543 0 0 0 .925 5.002c6.088-1.125 10.068 1.502 12.4 4.053a16.057 16.057 0 0 0-8.52-.63z"/></g><g><path fill="#00af3f" d="M301.169 119.017c.079.062.16.122.24.18h.002a3.991 3.991 0 0 0 5.582-.88 3.969 3.969 0 0 0 .716-2.972 3.962 3.962 0 0 0-1.596-2.61 2.066 2.066 0 0 1 2.43-3.338 4.008 4.008 0 0 0 5.583-.88 3.998 3.998 0 0 0-.88-5.582 10.003 10.003 0 0 0-7.483-1.804 9.996 9.996 0 0 0-6.567 4.018c-3.203 4.402-2.304 10.557 1.973 13.868z"/></g><g><path fill="#00af3f" d="M334.832 120.454c7.159 13.352 3.908 28.209-8.091 36.97-6.301 4.602-13.445 6.38-20.662 5.144-5.688-.973-11.452-3.866-16.493-8.23-.12.018-.24.033-.36.057-5.422 1.056-11.506 2.238-16.807-2.364a16.566 16.566 0 0 1-1.458-1.44c-3.25-3.622-4.073-9.041-2.097-13.806 1.587-3.825 4.758-6.632 8.859-8.006a18.287 18.287 0 0 1 2.153-.542c-.826-3.528.282-7.388 3.207-9.917a9.993 9.993 0 0 1 7.307-2.423 9.991 9.991 0 0 1 6.879 3.455 3.996 3.996 0 0 1-.41 5.636 4.009 4.009 0 0 1-5.636-.41 2.07 2.07 0 0 0-1.413-.71 2.064 2.064 0 0 0-1.712 3.411c.579.667 1.875 1.22 3.125 1.62a20.424 20.424 0 0 1 6.643 3.57c7.653-4.95 13.7-11.745 18.667-20.884a4.728 4.728 0 0 1 6.404-1.894 4.709 4.709 0 0 1 2.275 2.809 4.697 4.697 0 0 1-.38 3.595c-5.602 10.307-12.405 18.057-20.963 23.779 2.397 4.492 3.409 9.376 3.597 13.345.07.013.139.027.209.039 4.705.807 9.246-.357 13.495-3.461 8.029-5.862 10.174-15.861 5.338-24.88a4.684 4.684 0 0 1-.356-3.595 4.687 4.687 0 0 1 2.287-2.798 4.694 4.694 0 0 1 3.595-.358 4.692 4.692 0 0 1 2.798 2.288zm-46.994 26.809a16.057 16.057 0 0 1 8.52.629c-2.333-2.551-6.313-5.178-12.401-4.053a2.538 2.538 0 0 1-2.13-.582 2.543 2.543 0 0 1 1.206-4.42c5.649-1.043 9.962.334 13.059 2.266a16.77 16.77 0 0 0-.934-1.186 14.611 14.611 0 0 0-1.454-1.458c-2.815-2.444-6.398-3.567-10.68-3.341-3.694.196-6.34 1.777-7.45 4.452-.896 2.162-.577 4.64.794 6.169 2.624 2.922 5.229 2.739 11.47 1.524z"/></g><g><path fill="#f9e300" d="M102.737 182.763c-.1-1.248-.626-2.118-1.301-2.73.263-.216.489-.482.665-.791a2.803 2.803 0 0 0 .252-2.2 2.858 2.858 0 0 0-1.42-1.713 9.151 9.151 0 0 0-.69-.326 7.115 7.115 0 0 0-2.665-.495c-.297 0-.602.017-.906.05-.788.085-2.766.447-4.085 1.98a4.743 4.743 0 0 0-.336.447 5.367 5.367 0 0 0-1.856-1.676c-.914-.508-1.991-.776-3.116-.776a6.757 6.757 0 0 0-3.244.812c-1.09.599-1.96 1.386-2.588 2.322.213-2.91.557-5.412.562-5.453a2.987 2.987 0 0 0-2.957-3.395 2.995 2.995 0 0 0-2.954 2.57 95.987 95.987 0 0 0-.58 5.445 5.979 5.979 0 0 0-4.806-2.395c-1.414 0-2.79.484-3.98 1.402a7.41 7.41 0 0 0-1.41 1.44c.188-2.106.423-3.661.427-3.691a2.939 2.939 0 0 0-2.903-3.381 2.918 2.918 0 0 0-2.9 2.49c-.017.119-.136.902-.272 2.086a5.997 5.997 0 0 0-1.232-.13c-1.471 0-2.877.538-4.067 1.556-.456.39-.86.84-1.205 1.333-.48-.936-1.22-1.697-2.188-2.235-.914-.508-1.991-.776-3.116-.776a6.76 6.76 0 0 0-3.244.812 7.427 7.427 0 0 0-2.231 1.843 10.932 10.932 0 0 0-1.266-3.993c-1.32-2.417-3.483-4.252-6.258-5.308a3.023 3.023 0 0 0-2.321.068 3.04 3.04 0 0 0-1.11.847 3.033 3.033 0 0 0-4.86.123 2.765 2.765 0 0 0-2.181-.793 4.899 4.899 0 0 0-3.347 1.737 4.901 4.901 0 0 0-1.14 3.598 4.923 4.923 0 0 0 1.583 3.198 4.9 4.9 0 0 0-2.828 3.779 4.914 4.914 0 0 0 1.04 3.793c-.878 1.622-1.055 3.422-.497 5.095.744 2.232 2.666 3.854 4.897 4.132.303.038.604.058.895.058 2.896-.001 4.58-1.851 5.808-3.395 2.385-.1 4.579-.723 6.38-1.817a10.544 10.544 0 0 0 4.007-4.353c.242.713.6 1.385 1.062 1.956.767.948 2.167 2.135 4.485 2.412a7.752 7.752 0 0 0 1.275.048c1.359-.052 2.615-.387 3.632-.968a2.814 2.814 0 0 0 1.322-1.753c.036.05.07.104.107.155.965 1.318 2.37 2.154 3.958 2.352a6.009 6.009 0 0 0 3.556-.663c.306.346.66.652 1.056.907a2.936 2.936 0 0 0 4.336-1.432 5.94 5.94 0 0 0 2.929 1.412c.346.06.699.09 1.05.09 1.415 0 2.79-.483 3.98-1.401a7.448 7.448 0 0 0 1.665-1.804c.379 1.426 1.183 2.55 2.34 3.236.46.273.987.417 1.52.417a3 3 0 0 0 2.57-1.464c.15-.256.26-.526.33-.806.826.747 2.048 1.466 3.787 1.674a7.752 7.752 0 0 0 1.275.048c1.359-.052 2.615-.387 3.632-.968.332-.19.61-.44.83-.73.195.224.425.419.688.575.068.04.44.265.71.389a8.648 8.648 0 0 0 3.457.765h.075c1.903 0 3.517-.662 4.668-1.912.932-1.015 1.364-2.304 1.249-3.73z"/></g><g><path fill="#00af3f" d="M80.44 184.565c-.161-.172-.415-.334-.46-1.004-.3-4.4.675-11.463.685-11.533a1.63 1.63 0 0 0-1.387-1.837 1.631 1.631 0 0 0-1.837 1.387c-.105.759-1.025 7.552-.708 12.205.11 1.63.788 2.892 1.905 3.553.25.15.537.228.828.228.573 0 1.11-.306 1.4-.798.223-.374.285-.812.178-1.233-.108-.421-.302-.65-.603-.968z"/></g><g><path fill="#00af3f" d="M71.529 175.866c1.263.221 2.362.947 3.094 2.046.847 1.272 1.117 2.925.74 4.537-.333 1.425-1.133 2.684-2.252 3.548-.952.734-2.046 1.12-3.15 1.12-.272 0-.545-.024-.817-.072-1.263-.22-2.362-.948-3.094-2.046-.847-1.272-1.117-2.925-.74-4.537.334-1.424 1.133-2.684 2.252-3.547 1.187-.916 2.596-1.289 3.967-1.049zm.793 5.825c.18-.77.075-1.524-.289-2.07a1.497 1.497 0 0 0-1.271-.698c-1.041 0-2.104.986-2.411 2.297-.18.77-.075 1.525.289 2.071.172.257.484.584.995.672 1.123.197 2.353-.844 2.687-2.272z"/></g><g><path fill="#00af3f" d="M64.093 184.61a1.577 1.577 0 1 1-1.711 2.652 3.702 3.702 0 0 1-1.411-1.666c-.01.007-.016.015-.025.02-.938.805-2.051 1.232-3.183 1.232-.187 0-.374-.012-.561-.035-1.212-.152-2.29-.794-3.031-1.808-.855-1.168-1.182-2.724-.896-4.271.253-1.374.957-2.615 1.983-3.492 1.093-.936 2.422-1.361 3.744-1.195a4.352 4.352 0 0 1 1.836.67c.195-2.134.43-3.685.45-3.811a1.578 1.578 0 1 1 3.119.479c-.011.072-.907 5.99-.62 10.592.026.4.162.54.306.634zm-4.267-3.057c.128-.696.005-1.365-.34-1.835a1.282 1.282 0 0 0-1.042-.55c-.922 0-1.844.935-2.066 2.138-.128.696-.005 1.365.34 1.836.158.216.438.484.876.539.975.123 1.997-.853 2.232-2.128z"/></g><g><path fill="#00af3f" d="M101.384 182.872c-.18-2.227-2.314-2.71-3.464-2.97a21.702 21.702 0 0 0-.657-.126c-.653-.108-1.266-.298-1.214-.687.032-.235.493-.427 1.107-.373.729.063 1.07.19 1.845.471.774.283 1.539.053 1.92-.617a1.472 1.472 0 0 0-.61-2.035 8.149 8.149 0 0 0-.574-.273c-.633-.255-1.617-.496-2.92-.355-.628.068-2.198.35-3.201 1.517a3.12 3.12 0 0 0-.755 2.37c.189 2.083 2.264 2.561 3.379 2.801 0 0 .412.081.895.218.243.07.804.18.989.471.17.27.009.672-.532.806a2.873 2.873 0 0 1-1.057.015 6.357 6.357 0 0 1-1.776-.59c-.75-.37-1.584-.14-1.996.54-.424.7-.196 1.61.51 2.03 0 0 .368.222.583.32a7.292 7.292 0 0 0 2.9.642c1.594.013 2.849-.514 3.732-1.475.67-.728.98-1.662.896-2.7z"/></g><g><path fill="#00af3f" d="M89.736 176.495a3.98 3.98 0 0 1 1.998 2.668c.25 1.108.132 1.966-.352 2.55-.871 1.055-3.056 1.235-3.955 1.265-.626.019-2.159-.055-2.901-.396.043.09.099.203.146.282.287.48.866 1.082 1.987 1.216.918.11 1.867-.11 2.389-.407a1.359 1.359 0 0 1 1.071-.125c.36.108.657.356.835.697.368.703.114 1.592-.567 1.98-.832.476-1.892.749-3.013.793a6.532 6.532 0 0 1-1.06-.04c-1.866-.224-2.983-1.166-3.591-1.918a5.156 5.156 0 0 1-1.112-3.034c-.071-2.45.993-4.347 3.077-5.492 1.54-.845 3.568-.861 5.048-.04zm-1.121 3.515c.323-.126.352-.28.294-.554-.109-.518-.734-.723-1.236-.741-.637-.022-1.269.11-1.697.355a3.107 3.107 0 0 0-.897.742c.537.252 1.329.387 2.185.369.445-.01 1.067-.06 1.351-.171z"/></g><g><path fill="#00af3f" d="M25.02 176.611l.107-.008.069-.008a1.418 1.418 0 0 0 .722-2.493 1.409 1.409 0 0 0-1.036-.328.735.735 0 0 1-.624-1.203.742.742 0 0 1 .5-.259 1.42 1.42 0 0 0-.244-2.829 3.55 3.55 0 0 0-2.429 1.26 3.55 3.55 0 0 0-.826 2.607 3.58 3.58 0 0 0 3.76 3.261z"/></g><g><path fill="#00af3f" d="M50.323 176.495a3.98 3.98 0 0 1 1.998 2.668c.25 1.108.132 1.966-.352 2.55-.871 1.055-3.056 1.235-3.955 1.265-.626.019-2.16-.055-2.901-.396.043.09.099.203.146.282.287.48.866 1.082 1.988 1.216.917.11 1.866-.11 2.388-.407a1.359 1.359 0 0 1 1.07-.125c.362.108.658.356.837.697.368.703.113 1.592-.568 1.98-.832.476-1.892.749-3.012.793a6.785 6.785 0 0 1-1.061-.04c-1.866-.224-2.983-1.166-3.591-1.918a5.156 5.156 0 0 1-1.112-3.034c-.071-2.45.993-4.347 3.077-5.492 1.54-.845 3.569-.861 5.048-.04zm-1.121 3.515c.323-.126.352-.28.294-.554-.11-.518-.734-.723-1.236-.741-.637-.022-1.27.11-1.697.355a3.107 3.107 0 0 0-.897.742c.538.252 1.329.387 2.185.369.445-.01 1.067-.06 1.35-.171z"/></g><g><path fill="#00af3f" d="M34.384 169.155a1.665 1.665 0 0 0-1.283.038c-.41.184-.722.515-.882.933-.159.42-.145.874.04 1.284.182.41.514.722.932.881 3.398 1.293 5.152 4.474 4.364 7.918-.417 1.822-1.364 3.191-2.814 4.071l-.065.038c-.975-1.02-2.385-2.095-4.074-2.74.963-3.529.982-7.194.084-11.263a1.677 1.677 0 1 0-3.277.724c.797 3.607.758 6.84-.142 9.95a7.227 7.227 0 0 0-2.613.59c-.429.183-.906.337-1.217.293a.733.733 0 1 1 .21-1.452 1.42 1.42 0 0 0 .404-2.811 3.549 3.549 0 0 0-2.65.676 3.549 3.549 0 0 0-1.396 2.351 3.578 3.578 0 0 0 1.45 3.408 6.796 6.796 0 0 0-.45.647c-.78 1.323-.977 2.816-.512 4.211.58 1.74 2.062 3.001 3.778 3.215.253.032.494.047.727.047 2.494 0 3.85-1.736 5.06-3.28.026-.036.054-.068.082-.1 2.37-.004 4.59-.57 6.341-1.635 2.224-1.348 3.726-3.49 4.345-6.192 1.177-5.146-1.41-9.888-6.442-11.802z"/></g><g><path fill="#fff" d="M28.023 187.293c-1.39 1.78-2.047 2.437-3.432 2.264-.724-.091-1.387-.682-1.65-1.471-.325-.976.016-2.016.962-2.929 1.096-1.058 2.318-1.592 3.643-1.592.24 0 .483.018.73.053.177.025.353.06.526.101-1.28.202-2.758.838-4.03 2.433a.902.902 0 1 0 1.412 1.126c1.371-1.719 3.051-1.941 4.271-1.8a5.692 5.692 0 0 0-2.432 1.815z"/></g></g></svg>